M48
; DRILL file {KiCad 9.0.4} date 2025-10-09T21:58:18+0200
; FORMAT={-:-/ absolute / metric / decimal}
; #@! TF.CreationDate,2025-10-09T21:58:18+02:00
; #@! TF.GenerationSoftware,Kicad,Pcbnew,9.0.4
; #@! TF.FileFunction,Plated,1,2,PTH
FMAT,2
METRIC
; #@! TA.AperFunction,Plated,PTH,ViaDrill
T1C0.400
; #@! TA.AperFunction,Plated,PTH,ComponentDrill
T2C0.550
; #@! TA.AperFunction,Plated,PTH,ComponentDrill
T3C0.800
; #@! TA.AperFunction,Plated,PTH,ComponentDrill
T4C0.900
; #@! TA.AperFunction,Plated,PTH,ComponentDrill
T5C0.950
; #@! TA.AperFunction,Plated,PTH,ComponentDrill
T6C1.000
; #@! TA.AperFunction,Plated,PTH,ComponentDrill
T7C1.001
; #@! TA.AperFunction,Plated,PTH,ComponentDrill
T8C1.040
; #@! TA.AperFunction,Plated,PTH,ComponentDrill
T9C1.100
; #@! TA.AperFunction,Plated,PTH,ComponentDrill
T10C1.300
; #@! TA.AperFunction,Plated,PTH,ComponentDrill
T11C1.397
; #@! TA.AperFunction,Plated,PTH,ComponentDrill
T12C1.400
; #@! TA.AperFunction,Plated,PTH,ComponentDrill
T13C1.500
; #@! TA.AperFunction,Plated,PTH,ComponentDrill
T14C1.600
; #@! TA.AperFunction,Plated,PTH,ComponentDrill
T15C2.200
; #@! TA.AperFunction,Plated,PTH,ComponentDrill
T16C2.500
; #@! TA.AperFunction,Plated,PTH,ComponentDrill
T17C3.000
%
G90
G05
T1
X153.82Y-144.99
X154.82Y-144.99
X155.82Y-144.99
X156.82Y-144.99
X157.82Y-144.99
X158.15Y-101.45
X183.32Y-71.6
X202.75Y-77.5
X218.0Y-116.5
X219.0Y-116.5
X220.0Y-116.5
X221.0Y-116.5
X222.0Y-116.5
X223.0Y-116.5
X235.87Y-138.48
T3
X63.83Y-60.02
X63.83Y-64.22
X63.84Y-51.5
X63.84Y-56.5
X69.74Y-52.738
X69.74Y-55.238
X79.07Y-60.02
X79.07Y-64.22
X106.07Y-106.13
X106.07Y-126.13
X108.57Y-106.13
X108.57Y-126.13
X112.28Y-138.73
X112.5Y-133.64
X115.0Y-133.64
X117.28Y-138.73
X117.75Y-144.83
X122.75Y-144.83
X129.06Y-119.36
X129.06Y-134.6
X133.26Y-119.36
X133.26Y-134.6
X137.46Y-119.36
X137.46Y-134.6
X137.751Y-105.05
X141.66Y-119.36
X141.66Y-134.6
X145.86Y-119.37
X145.86Y-134.61
X150.06Y-119.37
X150.06Y-134.61
X152.991Y-105.05
X154.4Y-113.1
X154.4Y-128.34
X158.15Y-113.1
X158.15Y-128.34
X161.54Y-123.34
X161.54Y-128.34
X161.91Y-105.94
X161.91Y-121.18
X165.65Y-105.94
X165.65Y-121.18
X169.05Y-116.18
X169.05Y-121.18
X172.13Y-112.665
X172.13Y-115.205
X172.13Y-117.745
X172.13Y-120.285
X172.13Y-122.825
X172.13Y-125.365
X172.13Y-127.905
X179.75Y-112.665
X179.75Y-115.205
X179.75Y-117.745
X179.75Y-120.285
X179.75Y-122.825
X179.75Y-125.365
X179.75Y-127.905
X182.84Y-112.665
X182.84Y-117.665
X182.85Y-120.33
X182.85Y-125.33
X183.32Y-67.54
X183.32Y-82.78
X183.32Y-86.2
X183.32Y-101.44
X186.26Y-110.1
X186.26Y-125.34
X186.61Y-53.91
X186.61Y-56.41
X186.61Y-60.9
X186.61Y-63.4
X188.02Y-67.54
X188.02Y-82.78
X188.02Y-86.2
X188.02Y-101.44
X190.01Y-110.1
X190.01Y-125.34
X191.48Y-53.53
X191.48Y-58.53
X191.5Y-60.9
X191.5Y-65.9
X194.73Y-100.03
X194.73Y-115.27
X197.74Y-100.5
X198.59Y-113.2
X198.99Y-106.42
X201.49Y-106.42
X202.74Y-100.5
X205.28Y-100.5
X208.8Y-106.65
X210.28Y-100.5
X213.8Y-106.65
X213.83Y-113.2
X214.502Y-64.0
X217.002Y-64.0
X217.41Y-110.93
X217.41Y-113.47
X218.25Y-103.0
X225.03Y-110.93
X225.03Y-113.47
X225.87Y-107.1
X233.09Y-122.34
X233.15Y-129.08
X233.15Y-133.78
X233.15Y-138.48
X233.49Y-103.0
X233.49Y-107.1
X235.63Y-122.34
X238.17Y-122.34
X248.39Y-129.08
X248.39Y-133.78
X248.39Y-138.48
T4
X129.05Y-145.6
X131.59Y-145.6
X147.54Y-145.6
X150.08Y-145.6
T5
X53.5Y-53.23
X56.0Y-53.23
X58.5Y-53.23
X121.26Y-121.27
X121.26Y-123.77
X121.26Y-126.27
X121.26Y-128.77
X121.26Y-131.27
X121.26Y-133.77
X121.26Y-136.27
X121.26Y-138.77
T6
X105.388Y-116.13
X109.388Y-116.13
X114.941Y-105.94
X115.2Y-148.14
X117.74Y-148.14
X119.941Y-105.94
X120.28Y-148.14
X122.82Y-148.14
X125.36Y-148.14
X127.451Y-105.94
X132.451Y-105.94
X207.0Y-62.0
X207.0Y-66.0
X244.0Y-122.34
X246.5Y-122.34
T7
X237.749Y-57.501
X237.749Y-60.0
X237.749Y-106.501
X237.749Y-109.0
T8
X202.74Y-71.8
X202.74Y-97.2
X205.28Y-71.8
X205.28Y-97.2
X207.82Y-71.8
X207.82Y-97.2
X210.36Y-71.8
X210.36Y-97.2
X212.9Y-71.8
X212.9Y-97.2
X215.44Y-71.8
X215.44Y-97.2
X217.98Y-71.8
X217.98Y-97.2
X220.52Y-71.8
X220.52Y-97.2
X223.06Y-71.8
X223.06Y-97.2
X225.6Y-71.8
X225.6Y-97.2
X228.14Y-71.8
X228.14Y-97.2
X230.68Y-71.8
X230.68Y-97.2
X233.22Y-71.8
X233.22Y-97.2
X235.76Y-71.8
X235.76Y-97.2
X238.3Y-71.8
X238.3Y-97.2
X240.84Y-71.8
X240.84Y-97.2
X243.38Y-71.8
X243.38Y-97.2
X245.92Y-71.8
X245.92Y-97.2
X248.46Y-71.8
X248.46Y-97.2
T9
X195.0Y-58.55
X196.7Y-54.85
X198.4Y-58.55
X200.1Y-54.85
X201.8Y-58.55
T10
X86.01Y-96.0
X91.09Y-96.0
X128.85Y-96.0
X133.93Y-96.0
X141.03Y-96.0
X146.11Y-96.0
X151.19Y-96.0
T11
X96.77Y-96.0
X119.27Y-96.0
T12
X82.3Y-51.76
X82.3Y-64.46
X113.83Y-114.66
X113.83Y-127.36
T13
X88.332Y-54.68
X88.332Y-63.68
X136.86Y-145.6
X142.26Y-145.6
X149.832Y-54.68
X149.832Y-60.18
T14
X207.0Y-54.84
X222.24Y-54.84
T15
X242.013Y-54.902
X242.013Y-65.1
X242.013Y-103.902
X242.013Y-114.1
T16
X57.31Y-122.29
X75.31Y-122.29
T17
X54.98Y-145.0
X55.0Y-62.5
X232.0Y-62.5
X232.0Y-144.99
T2
G00X137.02Y-137.48
M15
G01X137.02Y-138.48
M16
G05
G00X137.02Y-140.02
M15
G01X137.02Y-141.02
M16
G05
G00X139.56Y-137.48
M15
G01X139.56Y-138.48
M16
G05
G00X139.56Y-140.02
M15
G01X139.56Y-141.02
M16
G05
G00X142.1Y-137.48
M15
G01X142.1Y-138.48
M16
G05
G00X142.1Y-140.02
M15
G01X142.1Y-141.02
M16
G05
M30
