%TF.GenerationSoftware,KiCad,Pcbnew,(6.0.4)*%
%TF.CreationDate,2023-10-06T01:52:22+02:00*%
%TF.ProjectId,OpenSpritzer2,4f70656e-5370-4726-9974-7a6572322e6b,rev?*%
%TF.SameCoordinates,Original*%
%TF.FileFunction,Copper,L1,Top*%
%TF.FilePolarity,Positive*%
%FSLAX46Y46*%
G04 Gerber Fmt 4.6, Leading zero omitted, Abs format (unit mm)*
G04 Created by KiCad (PCBNEW (6.0.4)) date 2023-10-06 01:52:22*
%MOMM*%
%LPD*%
G01*
G04 APERTURE LIST*
G04 Aperture macros list*
%AMRoundRect*
0 Rectangle with rounded corners*
0 $1 Rounding radius*
0 $2 $3 $4 $5 $6 $7 $8 $9 X,Y pos of 4 corners*
0 Add a 4 corners polygon primitive as box body*
4,1,4,$2,$3,$4,$5,$6,$7,$8,$9,$2,$3,0*
0 Add four circle primitives for the rounded corners*
1,1,$1+$1,$2,$3*
1,1,$1+$1,$4,$5*
1,1,$1+$1,$6,$7*
1,1,$1+$1,$8,$9*
0 Add four rect primitives between the rounded corners*
20,1,$1+$1,$2,$3,$4,$5,0*
20,1,$1+$1,$4,$5,$6,$7,0*
20,1,$1+$1,$6,$7,$8,$9,0*
20,1,$1+$1,$8,$9,$2,$3,0*%
G04 Aperture macros list end*
%TA.AperFunction,ComponentPad*%
%ADD10O,1.950000X1.700000*%
%TD*%
%TA.AperFunction,ComponentPad*%
%ADD11RoundRect,0.250000X-0.725000X0.600000X-0.725000X-0.600000X0.725000X-0.600000X0.725000X0.600000X0*%
%TD*%
%TA.AperFunction,ComponentPad*%
%ADD12R,1.500000X1.500000*%
%TD*%
%TA.AperFunction,ComponentPad*%
%ADD13C,1.500000*%
%TD*%
%TA.AperFunction,ComponentPad*%
%ADD14C,1.600000*%
%TD*%
%TA.AperFunction,ComponentPad*%
%ADD15R,1.600000X1.600000*%
%TD*%
%TA.AperFunction,ComponentPad*%
%ADD16O,3.200000X3.200000*%
%TD*%
%TA.AperFunction,ComponentPad*%
%ADD17R,3.200000X3.200000*%
%TD*%
%TA.AperFunction,ComponentPad*%
%ADD18O,2.499360X1.600200*%
%TD*%
%TA.AperFunction,ComponentPad*%
%ADD19O,7.000240X3.500120*%
%TD*%
%TA.AperFunction,ComponentPad*%
%ADD20O,1.600000X1.600000*%
%TD*%
%TA.AperFunction,ComponentPad*%
%ADD21O,1.700000X2.000000*%
%TD*%
%TA.AperFunction,ComponentPad*%
%ADD22RoundRect,0.250000X-0.600000X-0.750000X0.600000X-0.750000X0.600000X0.750000X-0.600000X0.750000X0*%
%TD*%
%TA.AperFunction,ComponentPad*%
%ADD23O,1.700000X1.700000*%
%TD*%
%TA.AperFunction,ComponentPad*%
%ADD24R,1.700000X1.700000*%
%TD*%
%TA.AperFunction,ComponentPad*%
%ADD25C,1.800000*%
%TD*%
%TA.AperFunction,ComponentPad*%
%ADD26R,1.800000X1.800000*%
%TD*%
%TA.AperFunction,ComponentPad*%
%ADD27C,1.560000*%
%TD*%
%TA.AperFunction,ComponentPad*%
%ADD28R,1.560000X1.560000*%
%TD*%
%TA.AperFunction,ComponentPad*%
%ADD29O,1.800000X1.800000*%
%TD*%
%TA.AperFunction,ComponentPad*%
%ADD30C,2.000000*%
%TD*%
%TA.AperFunction,ComponentPad*%
%ADD31R,0.750000X1.750000*%
%TD*%
%TA.AperFunction,ComponentPad*%
%ADD32C,1.850000*%
%TD*%
%TA.AperFunction,ComponentPad*%
%ADD33RoundRect,0.875000X-0.875000X0.875000X-0.875000X-0.875000X0.875000X-0.875000X0.875000X0.875000X0*%
%TD*%
%TA.AperFunction,ComponentPad*%
%ADD34RoundRect,0.750000X-1.000000X0.750000X-1.000000X-0.750000X1.000000X-0.750000X1.000000X0.750000X0*%
%TD*%
%TA.AperFunction,ComponentPad*%
%ADD35R,3.500000X3.500000*%
%TD*%
%TA.AperFunction,ViaPad*%
%ADD36C,0.800000*%
%TD*%
%TA.AperFunction,Conductor*%
%ADD37C,0.250000*%
%TD*%
G04 APERTURE END LIST*
D10*
%TO.P,U3,8,BL*%
%TO.N,GPIO2*%
X112150000Y-131950000D03*
%TO.P,U3,7,RST*%
%TO.N,GPIO0*%
X112150000Y-129450000D03*
%TO.P,U3,6,DC*%
%TO.N,GPIO4*%
X112150000Y-126950000D03*
%TO.P,U3,5,CS*%
%TO.N,GPIO15*%
X112150000Y-124450000D03*
%TO.P,U3,4,CLK*%
%TO.N,GPIO18*%
X112150000Y-121950000D03*
%TO.P,U3,3,DIN*%
%TO.N,GPIO23*%
X112150000Y-119450000D03*
%TO.P,U3,2,GND*%
%TO.N,GNDREF*%
X112150000Y-116950000D03*
D11*
%TO.P,U3,1,VCC*%
%TO.N,3.3V*%
X112150000Y-114450000D03*
%TD*%
D12*
%TO.P,NPN,1,B*%
%TO.N,GPIO32*%
X60200000Y-125500000D03*
D13*
%TO.P,NPN,2,C*%
%TO.N,Net-(D4-Pad1)*%
X62740000Y-125500000D03*
%TO.P,NPN,3,E*%
%TO.N,GNDREF*%
X65280000Y-125500000D03*
%TD*%
D12*
%TO.P,NPN,1,B*%
%TO.N,Net-(J3-Pad1)*%
X97600000Y-107700000D03*
D13*
%TO.P,NPN,2,C*%
%TO.N,Net-(Q1-Pad3)*%
X100140000Y-107700000D03*
%TO.P,NPN,3,E*%
%TO.N,GPIO32*%
X102680000Y-107700000D03*
%TD*%
D12*
%TO.P,NPN,1,B*%
%TO.N,Net-(R2-Pad2)*%
X97600000Y-102800000D03*
D13*
%TO.P,NPN,2,C*%
%TO.N,3.3V*%
X100140000Y-102800000D03*
%TO.P,NPN,3,E*%
%TO.N,Net-(Q1-Pad3)*%
X102680000Y-102800000D03*
%TD*%
D14*
%TO.P,C2,2*%
%TO.N,GNDREF*%
X100150000Y-95032380D03*
D15*
%TO.P,C2,1*%
%TO.N,VCC 5V*%
X100150000Y-97532380D03*
%TD*%
D16*
%TO.P,D1,2,A*%
%TO.N,GNDREF*%
X100150000Y-83090000D03*
D17*
%TO.P,D1,1,K*%
%TO.N,Net-(D1-Pad1)*%
X100150000Y-67850000D03*
%TD*%
D18*
%TO.P,J2,1,In*%
%TO.N,Net-(SW2-Pad4)*%
X62301260Y-75050000D03*
D19*
%TO.P,J2,2,Ext*%
%TO.N,GNDREF*%
X58036600Y-80147780D03*
X58036600Y-69949680D03*
D18*
%TO.N,VCC 5V*%
X62301260Y-77549360D03*
%TD*%
D20*
%TO.P,R5,2*%
%TO.N,VCC 5V*%
X67470000Y-120950000D03*
D14*
%TO.P,R5,1*%
%TO.N,Net-(D4-Pad2)*%
X52230000Y-120950000D03*
%TD*%
D20*
%TO.P,R3,2*%
%TO.N,GPIO34*%
X105290000Y-118050000D03*
D14*
%TO.P,R3,1*%
%TO.N,Net-(R3-Pad1)*%
X90050000Y-118050000D03*
%TD*%
D21*
%TO.P,D4,2,A*%
%TO.N,Net-(D4-Pad2)*%
X60050000Y-130050000D03*
D22*
%TO.P,D4,1,K*%
%TO.N,Net-(D4-Pad1)*%
X57550000Y-130050000D03*
%TD*%
D10*
%TO.P,J4,3,Pin_3*%
%TO.N,GPIO32*%
X112150000Y-107050000D03*
%TO.P,J4,2,Pin_2*%
%TO.N,Vin 24V*%
X112150000Y-104550000D03*
D11*
%TO.P,J4,1,Pin_1*%
%TO.N,GNDREF*%
X112150000Y-102050000D03*
%TD*%
D23*
%TO.P,SW3,5,S2*%
%TO.N,GNDREF*%
X92490000Y-133550000D03*
%TO.P,SW3,4,S1*%
%TO.N,3.3V*%
X95030000Y-133550000D03*
%TO.P,SW3,3,B*%
%TO.N,GPIO21*%
X97570000Y-133550000D03*
%TO.P,SW3,2,C*%
%TO.N,GPIO26*%
X100110000Y-133550000D03*
D24*
%TO.P,SW3,1,A*%
%TO.N,GPIO25*%
X102650000Y-133550000D03*
%TD*%
D25*
%TO.P,D2,2,A*%
%TO.N,Net-(D2-Pad2)*%
X85865000Y-130050000D03*
D26*
%TO.P,D2,1,K*%
%TO.N,GNDREF*%
X83325000Y-130050000D03*
%TD*%
D20*
%TO.P,R1,2*%
%TO.N,Net-(R1-Pad2)*%
X84390000Y-112050000D03*
D14*
%TO.P,R1,1*%
%TO.N,Net-(D2-Pad2)*%
X69150000Y-112050000D03*
%TD*%
D27*
%TO.P,U1,38,CLK*%
%TO.N,unconnected-(U1-Pad38)*%
X66350000Y-54590000D03*
%TO.P,U1,37,SD0*%
%TO.N,unconnected-(U1-Pad37)*%
X66350000Y-57130000D03*
%TO.P,U1,36,SD1*%
%TO.N,unconnected-(U1-Pad36)*%
X66350000Y-59670000D03*
%TO.P,U1,35,IO15*%
%TO.N,GPIO15*%
X66350000Y-62210000D03*
%TO.P,U1,34,IO2*%
%TO.N,GPIO2*%
X66350000Y-64750000D03*
%TO.P,U1,33,IO0*%
%TO.N,GPIO0*%
X66350000Y-67290000D03*
%TO.P,U1,32,IO4*%
%TO.N,GPIO4*%
X66350000Y-69830000D03*
%TO.P,U1,31,IO16*%
%TO.N,unconnected-(U1-Pad31)*%
X66350000Y-72370000D03*
%TO.P,U1,30,IO17*%
%TO.N,unconnected-(U1-Pad30)*%
X66350000Y-74910000D03*
%TO.P,U1,29,IO5*%
%TO.N,unconnected-(U1-Pad29)*%
X66350000Y-77450000D03*
%TO.P,U1,28,IO18*%
%TO.N,GPIO18*%
X66350000Y-79990000D03*
%TO.P,U1,27,IO19*%
%TO.N,unconnected-(U1-Pad27)*%
X66350000Y-82530000D03*
%TO.P,U1,26,GND2*%
%TO.N,GNDREF*%
X66350000Y-85070000D03*
%TO.P,U1,25,IO21*%
%TO.N,GPIO21*%
X66350000Y-87610000D03*
%TO.P,U1,24,RXD0*%
%TO.N,unconnected-(U1-Pad24)*%
X66350000Y-90150000D03*
%TO.P,U1,23,TXD0*%
%TO.N,unconnected-(U1-Pad23)*%
X66350000Y-92690000D03*
%TO.P,U1,22,IO22*%
%TO.N,unconnected-(U1-Pad22)*%
X66350000Y-95230000D03*
%TO.P,U1,21,IO23*%
%TO.N,GPIO23*%
X66350000Y-97770000D03*
%TO.P,U1,20,GND3*%
%TO.N,GNDREF*%
X66350000Y-100310000D03*
%TO.P,U1,19,EXT_5V*%
%TO.N,VCC 5V*%
X91750000Y-54590000D03*
%TO.P,U1,18,CMD*%
%TO.N,unconnected-(U1-Pad18)*%
X91750000Y-57130000D03*
%TO.P,U1,17,SD3*%
%TO.N,unconnected-(U1-Pad17)*%
X91750000Y-59670000D03*
%TO.P,U1,16,SD2*%
%TO.N,unconnected-(U1-Pad16)*%
X91750000Y-62210000D03*
%TO.P,U1,15,IO13*%
%TO.N,unconnected-(U1-Pad15)*%
X91750000Y-64750000D03*
%TO.P,U1,14,GND1*%
%TO.N,GNDREF*%
X91750000Y-67290000D03*
%TO.P,U1,13,IO12*%
%TO.N,unconnected-(U1-Pad13)*%
X91750000Y-69830000D03*
%TO.P,U1,12,IO14*%
%TO.N,unconnected-(U1-Pad12)*%
X91750000Y-72370000D03*
%TO.P,U1,11,IO27*%
%TO.N,unconnected-(U1-Pad11)*%
X91750000Y-74910000D03*
%TO.P,U1,10,IO26*%
%TO.N,GPIO26*%
X91750000Y-77450000D03*
%TO.P,U1,9,IO25*%
%TO.N,GPIO25*%
X91750000Y-79990000D03*
%TO.P,U1,8,IO33*%
%TO.N,unconnected-(U1-Pad8)*%
X91750000Y-82530000D03*
%TO.P,U1,7,IO32*%
%TO.N,GPIO32*%
X91750000Y-85070000D03*
%TO.P,U1,6,IO35*%
%TO.N,unconnected-(U1-Pad6)*%
X91750000Y-87610000D03*
%TO.P,U1,5,IO34*%
%TO.N,GPIO34*%
X91750000Y-90150000D03*
%TO.P,U1,4,SENSOR_VN*%
%TO.N,unconnected-(U1-Pad4)*%
X91750000Y-92690000D03*
%TO.P,U1,3,SENSOR_VP*%
%TO.N,unconnected-(U1-Pad3)*%
X91750000Y-95230000D03*
%TO.P,U1,2,EN*%
%TO.N,unconnected-(U1-Pad2)*%
X91750000Y-97770000D03*
D28*
%TO.P,U1,1,3V3*%
%TO.N,3.3V*%
X91750000Y-100310000D03*
%TD*%
D29*
%TO.P,U2,5,~{ON}/OFF*%
%TO.N,GNDREF*%
X106500000Y-74650000D03*
%TO.P,U2,4,FB*%
%TO.N,VCC 5V*%
X110200000Y-72950000D03*
%TO.P,U2,3,GND*%
%TO.N,GNDREF*%
X106500000Y-71250000D03*
%TO.P,U2,2,OUT*%
%TO.N,Net-(D1-Pad1)*%
X110200000Y-69550000D03*
D26*
%TO.P,U2,1,VIN*%
%TO.N,Vin 24V*%
X106500000Y-67850000D03*
%TD*%
D19*
%TO.P,J3,2,Ext*%
%TO.N,GNDREF*%
X58036600Y-104949680D03*
D18*
X62301260Y-112549360D03*
D19*
X58036600Y-115147780D03*
D18*
%TO.P,J3,1,In*%
%TO.N,Net-(J3-Pad1)*%
X62301260Y-110050000D03*
%TD*%
D10*
%TO.P,SW1,3,K*%
%TO.N,GNDREF*%
X112150000Y-93850000D03*
%TO.P,SW1,2,A*%
%TO.N,Vin 24V*%
X112150000Y-91350000D03*
D11*
%TO.P,SW1,1,1*%
%TO.N,Net-(J1-Pad1)*%
X112150000Y-88850000D03*
%TD*%
D30*
%TO.P,L1,2,2*%
%TO.N,VCC 5V*%
X111650000Y-81150000D03*
%TO.P,L1,1,1*%
%TO.N,Net-(D1-Pad1)*%
X107650000Y-81150000D03*
%TD*%
D20*
%TO.P,R4,2*%
%TO.N,GPIO34*%
X105290000Y-112050000D03*
D14*
%TO.P,R4,1*%
%TO.N,GNDREF*%
X90050000Y-112050000D03*
%TD*%
D25*
%TO.P,D3,2,A*%
%TO.N,Net-(D3-Pad2)*%
X70115000Y-130050000D03*
D26*
%TO.P,D3,1,K*%
%TO.N,GNDREF*%
X67575000Y-130050000D03*
%TD*%
D20*
%TO.P,R2,2*%
%TO.N,Net-(R2-Pad2)*%
X84390000Y-118050000D03*
D14*
%TO.P,R2,1*%
%TO.N,Net-(D3-Pad2)*%
X69150000Y-118050000D03*
%TD*%
D31*
%TO.P,SW2,6,C*%
%TO.N,unconnected-(SW2-Pad6)*%
X79290000Y-125720000D03*
%TO.P,SW2,5,B*%
%TO.N,Net-(R3-Pad1)*%
X76750000Y-125720000D03*
%TO.P,SW2,4,A*%
%TO.N,Net-(SW2-Pad4)*%
X74210000Y-125720000D03*
%TO.P,SW2,3,C*%
%TO.N,Net-(R2-Pad2)*%
X79290000Y-123180000D03*
%TO.P,SW2,2,B*%
%TO.N,VCC 5V*%
X76750000Y-123180000D03*
%TO.P,SW2,1,A*%
%TO.N,Net-(R1-Pad2)*%
X74210000Y-123180000D03*
D32*
%TO.P,SW2,*%
%TO.N,*%
X79450000Y-130800000D03*
X74050000Y-130800000D03*
%TD*%
D14*
%TO.P,C1,2*%
%TO.N,GNDREF*%
X100150000Y-87532380D03*
D15*
%TO.P,C1,1*%
%TO.N,Vin 24V*%
X100150000Y-90032380D03*
%TD*%
D33*
%TO.P,J1,3*%
%TO.N,GNDREF*%
X105350000Y-57850000D03*
D34*
%TO.P,J1,2*%
X110050000Y-54850000D03*
D35*
%TO.P,J1,1*%
%TO.N,Net-(J1-Pad1)*%
X110050000Y-60850000D03*
%TD*%
D36*
%TO.N,GPIO25*%
X79367859Y-102767859D03*
%TO.N,GPIO26*%
X77950000Y-102750000D03*
%TO.N,GPIO21*%
X98450000Y-116900000D03*
%TO.N,GPIO18*%
X100400000Y-119050000D03*
%TD*%
D37*
%TO.N,VCC 5V*%
X50600000Y-128800000D02*
X50600000Y-73850000D01*
X50600000Y-73850000D02*
X52100000Y-72350000D01*
X51091207Y-129291207D02*
X50600000Y-128800000D01*
X51105489Y-129291207D02*
X51091207Y-129291207D01*
X56114282Y-134300000D02*
X51105489Y-129291207D01*
X75930000Y-124500000D02*
X75930000Y-132070000D01*
X75930000Y-132070000D02*
X73700000Y-134300000D01*
X73700000Y-134300000D02*
X56114282Y-134300000D01*
%TO.N,Net-(R2-Pad2)*%
X79290000Y-123150000D02*
X84390000Y-118050000D01*
X79290000Y-123180000D02*
X79290000Y-123150000D01*
%TO.N,GPIO25*%
X79367859Y-104382141D02*
X79367859Y-102767859D01*
X92299520Y-117313802D02*
X79367859Y-104382141D01*
X92299520Y-123199520D02*
X92299520Y-117313802D01*
X102650000Y-133550000D02*
X92299520Y-123199520D01*
%TO.N,GPIO26*%
X91850000Y-117500000D02*
X77950000Y-103600000D01*
X77950000Y-103600000D02*
X77950000Y-102750000D01*
X91850000Y-125290000D02*
X91850000Y-117500000D01*
X100110000Y-133550000D02*
X91850000Y-125290000D01*
%TO.N,Net-(R3-Pad1)*%
X90050000Y-130350000D02*
X90050000Y-118050000D01*
X86500000Y-133900000D02*
X90050000Y-130350000D01*
X76750000Y-131800000D02*
X78850000Y-133900000D01*
X78850000Y-133900000D02*
X86500000Y-133900000D01*
X76750000Y-125720000D02*
X76750000Y-131800000D01*
%TO.N,GPIO2*%
X108275000Y-128075000D02*
X112150000Y-131950000D01*
X108275000Y-123360718D02*
X108275000Y-128075000D01*
X73450000Y-88535718D02*
X108275000Y-123360718D01*
X73450000Y-71850000D02*
X73450000Y-88535718D01*
X73325000Y-71725000D02*
X73450000Y-71850000D01*
%TO.N,Net-(SW2-Pad4)*%
X63550000Y-75050000D02*
X62301260Y-75050000D01*
X64900000Y-76400000D02*
X63550000Y-75050000D01*
X64900000Y-81585718D02*
X64900000Y-76400000D01*
X63186198Y-83299520D02*
X64900000Y-81585718D01*
X58936198Y-83299520D02*
X63186198Y-83299520D01*
X52150000Y-90085718D02*
X58936198Y-83299520D01*
X52150000Y-114564283D02*
X52150000Y-90085718D01*
X55835717Y-118250000D02*
X52150000Y-114564283D01*
X60600000Y-118250000D02*
X55835717Y-118250000D01*
X66354511Y-124004511D02*
X60600000Y-118250000D01*
%TO.N,GPIO32*%
X57386198Y-52399520D02*
X66899520Y-52399520D01*
X68200000Y-61520000D02*
X68200000Y-53700000D01*
X52549520Y-57236198D02*
X57386198Y-52399520D01*
X66899520Y-52399520D02*
X68200000Y-53700000D01*
X52549520Y-60249520D02*
X52549520Y-59986198D01*
X52549520Y-63000000D02*
X52549520Y-60249520D01*
X52549520Y-60249520D02*
X52549520Y-57236198D01*
%TO.N,VCC 5V*%
X52100000Y-57050000D02*
X57200000Y-51950000D01*
X57200000Y-51950000D02*
X94390000Y-51950000D01*
X52100000Y-72350000D02*
X52100000Y-57050000D01*
X57299360Y-77549360D02*
X52100000Y-72350000D01*
X62301260Y-77549360D02*
X57299360Y-77549360D01*
%TO.N,GPIO32*%
X52549520Y-59986198D02*
X52567859Y-59967859D01*
X52549520Y-71599520D02*
X52549520Y-63000000D01*
X57250000Y-76300000D02*
X52549520Y-71599520D01*
X60450000Y-76300000D02*
X57250000Y-76300000D01*
X63950000Y-76300000D02*
X60450000Y-76300000D01*
X64450480Y-81399520D02*
X64450480Y-76800480D01*
X64450480Y-76800480D02*
X63950000Y-76300000D01*
X63000000Y-82850000D02*
X64450480Y-81399520D01*
X58750000Y-82850000D02*
X63000000Y-82850000D01*
X51700480Y-89899520D02*
X58750000Y-82850000D01*
X51700480Y-114750480D02*
X51700480Y-89899520D01*
X56625000Y-119675000D02*
X51700480Y-114750480D01*
X62100480Y-52399520D02*
X62050000Y-52450000D01*
X91750000Y-85070000D02*
X68200000Y-61520000D01*
X102680000Y-108420000D02*
X102680000Y-107700000D01*
X101950000Y-109150000D02*
X102680000Y-108420000D01*
X88599520Y-93936198D02*
X88599520Y-101778084D01*
X93000000Y-91300000D02*
X91235718Y-91300000D01*
X93350000Y-90950000D02*
X93000000Y-91300000D01*
X91235718Y-91300000D02*
X88599520Y-93936198D01*
X88599520Y-101778084D02*
X95971436Y-109150000D01*
X93350000Y-86670000D02*
X93350000Y-90950000D01*
X91750000Y-85070000D02*
X93350000Y-86670000D01*
X95971436Y-109150000D02*
X101950000Y-109150000D01*
%TO.N,GPIO34*%
X88150000Y-101964282D02*
X104235718Y-118050000D01*
X88150000Y-93750000D02*
X88150000Y-101964282D01*
X104235718Y-118050000D02*
X105290000Y-118050000D01*
X91750000Y-90150000D02*
X88150000Y-93750000D01*
%TO.N,GPIO21*%
X67890000Y-87610000D02*
X69981411Y-87610000D01*
X69981411Y-87610000D02*
X98450000Y-116078590D01*
X67890000Y-87610000D02*
X66350000Y-87610000D01*
X98450000Y-116078590D02*
X98450000Y-116900000D01*
X68324282Y-87610000D02*
X67890000Y-87610000D01*
%TO.N,GPIO18*%
X100400000Y-117392872D02*
X100400000Y-119050000D01*
X69550000Y-86542871D02*
X100400000Y-117392872D01*
X69550000Y-83190000D02*
X69550000Y-86542871D01*
X66350000Y-79990000D02*
X69550000Y-83190000D01*
%TO.N,GPIO4*%
X70950000Y-74430000D02*
X66350000Y-69830000D01*
X101549520Y-117906674D02*
X70950000Y-87307154D01*
X70950000Y-87307154D02*
X70950000Y-74430000D01*
X101549520Y-128414282D02*
X101549520Y-117906674D01*
X107086198Y-133950960D02*
X101549520Y-128414282D01*
X112927604Y-133950960D02*
X107086198Y-133950960D01*
X114025940Y-132852624D02*
X112927604Y-133950960D01*
X114025940Y-128825940D02*
X114025940Y-132852624D01*
X112150000Y-126950000D02*
X114025940Y-128825940D01*
%TO.N,GPIO0*%
X72150000Y-73090000D02*
X66350000Y-67290000D01*
X72150000Y-87871435D02*
X72150000Y-73090000D01*
X101999040Y-117720476D02*
X72150000Y-87871435D01*
X101999040Y-128228084D02*
X101999040Y-117720476D01*
X107272396Y-133501440D02*
X101999040Y-128228084D01*
X113576420Y-132666426D02*
X112741406Y-133501440D01*
X113576420Y-130500000D02*
X113576420Y-132666426D01*
X112741406Y-133501440D02*
X107272396Y-133501440D01*
X112526420Y-129450000D02*
X113576420Y-130500000D01*
X112150000Y-129450000D02*
X112526420Y-129450000D01*
%TO.N,GPIO15*%
X74900000Y-70760000D02*
X66350000Y-62210000D01*
X74900000Y-89350000D02*
X74900000Y-70760000D01*
X110000000Y-124450000D02*
X74900000Y-89350000D01*
X112150000Y-124450000D02*
X110000000Y-124450000D01*
%TO.N,GPIO2*%
X111750000Y-131950000D02*
X112150000Y-131950000D01*
%TO.N,GPIO23*%
X106900000Y-134400480D02*
X101100000Y-128600480D01*
X77848564Y-97770000D02*
X66350000Y-97770000D01*
X113113802Y-134400480D02*
X106900000Y-134400480D01*
X114475460Y-133038822D02*
X113113802Y-134400480D01*
X101100000Y-128600480D02*
X101100000Y-121021436D01*
X114475460Y-121775460D02*
X114475460Y-133038822D01*
X112150000Y-119450000D02*
X114475460Y-121775460D01*
X101100000Y-121021436D02*
X77848564Y-97770000D01*
%TO.N,3.3V*%
X113300000Y-134850000D02*
X114924980Y-133225020D01*
X96330000Y-134850000D02*
X113300000Y-134850000D01*
X95030000Y-133550000D02*
X96330000Y-134850000D01*
X114924980Y-133225020D02*
X114924980Y-117224980D01*
X114924980Y-117224980D02*
X112150000Y-114450000D01*
%TO.N,GPIO23*%
X112150000Y-119450000D02*
X113750480Y-121050480D01*
%TO.N,GPIO2*%
X66350000Y-64750000D02*
X73325000Y-71725000D01*
%TO.N,Net-(R1-Pad2)*%
X74210000Y-118010000D02*
X74210000Y-123180000D01*
X67774511Y-113724511D02*
X69924511Y-113724511D01*
X67300000Y-111250000D02*
X67300000Y-113250000D01*
X67300000Y-113250000D02*
X67774511Y-113724511D01*
X67900000Y-110650000D02*
X67300000Y-111250000D01*
X69924511Y-113724511D02*
X74210000Y-118010000D01*
X82990000Y-110650000D02*
X67900000Y-110650000D01*
X84390000Y-112050000D02*
X82990000Y-110650000D01*
%TO.N,Net-(D2-Pad2)*%
X85865000Y-116765000D02*
X85865000Y-130050000D01*
X81150000Y-112050000D02*
X85865000Y-116765000D01*
X69150000Y-112050000D02*
X81150000Y-112050000D01*
%TO.N,VCC 5V*%
X68250000Y-116250000D02*
X67470000Y-117030000D01*
X70350000Y-116250000D02*
X68250000Y-116250000D01*
X71600000Y-117500000D02*
X70350000Y-116250000D01*
X71600000Y-122800000D02*
X71600000Y-117500000D01*
X67470000Y-117030000D02*
X67470000Y-120950000D01*
X73300000Y-124500000D02*
X71600000Y-122800000D01*
X75930000Y-124500000D02*
X73300000Y-124500000D01*
X76750000Y-123680000D02*
X75930000Y-124500000D01*
X76750000Y-123180000D02*
X76750000Y-123680000D01*
%TO.N,GPIO32*%
X60200000Y-123250000D02*
X60200000Y-125500000D01*
X56625000Y-119675000D02*
X60200000Y-123250000D01*
%TO.N,Net-(SW2-Pad4)*%
X74210000Y-128773914D02*
X74210000Y-125720000D01*
X70133914Y-132850000D02*
X74210000Y-128773914D01*
X66350489Y-128658533D02*
X66350489Y-131274511D01*
X66350489Y-131274511D02*
X67925978Y-132850000D01*
X67925978Y-132850000D02*
X70133914Y-132850000D01*
X66354511Y-128654511D02*
X66350489Y-128658533D01*
X66354511Y-124004511D02*
X66354511Y-128654511D01*
%TO.N,Net-(D3-Pad2)*%
X70115000Y-119015000D02*
X70115000Y-130050000D01*
X69150000Y-118050000D02*
X70115000Y-119015000D01*
%TO.N,Net-(SW2-Pad4)*%
X66354511Y-124004511D02*
X66354511Y-128825489D01*
%TO.N,Net-(Q1-Pad3)*%
X102680000Y-105160000D02*
X102680000Y-102800000D01*
X100140000Y-107700000D02*
X102680000Y-105160000D01*
%TO.N,VCC 5V*%
X111650000Y-86032380D02*
X111650000Y-81150000D01*
X100150000Y-97532380D02*
X111650000Y-86032380D01*
X113900000Y-69250000D02*
X110200000Y-72950000D01*
X112400000Y-51950000D02*
X113900000Y-53450000D01*
X94390000Y-51950000D02*
X112400000Y-51950000D01*
X113900000Y-53450000D02*
X113900000Y-69250000D01*
X91750000Y-54590000D02*
X94390000Y-51950000D01*
%TO.N,Net-(D1-Pad1)*%
X102950000Y-67850000D02*
X100150000Y-67850000D01*
X104650000Y-69550000D02*
X102950000Y-67850000D01*
X110200000Y-69550000D02*
X104650000Y-69550000D01*
X108500000Y-71250000D02*
X108500000Y-80300000D01*
X110200000Y-69550000D02*
X108500000Y-71250000D01*
X108500000Y-80300000D02*
X107650000Y-81150000D01*
%TO.N,VCC 5V*%
X111650000Y-74400000D02*
X111650000Y-81150000D01*
X110200000Y-72950000D02*
X111650000Y-74400000D01*
%TO.N,GPIO34*%
X105290000Y-112050000D02*
X105290000Y-118050000D01*
%TO.N,GPIO32*%
X102680000Y-107700000D02*
X111500000Y-107700000D01*
X111500000Y-107700000D02*
X112150000Y-107050000D01*
%TO.N,3.3V*%
X114550000Y-112050000D02*
X112150000Y-114450000D01*
X114550000Y-101750000D02*
X114550000Y-112050000D01*
X113110000Y-100310000D02*
X114550000Y-101750000D01*
X91750000Y-100310000D02*
X113110000Y-100310000D01*
%TO.N,Net-(D4-Pad1)*%
X62000000Y-128100000D02*
X62740000Y-127360000D01*
X58750000Y-128100000D02*
X62000000Y-128100000D01*
X57550000Y-129300000D02*
X58750000Y-128100000D01*
X62740000Y-127360000D02*
X62740000Y-125500000D01*
X57550000Y-130050000D02*
X57550000Y-129300000D01*
%TO.N,Net-(D4-Pad2)*%
X55750000Y-133300000D02*
X52230000Y-129780000D01*
X59500000Y-133300000D02*
X55750000Y-133300000D01*
X60050000Y-132750000D02*
X59500000Y-133300000D01*
X60050000Y-130050000D02*
X60050000Y-132750000D01*
X52230000Y-129780000D02*
X52230000Y-120950000D01*
%TO.N,3.3V*%
X91750000Y-100310000D02*
X97650000Y-100310000D01*
X97650000Y-100310000D02*
X100140000Y-102800000D01*
X111790000Y-114450000D02*
X112150000Y-114450000D01*
%TO.N,Net-(SW2-Pad4)*%
X74210000Y-125720000D02*
X74020000Y-125720000D01*
%TO.N,unconnected-(SW2-Pad6)*%
X79290000Y-125720000D02*
X79290000Y-125690000D01*
%TO.N,GPIO21*%
X97150000Y-133550000D02*
X97570000Y-133550000D01*
%TO.N,GPIO2*%
X112150000Y-131825000D02*
X112150000Y-131950000D01*
%TD*%
M02*
