%TF.GenerationSoftware,KiCad,Pcbnew,(6.0.4)*%
%TF.CreationDate,2023-10-06T01:52:23+02:00*%
%TF.ProjectId,OpenSpritzer2,4f70656e-5370-4726-9974-7a6572322e6b,rev?*%
%TF.SameCoordinates,Original*%
%TF.FileFunction,Soldermask,Top*%
%TF.FilePolarity,Negative*%
%FSLAX46Y46*%
G04 Gerber Fmt 4.6, Leading zero omitted, Abs format (unit mm)*
G04 Created by KiCad (PCBNEW (6.0.4)) date 2023-10-06 01:52:23*
%MOMM*%
%LPD*%
G01*
G04 APERTURE LIST*
G04 Aperture macros list*
%AMRoundRect*
0 Rectangle with rounded corners*
0 $1 Rounding radius*
0 $2 $3 $4 $5 $6 $7 $8 $9 X,Y pos of 4 corners*
0 Add a 4 corners polygon primitive as box body*
4,1,4,$2,$3,$4,$5,$6,$7,$8,$9,$2,$3,0*
0 Add four circle primitives for the rounded corners*
1,1,$1+$1,$2,$3*
1,1,$1+$1,$4,$5*
1,1,$1+$1,$6,$7*
1,1,$1+$1,$8,$9*
0 Add four rect primitives between the rounded corners*
20,1,$1+$1,$2,$3,$4,$5,0*
20,1,$1+$1,$4,$5,$6,$7,0*
20,1,$1+$1,$6,$7,$8,$9,0*
20,1,$1+$1,$8,$9,$2,$3,0*%
G04 Aperture macros list end*
%ADD10O,1.950000X1.700000*%
%ADD11RoundRect,0.250000X-0.725000X0.600000X-0.725000X-0.600000X0.725000X-0.600000X0.725000X0.600000X0*%
%ADD12R,1.500000X1.500000*%
%ADD13C,1.500000*%
%ADD14C,1.600000*%
%ADD15R,1.600000X1.600000*%
%ADD16O,3.200000X3.200000*%
%ADD17R,3.200000X3.200000*%
%ADD18O,2.499360X1.600200*%
%ADD19O,7.000240X3.500120*%
%ADD20O,1.600000X1.600000*%
%ADD21O,1.700000X2.000000*%
%ADD22RoundRect,0.250000X-0.600000X-0.750000X0.600000X-0.750000X0.600000X0.750000X-0.600000X0.750000X0*%
%ADD23O,1.700000X1.700000*%
%ADD24R,1.700000X1.700000*%
%ADD25C,1.800000*%
%ADD26R,1.800000X1.800000*%
%ADD27C,3.000000*%
%ADD28C,1.560000*%
%ADD29R,1.560000X1.560000*%
%ADD30O,1.800000X1.800000*%
%ADD31C,2.000000*%
%ADD32R,0.750000X1.750000*%
%ADD33C,1.850000*%
%ADD34RoundRect,0.875000X-0.875000X0.875000X-0.875000X-0.875000X0.875000X-0.875000X0.875000X0.875000X0*%
%ADD35RoundRect,0.750000X-1.000000X0.750000X-1.000000X-0.750000X1.000000X-0.750000X1.000000X0.750000X0*%
%ADD36R,3.500000X3.500000*%
G04 APERTURE END LIST*
D10*
%TO.C,U3*%
X112150000Y-131950000D03*
X112150000Y-129450000D03*
X112150000Y-126950000D03*
X112150000Y-124450000D03*
X112150000Y-121950000D03*
X112150000Y-119450000D03*
X112150000Y-116950000D03*
D11*
X112150000Y-114450000D03*
%TD*%
D12*
%TO.C,NPN*%
X60200000Y-125500000D03*
D13*
X62740000Y-125500000D03*
X65280000Y-125500000D03*
%TD*%
D12*
%TO.C,NPN*%
X97600000Y-107700000D03*
D13*
X100140000Y-107700000D03*
X102680000Y-107700000D03*
%TD*%
D12*
%TO.C,NPN*%
X97600000Y-102800000D03*
D13*
X100140000Y-102800000D03*
X102680000Y-102800000D03*
%TD*%
D14*
%TO.C,C2*%
X100150000Y-95032380D03*
D15*
X100150000Y-97532380D03*
%TD*%
D16*
%TO.C,D1*%
X100150000Y-83090000D03*
D17*
X100150000Y-67850000D03*
%TD*%
D18*
%TO.C,J2*%
X62301260Y-75050000D03*
D19*
X58036600Y-80147780D03*
X58036600Y-69949680D03*
D18*
X62301260Y-77549360D03*
%TD*%
D20*
%TO.C,R5*%
X67470000Y-120950000D03*
D14*
X52230000Y-120950000D03*
%TD*%
D20*
%TO.C,R3*%
X105290000Y-118050000D03*
D14*
X90050000Y-118050000D03*
%TD*%
D21*
%TO.C,D4*%
X60050000Y-130050000D03*
D22*
X57550000Y-130050000D03*
%TD*%
D10*
%TO.C,J4*%
X112150000Y-107050000D03*
X112150000Y-104550000D03*
D11*
X112150000Y-102050000D03*
%TD*%
D23*
%TO.C,SW3*%
X92490000Y-133550000D03*
X95030000Y-133550000D03*
X97570000Y-133550000D03*
X100110000Y-133550000D03*
D24*
X102650000Y-133550000D03*
%TD*%
D25*
%TO.C,D2*%
X85865000Y-130050000D03*
D26*
X83325000Y-130050000D03*
%TD*%
D20*
%TO.C,R1*%
X84390000Y-112050000D03*
D14*
X69150000Y-112050000D03*
%TD*%
D27*
%TO.C,H3*%
X97550000Y-60050000D03*
%TD*%
%TO.C,H4*%
X97550000Y-125050000D03*
%TD*%
D28*
%TO.C,U1*%
X66350000Y-54590000D03*
X66350000Y-57130000D03*
X66350000Y-59670000D03*
X66350000Y-62210000D03*
X66350000Y-64750000D03*
X66350000Y-67290000D03*
X66350000Y-69830000D03*
X66350000Y-72370000D03*
X66350000Y-74910000D03*
X66350000Y-77450000D03*
X66350000Y-79990000D03*
X66350000Y-82530000D03*
X66350000Y-85070000D03*
X66350000Y-87610000D03*
X66350000Y-90150000D03*
X66350000Y-92690000D03*
X66350000Y-95230000D03*
X66350000Y-97770000D03*
X66350000Y-100310000D03*
X91750000Y-54590000D03*
X91750000Y-57130000D03*
X91750000Y-59670000D03*
X91750000Y-62210000D03*
X91750000Y-64750000D03*
X91750000Y-67290000D03*
X91750000Y-69830000D03*
X91750000Y-72370000D03*
X91750000Y-74910000D03*
X91750000Y-77450000D03*
X91750000Y-79990000D03*
X91750000Y-82530000D03*
X91750000Y-85070000D03*
X91750000Y-87610000D03*
X91750000Y-90150000D03*
X91750000Y-92690000D03*
X91750000Y-95230000D03*
X91750000Y-97770000D03*
D29*
X91750000Y-100310000D03*
%TD*%
D30*
%TO.C,U2*%
X106500000Y-74650000D03*
X110200000Y-72950000D03*
X106500000Y-71250000D03*
X110200000Y-69550000D03*
D26*
X106500000Y-67850000D03*
%TD*%
D27*
%TO.C,H1*%
X55050000Y-60050000D03*
%TD*%
D19*
%TO.C,J3*%
X58036600Y-104949680D03*
D18*
X62301260Y-112549360D03*
D19*
X58036600Y-115147780D03*
D18*
X62301260Y-110050000D03*
%TD*%
D10*
%TO.C,SW1*%
X112150000Y-93850000D03*
X112150000Y-91350000D03*
D11*
X112150000Y-88850000D03*
%TD*%
D31*
%TO.C,L1*%
X111650000Y-81150000D03*
X107650000Y-81150000D03*
%TD*%
D20*
%TO.C,R4*%
X105290000Y-112050000D03*
D14*
X90050000Y-112050000D03*
%TD*%
D25*
%TO.C,D3*%
X70115000Y-130050000D03*
D26*
X67575000Y-130050000D03*
%TD*%
D20*
%TO.C,R2*%
X84390000Y-118050000D03*
D14*
X69150000Y-118050000D03*
%TD*%
D27*
%TO.C,H2*%
X55050000Y-125050000D03*
%TD*%
D32*
%TO.C,SW2*%
X79290000Y-125720000D03*
X76750000Y-125720000D03*
X74210000Y-125720000D03*
X79290000Y-123180000D03*
X76750000Y-123180000D03*
X74210000Y-123180000D03*
D33*
X79450000Y-130800000D03*
X74050000Y-130800000D03*
%TD*%
D14*
%TO.C,C1*%
X100150000Y-87532380D03*
D15*
X100150000Y-90032380D03*
%TD*%
D34*
%TO.C,J1*%
X105350000Y-57850000D03*
D35*
X110050000Y-54850000D03*
D36*
X110050000Y-60850000D03*
%TD*%
M02*
