%TF.GenerationSoftware,KiCad,Pcbnew,9.0.4*%
%TF.CreationDate,2025-10-09T21:58:20+02:00*%
%TF.ProjectId,OpenSpritzer2,4f70656e-5370-4726-9974-7a6572322e6b,rev?*%
%TF.SameCoordinates,Original*%
%TF.FileFunction,Copper,L1,Top*%
%TF.FilePolarity,Positive*%
%FSLAX46Y46*%
G04 Gerber Fmt 4.6, Leading zero omitted, Abs format (unit mm)*
G04 Created by KiCad (PCBNEW 9.0.4) date 2025-10-09 21:58:20*
%MOMM*%
%LPD*%
G01*
G04 APERTURE LIST*
G04 Aperture macros list*
%AMRoundRect*
0 Rectangle with rounded corners*
0 $1 Rounding radius*
0 $2 $3 $4 $5 $6 $7 $8 $9 X,Y pos of 4 corners*
0 Add a 4 corners polygon primitive as box body*
4,1,4,$2,$3,$4,$5,$6,$7,$8,$9,$2,$3,0*
0 Add four circle primitives for the rounded corners*
1,1,$1+$1,$2,$3*
1,1,$1+$1,$4,$5*
1,1,$1+$1,$6,$7*
1,1,$1+$1,$8,$9*
0 Add four rect primitives between the rounded corners*
20,1,$1+$1,$2,$3,$4,$5,0*
20,1,$1+$1,$4,$5,$6,$7,0*
20,1,$1+$1,$6,$7,$8,$9,0*
20,1,$1+$1,$8,$9,$2,$3,0*%
G04 Aperture macros list end*
%TA.AperFunction,ComponentPad*%
%ADD10C,1.600000*%
%TD*%
%TA.AperFunction,ComponentPad*%
%ADD11O,7.000240X3.500120*%
%TD*%
%TA.AperFunction,ComponentPad*%
%ADD12O,2.499360X1.600200*%
%TD*%
%TA.AperFunction,ComponentPad*%
%ADD13C,3.000000*%
%TD*%
%TA.AperFunction,ComponentPad*%
%ADD14R,3.000000X3.000000*%
%TD*%
%TA.AperFunction,ComponentPad*%
%ADD15C,6.000000*%
%TD*%
%TA.AperFunction,ComponentPad*%
%ADD16C,2.000000*%
%TD*%
%TA.AperFunction,ComponentPad*%
%ADD17C,2.500000*%
%TD*%
%TA.AperFunction,ComponentPad*%
%ADD18R,0.750000X1.750000*%
%TD*%
%TA.AperFunction,ComponentPad*%
%ADD19RoundRect,0.250000X0.550000X0.550000X-0.550000X0.550000X-0.550000X-0.550000X0.550000X-0.550000X0*%
%TD*%
%TA.AperFunction,ComponentPad*%
%ADD20RoundRect,0.250000X-1.050000X-1.050000X1.050000X-1.050000X1.050000X1.050000X-1.050000X1.050000X0*%
%TD*%
%TA.AperFunction,ComponentPad*%
%ADD21C,2.600000*%
%TD*%
%TA.AperFunction,ComponentPad*%
%ADD22C,4.000000*%
%TD*%
%TA.AperFunction,SMDPad,CuDef*%
%ADD23RoundRect,0.250000X-0.900000X1.000000X-0.900000X-1.000000X0.900000X-1.000000X0.900000X1.000000X0*%
%TD*%
%TA.AperFunction,ComponentPad*%
%ADD24RoundRect,0.250001X1.149999X-1.149999X1.149999X1.149999X-1.149999X1.149999X-1.149999X-1.149999X0*%
%TD*%
%TA.AperFunction,ComponentPad*%
%ADD25C,2.800000*%
%TD*%
%TA.AperFunction,ComponentPad*%
%ADD26RoundRect,0.250000X-0.600000X-0.725000X0.600000X-0.725000X0.600000X0.725000X-0.600000X0.725000X0*%
%TD*%
%TA.AperFunction,ComponentPad*%
%ADD27O,1.700000X1.950000*%
%TD*%
%TA.AperFunction,ComponentPad*%
%ADD28C,1.905000*%
%TD*%
%TA.AperFunction,ComponentPad*%
%ADD29RoundRect,0.250000X0.725000X-0.600000X0.725000X0.600000X-0.725000X0.600000X-0.725000X-0.600000X0*%
%TD*%
%TA.AperFunction,ComponentPad*%
%ADD30O,1.950000X1.700000*%
%TD*%
%TA.AperFunction,ComponentPad*%
%ADD31RoundRect,0.250000X-0.600000X-0.750000X0.600000X-0.750000X0.600000X0.750000X-0.600000X0.750000X0*%
%TD*%
%TA.AperFunction,ComponentPad*%
%ADD32O,1.700000X2.000000*%
%TD*%
%TA.AperFunction,ComponentPad*%
%ADD33RoundRect,0.250000X-1.350000X-1.350000X1.350000X-1.350000X1.350000X1.350000X-1.350000X1.350000X0*%
%TD*%
%TA.AperFunction,ComponentPad*%
%ADD34C,3.200000*%
%TD*%
%TA.AperFunction,ComponentPad*%
%ADD35R,1.800000X1.800000*%
%TD*%
%TA.AperFunction,ComponentPad*%
%ADD36C,1.800000*%
%TD*%
%TA.AperFunction,ComponentPad*%
%ADD37RoundRect,0.250000X-0.950000X-0.550000X0.950000X-0.550000X0.950000X0.550000X-0.950000X0.550000X0*%
%TD*%
%TA.AperFunction,ComponentPad*%
%ADD38O,2.400000X1.600000*%
%TD*%
%TA.AperFunction,ComponentPad*%
%ADD39R,1.700000X1.700000*%
%TD*%
%TA.AperFunction,ComponentPad*%
%ADD40C,1.700000*%
%TD*%
%TA.AperFunction,ComponentPad*%
%ADD41RoundRect,0.250000X0.550000X-0.550000X0.550000X0.550000X-0.550000X0.550000X-0.550000X-0.550000X0*%
%TD*%
%TA.AperFunction,ComponentPad*%
%ADD42RoundRect,0.250000X-0.550000X0.550000X-0.550000X-0.550000X0.550000X-0.550000X0.550000X0.550000X0*%
%TD*%
%TA.AperFunction,SMDPad,CuDef*%
%ADD43RoundRect,0.250000X1.000000X0.650000X-1.000000X0.650000X-1.000000X-0.650000X1.000000X-0.650000X0*%
%TD*%
%TA.AperFunction,ComponentPad*%
%ADD44R,1.560000X1.560000*%
%TD*%
%TA.AperFunction,ComponentPad*%
%ADD45C,1.560000*%
%TD*%
%TA.AperFunction,ComponentPad*%
%ADD46R,1.500000X1.500000*%
%TD*%
%TA.AperFunction,ComponentPad*%
%ADD47C,1.500000*%
%TD*%
%TA.AperFunction,ComponentPad*%
%ADD48RoundRect,0.250001X-1.149999X1.149999X-1.149999X-1.149999X1.149999X-1.149999X1.149999X1.149999X0*%
%TD*%
%TA.AperFunction,ComponentPad*%
%ADD49RoundRect,0.250000X-0.550000X-0.550000X0.550000X-0.550000X0.550000X0.550000X-0.550000X0.550000X0*%
%TD*%
%TA.AperFunction,ViaPad*%
%ADD50C,0.800000*%
%TD*%
%TA.AperFunction,Conductor*%
%ADD51C,0.250000*%
%TD*%
%TA.AperFunction,Conductor*%
%ADD52C,0.500000*%
%TD*%
%TA.AperFunction,Conductor*%
%ADD53C,2.000000*%
%TD*%
G04 APERTURE END LIST*
D10*
%TO.P,C5,1*%
%TO.N,+24V*%
X191500000Y-60900000D03*
%TO.P,C5,2*%
%TO.N,GNDREF*%
X191500000Y-65900000D03*
%TD*%
%TO.P,R5,1*%
%TO.N,Net-(D5-K)*%
X218250000Y-103000000D03*
%TO.P,R5,2*%
%TO.N,Net-(D4-A1)*%
X233490000Y-103000000D03*
%TD*%
D11*
%TO.P,J5,*%
%TO.N,Earth_Protective*%
X242013400Y-103902220D03*
X242013400Y-114100320D03*
D12*
%TO.P,J5,1,In*%
%TO.N,Net-(D4-A1)*%
X237748740Y-109000000D03*
%TO.P,J5,2,Ext*%
%TO.N,Net-(D4-A2)*%
X237748740Y-106500640D03*
%TD*%
D10*
%TO.P,C20,1*%
%TO.N,Net-(C20-Pad1)*%
X182850000Y-125330000D03*
%TO.P,C20,2*%
%TO.N,GNDREF*%
X182850000Y-120330000D03*
%TD*%
%TO.P,R1,1*%
%TO.N,AC{slash}N*%
X137751478Y-105050000D03*
%TO.P,R1,2*%
%TO.N,Net-(SW1-K)*%
X152991478Y-105050000D03*
%TD*%
%TO.P,R21,1*%
%TO.N,Net-(D8-A)*%
X129060000Y-134600000D03*
%TO.P,R21,2*%
%TO.N,Net-(R21-Pad2)*%
X129060000Y-119360000D03*
%TD*%
D13*
%TO.P,PS1,1,AC/N*%
%TO.N,AC{slash}N*%
X149832500Y-60180000D03*
%TO.P,PS1,2,AC/L*%
%TO.N,AC{slash}L*%
X149832500Y-54680000D03*
D14*
%TO.P,PS1,3,-Vo*%
%TO.N,GNDREF*%
X88332500Y-54680000D03*
D13*
%TO.P,PS1,4,+Vo*%
%TO.N,Net-(PS1-+Vo)*%
X88332500Y-63680000D03*
%TD*%
D10*
%TO.P,R16,1*%
%TO.N,Net-(C19-Pad1)*%
X154400000Y-128340000D03*
%TO.P,R16,2*%
%TO.N,RotEn_DT*%
X154400000Y-113100000D03*
%TD*%
%TO.P,C10,1*%
%TO.N,3.3V*%
X182840000Y-112665000D03*
%TO.P,C10,2*%
%TO.N,GNDREF*%
X182840000Y-117665000D03*
%TD*%
D15*
%TO.P,H3,*%
%TO.N,Earth_Protective*%
X54980000Y-145000000D03*
%TD*%
D16*
%TO.P,RV1,1*%
%TO.N,Net-(SW1-A)*%
X119941478Y-105940000D03*
%TO.P,RV1,2*%
%TO.N,AC{slash}N*%
X114941478Y-105940000D03*
%TD*%
D10*
%TO.P,R6,1*%
%TO.N,3.3V*%
X198590000Y-113200000D03*
%TO.P,R6,2*%
%TO.N,Net-(C11-Pad1)*%
X213830000Y-113200000D03*
%TD*%
D17*
%TO.P,SW3,*%
%TO.N,Earth_Protective*%
X136860000Y-145600000D03*
X142260000Y-145600000D03*
D18*
%TO.P,SW3,1,A*%
%TO.N,ESP_En*%
X137020000Y-137980000D03*
%TO.P,SW3,2,B*%
%TO.N,Net-(R19-Pad1)*%
X139560000Y-137980000D03*
%TO.P,SW3,3,C*%
%TO.N,TTL_En*%
X142100000Y-137980000D03*
%TO.P,SW3,4,A*%
%TO.N,Net-(R20-Pad2)*%
X137020000Y-140520000D03*
%TO.P,SW3,5,B*%
%TO.N,3.3V*%
X139560000Y-140520000D03*
%TO.P,SW3,6,C*%
%TO.N,Net-(R21-Pad2)*%
X142100000Y-140520000D03*
%TD*%
D19*
%TO.P,C12,1*%
%TO.N,3.3V*%
X201490000Y-106420000D03*
D10*
%TO.P,C12,2*%
%TO.N,GNDREF*%
X198990000Y-106420000D03*
%TD*%
D20*
%TO.P,SW1,1,1*%
%TO.N,Net-(F1-Pad2)*%
X141030000Y-96000000D03*
D21*
%TO.P,SW1,2,2*%
%TO.N,Net-(SW1-A)*%
X146110000Y-96000000D03*
%TO.P,SW1,3,K*%
%TO.N,Net-(SW1-K)*%
X151190000Y-96000000D03*
%TD*%
D10*
%TO.P,R2,1*%
%TO.N,Solenoid*%
X63830000Y-64220000D03*
%TO.P,R2,2*%
%TO.N,GNDREF*%
X79070000Y-64220000D03*
%TD*%
%TO.P,R12,1*%
%TO.N,Net-(D6-A)*%
X248390000Y-138480000D03*
%TO.P,R12,2*%
%TO.N,3.3V*%
X233150000Y-138480000D03*
%TD*%
D22*
%TO.P,REF\u002A\u002A,*%
%TO.N,Earth_Protective*%
X57310000Y-122290000D03*
%TD*%
D10*
%TO.P,R14,1*%
%TO.N,Net-(C18-Pad1)*%
X161910000Y-121180000D03*
%TO.P,R14,2*%
%TO.N,RotEn_CLK*%
X161910000Y-105940000D03*
%TD*%
D23*
%TO.P,D1,1*%
%TO.N,+24V*%
X75990000Y-51800000D03*
%TO.P,D1,2*%
%TO.N,GNDREF*%
X75990000Y-56100000D03*
%TD*%
D24*
%TO.P,FB1,1*%
%TO.N,Net-(PS1-+Vo)*%
X82300000Y-64460000D03*
D25*
%TO.P,FB1,2*%
%TO.N,+24V*%
X82300000Y-51760000D03*
%TD*%
D10*
%TO.P,R17,1*%
%TO.N,Net-(C20-Pad1)*%
X186260000Y-125340000D03*
%TO.P,R17,2*%
%TO.N,3.3V*%
X186260000Y-110100000D03*
%TD*%
%TO.P,R11,1*%
%TO.N,GNDREF*%
X233150000Y-129080000D03*
%TO.P,R11,2*%
%TO.N,Net-(Q1-B)*%
X248390000Y-129080000D03*
%TD*%
%TO.P,C11,1*%
%TO.N,Net-(C11-Pad1)*%
X213800000Y-106650000D03*
%TO.P,C11,2*%
%TO.N,GNDREF*%
X208800000Y-106650000D03*
%TD*%
D26*
%TO.P,J3,1,Pin_1*%
%TO.N,GNDREF*%
X53500000Y-53230000D03*
D27*
%TO.P,J3,2,Pin_2*%
%TO.N,+24V*%
X56000000Y-53230000D03*
%TO.P,J3,3,Pin_3*%
%TO.N,Solenoid*%
X58500000Y-53230000D03*
%TD*%
D10*
%TO.P,R9,1*%
%TO.N,Net-(U4-IO18)*%
X183320000Y-67540000D03*
%TO.P,R9,2*%
%TO.N,Screen_CLK*%
X183320000Y-82780000D03*
%TD*%
D22*
%TO.P,REF\u002A\u002A,*%
%TO.N,Earth_Protective*%
X75310000Y-122290000D03*
%TD*%
D28*
%TO.P,F1,1*%
%TO.N,Net-(J1-Pin_1)*%
X96770000Y-96000000D03*
%TO.P,F1,2*%
%TO.N,Net-(F1-Pad2)*%
X119270000Y-96000000D03*
%TD*%
D10*
%TO.P,R3,1*%
%TO.N,Net-(J4-In)*%
X183320000Y-86200000D03*
%TO.P,R3,2*%
%TO.N,3.3V*%
X183320000Y-101440000D03*
%TD*%
%TO.P,C2,1*%
%TO.N,+24V*%
X63840000Y-51500000D03*
%TO.P,C2,2*%
%TO.N,GNDREF*%
X63840000Y-56500000D03*
%TD*%
%TO.P,R13,1*%
%TO.N,Net-(C18-Pad1)*%
X165650000Y-121180000D03*
%TO.P,R13,2*%
%TO.N,3.3V*%
X165650000Y-105940000D03*
%TD*%
D19*
%TO.P,C8,1*%
%TO.N,Net-(U1-FB)*%
X108570000Y-106130000D03*
D10*
%TO.P,C8,2*%
%TO.N,Net-(C8-Pad2)*%
X106070000Y-106130000D03*
%TD*%
D29*
%TO.P,U5,1,VCC*%
%TO.N,3.3V*%
X121260000Y-138770000D03*
D30*
%TO.P,U5,2,GND*%
%TO.N,GNDREF*%
X121260000Y-136270000D03*
%TO.P,U5,3,DIN*%
%TO.N,Screen_DIN*%
X121260000Y-133770000D03*
%TO.P,U5,4,CLK*%
%TO.N,Screen_CLK*%
X121260000Y-131270000D03*
%TO.P,U5,5,CS*%
%TO.N,Screen_CS*%
X121260000Y-128770000D03*
%TO.P,U5,6,DC*%
%TO.N,Screen_DC*%
X121260000Y-126270000D03*
%TO.P,U5,7,RST*%
%TO.N,Screen_RST*%
X121260000Y-123770000D03*
%TO.P,U5,8,BL*%
%TO.N,Screen_BL*%
X121260000Y-121270000D03*
%TD*%
D19*
%TO.P,C16,1*%
%TO.N,3.3V*%
X115000000Y-133640000D03*
D10*
%TO.P,C16,2*%
%TO.N,GNDREF*%
X112500000Y-133640000D03*
%TD*%
D19*
%TO.P,C7,1*%
%TO.N,Net-(U1-FB)*%
X217002380Y-64000000D03*
D10*
%TO.P,C7,2*%
%TO.N,GNDREF*%
X214502380Y-64000000D03*
%TD*%
D31*
%TO.P,D6,1,K*%
%TO.N,Net-(D6-K)*%
X244000000Y-122340000D03*
D32*
%TO.P,D6,2,A*%
%TO.N,Net-(D6-A)*%
X246500000Y-122340000D03*
%TD*%
D23*
%TO.P,D2,1*%
%TO.N,Solenoid*%
X60470000Y-59940000D03*
%TO.P,D2,2*%
%TO.N,GNDREF*%
X60470000Y-64240000D03*
%TD*%
D10*
%TO.P,C19,1*%
%TO.N,Net-(C19-Pad1)*%
X161540000Y-128340000D03*
%TO.P,C19,2*%
%TO.N,GNDREF*%
X161540000Y-123340000D03*
%TD*%
D33*
%TO.P,D3,1,K*%
%TO.N,Net-(D3-K)*%
X207000000Y-54840000D03*
D34*
%TO.P,D3,2,A*%
%TO.N,GNDREF*%
X222240000Y-54840000D03*
%TD*%
D35*
%TO.P,D8,1,K*%
%TO.N,GNDREF*%
X129050000Y-145600000D03*
D36*
%TO.P,D8,2,A*%
%TO.N,Net-(D8-A)*%
X131590000Y-145600000D03*
%TD*%
D10*
%TO.P,R18,1*%
%TO.N,Net-(C20-Pad1)*%
X190010000Y-125340000D03*
%TO.P,R18,2*%
%TO.N,RotEn_SW*%
X190010000Y-110100000D03*
%TD*%
%TO.P,C13,1*%
%TO.N,3.3V*%
X202740000Y-100500000D03*
%TO.P,C13,2*%
%TO.N,GNDREF*%
X197740000Y-100500000D03*
%TD*%
D37*
%TO.P,U3,1*%
%TO.N,Net-(D5-K)*%
X217410000Y-110930000D03*
D38*
%TO.P,U3,2*%
%TO.N,Net-(D4-A2)*%
X217410000Y-113470000D03*
%TO.P,U3,3*%
%TO.N,GNDREF*%
X225030000Y-113470000D03*
%TO.P,U3,4*%
%TO.N,Net-(C11-Pad1)*%
X225030000Y-110930000D03*
%TD*%
D39*
%TO.P,SW2,1,A*%
%TO.N,RotEn_CLK*%
X125360000Y-148140000D03*
D40*
%TO.P,SW2,2,C*%
%TO.N,RotEn_DT*%
X122820000Y-148140000D03*
%TO.P,SW2,3,B*%
%TO.N,RotEn_SW*%
X120280000Y-148140000D03*
%TO.P,SW2,4,S1*%
%TO.N,3.3V*%
X117740000Y-148140000D03*
%TO.P,SW2,5,S2*%
%TO.N,GNDREF*%
X115200000Y-148140000D03*
%TD*%
D10*
%TO.P,C18,1*%
%TO.N,Net-(C18-Pad1)*%
X169050000Y-121180000D03*
%TO.P,C18,2*%
%TO.N,GNDREF*%
X169050000Y-116180000D03*
%TD*%
D11*
%TO.P,J4,*%
%TO.N,Earth_Protective*%
X242013400Y-54902220D03*
X242013400Y-65100320D03*
D12*
%TO.P,J4,1,In*%
%TO.N,Net-(J4-In)*%
X237748740Y-60000000D03*
%TO.P,J4,2,Ext*%
%TO.N,Pedal_Input*%
X237748740Y-57500640D03*
%TD*%
D41*
%TO.P,C3,1*%
%TO.N,+24V*%
X186610000Y-56410000D03*
D10*
%TO.P,C3,2*%
%TO.N,GNDREF*%
X186610000Y-53910000D03*
%TD*%
D42*
%TO.P,C1,1*%
%TO.N,+24V*%
X69740000Y-52737621D03*
D10*
%TO.P,C1,2*%
%TO.N,GNDREF*%
X69740000Y-55237621D03*
%TD*%
%TO.P,R8,1*%
%TO.N,Net-(U4-IO23)*%
X188020000Y-67540000D03*
%TO.P,R8,2*%
%TO.N,Screen_DIN*%
X188020000Y-82780000D03*
%TD*%
D20*
%TO.P,J2,1,Pin_1*%
%TO.N,Earth_Protective*%
X86010000Y-96000000D03*
D21*
%TO.P,J2,1*%
X91090000Y-96000000D03*
%TD*%
D10*
%TO.P,C17,1*%
%TO.N,GNDREF*%
X122750000Y-144830000D03*
%TO.P,C17,2*%
%TO.N,3.3V*%
X117750000Y-144830000D03*
%TD*%
D43*
%TO.P,D4,1,A1*%
%TO.N,Net-(D4-A1)*%
X233040000Y-112190000D03*
%TO.P,D4,2,A2*%
%TO.N,Net-(D4-A2)*%
X229040000Y-112190000D03*
%TD*%
D35*
%TO.P,U1,1,VIN*%
%TO.N,+24V*%
X195000000Y-58550000D03*
D36*
%TO.P,U1,2,OUT*%
%TO.N,Net-(D3-K)*%
X196700000Y-54850000D03*
%TO.P,U1,3,GND*%
%TO.N,GNDREF*%
X198400000Y-58550000D03*
%TO.P,U1,4,FB*%
%TO.N,Net-(U1-FB)*%
X200100000Y-54850000D03*
%TO.P,U1,5,~{ON}/OFF*%
%TO.N,GNDREF*%
X201800000Y-58550000D03*
%TD*%
D10*
%TO.P,R24,1*%
%TO.N,GNDREF*%
X133260000Y-119360000D03*
%TO.P,R24,2*%
%TO.N,Net-(R21-Pad2)*%
X133260000Y-134600000D03*
%TD*%
%TO.P,R7,1*%
%TO.N,3.3V*%
X194730000Y-115270000D03*
%TO.P,R7,2*%
%TO.N,Net-(U4-EN)*%
X194730000Y-100030000D03*
%TD*%
%TO.P,R23,1*%
%TO.N,TTL_Switch*%
X141660000Y-119360000D03*
%TO.P,R23,2*%
%TO.N,Net-(R21-Pad2)*%
X141660000Y-134600000D03*
%TD*%
%TO.P,R20,1*%
%TO.N,Net-(D7-A)*%
X150060000Y-134610000D03*
%TO.P,R20,2*%
%TO.N,Net-(R20-Pad2)*%
X150060000Y-119370000D03*
%TD*%
D44*
%TO.P,U4,1,3V3*%
%TO.N,3.3V*%
X202740000Y-97200000D03*
D45*
%TO.P,U4,2,EN*%
%TO.N,Net-(U4-EN)*%
X205280000Y-97200000D03*
%TO.P,U4,3,SENSOR_VP*%
%TO.N,unconnected-(U4-SENSOR_VP-Pad3)*%
X207820000Y-97200000D03*
%TO.P,U4,4,SENSOR_VN*%
%TO.N,unconnected-(U4-SENSOR_VN-Pad4)*%
X210360000Y-97200000D03*
%TO.P,U4,5,IO34*%
%TO.N,Pedal_Input*%
X212900000Y-97200000D03*
%TO.P,U4,6,IO35*%
%TO.N,TTL_Switch*%
X215440000Y-97200000D03*
%TO.P,U4,7,IO32*%
%TO.N,ESP_En*%
X217980000Y-97200000D03*
%TO.P,U4,8,IO33*%
%TO.N,Spritz_LED*%
X220520000Y-97200000D03*
%TO.P,U4,9,IO25*%
%TO.N,Rot_CLK*%
X223060000Y-97200000D03*
%TO.P,U4,10,IO26*%
%TO.N,Rot_DT*%
X225600000Y-97200000D03*
%TO.P,U4,11,IO27*%
%TO.N,Pedal_Switch*%
X228140000Y-97200000D03*
%TO.P,U4,12,IO14*%
%TO.N,unconnected-(U4-IO14-Pad12)*%
X230680000Y-97200000D03*
%TO.P,U4,13,IO12*%
%TO.N,unconnected-(U4-IO12-Pad13)*%
X233220000Y-97200000D03*
%TO.P,U4,14,GND1*%
%TO.N,GNDREF*%
X235760000Y-97200000D03*
%TO.P,U4,15,IO13*%
%TO.N,unconnected-(U4-IO13-Pad15)*%
X238300000Y-97200000D03*
%TO.P,U4,16,SD2*%
%TO.N,unconnected-(U4-SD2-Pad16)*%
X240840000Y-97200000D03*
%TO.P,U4,17,SD3*%
%TO.N,unconnected-(U4-SD3-Pad17)*%
X243380000Y-97200000D03*
%TO.P,U4,18,CMD*%
%TO.N,unconnected-(U4-CMD-Pad18)*%
X245920000Y-97200000D03*
%TO.P,U4,19,EXT_5V*%
%TO.N,unconnected-(U4-EXT_5V-Pad19)*%
X248460000Y-97200000D03*
%TO.P,U4,20,GND3*%
%TO.N,GNDREF*%
X202740000Y-71800000D03*
%TO.P,U4,21,IO23*%
%TO.N,Net-(U4-IO23)*%
X205280000Y-71800000D03*
%TO.P,U4,22,IO22*%
%TO.N,unconnected-(U4-IO22-Pad22)*%
X207820000Y-71800000D03*
%TO.P,U4,23,TXD0*%
%TO.N,unconnected-(U4-TXD0-Pad23)*%
X210360000Y-71800000D03*
%TO.P,U4,24,RXD0*%
%TO.N,unconnected-(U4-RXD0-Pad24)*%
X212900000Y-71800000D03*
%TO.P,U4,25,IO21*%
%TO.N,Rot_SW*%
X215440000Y-71800000D03*
%TO.P,U4,26,GND2*%
%TO.N,GNDREF*%
X217980000Y-71800000D03*
%TO.P,U4,27,IO19*%
%TO.N,unconnected-(U4-IO19-Pad27)*%
X220520000Y-71800000D03*
%TO.P,U4,28,IO18*%
%TO.N,Net-(U4-IO18)*%
X223060000Y-71800000D03*
%TO.P,U4,29,IO5*%
%TO.N,unconnected-(U4-IO5-Pad29)*%
X225600000Y-71800000D03*
%TO.P,U4,30,IO17*%
%TO.N,unconnected-(U4-IO17-Pad30)*%
X228140000Y-71800000D03*
%TO.P,U4,31,IO16*%
%TO.N,unconnected-(U4-IO16-Pad31)*%
X230680000Y-71800000D03*
%TO.P,U4,32,IO4*%
%TO.N,Screen_DC*%
X233220000Y-71800000D03*
%TO.P,U4,33,IO0*%
%TO.N,Screen_RST*%
X235760000Y-71800000D03*
%TO.P,U4,34,IO2*%
%TO.N,Screen_BL*%
X238300000Y-71800000D03*
%TO.P,U4,35,IO15*%
%TO.N,Screen_CS*%
X240840000Y-71800000D03*
%TO.P,U4,36,SD1*%
%TO.N,unconnected-(U4-SD1-Pad36)*%
X243380000Y-71800000D03*
%TO.P,U4,37,SD0*%
%TO.N,unconnected-(U4-SD0-Pad37)*%
X245920000Y-71800000D03*
%TO.P,U4,38,CLK*%
%TO.N,unconnected-(U4-CLK-Pad38)*%
X248460000Y-71800000D03*
%TD*%
D46*
%TO.P,Q1,1,E*%
%TO.N,GNDREF*%
X233090000Y-122340000D03*
D47*
%TO.P,Q1,2,B*%
%TO.N,Net-(Q1-B)*%
X235630000Y-122340000D03*
%TO.P,Q1,3,C*%
%TO.N,Net-(D6-K)*%
X238170000Y-122340000D03*
%TD*%
D35*
%TO.P,D7,1,K*%
%TO.N,GNDREF*%
X147540000Y-145600000D03*
D36*
%TO.P,D7,2,A*%
%TO.N,Net-(D7-A)*%
X150080000Y-145600000D03*
%TD*%
D10*
%TO.P,R10,1*%
%TO.N,Net-(Q1-B)*%
X248390000Y-133780000D03*
%TO.P,R10,2*%
%TO.N,Solenoid*%
X233150000Y-133780000D03*
%TD*%
D37*
%TO.P,U2,1*%
%TO.N,Net-(C11-Pad1)*%
X172130000Y-112665000D03*
D38*
%TO.P,U2,2*%
%TO.N,TTL_En*%
X172130000Y-115205000D03*
%TO.P,U2,3*%
%TO.N,Net-(C18-Pad1)*%
X172130000Y-117745000D03*
%TO.P,U2,4*%
%TO.N,Rot_CLK*%
X172130000Y-120285000D03*
%TO.P,U2,5*%
%TO.N,Net-(C19-Pad1)*%
X172130000Y-122825000D03*
%TO.P,U2,6*%
%TO.N,Rot_DT*%
X172130000Y-125365000D03*
%TO.P,U2,7,GND*%
%TO.N,GNDREF*%
X172130000Y-127905000D03*
%TO.P,U2,8*%
%TO.N,Rot_SW*%
X179750000Y-127905000D03*
%TO.P,U2,9*%
%TO.N,Net-(C20-Pad1)*%
X179750000Y-125365000D03*
%TO.P,U2,10*%
%TO.N,unconnected-(U2-Pad10)*%
X179750000Y-122825000D03*
%TO.P,U2,11*%
%TO.N,GNDREF*%
X179750000Y-120285000D03*
%TO.P,U2,12*%
%TO.N,unconnected-(U2-Pad12)*%
X179750000Y-117745000D03*
%TO.P,U2,13*%
%TO.N,GNDREF*%
X179750000Y-115205000D03*
%TO.P,U2,14,VCC*%
%TO.N,3.3V*%
X179750000Y-112665000D03*
%TD*%
D10*
%TO.P,R25,1*%
%TO.N,GNDREF*%
X145860000Y-119370000D03*
%TO.P,R25,2*%
%TO.N,Net-(R20-Pad2)*%
X145860000Y-134610000D03*
%TD*%
D16*
%TO.P,L2,1,1*%
%TO.N,Net-(C8-Pad2)*%
X109387620Y-116130000D03*
%TO.P,L2,2,2*%
%TO.N,Net-(C9-Pad1)*%
X105387620Y-116130000D03*
%TD*%
D48*
%TO.P,FB2,1*%
%TO.N,+3.3V*%
X113830000Y-114660000D03*
D25*
%TO.P,FB2,2*%
%TO.N,3.3V*%
X113830000Y-127360000D03*
%TD*%
D10*
%TO.P,R4,1*%
%TO.N,Pedal_Input*%
X188020000Y-101440000D03*
%TO.P,R4,2*%
%TO.N,GNDREF*%
X188020000Y-86200000D03*
%TD*%
%TO.P,C15,1*%
%TO.N,GNDREF*%
X112280000Y-138730000D03*
%TO.P,C15,2*%
%TO.N,3.3V*%
X117280000Y-138730000D03*
%TD*%
D20*
%TO.P,J1,1,Pin_1*%
%TO.N,Net-(J1-Pin_1)*%
X128850000Y-96000000D03*
D21*
%TO.P,J1,2,Pin_2*%
%TO.N,AC{slash}N*%
X133930000Y-96000000D03*
%TD*%
D10*
%TO.P,C6,1*%
%TO.N,+24V*%
X191480000Y-58530000D03*
%TO.P,C6,2*%
%TO.N,GNDREF*%
X191480000Y-53530000D03*
%TD*%
D16*
%TO.P,TH1,1*%
%TO.N,Net-(SW1-A)*%
X127451478Y-105940000D03*
%TO.P,TH1,2*%
%TO.N,AC{slash}L*%
X132451478Y-105940000D03*
%TD*%
D19*
%TO.P,C9,1*%
%TO.N,Net-(C9-Pad1)*%
X108570000Y-126130000D03*
D10*
%TO.P,C9,2*%
%TO.N,+3.3V*%
X106070000Y-126130000D03*
%TD*%
%TO.P,R19,1*%
%TO.N,Net-(R19-Pad1)*%
X79070000Y-60020000D03*
%TO.P,R19,2*%
%TO.N,Solenoid*%
X63830000Y-60020000D03*
%TD*%
D42*
%TO.P,C4,1*%
%TO.N,+24V*%
X186610000Y-60900000D03*
D10*
%TO.P,C4,2*%
%TO.N,GNDREF*%
X186610000Y-63400000D03*
%TD*%
D16*
%TO.P,L1,1,1*%
%TO.N,Net-(D3-K)*%
X207000000Y-62000000D03*
%TO.P,L1,2,2*%
%TO.N,Net-(U1-FB)*%
X207000000Y-66000000D03*
%TD*%
D15*
%TO.P,H2,*%
%TO.N,Earth_Protective*%
X232000000Y-144990000D03*
%TD*%
D10*
%TO.P,R15,1*%
%TO.N,Net-(C19-Pad1)*%
X158150000Y-128340000D03*
%TO.P,R15,2*%
%TO.N,3.3V*%
X158150000Y-113100000D03*
%TD*%
D15*
%TO.P,H4,*%
%TO.N,Earth_Protective*%
X55000000Y-62500000D03*
%TD*%
D10*
%TO.P,R22,1*%
%TO.N,Pedal_Switch*%
X137460000Y-119360000D03*
%TO.P,R22,2*%
%TO.N,Net-(R20-Pad2)*%
X137460000Y-134600000D03*
%TD*%
D49*
%TO.P,D5,1,K*%
%TO.N,Net-(D5-K)*%
X225870000Y-107100000D03*
D10*
%TO.P,D5,2,A*%
%TO.N,Net-(D4-A2)*%
X233490000Y-107100000D03*
%TD*%
%TO.P,C14,1*%
%TO.N,Net-(U4-EN)*%
X205280000Y-100500000D03*
%TO.P,C14,2*%
%TO.N,GNDREF*%
X210280000Y-100500000D03*
%TD*%
D15*
%TO.P,H1,*%
%TO.N,Earth_Protective*%
X232000000Y-62500000D03*
%TD*%
D50*
%TO.N,3.3V*%
X235870000Y-138480000D03*
X158150000Y-101450000D03*
%TO.N,Net-(C11-Pad1)*%
X219000000Y-116500000D03*
%TO.N,Solenoid*%
X202750000Y-77500000D03*
X183320000Y-71600000D03*
%TO.N,Earth_Protective*%
X157820000Y-144990000D03*
X154820000Y-144990000D03*
X153820000Y-144990000D03*
X155820000Y-144990000D03*
X156820000Y-144990000D03*
%TO.N,Pedal_Switch*%
X223000000Y-116500000D03*
%TO.N,TTL_Switch*%
X218000000Y-116500000D03*
%TO.N,Rot_CLK*%
X221000000Y-116500000D03*
%TO.N,Rot_DT*%
X222000000Y-116500000D03*
%TO.N,Rot_SW*%
X220000000Y-116500000D03*
%TD*%
D51*
%TO.N,GNDREF*%
X182840000Y-117665000D02*
X182840000Y-116130000D01*
X70602379Y-56100000D02*
X69740000Y-55237621D01*
X51280000Y-55450000D02*
X51280000Y-64450000D01*
X182805000Y-120285000D02*
X182850000Y-120330000D01*
X182850000Y-120330000D02*
X182850000Y-117675000D01*
X53440000Y-66610000D02*
X59570000Y-66610000D01*
X181915000Y-115205000D02*
X179750000Y-115205000D01*
X53500000Y-53230000D02*
X51280000Y-55450000D01*
X75990000Y-56100000D02*
X70602379Y-56100000D01*
X60470000Y-65710000D02*
X60470000Y-64240000D01*
X182840000Y-116130000D02*
X181915000Y-115205000D01*
X51280000Y-64450000D02*
X53440000Y-66610000D01*
X182850000Y-117675000D02*
X182840000Y-117665000D01*
X179750000Y-120285000D02*
X182805000Y-120285000D01*
X59570000Y-66610000D02*
X60470000Y-65710000D01*
D52*
%TO.N,+24V*%
X191500000Y-60900000D02*
X186610000Y-60900000D01*
X195000000Y-58550000D02*
X195000000Y-53690000D01*
X186610000Y-60900000D02*
X186610000Y-56410000D01*
X191970000Y-50660000D02*
X83400000Y-50660000D01*
X70677621Y-51800000D02*
X69740000Y-52737621D01*
X63840000Y-51500000D02*
X57730000Y-51500000D01*
X57730000Y-51500000D02*
X56000000Y-53230000D01*
X83400000Y-50660000D02*
X82300000Y-51760000D01*
X191500000Y-58550000D02*
X191500000Y-60900000D01*
X195000000Y-58550000D02*
X191500000Y-58550000D01*
X68502379Y-51500000D02*
X69740000Y-52737621D01*
X82300000Y-51760000D02*
X76030000Y-51760000D01*
X76030000Y-51760000D02*
X75990000Y-51800000D01*
X195000000Y-53690000D02*
X191970000Y-50660000D01*
X63840000Y-51500000D02*
X68502379Y-51500000D01*
X75990000Y-51800000D02*
X70677621Y-51800000D01*
D51*
%TO.N,Net-(U1-FB)*%
X160675330Y-100350000D02*
X192076330Y-68949000D01*
X157850000Y-100350000D02*
X160675330Y-100350000D01*
X217002380Y-64000000D02*
X215002380Y-66000000D01*
X203780000Y-58530000D02*
X203780000Y-62780000D01*
X204051000Y-68949000D02*
X207000000Y-66000000D01*
X203780000Y-62780000D02*
X207000000Y-66000000D01*
X157070000Y-101130000D02*
X157850000Y-100350000D01*
X192076330Y-68949000D02*
X204051000Y-68949000D01*
X112156000Y-109716000D02*
X150671520Y-109716000D01*
X215002380Y-66000000D02*
X207000000Y-66000000D01*
X108570000Y-106130000D02*
X112156000Y-109716000D01*
X200100000Y-54850000D02*
X203780000Y-58530000D01*
X150671520Y-109716000D02*
X157070000Y-103317520D01*
X157070000Y-103317520D02*
X157070000Y-101130000D01*
%TO.N,Net-(C8-Pad2)*%
X106070000Y-113702380D02*
X109387620Y-117020000D01*
X106070000Y-107020000D02*
X106070000Y-113702380D01*
%TO.N,+3.3V*%
X113830000Y-123840000D02*
X109100000Y-128570000D01*
X106070000Y-127440000D02*
X106070000Y-126130000D01*
X109100000Y-128570000D02*
X107200000Y-128570000D01*
X107200000Y-128570000D02*
X106070000Y-127440000D01*
X113830000Y-114660000D02*
X113830000Y-123840000D01*
%TO.N,Net-(C9-Pad1)*%
X105387620Y-122947620D02*
X108570000Y-126130000D01*
X105387620Y-116130000D02*
X105387620Y-122947620D01*
%TO.N,3.3V*%
X121260000Y-138770000D02*
X117320000Y-138770000D01*
X128229150Y-110167000D02*
X118407000Y-119989150D01*
X197946000Y-105294000D02*
X202740000Y-100500000D01*
X165310000Y-105940000D02*
X165650000Y-105940000D01*
X229282190Y-115320000D02*
X200710000Y-115320000D01*
X139560190Y-140520000D02*
X147971190Y-148931000D01*
X150858330Y-110167000D02*
X128229150Y-110167000D01*
X117740000Y-148140000D02*
X117740000Y-144840000D01*
X158150000Y-113100000D02*
X165310000Y-105940000D01*
X119480000Y-128490000D02*
X119480000Y-136990000D01*
X118350000Y-127360000D02*
X119480000Y-128490000D01*
X235871000Y-146636810D02*
X235871000Y-138481000D01*
X158150000Y-102875330D02*
X150858330Y-110167000D01*
X201490000Y-106420000D02*
X201490000Y-101750000D01*
X194730000Y-115270000D02*
X196520000Y-115270000D01*
X117320000Y-138770000D02*
X117280000Y-138730000D01*
X233576810Y-148931000D02*
X235871000Y-146636810D01*
X183320000Y-101440000D02*
X187174000Y-105294000D01*
X196520000Y-115270000D02*
X198590000Y-113200000D01*
X182840000Y-112665000D02*
X185405000Y-110100000D01*
X187174000Y-105294000D02*
X197946000Y-105294000D01*
X119480000Y-136990000D02*
X121260000Y-138770000D01*
X179750000Y-112650000D02*
X179750000Y-112665000D01*
X235871000Y-138481000D02*
X235870000Y-138480000D01*
X201490000Y-110300000D02*
X198590000Y-113200000D01*
X117740000Y-144840000D02*
X117750000Y-144830000D01*
X231209000Y-136539000D02*
X231209000Y-117246810D01*
X115000000Y-133640000D02*
X117280000Y-135920000D01*
X117280000Y-135920000D02*
X117280000Y-138730000D01*
X183375000Y-113200000D02*
X182840000Y-112665000D01*
X185405000Y-110100000D02*
X186260000Y-110100000D01*
X158150000Y-101450000D02*
X158150000Y-102875330D01*
X147971190Y-148931000D02*
X151000000Y-148931000D01*
X173040000Y-105940000D02*
X179750000Y-112650000D01*
X113830000Y-127360000D02*
X118350000Y-127360000D01*
X121260000Y-138770000D02*
X121260000Y-144620000D01*
X198590000Y-113200000D02*
X183375000Y-113200000D01*
X201490000Y-106420000D02*
X201490000Y-110300000D01*
X121260000Y-144620000D02*
X117740000Y-148140000D01*
X151000000Y-148931000D02*
X233576810Y-148931000D01*
X201490000Y-101750000D02*
X202740000Y-100500000D01*
X139560000Y-140520000D02*
X139560190Y-140520000D01*
X118407000Y-119989150D02*
X118407000Y-127303000D01*
X231209000Y-117246810D02*
X229282190Y-115320000D01*
X200710000Y-115320000D02*
X198590000Y-113200000D01*
X233150000Y-138480000D02*
X231209000Y-136539000D01*
X202740000Y-97200000D02*
X202740000Y-100500000D01*
X118407000Y-127303000D02*
X118350000Y-127360000D01*
X165650000Y-105940000D02*
X173040000Y-105940000D01*
X179750000Y-112665000D02*
X182840000Y-112665000D01*
%TO.N,Net-(C11-Pad1)*%
X213800000Y-113170000D02*
X213830000Y-113200000D01*
X175045000Y-112665000D02*
X176020000Y-113640000D01*
X213830000Y-113200000D02*
X214820000Y-112210000D01*
X222040000Y-110930000D02*
X225030000Y-110930000D01*
X220760000Y-112210000D02*
X222040000Y-110930000D01*
X181280000Y-126760000D02*
X184937000Y-130417000D01*
X177420000Y-126760000D02*
X181280000Y-126760000D01*
X176020000Y-125360000D02*
X177420000Y-126760000D01*
X209309570Y-130417000D02*
X219000000Y-120726570D01*
X172130000Y-112665000D02*
X175045000Y-112665000D01*
X184937000Y-130417000D02*
X209309570Y-130417000D01*
X219000000Y-120726570D02*
X219000000Y-116500000D01*
X213800000Y-106650000D02*
X213800000Y-113170000D01*
X214820000Y-112210000D02*
X220760000Y-112210000D01*
X176020000Y-113640000D02*
X176020000Y-125360000D01*
%TO.N,Net-(U4-EN)*%
X205280000Y-97200000D02*
X205280000Y-100500000D01*
%TO.N,Net-(C18-Pad1)*%
X172130000Y-117745000D02*
X170525000Y-117745000D01*
X170525000Y-117745000D02*
X169050000Y-119220000D01*
X169050000Y-121180000D02*
X165650000Y-121180000D01*
X169050000Y-119220000D02*
X169050000Y-121180000D01*
X161910000Y-121180000D02*
X165650000Y-121180000D01*
%TO.N,Net-(C19-Pad1)*%
X172130000Y-122825000D02*
X167055000Y-122825000D01*
X167055000Y-122825000D02*
X161540000Y-128340000D01*
X154400000Y-128340000D02*
X158150000Y-128340000D01*
X158150000Y-128340000D02*
X161540000Y-128340000D01*
%TO.N,Net-(C20-Pad1)*%
X182815000Y-125365000D02*
X182850000Y-125330000D01*
X186250000Y-125330000D02*
X186260000Y-125340000D01*
X179750000Y-125365000D02*
X182815000Y-125365000D01*
X182850000Y-125330000D02*
X186250000Y-125330000D01*
X186260000Y-125340000D02*
X190010000Y-125340000D01*
%TO.N,Solenoid*%
X63800000Y-60020000D02*
X76930000Y-60020000D01*
X58500000Y-57970000D02*
X60480000Y-59950000D01*
X60480000Y-59950000D02*
X63710000Y-59950000D01*
X233150000Y-133780000D02*
X231660000Y-132290000D01*
X229469000Y-114869000D02*
X209019000Y-114869000D01*
X209019000Y-114869000D02*
X206540000Y-112390000D01*
X58500000Y-53230000D02*
X58500000Y-57970000D01*
X206540000Y-81290000D02*
X202750000Y-77500000D01*
X231660000Y-132290000D02*
X231660000Y-117060000D01*
X76930000Y-60020000D02*
X85714000Y-51236000D01*
X63790000Y-60030000D02*
X63780000Y-60040000D01*
X63710000Y-59950000D02*
X63790000Y-60030000D01*
X206540000Y-112390000D02*
X206540000Y-81290000D01*
X63780000Y-64220000D02*
X63790000Y-64230000D01*
X63790000Y-60030000D02*
X63800000Y-60020000D01*
X178226000Y-51236000D02*
X181020000Y-54030000D01*
X231660000Y-117060000D02*
X229469000Y-114869000D01*
X181020000Y-54030000D02*
X181020000Y-69300000D01*
X85714000Y-51236000D02*
X178226000Y-51236000D01*
X63830000Y-60020000D02*
X63830000Y-64220000D01*
X181020000Y-69300000D02*
X183320000Y-71600000D01*
%TO.N,Net-(D3-K)*%
X205784000Y-53624000D02*
X207000000Y-54840000D01*
X207000000Y-54840000D02*
X207000000Y-62000000D01*
X196700000Y-54850000D02*
X197926000Y-53624000D01*
X197926000Y-53624000D02*
X205784000Y-53624000D01*
%TO.N,Net-(D4-A2)*%
X217410000Y-113470000D02*
X220137810Y-113470000D01*
X239990000Y-109950000D02*
X239990000Y-107720000D01*
X234089360Y-106500640D02*
X233490000Y-107100000D01*
X221407810Y-112200000D02*
X229030000Y-112200000D01*
X239990000Y-107720000D02*
X238770640Y-106500640D01*
X238770640Y-106500640D02*
X237748740Y-106500640D01*
X236554000Y-113416000D02*
X240000000Y-109970000D01*
X240000000Y-109970000D02*
X240000000Y-109960000D01*
X220137810Y-113470000D02*
X221407810Y-112200000D01*
X240000000Y-109960000D02*
X239990000Y-109950000D01*
X229040000Y-112190000D02*
X230266000Y-113416000D01*
X237748740Y-106500640D02*
X234089360Y-106500640D01*
X230266000Y-113416000D02*
X236554000Y-113416000D01*
X229030000Y-112200000D02*
X229040000Y-112190000D01*
%TO.N,Net-(D4-A1)*%
X232364000Y-111514000D02*
X232364000Y-104126000D01*
X233040000Y-112190000D02*
X234558740Y-112190000D01*
X233040000Y-112190000D02*
X232364000Y-111514000D01*
X234558740Y-112190000D02*
X237748740Y-109000000D01*
X232364000Y-104126000D02*
X233490000Y-103000000D01*
%TO.N,Net-(D5-K)*%
X217410000Y-103840000D02*
X218250000Y-103000000D01*
X221770000Y-103000000D02*
X225870000Y-107100000D01*
X218250000Y-103000000D02*
X221770000Y-103000000D01*
X217410000Y-110930000D02*
X217410000Y-103840000D01*
%TO.N,Net-(D6-A)*%
X248390000Y-138480000D02*
X246500000Y-136590000D01*
X246500000Y-136590000D02*
X246500000Y-122340000D01*
%TO.N,Net-(D6-K)*%
X238170000Y-122340000D02*
X244000000Y-122340000D01*
%TO.N,Net-(D7-A)*%
X150080000Y-145600000D02*
X150080000Y-134630000D01*
X150080000Y-134630000D02*
X150060000Y-134610000D01*
%TO.N,Net-(D8-A)*%
X131590000Y-145600000D02*
X131590000Y-137130000D01*
X131590000Y-137130000D02*
X129060000Y-134600000D01*
%TO.N,Net-(PS1-+Vo)*%
X88332500Y-63680000D02*
X82210000Y-63680000D01*
X82210000Y-63680000D02*
X81390000Y-64500000D01*
D53*
%TO.N,Earth_Protective*%
X232000000Y-144990000D02*
X153820000Y-144990000D01*
X136860000Y-145600000D02*
X142260000Y-145600000D01*
D51*
X153820000Y-144990000D02*
X153790000Y-145020000D01*
%TO.N,Pedal_Input*%
X190601000Y-86079000D02*
X190601000Y-75656810D01*
X188020000Y-88660000D02*
X190601000Y-86079000D01*
X190601000Y-75656810D02*
X191125810Y-75132000D01*
X249580000Y-60740000D02*
X246340640Y-57500640D01*
X191125810Y-75132000D02*
X215830000Y-75132000D01*
X214338000Y-75132000D02*
X215830000Y-75132000D01*
X215830000Y-75132000D02*
X247408000Y-75132000D01*
X212900000Y-76570000D02*
X214338000Y-75132000D01*
X188020000Y-101440000D02*
X188020000Y-88660000D01*
X249580000Y-72960000D02*
X249580000Y-60740000D01*
X247408000Y-75132000D02*
X249580000Y-72960000D01*
X212900000Y-97200000D02*
X212900000Y-76570000D01*
X246340640Y-57500640D02*
X237748740Y-57500640D01*
%TO.N,Net-(J4-In)*%
X190939000Y-74681000D02*
X246079000Y-74681000D01*
X184689000Y-84831000D02*
X187869000Y-84831000D01*
X245880000Y-60000000D02*
X237748740Y-60000000D01*
X247220000Y-73540000D02*
X247220000Y-61340000D01*
X246079000Y-74681000D02*
X247220000Y-73540000D01*
X187869000Y-84831000D02*
X190150000Y-82550000D01*
X247220000Y-61340000D02*
X245880000Y-60000000D01*
X183320000Y-86200000D02*
X184689000Y-84831000D01*
X190150000Y-75470000D02*
X190939000Y-74681000D01*
X190150000Y-82550000D02*
X190150000Y-75470000D01*
%TO.N,Net-(Q1-B)*%
X237450000Y-120520000D02*
X235630000Y-122340000D01*
X248390000Y-121650000D02*
X247260000Y-120520000D01*
X248390000Y-133780000D02*
X248390000Y-129080000D01*
X247260000Y-120520000D02*
X237450000Y-120520000D01*
X248390000Y-129080000D02*
X248390000Y-121650000D01*
%TO.N,Screen_DIN*%
X151979190Y-112873000D02*
X180472190Y-84380000D01*
X121260000Y-133770000D02*
X123501000Y-131529000D01*
X186420000Y-84380000D02*
X188020000Y-82780000D01*
X123501000Y-118722010D02*
X129350010Y-112873000D01*
X180472190Y-84380000D02*
X186420000Y-84380000D01*
X129350010Y-112873000D02*
X151979190Y-112873000D01*
X123501000Y-131529000D02*
X123501000Y-118722010D01*
%TO.N,Screen_CLK*%
X121260000Y-131270000D02*
X123050000Y-129480000D01*
X123050000Y-118535200D02*
X129163200Y-112422000D01*
X129163200Y-112422000D02*
X151792380Y-112422000D01*
X151792380Y-112422000D02*
X181434380Y-82780000D01*
X123050000Y-129480000D02*
X123050000Y-118535200D01*
X181434380Y-82780000D02*
X183320000Y-82780000D01*
%TO.N,RotEn_CLK*%
X156341202Y-112768798D02*
X161910000Y-107200000D01*
X125360000Y-148140000D02*
X124854000Y-147634000D01*
X161910000Y-107200000D02*
X161910000Y-105940000D01*
X156341202Y-113778798D02*
X156341202Y-112768798D01*
X155894000Y-114226000D02*
X156341202Y-113778798D01*
X129910440Y-114226000D02*
X155894000Y-114226000D01*
X124854000Y-119282440D02*
X129910440Y-114226000D01*
X124854000Y-147634000D02*
X124854000Y-119282440D01*
%TO.N,RotEn_DT*%
X122820000Y-147065810D02*
X124403000Y-145482810D01*
X153725000Y-113775000D02*
X154400000Y-113100000D01*
X129723630Y-113775000D02*
X153725000Y-113775000D01*
X122820000Y-148140000D02*
X122820000Y-147065810D01*
X124403000Y-145482810D02*
X124403000Y-119095630D01*
X124403000Y-119095630D02*
X129723630Y-113775000D01*
%TO.N,RotEn_SW*%
X123952000Y-145296000D02*
X123952000Y-118908820D01*
X123952000Y-118908820D02*
X129536820Y-113324000D01*
X173219000Y-105489000D02*
X173226810Y-105489000D01*
X120280000Y-148140000D02*
X121108000Y-148140000D01*
X152166000Y-113324000D02*
X160990000Y-104500000D01*
X173226810Y-105489000D02*
X176457810Y-108720000D01*
X160990000Y-104500000D02*
X172230000Y-104500000D01*
X188630000Y-108720000D02*
X190010000Y-110100000D01*
X176457810Y-108720000D02*
X188630000Y-108720000D01*
X172230000Y-104500000D02*
X173219000Y-105489000D01*
X129536820Y-113324000D02*
X152166000Y-113324000D01*
X121108000Y-148140000D02*
X123952000Y-145296000D01*
%TO.N,Net-(R19-Pad1)*%
X134421000Y-148349000D02*
X133420000Y-149350000D01*
X82990000Y-139690000D02*
X82990000Y-67450000D01*
X82260000Y-66720000D02*
X79510000Y-66720000D01*
X137710000Y-143310000D02*
X135330000Y-143310000D01*
X134421000Y-144219000D02*
X134421000Y-148349000D01*
X112430000Y-141920000D02*
X111880000Y-141370000D01*
X84670000Y-141370000D02*
X82990000Y-139690000D01*
X113780000Y-149350000D02*
X112430000Y-148000000D01*
X111880000Y-141370000D02*
X84670000Y-141370000D01*
X112430000Y-148000000D02*
X112430000Y-141920000D01*
X139560000Y-137980000D02*
X138430000Y-139110000D01*
X138430000Y-142590000D02*
X137710000Y-143310000D01*
X79510000Y-66720000D02*
X77590000Y-64800000D01*
X133420000Y-149350000D02*
X113780000Y-149350000D01*
X138430000Y-139110000D02*
X138430000Y-142590000D01*
X82990000Y-67450000D02*
X82260000Y-66720000D01*
X77590000Y-64800000D02*
X77590000Y-61470000D01*
X77590000Y-61470000D02*
X79030000Y-60030000D01*
X135330000Y-143310000D02*
X134421000Y-144219000D01*
%TO.N,Net-(R20-Pad2)*%
X145860000Y-123570000D02*
X150060000Y-119370000D01*
X136319000Y-135741000D02*
X137460000Y-134600000D01*
X137460000Y-134600000D02*
X137460000Y-134270000D01*
X136319000Y-139819000D02*
X136319000Y-135741000D01*
X145860000Y-134610000D02*
X145860000Y-123570000D01*
X137020000Y-140520000D02*
X136319000Y-139819000D01*
%TO.N,Net-(R21-Pad2)*%
X140860001Y-139280001D02*
X142100000Y-140520000D01*
X141660000Y-134600000D02*
X140860001Y-135399999D01*
X140860001Y-135399999D02*
X140860001Y-139280001D01*
X129060000Y-130400000D02*
X133260000Y-134600000D01*
X140534000Y-133474000D02*
X141660000Y-134600000D01*
X129060000Y-119360000D02*
X129060000Y-130400000D01*
X133260000Y-134600000D02*
X134386000Y-133474000D01*
X134386000Y-133474000D02*
X140534000Y-133474000D01*
%TO.N,Pedal_Switch*%
X208935950Y-129515000D02*
X216970000Y-121480950D01*
X176922000Y-113162000D02*
X176922000Y-120180000D01*
X142020000Y-114800000D02*
X165619190Y-114800000D01*
X197252810Y-129515000D02*
X208935950Y-129515000D01*
X174634000Y-110874000D02*
X176922000Y-113162000D01*
X169545190Y-110874000D02*
X174634000Y-110874000D01*
X223000000Y-116473280D02*
X223000000Y-116500000D01*
X222300720Y-115774000D02*
X223000000Y-116473280D01*
X176922000Y-120180000D02*
X178352000Y-121610000D01*
X165619190Y-114800000D02*
X169545190Y-110874000D01*
X216970000Y-116464000D02*
X217660000Y-115774000D01*
X216970000Y-121480950D02*
X216970000Y-116464000D01*
X189347810Y-121610000D02*
X197252810Y-129515000D01*
X137460000Y-119360000D02*
X142020000Y-114800000D01*
X178352000Y-121610000D02*
X189347810Y-121610000D01*
X217660000Y-115774000D02*
X222300720Y-115774000D01*
%TO.N,TTL_Switch*%
X218000000Y-116500000D02*
X218000000Y-121088760D01*
X169805000Y-111325000D02*
X165000000Y-116130000D01*
X165000000Y-116130000D02*
X144890000Y-116130000D01*
X176471000Y-121771000D02*
X176471000Y-113453190D01*
X144890000Y-116130000D02*
X141660000Y-119360000D01*
X209122760Y-129966000D02*
X197066000Y-129966000D01*
X174342810Y-111325000D02*
X169805000Y-111325000D01*
X178680000Y-123980000D02*
X176471000Y-121771000D01*
X218000000Y-121088760D02*
X209122760Y-129966000D01*
X176471000Y-113453190D02*
X174342810Y-111325000D01*
X197066000Y-129966000D02*
X191080000Y-123980000D01*
X191080000Y-123980000D02*
X178680000Y-123980000D01*
%TO.N,TTL_En*%
X144082405Y-137980000D02*
X153274000Y-128788405D01*
X153274000Y-128788405D02*
X153274000Y-127873595D01*
X163841595Y-117306000D02*
X170029000Y-117306000D01*
X153274000Y-127873595D02*
X163841595Y-117306000D01*
X142100000Y-137980000D02*
X144082405Y-137980000D01*
X170029000Y-117306000D02*
X172130000Y-115205000D01*
%TO.N,ESP_En*%
X148158000Y-148480000D02*
X140409001Y-140731001D01*
X243581000Y-120069000D02*
X235621000Y-120069000D01*
X235420000Y-143610000D02*
X235420000Y-146450000D01*
X242570000Y-98900000D02*
X246180000Y-102510000D01*
X246180000Y-117470000D02*
X243581000Y-120069000D01*
X234420000Y-142610000D02*
X235420000Y-143610000D01*
X235420000Y-146450000D02*
X233390000Y-148480000D01*
X139929001Y-136620000D02*
X138380000Y-136620000D01*
X217980000Y-97200000D02*
X219680000Y-98900000D01*
X140409001Y-137100000D02*
X139929001Y-136620000D01*
X138380000Y-136620000D02*
X137020000Y-137980000D01*
X235621000Y-120069000D02*
X234420000Y-121270000D01*
X234420000Y-121270000D02*
X234420000Y-142610000D01*
X140409001Y-140731001D02*
X140409001Y-137100000D01*
X219680000Y-98900000D02*
X242570000Y-98900000D01*
X233390000Y-148480000D02*
X148158000Y-148480000D01*
X246180000Y-102510000D02*
X246180000Y-117470000D01*
%TO.N,Rot_CLK*%
X175570000Y-121220000D02*
X175570000Y-130022190D01*
X221000000Y-120002190D02*
X221000000Y-116500000D01*
X174635000Y-120285000D02*
X175570000Y-121220000D01*
X172130000Y-120285000D02*
X174635000Y-120285000D01*
X209683190Y-131319000D02*
X221000000Y-120002190D01*
X175570000Y-130022190D02*
X176866810Y-131319000D01*
X176866810Y-131319000D02*
X209683190Y-131319000D01*
%TO.N,Rot_DT*%
X175090000Y-130180000D02*
X176680000Y-131770000D01*
X222000000Y-119640000D02*
X222000000Y-116500000D01*
X209870000Y-131770000D02*
X222000000Y-119640000D01*
X173825000Y-125365000D02*
X175090000Y-126630000D01*
X176680000Y-131770000D02*
X209870000Y-131770000D01*
X175090000Y-126630000D02*
X175090000Y-130180000D01*
X172130000Y-125365000D02*
X173825000Y-125365000D01*
%TO.N,Screen_RST*%
X121260000Y-123770000D02*
X120035000Y-123770000D01*
X233811000Y-69851000D02*
X235760000Y-71800000D01*
X128602770Y-111069000D02*
X151231950Y-111069000D01*
X151231950Y-111069000D02*
X192449950Y-69851000D01*
X120035000Y-123770000D02*
X119309000Y-123044000D01*
X119309000Y-123044000D02*
X119309000Y-120362770D01*
X119309000Y-120362770D02*
X128602770Y-111069000D01*
X192449950Y-69851000D02*
X233811000Y-69851000D01*
%TO.N,Screen_BL*%
X121260000Y-121270000D02*
X121260000Y-119687390D01*
X121260000Y-119687390D02*
X128976390Y-111971000D01*
X235870000Y-74230000D02*
X189346570Y-74230000D01*
X128976390Y-111971000D02*
X132108760Y-111971000D01*
X189346570Y-74230000D02*
X151605570Y-111971000D01*
X238300000Y-71800000D02*
X235870000Y-74230000D01*
X151605570Y-111971000D02*
X132179760Y-111971000D01*
%TO.N,Rot_SW*%
X182713000Y-130868000D02*
X209496380Y-130868000D01*
X179750000Y-127905000D02*
X182713000Y-130868000D01*
X220000000Y-120364380D02*
X220000000Y-116500000D01*
X209496380Y-130868000D02*
X220000000Y-120364380D01*
%TO.N,Screen_CS*%
X118858000Y-126368000D02*
X118858000Y-120175960D01*
X151045140Y-110618000D02*
X192263140Y-69400000D01*
X118858000Y-120175960D02*
X128415960Y-110618000D01*
X192263140Y-69400000D02*
X238440000Y-69400000D01*
X238440000Y-69400000D02*
X240840000Y-71800000D01*
X128415960Y-110618000D02*
X151045140Y-110618000D01*
X121260000Y-128770000D02*
X118858000Y-126368000D01*
%TO.N,Screen_DC*%
X119760000Y-120549580D02*
X128789580Y-111520000D01*
X192636760Y-70302000D02*
X231722000Y-70302000D01*
X122590000Y-126110000D02*
X122590000Y-122860000D01*
X122590000Y-122860000D02*
X122324000Y-122594000D01*
X120274000Y-122594000D02*
X119760000Y-122080000D01*
X119760000Y-122080000D02*
X119760000Y-120549580D01*
X122430000Y-126270000D02*
X122590000Y-126110000D01*
X128789580Y-111520000D02*
X151418760Y-111520000D01*
X121260000Y-126270000D02*
X122430000Y-126270000D01*
X231722000Y-70302000D02*
X233220000Y-71800000D01*
X122324000Y-122594000D02*
X120274000Y-122594000D01*
X151418760Y-111520000D02*
X192636760Y-70302000D01*
%TD*%
M02*
