M48
; DRILL file {KiCad (6.0.4)} date Fri Oct  6 01:14:49 2023
; FORMAT={-:-/ absolute / inch / decimal}
; #@! TF.CreationDate,2023-10-06T01:14:49+02:00
; #@! TF.GenerationSoftware,Kicad,Pcbnew,(6.0.4)
; #@! TF.FileFunction,Plated,1,2,PTH
FMAT,2
INCH
; #@! TA.AperFunction,Plated,PTH,ComponentDrill
T1C0.0217
; #@! TA.AperFunction,Plated,PTH,ComponentDrill
T2C0.0315
; #@! TA.AperFunction,Plated,PTH,ComponentDrill
T3C0.0354
; #@! TA.AperFunction,Plated,PTH,ComponentDrill
T4C0.0374
; #@! TA.AperFunction,Plated,PTH,ComponentDrill
T5C0.0394
; #@! TA.AperFunction,Plated,PTH,ComponentDrill
T6C0.0394
; #@! TA.AperFunction,Plated,PTH,ComponentDrill
T7C0.0409
; #@! TA.AperFunction,Plated,PTH,ComponentDrill
T8C0.0433
; #@! TA.AperFunction,Plated,PTH,ComponentDrill
T9C0.0630
; #@! TA.AperFunction,Plated,PTH,ComponentDrill
T10C0.0728
; #@! TA.AperFunction,Plated,PTH,ComponentDrill
T11C0.0866
%
G90
G05
T2
X2.0563Y-4.7618
X2.3701Y-4.9409
X2.4701Y-4.9409
X2.5701Y-4.9409
X2.6563Y-4.7618
X2.7224Y-4.4114
X2.7224Y-4.6476
X3.3224Y-4.4114
X3.3224Y-4.6476
X3.5453Y-4.4114
X3.5453Y-4.6476
X3.8425Y-4.0472
X3.8425Y-4.2402
X3.9425Y-4.0472
X3.9425Y-4.2402
X3.9429Y-3.4462
X3.9429Y-3.5446
X3.9429Y-3.7414
X3.9429Y-3.8399
X4.0425Y-4.0472
X4.0425Y-4.2402
X4.1453Y-4.4114
X4.1453Y-4.6476
T3
X2.6604Y-5.1201
X2.7604Y-5.1201
X3.2805Y-5.1201
X3.3805Y-5.1201
T4
X4.4154Y-3.498
X4.4154Y-3.5965
X4.4154Y-3.6949
X4.4154Y-4.0177
X4.4154Y-4.1161
X4.4154Y-4.2146
X4.4154Y-4.5059
X4.4154Y-4.6043
X4.4154Y-4.7028
X4.4154Y-4.8012
X4.4154Y-4.8996
X4.4154Y-4.998
X4.4154Y-5.0965
X4.4154Y-5.1949
T5
X2.2657Y-5.1201
X2.3642Y-5.1201
X3.6413Y-5.2579
X3.7413Y-5.2579
X3.8413Y-5.2579
X3.9413Y-5.2579
X4.0413Y-5.2579
X4.2382Y-3.1949
X4.3957Y-3.1949
T6
X2.4528Y-2.9547
X2.4528Y-3.0531
X2.4528Y-4.3327
X2.4528Y-4.4311
T7
X2.6122Y-2.1492
X2.6122Y-2.2492
X2.6122Y-2.3492
X2.6122Y-2.4492
X2.6122Y-2.5492
X2.6122Y-2.6492
X2.6122Y-2.7492
X2.6122Y-2.8492
X2.6122Y-2.9492
X2.6122Y-3.0492
X2.6122Y-3.1492
X2.6122Y-3.2492
X2.6122Y-3.3492
X2.6122Y-3.4492
X2.6122Y-3.5492
X2.6122Y-3.6492
X2.6122Y-3.7492
X2.6122Y-3.8492
X2.6122Y-3.9492
X3.6122Y-2.1492
X3.6122Y-2.2492
X3.6122Y-2.3492
X3.6122Y-2.4492
X3.6122Y-2.5492
X3.6122Y-2.6492
X3.6122Y-2.7492
X3.6122Y-2.8492
X3.6122Y-2.9492
X3.6122Y-3.0492
X3.6122Y-3.1492
X3.6122Y-3.2492
X3.6122Y-3.3492
X3.6122Y-3.4492
X3.6122Y-3.5492
X3.6122Y-3.6492
X3.6122Y-3.7492
X3.6122Y-3.8492
X3.6122Y-3.9492
T8
X4.1929Y-2.6713
X4.1929Y-2.8051
X4.1929Y-2.939
X4.3386Y-2.7382
X4.3386Y-2.872
T9
X3.9429Y-2.6713
X3.9429Y-3.2713
T10
X2.9154Y-5.1496
X3.128Y-5.1496
T11
X2.2849Y-2.7539
X2.2849Y-3.1554
X2.2849Y-4.1319
X2.2849Y-4.5334
T1
G00X2.9217Y-4.8299
M15
G01X2.9217Y-4.8693
M16
G05
G00X2.9217Y-4.9299
M15
G01X2.9217Y-4.9693
M16
G05
G00X3.0217Y-4.8299
M15
G01X3.0217Y-4.8693
M16
G05
G00X3.0217Y-4.9299
M15
G01X3.0217Y-4.9693
M16
G05
G00X3.1217Y-4.8299
M15
G01X3.1217Y-4.8693
M16
G05
G00X3.1217Y-4.9299
M15
G01X3.1217Y-4.9693
M16
G05
T5
G00X4.1476Y-2.2382
M15
G01X4.1476Y-2.3169
M16
G05
G00X4.372Y-2.1594
M15
G01X4.2933Y-2.1594
M16
G05
G00X4.372Y-2.3957
M15
G01X4.2933Y-2.3957
M16
G05
T0
M30
