%TF.GenerationSoftware,KiCad,Pcbnew,9.0.4*%
%TF.CreationDate,2025-10-09T21:58:20+02:00*%
%TF.ProjectId,OpenSpritzer2,4f70656e-5370-4726-9974-7a6572322e6b,rev?*%
%TF.SameCoordinates,Original*%
%TF.FileFunction,Soldermask,Top*%
%TF.FilePolarity,Negative*%
%FSLAX46Y46*%
G04 Gerber Fmt 4.6, Leading zero omitted, Abs format (unit mm)*
G04 Created by KiCad (PCBNEW 9.0.4) date 2025-10-09 21:58:20*
%MOMM*%
%LPD*%
G01*
G04 APERTURE LIST*
G04 Aperture macros list*
%AMRoundRect*
0 Rectangle with rounded corners*
0 $1 Rounding radius*
0 $2 $3 $4 $5 $6 $7 $8 $9 X,Y pos of 4 corners*
0 Add a 4 corners polygon primitive as box body*
4,1,4,$2,$3,$4,$5,$6,$7,$8,$9,$2,$3,0*
0 Add four circle primitives for the rounded corners*
1,1,$1+$1,$2,$3*
1,1,$1+$1,$4,$5*
1,1,$1+$1,$6,$7*
1,1,$1+$1,$8,$9*
0 Add four rect primitives between the rounded corners*
20,1,$1+$1,$2,$3,$4,$5,0*
20,1,$1+$1,$4,$5,$6,$7,0*
20,1,$1+$1,$6,$7,$8,$9,0*
20,1,$1+$1,$8,$9,$2,$3,0*%
G04 Aperture macros list end*
%ADD10C,1.600000*%
%ADD11O,7.000240X3.500120*%
%ADD12O,2.499360X1.600200*%
%ADD13C,3.000000*%
%ADD14R,3.000000X3.000000*%
%ADD15C,6.000000*%
%ADD16C,2.000000*%
%ADD17C,2.500000*%
%ADD18R,0.750000X1.750000*%
%ADD19RoundRect,0.250000X0.550000X0.550000X-0.550000X0.550000X-0.550000X-0.550000X0.550000X-0.550000X0*%
%ADD20RoundRect,0.250000X-1.050000X-1.050000X1.050000X-1.050000X1.050000X1.050000X-1.050000X1.050000X0*%
%ADD21C,2.600000*%
%ADD22C,4.000000*%
%ADD23RoundRect,0.258261X-0.929739X1.029739X-0.929739X-1.029739X0.929739X-1.029739X0.929739X1.029739X0*%
%ADD24RoundRect,0.250001X1.149999X-1.149999X1.149999X1.149999X-1.149999X1.149999X-1.149999X-1.149999X0*%
%ADD25C,2.800000*%
%ADD26RoundRect,0.250000X-0.600000X-0.725000X0.600000X-0.725000X0.600000X0.725000X-0.600000X0.725000X0*%
%ADD27O,1.700000X1.950000*%
%ADD28C,1.905000*%
%ADD29RoundRect,0.250000X0.725000X-0.600000X0.725000X0.600000X-0.725000X0.600000X-0.725000X-0.600000X0*%
%ADD30O,1.950000X1.700000*%
%ADD31RoundRect,0.250000X-0.600000X-0.750000X0.600000X-0.750000X0.600000X0.750000X-0.600000X0.750000X0*%
%ADD32O,1.700000X2.000000*%
%ADD33RoundRect,0.250000X-1.350000X-1.350000X1.350000X-1.350000X1.350000X1.350000X-1.350000X1.350000X0*%
%ADD34C,3.200000*%
%ADD35R,1.800000X1.800000*%
%ADD36C,1.800000*%
%ADD37RoundRect,0.250000X-0.950000X-0.550000X0.950000X-0.550000X0.950000X0.550000X-0.950000X0.550000X0*%
%ADD38O,2.400000X1.600000*%
%ADD39R,1.700000X1.700000*%
%ADD40C,1.700000*%
%ADD41RoundRect,0.250000X0.550000X-0.550000X0.550000X0.550000X-0.550000X0.550000X-0.550000X-0.550000X0*%
%ADD42RoundRect,0.250000X-0.550000X0.550000X-0.550000X-0.550000X0.550000X-0.550000X0.550000X0.550000X0*%
%ADD43RoundRect,0.250000X1.000000X0.650000X-1.000000X0.650000X-1.000000X-0.650000X1.000000X-0.650000X0*%
%ADD44R,1.560000X1.560000*%
%ADD45C,1.560000*%
%ADD46R,1.500000X1.500000*%
%ADD47C,1.500000*%
%ADD48RoundRect,0.250001X-1.149999X1.149999X-1.149999X-1.149999X1.149999X-1.149999X1.149999X1.149999X0*%
%ADD49RoundRect,0.250000X-0.550000X-0.550000X0.550000X-0.550000X0.550000X0.550000X-0.550000X0.550000X0*%
G04 APERTURE END LIST*
D10*
%TO.C,C5*%
X191500000Y-60900000D03*
X191500000Y-65900000D03*
%TD*%
%TO.C,R5*%
X218250000Y-103000000D03*
X233490000Y-103000000D03*
%TD*%
D11*
%TO.C,J5*%
X242013400Y-103902220D03*
X242013400Y-114100320D03*
D12*
X237748740Y-109000000D03*
X237748740Y-106500640D03*
%TD*%
D10*
%TO.C,C20*%
X182850000Y-125330000D03*
X182850000Y-120330000D03*
%TD*%
%TO.C,R1*%
X137751478Y-105050000D03*
X152991478Y-105050000D03*
%TD*%
%TO.C,R21*%
X129060000Y-134600000D03*
X129060000Y-119360000D03*
%TD*%
D13*
%TO.C,PS1*%
X149832500Y-60180000D03*
X149832500Y-54680000D03*
D14*
X88332500Y-54680000D03*
D13*
X88332500Y-63680000D03*
%TD*%
D10*
%TO.C,R16*%
X154400000Y-128340000D03*
X154400000Y-113100000D03*
%TD*%
%TO.C,C10*%
X182840000Y-112665000D03*
X182840000Y-117665000D03*
%TD*%
D15*
%TO.C,H3*%
X54980000Y-145000000D03*
%TD*%
D16*
%TO.C,RV1*%
X119941478Y-105940000D03*
X114941478Y-105940000D03*
%TD*%
D10*
%TO.C,R6*%
X198590000Y-113200000D03*
X213830000Y-113200000D03*
%TD*%
D17*
%TO.C,SW3*%
X136860000Y-145600000D03*
X142260000Y-145600000D03*
D18*
X137020000Y-137980000D03*
X139560000Y-137980000D03*
X142100000Y-137980000D03*
X137020000Y-140520000D03*
X139560000Y-140520000D03*
X142100000Y-140520000D03*
%TD*%
D19*
%TO.C,C12*%
X201490000Y-106420000D03*
D10*
X198990000Y-106420000D03*
%TD*%
D20*
%TO.C,SW1*%
X141030000Y-96000000D03*
D21*
X146110000Y-96000000D03*
X151190000Y-96000000D03*
%TD*%
D10*
%TO.C,R2*%
X63830000Y-64220000D03*
X79070000Y-64220000D03*
%TD*%
%TO.C,R12*%
X248390000Y-138480000D03*
X233150000Y-138480000D03*
%TD*%
D22*
%TO.C,REF\u002A\u002A*%
X57310000Y-122290000D03*
%TD*%
D10*
%TO.C,R14*%
X161910000Y-121180000D03*
X161910000Y-105940000D03*
%TD*%
D23*
%TO.C,D1*%
X75990000Y-51800000D03*
X75990000Y-56100000D03*
%TD*%
D24*
%TO.C,FB1*%
X82300000Y-64460000D03*
D25*
X82300000Y-51760000D03*
%TD*%
D10*
%TO.C,R17*%
X186260000Y-125340000D03*
X186260000Y-110100000D03*
%TD*%
%TO.C,R11*%
X233150000Y-129080000D03*
X248390000Y-129080000D03*
%TD*%
%TO.C,C11*%
X213800000Y-106650000D03*
X208800000Y-106650000D03*
%TD*%
D26*
%TO.C,J3*%
X53500000Y-53230000D03*
D27*
X56000000Y-53230000D03*
X58500000Y-53230000D03*
%TD*%
D10*
%TO.C,R9*%
X183320000Y-67540000D03*
X183320000Y-82780000D03*
%TD*%
D22*
%TO.C,REF\u002A\u002A*%
X75310000Y-122290000D03*
%TD*%
D28*
%TO.C,F1*%
X96770000Y-96000000D03*
X119270000Y-96000000D03*
%TD*%
D10*
%TO.C,R3*%
X183320000Y-86200000D03*
X183320000Y-101440000D03*
%TD*%
%TO.C,C2*%
X63840000Y-51500000D03*
X63840000Y-56500000D03*
%TD*%
%TO.C,R13*%
X165650000Y-121180000D03*
X165650000Y-105940000D03*
%TD*%
D19*
%TO.C,C8*%
X108570000Y-106130000D03*
D10*
X106070000Y-106130000D03*
%TD*%
D29*
%TO.C,U5*%
X121260000Y-138770000D03*
D30*
X121260000Y-136270000D03*
X121260000Y-133770000D03*
X121260000Y-131270000D03*
X121260000Y-128770000D03*
X121260000Y-126270000D03*
X121260000Y-123770000D03*
X121260000Y-121270000D03*
%TD*%
D19*
%TO.C,C16*%
X115000000Y-133640000D03*
D10*
X112500000Y-133640000D03*
%TD*%
D19*
%TO.C,C7*%
X217002380Y-64000000D03*
D10*
X214502380Y-64000000D03*
%TD*%
D31*
%TO.C,D6*%
X244000000Y-122340000D03*
D32*
X246500000Y-122340000D03*
%TD*%
D23*
%TO.C,D2*%
X60470000Y-59940000D03*
X60470000Y-64240000D03*
%TD*%
D10*
%TO.C,C19*%
X161540000Y-128340000D03*
X161540000Y-123340000D03*
%TD*%
D33*
%TO.C,D3*%
X207000000Y-54840000D03*
D34*
X222240000Y-54840000D03*
%TD*%
D35*
%TO.C,D8*%
X129050000Y-145600000D03*
D36*
X131590000Y-145600000D03*
%TD*%
D10*
%TO.C,R18*%
X190010000Y-125340000D03*
X190010000Y-110100000D03*
%TD*%
%TO.C,C13*%
X202740000Y-100500000D03*
X197740000Y-100500000D03*
%TD*%
D37*
%TO.C,U3*%
X217410000Y-110930000D03*
D38*
X217410000Y-113470000D03*
X225030000Y-113470000D03*
X225030000Y-110930000D03*
%TD*%
D39*
%TO.C,SW2*%
X125360000Y-148140000D03*
D40*
X122820000Y-148140000D03*
X120280000Y-148140000D03*
X117740000Y-148140000D03*
X115200000Y-148140000D03*
%TD*%
D10*
%TO.C,C18*%
X169050000Y-121180000D03*
X169050000Y-116180000D03*
%TD*%
D11*
%TO.C,J4*%
X242013400Y-54902220D03*
X242013400Y-65100320D03*
D12*
X237748740Y-60000000D03*
X237748740Y-57500640D03*
%TD*%
D41*
%TO.C,C3*%
X186610000Y-56410000D03*
D10*
X186610000Y-53910000D03*
%TD*%
D42*
%TO.C,C1*%
X69740000Y-52737621D03*
D10*
X69740000Y-55237621D03*
%TD*%
%TO.C,R8*%
X188020000Y-67540000D03*
X188020000Y-82780000D03*
%TD*%
D20*
%TO.C,J2*%
X86010000Y-96000000D03*
D21*
X91090000Y-96000000D03*
%TD*%
D10*
%TO.C,C17*%
X122750000Y-144830000D03*
X117750000Y-144830000D03*
%TD*%
D43*
%TO.C,D4*%
X233040000Y-112190000D03*
X229040000Y-112190000D03*
%TD*%
D35*
%TO.C,U1*%
X195000000Y-58550000D03*
D36*
X196700000Y-54850000D03*
X198400000Y-58550000D03*
X200100000Y-54850000D03*
X201800000Y-58550000D03*
%TD*%
D10*
%TO.C,R24*%
X133260000Y-119360000D03*
X133260000Y-134600000D03*
%TD*%
%TO.C,R7*%
X194730000Y-115270000D03*
X194730000Y-100030000D03*
%TD*%
%TO.C,R23*%
X141660000Y-119360000D03*
X141660000Y-134600000D03*
%TD*%
%TO.C,R20*%
X150060000Y-134610000D03*
X150060000Y-119370000D03*
%TD*%
D44*
%TO.C,U4*%
X202740000Y-97200000D03*
D45*
X205280000Y-97200000D03*
X207820000Y-97200000D03*
X210360000Y-97200000D03*
X212900000Y-97200000D03*
X215440000Y-97200000D03*
X217980000Y-97200000D03*
X220520000Y-97200000D03*
X223060000Y-97200000D03*
X225600000Y-97200000D03*
X228140000Y-97200000D03*
X230680000Y-97200000D03*
X233220000Y-97200000D03*
X235760000Y-97200000D03*
X238300000Y-97200000D03*
X240840000Y-97200000D03*
X243380000Y-97200000D03*
X245920000Y-97200000D03*
X248460000Y-97200000D03*
X202740000Y-71800000D03*
X205280000Y-71800000D03*
X207820000Y-71800000D03*
X210360000Y-71800000D03*
X212900000Y-71800000D03*
X215440000Y-71800000D03*
X217980000Y-71800000D03*
X220520000Y-71800000D03*
X223060000Y-71800000D03*
X225600000Y-71800000D03*
X228140000Y-71800000D03*
X230680000Y-71800000D03*
X233220000Y-71800000D03*
X235760000Y-71800000D03*
X238300000Y-71800000D03*
X240840000Y-71800000D03*
X243380000Y-71800000D03*
X245920000Y-71800000D03*
X248460000Y-71800000D03*
%TD*%
D46*
%TO.C,Q1*%
X233090000Y-122340000D03*
D47*
X235630000Y-122340000D03*
X238170000Y-122340000D03*
%TD*%
D35*
%TO.C,D7*%
X147540000Y-145600000D03*
D36*
X150080000Y-145600000D03*
%TD*%
D10*
%TO.C,R10*%
X248390000Y-133780000D03*
X233150000Y-133780000D03*
%TD*%
D37*
%TO.C,U2*%
X172130000Y-112665000D03*
D38*
X172130000Y-115205000D03*
X172130000Y-117745000D03*
X172130000Y-120285000D03*
X172130000Y-122825000D03*
X172130000Y-125365000D03*
X172130000Y-127905000D03*
X179750000Y-127905000D03*
X179750000Y-125365000D03*
X179750000Y-122825000D03*
X179750000Y-120285000D03*
X179750000Y-117745000D03*
X179750000Y-115205000D03*
X179750000Y-112665000D03*
%TD*%
D10*
%TO.C,R25*%
X145860000Y-119370000D03*
X145860000Y-134610000D03*
%TD*%
D16*
%TO.C,L2*%
X109387620Y-116130000D03*
X105387620Y-116130000D03*
%TD*%
D48*
%TO.C,FB2*%
X113830000Y-114660000D03*
D25*
X113830000Y-127360000D03*
%TD*%
D10*
%TO.C,R4*%
X188020000Y-101440000D03*
X188020000Y-86200000D03*
%TD*%
%TO.C,C15*%
X112280000Y-138730000D03*
X117280000Y-138730000D03*
%TD*%
D20*
%TO.C,J1*%
X128850000Y-96000000D03*
D21*
X133930000Y-96000000D03*
%TD*%
D10*
%TO.C,C6*%
X191480000Y-58530000D03*
X191480000Y-53530000D03*
%TD*%
D16*
%TO.C,TH1*%
X127451478Y-105940000D03*
X132451478Y-105940000D03*
%TD*%
D19*
%TO.C,C9*%
X108570000Y-126130000D03*
D10*
X106070000Y-126130000D03*
%TD*%
%TO.C,R19*%
X79070000Y-60020000D03*
X63830000Y-60020000D03*
%TD*%
D42*
%TO.C,C4*%
X186610000Y-60900000D03*
D10*
X186610000Y-63400000D03*
%TD*%
D16*
%TO.C,L1*%
X207000000Y-62000000D03*
X207000000Y-66000000D03*
%TD*%
D15*
%TO.C,H2*%
X232000000Y-144990000D03*
%TD*%
D10*
%TO.C,R15*%
X158150000Y-128340000D03*
X158150000Y-113100000D03*
%TD*%
D15*
%TO.C,H4*%
X55000000Y-62500000D03*
%TD*%
D10*
%TO.C,R22*%
X137460000Y-119360000D03*
X137460000Y-134600000D03*
%TD*%
D49*
%TO.C,D5*%
X225870000Y-107100000D03*
D10*
X233490000Y-107100000D03*
%TD*%
%TO.C,C14*%
X205280000Y-100500000D03*
X210280000Y-100500000D03*
%TD*%
D15*
%TO.C,H1*%
X232000000Y-62500000D03*
%TD*%
M02*
