  0
SECTION
  2
BLOCKS
  0
ENDSEC
  0
SECTION
  2
ENTITIES
  0
LINE
  8
0
 10
18.1161
 20
-34
 11
25.6818
 21
-34
  0
LINE
  8
0
 10
25.6818
 20
-34
 11
25.6818
 21
-37
  0
LINE
  8
0
 10
25.6818
 20
-37
 11
37.5707
 21
-37
  0
LINE
  8
0
 10
37.5707
 20
-37
 11
37.5707
 21
-34
  0
LINE
  8
0
 10
37.5707
 20
-34
 11
45.1364
 21
-34
  0
LINE
  8
0
 10
45.1364
 20
-34
 11
45.1364
 21
-37
  0
LINE
  8
0
 10
45.1364
 20
-37
 11
57.0253
 21
-37
  0
LINE
  8
0
 10
57.0253
 20
-37
 11
57.0253
 21
-34
  0
LINE
  8
0
 10
57.0253
 20
-34
 11
64.5909
 21
-34
  0
LINE
  8
0
 10
64.5909
 20
-34
 11
64.5909
 21
-37
  0
LINE
  8
0
 10
64.5909
 20
-37
 11
76.4798
 21
-37
  0
LINE
  8
0
 10
76.4798
 20
-37
 11
76.4798
 21
-34
  0
LINE
  8
0
 10
76.4798
 20
-34
 11
84.0455
 21
-34
  0
LINE
  8
0
 10
84.0455
 20
-34
 11
84.0455
 21
-37
  0
LINE
  8
0
 10
84.0455
 20
-37
 11
95.9343
 21
-37
  0
LINE
  8
0
 10
95.9343
 20
-37
 11
95.9343
 21
-34
  0
LINE
  8
0
 10
95.9343
 20
-34
 11
100.4
 21
-34
  0
LINE
  8
0
 10
100.4
 20
-34
 11
100.4
 21
-27
  0
LINE
  8
0
 10
100.4
 20
-27
 11
103.5
 21
-27
  0
LINE
  8
0
 10
103.5
 20
-27
 11
103.5
 21
-20
  0
LINE
  8
0
 10
103.5
 20
-20
 11
100.4
 21
-20
  0
LINE
  8
0
 10
100.4
 20
-20
 11
100.4
 21
-13
  0
LINE
  8
0
 10
100.4
 20
-13
 11
103.5
 21
-13
  0
LINE
  8
0
 10
103.5
 20
-13
 11
103.5
 21
-6
  0
LINE
  8
0
 10
103.5
 20
-6
 11
100.4
 21
-6
  0
LINE
  8
0
 10
100.4
 20
-6
 11
100.4
 21
1
  0
LINE
  8
0
 10
100.4
 20
1
 11
103.5
 21
1
  0
LINE
  8
0
 10
103.5
 20
1
 11
103.5
 21
8
  0
LINE
  8
0
 10
103.5
 20
8
 11
95.9343
 21
8
  0
LINE
  8
0
 10
95.9343
 20
8
 11
95.9343
 21
11
  0
LINE
  8
0
 10
95.9343
 20
11
 11
84.0455
 21
11
  0
LINE
  8
0
 10
84.0455
 20
11
 11
84.0455
 21
8
  0
LINE
  8
0
 10
84.0455
 20
8
 11
76.4798
 21
8
  0
LINE
  8
0
 10
76.4798
 20
8
 11
76.4798
 21
11
  0
LINE
  8
0
 10
76.4798
 20
11
 11
64.5909
 21
11
  0
LINE
  8
0
 10
64.5909
 20
11
 11
64.5909
 21
8
  0
LINE
  8
0
 10
64.5909
 20
8
 11
57.0253
 21
8
  0
LINE
  8
0
 10
57.0253
 20
8
 11
57.0253
 21
11
  0
LINE
  8
0
 10
57.0253
 20
11
 11
45.1364
 21
11
  0
LINE
  8
0
 10
45.1364
 20
11
 11
45.1364
 21
8
  0
LINE
  8
0
 10
45.1364
 20
8
 11
37.5707
 21
8
  0
LINE
  8
0
 10
37.5707
 20
8
 11
37.5707
 21
11
  0
LINE
  8
0
 10
37.5707
 20
11
 11
25.6818
 21
11
  0
LINE
  8
0
 10
25.6818
 20
11
 11
25.6818
 21
8
  0
LINE
  8
0
 10
25.6818
 20
8
 11
18.1161
 21
8
  0
LINE
  8
0
 10
18.1161
 20
8
 11
18.1161
 21
11
  0
LINE
  8
0
 10
18.1161
 20
11
 11
6.22726
 21
11
  0
LINE
  8
0
 10
6.22726
 20
11
 11
6.22726
 21
8
  0
LINE
  8
0
 10
6.22726
 20
8
 11
-3.5
 21
8
  0
LINE
  8
0
 10
-3.5
 20
8
 11
-3.5
 21
1
  0
LINE
  8
0
 10
-3.5
 20
1
 11
-0.399994
 21
1
  0
LINE
  8
0
 10
-0.399994
 20
1
 11
-0.399994
 21
-6
  0
LINE
  8
0
 10
-0.399994
 20
-6
 11
-3.5
 21
-6
  0
LINE
  8
0
 10
-3.5
 20
-6
 11
-3.5
 21
-13
  0
LINE
  8
0
 10
-3.5
 20
-13
 11
-0.399994
 21
-13
  0
LINE
  8
0
 10
-0.399994
 20
-13
 11
-0.399994
 21
-20
  0
LINE
  8
0
 10
-0.399994
 20
-20
 11
-3.5
 21
-20
  0
LINE
  8
0
 10
-3.5
 20
-20
 11
-3.5
 21
-27
  0
LINE
  8
0
 10
-3.5
 20
-27
 11
-0.399994
 21
-27
  0
LINE
  8
0
 10
-0.399994
 20
-27
 11
-0.399994
 21
-34
  0
LINE
  8
0
 10
-0.399994
 20
-34
 11
6.22726
 21
-34
  0
LINE
  8
0
 10
6.22726
 20
-34
 11
6.22726
 21
-37
  0
LINE
  8
0
 10
6.22726
 20
-37
 11
18.1161
 21
-37
  0
LINE
  8
0
 10
18.1161
 20
-37
 11
18.1161
 21
-34
  0
LINE
  8
0
 10
55.5
 20
-13
 11
55.5
 21
-2
  0
LINE
  8
0
 10
55.5
 20
-2
 11
64.5
 21
-2
  0
LINE
  8
0
 10
64.5
 20
-2
 11
64.5
 21
-13
  0
LINE
  8
0
 10
64.5
 20
-13
 11
55.5
 21
-13
  0
LINE
  8
0
 10
24.2
 20
-19.25
 11
24.2
 21
-11.75
  0
LINE
  8
0
 10
24.2
 20
-11.75
 11
34.2
 21
-11.75
  0
LINE
  8
0
 10
34.2
 20
-11.75
 11
34.2
 21
-19.25
  0
LINE
  8
0
 10
34.2
 20
-19.25
 11
24.2
 21
-19.25
  0
LINE
  8
0
 10
29.9127
 20
-33.9992
 11
29.8255
 21
-33.9969
  0
LINE
  8
0
 10
29.8255
 20
-33.9969
 11
29.7383
 21
-33.9931
  0
LINE
  8
0
 10
29.7383
 20
-33.9931
 11
29.6512
 21
-33.9878
  0
LINE
  8
0
 10
29.6512
 20
-33.9878
 11
29.5642
 21
-33.981
  0
LINE
  8
0
 10
29.5642
 20
-33.981
 11
29.4774
 21
-33.9726
  0
LINE
  8
0
 10
29.4774
 20
-33.9726
 11
29.3906
 21
-33.9627
  0
LINE
  8
0
 10
29.3906
 20
-33.9627
 11
29.3041
 21
-33.9513
  0
LINE
  8
0
 10
29.3041
 20
-33.9513
 11
29.2178
 21
-33.9384
  0
LINE
  8
0
 10
29.2178
 20
-33.9384
 11
29.1318
 21
-33.924
  0
LINE
  8
0
 10
29.1318
 20
-33.924
 11
29.0459
 21
-33.9081
  0
LINE
  8
0
 10
29.0459
 20
-33.9081
 11
28.9604
 21
-33.8907
  0
LINE
  8
0
 10
28.9604
 20
-33.8907
 11
28.8752
 21
-33.8718
  0
LINE
  8
0
 10
28.8752
 20
-33.8718
 11
28.7904
 21
-33.8515
  0
LINE
  8
0
 10
28.7904
 20
-33.8515
 11
28.7059
 21
-33.8296
  0
LINE
  8
0
 10
28.7059
 20
-33.8296
 11
28.6218
 21
-33.8063
  0
LINE
  8
0
 10
28.6218
 20
-33.8063
 11
28.5381
 21
-33.7815
  0
LINE
  8
0
 10
28.5381
 20
-33.7815
 11
28.4549
 21
-33.7553
  0
LINE
  8
0
 10
28.4549
 20
-33.7553
 11
28.3721
 21
-33.7276
  0
LINE
  8
0
 10
28.3721
 20
-33.7276
 11
28.2899
 21
-33.6985
  0
LINE
  8
0
 10
28.2899
 20
-33.6985
 11
28.2082
 21
-33.6679
  0
LINE
  8
0
 10
28.2082
 20
-33.6679
 11
28.127
 21
-33.6359
  0
LINE
  8
0
 10
28.127
 20
-33.6359
 11
28.0463
 21
-33.6025
  0
LINE
  8
0
 10
28.0463
 20
-33.6025
 11
27.9663
 21
-33.5677
  0
LINE
  8
0
 10
27.9663
 20
-33.5677
 11
27.8869
 21
-33.5315
  0
LINE
  8
0
 10
27.8869
 20
-33.5315
 11
27.8081
 21
-33.494
  0
LINE
  8
0
 10
27.8081
 20
-33.494
 11
27.73
 21
-33.455
  0
LINE
  8
0
 10
27.73
 20
-33.455
 11
27.6526
 21
-33.4147
  0
LINE
  8
0
 10
27.6526
 20
-33.4147
 11
27.5759
 21
-33.3731
  0
LINE
  8
0
 10
27.5759
 20
-33.3731
 11
27.5
 21
-33.3301
  0
LINE
  8
0
 10
27.5
 20
-33.3301
 11
27.4248
 21
-33.2858
  0
LINE
  8
0
 10
27.4248
 20
-33.2858
 11
27.3504
 21
-33.2402
  0
LINE
  8
0
 10
27.3504
 20
-33.2402
 11
27.2768
 21
-33.1933
  0
LINE
  8
0
 10
27.2768
 20
-33.1933
 11
27.204
 21
-33.1452
  0
LINE
  8
0
 10
27.204
 20
-33.1452
 11
27.1321
 21
-33.0957
  0
LINE
  8
0
 10
27.1321
 20
-33.0957
 11
27.0611
 21
-33.0451
  0
LINE
  8
0
 10
27.0611
 20
-33.0451
 11
26.9909
 21
-32.9932
  0
LINE
  8
0
 10
26.9909
 20
-32.9932
 11
26.9217
 21
-32.94
  0
LINE
  8
0
 10
26.9217
 20
-32.94
 11
26.8534
 21
-32.8857
  0
LINE
  8
0
 10
26.8534
 20
-32.8857
 11
26.7861
 21
-32.8302
  0
LINE
  8
0
 10
26.7861
 20
-32.8302
 11
26.7197
 21
-32.7735
  0
LINE
  8
0
 10
26.7197
 20
-32.7735
 11
26.6543
 21
-32.7157
  0
LINE
  8
0
 10
26.6543
 20
-32.7157
 11
26.59
 21
-32.6568
  0
LINE
  8
0
 10
26.59
 20
-32.6568
 11
26.5267
 21
-32.5967
  0
LINE
  8
0
 10
26.5267
 20
-32.5967
 11
26.4645
 21
-32.5355
  0
LINE
  8
0
 10
26.4645
 20
-32.5355
 11
26.4033
 21
-32.4733
  0
LINE
  8
0
 10
26.4033
 20
-32.4733
 11
26.3432
 21
-32.41
  0
LINE
  8
0
 10
26.3432
 20
-32.41
 11
26.2843
 21
-32.3456
  0
LINE
  8
0
 10
26.2843
 20
-32.3456
 11
26.2264
 21
-32.2803
  0
LINE
  8
0
 10
26.2264
 20
-32.2803
 11
26.1698
 21
-32.2139
  0
LINE
  8
0
 10
26.1698
 20
-32.2139
 11
26.1143
 21
-32.1466
  0
LINE
  8
0
 10
26.1143
 20
-32.1466
 11
26.0599
 21
-32.0783
  0
LINE
  8
0
 10
26.0599
 20
-32.0783
 11
26.0068
 21
-32.0091
  0
LINE
  8
0
 10
26.0068
 20
-32.0091
 11
25.9549
 21
-31.9389
  0
LINE
  8
0
 10
25.9549
 20
-31.9389
 11
25.9042
 21
-31.8679
  0
LINE
  8
0
 10
25.9042
 20
-31.8679
 11
25.8548
 21
-31.796
  0
LINE
  8
0
 10
25.8548
 20
-31.796
 11
25.8066
 21
-31.7232
  0
LINE
  8
0
 10
25.8066
 20
-31.7232
 11
25.7598
 21
-31.6496
  0
LINE
  8
0
 10
25.7598
 20
-31.6496
 11
25.7142
 21
-31.5752
  0
LINE
  8
0
 10
25.7142
 20
-31.5752
 11
25.6699
 21
-31.5
  0
LINE
  8
0
 10
25.6699
 20
-31.5
 11
25.6269
 21
-31.424
  0
LINE
  8
0
 10
25.6269
 20
-31.424
 11
25.5853
 21
-31.3474
  0
LINE
  8
0
 10
25.5853
 20
-31.3474
 11
25.545
 21
-31.2699
  0
LINE
  8
0
 10
25.545
 20
-31.2699
 11
25.506
 21
-31.1918
  0
LINE
  8
0
 10
25.506
 20
-31.1918
 11
25.4685
 21
-31.1131
  0
LINE
  8
0
 10
25.4685
 20
-31.1131
 11
25.4323
 21
-31.0337
  0
LINE
  8
0
 10
25.4323
 20
-31.0337
 11
25.3975
 21
-30.9536
  0
LINE
  8
0
 10
25.3975
 20
-30.9536
 11
25.3641
 21
-30.873
  0
LINE
  8
0
 10
25.3641
 20
-30.873
 11
25.3321
 21
-30.7918
  0
LINE
  8
0
 10
25.3321
 20
-30.7918
 11
25.3015
 21
-30.7101
  0
LINE
  8
0
 10
25.3015
 20
-30.7101
 11
25.2724
 21
-30.6278
  0
LINE
  8
0
 10
25.2724
 20
-30.6278
 11
25.2447
 21
-30.5451
  0
LINE
  8
0
 10
25.2447
 20
-30.5451
 11
25.2185
 21
-30.4619
  0
LINE
  8
0
 10
25.2185
 20
-30.4619
 11
25.1937
 21
-30.3782
  0
LINE
  8
0
 10
25.1937
 20
-30.3782
 11
25.1704
 21
-30.2941
  0
LINE
  8
0
 10
25.1704
 20
-30.2941
 11
25.1485
 21
-30.2096
  0
LINE
  8
0
 10
25.1485
 20
-30.2096
 11
25.1281
 21
-30.1248
  0
LINE
  8
0
 10
25.1281
 20
-30.1248
 11
25.1093
 21
-30.0396
  0
LINE
  8
0
 10
25.1093
 20
-30.0396
 11
25.0919
 21
-29.954
  0
LINE
  8
0
 10
25.0919
 20
-29.954
 11
25.076
 21
-29.8682
  0
LINE
  8
0
 10
25.076
 20
-29.8682
 11
25.0616
 21
-29.7822
  0
LINE
  8
0
 10
25.0616
 20
-29.7822
 11
25.0487
 21
-29.6959
  0
LINE
  8
0
 10
25.0487
 20
-29.6959
 11
25.0373
 21
-29.6093
  0
LINE
  8
0
 10
25.0373
 20
-29.6093
 11
25.0274
 21
-29.5226
  0
LINE
  8
0
 10
25.0274
 20
-29.5226
 11
25.019
 21
-29.4358
  0
LINE
  8
0
 10
25.019
 20
-29.4358
 11
25.0122
 21
-29.3488
  0
LINE
  8
0
 10
25.0122
 20
-29.3488
 11
25.0069
 21
-29.2617
  0
LINE
  8
0
 10
25.0069
 20
-29.2617
 11
25.003
 21
-29.1745
  0
LINE
  8
0
 10
25.003
 20
-29.1745
 11
25.0007
 21
-29.0872
  0
LINE
  8
0
 10
25.0007
 20
-29.0872
 11
25
 21
-29
  0
LINE
  8
0
 10
25
 20
-29
 11
25.0007
 21
-28.9127
  0
LINE
  8
0
 10
25.0007
 20
-28.9127
 11
25.003
 21
-28.8255
  0
LINE
  8
0
 10
25.003
 20
-28.8255
 11
25.0069
 21
-28.7383
  0
LINE
  8
0
 10
25.0069
 20
-28.7383
 11
25.0122
 21
-28.6512
  0
LINE
  8
0
 10
25.0122
 20
-28.6512
 11
25.019
 21
-28.5642
  0
LINE
  8
0
 10
25.019
 20
-28.5642
 11
25.0274
 21
-28.4774
  0
LINE
  8
0
 10
25.0274
 20
-28.4774
 11
25.0373
 21
-28.3906
  0
LINE
  8
0
 10
25.0373
 20
-28.3906
 11
25.0487
 21
-28.3041
  0
LINE
  8
0
 10
25.0487
 20
-28.3041
 11
25.0616
 21
-28.2178
  0
LINE
  8
0
 10
25.0616
 20
-28.2178
 11
25.076
 21
-28.1318
  0
LINE
  8
0
 10
25.076
 20
-28.1318
 11
25.0919
 21
-28.0459
  0
LINE
  8
0
 10
25.0919
 20
-28.0459
 11
25.1093
 21
-27.9604
  0
LINE
  8
0
 10
25.1093
 20
-27.9604
 11
25.1281
 21
-27.8752
  0
LINE
  8
0
 10
25.1281
 20
-27.8752
 11
25.1485
 21
-27.7904
  0
LINE
  8
0
 10
25.1485
 20
-27.7904
 11
25.1704
 21
-27.7059
  0
LINE
  8
0
 10
25.1704
 20
-27.7059
 11
25.1937
 21
-27.6218
  0
LINE
  8
0
 10
25.1937
 20
-27.6218
 11
25.2185
 21
-27.5381
  0
LINE
  8
0
 10
25.2185
 20
-27.5381
 11
25.2447
 21
-27.4549
  0
LINE
  8
0
 10
25.2447
 20
-27.4549
 11
25.2724
 21
-27.3721
  0
LINE
  8
0
 10
25.2724
 20
-27.3721
 11
25.3015
 21
-27.2899
  0
LINE
  8
0
 10
25.3015
 20
-27.2899
 11
25.3321
 21
-27.2082
  0
LINE
  8
0
 10
25.3321
 20
-27.2082
 11
25.3641
 21
-27.127
  0
LINE
  8
0
 10
25.3641
 20
-27.127
 11
25.3975
 21
-27.0463
  0
LINE
  8
0
 10
25.3975
 20
-27.0463
 11
25.4323
 21
-26.9663
  0
LINE
  8
0
 10
25.4323
 20
-26.9663
 11
25.4685
 21
-26.8869
  0
LINE
  8
0
 10
25.4685
 20
-26.8869
 11
25.506
 21
-26.8081
  0
LINE
  8
0
 10
25.506
 20
-26.8081
 11
25.545
 21
-26.73
  0
LINE
  8
0
 10
25.545
 20
-26.73
 11
25.5853
 21
-26.6526
  0
LINE
  8
0
 10
25.5853
 20
-26.6526
 11
25.6269
 21
-26.5759
  0
LINE
  8
0
 10
25.6269
 20
-26.5759
 11
25.6699
 21
-26.5
  0
LINE
  8
0
 10
25.6699
 20
-26.5
 11
25.7142
 21
-26.4248
  0
LINE
  8
0
 10
25.7142
 20
-26.4248
 11
25.7598
 21
-26.3504
  0
LINE
  8
0
 10
25.7598
 20
-26.3504
 11
25.8066
 21
-26.2768
  0
LINE
  8
0
 10
25.8066
 20
-26.2768
 11
25.8548
 21
-26.204
  0
LINE
  8
0
 10
25.8548
 20
-26.204
 11
25.9042
 21
-26.1321
  0
LINE
  8
0
 10
25.9042
 20
-26.1321
 11
25.9549
 21
-26.0611
  0
LINE
  8
0
 10
25.9549
 20
-26.0611
 11
26.0068
 21
-25.9909
  0
LINE
  8
0
 10
26.0068
 20
-25.9909
 11
26.0599
 21
-25.9217
  0
LINE
  8
0
 10
26.0599
 20
-25.9217
 11
26.1143
 21
-25.8534
  0
LINE
  8
0
 10
26.1143
 20
-25.8534
 11
26.1698
 21
-25.7861
  0
LINE
  8
0
 10
26.1698
 20
-25.7861
 11
26.2264
 21
-25.7197
  0
LINE
  8
0
 10
26.2264
 20
-25.7197
 11
26.2843
 21
-25.6543
  0
LINE
  8
0
 10
26.2843
 20
-25.6543
 11
26.3432
 21
-25.59
  0
LINE
  8
0
 10
26.3432
 20
-25.59
 11
26.4033
 21
-25.5267
  0
LINE
  8
0
 10
26.4033
 20
-25.5267
 11
26.4645
 21
-25.4645
  0
LINE
  8
0
 10
26.4645
 20
-25.4645
 11
26.5267
 21
-25.4033
  0
LINE
  8
0
 10
26.5267
 20
-25.4033
 11
26.59
 21
-25.3432
  0
LINE
  8
0
 10
26.59
 20
-25.3432
 11
26.6543
 21
-25.2843
  0
LINE
  8
0
 10
26.6543
 20
-25.2843
 11
26.7197
 21
-25.2264
  0
LINE
  8
0
 10
26.7197
 20
-25.2264
 11
26.7861
 21
-25.1698
  0
LINE
  8
0
 10
26.7861
 20
-25.1698
 11
26.8534
 21
-25.1143
  0
LINE
  8
0
 10
26.8534
 20
-25.1143
 11
26.9217
 21
-25.0599
  0
LINE
  8
0
 10
26.9217
 20
-25.0599
 11
26.9909
 21
-25.0068
  0
LINE
  8
0
 10
26.9909
 20
-25.0068
 11
27.0611
 21
-24.9549
  0
LINE
  8
0
 10
27.0611
 20
-24.9549
 11
27.1321
 21
-24.9042
  0
LINE
  8
0
 10
27.1321
 20
-24.9042
 11
27.204
 21
-24.8548
  0
LINE
  8
0
 10
27.204
 20
-24.8548
 11
27.2768
 21
-24.8066
  0
LINE
  8
0
 10
27.2768
 20
-24.8066
 11
27.3504
 21
-24.7598
  0
LINE
  8
0
 10
27.3504
 20
-24.7598
 11
27.4248
 21
-24.7142
  0
LINE
  8
0
 10
27.4248
 20
-24.7142
 11
27.5
 21
-24.6699
  0
LINE
  8
0
 10
27.5
 20
-24.6699
 11
27.5759
 21
-24.6269
  0
LINE
  8
0
 10
27.5759
 20
-24.6269
 11
27.6526
 21
-24.5853
  0
LINE
  8
0
 10
27.6526
 20
-24.5853
 11
27.73
 21
-24.545
  0
LINE
  8
0
 10
27.73
 20
-24.545
 11
27.8081
 21
-24.506
  0
LINE
  8
0
 10
27.8081
 20
-24.506
 11
27.8869
 21
-24.4685
  0
LINE
  8
0
 10
27.8869
 20
-24.4685
 11
27.9663
 21
-24.4323
  0
LINE
  8
0
 10
27.9663
 20
-24.4323
 11
28.0463
 21
-24.3975
  0
LINE
  8
0
 10
28.0463
 20
-24.3975
 11
28.127
 21
-24.3641
  0
LINE
  8
0
 10
28.127
 20
-24.3641
 11
28.2082
 21
-24.3321
  0
LINE
  8
0
 10
28.2082
 20
-24.3321
 11
28.2899
 21
-24.3015
  0
LINE
  8
0
 10
28.2899
 20
-24.3015
 11
28.3721
 21
-24.2724
  0
LINE
  8
0
 10
28.3721
 20
-24.2724
 11
28.4549
 21
-24.2447
  0
LINE
  8
0
 10
28.4549
 20
-24.2447
 11
28.5381
 21
-24.2185
  0
LINE
  8
0
 10
28.5381
 20
-24.2185
 11
28.6218
 21
-24.1937
  0
LINE
  8
0
 10
28.6218
 20
-24.1937
 11
28.7059
 21
-24.1704
  0
LINE
  8
0
 10
28.7059
 20
-24.1704
 11
28.7904
 21
-24.1485
  0
LINE
  8
0
 10
28.7904
 20
-24.1485
 11
28.8752
 21
-24.1281
  0
LINE
  8
0
 10
28.8752
 20
-24.1281
 11
28.9604
 21
-24.1093
  0
LINE
  8
0
 10
28.9604
 20
-24.1093
 11
29.0459
 21
-24.0919
  0
LINE
  8
0
 10
29.0459
 20
-24.0919
 11
29.1318
 21
-24.076
  0
LINE
  8
0
 10
29.1318
 20
-24.076
 11
29.2178
 21
-24.0616
  0
LINE
  8
0
 10
29.2178
 20
-24.0616
 11
29.3041
 21
-24.0487
  0
LINE
  8
0
 10
29.3041
 20
-24.0487
 11
29.3906
 21
-24.0373
  0
LINE
  8
0
 10
29.3906
 20
-24.0373
 11
29.4774
 21
-24.0274
  0
LINE
  8
0
 10
29.4774
 20
-24.0274
 11
29.5642
 21
-24.019
  0
LINE
  8
0
 10
29.5642
 20
-24.019
 11
29.6512
 21
-24.0122
  0
LINE
  8
0
 10
29.6512
 20
-24.0122
 11
29.7383
 21
-24.0069
  0
LINE
  8
0
 10
29.7383
 20
-24.0069
 11
29.8255
 21
-24.003
  0
LINE
  8
0
 10
29.8255
 20
-24.003
 11
29.9127
 21
-24.0007
  0
LINE
  8
0
 10
29.9127
 20
-24.0007
 11
30
 21
-24
  0
LINE
  8
0
 10
30
 20
-24
 11
30.0872
 21
-24.0007
  0
LINE
  8
0
 10
30.0872
 20
-24.0007
 11
30.1745
 21
-24.003
  0
LINE
  8
0
 10
30.1745
 20
-24.003
 11
30.2617
 21
-24.0069
  0
LINE
  8
0
 10
30.2617
 20
-24.0069
 11
30.3488
 21
-24.0122
  0
LINE
  8
0
 10
30.3488
 20
-24.0122
 11
30.4358
 21
-24.019
  0
LINE
  8
0
 10
30.4358
 20
-24.019
 11
30.5226
 21
-24.0274
  0
LINE
  8
0
 10
30.5226
 20
-24.0274
 11
30.6093
 21
-24.0373
  0
LINE
  8
0
 10
30.6093
 20
-24.0373
 11
30.6959
 21
-24.0487
  0
LINE
  8
0
 10
30.6959
 20
-24.0487
 11
30.7822
 21
-24.0616
  0
LINE
  8
0
 10
30.7822
 20
-24.0616
 11
30.8682
 21
-24.076
  0
LINE
  8
0
 10
30.8682
 20
-24.076
 11
30.954
 21
-24.0919
  0
LINE
  8
0
 10
30.954
 20
-24.0919
 11
31.0396
 21
-24.1093
  0
LINE
  8
0
 10
31.0396
 20
-24.1093
 11
31.1248
 21
-24.1281
  0
LINE
  8
0
 10
31.1248
 20
-24.1281
 11
31.2096
 21
-24.1485
  0
LINE
  8
0
 10
31.2096
 20
-24.1485
 11
31.2941
 21
-24.1704
  0
LINE
  8
0
 10
31.2941
 20
-24.1704
 11
31.3782
 21
-24.1937
  0
LINE
  8
0
 10
31.3782
 20
-24.1937
 11
31.4619
 21
-24.2185
  0
LINE
  8
0
 10
31.4619
 20
-24.2185
 11
31.5451
 21
-24.2447
  0
LINE
  8
0
 10
31.5451
 20
-24.2447
 11
31.6278
 21
-24.2724
  0
LINE
  8
0
 10
31.6278
 20
-24.2724
 11
31.7101
 21
-24.3015
  0
LINE
  8
0
 10
31.7101
 20
-24.3015
 11
31.7918
 21
-24.3321
  0
LINE
  8
0
 10
31.7918
 20
-24.3321
 11
31.873
 21
-24.3641
  0
LINE
  8
0
 10
31.873
 20
-24.3641
 11
31.9536
 21
-24.3975
  0
LINE
  8
0
 10
31.9536
 20
-24.3975
 11
32.0337
 21
-24.4323
  0
LINE
  8
0
 10
32.0337
 20
-24.4323
 11
32.1131
 21
-24.4685
  0
LINE
  8
0
 10
32.1131
 20
-24.4685
 11
32.1918
 21
-24.506
  0
LINE
  8
0
 10
32.1918
 20
-24.506
 11
32.2699
 21
-24.545
  0
LINE
  8
0
 10
32.2699
 20
-24.545
 11
32.3474
 21
-24.5853
  0
LINE
  8
0
 10
32.3474
 20
-24.5853
 11
32.424
 21
-24.6269
  0
LINE
  8
0
 10
32.424
 20
-24.6269
 11
32.5
 21
-24.6699
  0
LINE
  8
0
 10
32.5
 20
-24.6699
 11
32.5752
 21
-24.7142
  0
LINE
  8
0
 10
32.5752
 20
-24.7142
 11
32.6496
 21
-24.7598
  0
LINE
  8
0
 10
32.6496
 20
-24.7598
 11
32.7232
 21
-24.8066
  0
LINE
  8
0
 10
32.7232
 20
-24.8066
 11
32.796
 21
-24.8548
  0
LINE
  8
0
 10
32.796
 20
-24.8548
 11
32.8679
 21
-24.9042
  0
LINE
  8
0
 10
32.8679
 20
-24.9042
 11
32.9389
 21
-24.9549
  0
LINE
  8
0
 10
32.9389
 20
-24.9549
 11
33.0091
 21
-25.0068
  0
LINE
  8
0
 10
33.0091
 20
-25.0068
 11
33.0783
 21
-25.0599
  0
LINE
  8
0
 10
33.0783
 20
-25.0599
 11
33.1466
 21
-25.1143
  0
LINE
  8
0
 10
33.1466
 20
-25.1143
 11
33.2139
 21
-25.1698
  0
LINE
  8
0
 10
33.2139
 20
-25.1698
 11
33.2803
 21
-25.2264
  0
LINE
  8
0
 10
33.2803
 20
-25.2264
 11
33.3456
 21
-25.2843
  0
LINE
  8
0
 10
33.3456
 20
-25.2843
 11
33.41
 21
-25.3432
  0
LINE
  8
0
 10
33.41
 20
-25.3432
 11
33.4733
 21
-25.4033
  0
LINE
  8
0
 10
33.4733
 20
-25.4033
 11
33.5355
 21
-25.4645
  0
LINE
  8
0
 10
33.5355
 20
-25.4645
 11
33.5967
 21
-25.5267
  0
LINE
  8
0
 10
33.5967
 20
-25.5267
 11
33.6568
 21
-25.59
  0
LINE
  8
0
 10
33.6568
 20
-25.59
 11
33.7157
 21
-25.6543
  0
LINE
  8
0
 10
33.7157
 20
-25.6543
 11
33.7735
 21
-25.7197
  0
LINE
  8
0
 10
33.7735
 20
-25.7197
 11
33.8302
 21
-25.7861
  0
LINE
  8
0
 10
33.8302
 20
-25.7861
 11
33.8857
 21
-25.8534
  0
LINE
  8
0
 10
33.8857
 20
-25.8534
 11
33.94
 21
-25.9217
  0
LINE
  8
0
 10
33.94
 20
-25.9217
 11
33.9932
 21
-25.9909
  0
LINE
  8
0
 10
33.9932
 20
-25.9909
 11
34.0451
 21
-26.0611
  0
LINE
  8
0
 10
34.0451
 20
-26.0611
 11
34.0957
 21
-26.1321
  0
LINE
  8
0
 10
34.0957
 20
-26.1321
 11
34.1452
 21
-26.204
  0
LINE
  8
0
 10
34.1452
 20
-26.204
 11
34.1933
 21
-26.2768
  0
LINE
  8
0
 10
34.1933
 20
-26.2768
 11
34.2402
 21
-26.3504
  0
LINE
  8
0
 10
34.2402
 20
-26.3504
 11
34.2858
 21
-26.4248
  0
LINE
  8
0
 10
34.2858
 20
-26.4248
 11
34.3301
 21
-26.5
  0
LINE
  8
0
 10
34.3301
 20
-26.5
 11
34.3731
 21
-26.5759
  0
LINE
  8
0
 10
34.3731
 20
-26.5759
 11
34.4147
 21
-26.6526
  0
LINE
  8
0
 10
34.4147
 20
-26.6526
 11
34.455
 21
-26.73
  0
LINE
  8
0
 10
34.455
 20
-26.73
 11
34.494
 21
-26.8081
  0
LINE
  8
0
 10
34.494
 20
-26.8081
 11
34.5315
 21
-26.8869
  0
LINE
  8
0
 10
34.5315
 20
-26.8869
 11
34.5677
 21
-26.9663
  0
LINE
  8
0
 10
34.5677
 20
-26.9663
 11
34.6025
 21
-27.0463
  0
LINE
  8
0
 10
34.6025
 20
-27.0463
 11
34.6359
 21
-27.127
  0
LINE
  8
0
 10
34.6359
 20
-27.127
 11
34.6679
 21
-27.2082
  0
LINE
  8
0
 10
34.6679
 20
-27.2082
 11
34.6985
 21
-27.2899
  0
LINE
  8
0
 10
34.6985
 20
-27.2899
 11
34.7276
 21
-27.3721
  0
LINE
  8
0
 10
34.7276
 20
-27.3721
 11
34.7553
 21
-27.4549
  0
LINE
  8
0
 10
34.7553
 20
-27.4549
 11
34.7815
 21
-27.5381
  0
LINE
  8
0
 10
34.7815
 20
-27.5381
 11
34.8063
 21
-27.6218
  0
LINE
  8
0
 10
34.8063
 20
-27.6218
 11
34.8296
 21
-27.7059
  0
LINE
  8
0
 10
34.8296
 20
-27.7059
 11
34.8515
 21
-27.7904
  0
LINE
  8
0
 10
34.8515
 20
-27.7904
 11
34.8718
 21
-27.8752
  0
LINE
  8
0
 10
34.8718
 20
-27.8752
 11
34.8907
 21
-27.9604
  0
LINE
  8
0
 10
34.8907
 20
-27.9604
 11
34.9081
 21
-28.0459
  0
LINE
  8
0
 10
34.9081
 20
-28.0459
 11
34.924
 21
-28.1318
  0
LINE
  8
0
 10
34.924
 20
-28.1318
 11
34.9384
 21
-28.2178
  0
LINE
  8
0
 10
34.9384
 20
-28.2178
 11
34.9513
 21
-28.3041
  0
LINE
  8
0
 10
34.9513
 20
-28.3041
 11
34.9627
 21
-28.3906
  0
LINE
  8
0
 10
34.9627
 20
-28.3906
 11
34.9726
 21
-28.4774
  0
LINE
  8
0
 10
34.9726
 20
-28.4774
 11
34.981
 21
-28.5642
  0
LINE
  8
0
 10
34.981
 20
-28.5642
 11
34.9878
 21
-28.6512
  0
LINE
  8
0
 10
34.9878
 20
-28.6512
 11
34.9931
 21
-28.7383
  0
LINE
  8
0
 10
34.9931
 20
-28.7383
 11
34.9969
 21
-28.8255
  0
LINE
  8
0
 10
34.9969
 20
-28.8255
 11
34.9992
 21
-28.9127
  0
LINE
  8
0
 10
34.9992
 20
-28.9127
 11
35
 21
-29
  0
LINE
  8
0
 10
35
 20
-29
 11
34.9992
 21
-29.0872
  0
LINE
  8
0
 10
34.9992
 20
-29.0872
 11
34.9969
 21
-29.1745
  0
LINE
  8
0
 10
34.9969
 20
-29.1745
 11
34.9931
 21
-29.2617
  0
LINE
  8
0
 10
34.9931
 20
-29.2617
 11
34.9878
 21
-29.3488
  0
LINE
  8
0
 10
34.9878
 20
-29.3488
 11
34.981
 21
-29.4358
  0
LINE
  8
0
 10
34.981
 20
-29.4358
 11
34.9726
 21
-29.5226
  0
LINE
  8
0
 10
34.9726
 20
-29.5226
 11
34.9627
 21
-29.6093
  0
LINE
  8
0
 10
34.9627
 20
-29.6093
 11
34.9513
 21
-29.6959
  0
LINE
  8
0
 10
34.9513
 20
-29.6959
 11
34.9384
 21
-29.7822
  0
LINE
  8
0
 10
34.9384
 20
-29.7822
 11
34.924
 21
-29.8682
  0
LINE
  8
0
 10
34.924
 20
-29.8682
 11
34.9081
 21
-29.954
  0
LINE
  8
0
 10
34.9081
 20
-29.954
 11
34.8907
 21
-30.0396
  0
LINE
  8
0
 10
34.8907
 20
-30.0396
 11
34.8718
 21
-30.1248
  0
LINE
  8
0
 10
34.8718
 20
-30.1248
 11
34.8515
 21
-30.2096
  0
LINE
  8
0
 10
34.8515
 20
-30.2096
 11
34.8296
 21
-30.2941
  0
LINE
  8
0
 10
34.8296
 20
-30.2941
 11
34.8063
 21
-30.3782
  0
LINE
  8
0
 10
34.8063
 20
-30.3782
 11
34.7815
 21
-30.4619
  0
LINE
  8
0
 10
34.7815
 20
-30.4619
 11
34.7553
 21
-30.5451
  0
LINE
  8
0
 10
34.7553
 20
-30.5451
 11
34.7276
 21
-30.6278
  0
LINE
  8
0
 10
34.7276
 20
-30.6278
 11
34.6985
 21
-30.7101
  0
LINE
  8
0
 10
34.6985
 20
-30.7101
 11
34.6679
 21
-30.7918
  0
LINE
  8
0
 10
34.6679
 20
-30.7918
 11
34.6359
 21
-30.873
  0
LINE
  8
0
 10
34.6359
 20
-30.873
 11
34.6025
 21
-30.9536
  0
LINE
  8
0
 10
34.6025
 20
-30.9536
 11
34.5677
 21
-31.0337
  0
LINE
  8
0
 10
34.5677
 20
-31.0337
 11
34.5315
 21
-31.1131
  0
LINE
  8
0
 10
34.5315
 20
-31.1131
 11
34.494
 21
-31.1918
  0
LINE
  8
0
 10
34.494
 20
-31.1918
 11
34.455
 21
-31.2699
  0
LINE
  8
0
 10
34.455
 20
-31.2699
 11
34.4147
 21
-31.3474
  0
LINE
  8
0
 10
34.4147
 20
-31.3474
 11
34.3731
 21
-31.424
  0
LINE
  8
0
 10
34.3731
 20
-31.424
 11
34.3301
 21
-31.5
  0
LINE
  8
0
 10
34.3301
 20
-31.5
 11
34.2858
 21
-31.5752
  0
LINE
  8
0
 10
34.2858
 20
-31.5752
 11
34.2402
 21
-31.6496
  0
LINE
  8
0
 10
34.2402
 20
-31.6496
 11
34.1933
 21
-31.7232
  0
LINE
  8
0
 10
34.1933
 20
-31.7232
 11
34.1452
 21
-31.796
  0
LINE
  8
0
 10
34.1452
 20
-31.796
 11
34.0957
 21
-31.8679
  0
LINE
  8
0
 10
34.0957
 20
-31.8679
 11
34.0451
 21
-31.9389
  0
LINE
  8
0
 10
34.0451
 20
-31.9389
 11
33.9932
 21
-32.0091
  0
LINE
  8
0
 10
33.9932
 20
-32.0091
 11
33.94
 21
-32.0783
  0
LINE
  8
0
 10
33.94
 20
-32.0783
 11
33.8857
 21
-32.1466
  0
LINE
  8
0
 10
33.8857
 20
-32.1466
 11
33.8302
 21
-32.2139
  0
LINE
  8
0
 10
33.8302
 20
-32.2139
 11
33.7735
 21
-32.2803
  0
LINE
  8
0
 10
33.7735
 20
-32.2803
 11
33.7157
 21
-32.3456
  0
LINE
  8
0
 10
33.7157
 20
-32.3456
 11
33.6568
 21
-32.41
  0
LINE
  8
0
 10
33.6568
 20
-32.41
 11
33.5967
 21
-32.4733
  0
LINE
  8
0
 10
33.5967
 20
-32.4733
 11
33.5355
 21
-32.5355
  0
LINE
  8
0
 10
33.5355
 20
-32.5355
 11
33.4733
 21
-32.5967
  0
LINE
  8
0
 10
33.4733
 20
-32.5967
 11
33.41
 21
-32.6568
  0
LINE
  8
0
 10
33.41
 20
-32.6568
 11
33.3456
 21
-32.7157
  0
LINE
  8
0
 10
33.3456
 20
-32.7157
 11
33.2803
 21
-32.7735
  0
LINE
  8
0
 10
33.2803
 20
-32.7735
 11
33.2139
 21
-32.8302
  0
LINE
  8
0
 10
33.2139
 20
-32.8302
 11
33.1466
 21
-32.8857
  0
LINE
  8
0
 10
33.1466
 20
-32.8857
 11
33.0783
 21
-32.94
  0
LINE
  8
0
 10
33.0783
 20
-32.94
 11
33.0091
 21
-32.9932
  0
LINE
  8
0
 10
33.0091
 20
-32.9932
 11
32.9389
 21
-33.0451
  0
LINE
  8
0
 10
32.9389
 20
-33.0451
 11
32.8679
 21
-33.0957
  0
LINE
  8
0
 10
32.8679
 20
-33.0957
 11
32.796
 21
-33.1452
  0
LINE
  8
0
 10
32.796
 20
-33.1452
 11
32.7232
 21
-33.1933
  0
LINE
  8
0
 10
32.7232
 20
-33.1933
 11
32.6496
 21
-33.2402
  0
LINE
  8
0
 10
32.6496
 20
-33.2402
 11
32.5752
 21
-33.2858
  0
LINE
  8
0
 10
32.5752
 20
-33.2858
 11
32.5
 21
-33.3301
  0
LINE
  8
0
 10
32.5
 20
-33.3301
 11
32.424
 21
-33.3731
  0
LINE
  8
0
 10
32.424
 20
-33.3731
 11
32.3474
 21
-33.4147
  0
LINE
  8
0
 10
32.3474
 20
-33.4147
 11
32.2699
 21
-33.455
  0
LINE
  8
0
 10
32.2699
 20
-33.455
 11
32.1918
 21
-33.494
  0
LINE
  8
0
 10
32.1918
 20
-33.494
 11
32.1131
 21
-33.5315
  0
LINE
  8
0
 10
32.1131
 20
-33.5315
 11
32.0337
 21
-33.5677
  0
LINE
  8
0
 10
32.0337
 20
-33.5677
 11
31.9536
 21
-33.6025
  0
LINE
  8
0
 10
31.9536
 20
-33.6025
 11
31.873
 21
-33.6359
  0
LINE
  8
0
 10
31.873
 20
-33.6359
 11
31.7918
 21
-33.6679
  0
LINE
  8
0
 10
31.7918
 20
-33.6679
 11
31.7101
 21
-33.6985
  0
LINE
  8
0
 10
31.7101
 20
-33.6985
 11
31.6278
 21
-33.7276
  0
LINE
  8
0
 10
31.6278
 20
-33.7276
 11
31.5451
 21
-33.7553
  0
LINE
  8
0
 10
31.5451
 20
-33.7553
 11
31.4619
 21
-33.7815
  0
LINE
  8
0
 10
31.4619
 20
-33.7815
 11
31.3782
 21
-33.8063
  0
LINE
  8
0
 10
31.3782
 20
-33.8063
 11
31.2941
 21
-33.8296
  0
LINE
  8
0
 10
31.2941
 20
-33.8296
 11
31.2096
 21
-33.8515
  0
LINE
  8
0
 10
31.2096
 20
-33.8515
 11
31.1248
 21
-33.8718
  0
LINE
  8
0
 10
31.1248
 20
-33.8718
 11
31.0396
 21
-33.8907
  0
LINE
  8
0
 10
31.0396
 20
-33.8907
 11
30.954
 21
-33.9081
  0
LINE
  8
0
 10
30.954
 20
-33.9081
 11
30.8682
 21
-33.924
  0
LINE
  8
0
 10
30.8682
 20
-33.924
 11
30.7822
 21
-33.9384
  0
LINE
  8
0
 10
30.7822
 20
-33.9384
 11
30.6959
 21
-33.9513
  0
LINE
  8
0
 10
30.6959
 20
-33.9513
 11
30.6093
 21
-33.9627
  0
LINE
  8
0
 10
30.6093
 20
-33.9627
 11
30.5226
 21
-33.9726
  0
LINE
  8
0
 10
30.5226
 20
-33.9726
 11
30.4358
 21
-33.981
  0
LINE
  8
0
 10
30.4358
 20
-33.981
 11
30.3488
 21
-33.9878
  0
LINE
  8
0
 10
30.3488
 20
-33.9878
 11
30.2617
 21
-33.9931
  0
LINE
  8
0
 10
30.2617
 20
-33.9931
 11
30.1745
 21
-33.9969
  0
LINE
  8
0
 10
30.1745
 20
-33.9969
 11
30.0872
 21
-33.9992
  0
LINE
  8
0
 10
30.0872
 20
-33.9992
 11
30
 21
-34
  0
LINE
  8
0
 10
30
 20
-34
 11
29.9127
 21
-33.9992
  0
ENDSEC
  0
SECTION
  2
OBJECTS
  0
DICTIONARY
  0
ENDSEC
  0
EOF
