  0
SECTION
  2
BLOCKS
  0
ENDSEC
  0
SECTION
  2
ENTITIES
  0
LINE
  8
0
 10
105.087
 20
-9.99924
 11
105.174
 21
-9.99695
  0
LINE
  8
0
 10
105.174
 20
-9.99695
 11
105.262
 21
-9.99313
  0
LINE
  8
0
 10
105.262
 20
-9.99313
 11
105.349
 21
-9.98781
  0
LINE
  8
0
 10
105.349
 20
-9.98781
 11
105.436
 21
-9.98097
  0
LINE
  8
0
 10
105.436
 20
-9.98097
 11
105.523
 21
-9.9726
  0
LINE
  8
0
 10
105.523
 20
-9.9726
 11
105.609
 21
-9.96272
  0
LINE
  8
0
 10
105.609
 20
-9.96272
 11
105.696
 21
-9.95134
  0
LINE
  8
0
 10
105.696
 20
-9.95134
 11
105.782
 21
-9.93843
  0
LINE
  8
0
 10
105.782
 20
-9.93843
 11
105.868
 21
-9.92403
  0
LINE
  8
0
 10
105.868
 20
-9.92403
 11
105.954
 21
-9.90813
  0
LINE
  8
0
 10
105.954
 20
-9.90813
 11
106.04
 21
-9.89073
  0
LINE
  8
0
 10
106.04
 20
-9.89073
 11
106.125
 21
-9.87184
  0
LINE
  8
0
 10
106.125
 20
-9.87184
 11
106.21
 21
-9.85147
  0
LINE
  8
0
 10
106.21
 20
-9.85147
 11
106.294
 21
-9.82962
  0
LINE
  8
0
 10
106.294
 20
-9.82962
 11
106.378
 21
-9.8063
  0
LINE
  8
0
 10
106.378
 20
-9.8063
 11
106.462
 21
-9.78151
  0
LINE
  8
0
 10
106.462
 20
-9.78151
 11
106.545
 21
-9.75528
  0
LINE
  8
0
 10
106.545
 20
-9.75528
 11
106.628
 21
-9.72758
  0
LINE
  8
0
 10
106.628
 20
-9.72758
 11
106.71
 21
-9.69846
  0
LINE
  8
0
 10
106.71
 20
-9.69846
 11
106.792
 21
-9.66789
  0
LINE
  8
0
 10
106.792
 20
-9.66789
 11
106.873
 21
-9.63591
  0
LINE
  8
0
 10
106.873
 20
-9.63591
 11
106.954
 21
-9.60252
  0
LINE
  8
0
 10
106.954
 20
-9.60252
 11
107.034
 21
-9.56772
  0
LINE
  8
0
 10
107.034
 20
-9.56772
 11
107.113
 21
-9.53152
  0
LINE
  8
0
 10
107.113
 20
-9.53152
 11
107.192
 21
-9.49396
  0
LINE
  8
0
 10
107.192
 20
-9.49396
 11
107.27
 21
-9.45503
  0
LINE
  8
0
 10
107.27
 20
-9.45503
 11
107.347
 21
-9.41473
  0
LINE
  8
0
 10
107.347
 20
-9.41473
 11
107.424
 21
-9.37309
  0
LINE
  8
0
 10
107.424
 20
-9.37309
 11
107.5
 21
-9.33012
  0
LINE
  8
0
 10
107.5
 20
-9.33012
 11
107.575
 21
-9.28583
  0
LINE
  8
0
 10
107.575
 20
-9.28583
 11
107.65
 21
-9.24023
  0
LINE
  8
0
 10
107.65
 20
-9.24023
 11
107.723
 21
-9.19334
  0
LINE
  8
0
 10
107.723
 20
-9.19334
 11
107.796
 21
-9.14519
  0
LINE
  8
0
 10
107.796
 20
-9.14519
 11
107.868
 21
-9.09575
  0
LINE
  8
0
 10
107.868
 20
-9.09575
 11
107.939
 21
-9.04507
  0
LINE
  8
0
 10
107.939
 20
-9.04507
 11
108.009
 21
-8.99316
  0
LINE
  8
0
 10
108.009
 20
-8.99316
 11
108.078
 21
-8.94005
  0
LINE
  8
0
 10
108.078
 20
-8.94005
 11
108.147
 21
-8.88573
  0
LINE
  8
0
 10
108.147
 20
-8.88573
 11
108.214
 21
-8.83022
  0
LINE
  8
0
 10
108.214
 20
-8.83022
 11
108.28
 21
-8.77354
  0
LINE
  8
0
 10
108.28
 20
-8.77354
 11
108.346
 21
-8.71571
  0
LINE
  8
0
 10
108.346
 20
-8.71571
 11
108.41
 21
-8.65675
  0
LINE
  8
0
 10
108.41
 20
-8.65675
 11
108.473
 21
-8.59669
  0
LINE
  8
0
 10
108.473
 20
-8.59669
 11
108.536
 21
-8.53552
  0
LINE
  8
0
 10
108.536
 20
-8.53552
 11
108.597
 21
-8.47328
  0
LINE
  8
0
 10
108.597
 20
-8.47328
 11
108.657
 21
-8.40999
  0
LINE
  8
0
 10
108.657
 20
-8.40999
 11
108.716
 21
-8.34564
  0
LINE
  8
0
 10
108.716
 20
-8.34564
 11
108.774
 21
-8.28029
  0
LINE
  8
0
 10
108.774
 20
-8.28029
 11
108.83
 21
-8.21393
  0
LINE
  8
0
 10
108.83
 20
-8.21393
 11
108.886
 21
-8.14659
  0
LINE
  8
0
 10
108.886
 20
-8.14659
 11
108.94
 21
-8.07829
  0
LINE
  8
0
 10
108.94
 20
-8.07829
 11
108.993
 21
-8.00906
  0
LINE
  8
0
 10
108.993
 20
-8.00906
 11
109.045
 21
-7.93892
  0
LINE
  8
0
 10
109.045
 20
-7.93892
 11
109.096
 21
-7.86787
  0
LINE
  8
0
 10
109.096
 20
-7.86787
 11
109.145
 21
-7.79596
  0
LINE
  8
0
 10
109.145
 20
-7.79596
 11
109.193
 21
-7.72319
  0
LINE
  8
0
 10
109.193
 20
-7.72319
 11
109.24
 21
-7.64958
  0
LINE
  8
0
 10
109.24
 20
-7.64958
 11
109.286
 21
-7.57518
  0
LINE
  8
0
 10
109.286
 20
-7.57518
 11
109.33
 21
-7.5
  0
LINE
  8
0
 10
109.33
 20
-7.5
 11
109.373
 21
-7.42404
  0
LINE
  8
0
 10
109.373
 20
-7.42404
 11
109.415
 21
-7.34735
  0
LINE
  8
0
 10
109.415
 20
-7.34735
 11
109.455
 21
-7.26994
  0
LINE
  8
0
 10
109.455
 20
-7.26994
 11
109.494
 21
-7.19185
  0
LINE
  8
0
 10
109.494
 20
-7.19185
 11
109.532
 21
-7.11308
  0
LINE
  8
0
 10
109.532
 20
-7.11308
 11
109.568
 21
-7.03368
  0
LINE
  8
0
 10
109.568
 20
-7.03368
 11
109.603
 21
-6.95364
  0
LINE
  8
0
 10
109.603
 20
-6.95364
 11
109.636
 21
-6.87303
  0
LINE
  8
0
 10
109.636
 20
-6.87303
 11
109.668
 21
-6.79184
  0
LINE
  8
0
 10
109.668
 20
-6.79184
 11
109.698
 21
-6.7101
  0
LINE
  8
0
 10
109.698
 20
-6.7101
 11
109.728
 21
-6.62784
  0
LINE
  8
0
 10
109.728
 20
-6.62784
 11
109.755
 21
-6.54507
  0
LINE
  8
0
 10
109.755
 20
-6.54507
 11
109.782
 21
-6.46185
  0
LINE
  8
0
 10
109.782
 20
-6.46185
 11
109.806
 21
-6.37817
  0
LINE
  8
0
 10
109.806
 20
-6.37817
 11
109.83
 21
-6.29408
  0
LINE
  8
0
 10
109.83
 20
-6.29408
 11
109.851
 21
-6.20959
  0
LINE
  8
0
 10
109.851
 20
-6.20959
 11
109.872
 21
-6.12474
  0
LINE
  8
0
 10
109.872
 20
-6.12474
 11
109.891
 21
-6.03955
  0
LINE
  8
0
 10
109.891
 20
-6.03955
 11
109.908
 21
-5.95404
  0
LINE
  8
0
 10
109.908
 20
-5.95404
 11
109.924
 21
-5.86824
  0
LINE
  8
0
 10
109.924
 20
-5.86824
 11
109.938
 21
-5.78217
  0
LINE
  8
0
 10
109.938
 20
-5.78217
 11
109.951
 21
-5.69586
  0
LINE
  8
0
 10
109.951
 20
-5.69586
 11
109.963
 21
-5.60934
  0
LINE
  8
0
 10
109.963
 20
-5.60934
 11
109.973
 21
-5.52263
  0
LINE
  8
0
 10
109.973
 20
-5.52263
 11
109.981
 21
-5.43578
  0
LINE
  8
0
 10
109.981
 20
-5.43578
 11
109.988
 21
-5.34877
  0
LINE
  8
0
 10
109.988
 20
-5.34877
 11
109.993
 21
-5.26167
  0
LINE
  8
0
 10
109.993
 20
-5.26167
 11
109.997
 21
-5.17448
  0
LINE
  8
0
 10
109.997
 20
-5.17448
 11
109.999
 21
-5.08725
  0
LINE
  8
0
 10
109.999
 20
-5.08725
 11
110
 21
-5
  0
LINE
  8
0
 10
110
 20
-5
 11
110
 21
90
  0
LINE
  8
0
 10
110
 20
90
 11
109.999
 21
90.0873
  0
LINE
  8
0
 10
109.999
 20
90.0873
 11
109.997
 21
90.1745
  0
LINE
  8
0
 10
109.997
 20
90.1745
 11
109.993
 21
90.2617
  0
LINE
  8
0
 10
109.993
 20
90.2617
 11
109.988
 21
90.3488
  0
LINE
  8
0
 10
109.988
 20
90.3488
 11
109.981
 21
90.4358
  0
LINE
  8
0
 10
109.981
 20
90.4358
 11
109.973
 21
90.5226
  0
LINE
  8
0
 10
109.973
 20
90.5226
 11
109.963
 21
90.6093
  0
LINE
  8
0
 10
109.963
 20
90.6093
 11
109.951
 21
90.6959
  0
LINE
  8
0
 10
109.951
 20
90.6959
 11
109.938
 21
90.7822
  0
LINE
  8
0
 10
109.938
 20
90.7822
 11
109.924
 21
90.8682
  0
LINE
  8
0
 10
109.924
 20
90.8682
 11
109.908
 21
90.954
  0
LINE
  8
0
 10
109.908
 20
90.954
 11
109.891
 21
91.0396
  0
LINE
  8
0
 10
109.891
 20
91.0396
 11
109.872
 21
91.1248
  0
LINE
  8
0
 10
109.872
 20
91.1248
 11
109.851
 21
91.2096
  0
LINE
  8
0
 10
109.851
 20
91.2096
 11
109.83
 21
91.2941
  0
LINE
  8
0
 10
109.83
 20
91.2941
 11
109.806
 21
91.3782
  0
LINE
  8
0
 10
109.806
 20
91.3782
 11
109.782
 21
91.4619
  0
LINE
  8
0
 10
109.782
 20
91.4619
 11
109.755
 21
91.5451
  0
LINE
  8
0
 10
109.755
 20
91.5451
 11
109.728
 21
91.6278
  0
LINE
  8
0
 10
109.728
 20
91.6278
 11
109.698
 21
91.7101
  0
LINE
  8
0
 10
109.698
 20
91.7101
 11
109.668
 21
91.7918
  0
LINE
  8
0
 10
109.668
 20
91.7918
 11
109.636
 21
91.873
  0
LINE
  8
0
 10
109.636
 20
91.873
 11
109.603
 21
91.9537
  0
LINE
  8
0
 10
109.603
 20
91.9537
 11
109.568
 21
92.0337
  0
LINE
  8
0
 10
109.568
 20
92.0337
 11
109.532
 21
92.1131
  0
LINE
  8
0
 10
109.532
 20
92.1131
 11
109.494
 21
92.1918
  0
LINE
  8
0
 10
109.494
 20
92.1918
 11
109.455
 21
92.2699
  0
LINE
  8
0
 10
109.455
 20
92.2699
 11
109.415
 21
92.3474
  0
LINE
  8
0
 10
109.415
 20
92.3474
 11
109.373
 21
92.424
  0
LINE
  8
0
 10
109.373
 20
92.424
 11
109.33
 21
92.5
  0
LINE
  8
0
 10
109.33
 20
92.5
 11
109.286
 21
92.5752
  0
LINE
  8
0
 10
109.286
 20
92.5752
 11
109.24
 21
92.6496
  0
LINE
  8
0
 10
109.24
 20
92.6496
 11
109.193
 21
92.7232
  0
LINE
  8
0
 10
109.193
 20
92.7232
 11
109.145
 21
92.796
  0
LINE
  8
0
 10
109.145
 20
92.796
 11
109.096
 21
92.8679
  0
LINE
  8
0
 10
109.096
 20
92.8679
 11
109.045
 21
92.9389
  0
LINE
  8
0
 10
109.045
 20
92.9389
 11
108.993
 21
93.0091
  0
LINE
  8
0
 10
108.993
 20
93.0091
 11
108.94
 21
93.0783
  0
LINE
  8
0
 10
108.94
 20
93.0783
 11
108.886
 21
93.1466
  0
LINE
  8
0
 10
108.886
 20
93.1466
 11
108.83
 21
93.2139
  0
LINE
  8
0
 10
108.83
 20
93.2139
 11
108.774
 21
93.2803
  0
LINE
  8
0
 10
108.774
 20
93.2803
 11
108.716
 21
93.3456
  0
LINE
  8
0
 10
108.716
 20
93.3456
 11
108.657
 21
93.41
  0
LINE
  8
0
 10
108.657
 20
93.41
 11
108.597
 21
93.4733
  0
LINE
  8
0
 10
108.597
 20
93.4733
 11
108.536
 21
93.5355
  0
LINE
  8
0
 10
108.536
 20
93.5355
 11
108.473
 21
93.5967
  0
LINE
  8
0
 10
108.473
 20
93.5967
 11
108.41
 21
93.6568
  0
LINE
  8
0
 10
108.41
 20
93.6568
 11
108.346
 21
93.7157
  0
LINE
  8
0
 10
108.346
 20
93.7157
 11
108.28
 21
93.7735
  0
LINE
  8
0
 10
108.28
 20
93.7735
 11
108.214
 21
93.8302
  0
LINE
  8
0
 10
108.214
 20
93.8302
 11
108.147
 21
93.8857
  0
LINE
  8
0
 10
108.147
 20
93.8857
 11
108.078
 21
93.94
  0
LINE
  8
0
 10
108.078
 20
93.94
 11
108.009
 21
93.9932
  0
LINE
  8
0
 10
108.009
 20
93.9932
 11
107.939
 21
94.0451
  0
LINE
  8
0
 10
107.939
 20
94.0451
 11
107.868
 21
94.0957
  0
LINE
  8
0
 10
107.868
 20
94.0957
 11
107.796
 21
94.1452
  0
LINE
  8
0
 10
107.796
 20
94.1452
 11
107.723
 21
94.1933
  0
LINE
  8
0
 10
107.723
 20
94.1933
 11
107.65
 21
94.2402
  0
LINE
  8
0
 10
107.65
 20
94.2402
 11
107.575
 21
94.2858
  0
LINE
  8
0
 10
107.575
 20
94.2858
 11
107.5
 21
94.3301
  0
LINE
  8
0
 10
107.5
 20
94.3301
 11
107.424
 21
94.3731
  0
LINE
  8
0
 10
107.424
 20
94.3731
 11
107.347
 21
94.4147
  0
LINE
  8
0
 10
107.347
 20
94.4147
 11
107.27
 21
94.455
  0
LINE
  8
0
 10
107.27
 20
94.455
 11
107.192
 21
94.494
  0
LINE
  8
0
 10
107.192
 20
94.494
 11
107.113
 21
94.5315
  0
LINE
  8
0
 10
107.113
 20
94.5315
 11
107.034
 21
94.5677
  0
LINE
  8
0
 10
107.034
 20
94.5677
 11
106.954
 21
94.6025
  0
LINE
  8
0
 10
106.954
 20
94.6025
 11
106.873
 21
94.6359
  0
LINE
  8
0
 10
106.873
 20
94.6359
 11
106.792
 21
94.6679
  0
LINE
  8
0
 10
106.792
 20
94.6679
 11
106.71
 21
94.6985
  0
LINE
  8
0
 10
106.71
 20
94.6985
 11
106.628
 21
94.7276
  0
LINE
  8
0
 10
106.628
 20
94.7276
 11
106.545
 21
94.7553
  0
LINE
  8
0
 10
106.545
 20
94.7553
 11
106.462
 21
94.7815
  0
LINE
  8
0
 10
106.462
 20
94.7815
 11
106.378
 21
94.8063
  0
LINE
  8
0
 10
106.378
 20
94.8063
 11
106.294
 21
94.8296
  0
LINE
  8
0
 10
106.294
 20
94.8296
 11
106.21
 21
94.8515
  0
LINE
  8
0
 10
106.21
 20
94.8515
 11
106.125
 21
94.8718
  0
LINE
  8
0
 10
106.125
 20
94.8718
 11
106.04
 21
94.8907
  0
LINE
  8
0
 10
106.04
 20
94.8907
 11
105.954
 21
94.9081
  0
LINE
  8
0
 10
105.954
 20
94.9081
 11
105.868
 21
94.924
  0
LINE
  8
0
 10
105.868
 20
94.924
 11
105.782
 21
94.9384
  0
LINE
  8
0
 10
105.782
 20
94.9384
 11
105.696
 21
94.9513
  0
LINE
  8
0
 10
105.696
 20
94.9513
 11
105.609
 21
94.9627
  0
LINE
  8
0
 10
105.609
 20
94.9627
 11
105.523
 21
94.9726
  0
LINE
  8
0
 10
105.523
 20
94.9726
 11
105.436
 21
94.981
  0
LINE
  8
0
 10
105.436
 20
94.981
 11
105.349
 21
94.9878
  0
LINE
  8
0
 10
105.349
 20
94.9878
 11
105.262
 21
94.9931
  0
LINE
  8
0
 10
105.262
 20
94.9931
 11
105.174
 21
94.9969
  0
LINE
  8
0
 10
105.174
 20
94.9969
 11
105.087
 21
94.9992
  0
LINE
  8
0
 10
105.087
 20
94.9992
 11
105
 21
95
  0
LINE
  8
0
 10
105
 20
95
 11
-5
 21
95
  0
LINE
  8
0
 10
-5
 20
95
 11
-5.08725
 21
94.9992
  0
LINE
  8
0
 10
-5.08725
 20
94.9992
 11
-5.17448
 21
94.9969
  0
LINE
  8
0
 10
-5.17448
 20
94.9969
 11
-5.26167
 21
94.9931
  0
LINE
  8
0
 10
-5.26167
 20
94.9931
 11
-5.34877
 21
94.9878
  0
LINE
  8
0
 10
-5.34877
 20
94.9878
 11
-5.43578
 21
94.981
  0
LINE
  8
0
 10
-5.43578
 20
94.981
 11
-5.52263
 21
94.9726
  0
LINE
  8
0
 10
-5.52263
 20
94.9726
 11
-5.60934
 21
94.9627
  0
LINE
  8
0
 10
-5.60934
 20
94.9627
 11
-5.69586
 21
94.9513
  0
LINE
  8
0
 10
-5.69586
 20
94.9513
 11
-5.78217
 21
94.9384
  0
LINE
  8
0
 10
-5.78217
 20
94.9384
 11
-5.86824
 21
94.924
  0
LINE
  8
0
 10
-5.86824
 20
94.924
 11
-5.95404
 21
94.9081
  0
LINE
  8
0
 10
-5.95404
 20
94.9081
 11
-6.03955
 21
94.8907
  0
LINE
  8
0
 10
-6.03955
 20
94.8907
 11
-6.12474
 21
94.8718
  0
LINE
  8
0
 10
-6.12474
 20
94.8718
 11
-6.20959
 21
94.8515
  0
LINE
  8
0
 10
-6.20959
 20
94.8515
 11
-6.29408
 21
94.8296
  0
LINE
  8
0
 10
-6.29408
 20
94.8296
 11
-6.37817
 21
94.8063
  0
LINE
  8
0
 10
-6.37817
 20
94.8063
 11
-6.46185
 21
94.7815
  0
LINE
  8
0
 10
-6.46185
 20
94.7815
 11
-6.54507
 21
94.7553
  0
LINE
  8
0
 10
-6.54507
 20
94.7553
 11
-6.62784
 21
94.7276
  0
LINE
  8
0
 10
-6.62784
 20
94.7276
 11
-6.7101
 21
94.6985
  0
LINE
  8
0
 10
-6.7101
 20
94.6985
 11
-6.79184
 21
94.6679
  0
LINE
  8
0
 10
-6.79184
 20
94.6679
 11
-6.87303
 21
94.6359
  0
LINE
  8
0
 10
-6.87303
 20
94.6359
 11
-6.95364
 21
94.6025
  0
LINE
  8
0
 10
-6.95364
 20
94.6025
 11
-7.03368
 21
94.5677
  0
LINE
  8
0
 10
-7.03368
 20
94.5677
 11
-7.11308
 21
94.5315
  0
LINE
  8
0
 10
-7.11308
 20
94.5315
 11
-7.19185
 21
94.494
  0
LINE
  8
0
 10
-7.19185
 20
94.494
 11
-7.26994
 21
94.455
  0
LINE
  8
0
 10
-7.26994
 20
94.455
 11
-7.34735
 21
94.4147
  0
LINE
  8
0
 10
-7.34735
 20
94.4147
 11
-7.42404
 21
94.3731
  0
LINE
  8
0
 10
-7.42404
 20
94.3731
 11
-7.5
 21
94.3301
  0
LINE
  8
0
 10
-7.5
 20
94.3301
 11
-7.57518
 21
94.2858
  0
LINE
  8
0
 10
-7.57518
 20
94.2858
 11
-7.64958
 21
94.2402
  0
LINE
  8
0
 10
-7.64958
 20
94.2402
 11
-7.72319
 21
94.1933
  0
LINE
  8
0
 10
-7.72319
 20
94.1933
 11
-7.79596
 21
94.1452
  0
LINE
  8
0
 10
-7.79596
 20
94.1452
 11
-7.86787
 21
94.0957
  0
LINE
  8
0
 10
-7.86787
 20
94.0957
 11
-7.93892
 21
94.0451
  0
LINE
  8
0
 10
-7.93892
 20
94.0451
 11
-8.00906
 21
93.9932
  0
LINE
  8
0
 10
-8.00906
 20
93.9932
 11
-8.07829
 21
93.94
  0
LINE
  8
0
 10
-8.07829
 20
93.94
 11
-8.14659
 21
93.8857
  0
LINE
  8
0
 10
-8.14659
 20
93.8857
 11
-8.21393
 21
93.8302
  0
LINE
  8
0
 10
-8.21393
 20
93.8302
 11
-8.28029
 21
93.7735
  0
LINE
  8
0
 10
-8.28029
 20
93.7735
 11
-8.34564
 21
93.7157
  0
LINE
  8
0
 10
-8.34564
 20
93.7157
 11
-8.40999
 21
93.6568
  0
LINE
  8
0
 10
-8.40999
 20
93.6568
 11
-8.47328
 21
93.5967
  0
LINE
  8
0
 10
-8.47328
 20
93.5967
 11
-8.53552
 21
93.5355
  0
LINE
  8
0
 10
-8.53552
 20
93.5355
 11
-8.59669
 21
93.4733
  0
LINE
  8
0
 10
-8.59669
 20
93.4733
 11
-8.65675
 21
93.41
  0
LINE
  8
0
 10
-8.65675
 20
93.41
 11
-8.71571
 21
93.3456
  0
LINE
  8
0
 10
-8.71571
 20
93.3456
 11
-8.77354
 21
93.2803
  0
LINE
  8
0
 10
-8.77354
 20
93.2803
 11
-8.83022
 21
93.2139
  0
LINE
  8
0
 10
-8.83022
 20
93.2139
 11
-8.88573
 21
93.1466
  0
LINE
  8
0
 10
-8.88573
 20
93.1466
 11
-8.94005
 21
93.0783
  0
LINE
  8
0
 10
-8.94005
 20
93.0783
 11
-8.99316
 21
93.0091
  0
LINE
  8
0
 10
-8.99316
 20
93.0091
 11
-9.04507
 21
92.9389
  0
LINE
  8
0
 10
-9.04507
 20
92.9389
 11
-9.09575
 21
92.8679
  0
LINE
  8
0
 10
-9.09575
 20
92.8679
 11
-9.14519
 21
92.796
  0
LINE
  8
0
 10
-9.14519
 20
92.796
 11
-9.19334
 21
92.7232
  0
LINE
  8
0
 10
-9.19334
 20
92.7232
 11
-9.24023
 21
92.6496
  0
LINE
  8
0
 10
-9.24023
 20
92.6496
 11
-9.28583
 21
92.5752
  0
LINE
  8
0
 10
-9.28583
 20
92.5752
 11
-9.33012
 21
92.5
  0
LINE
  8
0
 10
-9.33012
 20
92.5
 11
-9.37309
 21
92.424
  0
LINE
  8
0
 10
-9.37309
 20
92.424
 11
-9.41473
 21
92.3474
  0
LINE
  8
0
 10
-9.41473
 20
92.3474
 11
-9.45503
 21
92.2699
  0
LINE
  8
0
 10
-9.45503
 20
92.2699
 11
-9.49396
 21
92.1918
  0
LINE
  8
0
 10
-9.49396
 20
92.1918
 11
-9.53152
 21
92.1131
  0
LINE
  8
0
 10
-9.53152
 20
92.1131
 11
-9.56772
 21
92.0337
  0
LINE
  8
0
 10
-9.56772
 20
92.0337
 11
-9.60252
 21
91.9537
  0
LINE
  8
0
 10
-9.60252
 20
91.9537
 11
-9.63591
 21
91.873
  0
LINE
  8
0
 10
-9.63591
 20
91.873
 11
-9.66789
 21
91.7918
  0
LINE
  8
0
 10
-9.66789
 20
91.7918
 11
-9.69846
 21
91.7101
  0
LINE
  8
0
 10
-9.69846
 20
91.7101
 11
-9.72758
 21
91.6278
  0
LINE
  8
0
 10
-9.72758
 20
91.6278
 11
-9.75528
 21
91.5451
  0
LINE
  8
0
 10
-9.75528
 20
91.5451
 11
-9.78151
 21
91.4619
  0
LINE
  8
0
 10
-9.78151
 20
91.4619
 11
-9.8063
 21
91.3782
  0
LINE
  8
0
 10
-9.8063
 20
91.3782
 11
-9.82962
 21
91.2941
  0
LINE
  8
0
 10
-9.82962
 20
91.2941
 11
-9.85147
 21
91.2096
  0
LINE
  8
0
 10
-9.85147
 20
91.2096
 11
-9.87184
 21
91.1248
  0
LINE
  8
0
 10
-9.87184
 20
91.1248
 11
-9.89073
 21
91.0396
  0
LINE
  8
0
 10
-9.89073
 20
91.0396
 11
-9.90813
 21
90.954
  0
LINE
  8
0
 10
-9.90813
 20
90.954
 11
-9.92403
 21
90.8682
  0
LINE
  8
0
 10
-9.92403
 20
90.8682
 11
-9.93843
 21
90.7822
  0
LINE
  8
0
 10
-9.93843
 20
90.7822
 11
-9.95134
 21
90.6959
  0
LINE
  8
0
 10
-9.95134
 20
90.6959
 11
-9.96272
 21
90.6093
  0
LINE
  8
0
 10
-9.96272
 20
90.6093
 11
-9.9726
 21
90.5226
  0
LINE
  8
0
 10
-9.9726
 20
90.5226
 11
-9.98097
 21
90.4358
  0
LINE
  8
0
 10
-9.98097
 20
90.4358
 11
-9.98781
 21
90.3488
  0
LINE
  8
0
 10
-9.98781
 20
90.3488
 11
-9.99313
 21
90.2617
  0
LINE
  8
0
 10
-9.99313
 20
90.2617
 11
-9.99695
 21
90.1745
  0
LINE
  8
0
 10
-9.99695
 20
90.1745
 11
-9.99924
 21
90.0873
  0
LINE
  8
0
 10
-9.99924
 20
90.0873
 11
-10
 21
90
  0
LINE
  8
0
 10
-10
 20
90
 11
-10
 21
-5
  0
LINE
  8
0
 10
-10
 20
-5
 11
-9.99924
 21
-5.08725
  0
LINE
  8
0
 10
-9.99924
 20
-5.08725
 11
-9.99695
 21
-5.17448
  0
LINE
  8
0
 10
-9.99695
 20
-5.17448
 11
-9.99313
 21
-5.26167
  0
LINE
  8
0
 10
-9.99313
 20
-5.26167
 11
-9.98781
 21
-5.34877
  0
LINE
  8
0
 10
-9.98781
 20
-5.34877
 11
-9.98097
 21
-5.43578
  0
LINE
  8
0
 10
-9.98097
 20
-5.43578
 11
-9.9726
 21
-5.52263
  0
LINE
  8
0
 10
-9.9726
 20
-5.52263
 11
-9.96272
 21
-5.60934
  0
LINE
  8
0
 10
-9.96272
 20
-5.60934
 11
-9.95134
 21
-5.69586
  0
LINE
  8
0
 10
-9.95134
 20
-5.69586
 11
-9.93843
 21
-5.78217
  0
LINE
  8
0
 10
-9.93843
 20
-5.78217
 11
-9.92403
 21
-5.86824
  0
LINE
  8
0
 10
-9.92403
 20
-5.86824
 11
-9.90813
 21
-5.95404
  0
LINE
  8
0
 10
-9.90813
 20
-5.95404
 11
-9.89073
 21
-6.03955
  0
LINE
  8
0
 10
-9.89073
 20
-6.03955
 11
-9.87184
 21
-6.12474
  0
LINE
  8
0
 10
-9.87184
 20
-6.12474
 11
-9.85147
 21
-6.20959
  0
LINE
  8
0
 10
-9.85147
 20
-6.20959
 11
-9.82962
 21
-6.29408
  0
LINE
  8
0
 10
-9.82962
 20
-6.29408
 11
-9.8063
 21
-6.37817
  0
LINE
  8
0
 10
-9.8063
 20
-6.37817
 11
-9.78151
 21
-6.46185
  0
LINE
  8
0
 10
-9.78151
 20
-6.46185
 11
-9.75528
 21
-6.54507
  0
LINE
  8
0
 10
-9.75528
 20
-6.54507
 11
-9.72758
 21
-6.62784
  0
LINE
  8
0
 10
-9.72758
 20
-6.62784
 11
-9.69846
 21
-6.7101
  0
LINE
  8
0
 10
-9.69846
 20
-6.7101
 11
-9.66789
 21
-6.79184
  0
LINE
  8
0
 10
-9.66789
 20
-6.79184
 11
-9.63591
 21
-6.87303
  0
LINE
  8
0
 10
-9.63591
 20
-6.87303
 11
-9.60252
 21
-6.95364
  0
LINE
  8
0
 10
-9.60252
 20
-6.95364
 11
-9.56772
 21
-7.03368
  0
LINE
  8
0
 10
-9.56772
 20
-7.03368
 11
-9.53152
 21
-7.11308
  0
LINE
  8
0
 10
-9.53152
 20
-7.11308
 11
-9.49396
 21
-7.19185
  0
LINE
  8
0
 10
-9.49396
 20
-7.19185
 11
-9.45503
 21
-7.26994
  0
LINE
  8
0
 10
-9.45503
 20
-7.26994
 11
-9.41473
 21
-7.34735
  0
LINE
  8
0
 10
-9.41473
 20
-7.34735
 11
-9.37309
 21
-7.42404
  0
LINE
  8
0
 10
-9.37309
 20
-7.42404
 11
-9.33012
 21
-7.5
  0
LINE
  8
0
 10
-9.33012
 20
-7.5
 11
-9.28583
 21
-7.57518
  0
LINE
  8
0
 10
-9.28583
 20
-7.57518
 11
-9.24023
 21
-7.64958
  0
LINE
  8
0
 10
-9.24023
 20
-7.64958
 11
-9.19334
 21
-7.72319
  0
LINE
  8
0
 10
-9.19334
 20
-7.72319
 11
-9.14519
 21
-7.79596
  0
LINE
  8
0
 10
-9.14519
 20
-7.79596
 11
-9.09575
 21
-7.86787
  0
LINE
  8
0
 10
-9.09575
 20
-7.86787
 11
-9.04507
 21
-7.93892
  0
LINE
  8
0
 10
-9.04507
 20
-7.93892
 11
-8.99316
 21
-8.00906
  0
LINE
  8
0
 10
-8.99316
 20
-8.00906
 11
-8.94005
 21
-8.07829
  0
LINE
  8
0
 10
-8.94005
 20
-8.07829
 11
-8.88573
 21
-8.14659
  0
LINE
  8
0
 10
-8.88573
 20
-8.14659
 11
-8.83022
 21
-8.21393
  0
LINE
  8
0
 10
-8.83022
 20
-8.21393
 11
-8.77354
 21
-8.28029
  0
LINE
  8
0
 10
-8.77354
 20
-8.28029
 11
-8.71571
 21
-8.34564
  0
LINE
  8
0
 10
-8.71571
 20
-8.34564
 11
-8.65675
 21
-8.40999
  0
LINE
  8
0
 10
-8.65675
 20
-8.40999
 11
-8.59669
 21
-8.47328
  0
LINE
  8
0
 10
-8.59669
 20
-8.47328
 11
-8.53552
 21
-8.53552
  0
LINE
  8
0
 10
-8.53552
 20
-8.53552
 11
-8.47328
 21
-8.59669
  0
LINE
  8
0
 10
-8.47328
 20
-8.59669
 11
-8.40999
 21
-8.65675
  0
LINE
  8
0
 10
-8.40999
 20
-8.65675
 11
-8.34564
 21
-8.71571
  0
LINE
  8
0
 10
-8.34564
 20
-8.71571
 11
-8.28029
 21
-8.77354
  0
LINE
  8
0
 10
-8.28029
 20
-8.77354
 11
-8.21393
 21
-8.83022
  0
LINE
  8
0
 10
-8.21393
 20
-8.83022
 11
-8.14659
 21
-8.88573
  0
LINE
  8
0
 10
-8.14659
 20
-8.88573
 11
-8.07829
 21
-8.94005
  0
LINE
  8
0
 10
-8.07829
 20
-8.94005
 11
-8.00906
 21
-8.99316
  0
LINE
  8
0
 10
-8.00906
 20
-8.99316
 11
-7.93892
 21
-9.04507
  0
LINE
  8
0
 10
-7.93892
 20
-9.04507
 11
-7.86787
 21
-9.09575
  0
LINE
  8
0
 10
-7.86787
 20
-9.09575
 11
-7.79596
 21
-9.14519
  0
LINE
  8
0
 10
-7.79596
 20
-9.14519
 11
-7.72319
 21
-9.19334
  0
LINE
  8
0
 10
-7.72319
 20
-9.19334
 11
-7.64958
 21
-9.24023
  0
LINE
  8
0
 10
-7.64958
 20
-9.24023
 11
-7.57518
 21
-9.28583
  0
LINE
  8
0
 10
-7.57518
 20
-9.28583
 11
-7.5
 21
-9.33012
  0
LINE
  8
0
 10
-7.5
 20
-9.33012
 11
-7.42404
 21
-9.37309
  0
LINE
  8
0
 10
-7.42404
 20
-9.37309
 11
-7.34735
 21
-9.41473
  0
LINE
  8
0
 10
-7.34735
 20
-9.41473
 11
-7.26994
 21
-9.45503
  0
LINE
  8
0
 10
-7.26994
 20
-9.45503
 11
-7.19185
 21
-9.49396
  0
LINE
  8
0
 10
-7.19185
 20
-9.49396
 11
-7.11308
 21
-9.53152
  0
LINE
  8
0
 10
-7.11308
 20
-9.53152
 11
-7.03368
 21
-9.56772
  0
LINE
  8
0
 10
-7.03368
 20
-9.56772
 11
-6.95364
 21
-9.60252
  0
LINE
  8
0
 10
-6.95364
 20
-9.60252
 11
-6.87303
 21
-9.63591
  0
LINE
  8
0
 10
-6.87303
 20
-9.63591
 11
-6.79184
 21
-9.66789
  0
LINE
  8
0
 10
-6.79184
 20
-9.66789
 11
-6.7101
 21
-9.69846
  0
LINE
  8
0
 10
-6.7101
 20
-9.69846
 11
-6.62784
 21
-9.72758
  0
LINE
  8
0
 10
-6.62784
 20
-9.72758
 11
-6.54507
 21
-9.75528
  0
LINE
  8
0
 10
-6.54507
 20
-9.75528
 11
-6.46185
 21
-9.78151
  0
LINE
  8
0
 10
-6.46185
 20
-9.78151
 11
-6.37817
 21
-9.8063
  0
LINE
  8
0
 10
-6.37817
 20
-9.8063
 11
-6.29408
 21
-9.82962
  0
LINE
  8
0
 10
-6.29408
 20
-9.82962
 11
-6.20959
 21
-9.85147
  0
LINE
  8
0
 10
-6.20959
 20
-9.85147
 11
-6.12474
 21
-9.87184
  0
LINE
  8
0
 10
-6.12474
 20
-9.87184
 11
-6.03955
 21
-9.89073
  0
LINE
  8
0
 10
-6.03955
 20
-9.89073
 11
-5.95404
 21
-9.90813
  0
LINE
  8
0
 10
-5.95404
 20
-9.90813
 11
-5.86824
 21
-9.92403
  0
LINE
  8
0
 10
-5.86824
 20
-9.92403
 11
-5.78217
 21
-9.93843
  0
LINE
  8
0
 10
-5.78217
 20
-9.93843
 11
-5.69586
 21
-9.95134
  0
LINE
  8
0
 10
-5.69586
 20
-9.95134
 11
-5.60934
 21
-9.96272
  0
LINE
  8
0
 10
-5.60934
 20
-9.96272
 11
-5.52263
 21
-9.9726
  0
LINE
  8
0
 10
-5.52263
 20
-9.9726
 11
-5.43578
 21
-9.98097
  0
LINE
  8
0
 10
-5.43578
 20
-9.98097
 11
-5.34877
 21
-9.98781
  0
LINE
  8
0
 10
-5.34877
 20
-9.98781
 11
-5.26167
 21
-9.99313
  0
LINE
  8
0
 10
-5.26167
 20
-9.99313
 11
-5.17448
 21
-9.99695
  0
LINE
  8
0
 10
-5.17448
 20
-9.99695
 11
-5.08725
 21
-9.99924
  0
LINE
  8
0
 10
-5.08725
 20
-9.99924
 11
-5
 21
-10
  0
LINE
  8
0
 10
-5
 20
-10
 11
105
 21
-10
  0
LINE
  8
0
 10
105
 20
-10
 11
105.087
 21
-9.99924
  0
LINE
  8
0
 10
25.5818
 20
85.4
 11
25.5818
 21
88.6
  0
LINE
  8
0
 10
25.5818
 20
88.6
 11
37.6707
 21
88.6
  0
LINE
  8
0
 10
37.6707
 20
88.6
 11
37.6707
 21
85.4
  0
LINE
  8
0
 10
37.6707
 20
85.4
 11
25.5818
 21
85.4
  0
LINE
  8
0
 10
6.12726
 20
85.4
 11
6.12726
 21
88.6
  0
LINE
  8
0
 10
6.12726
 20
88.6
 11
18.2162
 21
88.6
  0
LINE
  8
0
 10
18.2162
 20
88.6
 11
18.2162
 21
85.4
  0
LINE
  8
0
 10
18.2162
 20
85.4
 11
6.12726
 21
85.4
  0
LINE
  8
0
 10
64.4909
 20
85.4
 11
64.4909
 21
88.6
  0
LINE
  8
0
 10
64.4909
 20
88.6
 11
76.5798
 21
88.6
  0
LINE
  8
0
 10
76.5798
 20
88.6
 11
76.5798
 21
85.4
  0
LINE
  8
0
 10
76.5798
 20
85.4
 11
64.4909
 21
85.4
  0
LINE
  8
0
 10
45.0364
 20
85.4
 11
45.0364
 21
88.6
  0
LINE
  8
0
 10
45.0364
 20
88.6
 11
57.1252
 21
88.6
  0
LINE
  8
0
 10
57.1252
 20
88.6
 11
57.1252
 21
85.4
  0
LINE
  8
0
 10
57.1252
 20
85.4
 11
45.0364
 21
85.4
  0
LINE
  8
0
 10
83.9454
 20
85.4
 11
83.9454
 21
88.6
  0
LINE
  8
0
 10
83.9454
 20
88.6
 11
96.0343
 21
88.6
  0
LINE
  8
0
 10
96.0343
 20
88.6
 11
96.0343
 21
85.4
  0
LINE
  8
0
 10
96.0343
 20
85.4
 11
83.9454
 21
85.4
  0
LINE
  8
0
 10
100.4
 20
71.6727
 11
100.4
 21
79.6909
  0
LINE
  8
0
 10
100.4
 20
79.6909
 11
103.6
 21
79.6909
  0
LINE
  8
0
 10
103.6
 20
79.6909
 11
103.6
 21
71.6727
  0
LINE
  8
0
 10
103.6
 20
71.6727
 11
100.4
 21
71.6727
  0
LINE
  8
0
 10
-3.59999
 20
71.6727
 11
-3.59999
 21
79.6909
  0
LINE
  8
0
 10
-3.59999
 20
79.6909
 11
-0.399994
 21
79.6909
  0
LINE
  8
0
 10
-0.399994
 20
79.6909
 11
-0.399994
 21
71.6727
  0
LINE
  8
0
 10
-0.399994
 20
71.6727
 11
-3.59999
 21
71.6727
  0
LINE
  8
0
 10
4.97206
 20
73.4002
 11
4.94415
 21
73.401
  0
LINE
  8
0
 10
4.94415
 20
73.401
 11
4.91626
 21
73.4022
  0
LINE
  8
0
 10
4.91626
 20
73.4022
 11
4.88838
 21
73.4039
  0
LINE
  8
0
 10
4.88838
 20
73.4039
 11
4.86055
 21
73.4061
  0
LINE
  8
0
 10
4.86055
 20
73.4061
 11
4.83275
 21
73.4088
  0
LINE
  8
0
 10
4.83275
 20
73.4088
 11
4.80501
 21
73.4119
  0
LINE
  8
0
 10
4.80501
 20
73.4119
 11
4.77731
 21
73.4156
  0
LINE
  8
0
 10
4.77731
 20
73.4156
 11
4.74969
 21
73.4197
  0
LINE
  8
0
 10
4.74969
 20
73.4197
 11
4.72215
 21
73.4243
  0
LINE
  8
0
 10
4.72215
 20
73.4243
 11
4.6947
 21
73.4294
  0
LINE
  8
0
 10
4.6947
 20
73.4294
 11
4.66733
 21
73.435
  0
LINE
  8
0
 10
4.66733
 20
73.435
 11
4.64008
 21
73.441
  0
LINE
  8
0
 10
4.64008
 20
73.441
 11
4.61292
 21
73.4475
  0
LINE
  8
0
 10
4.61292
 20
73.4475
 11
4.58588
 21
73.4545
  0
LINE
  8
0
 10
4.58588
 20
73.4545
 11
4.55898
 21
73.462
  0
LINE
  8
0
 10
4.55898
 20
73.462
 11
4.5322
 21
73.4699
  0
LINE
  8
0
 10
4.5322
 20
73.4699
 11
4.50557
 21
73.4783
  0
LINE
  8
0
 10
4.50557
 20
73.4783
 11
4.47908
 21
73.4872
  0
LINE
  8
0
 10
4.47908
 20
73.4872
 11
4.45276
 21
73.4965
  0
LINE
  8
0
 10
4.45276
 20
73.4965
 11
4.42661
 21
73.5063
  0
LINE
  8
0
 10
4.42661
 20
73.5063
 11
4.40062
 21
73.5165
  0
LINE
  8
0
 10
4.40062
 20
73.5165
 11
4.37482
 21
73.5272
  0
LINE
  8
0
 10
4.37482
 20
73.5272
 11
4.34921
 21
73.5383
  0
LINE
  8
0
 10
4.34921
 20
73.5383
 11
4.32381
 21
73.5499
  0
LINE
  8
0
 10
4.32381
 20
73.5499
 11
4.2986
 21
73.5619
  0
LINE
  8
0
 10
4.2986
 20
73.5619
 11
4.27361
 21
73.5744
  0
LINE
  8
0
 10
4.27361
 20
73.5744
 11
4.24884
 21
73.5873
  0
LINE
  8
0
 10
4.24884
 20
73.5873
 11
4.2243
 21
73.6006
  0
LINE
  8
0
 10
4.2243
 20
73.6006
 11
4.2
 21
73.6143
  0
LINE
  8
0
 10
4.2
 20
73.6143
 11
4.17593
 21
73.6285
  0
LINE
  8
0
 10
4.17593
 20
73.6285
 11
4.15211
 21
73.6431
  0
LINE
  8
0
 10
4.15211
 20
73.6431
 11
4.12857
 21
73.6581
  0
LINE
  8
0
 10
4.12857
 20
73.6581
 11
4.10529
 21
73.6735
  0
LINE
  8
0
 10
4.10529
 20
73.6735
 11
4.08228
 21
73.6893
  0
LINE
  8
0
 10
4.08228
 20
73.6893
 11
4.05954
 21
73.7056
  0
LINE
  8
0
 10
4.05954
 20
73.7056
 11
4.03709
 21
73.7222
  0
LINE
  8
0
 10
4.03709
 20
73.7222
 11
4.01494
 21
73.7392
  0
LINE
  8
0
 10
4.01494
 20
73.7392
 11
3.99307
 21
73.7566
  0
LINE
  8
0
 10
3.99307
 20
73.7566
 11
3.97153
 21
73.7743
  0
LINE
  8
0
 10
3.97153
 20
73.7743
 11
3.9503
 21
73.7925
  0
LINE
  8
0
 10
3.9503
 20
73.7925
 11
3.92938
 21
73.811
  0
LINE
  8
0
 10
3.92938
 20
73.811
 11
3.9088
 21
73.8298
  0
LINE
  8
0
 10
3.9088
 20
73.8298
 11
3.88853
 21
73.8491
  0
LINE
  8
0
 10
3.88853
 20
73.8491
 11
3.86862
 21
73.8686
  0
LINE
  8
0
 10
3.86862
 20
73.8686
 11
3.84904
 21
73.8885
  0
LINE
  8
0
 10
3.84904
 20
73.8885
 11
3.82983
 21
73.9088
  0
LINE
  8
0
 10
3.82983
 20
73.9088
 11
3.81096
 21
73.9294
  0
LINE
  8
0
 10
3.81096
 20
73.9294
 11
3.79245
 21
73.9503
  0
LINE
  8
0
 10
3.79245
 20
73.9503
 11
3.77432
 21
73.9715
  0
LINE
  8
0
 10
3.77432
 20
73.9715
 11
3.75656
 21
73.9931
  0
LINE
  8
0
 10
3.75656
 20
73.9931
 11
3.73918
 21
74.0149
  0
LINE
  8
0
 10
3.73918
 20
74.0149
 11
3.72217
 21
74.0371
  0
LINE
  8
0
 10
3.72217
 20
74.0371
 11
3.70557
 21
74.0595
  0
LINE
  8
0
 10
3.70557
 20
74.0595
 11
3.68935
 21
74.0823
  0
LINE
  8
0
 10
3.68935
 20
74.0823
 11
3.67354
 21
74.1053
  0
LINE
  8
0
 10
3.67354
 20
74.1053
 11
3.65813
 21
74.1286
  0
LINE
  8
0
 10
3.65813
 20
74.1286
 11
3.64311
 21
74.1521
  0
LINE
  8
0
 10
3.64311
 20
74.1521
 11
3.62852
 21
74.1759
  0
LINE
  8
0
 10
3.62852
 20
74.1759
 11
3.61435
 21
74.2
  0
LINE
  8
0
 10
3.61435
 20
74.2
 11
3.6006
 21
74.2243
  0
LINE
  8
0
 10
3.6006
 20
74.2243
 11
3.58728
 21
74.2488
  0
LINE
  8
0
 10
3.58728
 20
74.2488
 11
3.57439
 21
74.2736
  0
LINE
  8
0
 10
3.57439
 20
74.2736
 11
3.56192
 21
74.2986
  0
LINE
  8
0
 10
3.56192
 20
74.2986
 11
3.5499
 21
74.3238
  0
LINE
  8
0
 10
3.5499
 20
74.3238
 11
3.53831
 21
74.3492
  0
LINE
  8
0
 10
3.53831
 20
74.3492
 11
3.52719
 21
74.3748
  0
LINE
  8
0
 10
3.52719
 20
74.3748
 11
3.51649
 21
74.4006
  0
LINE
  8
0
 10
3.51649
 20
74.4006
 11
3.50626
 21
74.4266
  0
LINE
  8
0
 10
3.50626
 20
74.4266
 11
3.49649
 21
74.4528
  0
LINE
  8
0
 10
3.49649
 20
74.4528
 11
3.48717
 21
74.4791
  0
LINE
  8
0
 10
3.48717
 20
74.4791
 11
3.4783
 21
74.5056
  0
LINE
  8
0
 10
3.4783
 20
74.5056
 11
3.46991
 21
74.5322
  0
LINE
  8
0
 10
3.46991
 20
74.5322
 11
3.46198
 21
74.559
  0
LINE
  8
0
 10
3.46198
 20
74.559
 11
3.45451
 21
74.5859
  0
LINE
  8
0
 10
3.45451
 20
74.5859
 11
3.44753
 21
74.6129
  0
LINE
  8
0
 10
3.44753
 20
74.6129
 11
3.44099
 21
74.6401
  0
LINE
  8
0
 10
3.44099
 20
74.6401
 11
3.43495
 21
74.6673
  0
LINE
  8
0
 10
3.43495
 20
74.6673
 11
3.42938
 21
74.6947
  0
LINE
  8
0
 10
3.42938
 20
74.6947
 11
3.4243
 21
74.7222
  0
LINE
  8
0
 10
3.4243
 20
74.7222
 11
3.41969
 21
74.7497
  0
LINE
  8
0
 10
3.41969
 20
74.7497
 11
3.41556
 21
74.7773
  0
LINE
  8
0
 10
3.41556
 20
74.7773
 11
3.41191
 21
74.805
  0
LINE
  8
0
 10
3.41191
 20
74.805
 11
3.40875
 21
74.8327
  0
LINE
  8
0
 10
3.40875
 20
74.8327
 11
3.40608
 21
74.8605
  0
LINE
  8
0
 10
3.40608
 20
74.8605
 11
3.40388
 21
74.8884
  0
LINE
  8
0
 10
3.40388
 20
74.8884
 11
3.40219
 21
74.9163
  0
LINE
  8
0
 10
3.40219
 20
74.9163
 11
3.40097
 21
74.9442
  0
LINE
  8
0
 10
3.40097
 20
74.9442
 11
3.40024
 21
74.9721
  0
LINE
  8
0
 10
3.40024
 20
74.9721
 11
3.39999
 21
75
  0
LINE
  8
0
 10
3.39999
 20
75
 11
3.40024
 21
75.0279
  0
LINE
  8
0
 10
3.40024
 20
75.0279
 11
3.40097
 21
75.0558
  0
LINE
  8
0
 10
3.40097
 20
75.0558
 11
3.40219
 21
75.0837
  0
LINE
  8
0
 10
3.40219
 20
75.0837
 11
3.40388
 21
75.1116
  0
LINE
  8
0
 10
3.40388
 20
75.1116
 11
3.40608
 21
75.1395
  0
LINE
  8
0
 10
3.40608
 20
75.1395
 11
3.40875
 21
75.1672
  0
LINE
  8
0
 10
3.40875
 20
75.1672
 11
3.41191
 21
75.195
  0
LINE
  8
0
 10
3.41191
 20
75.195
 11
3.41556
 21
75.2227
  0
LINE
  8
0
 10
3.41556
 20
75.2227
 11
3.41969
 21
75.2503
  0
LINE
  8
0
 10
3.41969
 20
75.2503
 11
3.4243
 21
75.2778
  0
LINE
  8
0
 10
3.4243
 20
75.2778
 11
3.42938
 21
75.3053
  0
LINE
  8
0
 10
3.42938
 20
75.3053
 11
3.43495
 21
75.3327
  0
LINE
  8
0
 10
3.43495
 20
75.3327
 11
3.44099
 21
75.3599
  0
LINE
  8
0
 10
3.44099
 20
75.3599
 11
3.44753
 21
75.3871
  0
LINE
  8
0
 10
3.44753
 20
75.3871
 11
3.45451
 21
75.4141
  0
LINE
  8
0
 10
3.45451
 20
75.4141
 11
3.46198
 21
75.441
  0
LINE
  8
0
 10
3.46198
 20
75.441
 11
3.46991
 21
75.4678
  0
LINE
  8
0
 10
3.46991
 20
75.4678
 11
3.4783
 21
75.4944
  0
LINE
  8
0
 10
3.4783
 20
75.4944
 11
3.48717
 21
75.5209
  0
LINE
  8
0
 10
3.48717
 20
75.5209
 11
3.49649
 21
75.5472
  0
LINE
  8
0
 10
3.49649
 20
75.5472
 11
3.50626
 21
75.5734
  0
LINE
  8
0
 10
3.50626
 20
75.5734
 11
3.51649
 21
75.5994
  0
LINE
  8
0
 10
3.51649
 20
75.5994
 11
3.52719
 21
75.6252
  0
LINE
  8
0
 10
3.52719
 20
75.6252
 11
3.53831
 21
75.6508
  0
LINE
  8
0
 10
3.53831
 20
75.6508
 11
3.5499
 21
75.6762
  0
LINE
  8
0
 10
3.5499
 20
75.6762
 11
3.56192
 21
75.7014
  0
LINE
  8
0
 10
3.56192
 20
75.7014
 11
3.57439
 21
75.7264
  0
LINE
  8
0
 10
3.57439
 20
75.7264
 11
3.58728
 21
75.7511
  0
LINE
  8
0
 10
3.58728
 20
75.7511
 11
3.6006
 21
75.7757
  0
LINE
  8
0
 10
3.6006
 20
75.7757
 11
3.61435
 21
75.8
  0
LINE
  8
0
 10
3.61435
 20
75.8
 11
3.62852
 21
75.8241
  0
LINE
  8
0
 10
3.62852
 20
75.8241
 11
3.64311
 21
75.8479
  0
LINE
  8
0
 10
3.64311
 20
75.8479
 11
3.65813
 21
75.8714
  0
LINE
  8
0
 10
3.65813
 20
75.8714
 11
3.67354
 21
75.8947
  0
LINE
  8
0
 10
3.67354
 20
75.8947
 11
3.68935
 21
75.9177
  0
LINE
  8
0
 10
3.68935
 20
75.9177
 11
3.70557
 21
75.9405
  0
LINE
  8
0
 10
3.70557
 20
75.9405
 11
3.72217
 21
75.9629
  0
LINE
  8
0
 10
3.72217
 20
75.9629
 11
3.73918
 21
75.9851
  0
LINE
  8
0
 10
3.73918
 20
75.9851
 11
3.75656
 21
76.0069
  0
LINE
  8
0
 10
3.75656
 20
76.0069
 11
3.77432
 21
76.0285
  0
LINE
  8
0
 10
3.77432
 20
76.0285
 11
3.79245
 21
76.0497
  0
LINE
  8
0
 10
3.79245
 20
76.0497
 11
3.81096
 21
76.0706
  0
LINE
  8
0
 10
3.81096
 20
76.0706
 11
3.82983
 21
76.0912
  0
LINE
  8
0
 10
3.82983
 20
76.0912
 11
3.84904
 21
76.1115
  0
LINE
  8
0
 10
3.84904
 20
76.1115
 11
3.86862
 21
76.1314
  0
LINE
  8
0
 10
3.86862
 20
76.1314
 11
3.88853
 21
76.1509
  0
LINE
  8
0
 10
3.88853
 20
76.1509
 11
3.9088
 21
76.1702
  0
LINE
  8
0
 10
3.9088
 20
76.1702
 11
3.92938
 21
76.189
  0
LINE
  8
0
 10
3.92938
 20
76.189
 11
3.9503
 21
76.2075
  0
LINE
  8
0
 10
3.9503
 20
76.2075
 11
3.97153
 21
76.2257
  0
LINE
  8
0
 10
3.97153
 20
76.2257
 11
3.99307
 21
76.2434
  0
LINE
  8
0
 10
3.99307
 20
76.2434
 11
4.01494
 21
76.2608
  0
LINE
  8
0
 10
4.01494
 20
76.2608
 11
4.03709
 21
76.2778
  0
LINE
  8
0
 10
4.03709
 20
76.2778
 11
4.05954
 21
76.2944
  0
LINE
  8
0
 10
4.05954
 20
76.2944
 11
4.08228
 21
76.3106
  0
LINE
  8
0
 10
4.08228
 20
76.3106
 11
4.10529
 21
76.3265
  0
LINE
  8
0
 10
4.10529
 20
76.3265
 11
4.12857
 21
76.3419
  0
LINE
  8
0
 10
4.12857
 20
76.3419
 11
4.15211
 21
76.3569
  0
LINE
  8
0
 10
4.15211
 20
76.3569
 11
4.17593
 21
76.3715
  0
LINE
  8
0
 10
4.17593
 20
76.3715
 11
4.2
 21
76.3856
  0
LINE
  8
0
 10
4.2
 20
76.3856
 11
4.2243
 21
76.3994
  0
LINE
  8
0
 10
4.2243
 20
76.3994
 11
4.24884
 21
76.4127
  0
LINE
  8
0
 10
4.24884
 20
76.4127
 11
4.27361
 21
76.4256
  0
LINE
  8
0
 10
4.27361
 20
76.4256
 11
4.2986
 21
76.4381
  0
LINE
  8
0
 10
4.2986
 20
76.4381
 11
4.32381
 21
76.4501
  0
LINE
  8
0
 10
4.32381
 20
76.4501
 11
4.34921
 21
76.4617
  0
LINE
  8
0
 10
4.34921
 20
76.4617
 11
4.37482
 21
76.4728
  0
LINE
  8
0
 10
4.37482
 20
76.4728
 11
4.40062
 21
76.4835
  0
LINE
  8
0
 10
4.40062
 20
76.4835
 11
4.42661
 21
76.4937
  0
LINE
  8
0
 10
4.42661
 20
76.4937
 11
4.45276
 21
76.5035
  0
LINE
  8
0
 10
4.45276
 20
76.5035
 11
4.47908
 21
76.5128
  0
LINE
  8
0
 10
4.47908
 20
76.5128
 11
4.50557
 21
76.5217
  0
LINE
  8
0
 10
4.50557
 20
76.5217
 11
4.5322
 21
76.5301
  0
LINE
  8
0
 10
4.5322
 20
76.5301
 11
4.55898
 21
76.538
  0
LINE
  8
0
 10
4.55898
 20
76.538
 11
4.58588
 21
76.5455
  0
LINE
  8
0
 10
4.58588
 20
76.5455
 11
4.61292
 21
76.5525
  0
LINE
  8
0
 10
4.61292
 20
76.5525
 11
4.64008
 21
76.559
  0
LINE
  8
0
 10
4.64008
 20
76.559
 11
4.66733
 21
76.565
  0
LINE
  8
0
 10
4.66733
 20
76.565
 11
4.6947
 21
76.5706
  0
LINE
  8
0
 10
4.6947
 20
76.5706
 11
4.72215
 21
76.5757
  0
LINE
  8
0
 10
4.72215
 20
76.5757
 11
4.74969
 21
76.5803
  0
LINE
  8
0
 10
4.74969
 20
76.5803
 11
4.77731
 21
76.5844
  0
LINE
  8
0
 10
4.77731
 20
76.5844
 11
4.80501
 21
76.5881
  0
LINE
  8
0
 10
4.80501
 20
76.5881
 11
4.83275
 21
76.5912
  0
LINE
  8
0
 10
4.83275
 20
76.5912
 11
4.86055
 21
76.5939
  0
LINE
  8
0
 10
4.86055
 20
76.5939
 11
4.88838
 21
76.5961
  0
LINE
  8
0
 10
4.88838
 20
76.5961
 11
4.91626
 21
76.5978
  0
LINE
  8
0
 10
4.91626
 20
76.5978
 11
4.94415
 21
76.599
  0
LINE
  8
0
 10
4.94415
 20
76.599
 11
4.97206
 21
76.5997
  0
LINE
  8
0
 10
4.97206
 20
76.5997
 11
5
 21
76.6
  0
LINE
  8
0
 10
5
 20
76.6
 11
5.02792
 21
76.5997
  0
LINE
  8
0
 10
5.02792
 20
76.5997
 11
5.05583
 21
76.599
  0
LINE
  8
0
 10
5.05583
 20
76.599
 11
5.08372
 21
76.5978
  0
LINE
  8
0
 10
5.08372
 20
76.5978
 11
5.1116
 21
76.5961
  0
LINE
  8
0
 10
5.1116
 20
76.5961
 11
5.13943
 21
76.5939
  0
LINE
  8
0
 10
5.13943
 20
76.5939
 11
5.16724
 21
76.5912
  0
LINE
  8
0
 10
5.16724
 20
76.5912
 11
5.19498
 21
76.5881
  0
LINE
  8
0
 10
5.19498
 20
76.5881
 11
5.22267
 21
76.5844
  0
LINE
  8
0
 10
5.22267
 20
76.5844
 11
5.25029
 21
76.5803
  0
LINE
  8
0
 10
5.25029
 20
76.5803
 11
5.27783
 21
76.5757
  0
LINE
  8
0
 10
5.27783
 20
76.5757
 11
5.30528
 21
76.5706
  0
LINE
  8
0
 10
5.30528
 20
76.5706
 11
5.33266
 21
76.565
  0
LINE
  8
0
 10
5.33266
 20
76.565
 11
5.35991
 21
76.559
  0
LINE
  8
0
 10
5.35991
 20
76.559
 11
5.38707
 21
76.5525
  0
LINE
  8
0
 10
5.38707
 20
76.5525
 11
5.41411
 21
76.5455
  0
LINE
  8
0
 10
5.41411
 20
76.5455
 11
5.44101
 21
76.538
  0
LINE
  8
0
 10
5.44101
 20
76.538
 11
5.46779
 21
76.5301
  0
LINE
  8
0
 10
5.46779
 20
76.5301
 11
5.49442
 21
76.5217
  0
LINE
  8
0
 10
5.49442
 20
76.5217
 11
5.5209
 21
76.5128
  0
LINE
  8
0
 10
5.5209
 20
76.5128
 11
5.54723
 21
76.5035
  0
LINE
  8
0
 10
5.54723
 20
76.5035
 11
5.57338
 21
76.4937
  0
LINE
  8
0
 10
5.57338
 20
76.4937
 11
5.59937
 21
76.4835
  0
LINE
  8
0
 10
5.59937
 20
76.4835
 11
5.62517
 21
76.4728
  0
LINE
  8
0
 10
5.62517
 20
76.4728
 11
5.65077
 21
76.4617
  0
LINE
  8
0
 10
5.65077
 20
76.4617
 11
5.67618
 21
76.4501
  0
LINE
  8
0
 10
5.67618
 20
76.4501
 11
5.70139
 21
76.4381
  0
LINE
  8
0
 10
5.70139
 20
76.4381
 11
5.72638
 21
76.4256
  0
LINE
  8
0
 10
5.72638
 20
76.4256
 11
5.75114
 21
76.4127
  0
LINE
  8
0
 10
5.75114
 20
76.4127
 11
5.77568
 21
76.3994
  0
LINE
  8
0
 10
5.77568
 20
76.3994
 11
5.79999
 21
76.3856
  0
LINE
  8
0
 10
5.79999
 20
76.3856
 11
5.82405
 21
76.3715
  0
LINE
  8
0
 10
5.82405
 20
76.3715
 11
5.84787
 21
76.3569
  0
LINE
  8
0
 10
5.84787
 20
76.3569
 11
5.87141
 21
76.3419
  0
LINE
  8
0
 10
5.87141
 20
76.3419
 11
5.8947
 21
76.3265
  0
LINE
  8
0
 10
5.8947
 20
76.3265
 11
5.91771
 21
76.3106
  0
LINE
  8
0
 10
5.91771
 20
76.3106
 11
5.94044
 21
76.2944
  0
LINE
  8
0
 10
5.94044
 20
76.2944
 11
5.96289
 21
76.2778
  0
LINE
  8
0
 10
5.96289
 20
76.2778
 11
5.98505
 21
76.2608
  0
LINE
  8
0
 10
5.98505
 20
76.2608
 11
6.00691
 21
76.2434
  0
LINE
  8
0
 10
6.00691
 20
76.2434
 11
6.02846
 21
76.2257
  0
LINE
  8
0
 10
6.02846
 20
76.2257
 11
6.04968
 21
76.2075
  0
LINE
  8
0
 10
6.04968
 20
76.2075
 11
6.0706
 21
76.189
  0
LINE
  8
0
 10
6.0706
 20
76.189
 11
6.09119
 21
76.1702
  0
LINE
  8
0
 10
6.09119
 20
76.1702
 11
6.11145
 21
76.1509
  0
LINE
  8
0
 10
6.11145
 20
76.1509
 11
6.13136
 21
76.1314
  0
LINE
  8
0
 10
6.13136
 20
76.1314
 11
6.15094
 21
76.1115
  0
LINE
  8
0
 10
6.15094
 20
76.1115
 11
6.17015
 21
76.0912
  0
LINE
  8
0
 10
6.17015
 20
76.0912
 11
6.18903
 21
76.0706
  0
LINE
  8
0
 10
6.18903
 20
76.0706
 11
6.20753
 21
76.0497
  0
LINE
  8
0
 10
6.20753
 20
76.0497
 11
6.22566
 21
76.0285
  0
LINE
  8
0
 10
6.22566
 20
76.0285
 11
6.24342
 21
76.0069
  0
LINE
  8
0
 10
6.24342
 20
76.0069
 11
6.2608
 21
75.9851
  0
LINE
  8
0
 10
6.2608
 20
75.9851
 11
6.27782
 21
75.9629
  0
LINE
  8
0
 10
6.27782
 20
75.9629
 11
6.29442
 21
75.9405
  0
LINE
  8
0
 10
6.29442
 20
75.9405
 11
6.31064
 21
75.9177
  0
LINE
  8
0
 10
6.31064
 20
75.9177
 11
6.32645
 21
75.8947
  0
LINE
  8
0
 10
6.32645
 20
75.8947
 11
6.34186
 21
75.8714
  0
LINE
  8
0
 10
6.34186
 20
75.8714
 11
6.35687
 21
75.8479
  0
LINE
  8
0
 10
6.35687
 20
75.8479
 11
6.37146
 21
75.8241
  0
LINE
  8
0
 10
6.37146
 20
75.8241
 11
6.38564
 21
75.8
  0
LINE
  8
0
 10
6.38564
 20
75.8
 11
6.39938
 21
75.7757
  0
LINE
  8
0
 10
6.39938
 20
75.7757
 11
6.4127
 21
75.7511
  0
LINE
  8
0
 10
6.4127
 20
75.7511
 11
6.4256
 21
75.7264
  0
LINE
  8
0
 10
6.4256
 20
75.7264
 11
6.43806
 21
75.7014
  0
LINE
  8
0
 10
6.43806
 20
75.7014
 11
6.45009
 21
75.6762
  0
LINE
  8
0
 10
6.45009
 20
75.6762
 11
6.46167
 21
75.6508
  0
LINE
  8
0
 10
6.46167
 20
75.6508
 11
6.47279
 21
75.6252
  0
LINE
  8
0
 10
6.47279
 20
75.6252
 11
6.48349
 21
75.5994
  0
LINE
  8
0
 10
6.48349
 20
75.5994
 11
6.49373
 21
75.5734
  0
LINE
  8
0
 10
6.49373
 20
75.5734
 11
6.50349
 21
75.5472
  0
LINE
  8
0
 10
6.50349
 20
75.5472
 11
6.51282
 21
75.5209
  0
LINE
  8
0
 10
6.51282
 20
75.5209
 11
6.52168
 21
75.4944
  0
LINE
  8
0
 10
6.52168
 20
75.4944
 11
6.53008
 21
75.4678
  0
LINE
  8
0
 10
6.53008
 20
75.4678
 11
6.53801
 21
75.441
  0
LINE
  8
0
 10
6.53801
 20
75.441
 11
6.54547
 21
75.4141
  0
LINE
  8
0
 10
6.54547
 20
75.4141
 11
6.55246
 21
75.3871
  0
LINE
  8
0
 10
6.55246
 20
75.3871
 11
6.55899
 21
75.3599
  0
LINE
  8
0
 10
6.55899
 20
75.3599
 11
6.56503
 21
75.3327
  0
LINE
  8
0
 10
6.56503
 20
75.3327
 11
6.5706
 21
75.3053
  0
LINE
  8
0
 10
6.5706
 20
75.3053
 11
6.57568
 21
75.2778
  0
LINE
  8
0
 10
6.57568
 20
75.2778
 11
6.58029
 21
75.2503
  0
LINE
  8
0
 10
6.58029
 20
75.2503
 11
6.58443
 21
75.2227
  0
LINE
  8
0
 10
6.58443
 20
75.2227
 11
6.58807
 21
75.195
  0
LINE
  8
0
 10
6.58807
 20
75.195
 11
6.59123
 21
75.1672
  0
LINE
  8
0
 10
6.59123
 20
75.1672
 11
6.5939
 21
75.1395
  0
LINE
  8
0
 10
6.5939
 20
75.1395
 11
6.5961
 21
75.1116
  0
LINE
  8
0
 10
6.5961
 20
75.1116
 11
6.59779
 21
75.0837
  0
LINE
  8
0
 10
6.59779
 20
75.0837
 11
6.59901
 21
75.0558
  0
LINE
  8
0
 10
6.59901
 20
75.0558
 11
6.59975
 21
75.0279
  0
LINE
  8
0
 10
6.59975
 20
75.0279
 11
6.59999
 21
75
  0
LINE
  8
0
 10
6.59999
 20
75
 11
6.59975
 21
74.9721
  0
LINE
  8
0
 10
6.59975
 20
74.9721
 11
6.59901
 21
74.9442
  0
LINE
  8
0
 10
6.59901
 20
74.9442
 11
6.59779
 21
74.9163
  0
LINE
  8
0
 10
6.59779
 20
74.9163
 11
6.5961
 21
74.8884
  0
LINE
  8
0
 10
6.5961
 20
74.8884
 11
6.5939
 21
74.8605
  0
LINE
  8
0
 10
6.5939
 20
74.8605
 11
6.59123
 21
74.8327
  0
LINE
  8
0
 10
6.59123
 20
74.8327
 11
6.58807
 21
74.805
  0
LINE
  8
0
 10
6.58807
 20
74.805
 11
6.58443
 21
74.7773
  0
LINE
  8
0
 10
6.58443
 20
74.7773
 11
6.58029
 21
74.7497
  0
LINE
  8
0
 10
6.58029
 20
74.7497
 11
6.57568
 21
74.7222
  0
LINE
  8
0
 10
6.57568
 20
74.7222
 11
6.5706
 21
74.6947
  0
LINE
  8
0
 10
6.5706
 20
74.6947
 11
6.56503
 21
74.6673
  0
LINE
  8
0
 10
6.56503
 20
74.6673
 11
6.55899
 21
74.6401
  0
LINE
  8
0
 10
6.55899
 20
74.6401
 11
6.55246
 21
74.6129
  0
LINE
  8
0
 10
6.55246
 20
74.6129
 11
6.54547
 21
74.5859
  0
LINE
  8
0
 10
6.54547
 20
74.5859
 11
6.53801
 21
74.559
  0
LINE
  8
0
 10
6.53801
 20
74.559
 11
6.53008
 21
74.5322
  0
LINE
  8
0
 10
6.53008
 20
74.5322
 11
6.52168
 21
74.5056
  0
LINE
  8
0
 10
6.52168
 20
74.5056
 11
6.51282
 21
74.4791
  0
LINE
  8
0
 10
6.51282
 20
74.4791
 11
6.50349
 21
74.4528
  0
LINE
  8
0
 10
6.50349
 20
74.4528
 11
6.49373
 21
74.4266
  0
LINE
  8
0
 10
6.49373
 20
74.4266
 11
6.48349
 21
74.4006
  0
LINE
  8
0
 10
6.48349
 20
74.4006
 11
6.47279
 21
74.3748
  0
LINE
  8
0
 10
6.47279
 20
74.3748
 11
6.46167
 21
74.3492
  0
LINE
  8
0
 10
6.46167
 20
74.3492
 11
6.45009
 21
74.3238
  0
LINE
  8
0
 10
6.45009
 20
74.3238
 11
6.43806
 21
74.2986
  0
LINE
  8
0
 10
6.43806
 20
74.2986
 11
6.4256
 21
74.2736
  0
LINE
  8
0
 10
6.4256
 20
74.2736
 11
6.4127
 21
74.2488
  0
LINE
  8
0
 10
6.4127
 20
74.2488
 11
6.39938
 21
74.2243
  0
LINE
  8
0
 10
6.39938
 20
74.2243
 11
6.38564
 21
74.2
  0
LINE
  8
0
 10
6.38564
 20
74.2
 11
6.37146
 21
74.1759
  0
LINE
  8
0
 10
6.37146
 20
74.1759
 11
6.35687
 21
74.1521
  0
LINE
  8
0
 10
6.35687
 20
74.1521
 11
6.34186
 21
74.1286
  0
LINE
  8
0
 10
6.34186
 20
74.1286
 11
6.32645
 21
74.1053
  0
LINE
  8
0
 10
6.32645
 20
74.1053
 11
6.31064
 21
74.0823
  0
LINE
  8
0
 10
6.31064
 20
74.0823
 11
6.29442
 21
74.0595
  0
LINE
  8
0
 10
6.29442
 20
74.0595
 11
6.27782
 21
74.0371
  0
LINE
  8
0
 10
6.27782
 20
74.0371
 11
6.2608
 21
74.0149
  0
LINE
  8
0
 10
6.2608
 20
74.0149
 11
6.24342
 21
73.9931
  0
LINE
  8
0
 10
6.24342
 20
73.9931
 11
6.22566
 21
73.9715
  0
LINE
  8
0
 10
6.22566
 20
73.9715
 11
6.20753
 21
73.9503
  0
LINE
  8
0
 10
6.20753
 20
73.9503
 11
6.18903
 21
73.9294
  0
LINE
  8
0
 10
6.18903
 20
73.9294
 11
6.17015
 21
73.9088
  0
LINE
  8
0
 10
6.17015
 20
73.9088
 11
6.15094
 21
73.8885
  0
LINE
  8
0
 10
6.15094
 20
73.8885
 11
6.13136
 21
73.8686
  0
LINE
  8
0
 10
6.13136
 20
73.8686
 11
6.11145
 21
73.8491
  0
LINE
  8
0
 10
6.11145
 20
73.8491
 11
6.09119
 21
73.8298
  0
LINE
  8
0
 10
6.09119
 20
73.8298
 11
6.0706
 21
73.811
  0
LINE
  8
0
 10
6.0706
 20
73.811
 11
6.04968
 21
73.7925
  0
LINE
  8
0
 10
6.04968
 20
73.7925
 11
6.02846
 21
73.7743
  0
LINE
  8
0
 10
6.02846
 20
73.7743
 11
6.00691
 21
73.7566
  0
LINE
  8
0
 10
6.00691
 20
73.7566
 11
5.98505
 21
73.7392
  0
LINE
  8
0
 10
5.98505
 20
73.7392
 11
5.96289
 21
73.7222
  0
LINE
  8
0
 10
5.96289
 20
73.7222
 11
5.94044
 21
73.7056
  0
LINE
  8
0
 10
5.94044
 20
73.7056
 11
5.91771
 21
73.6893
  0
LINE
  8
0
 10
5.91771
 20
73.6893
 11
5.8947
 21
73.6735
  0
LINE
  8
0
 10
5.8947
 20
73.6735
 11
5.87141
 21
73.6581
  0
LINE
  8
0
 10
5.87141
 20
73.6581
 11
5.84787
 21
73.6431
  0
LINE
  8
0
 10
5.84787
 20
73.6431
 11
5.82405
 21
73.6285
  0
LINE
  8
0
 10
5.82405
 20
73.6285
 11
5.79999
 21
73.6143
  0
LINE
  8
0
 10
5.79999
 20
73.6143
 11
5.77568
 21
73.6006
  0
LINE
  8
0
 10
5.77568
 20
73.6006
 11
5.75114
 21
73.5873
  0
LINE
  8
0
 10
5.75114
 20
73.5873
 11
5.72638
 21
73.5744
  0
LINE
  8
0
 10
5.72638
 20
73.5744
 11
5.70139
 21
73.5619
  0
LINE
  8
0
 10
5.70139
 20
73.5619
 11
5.67618
 21
73.5499
  0
LINE
  8
0
 10
5.67618
 20
73.5499
 11
5.65077
 21
73.5383
  0
LINE
  8
0
 10
5.65077
 20
73.5383
 11
5.62517
 21
73.5272
  0
LINE
  8
0
 10
5.62517
 20
73.5272
 11
5.59937
 21
73.5165
  0
LINE
  8
0
 10
5.59937
 20
73.5165
 11
5.57338
 21
73.5063
  0
LINE
  8
0
 10
5.57338
 20
73.5063
 11
5.54723
 21
73.4965
  0
LINE
  8
0
 10
5.54723
 20
73.4965
 11
5.5209
 21
73.4872
  0
LINE
  8
0
 10
5.5209
 20
73.4872
 11
5.49442
 21
73.4783
  0
LINE
  8
0
 10
5.49442
 20
73.4783
 11
5.46779
 21
73.4699
  0
LINE
  8
0
 10
5.46779
 20
73.4699
 11
5.44101
 21
73.462
  0
LINE
  8
0
 10
5.44101
 20
73.462
 11
5.41411
 21
73.4545
  0
LINE
  8
0
 10
5.41411
 20
73.4545
 11
5.38707
 21
73.4475
  0
LINE
  8
0
 10
5.38707
 20
73.4475
 11
5.35991
 21
73.441
  0
LINE
  8
0
 10
5.35991
 20
73.441
 11
5.33266
 21
73.435
  0
LINE
  8
0
 10
5.33266
 20
73.435
 11
5.30528
 21
73.4294
  0
LINE
  8
0
 10
5.30528
 20
73.4294
 11
5.27783
 21
73.4243
  0
LINE
  8
0
 10
5.27783
 20
73.4243
 11
5.25029
 21
73.4197
  0
LINE
  8
0
 10
5.25029
 20
73.4197
 11
5.22267
 21
73.4156
  0
LINE
  8
0
 10
5.22267
 20
73.4156
 11
5.19498
 21
73.4119
  0
LINE
  8
0
 10
5.19498
 20
73.4119
 11
5.16724
 21
73.4088
  0
LINE
  8
0
 10
5.16724
 20
73.4088
 11
5.13943
 21
73.4061
  0
LINE
  8
0
 10
5.13943
 20
73.4061
 11
5.1116
 21
73.4039
  0
LINE
  8
0
 10
5.1116
 20
73.4039
 11
5.08372
 21
73.4022
  0
LINE
  8
0
 10
5.08372
 20
73.4022
 11
5.05583
 21
73.401
  0
LINE
  8
0
 10
5.05583
 20
73.401
 11
5.02792
 21
73.4002
  0
LINE
  8
0
 10
5.02792
 20
73.4002
 11
5
 21
73.4
  0
LINE
  8
0
 10
5
 20
73.4
 11
4.97206
 21
73.4002
  0
LINE
  8
0
 10
47.4721
 20
73.4002
 11
47.4442
 21
73.401
  0
LINE
  8
0
 10
47.4442
 20
73.401
 11
47.4163
 21
73.4022
  0
LINE
  8
0
 10
47.4163
 20
73.4022
 11
47.3884
 21
73.4039
  0
LINE
  8
0
 10
47.3884
 20
73.4039
 11
47.3605
 21
73.4061
  0
LINE
  8
0
 10
47.3605
 20
73.4061
 11
47.3327
 21
73.4088
  0
LINE
  8
0
 10
47.3327
 20
73.4088
 11
47.305
 21
73.4119
  0
LINE
  8
0
 10
47.305
 20
73.4119
 11
47.2773
 21
73.4156
  0
LINE
  8
0
 10
47.2773
 20
73.4156
 11
47.2497
 21
73.4197
  0
LINE
  8
0
 10
47.2497
 20
73.4197
 11
47.2222
 21
73.4243
  0
LINE
  8
0
 10
47.2222
 20
73.4243
 11
47.1947
 21
73.4294
  0
LINE
  8
0
 10
47.1947
 20
73.4294
 11
47.1673
 21
73.435
  0
LINE
  8
0
 10
47.1673
 20
73.435
 11
47.1401
 21
73.441
  0
LINE
  8
0
 10
47.1401
 20
73.441
 11
47.1129
 21
73.4475
  0
LINE
  8
0
 10
47.1129
 20
73.4475
 11
47.0859
 21
73.4545
  0
LINE
  8
0
 10
47.0859
 20
73.4545
 11
47.059
 21
73.462
  0
LINE
  8
0
 10
47.059
 20
73.462
 11
47.0322
 21
73.4699
  0
LINE
  8
0
 10
47.0322
 20
73.4699
 11
47.0056
 21
73.4783
  0
LINE
  8
0
 10
47.0056
 20
73.4783
 11
46.9791
 21
73.4872
  0
LINE
  8
0
 10
46.9791
 20
73.4872
 11
46.9528
 21
73.4965
  0
LINE
  8
0
 10
46.9528
 20
73.4965
 11
46.9266
 21
73.5063
  0
LINE
  8
0
 10
46.9266
 20
73.5063
 11
46.9006
 21
73.5165
  0
LINE
  8
0
 10
46.9006
 20
73.5165
 11
46.8748
 21
73.5272
  0
LINE
  8
0
 10
46.8748
 20
73.5272
 11
46.8492
 21
73.5383
  0
LINE
  8
0
 10
46.8492
 20
73.5383
 11
46.8238
 21
73.5499
  0
LINE
  8
0
 10
46.8238
 20
73.5499
 11
46.7986
 21
73.5619
  0
LINE
  8
0
 10
46.7986
 20
73.5619
 11
46.7736
 21
73.5744
  0
LINE
  8
0
 10
46.7736
 20
73.5744
 11
46.7488
 21
73.5873
  0
LINE
  8
0
 10
46.7488
 20
73.5873
 11
46.7243
 21
73.6006
  0
LINE
  8
0
 10
46.7243
 20
73.6006
 11
46.7
 21
73.6143
  0
LINE
  8
0
 10
46.7
 20
73.6143
 11
46.6759
 21
73.6285
  0
LINE
  8
0
 10
46.6759
 20
73.6285
 11
46.6521
 21
73.6431
  0
LINE
  8
0
 10
46.6521
 20
73.6431
 11
46.6286
 21
73.6581
  0
LINE
  8
0
 10
46.6286
 20
73.6581
 11
46.6053
 21
73.6735
  0
LINE
  8
0
 10
46.6053
 20
73.6735
 11
46.5823
 21
73.6893
  0
LINE
  8
0
 10
46.5823
 20
73.6893
 11
46.5595
 21
73.7056
  0
LINE
  8
0
 10
46.5595
 20
73.7056
 11
46.5371
 21
73.7222
  0
LINE
  8
0
 10
46.5371
 20
73.7222
 11
46.5149
 21
73.7392
  0
LINE
  8
0
 10
46.5149
 20
73.7392
 11
46.4931
 21
73.7566
  0
LINE
  8
0
 10
46.4931
 20
73.7566
 11
46.4715
 21
73.7743
  0
LINE
  8
0
 10
46.4715
 20
73.7743
 11
46.4503
 21
73.7925
  0
LINE
  8
0
 10
46.4503
 20
73.7925
 11
46.4294
 21
73.811
  0
LINE
  8
0
 10
46.4294
 20
73.811
 11
46.4088
 21
73.8298
  0
LINE
  8
0
 10
46.4088
 20
73.8298
 11
46.3885
 21
73.8491
  0
LINE
  8
0
 10
46.3885
 20
73.8491
 11
46.3686
 21
73.8686
  0
LINE
  8
0
 10
46.3686
 20
73.8686
 11
46.349
 21
73.8885
  0
LINE
  8
0
 10
46.349
 20
73.8885
 11
46.3298
 21
73.9088
  0
LINE
  8
0
 10
46.3298
 20
73.9088
 11
46.311
 21
73.9294
  0
LINE
  8
0
 10
46.311
 20
73.9294
 11
46.2925
 21
73.9503
  0
LINE
  8
0
 10
46.2925
 20
73.9503
 11
46.2743
 21
73.9715
  0
LINE
  8
0
 10
46.2743
 20
73.9715
 11
46.2566
 21
73.9931
  0
LINE
  8
0
 10
46.2566
 20
73.9931
 11
46.2392
 21
74.0149
  0
LINE
  8
0
 10
46.2392
 20
74.0149
 11
46.2222
 21
74.0371
  0
LINE
  8
0
 10
46.2222
 20
74.0371
 11
46.2056
 21
74.0595
  0
LINE
  8
0
 10
46.2056
 20
74.0595
 11
46.1893
 21
74.0823
  0
LINE
  8
0
 10
46.1893
 20
74.0823
 11
46.1735
 21
74.1053
  0
LINE
  8
0
 10
46.1735
 20
74.1053
 11
46.1581
 21
74.1286
  0
LINE
  8
0
 10
46.1581
 20
74.1286
 11
46.1431
 21
74.1521
  0
LINE
  8
0
 10
46.1431
 20
74.1521
 11
46.1285
 21
74.1759
  0
LINE
  8
0
 10
46.1285
 20
74.1759
 11
46.1143
 21
74.2
  0
LINE
  8
0
 10
46.1143
 20
74.2
 11
46.1006
 21
74.2243
  0
LINE
  8
0
 10
46.1006
 20
74.2243
 11
46.0873
 21
74.2488
  0
LINE
  8
0
 10
46.0873
 20
74.2488
 11
46.0744
 21
74.2736
  0
LINE
  8
0
 10
46.0744
 20
74.2736
 11
46.0619
 21
74.2986
  0
LINE
  8
0
 10
46.0619
 20
74.2986
 11
46.0499
 21
74.3238
  0
LINE
  8
0
 10
46.0499
 20
74.3238
 11
46.0383
 21
74.3492
  0
LINE
  8
0
 10
46.0383
 20
74.3492
 11
46.0272
 21
74.3748
  0
LINE
  8
0
 10
46.0272
 20
74.3748
 11
46.0165
 21
74.4006
  0
LINE
  8
0
 10
46.0165
 20
74.4006
 11
46.0063
 21
74.4266
  0
LINE
  8
0
 10
46.0063
 20
74.4266
 11
45.9965
 21
74.4528
  0
LINE
  8
0
 10
45.9965
 20
74.4528
 11
45.9872
 21
74.4791
  0
LINE
  8
0
 10
45.9872
 20
74.4791
 11
45.9783
 21
74.5056
  0
LINE
  8
0
 10
45.9783
 20
74.5056
 11
45.9699
 21
74.5322
  0
LINE
  8
0
 10
45.9699
 20
74.5322
 11
45.962
 21
74.559
  0
LINE
  8
0
 10
45.962
 20
74.559
 11
45.9545
 21
74.5859
  0
LINE
  8
0
 10
45.9545
 20
74.5859
 11
45.9475
 21
74.6129
  0
LINE
  8
0
 10
45.9475
 20
74.6129
 11
45.941
 21
74.6401
  0
LINE
  8
0
 10
45.941
 20
74.6401
 11
45.935
 21
74.6673
  0
LINE
  8
0
 10
45.935
 20
74.6673
 11
45.9294
 21
74.6947
  0
LINE
  8
0
 10
45.9294
 20
74.6947
 11
45.9243
 21
74.7222
  0
LINE
  8
0
 10
45.9243
 20
74.7222
 11
45.9197
 21
74.7497
  0
LINE
  8
0
 10
45.9197
 20
74.7497
 11
45.9156
 21
74.7773
  0
LINE
  8
0
 10
45.9156
 20
74.7773
 11
45.9119
 21
74.805
  0
LINE
  8
0
 10
45.9119
 20
74.805
 11
45.9088
 21
74.8327
  0
LINE
  8
0
 10
45.9088
 20
74.8327
 11
45.9061
 21
74.8605
  0
LINE
  8
0
 10
45.9061
 20
74.8605
 11
45.9039
 21
74.8884
  0
LINE
  8
0
 10
45.9039
 20
74.8884
 11
45.9022
 21
74.9163
  0
LINE
  8
0
 10
45.9022
 20
74.9163
 11
45.901
 21
74.9442
  0
LINE
  8
0
 10
45.901
 20
74.9442
 11
45.9002
 21
74.9721
  0
LINE
  8
0
 10
45.9002
 20
74.9721
 11
45.9
 21
75
  0
LINE
  8
0
 10
45.9
 20
75
 11
45.9002
 21
75.0279
  0
LINE
  8
0
 10
45.9002
 20
75.0279
 11
45.901
 21
75.0558
  0
LINE
  8
0
 10
45.901
 20
75.0558
 11
45.9022
 21
75.0837
  0
LINE
  8
0
 10
45.9022
 20
75.0837
 11
45.9039
 21
75.1116
  0
LINE
  8
0
 10
45.9039
 20
75.1116
 11
45.9061
 21
75.1395
  0
LINE
  8
0
 10
45.9061
 20
75.1395
 11
45.9088
 21
75.1672
  0
LINE
  8
0
 10
45.9088
 20
75.1672
 11
45.9119
 21
75.195
  0
LINE
  8
0
 10
45.9119
 20
75.195
 11
45.9156
 21
75.2227
  0
LINE
  8
0
 10
45.9156
 20
75.2227
 11
45.9197
 21
75.2503
  0
LINE
  8
0
 10
45.9197
 20
75.2503
 11
45.9243
 21
75.2778
  0
LINE
  8
0
 10
45.9243
 20
75.2778
 11
45.9294
 21
75.3053
  0
LINE
  8
0
 10
45.9294
 20
75.3053
 11
45.935
 21
75.3327
  0
LINE
  8
0
 10
45.935
 20
75.3327
 11
45.941
 21
75.3599
  0
LINE
  8
0
 10
45.941
 20
75.3599
 11
45.9475
 21
75.3871
  0
LINE
  8
0
 10
45.9475
 20
75.3871
 11
45.9545
 21
75.4141
  0
LINE
  8
0
 10
45.9545
 20
75.4141
 11
45.962
 21
75.441
  0
LINE
  8
0
 10
45.962
 20
75.441
 11
45.9699
 21
75.4678
  0
LINE
  8
0
 10
45.9699
 20
75.4678
 11
45.9783
 21
75.4944
  0
LINE
  8
0
 10
45.9783
 20
75.4944
 11
45.9872
 21
75.5209
  0
LINE
  8
0
 10
45.9872
 20
75.5209
 11
45.9965
 21
75.5472
  0
LINE
  8
0
 10
45.9965
 20
75.5472
 11
46.0063
 21
75.5734
  0
LINE
  8
0
 10
46.0063
 20
75.5734
 11
46.0165
 21
75.5994
  0
LINE
  8
0
 10
46.0165
 20
75.5994
 11
46.0272
 21
75.6252
  0
LINE
  8
0
 10
46.0272
 20
75.6252
 11
46.0383
 21
75.6508
  0
LINE
  8
0
 10
46.0383
 20
75.6508
 11
46.0499
 21
75.6762
  0
LINE
  8
0
 10
46.0499
 20
75.6762
 11
46.0619
 21
75.7014
  0
LINE
  8
0
 10
46.0619
 20
75.7014
 11
46.0744
 21
75.7264
  0
LINE
  8
0
 10
46.0744
 20
75.7264
 11
46.0873
 21
75.7511
  0
LINE
  8
0
 10
46.0873
 20
75.7511
 11
46.1006
 21
75.7757
  0
LINE
  8
0
 10
46.1006
 20
75.7757
 11
46.1143
 21
75.8
  0
LINE
  8
0
 10
46.1143
 20
75.8
 11
46.1285
 21
75.8241
  0
LINE
  8
0
 10
46.1285
 20
75.8241
 11
46.1431
 21
75.8479
  0
LINE
  8
0
 10
46.1431
 20
75.8479
 11
46.1581
 21
75.8714
  0
LINE
  8
0
 10
46.1581
 20
75.8714
 11
46.1735
 21
75.8947
  0
LINE
  8
0
 10
46.1735
 20
75.8947
 11
46.1893
 21
75.9177
  0
LINE
  8
0
 10
46.1893
 20
75.9177
 11
46.2056
 21
75.9405
  0
LINE
  8
0
 10
46.2056
 20
75.9405
 11
46.2222
 21
75.9629
  0
LINE
  8
0
 10
46.2222
 20
75.9629
 11
46.2392
 21
75.9851
  0
LINE
  8
0
 10
46.2392
 20
75.9851
 11
46.2566
 21
76.0069
  0
LINE
  8
0
 10
46.2566
 20
76.0069
 11
46.2743
 21
76.0285
  0
LINE
  8
0
 10
46.2743
 20
76.0285
 11
46.2925
 21
76.0497
  0
LINE
  8
0
 10
46.2925
 20
76.0497
 11
46.311
 21
76.0706
  0
LINE
  8
0
 10
46.311
 20
76.0706
 11
46.3298
 21
76.0912
  0
LINE
  8
0
 10
46.3298
 20
76.0912
 11
46.349
 21
76.1115
  0
LINE
  8
0
 10
46.349
 20
76.1115
 11
46.3686
 21
76.1314
  0
LINE
  8
0
 10
46.3686
 20
76.1314
 11
46.3885
 21
76.1509
  0
LINE
  8
0
 10
46.3885
 20
76.1509
 11
46.4088
 21
76.1702
  0
LINE
  8
0
 10
46.4088
 20
76.1702
 11
46.4294
 21
76.189
  0
LINE
  8
0
 10
46.4294
 20
76.189
 11
46.4503
 21
76.2075
  0
LINE
  8
0
 10
46.4503
 20
76.2075
 11
46.4715
 21
76.2257
  0
LINE
  8
0
 10
46.4715
 20
76.2257
 11
46.4931
 21
76.2434
  0
LINE
  8
0
 10
46.4931
 20
76.2434
 11
46.5149
 21
76.2608
  0
LINE
  8
0
 10
46.5149
 20
76.2608
 11
46.5371
 21
76.2778
  0
LINE
  8
0
 10
46.5371
 20
76.2778
 11
46.5595
 21
76.2944
  0
LINE
  8
0
 10
46.5595
 20
76.2944
 11
46.5823
 21
76.3106
  0
LINE
  8
0
 10
46.5823
 20
76.3106
 11
46.6053
 21
76.3265
  0
LINE
  8
0
 10
46.6053
 20
76.3265
 11
46.6286
 21
76.3419
  0
LINE
  8
0
 10
46.6286
 20
76.3419
 11
46.6521
 21
76.3569
  0
LINE
  8
0
 10
46.6521
 20
76.3569
 11
46.6759
 21
76.3715
  0
LINE
  8
0
 10
46.6759
 20
76.3715
 11
46.7
 21
76.3856
  0
LINE
  8
0
 10
46.7
 20
76.3856
 11
46.7243
 21
76.3994
  0
LINE
  8
0
 10
46.7243
 20
76.3994
 11
46.7488
 21
76.4127
  0
LINE
  8
0
 10
46.7488
 20
76.4127
 11
46.7736
 21
76.4256
  0
LINE
  8
0
 10
46.7736
 20
76.4256
 11
46.7986
 21
76.4381
  0
LINE
  8
0
 10
46.7986
 20
76.4381
 11
46.8238
 21
76.4501
  0
LINE
  8
0
 10
46.8238
 20
76.4501
 11
46.8492
 21
76.4617
  0
LINE
  8
0
 10
46.8492
 20
76.4617
 11
46.8748
 21
76.4728
  0
LINE
  8
0
 10
46.8748
 20
76.4728
 11
46.9006
 21
76.4835
  0
LINE
  8
0
 10
46.9006
 20
76.4835
 11
46.9266
 21
76.4937
  0
LINE
  8
0
 10
46.9266
 20
76.4937
 11
46.9528
 21
76.5035
  0
LINE
  8
0
 10
46.9528
 20
76.5035
 11
46.9791
 21
76.5128
  0
LINE
  8
0
 10
46.9791
 20
76.5128
 11
47.0056
 21
76.5217
  0
LINE
  8
0
 10
47.0056
 20
76.5217
 11
47.0322
 21
76.5301
  0
LINE
  8
0
 10
47.0322
 20
76.5301
 11
47.059
 21
76.538
  0
LINE
  8
0
 10
47.059
 20
76.538
 11
47.0859
 21
76.5455
  0
LINE
  8
0
 10
47.0859
 20
76.5455
 11
47.1129
 21
76.5525
  0
LINE
  8
0
 10
47.1129
 20
76.5525
 11
47.1401
 21
76.559
  0
LINE
  8
0
 10
47.1401
 20
76.559
 11
47.1673
 21
76.565
  0
LINE
  8
0
 10
47.1673
 20
76.565
 11
47.1947
 21
76.5706
  0
LINE
  8
0
 10
47.1947
 20
76.5706
 11
47.2222
 21
76.5757
  0
LINE
  8
0
 10
47.2222
 20
76.5757
 11
47.2497
 21
76.5803
  0
LINE
  8
0
 10
47.2497
 20
76.5803
 11
47.2773
 21
76.5844
  0
LINE
  8
0
 10
47.2773
 20
76.5844
 11
47.305
 21
76.5881
  0
LINE
  8
0
 10
47.305
 20
76.5881
 11
47.3327
 21
76.5912
  0
LINE
  8
0
 10
47.3327
 20
76.5912
 11
47.3605
 21
76.5939
  0
LINE
  8
0
 10
47.3605
 20
76.5939
 11
47.3884
 21
76.5961
  0
LINE
  8
0
 10
47.3884
 20
76.5961
 11
47.4163
 21
76.5978
  0
LINE
  8
0
 10
47.4163
 20
76.5978
 11
47.4442
 21
76.599
  0
LINE
  8
0
 10
47.4442
 20
76.599
 11
47.4721
 21
76.5997
  0
LINE
  8
0
 10
47.4721
 20
76.5997
 11
47.5
 21
76.6
  0
LINE
  8
0
 10
47.5
 20
76.6
 11
47.5279
 21
76.5997
  0
LINE
  8
0
 10
47.5279
 20
76.5997
 11
47.5558
 21
76.599
  0
LINE
  8
0
 10
47.5558
 20
76.599
 11
47.5837
 21
76.5978
  0
LINE
  8
0
 10
47.5837
 20
76.5978
 11
47.6116
 21
76.5961
  0
LINE
  8
0
 10
47.6116
 20
76.5961
 11
47.6395
 21
76.5939
  0
LINE
  8
0
 10
47.6395
 20
76.5939
 11
47.6672
 21
76.5912
  0
LINE
  8
0
 10
47.6672
 20
76.5912
 11
47.695
 21
76.5881
  0
LINE
  8
0
 10
47.695
 20
76.5881
 11
47.7227
 21
76.5844
  0
LINE
  8
0
 10
47.7227
 20
76.5844
 11
47.7503
 21
76.5803
  0
LINE
  8
0
 10
47.7503
 20
76.5803
 11
47.7778
 21
76.5757
  0
LINE
  8
0
 10
47.7778
 20
76.5757
 11
47.8053
 21
76.5706
  0
LINE
  8
0
 10
47.8053
 20
76.5706
 11
47.8327
 21
76.565
  0
LINE
  8
0
 10
47.8327
 20
76.565
 11
47.8599
 21
76.559
  0
LINE
  8
0
 10
47.8599
 20
76.559
 11
47.8871
 21
76.5525
  0
LINE
  8
0
 10
47.8871
 20
76.5525
 11
47.9141
 21
76.5455
  0
LINE
  8
0
 10
47.9141
 20
76.5455
 11
47.941
 21
76.538
  0
LINE
  8
0
 10
47.941
 20
76.538
 11
47.9678
 21
76.5301
  0
LINE
  8
0
 10
47.9678
 20
76.5301
 11
47.9944
 21
76.5217
  0
LINE
  8
0
 10
47.9944
 20
76.5217
 11
48.0209
 21
76.5128
  0
LINE
  8
0
 10
48.0209
 20
76.5128
 11
48.0472
 21
76.5035
  0
LINE
  8
0
 10
48.0472
 20
76.5035
 11
48.0734
 21
76.4937
  0
LINE
  8
0
 10
48.0734
 20
76.4937
 11
48.0994
 21
76.4835
  0
LINE
  8
0
 10
48.0994
 20
76.4835
 11
48.1252
 21
76.4728
  0
LINE
  8
0
 10
48.1252
 20
76.4728
 11
48.1508
 21
76.4617
  0
LINE
  8
0
 10
48.1508
 20
76.4617
 11
48.1762
 21
76.4501
  0
LINE
  8
0
 10
48.1762
 20
76.4501
 11
48.2014
 21
76.4381
  0
LINE
  8
0
 10
48.2014
 20
76.4381
 11
48.2264
 21
76.4256
  0
LINE
  8
0
 10
48.2264
 20
76.4256
 11
48.2511
 21
76.4127
  0
LINE
  8
0
 10
48.2511
 20
76.4127
 11
48.2757
 21
76.3994
  0
LINE
  8
0
 10
48.2757
 20
76.3994
 11
48.3
 21
76.3856
  0
LINE
  8
0
 10
48.3
 20
76.3856
 11
48.3241
 21
76.3715
  0
LINE
  8
0
 10
48.3241
 20
76.3715
 11
48.3479
 21
76.3569
  0
LINE
  8
0
 10
48.3479
 20
76.3569
 11
48.3714
 21
76.3419
  0
LINE
  8
0
 10
48.3714
 20
76.3419
 11
48.3947
 21
76.3265
  0
LINE
  8
0
 10
48.3947
 20
76.3265
 11
48.4177
 21
76.3106
  0
LINE
  8
0
 10
48.4177
 20
76.3106
 11
48.4404
 21
76.2944
  0
LINE
  8
0
 10
48.4404
 20
76.2944
 11
48.4629
 21
76.2778
  0
LINE
  8
0
 10
48.4629
 20
76.2778
 11
48.485
 21
76.2608
  0
LINE
  8
0
 10
48.485
 20
76.2608
 11
48.5069
 21
76.2434
  0
LINE
  8
0
 10
48.5069
 20
76.2434
 11
48.5285
 21
76.2257
  0
LINE
  8
0
 10
48.5285
 20
76.2257
 11
48.5497
 21
76.2075
  0
LINE
  8
0
 10
48.5497
 20
76.2075
 11
48.5706
 21
76.189
  0
LINE
  8
0
 10
48.5706
 20
76.189
 11
48.5912
 21
76.1702
  0
LINE
  8
0
 10
48.5912
 20
76.1702
 11
48.6115
 21
76.1509
  0
LINE
  8
0
 10
48.6115
 20
76.1509
 11
48.6314
 21
76.1314
  0
LINE
  8
0
 10
48.6314
 20
76.1314
 11
48.6509
 21
76.1115
  0
LINE
  8
0
 10
48.6509
 20
76.1115
 11
48.6702
 21
76.0912
  0
LINE
  8
0
 10
48.6702
 20
76.0912
 11
48.689
 21
76.0706
  0
LINE
  8
0
 10
48.689
 20
76.0706
 11
48.7075
 21
76.0497
  0
LINE
  8
0
 10
48.7075
 20
76.0497
 11
48.7257
 21
76.0285
  0
LINE
  8
0
 10
48.7257
 20
76.0285
 11
48.7434
 21
76.0069
  0
LINE
  8
0
 10
48.7434
 20
76.0069
 11
48.7608
 21
75.9851
  0
LINE
  8
0
 10
48.7608
 20
75.9851
 11
48.7778
 21
75.9629
  0
LINE
  8
0
 10
48.7778
 20
75.9629
 11
48.7944
 21
75.9405
  0
LINE
  8
0
 10
48.7944
 20
75.9405
 11
48.8106
 21
75.9177
  0
LINE
  8
0
 10
48.8106
 20
75.9177
 11
48.8265
 21
75.8947
  0
LINE
  8
0
 10
48.8265
 20
75.8947
 11
48.8419
 21
75.8714
  0
LINE
  8
0
 10
48.8419
 20
75.8714
 11
48.8569
 21
75.8479
  0
LINE
  8
0
 10
48.8569
 20
75.8479
 11
48.8715
 21
75.8241
  0
LINE
  8
0
 10
48.8715
 20
75.8241
 11
48.8856
 21
75.8
  0
LINE
  8
0
 10
48.8856
 20
75.8
 11
48.8994
 21
75.7757
  0
LINE
  8
0
 10
48.8994
 20
75.7757
 11
48.9127
 21
75.7511
  0
LINE
  8
0
 10
48.9127
 20
75.7511
 11
48.9256
 21
75.7264
  0
LINE
  8
0
 10
48.9256
 20
75.7264
 11
48.9381
 21
75.7014
  0
LINE
  8
0
 10
48.9381
 20
75.7014
 11
48.9501
 21
75.6762
  0
LINE
  8
0
 10
48.9501
 20
75.6762
 11
48.9617
 21
75.6508
  0
LINE
  8
0
 10
48.9617
 20
75.6508
 11
48.9728
 21
75.6252
  0
LINE
  8
0
 10
48.9728
 20
75.6252
 11
48.9835
 21
75.5994
  0
LINE
  8
0
 10
48.9835
 20
75.5994
 11
48.9937
 21
75.5734
  0
LINE
  8
0
 10
48.9937
 20
75.5734
 11
49.0035
 21
75.5472
  0
LINE
  8
0
 10
49.0035
 20
75.5472
 11
49.0128
 21
75.5209
  0
LINE
  8
0
 10
49.0128
 20
75.5209
 11
49.0217
 21
75.4944
  0
LINE
  8
0
 10
49.0217
 20
75.4944
 11
49.0301
 21
75.4678
  0
LINE
  8
0
 10
49.0301
 20
75.4678
 11
49.038
 21
75.441
  0
LINE
  8
0
 10
49.038
 20
75.441
 11
49.0455
 21
75.4141
  0
LINE
  8
0
 10
49.0455
 20
75.4141
 11
49.0525
 21
75.3871
  0
LINE
  8
0
 10
49.0525
 20
75.3871
 11
49.059
 21
75.3599
  0
LINE
  8
0
 10
49.059
 20
75.3599
 11
49.065
 21
75.3327
  0
LINE
  8
0
 10
49.065
 20
75.3327
 11
49.0706
 21
75.3053
  0
LINE
  8
0
 10
49.0706
 20
75.3053
 11
49.0757
 21
75.2778
  0
LINE
  8
0
 10
49.0757
 20
75.2778
 11
49.0803
 21
75.2503
  0
LINE
  8
0
 10
49.0803
 20
75.2503
 11
49.0844
 21
75.2227
  0
LINE
  8
0
 10
49.0844
 20
75.2227
 11
49.0881
 21
75.195
  0
LINE
  8
0
 10
49.0881
 20
75.195
 11
49.0912
 21
75.1672
  0
LINE
  8
0
 10
49.0912
 20
75.1672
 11
49.0939
 21
75.1395
  0
LINE
  8
0
 10
49.0939
 20
75.1395
 11
49.0961
 21
75.1116
  0
LINE
  8
0
 10
49.0961
 20
75.1116
 11
49.0978
 21
75.0837
  0
LINE
  8
0
 10
49.0978
 20
75.0837
 11
49.099
 21
75.0558
  0
LINE
  8
0
 10
49.099
 20
75.0558
 11
49.0997
 21
75.0279
  0
LINE
  8
0
 10
49.0997
 20
75.0279
 11
49.1
 21
75
  0
LINE
  8
0
 10
49.1
 20
75
 11
49.0997
 21
74.9721
  0
LINE
  8
0
 10
49.0997
 20
74.9721
 11
49.099
 21
74.9442
  0
LINE
  8
0
 10
49.099
 20
74.9442
 11
49.0978
 21
74.9163
  0
LINE
  8
0
 10
49.0978
 20
74.9163
 11
49.0961
 21
74.8884
  0
LINE
  8
0
 10
49.0961
 20
74.8884
 11
49.0939
 21
74.8605
  0
LINE
  8
0
 10
49.0939
 20
74.8605
 11
49.0912
 21
74.8327
  0
LINE
  8
0
 10
49.0912
 20
74.8327
 11
49.0881
 21
74.805
  0
LINE
  8
0
 10
49.0881
 20
74.805
 11
49.0844
 21
74.7773
  0
LINE
  8
0
 10
49.0844
 20
74.7773
 11
49.0803
 21
74.7497
  0
LINE
  8
0
 10
49.0803
 20
74.7497
 11
49.0757
 21
74.7222
  0
LINE
  8
0
 10
49.0757
 20
74.7222
 11
49.0706
 21
74.6947
  0
LINE
  8
0
 10
49.0706
 20
74.6947
 11
49.065
 21
74.6673
  0
LINE
  8
0
 10
49.065
 20
74.6673
 11
49.059
 21
74.6401
  0
LINE
  8
0
 10
49.059
 20
74.6401
 11
49.0525
 21
74.6129
  0
LINE
  8
0
 10
49.0525
 20
74.6129
 11
49.0455
 21
74.5859
  0
LINE
  8
0
 10
49.0455
 20
74.5859
 11
49.038
 21
74.559
  0
LINE
  8
0
 10
49.038
 20
74.559
 11
49.0301
 21
74.5322
  0
LINE
  8
0
 10
49.0301
 20
74.5322
 11
49.0217
 21
74.5056
  0
LINE
  8
0
 10
49.0217
 20
74.5056
 11
49.0128
 21
74.4791
  0
LINE
  8
0
 10
49.0128
 20
74.4791
 11
49.0035
 21
74.4528
  0
LINE
  8
0
 10
49.0035
 20
74.4528
 11
48.9937
 21
74.4266
  0
LINE
  8
0
 10
48.9937
 20
74.4266
 11
48.9835
 21
74.4006
  0
LINE
  8
0
 10
48.9835
 20
74.4006
 11
48.9728
 21
74.3748
  0
LINE
  8
0
 10
48.9728
 20
74.3748
 11
48.9617
 21
74.3492
  0
LINE
  8
0
 10
48.9617
 20
74.3492
 11
48.9501
 21
74.3238
  0
LINE
  8
0
 10
48.9501
 20
74.3238
 11
48.9381
 21
74.2986
  0
LINE
  8
0
 10
48.9381
 20
74.2986
 11
48.9256
 21
74.2736
  0
LINE
  8
0
 10
48.9256
 20
74.2736
 11
48.9127
 21
74.2488
  0
LINE
  8
0
 10
48.9127
 20
74.2488
 11
48.8994
 21
74.2243
  0
LINE
  8
0
 10
48.8994
 20
74.2243
 11
48.8856
 21
74.2
  0
LINE
  8
0
 10
48.8856
 20
74.2
 11
48.8715
 21
74.1759
  0
LINE
  8
0
 10
48.8715
 20
74.1759
 11
48.8569
 21
74.1521
  0
LINE
  8
0
 10
48.8569
 20
74.1521
 11
48.8419
 21
74.1286
  0
LINE
  8
0
 10
48.8419
 20
74.1286
 11
48.8265
 21
74.1053
  0
LINE
  8
0
 10
48.8265
 20
74.1053
 11
48.8106
 21
74.0823
  0
LINE
  8
0
 10
48.8106
 20
74.0823
 11
48.7944
 21
74.0595
  0
LINE
  8
0
 10
48.7944
 20
74.0595
 11
48.7778
 21
74.0371
  0
LINE
  8
0
 10
48.7778
 20
74.0371
 11
48.7608
 21
74.0149
  0
LINE
  8
0
 10
48.7608
 20
74.0149
 11
48.7434
 21
73.9931
  0
LINE
  8
0
 10
48.7434
 20
73.9931
 11
48.7257
 21
73.9715
  0
LINE
  8
0
 10
48.7257
 20
73.9715
 11
48.7075
 21
73.9503
  0
LINE
  8
0
 10
48.7075
 20
73.9503
 11
48.689
 21
73.9294
  0
LINE
  8
0
 10
48.689
 20
73.9294
 11
48.6702
 21
73.9088
  0
LINE
  8
0
 10
48.6702
 20
73.9088
 11
48.6509
 21
73.8885
  0
LINE
  8
0
 10
48.6509
 20
73.8885
 11
48.6314
 21
73.8686
  0
LINE
  8
0
 10
48.6314
 20
73.8686
 11
48.6115
 21
73.8491
  0
LINE
  8
0
 10
48.6115
 20
73.8491
 11
48.5912
 21
73.8298
  0
LINE
  8
0
 10
48.5912
 20
73.8298
 11
48.5706
 21
73.811
  0
LINE
  8
0
 10
48.5706
 20
73.811
 11
48.5497
 21
73.7925
  0
LINE
  8
0
 10
48.5497
 20
73.7925
 11
48.5285
 21
73.7743
  0
LINE
  8
0
 10
48.5285
 20
73.7743
 11
48.5069
 21
73.7566
  0
LINE
  8
0
 10
48.5069
 20
73.7566
 11
48.485
 21
73.7392
  0
LINE
  8
0
 10
48.485
 20
73.7392
 11
48.4629
 21
73.7222
  0
LINE
  8
0
 10
48.4629
 20
73.7222
 11
48.4404
 21
73.7056
  0
LINE
  8
0
 10
48.4404
 20
73.7056
 11
48.4177
 21
73.6893
  0
LINE
  8
0
 10
48.4177
 20
73.6893
 11
48.3947
 21
73.6735
  0
LINE
  8
0
 10
48.3947
 20
73.6735
 11
48.3714
 21
73.6581
  0
LINE
  8
0
 10
48.3714
 20
73.6581
 11
48.3479
 21
73.6431
  0
LINE
  8
0
 10
48.3479
 20
73.6431
 11
48.3241
 21
73.6285
  0
LINE
  8
0
 10
48.3241
 20
73.6285
 11
48.3
 21
73.6143
  0
LINE
  8
0
 10
48.3
 20
73.6143
 11
48.2757
 21
73.6006
  0
LINE
  8
0
 10
48.2757
 20
73.6006
 11
48.2511
 21
73.5873
  0
LINE
  8
0
 10
48.2511
 20
73.5873
 11
48.2264
 21
73.5744
  0
LINE
  8
0
 10
48.2264
 20
73.5744
 11
48.2014
 21
73.5619
  0
LINE
  8
0
 10
48.2014
 20
73.5619
 11
48.1762
 21
73.5499
  0
LINE
  8
0
 10
48.1762
 20
73.5499
 11
48.1508
 21
73.5383
  0
LINE
  8
0
 10
48.1508
 20
73.5383
 11
48.1252
 21
73.5272
  0
LINE
  8
0
 10
48.1252
 20
73.5272
 11
48.0994
 21
73.5165
  0
LINE
  8
0
 10
48.0994
 20
73.5165
 11
48.0734
 21
73.5063
  0
LINE
  8
0
 10
48.0734
 20
73.5063
 11
48.0472
 21
73.4965
  0
LINE
  8
0
 10
48.0472
 20
73.4965
 11
48.0209
 21
73.4872
  0
LINE
  8
0
 10
48.0209
 20
73.4872
 11
47.9944
 21
73.4783
  0
LINE
  8
0
 10
47.9944
 20
73.4783
 11
47.9678
 21
73.4699
  0
LINE
  8
0
 10
47.9678
 20
73.4699
 11
47.941
 21
73.462
  0
LINE
  8
0
 10
47.941
 20
73.462
 11
47.9141
 21
73.4545
  0
LINE
  8
0
 10
47.9141
 20
73.4545
 11
47.8871
 21
73.4475
  0
LINE
  8
0
 10
47.8871
 20
73.4475
 11
47.8599
 21
73.441
  0
LINE
  8
0
 10
47.8599
 20
73.441
 11
47.8327
 21
73.435
  0
LINE
  8
0
 10
47.8327
 20
73.435
 11
47.8053
 21
73.4294
  0
LINE
  8
0
 10
47.8053
 20
73.4294
 11
47.7778
 21
73.4243
  0
LINE
  8
0
 10
47.7778
 20
73.4243
 11
47.7503
 21
73.4197
  0
LINE
  8
0
 10
47.7503
 20
73.4197
 11
47.7227
 21
73.4156
  0
LINE
  8
0
 10
47.7227
 20
73.4156
 11
47.695
 21
73.4119
  0
LINE
  8
0
 10
47.695
 20
73.4119
 11
47.6672
 21
73.4088
  0
LINE
  8
0
 10
47.6672
 20
73.4088
 11
47.6395
 21
73.4061
  0
LINE
  8
0
 10
47.6395
 20
73.4061
 11
47.6116
 21
73.4039
  0
LINE
  8
0
 10
47.6116
 20
73.4039
 11
47.5837
 21
73.4022
  0
LINE
  8
0
 10
47.5837
 20
73.4022
 11
47.5558
 21
73.401
  0
LINE
  8
0
 10
47.5558
 20
73.401
 11
47.5279
 21
73.4002
  0
LINE
  8
0
 10
47.5279
 20
73.4002
 11
47.5
 21
73.4
  0
LINE
  8
0
 10
47.5
 20
73.4
 11
47.4721
 21
73.4002
  0
LINE
  8
0
 10
-3.59999
 20
54.9454
 11
-3.59999
 21
62.9636
  0
LINE
  8
0
 10
-3.59999
 20
62.9636
 11
-0.399994
 21
62.9636
  0
LINE
  8
0
 10
-0.399994
 20
62.9636
 11
-0.399994
 21
54.9454
  0
LINE
  8
0
 10
-0.399994
 20
54.9454
 11
-3.59999
 21
54.9454
  0
LINE
  8
0
 10
100.4
 20
54.9454
 11
100.4
 21
62.9636
  0
LINE
  8
0
 10
100.4
 20
62.9636
 11
103.6
 21
62.9636
  0
LINE
  8
0
 10
103.6
 20
62.9636
 11
103.6
 21
54.9454
  0
LINE
  8
0
 10
103.6
 20
54.9454
 11
100.4
 21
54.9454
  0
LINE
  8
0
 10
-3.59999
 20
38.2182
 11
-3.59999
 21
46.2364
  0
LINE
  8
0
 10
-3.59999
 20
46.2364
 11
-0.399994
 21
46.2364
  0
LINE
  8
0
 10
-0.399994
 20
46.2364
 11
-0.399994
 21
38.2182
  0
LINE
  8
0
 10
-0.399994
 20
38.2182
 11
-3.59999
 21
38.2182
  0
LINE
  8
0
 10
100.4
 20
38.2182
 11
100.4
 21
46.2364
  0
LINE
  8
0
 10
100.4
 20
46.2364
 11
103.6
 21
46.2364
  0
LINE
  8
0
 10
103.6
 20
46.2364
 11
103.6
 21
38.2182
  0
LINE
  8
0
 10
103.6
 20
38.2182
 11
100.4
 21
38.2182
  0
LINE
  8
0
 10
-3.59999
 20
21.4909
 11
-3.59999
 21
29.5091
  0
LINE
  8
0
 10
-3.59999
 20
29.5091
 11
-0.399994
 21
29.5091
  0
LINE
  8
0
 10
-0.399994
 20
29.5091
 11
-0.399994
 21
21.4909
  0
LINE
  8
0
 10
-0.399994
 20
21.4909
 11
-3.59999
 21
21.4909
  0
LINE
  8
0
 10
100.4
 20
21.4909
 11
100.4
 21
29.5091
  0
LINE
  8
0
 10
100.4
 20
29.5091
 11
103.6
 21
29.5091
  0
LINE
  8
0
 10
103.6
 20
29.5091
 11
103.6
 21
21.4909
  0
LINE
  8
0
 10
103.6
 20
21.4909
 11
100.4
 21
21.4909
  0
LINE
  8
0
 10
100.4
 20
4.76363
 11
100.4
 21
12.7818
  0
LINE
  8
0
 10
100.4
 20
12.7818
 11
103.6
 21
12.7818
  0
LINE
  8
0
 10
103.6
 20
12.7818
 11
103.6
 21
4.76363
  0
LINE
  8
0
 10
103.6
 20
4.76363
 11
100.4
 21
4.76363
  0
LINE
  8
0
 10
-3.59999
 20
4.76363
 11
-3.59999
 21
12.7818
  0
LINE
  8
0
 10
-3.59999
 20
12.7818
 11
-0.399994
 21
12.7818
  0
LINE
  8
0
 10
-0.399994
 20
12.7818
 11
-0.399994
 21
4.76363
  0
LINE
  8
0
 10
-0.399994
 20
4.76363
 11
-3.59999
 21
4.76363
  0
LINE
  8
0
 10
4.97206
 20
8.40024
 11
4.94415
 21
8.40097
  0
LINE
  8
0
 10
4.94415
 20
8.40097
 11
4.91626
 21
8.40219
  0
LINE
  8
0
 10
4.91626
 20
8.40219
 11
4.88838
 21
8.40388
  0
LINE
  8
0
 10
4.88838
 20
8.40388
 11
4.86055
 21
8.40608
  0
LINE
  8
0
 10
4.86055
 20
8.40608
 11
4.83275
 21
8.40875
  0
LINE
  8
0
 10
4.83275
 20
8.40875
 11
4.80501
 21
8.41191
  0
LINE
  8
0
 10
4.80501
 20
8.41191
 11
4.77731
 21
8.41556
  0
LINE
  8
0
 10
4.77731
 20
8.41556
 11
4.74969
 21
8.41969
  0
LINE
  8
0
 10
4.74969
 20
8.41969
 11
4.72215
 21
8.4243
  0
LINE
  8
0
 10
4.72215
 20
8.4243
 11
4.6947
 21
8.42938
  0
LINE
  8
0
 10
4.6947
 20
8.42938
 11
4.66733
 21
8.43495
  0
LINE
  8
0
 10
4.66733
 20
8.43495
 11
4.64008
 21
8.44099
  0
LINE
  8
0
 10
4.64008
 20
8.44099
 11
4.61292
 21
8.44753
  0
LINE
  8
0
 10
4.61292
 20
8.44753
 11
4.58588
 21
8.45451
  0
LINE
  8
0
 10
4.58588
 20
8.45451
 11
4.55898
 21
8.46198
  0
LINE
  8
0
 10
4.55898
 20
8.46198
 11
4.5322
 21
8.46991
  0
LINE
  8
0
 10
4.5322
 20
8.46991
 11
4.50557
 21
8.4783
  0
LINE
  8
0
 10
4.50557
 20
8.4783
 11
4.47908
 21
8.48717
  0
LINE
  8
0
 10
4.47908
 20
8.48717
 11
4.45276
 21
8.49649
  0
LINE
  8
0
 10
4.45276
 20
8.49649
 11
4.42661
 21
8.50626
  0
LINE
  8
0
 10
4.42661
 20
8.50626
 11
4.40062
 21
8.51649
  0
LINE
  8
0
 10
4.40062
 20
8.51649
 11
4.37482
 21
8.52719
  0
LINE
  8
0
 10
4.37482
 20
8.52719
 11
4.34921
 21
8.53831
  0
LINE
  8
0
 10
4.34921
 20
8.53831
 11
4.32381
 21
8.5499
  0
LINE
  8
0
 10
4.32381
 20
8.5499
 11
4.2986
 21
8.56192
  0
LINE
  8
0
 10
4.2986
 20
8.56192
 11
4.27361
 21
8.57439
  0
LINE
  8
0
 10
4.27361
 20
8.57439
 11
4.24884
 21
8.58728
  0
LINE
  8
0
 10
4.24884
 20
8.58728
 11
4.2243
 21
8.6006
  0
LINE
  8
0
 10
4.2243
 20
8.6006
 11
4.2
 21
8.61435
  0
LINE
  8
0
 10
4.2
 20
8.61435
 11
4.17593
 21
8.62852
  0
LINE
  8
0
 10
4.17593
 20
8.62852
 11
4.15211
 21
8.64311
  0
LINE
  8
0
 10
4.15211
 20
8.64311
 11
4.12857
 21
8.65813
  0
LINE
  8
0
 10
4.12857
 20
8.65813
 11
4.10529
 21
8.67354
  0
LINE
  8
0
 10
4.10529
 20
8.67354
 11
4.08228
 21
8.68935
  0
LINE
  8
0
 10
4.08228
 20
8.68935
 11
4.05954
 21
8.70557
  0
LINE
  8
0
 10
4.05954
 20
8.70557
 11
4.03709
 21
8.72217
  0
LINE
  8
0
 10
4.03709
 20
8.72217
 11
4.01494
 21
8.73918
  0
LINE
  8
0
 10
4.01494
 20
8.73918
 11
3.99307
 21
8.75656
  0
LINE
  8
0
 10
3.99307
 20
8.75656
 11
3.97153
 21
8.77432
  0
LINE
  8
0
 10
3.97153
 20
8.77432
 11
3.9503
 21
8.79245
  0
LINE
  8
0
 10
3.9503
 20
8.79245
 11
3.92938
 21
8.81096
  0
LINE
  8
0
 10
3.92938
 20
8.81096
 11
3.9088
 21
8.82983
  0
LINE
  8
0
 10
3.9088
 20
8.82983
 11
3.88853
 21
8.84904
  0
LINE
  8
0
 10
3.88853
 20
8.84904
 11
3.86862
 21
8.86862
  0
LINE
  8
0
 10
3.86862
 20
8.86862
 11
3.84904
 21
8.88853
  0
LINE
  8
0
 10
3.84904
 20
8.88853
 11
3.82983
 21
8.9088
  0
LINE
  8
0
 10
3.82983
 20
8.9088
 11
3.81096
 21
8.92938
  0
LINE
  8
0
 10
3.81096
 20
8.92938
 11
3.79245
 21
8.9503
  0
LINE
  8
0
 10
3.79245
 20
8.9503
 11
3.77432
 21
8.97153
  0
LINE
  8
0
 10
3.77432
 20
8.97153
 11
3.75656
 21
8.99307
  0
LINE
  8
0
 10
3.75656
 20
8.99307
 11
3.73918
 21
9.01494
  0
LINE
  8
0
 10
3.73918
 20
9.01494
 11
3.72217
 21
9.03709
  0
LINE
  8
0
 10
3.72217
 20
9.03709
 11
3.70557
 21
9.05954
  0
LINE
  8
0
 10
3.70557
 20
9.05954
 11
3.68935
 21
9.08228
  0
LINE
  8
0
 10
3.68935
 20
9.08228
 11
3.67354
 21
9.10529
  0
LINE
  8
0
 10
3.67354
 20
9.10529
 11
3.65813
 21
9.12857
  0
LINE
  8
0
 10
3.65813
 20
9.12857
 11
3.64311
 21
9.15211
  0
LINE
  8
0
 10
3.64311
 20
9.15211
 11
3.62852
 21
9.17593
  0
LINE
  8
0
 10
3.62852
 20
9.17593
 11
3.61435
 21
9.2
  0
LINE
  8
0
 10
3.61435
 20
9.2
 11
3.6006
 21
9.2243
  0
LINE
  8
0
 10
3.6006
 20
9.2243
 11
3.58728
 21
9.24884
  0
LINE
  8
0
 10
3.58728
 20
9.24884
 11
3.57439
 21
9.27361
  0
LINE
  8
0
 10
3.57439
 20
9.27361
 11
3.56192
 21
9.2986
  0
LINE
  8
0
 10
3.56192
 20
9.2986
 11
3.5499
 21
9.32381
  0
LINE
  8
0
 10
3.5499
 20
9.32381
 11
3.53831
 21
9.34921
  0
LINE
  8
0
 10
3.53831
 20
9.34921
 11
3.52719
 21
9.37482
  0
LINE
  8
0
 10
3.52719
 20
9.37482
 11
3.51649
 21
9.40062
  0
LINE
  8
0
 10
3.51649
 20
9.40062
 11
3.50626
 21
9.42661
  0
LINE
  8
0
 10
3.50626
 20
9.42661
 11
3.49649
 21
9.45276
  0
LINE
  8
0
 10
3.49649
 20
9.45276
 11
3.48717
 21
9.47908
  0
LINE
  8
0
 10
3.48717
 20
9.47908
 11
3.4783
 21
9.50557
  0
LINE
  8
0
 10
3.4783
 20
9.50557
 11
3.46991
 21
9.5322
  0
LINE
  8
0
 10
3.46991
 20
9.5322
 11
3.46198
 21
9.55898
  0
LINE
  8
0
 10
3.46198
 20
9.55898
 11
3.45451
 21
9.58588
  0
LINE
  8
0
 10
3.45451
 20
9.58588
 11
3.44753
 21
9.61292
  0
LINE
  8
0
 10
3.44753
 20
9.61292
 11
3.44099
 21
9.64008
  0
LINE
  8
0
 10
3.44099
 20
9.64008
 11
3.43495
 21
9.66733
  0
LINE
  8
0
 10
3.43495
 20
9.66733
 11
3.42938
 21
9.6947
  0
LINE
  8
0
 10
3.42938
 20
9.6947
 11
3.4243
 21
9.72215
  0
LINE
  8
0
 10
3.4243
 20
9.72215
 11
3.41969
 21
9.74969
  0
LINE
  8
0
 10
3.41969
 20
9.74969
 11
3.41556
 21
9.77731
  0
LINE
  8
0
 10
3.41556
 20
9.77731
 11
3.41191
 21
9.80501
  0
LINE
  8
0
 10
3.41191
 20
9.80501
 11
3.40875
 21
9.83275
  0
LINE
  8
0
 10
3.40875
 20
9.83275
 11
3.40608
 21
9.86055
  0
LINE
  8
0
 10
3.40608
 20
9.86055
 11
3.40388
 21
9.88838
  0
LINE
  8
0
 10
3.40388
 20
9.88838
 11
3.40219
 21
9.91626
  0
LINE
  8
0
 10
3.40219
 20
9.91626
 11
3.40097
 21
9.94415
  0
LINE
  8
0
 10
3.40097
 20
9.94415
 11
3.40024
 21
9.97206
  0
LINE
  8
0
 10
3.40024
 20
9.97206
 11
3.39999
 21
10
  0
LINE
  8
0
 10
3.39999
 20
10
 11
3.40024
 21
10.0279
  0
LINE
  8
0
 10
3.40024
 20
10.0279
 11
3.40097
 21
10.0558
  0
LINE
  8
0
 10
3.40097
 20
10.0558
 11
3.40219
 21
10.0837
  0
LINE
  8
0
 10
3.40219
 20
10.0837
 11
3.40388
 21
10.1116
  0
LINE
  8
0
 10
3.40388
 20
10.1116
 11
3.40608
 21
10.1394
  0
LINE
  8
0
 10
3.40608
 20
10.1394
 11
3.40875
 21
10.1672
  0
LINE
  8
0
 10
3.40875
 20
10.1672
 11
3.41191
 21
10.195
  0
LINE
  8
0
 10
3.41191
 20
10.195
 11
3.41556
 21
10.2227
  0
LINE
  8
0
 10
3.41556
 20
10.2227
 11
3.41969
 21
10.2503
  0
LINE
  8
0
 10
3.41969
 20
10.2503
 11
3.4243
 21
10.2778
  0
LINE
  8
0
 10
3.4243
 20
10.2778
 11
3.42938
 21
10.3053
  0
LINE
  8
0
 10
3.42938
 20
10.3053
 11
3.43495
 21
10.3327
  0
LINE
  8
0
 10
3.43495
 20
10.3327
 11
3.44099
 21
10.3599
  0
LINE
  8
0
 10
3.44099
 20
10.3599
 11
3.44753
 21
10.3871
  0
LINE
  8
0
 10
3.44753
 20
10.3871
 11
3.45451
 21
10.4141
  0
LINE
  8
0
 10
3.45451
 20
10.4141
 11
3.46198
 21
10.441
  0
LINE
  8
0
 10
3.46198
 20
10.441
 11
3.46991
 21
10.4678
  0
LINE
  8
0
 10
3.46991
 20
10.4678
 11
3.4783
 21
10.4944
  0
LINE
  8
0
 10
3.4783
 20
10.4944
 11
3.48717
 21
10.5209
  0
LINE
  8
0
 10
3.48717
 20
10.5209
 11
3.49649
 21
10.5472
  0
LINE
  8
0
 10
3.49649
 20
10.5472
 11
3.50626
 21
10.5734
  0
LINE
  8
0
 10
3.50626
 20
10.5734
 11
3.51649
 21
10.5994
  0
LINE
  8
0
 10
3.51649
 20
10.5994
 11
3.52719
 21
10.6252
  0
LINE
  8
0
 10
3.52719
 20
10.6252
 11
3.53831
 21
10.6508
  0
LINE
  8
0
 10
3.53831
 20
10.6508
 11
3.5499
 21
10.6762
  0
LINE
  8
0
 10
3.5499
 20
10.6762
 11
3.56192
 21
10.7014
  0
LINE
  8
0
 10
3.56192
 20
10.7014
 11
3.57439
 21
10.7264
  0
LINE
  8
0
 10
3.57439
 20
10.7264
 11
3.58728
 21
10.7511
  0
LINE
  8
0
 10
3.58728
 20
10.7511
 11
3.6006
 21
10.7757
  0
LINE
  8
0
 10
3.6006
 20
10.7757
 11
3.61435
 21
10.8
  0
LINE
  8
0
 10
3.61435
 20
10.8
 11
3.62852
 21
10.8241
  0
LINE
  8
0
 10
3.62852
 20
10.8241
 11
3.64311
 21
10.8479
  0
LINE
  8
0
 10
3.64311
 20
10.8479
 11
3.65813
 21
10.8714
  0
LINE
  8
0
 10
3.65813
 20
10.8714
 11
3.67354
 21
10.8947
  0
LINE
  8
0
 10
3.67354
 20
10.8947
 11
3.68935
 21
10.9177
  0
LINE
  8
0
 10
3.68935
 20
10.9177
 11
3.70557
 21
10.9404
  0
LINE
  8
0
 10
3.70557
 20
10.9404
 11
3.72217
 21
10.9629
  0
LINE
  8
0
 10
3.72217
 20
10.9629
 11
3.73918
 21
10.985
  0
LINE
  8
0
 10
3.73918
 20
10.985
 11
3.75656
 21
11.0069
  0
LINE
  8
0
 10
3.75656
 20
11.0069
 11
3.77432
 21
11.0285
  0
LINE
  8
0
 10
3.77432
 20
11.0285
 11
3.79245
 21
11.0497
  0
LINE
  8
0
 10
3.79245
 20
11.0497
 11
3.81096
 21
11.0706
  0
LINE
  8
0
 10
3.81096
 20
11.0706
 11
3.82983
 21
11.0912
  0
LINE
  8
0
 10
3.82983
 20
11.0912
 11
3.84904
 21
11.1115
  0
LINE
  8
0
 10
3.84904
 20
11.1115
 11
3.86862
 21
11.1314
  0
LINE
  8
0
 10
3.86862
 20
11.1314
 11
3.88853
 21
11.1509
  0
LINE
  8
0
 10
3.88853
 20
11.1509
 11
3.9088
 21
11.1702
  0
LINE
  8
0
 10
3.9088
 20
11.1702
 11
3.92938
 21
11.189
  0
LINE
  8
0
 10
3.92938
 20
11.189
 11
3.9503
 21
11.2075
  0
LINE
  8
0
 10
3.9503
 20
11.2075
 11
3.97153
 21
11.2257
  0
LINE
  8
0
 10
3.97153
 20
11.2257
 11
3.99307
 21
11.2434
  0
LINE
  8
0
 10
3.99307
 20
11.2434
 11
4.01494
 21
11.2608
  0
LINE
  8
0
 10
4.01494
 20
11.2608
 11
4.03709
 21
11.2778
  0
LINE
  8
0
 10
4.03709
 20
11.2778
 11
4.05954
 21
11.2944
  0
LINE
  8
0
 10
4.05954
 20
11.2944
 11
4.08228
 21
11.3106
  0
LINE
  8
0
 10
4.08228
 20
11.3106
 11
4.10529
 21
11.3264
  0
LINE
  8
0
 10
4.10529
 20
11.3264
 11
4.12857
 21
11.3419
  0
LINE
  8
0
 10
4.12857
 20
11.3419
 11
4.15211
 21
11.3569
  0
LINE
  8
0
 10
4.15211
 20
11.3569
 11
4.17593
 21
11.3715
  0
LINE
  8
0
 10
4.17593
 20
11.3715
 11
4.2
 21
11.3856
  0
LINE
  8
0
 10
4.2
 20
11.3856
 11
4.2243
 21
11.3994
  0
LINE
  8
0
 10
4.2243
 20
11.3994
 11
4.24884
 21
11.4127
  0
LINE
  8
0
 10
4.24884
 20
11.4127
 11
4.27361
 21
11.4256
  0
LINE
  8
0
 10
4.27361
 20
11.4256
 11
4.2986
 21
11.4381
  0
LINE
  8
0
 10
4.2986
 20
11.4381
 11
4.32381
 21
11.4501
  0
LINE
  8
0
 10
4.32381
 20
11.4501
 11
4.34921
 21
11.4617
  0
LINE
  8
0
 10
4.34921
 20
11.4617
 11
4.37482
 21
11.4728
  0
LINE
  8
0
 10
4.37482
 20
11.4728
 11
4.40062
 21
11.4835
  0
LINE
  8
0
 10
4.40062
 20
11.4835
 11
4.42661
 21
11.4937
  0
LINE
  8
0
 10
4.42661
 20
11.4937
 11
4.45276
 21
11.5035
  0
LINE
  8
0
 10
4.45276
 20
11.5035
 11
4.47908
 21
11.5128
  0
LINE
  8
0
 10
4.47908
 20
11.5128
 11
4.50557
 21
11.5217
  0
LINE
  8
0
 10
4.50557
 20
11.5217
 11
4.5322
 21
11.5301
  0
LINE
  8
0
 10
4.5322
 20
11.5301
 11
4.55898
 21
11.538
  0
LINE
  8
0
 10
4.55898
 20
11.538
 11
4.58588
 21
11.5455
  0
LINE
  8
0
 10
4.58588
 20
11.5455
 11
4.61292
 21
11.5525
  0
LINE
  8
0
 10
4.61292
 20
11.5525
 11
4.64008
 21
11.559
  0
LINE
  8
0
 10
4.64008
 20
11.559
 11
4.66733
 21
11.565
  0
LINE
  8
0
 10
4.66733
 20
11.565
 11
4.6947
 21
11.5706
  0
LINE
  8
0
 10
4.6947
 20
11.5706
 11
4.72215
 21
11.5757
  0
LINE
  8
0
 10
4.72215
 20
11.5757
 11
4.74969
 21
11.5803
  0
LINE
  8
0
 10
4.74969
 20
11.5803
 11
4.77731
 21
11.5844
  0
LINE
  8
0
 10
4.77731
 20
11.5844
 11
4.80501
 21
11.5881
  0
LINE
  8
0
 10
4.80501
 20
11.5881
 11
4.83275
 21
11.5912
  0
LINE
  8
0
 10
4.83275
 20
11.5912
 11
4.86055
 21
11.5939
  0
LINE
  8
0
 10
4.86055
 20
11.5939
 11
4.88838
 21
11.5961
  0
LINE
  8
0
 10
4.88838
 20
11.5961
 11
4.91626
 21
11.5978
  0
LINE
  8
0
 10
4.91626
 20
11.5978
 11
4.94415
 21
11.599
  0
LINE
  8
0
 10
4.94415
 20
11.599
 11
4.97206
 21
11.5997
  0
LINE
  8
0
 10
4.97206
 20
11.5997
 11
5
 21
11.6
  0
LINE
  8
0
 10
5
 20
11.6
 11
5.02792
 21
11.5997
  0
LINE
  8
0
 10
5.02792
 20
11.5997
 11
5.05583
 21
11.599
  0
LINE
  8
0
 10
5.05583
 20
11.599
 11
5.08372
 21
11.5978
  0
LINE
  8
0
 10
5.08372
 20
11.5978
 11
5.1116
 21
11.5961
  0
LINE
  8
0
 10
5.1116
 20
11.5961
 11
5.13943
 21
11.5939
  0
LINE
  8
0
 10
5.13943
 20
11.5939
 11
5.16724
 21
11.5912
  0
LINE
  8
0
 10
5.16724
 20
11.5912
 11
5.19498
 21
11.5881
  0
LINE
  8
0
 10
5.19498
 20
11.5881
 11
5.22267
 21
11.5844
  0
LINE
  8
0
 10
5.22267
 20
11.5844
 11
5.25029
 21
11.5803
  0
LINE
  8
0
 10
5.25029
 20
11.5803
 11
5.27783
 21
11.5757
  0
LINE
  8
0
 10
5.27783
 20
11.5757
 11
5.30528
 21
11.5706
  0
LINE
  8
0
 10
5.30528
 20
11.5706
 11
5.33266
 21
11.565
  0
LINE
  8
0
 10
5.33266
 20
11.565
 11
5.35991
 21
11.559
  0
LINE
  8
0
 10
5.35991
 20
11.559
 11
5.38707
 21
11.5525
  0
LINE
  8
0
 10
5.38707
 20
11.5525
 11
5.41411
 21
11.5455
  0
LINE
  8
0
 10
5.41411
 20
11.5455
 11
5.44101
 21
11.538
  0
LINE
  8
0
 10
5.44101
 20
11.538
 11
5.46779
 21
11.5301
  0
LINE
  8
0
 10
5.46779
 20
11.5301
 11
5.49442
 21
11.5217
  0
LINE
  8
0
 10
5.49442
 20
11.5217
 11
5.5209
 21
11.5128
  0
LINE
  8
0
 10
5.5209
 20
11.5128
 11
5.54723
 21
11.5035
  0
LINE
  8
0
 10
5.54723
 20
11.5035
 11
5.57338
 21
11.4937
  0
LINE
  8
0
 10
5.57338
 20
11.4937
 11
5.59937
 21
11.4835
  0
LINE
  8
0
 10
5.59937
 20
11.4835
 11
5.62517
 21
11.4728
  0
LINE
  8
0
 10
5.62517
 20
11.4728
 11
5.65077
 21
11.4617
  0
LINE
  8
0
 10
5.65077
 20
11.4617
 11
5.67618
 21
11.4501
  0
LINE
  8
0
 10
5.67618
 20
11.4501
 11
5.70139
 21
11.4381
  0
LINE
  8
0
 10
5.70139
 20
11.4381
 11
5.72638
 21
11.4256
  0
LINE
  8
0
 10
5.72638
 20
11.4256
 11
5.75114
 21
11.4127
  0
LINE
  8
0
 10
5.75114
 20
11.4127
 11
5.77568
 21
11.3994
  0
LINE
  8
0
 10
5.77568
 20
11.3994
 11
5.79999
 21
11.3856
  0
LINE
  8
0
 10
5.79999
 20
11.3856
 11
5.82405
 21
11.3715
  0
LINE
  8
0
 10
5.82405
 20
11.3715
 11
5.84787
 21
11.3569
  0
LINE
  8
0
 10
5.84787
 20
11.3569
 11
5.87141
 21
11.3419
  0
LINE
  8
0
 10
5.87141
 20
11.3419
 11
5.8947
 21
11.3264
  0
LINE
  8
0
 10
5.8947
 20
11.3264
 11
5.91771
 21
11.3106
  0
LINE
  8
0
 10
5.91771
 20
11.3106
 11
5.94044
 21
11.2944
  0
LINE
  8
0
 10
5.94044
 20
11.2944
 11
5.96289
 21
11.2778
  0
LINE
  8
0
 10
5.96289
 20
11.2778
 11
5.98505
 21
11.2608
  0
LINE
  8
0
 10
5.98505
 20
11.2608
 11
6.00691
 21
11.2434
  0
LINE
  8
0
 10
6.00691
 20
11.2434
 11
6.02846
 21
11.2257
  0
LINE
  8
0
 10
6.02846
 20
11.2257
 11
6.04968
 21
11.2075
  0
LINE
  8
0
 10
6.04968
 20
11.2075
 11
6.0706
 21
11.189
  0
LINE
  8
0
 10
6.0706
 20
11.189
 11
6.09119
 21
11.1702
  0
LINE
  8
0
 10
6.09119
 20
11.1702
 11
6.11145
 21
11.1509
  0
LINE
  8
0
 10
6.11145
 20
11.1509
 11
6.13136
 21
11.1314
  0
LINE
  8
0
 10
6.13136
 20
11.1314
 11
6.15094
 21
11.1115
  0
LINE
  8
0
 10
6.15094
 20
11.1115
 11
6.17015
 21
11.0912
  0
LINE
  8
0
 10
6.17015
 20
11.0912
 11
6.18903
 21
11.0706
  0
LINE
  8
0
 10
6.18903
 20
11.0706
 11
6.20753
 21
11.0497
  0
LINE
  8
0
 10
6.20753
 20
11.0497
 11
6.22566
 21
11.0285
  0
LINE
  8
0
 10
6.22566
 20
11.0285
 11
6.24342
 21
11.0069
  0
LINE
  8
0
 10
6.24342
 20
11.0069
 11
6.2608
 21
10.985
  0
LINE
  8
0
 10
6.2608
 20
10.985
 11
6.27782
 21
10.9629
  0
LINE
  8
0
 10
6.27782
 20
10.9629
 11
6.29442
 21
10.9404
  0
LINE
  8
0
 10
6.29442
 20
10.9404
 11
6.31064
 21
10.9177
  0
LINE
  8
0
 10
6.31064
 20
10.9177
 11
6.32645
 21
10.8947
  0
LINE
  8
0
 10
6.32645
 20
10.8947
 11
6.34186
 21
10.8714
  0
LINE
  8
0
 10
6.34186
 20
10.8714
 11
6.35687
 21
10.8479
  0
LINE
  8
0
 10
6.35687
 20
10.8479
 11
6.37146
 21
10.8241
  0
LINE
  8
0
 10
6.37146
 20
10.8241
 11
6.38564
 21
10.8
  0
LINE
  8
0
 10
6.38564
 20
10.8
 11
6.39938
 21
10.7757
  0
LINE
  8
0
 10
6.39938
 20
10.7757
 11
6.4127
 21
10.7511
  0
LINE
  8
0
 10
6.4127
 20
10.7511
 11
6.4256
 21
10.7264
  0
LINE
  8
0
 10
6.4256
 20
10.7264
 11
6.43806
 21
10.7014
  0
LINE
  8
0
 10
6.43806
 20
10.7014
 11
6.45009
 21
10.6762
  0
LINE
  8
0
 10
6.45009
 20
10.6762
 11
6.46167
 21
10.6508
  0
LINE
  8
0
 10
6.46167
 20
10.6508
 11
6.47279
 21
10.6252
  0
LINE
  8
0
 10
6.47279
 20
10.6252
 11
6.48349
 21
10.5994
  0
LINE
  8
0
 10
6.48349
 20
10.5994
 11
6.49373
 21
10.5734
  0
LINE
  8
0
 10
6.49373
 20
10.5734
 11
6.50349
 21
10.5472
  0
LINE
  8
0
 10
6.50349
 20
10.5472
 11
6.51282
 21
10.5209
  0
LINE
  8
0
 10
6.51282
 20
10.5209
 11
6.52168
 21
10.4944
  0
LINE
  8
0
 10
6.52168
 20
10.4944
 11
6.53008
 21
10.4678
  0
LINE
  8
0
 10
6.53008
 20
10.4678
 11
6.53801
 21
10.441
  0
LINE
  8
0
 10
6.53801
 20
10.441
 11
6.54547
 21
10.4141
  0
LINE
  8
0
 10
6.54547
 20
10.4141
 11
6.55246
 21
10.3871
  0
LINE
  8
0
 10
6.55246
 20
10.3871
 11
6.55899
 21
10.3599
  0
LINE
  8
0
 10
6.55899
 20
10.3599
 11
6.56503
 21
10.3327
  0
LINE
  8
0
 10
6.56503
 20
10.3327
 11
6.5706
 21
10.3053
  0
LINE
  8
0
 10
6.5706
 20
10.3053
 11
6.57568
 21
10.2778
  0
LINE
  8
0
 10
6.57568
 20
10.2778
 11
6.58029
 21
10.2503
  0
LINE
  8
0
 10
6.58029
 20
10.2503
 11
6.58443
 21
10.2227
  0
LINE
  8
0
 10
6.58443
 20
10.2227
 11
6.58807
 21
10.195
  0
LINE
  8
0
 10
6.58807
 20
10.195
 11
6.59123
 21
10.1672
  0
LINE
  8
0
 10
6.59123
 20
10.1672
 11
6.5939
 21
10.1394
  0
LINE
  8
0
 10
6.5939
 20
10.1394
 11
6.5961
 21
10.1116
  0
LINE
  8
0
 10
6.5961
 20
10.1116
 11
6.59779
 21
10.0837
  0
LINE
  8
0
 10
6.59779
 20
10.0837
 11
6.59901
 21
10.0558
  0
LINE
  8
0
 10
6.59901
 20
10.0558
 11
6.59975
 21
10.0279
  0
LINE
  8
0
 10
6.59975
 20
10.0279
 11
6.59999
 21
10
  0
LINE
  8
0
 10
6.59999
 20
10
 11
6.59975
 21
9.97206
  0
LINE
  8
0
 10
6.59975
 20
9.97206
 11
6.59901
 21
9.94415
  0
LINE
  8
0
 10
6.59901
 20
9.94415
 11
6.59779
 21
9.91626
  0
LINE
  8
0
 10
6.59779
 20
9.91626
 11
6.5961
 21
9.88838
  0
LINE
  8
0
 10
6.5961
 20
9.88838
 11
6.5939
 21
9.86055
  0
LINE
  8
0
 10
6.5939
 20
9.86055
 11
6.59123
 21
9.83275
  0
LINE
  8
0
 10
6.59123
 20
9.83275
 11
6.58807
 21
9.80501
  0
LINE
  8
0
 10
6.58807
 20
9.80501
 11
6.58443
 21
9.77731
  0
LINE
  8
0
 10
6.58443
 20
9.77731
 11
6.58029
 21
9.74969
  0
LINE
  8
0
 10
6.58029
 20
9.74969
 11
6.57568
 21
9.72215
  0
LINE
  8
0
 10
6.57568
 20
9.72215
 11
6.5706
 21
9.6947
  0
LINE
  8
0
 10
6.5706
 20
9.6947
 11
6.56503
 21
9.66733
  0
LINE
  8
0
 10
6.56503
 20
9.66733
 11
6.55899
 21
9.64008
  0
LINE
  8
0
 10
6.55899
 20
9.64008
 11
6.55246
 21
9.61292
  0
LINE
  8
0
 10
6.55246
 20
9.61292
 11
6.54547
 21
9.58588
  0
LINE
  8
0
 10
6.54547
 20
9.58588
 11
6.53801
 21
9.55898
  0
LINE
  8
0
 10
6.53801
 20
9.55898
 11
6.53008
 21
9.5322
  0
LINE
  8
0
 10
6.53008
 20
9.5322
 11
6.52168
 21
9.50557
  0
LINE
  8
0
 10
6.52168
 20
9.50557
 11
6.51282
 21
9.47908
  0
LINE
  8
0
 10
6.51282
 20
9.47908
 11
6.50349
 21
9.45276
  0
LINE
  8
0
 10
6.50349
 20
9.45276
 11
6.49373
 21
9.42661
  0
LINE
  8
0
 10
6.49373
 20
9.42661
 11
6.48349
 21
9.40062
  0
LINE
  8
0
 10
6.48349
 20
9.40062
 11
6.47279
 21
9.37482
  0
LINE
  8
0
 10
6.47279
 20
9.37482
 11
6.46167
 21
9.34921
  0
LINE
  8
0
 10
6.46167
 20
9.34921
 11
6.45009
 21
9.32381
  0
LINE
  8
0
 10
6.45009
 20
9.32381
 11
6.43806
 21
9.2986
  0
LINE
  8
0
 10
6.43806
 20
9.2986
 11
6.4256
 21
9.27361
  0
LINE
  8
0
 10
6.4256
 20
9.27361
 11
6.4127
 21
9.24884
  0
LINE
  8
0
 10
6.4127
 20
9.24884
 11
6.39938
 21
9.2243
  0
LINE
  8
0
 10
6.39938
 20
9.2243
 11
6.38564
 21
9.2
  0
LINE
  8
0
 10
6.38564
 20
9.2
 11
6.37146
 21
9.17593
  0
LINE
  8
0
 10
6.37146
 20
9.17593
 11
6.35687
 21
9.15211
  0
LINE
  8
0
 10
6.35687
 20
9.15211
 11
6.34186
 21
9.12857
  0
LINE
  8
0
 10
6.34186
 20
9.12857
 11
6.32645
 21
9.10529
  0
LINE
  8
0
 10
6.32645
 20
9.10529
 11
6.31064
 21
9.08228
  0
LINE
  8
0
 10
6.31064
 20
9.08228
 11
6.29442
 21
9.05954
  0
LINE
  8
0
 10
6.29442
 20
9.05954
 11
6.27782
 21
9.03709
  0
LINE
  8
0
 10
6.27782
 20
9.03709
 11
6.2608
 21
9.01494
  0
LINE
  8
0
 10
6.2608
 20
9.01494
 11
6.24342
 21
8.99307
  0
LINE
  8
0
 10
6.24342
 20
8.99307
 11
6.22566
 21
8.97153
  0
LINE
  8
0
 10
6.22566
 20
8.97153
 11
6.20753
 21
8.9503
  0
LINE
  8
0
 10
6.20753
 20
8.9503
 11
6.18903
 21
8.92938
  0
LINE
  8
0
 10
6.18903
 20
8.92938
 11
6.17015
 21
8.9088
  0
LINE
  8
0
 10
6.17015
 20
8.9088
 11
6.15094
 21
8.88853
  0
LINE
  8
0
 10
6.15094
 20
8.88853
 11
6.13136
 21
8.86862
  0
LINE
  8
0
 10
6.13136
 20
8.86862
 11
6.11145
 21
8.84904
  0
LINE
  8
0
 10
6.11145
 20
8.84904
 11
6.09119
 21
8.82983
  0
LINE
  8
0
 10
6.09119
 20
8.82983
 11
6.0706
 21
8.81096
  0
LINE
  8
0
 10
6.0706
 20
8.81096
 11
6.04968
 21
8.79245
  0
LINE
  8
0
 10
6.04968
 20
8.79245
 11
6.02846
 21
8.77432
  0
LINE
  8
0
 10
6.02846
 20
8.77432
 11
6.00691
 21
8.75656
  0
LINE
  8
0
 10
6.00691
 20
8.75656
 11
5.98505
 21
8.73918
  0
LINE
  8
0
 10
5.98505
 20
8.73918
 11
5.96289
 21
8.72217
  0
LINE
  8
0
 10
5.96289
 20
8.72217
 11
5.94044
 21
8.70557
  0
LINE
  8
0
 10
5.94044
 20
8.70557
 11
5.91771
 21
8.68935
  0
LINE
  8
0
 10
5.91771
 20
8.68935
 11
5.8947
 21
8.67354
  0
LINE
  8
0
 10
5.8947
 20
8.67354
 11
5.87141
 21
8.65813
  0
LINE
  8
0
 10
5.87141
 20
8.65813
 11
5.84787
 21
8.64311
  0
LINE
  8
0
 10
5.84787
 20
8.64311
 11
5.82405
 21
8.62852
  0
LINE
  8
0
 10
5.82405
 20
8.62852
 11
5.79999
 21
8.61435
  0
LINE
  8
0
 10
5.79999
 20
8.61435
 11
5.77568
 21
8.6006
  0
LINE
  8
0
 10
5.77568
 20
8.6006
 11
5.75114
 21
8.58728
  0
LINE
  8
0
 10
5.75114
 20
8.58728
 11
5.72638
 21
8.57439
  0
LINE
  8
0
 10
5.72638
 20
8.57439
 11
5.70139
 21
8.56192
  0
LINE
  8
0
 10
5.70139
 20
8.56192
 11
5.67618
 21
8.5499
  0
LINE
  8
0
 10
5.67618
 20
8.5499
 11
5.65077
 21
8.53831
  0
LINE
  8
0
 10
5.65077
 20
8.53831
 11
5.62517
 21
8.52719
  0
LINE
  8
0
 10
5.62517
 20
8.52719
 11
5.59937
 21
8.51649
  0
LINE
  8
0
 10
5.59937
 20
8.51649
 11
5.57338
 21
8.50626
  0
LINE
  8
0
 10
5.57338
 20
8.50626
 11
5.54723
 21
8.49649
  0
LINE
  8
0
 10
5.54723
 20
8.49649
 11
5.5209
 21
8.48717
  0
LINE
  8
0
 10
5.5209
 20
8.48717
 11
5.49442
 21
8.4783
  0
LINE
  8
0
 10
5.49442
 20
8.4783
 11
5.46779
 21
8.46991
  0
LINE
  8
0
 10
5.46779
 20
8.46991
 11
5.44101
 21
8.46198
  0
LINE
  8
0
 10
5.44101
 20
8.46198
 11
5.41411
 21
8.45451
  0
LINE
  8
0
 10
5.41411
 20
8.45451
 11
5.38707
 21
8.44753
  0
LINE
  8
0
 10
5.38707
 20
8.44753
 11
5.35991
 21
8.44099
  0
LINE
  8
0
 10
5.35991
 20
8.44099
 11
5.33266
 21
8.43495
  0
LINE
  8
0
 10
5.33266
 20
8.43495
 11
5.30528
 21
8.42938
  0
LINE
  8
0
 10
5.30528
 20
8.42938
 11
5.27783
 21
8.4243
  0
LINE
  8
0
 10
5.27783
 20
8.4243
 11
5.25029
 21
8.41969
  0
LINE
  8
0
 10
5.25029
 20
8.41969
 11
5.22267
 21
8.41556
  0
LINE
  8
0
 10
5.22267
 20
8.41556
 11
5.19498
 21
8.41191
  0
LINE
  8
0
 10
5.19498
 20
8.41191
 11
5.16724
 21
8.40875
  0
LINE
  8
0
 10
5.16724
 20
8.40875
 11
5.13943
 21
8.40608
  0
LINE
  8
0
 10
5.13943
 20
8.40608
 11
5.1116
 21
8.40388
  0
LINE
  8
0
 10
5.1116
 20
8.40388
 11
5.08372
 21
8.40219
  0
LINE
  8
0
 10
5.08372
 20
8.40219
 11
5.05583
 21
8.40097
  0
LINE
  8
0
 10
5.05583
 20
8.40097
 11
5.02792
 21
8.40024
  0
LINE
  8
0
 10
5.02792
 20
8.40024
 11
5
 21
8.39999
  0
LINE
  8
0
 10
5
 20
8.39999
 11
4.97206
 21
8.40024
  0
LINE
  8
0
 10
47.4721
 20
8.40024
 11
47.4442
 21
8.40097
  0
LINE
  8
0
 10
47.4442
 20
8.40097
 11
47.4163
 21
8.40219
  0
LINE
  8
0
 10
47.4163
 20
8.40219
 11
47.3884
 21
8.40388
  0
LINE
  8
0
 10
47.3884
 20
8.40388
 11
47.3605
 21
8.40608
  0
LINE
  8
0
 10
47.3605
 20
8.40608
 11
47.3327
 21
8.40875
  0
LINE
  8
0
 10
47.3327
 20
8.40875
 11
47.305
 21
8.41191
  0
LINE
  8
0
 10
47.305
 20
8.41191
 11
47.2773
 21
8.41556
  0
LINE
  8
0
 10
47.2773
 20
8.41556
 11
47.2497
 21
8.41969
  0
LINE
  8
0
 10
47.2497
 20
8.41969
 11
47.2222
 21
8.4243
  0
LINE
  8
0
 10
47.2222
 20
8.4243
 11
47.1947
 21
8.42938
  0
LINE
  8
0
 10
47.1947
 20
8.42938
 11
47.1673
 21
8.43495
  0
LINE
  8
0
 10
47.1673
 20
8.43495
 11
47.1401
 21
8.44099
  0
LINE
  8
0
 10
47.1401
 20
8.44099
 11
47.1129
 21
8.44753
  0
LINE
  8
0
 10
47.1129
 20
8.44753
 11
47.0859
 21
8.45451
  0
LINE
  8
0
 10
47.0859
 20
8.45451
 11
47.059
 21
8.46198
  0
LINE
  8
0
 10
47.059
 20
8.46198
 11
47.0322
 21
8.46991
  0
LINE
  8
0
 10
47.0322
 20
8.46991
 11
47.0056
 21
8.4783
  0
LINE
  8
0
 10
47.0056
 20
8.4783
 11
46.9791
 21
8.48717
  0
LINE
  8
0
 10
46.9791
 20
8.48717
 11
46.9528
 21
8.49649
  0
LINE
  8
0
 10
46.9528
 20
8.49649
 11
46.9266
 21
8.50626
  0
LINE
  8
0
 10
46.9266
 20
8.50626
 11
46.9006
 21
8.51649
  0
LINE
  8
0
 10
46.9006
 20
8.51649
 11
46.8748
 21
8.52719
  0
LINE
  8
0
 10
46.8748
 20
8.52719
 11
46.8492
 21
8.53831
  0
LINE
  8
0
 10
46.8492
 20
8.53831
 11
46.8238
 21
8.5499
  0
LINE
  8
0
 10
46.8238
 20
8.5499
 11
46.7986
 21
8.56192
  0
LINE
  8
0
 10
46.7986
 20
8.56192
 11
46.7736
 21
8.57439
  0
LINE
  8
0
 10
46.7736
 20
8.57439
 11
46.7488
 21
8.58728
  0
LINE
  8
0
 10
46.7488
 20
8.58728
 11
46.7243
 21
8.6006
  0
LINE
  8
0
 10
46.7243
 20
8.6006
 11
46.7
 21
8.61435
  0
LINE
  8
0
 10
46.7
 20
8.61435
 11
46.6759
 21
8.62852
  0
LINE
  8
0
 10
46.6759
 20
8.62852
 11
46.6521
 21
8.64311
  0
LINE
  8
0
 10
46.6521
 20
8.64311
 11
46.6286
 21
8.65813
  0
LINE
  8
0
 10
46.6286
 20
8.65813
 11
46.6053
 21
8.67354
  0
LINE
  8
0
 10
46.6053
 20
8.67354
 11
46.5823
 21
8.68935
  0
LINE
  8
0
 10
46.5823
 20
8.68935
 11
46.5595
 21
8.70557
  0
LINE
  8
0
 10
46.5595
 20
8.70557
 11
46.5371
 21
8.72217
  0
LINE
  8
0
 10
46.5371
 20
8.72217
 11
46.5149
 21
8.73918
  0
LINE
  8
0
 10
46.5149
 20
8.73918
 11
46.4931
 21
8.75656
  0
LINE
  8
0
 10
46.4931
 20
8.75656
 11
46.4715
 21
8.77432
  0
LINE
  8
0
 10
46.4715
 20
8.77432
 11
46.4503
 21
8.79245
  0
LINE
  8
0
 10
46.4503
 20
8.79245
 11
46.4294
 21
8.81096
  0
LINE
  8
0
 10
46.4294
 20
8.81096
 11
46.4088
 21
8.82983
  0
LINE
  8
0
 10
46.4088
 20
8.82983
 11
46.3885
 21
8.84904
  0
LINE
  8
0
 10
46.3885
 20
8.84904
 11
46.3686
 21
8.86862
  0
LINE
  8
0
 10
46.3686
 20
8.86862
 11
46.349
 21
8.88853
  0
LINE
  8
0
 10
46.349
 20
8.88853
 11
46.3298
 21
8.9088
  0
LINE
  8
0
 10
46.3298
 20
8.9088
 11
46.311
 21
8.92938
  0
LINE
  8
0
 10
46.311
 20
8.92938
 11
46.2925
 21
8.9503
  0
LINE
  8
0
 10
46.2925
 20
8.9503
 11
46.2743
 21
8.97153
  0
LINE
  8
0
 10
46.2743
 20
8.97153
 11
46.2566
 21
8.99307
  0
LINE
  8
0
 10
46.2566
 20
8.99307
 11
46.2392
 21
9.01494
  0
LINE
  8
0
 10
46.2392
 20
9.01494
 11
46.2222
 21
9.03709
  0
LINE
  8
0
 10
46.2222
 20
9.03709
 11
46.2056
 21
9.05954
  0
LINE
  8
0
 10
46.2056
 20
9.05954
 11
46.1893
 21
9.08228
  0
LINE
  8
0
 10
46.1893
 20
9.08228
 11
46.1735
 21
9.10529
  0
LINE
  8
0
 10
46.1735
 20
9.10529
 11
46.1581
 21
9.12857
  0
LINE
  8
0
 10
46.1581
 20
9.12857
 11
46.1431
 21
9.15211
  0
LINE
  8
0
 10
46.1431
 20
9.15211
 11
46.1285
 21
9.17593
  0
LINE
  8
0
 10
46.1285
 20
9.17593
 11
46.1143
 21
9.2
  0
LINE
  8
0
 10
46.1143
 20
9.2
 11
46.1006
 21
9.2243
  0
LINE
  8
0
 10
46.1006
 20
9.2243
 11
46.0873
 21
9.24884
  0
LINE
  8
0
 10
46.0873
 20
9.24884
 11
46.0744
 21
9.27361
  0
LINE
  8
0
 10
46.0744
 20
9.27361
 11
46.0619
 21
9.2986
  0
LINE
  8
0
 10
46.0619
 20
9.2986
 11
46.0499
 21
9.32381
  0
LINE
  8
0
 10
46.0499
 20
9.32381
 11
46.0383
 21
9.34921
  0
LINE
  8
0
 10
46.0383
 20
9.34921
 11
46.0272
 21
9.37482
  0
LINE
  8
0
 10
46.0272
 20
9.37482
 11
46.0165
 21
9.40062
  0
LINE
  8
0
 10
46.0165
 20
9.40062
 11
46.0063
 21
9.42661
  0
LINE
  8
0
 10
46.0063
 20
9.42661
 11
45.9965
 21
9.45276
  0
LINE
  8
0
 10
45.9965
 20
9.45276
 11
45.9872
 21
9.47908
  0
LINE
  8
0
 10
45.9872
 20
9.47908
 11
45.9783
 21
9.50557
  0
LINE
  8
0
 10
45.9783
 20
9.50557
 11
45.9699
 21
9.5322
  0
LINE
  8
0
 10
45.9699
 20
9.5322
 11
45.962
 21
9.55898
  0
LINE
  8
0
 10
45.962
 20
9.55898
 11
45.9545
 21
9.58588
  0
LINE
  8
0
 10
45.9545
 20
9.58588
 11
45.9475
 21
9.61292
  0
LINE
  8
0
 10
45.9475
 20
9.61292
 11
45.941
 21
9.64008
  0
LINE
  8
0
 10
45.941
 20
9.64008
 11
45.935
 21
9.66733
  0
LINE
  8
0
 10
45.935
 20
9.66733
 11
45.9294
 21
9.6947
  0
LINE
  8
0
 10
45.9294
 20
9.6947
 11
45.9243
 21
9.72215
  0
LINE
  8
0
 10
45.9243
 20
9.72215
 11
45.9197
 21
9.74969
  0
LINE
  8
0
 10
45.9197
 20
9.74969
 11
45.9156
 21
9.77731
  0
LINE
  8
0
 10
45.9156
 20
9.77731
 11
45.9119
 21
9.80501
  0
LINE
  8
0
 10
45.9119
 20
9.80501
 11
45.9088
 21
9.83275
  0
LINE
  8
0
 10
45.9088
 20
9.83275
 11
45.9061
 21
9.86055
  0
LINE
  8
0
 10
45.9061
 20
9.86055
 11
45.9039
 21
9.88838
  0
LINE
  8
0
 10
45.9039
 20
9.88838
 11
45.9022
 21
9.91626
  0
LINE
  8
0
 10
45.9022
 20
9.91626
 11
45.901
 21
9.94415
  0
LINE
  8
0
 10
45.901
 20
9.94415
 11
45.9002
 21
9.97206
  0
LINE
  8
0
 10
45.9002
 20
9.97206
 11
45.9
 21
10
  0
LINE
  8
0
 10
45.9
 20
10
 11
45.9002
 21
10.0279
  0
LINE
  8
0
 10
45.9002
 20
10.0279
 11
45.901
 21
10.0558
  0
LINE
  8
0
 10
45.901
 20
10.0558
 11
45.9022
 21
10.0837
  0
LINE
  8
0
 10
45.9022
 20
10.0837
 11
45.9039
 21
10.1116
  0
LINE
  8
0
 10
45.9039
 20
10.1116
 11
45.9061
 21
10.1394
  0
LINE
  8
0
 10
45.9061
 20
10.1394
 11
45.9088
 21
10.1672
  0
LINE
  8
0
 10
45.9088
 20
10.1672
 11
45.9119
 21
10.195
  0
LINE
  8
0
 10
45.9119
 20
10.195
 11
45.9156
 21
10.2227
  0
LINE
  8
0
 10
45.9156
 20
10.2227
 11
45.9197
 21
10.2503
  0
LINE
  8
0
 10
45.9197
 20
10.2503
 11
45.9243
 21
10.2778
  0
LINE
  8
0
 10
45.9243
 20
10.2778
 11
45.9294
 21
10.3053
  0
LINE
  8
0
 10
45.9294
 20
10.3053
 11
45.935
 21
10.3327
  0
LINE
  8
0
 10
45.935
 20
10.3327
 11
45.941
 21
10.3599
  0
LINE
  8
0
 10
45.941
 20
10.3599
 11
45.9475
 21
10.3871
  0
LINE
  8
0
 10
45.9475
 20
10.3871
 11
45.9545
 21
10.4141
  0
LINE
  8
0
 10
45.9545
 20
10.4141
 11
45.962
 21
10.441
  0
LINE
  8
0
 10
45.962
 20
10.441
 11
45.9699
 21
10.4678
  0
LINE
  8
0
 10
45.9699
 20
10.4678
 11
45.9783
 21
10.4944
  0
LINE
  8
0
 10
45.9783
 20
10.4944
 11
45.9872
 21
10.5209
  0
LINE
  8
0
 10
45.9872
 20
10.5209
 11
45.9965
 21
10.5472
  0
LINE
  8
0
 10
45.9965
 20
10.5472
 11
46.0063
 21
10.5734
  0
LINE
  8
0
 10
46.0063
 20
10.5734
 11
46.0165
 21
10.5994
  0
LINE
  8
0
 10
46.0165
 20
10.5994
 11
46.0272
 21
10.6252
  0
LINE
  8
0
 10
46.0272
 20
10.6252
 11
46.0383
 21
10.6508
  0
LINE
  8
0
 10
46.0383
 20
10.6508
 11
46.0499
 21
10.6762
  0
LINE
  8
0
 10
46.0499
 20
10.6762
 11
46.0619
 21
10.7014
  0
LINE
  8
0
 10
46.0619
 20
10.7014
 11
46.0744
 21
10.7264
  0
LINE
  8
0
 10
46.0744
 20
10.7264
 11
46.0873
 21
10.7511
  0
LINE
  8
0
 10
46.0873
 20
10.7511
 11
46.1006
 21
10.7757
  0
LINE
  8
0
 10
46.1006
 20
10.7757
 11
46.1143
 21
10.8
  0
LINE
  8
0
 10
46.1143
 20
10.8
 11
46.1285
 21
10.8241
  0
LINE
  8
0
 10
46.1285
 20
10.8241
 11
46.1431
 21
10.8479
  0
LINE
  8
0
 10
46.1431
 20
10.8479
 11
46.1581
 21
10.8714
  0
LINE
  8
0
 10
46.1581
 20
10.8714
 11
46.1735
 21
10.8947
  0
LINE
  8
0
 10
46.1735
 20
10.8947
 11
46.1893
 21
10.9177
  0
LINE
  8
0
 10
46.1893
 20
10.9177
 11
46.2056
 21
10.9404
  0
LINE
  8
0
 10
46.2056
 20
10.9404
 11
46.2222
 21
10.9629
  0
LINE
  8
0
 10
46.2222
 20
10.9629
 11
46.2392
 21
10.985
  0
LINE
  8
0
 10
46.2392
 20
10.985
 11
46.2566
 21
11.0069
  0
LINE
  8
0
 10
46.2566
 20
11.0069
 11
46.2743
 21
11.0285
  0
LINE
  8
0
 10
46.2743
 20
11.0285
 11
46.2925
 21
11.0497
  0
LINE
  8
0
 10
46.2925
 20
11.0497
 11
46.311
 21
11.0706
  0
LINE
  8
0
 10
46.311
 20
11.0706
 11
46.3298
 21
11.0912
  0
LINE
  8
0
 10
46.3298
 20
11.0912
 11
46.349
 21
11.1115
  0
LINE
  8
0
 10
46.349
 20
11.1115
 11
46.3686
 21
11.1314
  0
LINE
  8
0
 10
46.3686
 20
11.1314
 11
46.3885
 21
11.1509
  0
LINE
  8
0
 10
46.3885
 20
11.1509
 11
46.4088
 21
11.1702
  0
LINE
  8
0
 10
46.4088
 20
11.1702
 11
46.4294
 21
11.189
  0
LINE
  8
0
 10
46.4294
 20
11.189
 11
46.4503
 21
11.2075
  0
LINE
  8
0
 10
46.4503
 20
11.2075
 11
46.4715
 21
11.2257
  0
LINE
  8
0
 10
46.4715
 20
11.2257
 11
46.4931
 21
11.2434
  0
LINE
  8
0
 10
46.4931
 20
11.2434
 11
46.5149
 21
11.2608
  0
LINE
  8
0
 10
46.5149
 20
11.2608
 11
46.5371
 21
11.2778
  0
LINE
  8
0
 10
46.5371
 20
11.2778
 11
46.5595
 21
11.2944
  0
LINE
  8
0
 10
46.5595
 20
11.2944
 11
46.5823
 21
11.3106
  0
LINE
  8
0
 10
46.5823
 20
11.3106
 11
46.6053
 21
11.3264
  0
LINE
  8
0
 10
46.6053
 20
11.3264
 11
46.6286
 21
11.3419
  0
LINE
  8
0
 10
46.6286
 20
11.3419
 11
46.6521
 21
11.3569
  0
LINE
  8
0
 10
46.6521
 20
11.3569
 11
46.6759
 21
11.3715
  0
LINE
  8
0
 10
46.6759
 20
11.3715
 11
46.7
 21
11.3856
  0
LINE
  8
0
 10
46.7
 20
11.3856
 11
46.7243
 21
11.3994
  0
LINE
  8
0
 10
46.7243
 20
11.3994
 11
46.7488
 21
11.4127
  0
LINE
  8
0
 10
46.7488
 20
11.4127
 11
46.7736
 21
11.4256
  0
LINE
  8
0
 10
46.7736
 20
11.4256
 11
46.7986
 21
11.4381
  0
LINE
  8
0
 10
46.7986
 20
11.4381
 11
46.8238
 21
11.4501
  0
LINE
  8
0
 10
46.8238
 20
11.4501
 11
46.8492
 21
11.4617
  0
LINE
  8
0
 10
46.8492
 20
11.4617
 11
46.8748
 21
11.4728
  0
LINE
  8
0
 10
46.8748
 20
11.4728
 11
46.9006
 21
11.4835
  0
LINE
  8
0
 10
46.9006
 20
11.4835
 11
46.9266
 21
11.4937
  0
LINE
  8
0
 10
46.9266
 20
11.4937
 11
46.9528
 21
11.5035
  0
LINE
  8
0
 10
46.9528
 20
11.5035
 11
46.9791
 21
11.5128
  0
LINE
  8
0
 10
46.9791
 20
11.5128
 11
47.0056
 21
11.5217
  0
LINE
  8
0
 10
47.0056
 20
11.5217
 11
47.0322
 21
11.5301
  0
LINE
  8
0
 10
47.0322
 20
11.5301
 11
47.059
 21
11.538
  0
LINE
  8
0
 10
47.059
 20
11.538
 11
47.0859
 21
11.5455
  0
LINE
  8
0
 10
47.0859
 20
11.5455
 11
47.1129
 21
11.5525
  0
LINE
  8
0
 10
47.1129
 20
11.5525
 11
47.1401
 21
11.559
  0
LINE
  8
0
 10
47.1401
 20
11.559
 11
47.1673
 21
11.565
  0
LINE
  8
0
 10
47.1673
 20
11.565
 11
47.1947
 21
11.5706
  0
LINE
  8
0
 10
47.1947
 20
11.5706
 11
47.2222
 21
11.5757
  0
LINE
  8
0
 10
47.2222
 20
11.5757
 11
47.2497
 21
11.5803
  0
LINE
  8
0
 10
47.2497
 20
11.5803
 11
47.2773
 21
11.5844
  0
LINE
  8
0
 10
47.2773
 20
11.5844
 11
47.305
 21
11.5881
  0
LINE
  8
0
 10
47.305
 20
11.5881
 11
47.3327
 21
11.5912
  0
LINE
  8
0
 10
47.3327
 20
11.5912
 11
47.3605
 21
11.5939
  0
LINE
  8
0
 10
47.3605
 20
11.5939
 11
47.3884
 21
11.5961
  0
LINE
  8
0
 10
47.3884
 20
11.5961
 11
47.4163
 21
11.5978
  0
LINE
  8
0
 10
47.4163
 20
11.5978
 11
47.4442
 21
11.599
  0
LINE
  8
0
 10
47.4442
 20
11.599
 11
47.4721
 21
11.5997
  0
LINE
  8
0
 10
47.4721
 20
11.5997
 11
47.5
 21
11.6
  0
LINE
  8
0
 10
47.5
 20
11.6
 11
47.5279
 21
11.5997
  0
LINE
  8
0
 10
47.5279
 20
11.5997
 11
47.5558
 21
11.599
  0
LINE
  8
0
 10
47.5558
 20
11.599
 11
47.5837
 21
11.5978
  0
LINE
  8
0
 10
47.5837
 20
11.5978
 11
47.6116
 21
11.5961
  0
LINE
  8
0
 10
47.6116
 20
11.5961
 11
47.6395
 21
11.5939
  0
LINE
  8
0
 10
47.6395
 20
11.5939
 11
47.6672
 21
11.5912
  0
LINE
  8
0
 10
47.6672
 20
11.5912
 11
47.695
 21
11.5881
  0
LINE
  8
0
 10
47.695
 20
11.5881
 11
47.7227
 21
11.5844
  0
LINE
  8
0
 10
47.7227
 20
11.5844
 11
47.7503
 21
11.5803
  0
LINE
  8
0
 10
47.7503
 20
11.5803
 11
47.7778
 21
11.5757
  0
LINE
  8
0
 10
47.7778
 20
11.5757
 11
47.8053
 21
11.5706
  0
LINE
  8
0
 10
47.8053
 20
11.5706
 11
47.8327
 21
11.565
  0
LINE
  8
0
 10
47.8327
 20
11.565
 11
47.8599
 21
11.559
  0
LINE
  8
0
 10
47.8599
 20
11.559
 11
47.8871
 21
11.5525
  0
LINE
  8
0
 10
47.8871
 20
11.5525
 11
47.9141
 21
11.5455
  0
LINE
  8
0
 10
47.9141
 20
11.5455
 11
47.941
 21
11.538
  0
LINE
  8
0
 10
47.941
 20
11.538
 11
47.9678
 21
11.5301
  0
LINE
  8
0
 10
47.9678
 20
11.5301
 11
47.9944
 21
11.5217
  0
LINE
  8
0
 10
47.9944
 20
11.5217
 11
48.0209
 21
11.5128
  0
LINE
  8
0
 10
48.0209
 20
11.5128
 11
48.0472
 21
11.5035
  0
LINE
  8
0
 10
48.0472
 20
11.5035
 11
48.0734
 21
11.4937
  0
LINE
  8
0
 10
48.0734
 20
11.4937
 11
48.0994
 21
11.4835
  0
LINE
  8
0
 10
48.0994
 20
11.4835
 11
48.1252
 21
11.4728
  0
LINE
  8
0
 10
48.1252
 20
11.4728
 11
48.1508
 21
11.4617
  0
LINE
  8
0
 10
48.1508
 20
11.4617
 11
48.1762
 21
11.4501
  0
LINE
  8
0
 10
48.1762
 20
11.4501
 11
48.2014
 21
11.4381
  0
LINE
  8
0
 10
48.2014
 20
11.4381
 11
48.2264
 21
11.4256
  0
LINE
  8
0
 10
48.2264
 20
11.4256
 11
48.2511
 21
11.4127
  0
LINE
  8
0
 10
48.2511
 20
11.4127
 11
48.2757
 21
11.3994
  0
LINE
  8
0
 10
48.2757
 20
11.3994
 11
48.3
 21
11.3856
  0
LINE
  8
0
 10
48.3
 20
11.3856
 11
48.3241
 21
11.3715
  0
LINE
  8
0
 10
48.3241
 20
11.3715
 11
48.3479
 21
11.3569
  0
LINE
  8
0
 10
48.3479
 20
11.3569
 11
48.3714
 21
11.3419
  0
LINE
  8
0
 10
48.3714
 20
11.3419
 11
48.3947
 21
11.3264
  0
LINE
  8
0
 10
48.3947
 20
11.3264
 11
48.4177
 21
11.3106
  0
LINE
  8
0
 10
48.4177
 20
11.3106
 11
48.4404
 21
11.2944
  0
LINE
  8
0
 10
48.4404
 20
11.2944
 11
48.4629
 21
11.2778
  0
LINE
  8
0
 10
48.4629
 20
11.2778
 11
48.485
 21
11.2608
  0
LINE
  8
0
 10
48.485
 20
11.2608
 11
48.5069
 21
11.2434
  0
LINE
  8
0
 10
48.5069
 20
11.2434
 11
48.5285
 21
11.2257
  0
LINE
  8
0
 10
48.5285
 20
11.2257
 11
48.5497
 21
11.2075
  0
LINE
  8
0
 10
48.5497
 20
11.2075
 11
48.5706
 21
11.189
  0
LINE
  8
0
 10
48.5706
 20
11.189
 11
48.5912
 21
11.1702
  0
LINE
  8
0
 10
48.5912
 20
11.1702
 11
48.6115
 21
11.1509
  0
LINE
  8
0
 10
48.6115
 20
11.1509
 11
48.6314
 21
11.1314
  0
LINE
  8
0
 10
48.6314
 20
11.1314
 11
48.6509
 21
11.1115
  0
LINE
  8
0
 10
48.6509
 20
11.1115
 11
48.6702
 21
11.0912
  0
LINE
  8
0
 10
48.6702
 20
11.0912
 11
48.689
 21
11.0706
  0
LINE
  8
0
 10
48.689
 20
11.0706
 11
48.7075
 21
11.0497
  0
LINE
  8
0
 10
48.7075
 20
11.0497
 11
48.7257
 21
11.0285
  0
LINE
  8
0
 10
48.7257
 20
11.0285
 11
48.7434
 21
11.0069
  0
LINE
  8
0
 10
48.7434
 20
11.0069
 11
48.7608
 21
10.985
  0
LINE
  8
0
 10
48.7608
 20
10.985
 11
48.7778
 21
10.9629
  0
LINE
  8
0
 10
48.7778
 20
10.9629
 11
48.7944
 21
10.9404
  0
LINE
  8
0
 10
48.7944
 20
10.9404
 11
48.8106
 21
10.9177
  0
LINE
  8
0
 10
48.8106
 20
10.9177
 11
48.8265
 21
10.8947
  0
LINE
  8
0
 10
48.8265
 20
10.8947
 11
48.8419
 21
10.8714
  0
LINE
  8
0
 10
48.8419
 20
10.8714
 11
48.8569
 21
10.8479
  0
LINE
  8
0
 10
48.8569
 20
10.8479
 11
48.8715
 21
10.8241
  0
LINE
  8
0
 10
48.8715
 20
10.8241
 11
48.8856
 21
10.8
  0
LINE
  8
0
 10
48.8856
 20
10.8
 11
48.8994
 21
10.7757
  0
LINE
  8
0
 10
48.8994
 20
10.7757
 11
48.9127
 21
10.7511
  0
LINE
  8
0
 10
48.9127
 20
10.7511
 11
48.9256
 21
10.7264
  0
LINE
  8
0
 10
48.9256
 20
10.7264
 11
48.9381
 21
10.7014
  0
LINE
  8
0
 10
48.9381
 20
10.7014
 11
48.9501
 21
10.6762
  0
LINE
  8
0
 10
48.9501
 20
10.6762
 11
48.9617
 21
10.6508
  0
LINE
  8
0
 10
48.9617
 20
10.6508
 11
48.9728
 21
10.6252
  0
LINE
  8
0
 10
48.9728
 20
10.6252
 11
48.9835
 21
10.5994
  0
LINE
  8
0
 10
48.9835
 20
10.5994
 11
48.9937
 21
10.5734
  0
LINE
  8
0
 10
48.9937
 20
10.5734
 11
49.0035
 21
10.5472
  0
LINE
  8
0
 10
49.0035
 20
10.5472
 11
49.0128
 21
10.5209
  0
LINE
  8
0
 10
49.0128
 20
10.5209
 11
49.0217
 21
10.4944
  0
LINE
  8
0
 10
49.0217
 20
10.4944
 11
49.0301
 21
10.4678
  0
LINE
  8
0
 10
49.0301
 20
10.4678
 11
49.038
 21
10.441
  0
LINE
  8
0
 10
49.038
 20
10.441
 11
49.0455
 21
10.4141
  0
LINE
  8
0
 10
49.0455
 20
10.4141
 11
49.0525
 21
10.3871
  0
LINE
  8
0
 10
49.0525
 20
10.3871
 11
49.059
 21
10.3599
  0
LINE
  8
0
 10
49.059
 20
10.3599
 11
49.065
 21
10.3327
  0
LINE
  8
0
 10
49.065
 20
10.3327
 11
49.0706
 21
10.3053
  0
LINE
  8
0
 10
49.0706
 20
10.3053
 11
49.0757
 21
10.2778
  0
LINE
  8
0
 10
49.0757
 20
10.2778
 11
49.0803
 21
10.2503
  0
LINE
  8
0
 10
49.0803
 20
10.2503
 11
49.0844
 21
10.2227
  0
LINE
  8
0
 10
49.0844
 20
10.2227
 11
49.0881
 21
10.195
  0
LINE
  8
0
 10
49.0881
 20
10.195
 11
49.0912
 21
10.1672
  0
LINE
  8
0
 10
49.0912
 20
10.1672
 11
49.0939
 21
10.1394
  0
LINE
  8
0
 10
49.0939
 20
10.1394
 11
49.0961
 21
10.1116
  0
LINE
  8
0
 10
49.0961
 20
10.1116
 11
49.0978
 21
10.0837
  0
LINE
  8
0
 10
49.0978
 20
10.0837
 11
49.099
 21
10.0558
  0
LINE
  8
0
 10
49.099
 20
10.0558
 11
49.0997
 21
10.0279
  0
LINE
  8
0
 10
49.0997
 20
10.0279
 11
49.1
 21
10
  0
LINE
  8
0
 10
49.1
 20
10
 11
49.0997
 21
9.97206
  0
LINE
  8
0
 10
49.0997
 20
9.97206
 11
49.099
 21
9.94415
  0
LINE
  8
0
 10
49.099
 20
9.94415
 11
49.0978
 21
9.91626
  0
LINE
  8
0
 10
49.0978
 20
9.91626
 11
49.0961
 21
9.88838
  0
LINE
  8
0
 10
49.0961
 20
9.88838
 11
49.0939
 21
9.86055
  0
LINE
  8
0
 10
49.0939
 20
9.86055
 11
49.0912
 21
9.83275
  0
LINE
  8
0
 10
49.0912
 20
9.83275
 11
49.0881
 21
9.80501
  0
LINE
  8
0
 10
49.0881
 20
9.80501
 11
49.0844
 21
9.77731
  0
LINE
  8
0
 10
49.0844
 20
9.77731
 11
49.0803
 21
9.74969
  0
LINE
  8
0
 10
49.0803
 20
9.74969
 11
49.0757
 21
9.72215
  0
LINE
  8
0
 10
49.0757
 20
9.72215
 11
49.0706
 21
9.6947
  0
LINE
  8
0
 10
49.0706
 20
9.6947
 11
49.065
 21
9.66733
  0
LINE
  8
0
 10
49.065
 20
9.66733
 11
49.059
 21
9.64008
  0
LINE
  8
0
 10
49.059
 20
9.64008
 11
49.0525
 21
9.61292
  0
LINE
  8
0
 10
49.0525
 20
9.61292
 11
49.0455
 21
9.58588
  0
LINE
  8
0
 10
49.0455
 20
9.58588
 11
49.038
 21
9.55898
  0
LINE
  8
0
 10
49.038
 20
9.55898
 11
49.0301
 21
9.5322
  0
LINE
  8
0
 10
49.0301
 20
9.5322
 11
49.0217
 21
9.50557
  0
LINE
  8
0
 10
49.0217
 20
9.50557
 11
49.0128
 21
9.47908
  0
LINE
  8
0
 10
49.0128
 20
9.47908
 11
49.0035
 21
9.45276
  0
LINE
  8
0
 10
49.0035
 20
9.45276
 11
48.9937
 21
9.42661
  0
LINE
  8
0
 10
48.9937
 20
9.42661
 11
48.9835
 21
9.40062
  0
LINE
  8
0
 10
48.9835
 20
9.40062
 11
48.9728
 21
9.37482
  0
LINE
  8
0
 10
48.9728
 20
9.37482
 11
48.9617
 21
9.34921
  0
LINE
  8
0
 10
48.9617
 20
9.34921
 11
48.9501
 21
9.32381
  0
LINE
  8
0
 10
48.9501
 20
9.32381
 11
48.9381
 21
9.2986
  0
LINE
  8
0
 10
48.9381
 20
9.2986
 11
48.9256
 21
9.27361
  0
LINE
  8
0
 10
48.9256
 20
9.27361
 11
48.9127
 21
9.24884
  0
LINE
  8
0
 10
48.9127
 20
9.24884
 11
48.8994
 21
9.2243
  0
LINE
  8
0
 10
48.8994
 20
9.2243
 11
48.8856
 21
9.2
  0
LINE
  8
0
 10
48.8856
 20
9.2
 11
48.8715
 21
9.17593
  0
LINE
  8
0
 10
48.8715
 20
9.17593
 11
48.8569
 21
9.15211
  0
LINE
  8
0
 10
48.8569
 20
9.15211
 11
48.8419
 21
9.12857
  0
LINE
  8
0
 10
48.8419
 20
9.12857
 11
48.8265
 21
9.10529
  0
LINE
  8
0
 10
48.8265
 20
9.10529
 11
48.8106
 21
9.08228
  0
LINE
  8
0
 10
48.8106
 20
9.08228
 11
48.7944
 21
9.05954
  0
LINE
  8
0
 10
48.7944
 20
9.05954
 11
48.7778
 21
9.03709
  0
LINE
  8
0
 10
48.7778
 20
9.03709
 11
48.7608
 21
9.01494
  0
LINE
  8
0
 10
48.7608
 20
9.01494
 11
48.7434
 21
8.99307
  0
LINE
  8
0
 10
48.7434
 20
8.99307
 11
48.7257
 21
8.97153
  0
LINE
  8
0
 10
48.7257
 20
8.97153
 11
48.7075
 21
8.9503
  0
LINE
  8
0
 10
48.7075
 20
8.9503
 11
48.689
 21
8.92938
  0
LINE
  8
0
 10
48.689
 20
8.92938
 11
48.6702
 21
8.9088
  0
LINE
  8
0
 10
48.6702
 20
8.9088
 11
48.6509
 21
8.88853
  0
LINE
  8
0
 10
48.6509
 20
8.88853
 11
48.6314
 21
8.86862
  0
LINE
  8
0
 10
48.6314
 20
8.86862
 11
48.6115
 21
8.84904
  0
LINE
  8
0
 10
48.6115
 20
8.84904
 11
48.5912
 21
8.82983
  0
LINE
  8
0
 10
48.5912
 20
8.82983
 11
48.5706
 21
8.81096
  0
LINE
  8
0
 10
48.5706
 20
8.81096
 11
48.5497
 21
8.79245
  0
LINE
  8
0
 10
48.5497
 20
8.79245
 11
48.5285
 21
8.77432
  0
LINE
  8
0
 10
48.5285
 20
8.77432
 11
48.5069
 21
8.75656
  0
LINE
  8
0
 10
48.5069
 20
8.75656
 11
48.485
 21
8.73918
  0
LINE
  8
0
 10
48.485
 20
8.73918
 11
48.4629
 21
8.72217
  0
LINE
  8
0
 10
48.4629
 20
8.72217
 11
48.4404
 21
8.70557
  0
LINE
  8
0
 10
48.4404
 20
8.70557
 11
48.4177
 21
8.68935
  0
LINE
  8
0
 10
48.4177
 20
8.68935
 11
48.3947
 21
8.67354
  0
LINE
  8
0
 10
48.3947
 20
8.67354
 11
48.3714
 21
8.65813
  0
LINE
  8
0
 10
48.3714
 20
8.65813
 11
48.3479
 21
8.64311
  0
LINE
  8
0
 10
48.3479
 20
8.64311
 11
48.3241
 21
8.62852
  0
LINE
  8
0
 10
48.3241
 20
8.62852
 11
48.3
 21
8.61435
  0
LINE
  8
0
 10
48.3
 20
8.61435
 11
48.2757
 21
8.6006
  0
LINE
  8
0
 10
48.2757
 20
8.6006
 11
48.2511
 21
8.58728
  0
LINE
  8
0
 10
48.2511
 20
8.58728
 11
48.2264
 21
8.57439
  0
LINE
  8
0
 10
48.2264
 20
8.57439
 11
48.2014
 21
8.56192
  0
LINE
  8
0
 10
48.2014
 20
8.56192
 11
48.1762
 21
8.5499
  0
LINE
  8
0
 10
48.1762
 20
8.5499
 11
48.1508
 21
8.53831
  0
LINE
  8
0
 10
48.1508
 20
8.53831
 11
48.1252
 21
8.52719
  0
LINE
  8
0
 10
48.1252
 20
8.52719
 11
48.0994
 21
8.51649
  0
LINE
  8
0
 10
48.0994
 20
8.51649
 11
48.0734
 21
8.50626
  0
LINE
  8
0
 10
48.0734
 20
8.50626
 11
48.0472
 21
8.49649
  0
LINE
  8
0
 10
48.0472
 20
8.49649
 11
48.0209
 21
8.48717
  0
LINE
  8
0
 10
48.0209
 20
8.48717
 11
47.9944
 21
8.4783
  0
LINE
  8
0
 10
47.9944
 20
8.4783
 11
47.9678
 21
8.46991
  0
LINE
  8
0
 10
47.9678
 20
8.46991
 11
47.941
 21
8.46198
  0
LINE
  8
0
 10
47.941
 20
8.46198
 11
47.9141
 21
8.45451
  0
LINE
  8
0
 10
47.9141
 20
8.45451
 11
47.8871
 21
8.44753
  0
LINE
  8
0
 10
47.8871
 20
8.44753
 11
47.8599
 21
8.44099
  0
LINE
  8
0
 10
47.8599
 20
8.44099
 11
47.8327
 21
8.43495
  0
LINE
  8
0
 10
47.8327
 20
8.43495
 11
47.8053
 21
8.42938
  0
LINE
  8
0
 10
47.8053
 20
8.42938
 11
47.7778
 21
8.4243
  0
LINE
  8
0
 10
47.7778
 20
8.4243
 11
47.7503
 21
8.41969
  0
LINE
  8
0
 10
47.7503
 20
8.41969
 11
47.7227
 21
8.41556
  0
LINE
  8
0
 10
47.7227
 20
8.41556
 11
47.695
 21
8.41191
  0
LINE
  8
0
 10
47.695
 20
8.41191
 11
47.6672
 21
8.40875
  0
LINE
  8
0
 10
47.6672
 20
8.40875
 11
47.6395
 21
8.40608
  0
LINE
  8
0
 10
47.6395
 20
8.40608
 11
47.6116
 21
8.40388
  0
LINE
  8
0
 10
47.6116
 20
8.40388
 11
47.5837
 21
8.40219
  0
LINE
  8
0
 10
47.5837
 20
8.40219
 11
47.5558
 21
8.40097
  0
LINE
  8
0
 10
47.5558
 20
8.40097
 11
47.5279
 21
8.40024
  0
LINE
  8
0
 10
47.5279
 20
8.40024
 11
47.5
 21
8.39999
  0
LINE
  8
0
 10
47.5
 20
8.39999
 11
47.4721
 21
8.40024
  0
LINE
  8
0
 10
83.9454
 20
-3.59999
 11
83.9454
 21
-0.399994
  0
LINE
  8
0
 10
83.9454
 20
-0.399994
 11
94.8454
 21
-0.399994
  0
LINE
  8
0
 10
94.8454
 20
-0.399994
 11
94.8454
 21
-3.59999
  0
LINE
  8
0
 10
94.8454
 20
-3.59999
 11
83.9454
 21
-3.59999
  0
LINE
  8
0
 10
64.4909
 20
-3.59999
 11
64.4909
 21
-0.399994
  0
LINE
  8
0
 10
64.4909
 20
-0.399994
 11
75.3909
 21
-0.399994
  0
LINE
  8
0
 10
75.3909
 20
-0.399994
 11
75.3909
 21
-3.59999
  0
LINE
  8
0
 10
75.3909
 20
-3.59999
 11
64.4909
 21
-3.59999
  0
LINE
  8
0
 10
45.0364
 20
-3.59999
 11
45.0364
 21
-0.399994
  0
LINE
  8
0
 10
45.0364
 20
-0.399994
 11
55.9364
 21
-0.399994
  0
LINE
  8
0
 10
55.9364
 20
-0.399994
 11
55.9364
 21
-3.59999
  0
LINE
  8
0
 10
55.9364
 20
-3.59999
 11
45.0364
 21
-3.59999
  0
LINE
  8
0
 10
25.5818
 20
-3.59999
 11
25.5818
 21
-0.399994
  0
LINE
  8
0
 10
25.5818
 20
-0.399994
 11
36.4818
 21
-0.399994
  0
LINE
  8
0
 10
36.4818
 20
-0.399994
 11
36.4818
 21
-3.59999
  0
LINE
  8
0
 10
36.4818
 20
-3.59999
 11
25.5818
 21
-3.59999
  0
LINE
  8
0
 10
6.12726
 20
-3.59999
 11
6.12726
 21
-0.399994
  0
LINE
  8
0
 10
6.12726
 20
-0.399994
 11
17.0273
 21
-0.399994
  0
LINE
  8
0
 10
17.0273
 20
-0.399994
 11
17.0273
 21
-3.59999
  0
LINE
  8
0
 10
17.0273
 20
-3.59999
 11
6.12726
 21
-3.59999
  0
ENDSEC
  0
SECTION
  2
OBJECTS
  0
DICTIONARY
  0
ENDSEC
  0
EOF
