  0
SECTION
  2
BLOCKS
  0
ENDSEC
  0
SECTION
  2
ENTITIES
  0
LINE
  8
0
 10
22.5
 20
3
 11
41.9
 21
3
  0
LINE
  8
0
 10
41.9
 20
3
 11
41.9
 21
0
  0
LINE
  8
0
 10
41.9
 20
0
 11
61.3
 21
0
  0
LINE
  8
0
 10
61.3
 20
0
 11
61.3
 21
3
  0
LINE
  8
0
 10
61.3
 20
3
 11
80.7
 21
3
  0
LINE
  8
0
 10
80.7
 20
3
 11
80.7
 21
0
  0
LINE
  8
0
 10
80.7
 20
0
 11
100.1
 21
0
  0
LINE
  8
0
 10
100.1
 20
0
 11
100.1
 21
3
  0
LINE
  8
0
 10
100.1
 20
3
 11
119.5
 21
3
  0
LINE
  8
0
 10
119.5
 20
3
 11
119.5
 21
0
  0
LINE
  8
0
 10
119.5
 20
0
 11
138.9
 21
0
  0
LINE
  8
0
 10
138.9
 20
0
 11
138.9
 21
3
  0
LINE
  8
0
 10
138.9
 20
3
 11
158.3
 21
3
  0
LINE
  8
0
 10
158.3
 20
3
 11
158.3
 21
0
  0
LINE
  8
0
 10
158.3
 20
0
 11
177.7
 21
0
  0
LINE
  8
0
 10
177.7
 20
0
 11
177.7
 21
3
  0
LINE
  8
0
 10
177.7
 20
3
 11
197
 21
3
  0
LINE
  8
0
 10
197
 20
3
 11
197
 21
13.9333
  0
LINE
  8
0
 10
197
 20
13.9333
 11
200
 21
13.9333
  0
LINE
  8
0
 10
200
 20
13.9333
 11
200
 21
24.5667
  0
LINE
  8
0
 10
200
 20
24.5667
 11
197
 21
24.5667
  0
LINE
  8
0
 10
197
 20
24.5667
 11
197
 21
35.6
  0
LINE
  8
0
 10
197
 20
35.6
 11
200
 21
35.6
  0
LINE
  8
0
 10
200
 20
35.6
 11
200
 21
46.2333
  0
LINE
  8
0
 10
200
 20
46.2333
 11
197
 21
46.2333
  0
LINE
  8
0
 10
197
 20
46.2333
 11
197
 21
57.2667
  0
LINE
  8
0
 10
197
 20
57.2667
 11
200
 21
57.2667
  0
LINE
  8
0
 10
200
 20
57.2667
 11
200
 21
68
  0
LINE
  8
0
 10
200
 20
68
 11
197.1
 21
68
  0
LINE
  8
0
 10
197.1
 20
68
 11
197.1
 21
71
  0
LINE
  8
0
 10
197.1
 20
71
 11
177.7
 21
71
  0
LINE
  8
0
 10
177.7
 20
71
 11
177.7
 21
68
  0
LINE
  8
0
 10
177.7
 20
68
 11
158.3
 21
68
  0
LINE
  8
0
 10
158.3
 20
68
 11
158.3
 21
71
  0
LINE
  8
0
 10
158.3
 20
71
 11
138.9
 21
71
  0
LINE
  8
0
 10
138.9
 20
71
 11
138.9
 21
68
  0
LINE
  8
0
 10
138.9
 20
68
 11
119.5
 21
68
  0
LINE
  8
0
 10
119.5
 20
68
 11
119.5
 21
71
  0
LINE
  8
0
 10
119.5
 20
71
 11
100.1
 21
71
  0
LINE
  8
0
 10
100.1
 20
71
 11
100.1
 21
68
  0
LINE
  8
0
 10
100.1
 20
68
 11
80.7
 21
68
  0
LINE
  8
0
 10
80.7
 20
68
 11
80.7
 21
71
  0
LINE
  8
0
 10
80.7
 20
71
 11
61.3
 21
71
  0
LINE
  8
0
 10
61.3
 20
71
 11
61.3
 21
68
  0
LINE
  8
0
 10
61.3
 20
68
 11
41.9
 21
68
  0
LINE
  8
0
 10
41.9
 20
68
 11
41.9
 21
71
  0
LINE
  8
0
 10
41.9
 20
71
 11
22.5
 21
71
  0
LINE
  8
0
 10
22.5
 20
71
 11
22.5
 21
68
  0
LINE
  8
0
 10
22.5
 20
68
 11
3
 21
68
  0
LINE
  8
0
 10
3
 20
68
 11
3
 21
57.0667
  0
LINE
  8
0
 10
3
 20
57.0667
 11
-0.0999908
 21
57.0667
  0
LINE
  8
0
 10
-0.0999908
 20
57.0667
 11
-0.0999908
 21
68
  0
LINE
  8
0
 10
-0.0999908
 20
68
 11
-25
 21
68
  0
LINE
  8
0
 10
-25
 20
68
 11
-25
 21
3
  0
LINE
  8
0
 10
-25
 20
3
 11
3.09999
 21
3
  0
LINE
  8
0
 10
3.09999
 20
3
 11
3.09999
 21
0
  0
LINE
  8
0
 10
3.09999
 20
0
 11
22.5
 21
0
  0
LINE
  8
0
 10
22.5
 20
0
 11
22.5
 21
3
  0
LINE
  8
0
 10
114.651
 20
25.003
 11
114.302
 21
25.0122
  0
LINE
  8
0
 10
114.302
 20
25.0122
 11
113.953
 21
25.0274
  0
LINE
  8
0
 10
113.953
 20
25.0274
 11
113.605
 21
25.0487
  0
LINE
  8
0
 10
113.605
 20
25.0487
 11
113.257
 21
25.0761
  0
LINE
  8
0
 10
113.257
 20
25.0761
 11
112.909
 21
25.1096
  0
LINE
  8
0
 10
112.909
 20
25.1096
 11
112.563
 21
25.1491
  0
LINE
  8
0
 10
112.563
 20
25.1491
 11
112.217
 21
25.1946
  0
LINE
  8
0
 10
112.217
 20
25.1946
 11
111.871
 21
25.2462
  0
LINE
  8
0
 10
111.871
 20
25.2462
 11
111.527
 21
25.3038
  0
LINE
  8
0
 10
111.527
 20
25.3038
 11
111.184
 21
25.3674
  0
LINE
  8
0
 10
111.184
 20
25.3674
 11
110.842
 21
25.437
  0
LINE
  8
0
 10
110.842
 20
25.437
 11
110.501
 21
25.5126
  0
LINE
  8
0
 10
110.501
 20
25.5126
 11
110.162
 21
25.5941
  0
LINE
  8
0
 10
110.162
 20
25.5941
 11
109.824
 21
25.6815
  0
LINE
  8
0
 10
109.824
 20
25.6815
 11
109.487
 21
25.7748
  0
LINE
  8
0
 10
109.487
 20
25.7748
 11
109.153
 21
25.8739
  0
LINE
  8
0
 10
109.153
 20
25.8739
 11
108.82
 21
25.9789
  0
LINE
  8
0
 10
108.82
 20
25.9789
 11
108.489
 21
26.0896
  0
LINE
  8
0
 10
108.489
 20
26.0896
 11
108.16
 21
26.2061
  0
LINE
  8
0
 10
108.16
 20
26.2061
 11
107.833
 21
26.3284
  0
LINE
  8
0
 10
107.833
 20
26.3284
 11
107.508
 21
26.4563
  0
LINE
  8
0
 10
107.508
 20
26.4563
 11
107.185
 21
26.5899
  0
LINE
  8
0
 10
107.185
 20
26.5899
 11
106.865
 21
26.7291
  0
LINE
  8
0
 10
106.865
 20
26.7291
 11
106.548
 21
26.8738
  0
LINE
  8
0
 10
106.548
 20
26.8738
 11
106.233
 21
27.0241
  0
LINE
  8
0
 10
106.233
 20
27.0241
 11
105.92
 21
27.1799
  0
LINE
  8
0
 10
105.92
 20
27.1799
 11
105.611
 21
27.341
  0
LINE
  8
0
 10
105.611
 20
27.341
 11
105.304
 21
27.5076
  0
LINE
  8
0
 10
105.304
 20
27.5076
 11
105
 21
27.6795
  0
LINE
  8
0
 10
105
 20
27.6795
 11
104.699
 21
27.8566
  0
LINE
  8
0
 10
104.699
 20
27.8566
 11
104.402
 21
28.039
  0
LINE
  8
0
 10
104.402
 20
28.039
 11
104.107
 21
28.2266
  0
LINE
  8
0
 10
104.107
 20
28.2266
 11
103.816
 21
28.4192
  0
LINE
  8
0
 10
103.816
 20
28.4192
 11
103.528
 21
28.617
  0
LINE
  8
0
 10
103.528
 20
28.617
 11
103.244
 21
28.8197
  0
LINE
  8
0
 10
103.244
 20
28.8197
 11
102.964
 21
29.0273
  0
LINE
  8
0
 10
102.964
 20
29.0273
 11
102.687
 21
29.2398
  0
LINE
  8
0
 10
102.687
 20
29.2398
 11
102.414
 21
29.4571
  0
LINE
  8
0
 10
102.414
 20
29.4571
 11
102.144
 21
29.6791
  0
LINE
  8
0
 10
102.144
 20
29.6791
 11
101.879
 21
29.9058
  0
LINE
  8
0
 10
101.879
 20
29.9058
 11
101.617
 21
30.1371
  0
LINE
  8
0
 10
101.617
 20
30.1371
 11
101.36
 21
30.3729
  0
LINE
  8
0
 10
101.36
 20
30.3729
 11
101.107
 21
30.6132
  0
LINE
  8
0
 10
101.107
 20
30.6132
 11
100.858
 21
30.8579
  0
LINE
  8
0
 10
100.858
 20
30.8579
 11
100.613
 21
31.1068
  0
LINE
  8
0
 10
100.613
 20
31.1068
 11
100.373
 21
31.36
  0
LINE
  8
0
 10
100.373
 20
31.36
 11
100.137
 21
31.6174
  0
LINE
  8
0
 10
100.137
 20
31.6174
 11
99.9058
 21
31.8788
  0
LINE
  8
0
 10
99.9058
 20
31.8788
 11
99.6791
 21
32.1442
  0
LINE
  8
0
 10
99.6791
 20
32.1442
 11
99.4571
 21
32.4136
  0
LINE
  8
0
 10
99.4571
 20
32.4136
 11
99.2398
 21
32.6868
  0
LINE
  8
0
 10
99.2398
 20
32.6868
 11
99.0273
 21
32.9637
  0
LINE
  8
0
 10
99.0273
 20
32.9637
 11
98.8197
 21
33.2443
  0
LINE
  8
0
 10
98.8197
 20
33.2443
 11
98.617
 21
33.5285
  0
LINE
  8
0
 10
98.617
 20
33.5285
 11
98.4193
 21
33.8161
  0
LINE
  8
0
 10
98.4193
 20
33.8161
 11
98.2266
 21
34.1072
  0
LINE
  8
0
 10
98.2266
 20
34.1072
 11
98.039
 21
34.4016
  0
LINE
  8
0
 10
98.039
 20
34.4016
 11
97.8566
 21
34.6992
  0
LINE
  8
0
 10
97.8566
 20
34.6992
 11
97.6795
 21
35
  0
LINE
  8
0
 10
97.6795
 20
35
 11
97.5076
 21
35.3038
  0
LINE
  8
0
 10
97.5076
 20
35.3038
 11
97.341
 21
35.6106
  0
LINE
  8
0
 10
97.341
 20
35.6106
 11
97.1799
 21
35.9202
  0
LINE
  8
0
 10
97.1799
 20
35.9202
 11
97.0241
 21
36.2326
  0
LINE
  8
0
 10
97.0241
 20
36.2326
 11
96.8738
 21
36.5476
  0
LINE
  8
0
 10
96.8738
 20
36.5476
 11
96.7291
 21
36.8653
  0
LINE
  8
0
 10
96.7291
 20
36.8653
 11
96.5899
 21
37.1854
  0
LINE
  8
0
 10
96.5899
 20
37.1854
 11
96.4563
 21
37.5079
  0
LINE
  8
0
 10
96.4563
 20
37.5079
 11
96.3284
 21
37.8326
  0
LINE
  8
0
 10
96.3284
 20
37.8326
 11
96.2061
 21
38.1596
  0
LINE
  8
0
 10
96.2061
 20
38.1596
 11
96.0896
 21
38.4886
  0
LINE
  8
0
 10
96.0896
 20
38.4886
 11
95.9789
 21
38.8197
  0
LINE
  8
0
 10
95.9789
 20
38.8197
 11
95.8739
 21
39.1526
  0
LINE
  8
0
 10
95.8739
 20
39.1526
 11
95.7748
 21
39.4872
  0
LINE
  8
0
 10
95.7748
 20
39.4872
 11
95.6815
 21
39.8236
  0
LINE
  8
0
 10
95.6815
 20
39.8236
 11
95.5941
 21
40.1616
  0
LINE
  8
0
 10
95.5941
 20
40.1616
 11
95.5126
 21
40.501
  0
LINE
  8
0
 10
95.5126
 20
40.501
 11
95.437
 21
40.8418
  0
LINE
  8
0
 10
95.437
 20
40.8418
 11
95.3674
 21
41.1838
  0
LINE
  8
0
 10
95.3674
 20
41.1838
 11
95.3038
 21
41.527
  0
LINE
  8
0
 10
95.3038
 20
41.527
 11
95.2462
 21
41.8713
  0
LINE
  8
0
 10
95.2462
 20
41.8713
 11
95.1946
 21
42.2165
  0
LINE
  8
0
 10
95.1946
 20
42.2165
 11
95.1491
 21
42.5626
  0
LINE
  8
0
 10
95.1491
 20
42.5626
 11
95.1096
 21
42.9094
  0
LINE
  8
0
 10
95.1096
 20
42.9094
 11
95.0761
 21
43.2569
  0
LINE
  8
0
 10
95.0761
 20
43.2569
 11
95.0487
 21
43.6049
  0
LINE
  8
0
 10
95.0487
 20
43.6049
 11
95.0274
 21
43.9533
  0
LINE
  8
0
 10
95.0274
 20
43.9533
 11
95.0122
 21
44.302
  0
LINE
  8
0
 10
95.0122
 20
44.302
 11
95.003
 21
44.6509
  0
LINE
  8
0
 10
95.003
 20
44.6509
 11
95
 21
45
  0
LINE
  8
0
 10
95
 20
45
 11
95.003
 21
45.349
  0
LINE
  8
0
 10
95.003
 20
45.349
 11
95.0122
 21
45.698
  0
LINE
  8
0
 10
95.0122
 20
45.698
 11
95.0274
 21
46.0467
  0
LINE
  8
0
 10
95.0274
 20
46.0467
 11
95.0487
 21
46.3951
  0
LINE
  8
0
 10
95.0487
 20
46.3951
 11
95.0761
 21
46.7431
  0
LINE
  8
0
 10
95.0761
 20
46.7431
 11
95.1096
 21
47.0906
  0
LINE
  8
0
 10
95.1096
 20
47.0906
 11
95.1491
 21
47.4374
  0
LINE
  8
0
 10
95.1491
 20
47.4374
 11
95.1946
 21
47.7835
  0
LINE
  8
0
 10
95.1946
 20
47.7835
 11
95.2462
 21
48.1287
  0
LINE
  8
0
 10
95.2462
 20
48.1287
 11
95.3038
 21
48.473
  0
LINE
  8
0
 10
95.3038
 20
48.473
 11
95.3674
 21
48.8162
  0
LINE
  8
0
 10
95.3674
 20
48.8162
 11
95.437
 21
49.1582
  0
LINE
  8
0
 10
95.437
 20
49.1582
 11
95.5126
 21
49.499
  0
LINE
  8
0
 10
95.5126
 20
49.499
 11
95.5941
 21
49.8384
  0
LINE
  8
0
 10
95.5941
 20
49.8384
 11
95.6815
 21
50.1764
  0
LINE
  8
0
 10
95.6815
 20
50.1764
 11
95.7748
 21
50.5127
  0
LINE
  8
0
 10
95.7748
 20
50.5127
 11
95.8739
 21
50.8474
  0
LINE
  8
0
 10
95.8739
 20
50.8474
 11
95.9789
 21
51.1803
  0
LINE
  8
0
 10
95.9789
 20
51.1803
 11
96.0896
 21
51.5114
  0
LINE
  8
0
 10
96.0896
 20
51.5114
 11
96.2061
 21
51.8404
  0
LINE
  8
0
 10
96.2061
 20
51.8404
 11
96.3284
 21
52.1674
  0
LINE
  8
0
 10
96.3284
 20
52.1674
 11
96.4563
 21
52.4921
  0
LINE
  8
0
 10
96.4563
 20
52.4921
 11
96.5899
 21
52.8146
  0
LINE
  8
0
 10
96.5899
 20
52.8146
 11
96.7291
 21
53.1347
  0
LINE
  8
0
 10
96.7291
 20
53.1347
 11
96.8738
 21
53.4524
  0
LINE
  8
0
 10
96.8738
 20
53.4524
 11
97.0241
 21
53.7674
  0
LINE
  8
0
 10
97.0241
 20
53.7674
 11
97.1799
 21
54.0798
  0
LINE
  8
0
 10
97.1799
 20
54.0798
 11
97.341
 21
54.3894
  0
LINE
  8
0
 10
97.341
 20
54.3894
 11
97.5076
 21
54.6962
  0
LINE
  8
0
 10
97.5076
 20
54.6962
 11
97.6795
 21
55
  0
LINE
  8
0
 10
97.6795
 20
55
 11
97.8566
 21
55.3008
  0
LINE
  8
0
 10
97.8566
 20
55.3008
 11
98.039
 21
55.5984
  0
LINE
  8
0
 10
98.039
 20
55.5984
 11
98.2266
 21
55.8928
  0
LINE
  8
0
 10
98.2266
 20
55.8928
 11
98.4193
 21
56.1839
  0
LINE
  8
0
 10
98.4193
 20
56.1839
 11
98.617
 21
56.4715
  0
LINE
  8
0
 10
98.617
 20
56.4715
 11
98.8197
 21
56.7557
  0
LINE
  8
0
 10
98.8197
 20
56.7557
 11
99.0273
 21
57.0363
  0
LINE
  8
0
 10
99.0273
 20
57.0363
 11
99.2398
 21
57.3132
  0
LINE
  8
0
 10
99.2398
 20
57.3132
 11
99.4571
 21
57.5864
  0
LINE
  8
0
 10
99.4571
 20
57.5864
 11
99.6791
 21
57.8557
  0
LINE
  8
0
 10
99.6791
 20
57.8557
 11
99.9058
 21
58.1212
  0
LINE
  8
0
 10
99.9058
 20
58.1212
 11
100.137
 21
58.3826
  0
LINE
  8
0
 10
100.137
 20
58.3826
 11
100.373
 21
58.64
  0
LINE
  8
0
 10
100.373
 20
58.64
 11
100.613
 21
58.8932
  0
LINE
  8
0
 10
100.613
 20
58.8932
 11
100.858
 21
59.1421
  0
LINE
  8
0
 10
100.858
 20
59.1421
 11
101.107
 21
59.3868
  0
LINE
  8
0
 10
101.107
 20
59.3868
 11
101.36
 21
59.6271
  0
LINE
  8
0
 10
101.36
 20
59.6271
 11
101.617
 21
59.8629
  0
LINE
  8
0
 10
101.617
 20
59.8629
 11
101.879
 21
60.0942
  0
LINE
  8
0
 10
101.879
 20
60.0942
 11
102.144
 21
60.3209
  0
LINE
  8
0
 10
102.144
 20
60.3209
 11
102.414
 21
60.5429
  0
LINE
  8
0
 10
102.414
 20
60.5429
 11
102.687
 21
60.7602
  0
LINE
  8
0
 10
102.687
 20
60.7602
 11
102.964
 21
60.9727
  0
LINE
  8
0
 10
102.964
 20
60.9727
 11
103.244
 21
61.1803
  0
LINE
  8
0
 10
103.244
 20
61.1803
 11
103.528
 21
61.383
  0
LINE
  8
0
 10
103.528
 20
61.383
 11
103.816
 21
61.5807
  0
LINE
  8
0
 10
103.816
 20
61.5807
 11
104.107
 21
61.7734
  0
LINE
  8
0
 10
104.107
 20
61.7734
 11
104.402
 21
61.961
  0
LINE
  8
0
 10
104.402
 20
61.961
 11
104.699
 21
62.1433
  0
LINE
  8
0
 10
104.699
 20
62.1433
 11
105
 21
62.3205
  0
LINE
  8
0
 10
105
 20
62.3205
 11
105.304
 21
62.4924
  0
LINE
  8
0
 10
105.304
 20
62.4924
 11
105.611
 21
62.659
  0
LINE
  8
0
 10
105.611
 20
62.659
 11
105.92
 21
62.8201
  0
LINE
  8
0
 10
105.92
 20
62.8201
 11
106.233
 21
62.9759
  0
LINE
  8
0
 10
106.233
 20
62.9759
 11
106.548
 21
63.1261
  0
LINE
  8
0
 10
106.548
 20
63.1261
 11
106.865
 21
63.2709
  0
LINE
  8
0
 10
106.865
 20
63.2709
 11
107.185
 21
63.4101
  0
LINE
  8
0
 10
107.185
 20
63.4101
 11
107.508
 21
63.5437
  0
LINE
  8
0
 10
107.508
 20
63.5437
 11
107.833
 21
63.6716
  0
LINE
  8
0
 10
107.833
 20
63.6716
 11
108.16
 21
63.7939
  0
LINE
  8
0
 10
108.16
 20
63.7939
 11
108.489
 21
63.9104
  0
LINE
  8
0
 10
108.489
 20
63.9104
 11
108.82
 21
64.0211
  0
LINE
  8
0
 10
108.82
 20
64.0211
 11
109.153
 21
64.1261
  0
LINE
  8
0
 10
109.153
 20
64.1261
 11
109.487
 21
64.2252
  0
LINE
  8
0
 10
109.487
 20
64.2252
 11
109.824
 21
64.3185
  0
LINE
  8
0
 10
109.824
 20
64.3185
 11
110.162
 21
64.4059
  0
LINE
  8
0
 10
110.162
 20
64.4059
 11
110.501
 21
64.4874
  0
LINE
  8
0
 10
110.501
 20
64.4874
 11
110.842
 21
64.5629
  0
LINE
  8
0
 10
110.842
 20
64.5629
 11
111.184
 21
64.6325
  0
LINE
  8
0
 10
111.184
 20
64.6325
 11
111.527
 21
64.6962
  0
LINE
  8
0
 10
111.527
 20
64.6962
 11
111.871
 21
64.7538
  0
LINE
  8
0
 10
111.871
 20
64.7538
 11
112.217
 21
64.8054
  0
LINE
  8
0
 10
112.217
 20
64.8054
 11
112.563
 21
64.8509
  0
LINE
  8
0
 10
112.563
 20
64.8509
 11
112.909
 21
64.8904
  0
LINE
  8
0
 10
112.909
 20
64.8904
 11
113.257
 21
64.9239
  0
LINE
  8
0
 10
113.257
 20
64.9239
 11
113.605
 21
64.9513
  0
LINE
  8
0
 10
113.605
 20
64.9513
 11
113.953
 21
64.9726
  0
LINE
  8
0
 10
113.953
 20
64.9726
 11
114.302
 21
64.9878
  0
LINE
  8
0
 10
114.302
 20
64.9878
 11
114.651
 21
64.9969
  0
LINE
  8
0
 10
114.651
 20
64.9969
 11
115
 21
65
  0
LINE
  8
0
 10
115
 20
65
 11
115.349
 21
64.9969
  0
LINE
  8
0
 10
115.349
 20
64.9969
 11
115.698
 21
64.9878
  0
LINE
  8
0
 10
115.698
 20
64.9878
 11
116.047
 21
64.9726
  0
LINE
  8
0
 10
116.047
 20
64.9726
 11
116.395
 21
64.9513
  0
LINE
  8
0
 10
116.395
 20
64.9513
 11
116.743
 21
64.9239
  0
LINE
  8
0
 10
116.743
 20
64.9239
 11
117.091
 21
64.8904
  0
LINE
  8
0
 10
117.091
 20
64.8904
 11
117.437
 21
64.8509
  0
LINE
  8
0
 10
117.437
 20
64.8509
 11
117.783
 21
64.8054
  0
LINE
  8
0
 10
117.783
 20
64.8054
 11
118.129
 21
64.7538
  0
LINE
  8
0
 10
118.129
 20
64.7538
 11
118.473
 21
64.6962
  0
LINE
  8
0
 10
118.473
 20
64.6962
 11
118.816
 21
64.6325
  0
LINE
  8
0
 10
118.816
 20
64.6325
 11
119.158
 21
64.5629
  0
LINE
  8
0
 10
119.158
 20
64.5629
 11
119.499
 21
64.4874
  0
LINE
  8
0
 10
119.499
 20
64.4874
 11
119.838
 21
64.4059
  0
LINE
  8
0
 10
119.838
 20
64.4059
 11
120.176
 21
64.3185
  0
LINE
  8
0
 10
120.176
 20
64.3185
 11
120.513
 21
64.2252
  0
LINE
  8
0
 10
120.513
 20
64.2252
 11
120.847
 21
64.1261
  0
LINE
  8
0
 10
120.847
 20
64.1261
 11
121.18
 21
64.0211
  0
LINE
  8
0
 10
121.18
 20
64.0211
 11
121.511
 21
63.9104
  0
LINE
  8
0
 10
121.511
 20
63.9104
 11
121.84
 21
63.7939
  0
LINE
  8
0
 10
121.84
 20
63.7939
 11
122.167
 21
63.6716
  0
LINE
  8
0
 10
122.167
 20
63.6716
 11
122.492
 21
63.5437
  0
LINE
  8
0
 10
122.492
 20
63.5437
 11
122.815
 21
63.4101
  0
LINE
  8
0
 10
122.815
 20
63.4101
 11
123.135
 21
63.2709
  0
LINE
  8
0
 10
123.135
 20
63.2709
 11
123.452
 21
63.1261
  0
LINE
  8
0
 10
123.452
 20
63.1261
 11
123.767
 21
62.9759
  0
LINE
  8
0
 10
123.767
 20
62.9759
 11
124.08
 21
62.8201
  0
LINE
  8
0
 10
124.08
 20
62.8201
 11
124.389
 21
62.659
  0
LINE
  8
0
 10
124.389
 20
62.659
 11
124.696
 21
62.4924
  0
LINE
  8
0
 10
124.696
 20
62.4924
 11
125
 21
62.3205
  0
LINE
  8
0
 10
125
 20
62.3205
 11
125.301
 21
62.1433
  0
LINE
  8
0
 10
125.301
 20
62.1433
 11
125.598
 21
61.961
  0
LINE
  8
0
 10
125.598
 20
61.961
 11
125.893
 21
61.7734
  0
LINE
  8
0
 10
125.893
 20
61.7734
 11
126.184
 21
61.5807
  0
LINE
  8
0
 10
126.184
 20
61.5807
 11
126.472
 21
61.383
  0
LINE
  8
0
 10
126.472
 20
61.383
 11
126.756
 21
61.1803
  0
LINE
  8
0
 10
126.756
 20
61.1803
 11
127.036
 21
60.9727
  0
LINE
  8
0
 10
127.036
 20
60.9727
 11
127.313
 21
60.7602
  0
LINE
  8
0
 10
127.313
 20
60.7602
 11
127.586
 21
60.5429
  0
LINE
  8
0
 10
127.586
 20
60.5429
 11
127.856
 21
60.3209
  0
LINE
  8
0
 10
127.856
 20
60.3209
 11
128.121
 21
60.0942
  0
LINE
  8
0
 10
128.121
 20
60.0942
 11
128.383
 21
59.8629
  0
LINE
  8
0
 10
128.383
 20
59.8629
 11
128.64
 21
59.6271
  0
LINE
  8
0
 10
128.64
 20
59.6271
 11
128.893
 21
59.3868
  0
LINE
  8
0
 10
128.893
 20
59.3868
 11
129.142
 21
59.1421
  0
LINE
  8
0
 10
129.142
 20
59.1421
 11
129.387
 21
58.8932
  0
LINE
  8
0
 10
129.387
 20
58.8932
 11
129.627
 21
58.64
  0
LINE
  8
0
 10
129.627
 20
58.64
 11
129.863
 21
58.3826
  0
LINE
  8
0
 10
129.863
 20
58.3826
 11
130.094
 21
58.1212
  0
LINE
  8
0
 10
130.094
 20
58.1212
 11
130.321
 21
57.8557
  0
LINE
  8
0
 10
130.321
 20
57.8557
 11
130.543
 21
57.5864
  0
LINE
  8
0
 10
130.543
 20
57.5864
 11
130.76
 21
57.3132
  0
LINE
  8
0
 10
130.76
 20
57.3132
 11
130.973
 21
57.0363
  0
LINE
  8
0
 10
130.973
 20
57.0363
 11
131.18
 21
56.7557
  0
LINE
  8
0
 10
131.18
 20
56.7557
 11
131.383
 21
56.4715
  0
LINE
  8
0
 10
131.383
 20
56.4715
 11
131.581
 21
56.1839
  0
LINE
  8
0
 10
131.581
 20
56.1839
 11
131.773
 21
55.8928
  0
LINE
  8
0
 10
131.773
 20
55.8928
 11
131.961
 21
55.5984
  0
LINE
  8
0
 10
131.961
 20
55.5984
 11
132.143
 21
55.3008
  0
LINE
  8
0
 10
132.143
 20
55.3008
 11
132.321
 21
55
  0
LINE
  8
0
 10
132.321
 20
55
 11
132.492
 21
54.6962
  0
LINE
  8
0
 10
132.492
 20
54.6962
 11
132.659
 21
54.3894
  0
LINE
  8
0
 10
132.659
 20
54.3894
 11
132.82
 21
54.0798
  0
LINE
  8
0
 10
132.82
 20
54.0798
 11
132.976
 21
53.7674
  0
LINE
  8
0
 10
132.976
 20
53.7674
 11
133.126
 21
53.4524
  0
LINE
  8
0
 10
133.126
 20
53.4524
 11
133.271
 21
53.1347
  0
LINE
  8
0
 10
133.271
 20
53.1347
 11
133.41
 21
52.8146
  0
LINE
  8
0
 10
133.41
 20
52.8146
 11
133.544
 21
52.4921
  0
LINE
  8
0
 10
133.544
 20
52.4921
 11
133.672
 21
52.1674
  0
LINE
  8
0
 10
133.672
 20
52.1674
 11
133.794
 21
51.8404
  0
LINE
  8
0
 10
133.794
 20
51.8404
 11
133.91
 21
51.5114
  0
LINE
  8
0
 10
133.91
 20
51.5114
 11
134.021
 21
51.1803
  0
LINE
  8
0
 10
134.021
 20
51.1803
 11
134.126
 21
50.8474
  0
LINE
  8
0
 10
134.126
 20
50.8474
 11
134.225
 21
50.5127
  0
LINE
  8
0
 10
134.225
 20
50.5127
 11
134.319
 21
50.1764
  0
LINE
  8
0
 10
134.319
 20
50.1764
 11
134.406
 21
49.8384
  0
LINE
  8
0
 10
134.406
 20
49.8384
 11
134.487
 21
49.499
  0
LINE
  8
0
 10
134.487
 20
49.499
 11
134.563
 21
49.1582
  0
LINE
  8
0
 10
134.563
 20
49.1582
 11
134.633
 21
48.8162
  0
LINE
  8
0
 10
134.633
 20
48.8162
 11
134.696
 21
48.473
  0
LINE
  8
0
 10
134.696
 20
48.473
 11
134.754
 21
48.1287
  0
LINE
  8
0
 10
134.754
 20
48.1287
 11
134.805
 21
47.7835
  0
LINE
  8
0
 10
134.805
 20
47.7835
 11
134.851
 21
47.4374
  0
LINE
  8
0
 10
134.851
 20
47.4374
 11
134.89
 21
47.0906
  0
LINE
  8
0
 10
134.89
 20
47.0906
 11
134.924
 21
46.7431
  0
LINE
  8
0
 10
134.924
 20
46.7431
 11
134.951
 21
46.3951
  0
LINE
  8
0
 10
134.951
 20
46.3951
 11
134.973
 21
46.0467
  0
LINE
  8
0
 10
134.973
 20
46.0467
 11
134.988
 21
45.698
  0
LINE
  8
0
 10
134.988
 20
45.698
 11
134.997
 21
45.349
  0
LINE
  8
0
 10
134.997
 20
45.349
 11
135
 21
45
  0
LINE
  8
0
 10
135
 20
45
 11
134.997
 21
44.6509
  0
LINE
  8
0
 10
134.997
 20
44.6509
 11
134.988
 21
44.302
  0
LINE
  8
0
 10
134.988
 20
44.302
 11
134.973
 21
43.9533
  0
LINE
  8
0
 10
134.973
 20
43.9533
 11
134.951
 21
43.6049
  0
LINE
  8
0
 10
134.951
 20
43.6049
 11
134.924
 21
43.2569
  0
LINE
  8
0
 10
134.924
 20
43.2569
 11
134.89
 21
42.9094
  0
LINE
  8
0
 10
134.89
 20
42.9094
 11
134.851
 21
42.5626
  0
LINE
  8
0
 10
134.851
 20
42.5626
 11
134.805
 21
42.2165
  0
LINE
  8
0
 10
134.805
 20
42.2165
 11
134.754
 21
41.8713
  0
LINE
  8
0
 10
134.754
 20
41.8713
 11
134.696
 21
41.527
  0
LINE
  8
0
 10
134.696
 20
41.527
 11
134.633
 21
41.1838
  0
LINE
  8
0
 10
134.633
 20
41.1838
 11
134.563
 21
40.8418
  0
LINE
  8
0
 10
134.563
 20
40.8418
 11
134.487
 21
40.501
  0
LINE
  8
0
 10
134.487
 20
40.501
 11
134.406
 21
40.1616
  0
LINE
  8
0
 10
134.406
 20
40.1616
 11
134.319
 21
39.8236
  0
LINE
  8
0
 10
134.319
 20
39.8236
 11
134.225
 21
39.4872
  0
LINE
  8
0
 10
134.225
 20
39.4872
 11
134.126
 21
39.1526
  0
LINE
  8
0
 10
134.126
 20
39.1526
 11
134.021
 21
38.8197
  0
LINE
  8
0
 10
134.021
 20
38.8197
 11
133.91
 21
38.4886
  0
LINE
  8
0
 10
133.91
 20
38.4886
 11
133.794
 21
38.1596
  0
LINE
  8
0
 10
133.794
 20
38.1596
 11
133.672
 21
37.8326
  0
LINE
  8
0
 10
133.672
 20
37.8326
 11
133.544
 21
37.5079
  0
LINE
  8
0
 10
133.544
 20
37.5079
 11
133.41
 21
37.1854
  0
LINE
  8
0
 10
133.41
 20
37.1854
 11
133.271
 21
36.8653
  0
LINE
  8
0
 10
133.271
 20
36.8653
 11
133.126
 21
36.5476
  0
LINE
  8
0
 10
133.126
 20
36.5476
 11
132.976
 21
36.2326
  0
LINE
  8
0
 10
132.976
 20
36.2326
 11
132.82
 21
35.9202
  0
LINE
  8
0
 10
132.82
 20
35.9202
 11
132.659
 21
35.6106
  0
LINE
  8
0
 10
132.659
 20
35.6106
 11
132.492
 21
35.3038
  0
LINE
  8
0
 10
132.492
 20
35.3038
 11
132.321
 21
35
  0
LINE
  8
0
 10
132.321
 20
35
 11
132.143
 21
34.6992
  0
LINE
  8
0
 10
132.143
 20
34.6992
 11
131.961
 21
34.4016
  0
LINE
  8
0
 10
131.961
 20
34.4016
 11
131.773
 21
34.1072
  0
LINE
  8
0
 10
131.773
 20
34.1072
 11
131.581
 21
33.8161
  0
LINE
  8
0
 10
131.581
 20
33.8161
 11
131.383
 21
33.5285
  0
LINE
  8
0
 10
131.383
 20
33.5285
 11
131.18
 21
33.2443
  0
LINE
  8
0
 10
131.18
 20
33.2443
 11
130.973
 21
32.9637
  0
LINE
  8
0
 10
130.973
 20
32.9637
 11
130.76
 21
32.6868
  0
LINE
  8
0
 10
130.76
 20
32.6868
 11
130.543
 21
32.4136
  0
LINE
  8
0
 10
130.543
 20
32.4136
 11
130.321
 21
32.1442
  0
LINE
  8
0
 10
130.321
 20
32.1442
 11
130.094
 21
31.8788
  0
LINE
  8
0
 10
130.094
 20
31.8788
 11
129.863
 21
31.6174
  0
LINE
  8
0
 10
129.863
 20
31.6174
 11
129.627
 21
31.36
  0
LINE
  8
0
 10
129.627
 20
31.36
 11
129.387
 21
31.1068
  0
LINE
  8
0
 10
129.387
 20
31.1068
 11
129.142
 21
30.8579
  0
LINE
  8
0
 10
129.142
 20
30.8579
 11
128.893
 21
30.6132
  0
LINE
  8
0
 10
128.893
 20
30.6132
 11
128.64
 21
30.3729
  0
LINE
  8
0
 10
128.64
 20
30.3729
 11
128.383
 21
30.1371
  0
LINE
  8
0
 10
128.383
 20
30.1371
 11
128.121
 21
29.9058
  0
LINE
  8
0
 10
128.121
 20
29.9058
 11
127.856
 21
29.6791
  0
LINE
  8
0
 10
127.856
 20
29.6791
 11
127.586
 21
29.4571
  0
LINE
  8
0
 10
127.586
 20
29.4571
 11
127.313
 21
29.2398
  0
LINE
  8
0
 10
127.313
 20
29.2398
 11
127.036
 21
29.0273
  0
LINE
  8
0
 10
127.036
 20
29.0273
 11
126.756
 21
28.8197
  0
LINE
  8
0
 10
126.756
 20
28.8197
 11
126.472
 21
28.617
  0
LINE
  8
0
 10
126.472
 20
28.617
 11
126.184
 21
28.4192
  0
LINE
  8
0
 10
126.184
 20
28.4192
 11
125.893
 21
28.2266
  0
LINE
  8
0
 10
125.893
 20
28.2266
 11
125.598
 21
28.039
  0
LINE
  8
0
 10
125.598
 20
28.039
 11
125.301
 21
27.8566
  0
LINE
  8
0
 10
125.301
 20
27.8566
 11
125
 21
27.6795
  0
LINE
  8
0
 10
125
 20
27.6795
 11
124.696
 21
27.5076
  0
LINE
  8
0
 10
124.696
 20
27.5076
 11
124.389
 21
27.341
  0
LINE
  8
0
 10
124.389
 20
27.341
 11
124.08
 21
27.1799
  0
LINE
  8
0
 10
124.08
 20
27.1799
 11
123.767
 21
27.0241
  0
LINE
  8
0
 10
123.767
 20
27.0241
 11
123.452
 21
26.8738
  0
LINE
  8
0
 10
123.452
 20
26.8738
 11
123.135
 21
26.7291
  0
LINE
  8
0
 10
123.135
 20
26.7291
 11
122.815
 21
26.5899
  0
LINE
  8
0
 10
122.815
 20
26.5899
 11
122.492
 21
26.4563
  0
LINE
  8
0
 10
122.492
 20
26.4563
 11
122.167
 21
26.3284
  0
LINE
  8
0
 10
122.167
 20
26.3284
 11
121.84
 21
26.2061
  0
LINE
  8
0
 10
121.84
 20
26.2061
 11
121.511
 21
26.0896
  0
LINE
  8
0
 10
121.511
 20
26.0896
 11
121.18
 21
25.9789
  0
LINE
  8
0
 10
121.18
 20
25.9789
 11
120.847
 21
25.8739
  0
LINE
  8
0
 10
120.847
 20
25.8739
 11
120.513
 21
25.7748
  0
LINE
  8
0
 10
120.513
 20
25.7748
 11
120.176
 21
25.6815
  0
LINE
  8
0
 10
120.176
 20
25.6815
 11
119.838
 21
25.5941
  0
LINE
  8
0
 10
119.838
 20
25.5941
 11
119.499
 21
25.5126
  0
LINE
  8
0
 10
119.499
 20
25.5126
 11
119.158
 21
25.437
  0
LINE
  8
0
 10
119.158
 20
25.437
 11
118.816
 21
25.3674
  0
LINE
  8
0
 10
118.816
 20
25.3674
 11
118.473
 21
25.3038
  0
LINE
  8
0
 10
118.473
 20
25.3038
 11
118.129
 21
25.2462
  0
LINE
  8
0
 10
118.129
 20
25.2462
 11
117.783
 21
25.1946
  0
LINE
  8
0
 10
117.783
 20
25.1946
 11
117.437
 21
25.1491
  0
LINE
  8
0
 10
117.437
 20
25.1491
 11
117.091
 21
25.1096
  0
LINE
  8
0
 10
117.091
 20
25.1096
 11
116.743
 21
25.0761
  0
LINE
  8
0
 10
116.743
 20
25.0761
 11
116.395
 21
25.0487
  0
LINE
  8
0
 10
116.395
 20
25.0487
 11
116.047
 21
25.0274
  0
LINE
  8
0
 10
116.047
 20
25.0274
 11
115.698
 21
25.0122
  0
LINE
  8
0
 10
115.698
 20
25.0122
 11
115.349
 21
25.003
  0
LINE
  8
0
 10
115.349
 20
25.003
 11
115
 21
25
  0
LINE
  8
0
 10
115
 20
25
 11
114.651
 21
25.003
  0
LINE
  8
0
 10
-17.5
 20
48.3
 11
-17.824
 21
48.317
  0
LINE
  8
0
 10
-17.824
 20
48.317
 11
-18.1445
 21
48.3677
  0
LINE
  8
0
 10
-18.1445
 20
48.3677
 11
-18.4579
 21
48.4517
  0
LINE
  8
0
 10
-18.4579
 20
48.4517
 11
-18.7609
 21
48.568
  0
LINE
  8
0
 10
-18.7609
 20
48.568
 11
-19.05
 21
48.7153
  0
LINE
  8
0
 10
-19.05
 20
48.7153
 11
-19.3221
 21
48.892
  0
LINE
  8
0
 10
-19.3221
 20
48.892
 11
-19.5743
 21
49.0963
  0
LINE
  8
0
 10
-19.5743
 20
49.0963
 11
-19.8037
 21
49.3257
  0
LINE
  8
0
 10
-19.8037
 20
49.3257
 11
-20.0079
 21
49.5779
  0
LINE
  8
0
 10
-20.0079
 20
49.5779
 11
-20.1847
 21
49.85
  0
LINE
  8
0
 10
-20.1847
 20
49.85
 11
-20.332
 21
50.1391
  0
LINE
  8
0
 10
-20.332
 20
50.1391
 11
-20.4483
 21
50.442
  0
LINE
  8
0
 10
-20.4483
 20
50.442
 11
-20.5323
 21
50.7555
  0
LINE
  8
0
 10
-20.5323
 20
50.7555
 11
-20.583
 21
51.076
  0
LINE
  8
0
 10
-20.583
 20
51.076
 11
-20.6
 21
51.4
  0
LINE
  8
0
 10
-20.6
 20
51.4
 11
-20.583
 21
51.724
  0
LINE
  8
0
 10
-20.583
 20
51.724
 11
-20.5323
 21
52.0445
  0
LINE
  8
0
 10
-20.5323
 20
52.0445
 11
-20.4483
 21
52.3579
  0
LINE
  8
0
 10
-20.4483
 20
52.3579
 11
-20.332
 21
52.6609
  0
LINE
  8
0
 10
-20.332
 20
52.6609
 11
-20.1847
 21
52.95
  0
LINE
  8
0
 10
-20.1847
 20
52.95
 11
-20.0079
 21
53.2221
  0
LINE
  8
0
 10
-20.0079
 20
53.2221
 11
-19.8037
 21
53.4743
  0
LINE
  8
0
 10
-19.8037
 20
53.4743
 11
-19.5743
 21
53.7038
  0
LINE
  8
0
 10
-19.5743
 20
53.7038
 11
-19.3221
 21
53.9079
  0
LINE
  8
0
 10
-19.3221
 20
53.9079
 11
-19.05
 21
54.0847
  0
LINE
  8
0
 10
-19.05
 20
54.0847
 11
-18.7609
 21
54.232
  0
LINE
  8
0
 10
-18.7609
 20
54.232
 11
-18.4579
 21
54.3483
  0
LINE
  8
0
 10
-18.4579
 20
54.3483
 11
-18.1445
 21
54.4323
  0
LINE
  8
0
 10
-18.1445
 20
54.4323
 11
-17.824
 21
54.483
  0
LINE
  8
0
 10
-17.824
 20
54.483
 11
-17.5
 21
54.5
  0
LINE
  8
0
 10
-17.5
 20
54.5
 11
-7.5
 21
54.5
  0
LINE
  8
0
 10
-7.5
 20
54.5
 11
-7.17595
 21
54.483
  0
LINE
  8
0
 10
-7.17595
 20
54.483
 11
-6.85547
 21
54.4323
  0
LINE
  8
0
 10
-6.85547
 20
54.4323
 11
-6.54204
 21
54.3483
  0
LINE
  8
0
 10
-6.54204
 20
54.3483
 11
-6.23911
 21
54.232
  0
LINE
  8
0
 10
-6.23911
 20
54.232
 11
-5.95
 21
54.0847
  0
LINE
  8
0
 10
-5.95
 20
54.0847
 11
-5.67786
 21
53.9079
  0
LINE
  8
0
 10
-5.67786
 20
53.9079
 11
-5.42569
 21
53.7038
  0
LINE
  8
0
 10
-5.42569
 20
53.7038
 11
-5.19624
 21
53.4743
  0
LINE
  8
0
 10
-5.19624
 20
53.4743
 11
-4.99203
 21
53.2221
  0
LINE
  8
0
 10
-4.99203
 20
53.2221
 11
-4.81531
 21
52.95
  0
LINE
  8
0
 10
-4.81531
 20
52.95
 11
-4.668
 21
52.6609
  0
LINE
  8
0
 10
-4.668
 20
52.6609
 11
-4.55171
 21
52.3579
  0
LINE
  8
0
 10
-4.55171
 20
52.3579
 11
-4.46773
 21
52.0445
  0
LINE
  8
0
 10
-4.46773
 20
52.0445
 11
-4.41698
 21
51.724
  0
LINE
  8
0
 10
-4.41698
 20
51.724
 11
-4.39999
 21
51.4
  0
LINE
  8
0
 10
-4.39999
 20
51.4
 11
-4.41698
 21
51.076
  0
LINE
  8
0
 10
-4.41698
 20
51.076
 11
-4.46773
 21
50.7555
  0
LINE
  8
0
 10
-4.46773
 20
50.7555
 11
-4.55171
 21
50.442
  0
LINE
  8
0
 10
-4.55171
 20
50.442
 11
-4.668
 21
50.1391
  0
LINE
  8
0
 10
-4.668
 20
50.1391
 11
-4.81531
 21
49.85
  0
LINE
  8
0
 10
-4.81531
 20
49.85
 11
-4.99203
 21
49.5779
  0
LINE
  8
0
 10
-4.99203
 20
49.5779
 11
-5.19624
 21
49.3257
  0
LINE
  8
0
 10
-5.19624
 20
49.3257
 11
-5.42569
 21
49.0963
  0
LINE
  8
0
 10
-5.42569
 20
49.0963
 11
-5.67786
 21
48.892
  0
LINE
  8
0
 10
-5.67786
 20
48.892
 11
-5.95
 21
48.7153
  0
LINE
  8
0
 10
-5.95
 20
48.7153
 11
-6.23911
 21
48.568
  0
LINE
  8
0
 10
-6.23911
 20
48.568
 11
-6.54204
 21
48.4517
  0
LINE
  8
0
 10
-6.54204
 20
48.4517
 11
-6.85547
 21
48.3677
  0
LINE
  8
0
 10
-6.85547
 20
48.3677
 11
-7.17595
 21
48.317
  0
LINE
  8
0
 10
-7.17595
 20
48.317
 11
-7.5
 21
48.3
  0
LINE
  8
0
 10
-7.5
 20
48.3
 11
-17.5
 21
48.3
  0
LINE
  8
0
 10
6.5
 20
14.125
 11
6.5
 21
49.125
  0
LINE
  8
0
 10
6.5
 20
49.125
 11
55.25
 21
49.125
  0
LINE
  8
0
 10
55.25
 20
49.125
 11
55.25
 21
14.125
  0
LINE
  8
0
 10
55.25
 20
14.125
 11
6.5
 21
14.125
  0
LINE
  8
0
 10
58.01
 20
45.531
 11
57.8963
 21
45.549
  0
LINE
  8
0
 10
57.8963
 20
45.549
 11
57.7851
 21
45.5788
  0
LINE
  8
0
 10
57.7851
 20
45.5788
 11
57.6776
 21
45.6201
  0
LINE
  8
0
 10
57.6776
 20
45.6201
 11
57.575
 21
45.6724
  0
LINE
  8
0
 10
57.575
 20
45.6724
 11
57.4784
 21
45.7351
  0
LINE
  8
0
 10
57.4784
 20
45.7351
 11
57.3889
 21
45.8075
  0
LINE
  8
0
 10
57.3889
 20
45.8075
 11
57.3075
 21
45.8889
  0
LINE
  8
0
 10
57.3075
 20
45.8889
 11
57.2351
 21
45.9784
  0
LINE
  8
0
 10
57.2351
 20
45.9784
 11
57.1724
 21
46.075
  0
LINE
  8
0
 10
57.1724
 20
46.075
 11
57.1201
 21
46.1776
  0
LINE
  8
0
 10
57.1201
 20
46.1776
 11
57.0788
 21
46.2851
  0
LINE
  8
0
 10
57.0788
 20
46.2851
 11
57.049
 21
46.3963
  0
LINE
  8
0
 10
57.049
 20
46.3963
 11
57.031
 21
46.51
  0
LINE
  8
0
 10
57.031
 20
46.51
 11
57.025
 21
46.625
  0
LINE
  8
0
 10
57.025
 20
46.625
 11
57.031
 21
46.74
  0
LINE
  8
0
 10
57.031
 20
46.74
 11
57.049
 21
46.8537
  0
LINE
  8
0
 10
57.049
 20
46.8537
 11
57.0788
 21
46.9649
  0
LINE
  8
0
 10
57.0788
 20
46.9649
 11
57.1201
 21
47.0724
  0
LINE
  8
0
 10
57.1201
 20
47.0724
 11
57.1724
 21
47.175
  0
LINE
  8
0
 10
57.1724
 20
47.175
 11
57.2351
 21
47.2716
  0
LINE
  8
0
 10
57.2351
 20
47.2716
 11
57.3075
 21
47.361
  0
LINE
  8
0
 10
57.3075
 20
47.361
 11
57.3889
 21
47.4425
  0
LINE
  8
0
 10
57.3889
 20
47.4425
 11
57.4784
 21
47.5149
  0
LINE
  8
0
 10
57.4784
 20
47.5149
 11
57.575
 21
47.5776
  0
LINE
  8
0
 10
57.575
 20
47.5776
 11
57.6776
 21
47.6299
  0
LINE
  8
0
 10
57.6776
 20
47.6299
 11
57.7851
 21
47.6712
  0
LINE
  8
0
 10
57.7851
 20
47.6712
 11
57.8963
 21
47.701
  0
LINE
  8
0
 10
57.8963
 20
47.701
 11
58.01
 21
47.719
  0
LINE
  8
0
 10
58.01
 20
47.719
 11
58.125
 21
47.725
  0
LINE
  8
0
 10
58.125
 20
47.725
 11
58.24
 21
47.719
  0
LINE
  8
0
 10
58.24
 20
47.719
 11
58.3537
 21
47.701
  0
LINE
  8
0
 10
58.3537
 20
47.701
 11
58.4649
 21
47.6712
  0
LINE
  8
0
 10
58.4649
 20
47.6712
 11
58.5724
 21
47.6299
  0
LINE
  8
0
 10
58.5724
 20
47.6299
 11
58.675
 21
47.5776
  0
LINE
  8
0
 10
58.675
 20
47.5776
 11
58.7716
 21
47.5149
  0
LINE
  8
0
 10
58.7716
 20
47.5149
 11
58.861
 21
47.4425
  0
LINE
  8
0
 10
58.861
 20
47.4425
 11
58.9425
 21
47.361
  0
LINE
  8
0
 10
58.9425
 20
47.361
 11
59.0149
 21
47.2716
  0
LINE
  8
0
 10
59.0149
 20
47.2716
 11
59.0776
 21
47.175
  0
LINE
  8
0
 10
59.0776
 20
47.175
 11
59.1299
 21
47.0724
  0
LINE
  8
0
 10
59.1299
 20
47.0724
 11
59.1712
 21
46.9649
  0
LINE
  8
0
 10
59.1712
 20
46.9649
 11
59.201
 21
46.8537
  0
LINE
  8
0
 10
59.201
 20
46.8537
 11
59.219
 21
46.74
  0
LINE
  8
0
 10
59.219
 20
46.74
 11
59.225
 21
46.625
  0
LINE
  8
0
 10
59.225
 20
46.625
 11
59.219
 21
46.51
  0
LINE
  8
0
 10
59.219
 20
46.51
 11
59.201
 21
46.3963
  0
LINE
  8
0
 10
59.201
 20
46.3963
 11
59.1712
 21
46.2851
  0
LINE
  8
0
 10
59.1712
 20
46.2851
 11
59.1299
 21
46.1776
  0
LINE
  8
0
 10
59.1299
 20
46.1776
 11
59.0776
 21
46.075
  0
LINE
  8
0
 10
59.0776
 20
46.075
 11
59.0149
 21
45.9784
  0
LINE
  8
0
 10
59.0149
 20
45.9784
 11
58.9425
 21
45.8889
  0
LINE
  8
0
 10
58.9425
 20
45.8889
 11
58.861
 21
45.8075
  0
LINE
  8
0
 10
58.861
 20
45.8075
 11
58.7716
 21
45.7351
  0
LINE
  8
0
 10
58.7716
 20
45.7351
 11
58.675
 21
45.6724
  0
LINE
  8
0
 10
58.675
 20
45.6724
 11
58.5724
 21
45.6201
  0
LINE
  8
0
 10
58.5724
 20
45.6201
 11
58.4649
 21
45.5788
  0
LINE
  8
0
 10
58.4649
 20
45.5788
 11
58.3537
 21
45.549
  0
LINE
  8
0
 10
58.3537
 20
45.549
 11
58.24
 21
45.531
  0
LINE
  8
0
 10
58.24
 20
45.531
 11
58.125
 21
45.525
  0
LINE
  8
0
 10
58.125
 20
45.525
 11
58.01
 21
45.531
  0
LINE
  8
0
 10
5.01001
 20
45.531
 11
4.89629
 21
45.549
  0
LINE
  8
0
 10
4.89629
 20
45.549
 11
4.78508
 21
45.5788
  0
LINE
  8
0
 10
4.78508
 20
45.5788
 11
4.67758
 21
45.6201
  0
LINE
  8
0
 10
4.67758
 20
45.6201
 11
4.575
 21
45.6724
  0
LINE
  8
0
 10
4.575
 20
45.6724
 11
4.47842
 21
45.7351
  0
LINE
  8
0
 10
4.47842
 20
45.7351
 11
4.38895
 21
45.8075
  0
LINE
  8
0
 10
4.38895
 20
45.8075
 11
4.30753
 21
45.8889
  0
LINE
  8
0
 10
4.30753
 20
45.8889
 11
4.23508
 21
45.9784
  0
LINE
  8
0
 10
4.23508
 20
45.9784
 11
4.17236
 21
46.075
  0
LINE
  8
0
 10
4.17236
 20
46.075
 11
4.12009
 21
46.1776
  0
LINE
  8
0
 10
4.12009
 20
46.1776
 11
4.07883
 21
46.2851
  0
LINE
  8
0
 10
4.07883
 20
46.2851
 11
4.04903
 21
46.3963
  0
LINE
  8
0
 10
4.04903
 20
46.3963
 11
4.03102
 21
46.51
  0
LINE
  8
0
 10
4.03102
 20
46.51
 11
4.02499
 21
46.625
  0
LINE
  8
0
 10
4.02499
 20
46.625
 11
4.03102
 21
46.74
  0
LINE
  8
0
 10
4.03102
 20
46.74
 11
4.04903
 21
46.8537
  0
LINE
  8
0
 10
4.04903
 20
46.8537
 11
4.07883
 21
46.9649
  0
LINE
  8
0
 10
4.07883
 20
46.9649
 11
4.12009
 21
47.0724
  0
LINE
  8
0
 10
4.12009
 20
47.0724
 11
4.17236
 21
47.175
  0
LINE
  8
0
 10
4.17236
 20
47.175
 11
4.23508
 21
47.2716
  0
LINE
  8
0
 10
4.23508
 20
47.2716
 11
4.30753
 21
47.361
  0
LINE
  8
0
 10
4.30753
 20
47.361
 11
4.38895
 21
47.4425
  0
LINE
  8
0
 10
4.38895
 20
47.4425
 11
4.47842
 21
47.5149
  0
LINE
  8
0
 10
4.47842
 20
47.5149
 11
4.575
 21
47.5776
  0
LINE
  8
0
 10
4.575
 20
47.5776
 11
4.67758
 21
47.6299
  0
LINE
  8
0
 10
4.67758
 20
47.6299
 11
4.78508
 21
47.6712
  0
LINE
  8
0
 10
4.78508
 20
47.6712
 11
4.89629
 21
47.701
  0
LINE
  8
0
 10
4.89629
 20
47.701
 11
5.01001
 21
47.719
  0
LINE
  8
0
 10
5.01001
 20
47.719
 11
5.125
 21
47.725
  0
LINE
  8
0
 10
5.125
 20
47.725
 11
5.23997
 21
47.719
  0
LINE
  8
0
 10
5.23997
 20
47.719
 11
5.3537
 21
47.701
  0
LINE
  8
0
 10
5.3537
 20
47.701
 11
5.4649
 21
47.6712
  0
LINE
  8
0
 10
5.4649
 20
47.6712
 11
5.5724
 21
47.6299
  0
LINE
  8
0
 10
5.5724
 20
47.6299
 11
5.67499
 21
47.5776
  0
LINE
  8
0
 10
5.67499
 20
47.5776
 11
5.77156
 21
47.5149
  0
LINE
  8
0
 10
5.77156
 20
47.5149
 11
5.86104
 21
47.4425
  0
LINE
  8
0
 10
5.86104
 20
47.4425
 11
5.94246
 21
47.361
  0
LINE
  8
0
 10
5.94246
 20
47.361
 11
6.01491
 21
47.2716
  0
LINE
  8
0
 10
6.01491
 20
47.2716
 11
6.07762
 21
47.175
  0
LINE
  8
0
 10
6.07762
 20
47.175
 11
6.1299
 21
47.0724
  0
LINE
  8
0
 10
6.1299
 20
47.0724
 11
6.17116
 21
46.9649
  0
LINE
  8
0
 10
6.17116
 20
46.9649
 11
6.20096
 21
46.8537
  0
LINE
  8
0
 10
6.20096
 20
46.8537
 11
6.21896
 21
46.74
  0
LINE
  8
0
 10
6.21896
 20
46.74
 11
6.22499
 21
46.625
  0
LINE
  8
0
 10
6.22499
 20
46.625
 11
6.21896
 21
46.51
  0
LINE
  8
0
 10
6.21896
 20
46.51
 11
6.20096
 21
46.3963
  0
LINE
  8
0
 10
6.20096
 20
46.3963
 11
6.17116
 21
46.2851
  0
LINE
  8
0
 10
6.17116
 20
46.2851
 11
6.1299
 21
46.1776
  0
LINE
  8
0
 10
6.1299
 20
46.1776
 11
6.07762
 21
46.075
  0
LINE
  8
0
 10
6.07762
 20
46.075
 11
6.01491
 21
45.9784
  0
LINE
  8
0
 10
6.01491
 20
45.9784
 11
5.94246
 21
45.8889
  0
LINE
  8
0
 10
5.94246
 20
45.8889
 11
5.86104
 21
45.8075
  0
LINE
  8
0
 10
5.86104
 20
45.8075
 11
5.77156
 21
45.7351
  0
LINE
  8
0
 10
5.77156
 20
45.7351
 11
5.67499
 21
45.6724
  0
LINE
  8
0
 10
5.67499
 20
45.6724
 11
5.5724
 21
45.6201
  0
LINE
  8
0
 10
5.5724
 20
45.6201
 11
5.4649
 21
45.5788
  0
LINE
  8
0
 10
5.4649
 20
45.5788
 11
5.3537
 21
45.549
  0
LINE
  8
0
 10
5.3537
 20
45.549
 11
5.23997
 21
45.531
  0
LINE
  8
0
 10
5.23997
 20
45.531
 11
5.125
 21
45.525
  0
LINE
  8
0
 10
5.125
 20
45.525
 11
5.01001
 21
45.531
  0
LINE
  8
0
 10
-0.0999908
 20
35.4
 11
-0.0999908
 21
46.4333
  0
LINE
  8
0
 10
-0.0999908
 20
46.4333
 11
3
 21
46.4333
  0
LINE
  8
0
 10
3
 20
46.4333
 11
3
 21
35.4
  0
LINE
  8
0
 10
3
 20
35.4
 11
-0.0999908
 21
35.4
  0
LINE
  8
0
 10
161.301
 20
17.1267
 11
161.103
 21
17.1319
  0
LINE
  8
0
 10
161.103
 20
17.1319
 11
160.905
 21
17.1406
  0
LINE
  8
0
 10
160.905
 20
17.1406
 11
160.707
 21
17.1527
  0
LINE
  8
0
 10
160.707
 20
17.1527
 11
160.509
 21
17.1683
  0
LINE
  8
0
 10
160.509
 20
17.1683
 11
160.311
 21
17.1873
  0
LINE
  8
0
 10
160.311
 20
17.1873
 11
160.114
 21
17.2098
  0
LINE
  8
0
 10
160.114
 20
17.2098
 11
159.917
 21
17.2357
  0
LINE
  8
0
 10
159.917
 20
17.2357
 11
159.721
 21
17.265
  0
LINE
  8
0
 10
159.721
 20
17.265
 11
159.525
 21
17.2978
  0
LINE
  8
0
 10
159.525
 20
17.2978
 11
159.33
 21
17.334
  0
LINE
  8
0
 10
159.33
 20
17.334
 11
159.135
 21
17.3736
  0
LINE
  8
0
 10
159.135
 20
17.3736
 11
158.941
 21
17.4165
  0
LINE
  8
0
 10
158.941
 20
17.4165
 11
158.748
 21
17.4629
  0
LINE
  8
0
 10
158.748
 20
17.4629
 11
158.556
 21
17.5126
  0
LINE
  8
0
 10
158.556
 20
17.5126
 11
158.365
 21
17.5656
  0
LINE
  8
0
 10
158.365
 20
17.5656
 11
158.174
 21
17.622
  0
LINE
  8
0
 10
158.174
 20
17.622
 11
157.985
 21
17.6817
  0
LINE
  8
0
 10
157.985
 20
17.6817
 11
157.797
 21
17.7447
  0
LINE
  8
0
 10
157.797
 20
17.7447
 11
157.61
 21
17.811
  0
LINE
  8
0
 10
157.61
 20
17.811
 11
157.424
 21
17.8805
  0
LINE
  8
0
 10
157.424
 20
17.8805
 11
157.239
 21
17.9533
  0
LINE
  8
0
 10
157.239
 20
17.9533
 11
157.055
 21
18.0293
  0
LINE
  8
0
 10
157.055
 20
18.0293
 11
156.873
 21
18.1084
  0
LINE
  8
0
 10
156.873
 20
18.1084
 11
156.693
 21
18.1908
  0
LINE
  8
0
 10
156.693
 20
18.1908
 11
156.514
 21
18.2762
  0
LINE
  8
0
 10
156.514
 20
18.2762
 11
156.336
 21
18.3648
  0
LINE
  8
0
 10
156.336
 20
18.3648
 11
156.16
 21
18.4565
  0
LINE
  8
0
 10
156.16
 20
18.4565
 11
155.985
 21
18.5512
  0
LINE
  8
0
 10
155.985
 20
18.5512
 11
155.812
 21
18.649
  0
LINE
  8
0
 10
155.812
 20
18.649
 11
155.641
 21
18.7497
  0
LINE
  8
0
 10
155.641
 20
18.7497
 11
155.472
 21
18.8535
  0
LINE
  8
0
 10
155.472
 20
18.8535
 11
155.305
 21
18.9601
  0
LINE
  8
0
 10
155.305
 20
18.9601
 11
155.139
 21
19.0697
  0
LINE
  8
0
 10
155.139
 20
19.0697
 11
154.976
 21
19.1821
  0
LINE
  8
0
 10
154.976
 20
19.1821
 11
154.814
 21
19.2974
  0
LINE
  8
0
 10
154.814
 20
19.2974
 11
154.654
 21
19.4155
  0
LINE
  8
0
 10
154.654
 20
19.4155
 11
154.497
 21
19.5364
  0
LINE
  8
0
 10
154.497
 20
19.5364
 11
154.341
 21
19.66
  0
LINE
  8
0
 10
154.341
 20
19.66
 11
154.188
 21
19.7862
  0
LINE
  8
0
 10
154.188
 20
19.7862
 11
154.037
 21
19.9152
  0
LINE
  8
0
 10
154.037
 20
19.9152
 11
153.889
 21
20.0467
  0
LINE
  8
0
 10
153.889
 20
20.0467
 11
153.742
 21
20.1808
  0
LINE
  8
0
 10
153.742
 20
20.1808
 11
153.598
 21
20.3175
  0
LINE
  8
0
 10
153.598
 20
20.3175
 11
153.457
 21
20.4566
  0
LINE
  8
0
 10
153.457
 20
20.4566
 11
153.318
 21
20.5983
  0
LINE
  8
0
 10
153.318
 20
20.5983
 11
153.181
 21
20.7423
  0
LINE
  8
0
 10
153.181
 20
20.7423
 11
153.047
 21
20.8886
  0
LINE
  8
0
 10
153.047
 20
20.8886
 11
152.915
 21
21.0373
  0
LINE
  8
0
 10
152.915
 20
21.0373
 11
152.786
 21
21.1883
  0
LINE
  8
0
 10
152.786
 20
21.1883
 11
152.66
 21
21.3415
  0
LINE
  8
0
 10
152.66
 20
21.3415
 11
152.536
 21
21.4968
  0
LINE
  8
0
 10
152.536
 20
21.4968
 11
152.416
 21
21.6543
  0
LINE
  8
0
 10
152.416
 20
21.6543
 11
152.297
 21
21.8139
  0
LINE
  8
0
 10
152.297
 20
21.8139
 11
152.182
 21
21.9756
  0
LINE
  8
0
 10
152.182
 20
21.9756
 11
152.07
 21
22.1392
  0
LINE
  8
0
 10
152.07
 20
22.1392
 11
151.96
 21
22.3047
  0
LINE
  8
0
 10
151.96
 20
22.3047
 11
151.853
 21
22.4722
  0
LINE
  8
0
 10
151.853
 20
22.4722
 11
151.75
 21
22.6414
  0
LINE
  8
0
 10
151.75
 20
22.6414
 11
151.649
 21
22.8125
  0
LINE
  8
0
 10
151.649
 20
22.8125
 11
151.551
 21
22.9853
  0
LINE
  8
0
 10
151.551
 20
22.9853
 11
151.456
 21
23.1598
  0
LINE
  8
0
 10
151.456
 20
23.1598
 11
151.365
 21
23.3358
  0
LINE
  8
0
 10
151.365
 20
23.3358
 11
151.276
 21
23.5135
  0
LINE
  8
0
 10
151.276
 20
23.5135
 11
151.191
 21
23.6927
  0
LINE
  8
0
 10
151.191
 20
23.6927
 11
151.108
 21
23.8734
  0
LINE
  8
0
 10
151.108
 20
23.8734
 11
151.029
 21
24.0554
  0
LINE
  8
0
 10
151.029
 20
24.0554
 11
150.953
 21
24.2388
  0
LINE
  8
0
 10
150.953
 20
24.2388
 11
150.881
 21
24.4236
  0
LINE
  8
0
 10
150.881
 20
24.4236
 11
150.811
 21
24.6095
  0
LINE
  8
0
 10
150.811
 20
24.6095
 11
150.745
 21
24.7967
  0
LINE
  8
0
 10
150.745
 20
24.7967
 11
150.682
 21
24.9849
  0
LINE
  8
0
 10
150.682
 20
24.9849
 11
150.622
 21
25.1743
  0
LINE
  8
0
 10
150.622
 20
25.1743
 11
150.566
 21
25.3646
  0
LINE
  8
0
 10
150.566
 20
25.3646
 11
150.513
 21
25.5559
  0
LINE
  8
0
 10
150.513
 20
25.5559
 11
150.463
 21
25.7481
  0
LINE
  8
0
 10
150.463
 20
25.7481
 11
150.417
 21
25.9412
  0
LINE
  8
0
 10
150.417
 20
25.9412
 11
150.374
 21
26.135
  0
LINE
  8
0
 10
150.374
 20
26.135
 11
150.334
 21
26.3295
  0
LINE
  8
0
 10
150.334
 20
26.3295
 11
150.298
 21
26.5247
  0
LINE
  8
0
 10
150.298
 20
26.5247
 11
150.265
 21
26.7206
  0
LINE
  8
0
 10
150.265
 20
26.7206
 11
150.236
 21
26.9169
  0
LINE
  8
0
 10
150.236
 20
26.9169
 11
150.21
 21
27.1137
  0
LINE
  8
0
 10
150.21
 20
27.1137
 11
150.187
 21
27.311
  0
LINE
  8
0
 10
150.187
 20
27.311
 11
150.168
 21
27.5086
  0
LINE
  8
0
 10
150.168
 20
27.5086
 11
150.153
 21
27.7065
  0
LINE
  8
0
 10
150.153
 20
27.7065
 11
150.141
 21
27.9047
  0
LINE
  8
0
 10
150.141
 20
27.9047
 11
150.132
 21
28.103
  0
LINE
  8
0
 10
150.132
 20
28.103
 11
150.127
 21
28.3015
  0
LINE
  8
0
 10
150.127
 20
28.3015
 11
150.125
 21
28.5
  0
LINE
  8
0
 10
150.125
 20
28.5
 11
150.127
 21
28.6985
  0
LINE
  8
0
 10
150.127
 20
28.6985
 11
150.132
 21
28.897
  0
LINE
  8
0
 10
150.132
 20
28.897
 11
150.141
 21
29.0953
  0
LINE
  8
0
 10
150.141
 20
29.0953
 11
150.153
 21
29.2935
  0
LINE
  8
0
 10
150.153
 20
29.2935
 11
150.168
 21
29.4914
  0
LINE
  8
0
 10
150.168
 20
29.4914
 11
150.187
 21
29.689
  0
LINE
  8
0
 10
150.187
 20
29.689
 11
150.21
 21
29.8863
  0
LINE
  8
0
 10
150.21
 20
29.8863
 11
150.236
 21
30.0831
  0
LINE
  8
0
 10
150.236
 20
30.0831
 11
150.265
 21
30.2794
  0
LINE
  8
0
 10
150.265
 20
30.2794
 11
150.298
 21
30.4752
  0
LINE
  8
0
 10
150.298
 20
30.4752
 11
150.334
 21
30.6704
  0
LINE
  8
0
 10
150.334
 20
30.6704
 11
150.374
 21
30.865
  0
LINE
  8
0
 10
150.374
 20
30.865
 11
150.417
 21
31.0588
  0
LINE
  8
0
 10
150.417
 20
31.0588
 11
150.463
 21
31.2519
  0
LINE
  8
0
 10
150.463
 20
31.2519
 11
150.513
 21
31.4441
  0
LINE
  8
0
 10
150.513
 20
31.4441
 11
150.566
 21
31.6354
  0
LINE
  8
0
 10
150.566
 20
31.6354
 11
150.622
 21
31.8257
  0
LINE
  8
0
 10
150.622
 20
31.8257
 11
150.682
 21
32.0151
  0
LINE
  8
0
 10
150.682
 20
32.0151
 11
150.745
 21
32.2033
  0
LINE
  8
0
 10
150.745
 20
32.2033
 11
150.811
 21
32.3905
  0
LINE
  8
0
 10
150.811
 20
32.3905
 11
150.881
 21
32.5764
  0
LINE
  8
0
 10
150.881
 20
32.5764
 11
150.953
 21
32.7611
  0
LINE
  8
0
 10
150.953
 20
32.7611
 11
151.029
 21
32.9446
  0
LINE
  8
0
 10
151.029
 20
32.9446
 11
151.108
 21
33.1266
  0
LINE
  8
0
 10
151.108
 20
33.1266
 11
151.191
 21
33.3073
  0
LINE
  8
0
 10
151.191
 20
33.3073
 11
151.276
 21
33.4865
  0
LINE
  8
0
 10
151.276
 20
33.4865
 11
151.365
 21
33.6641
  0
LINE
  8
0
 10
151.365
 20
33.6641
 11
151.456
 21
33.8402
  0
LINE
  8
0
 10
151.456
 20
33.8402
 11
151.551
 21
34.0147
  0
LINE
  8
0
 10
151.551
 20
34.0147
 11
151.649
 21
34.1875
  0
LINE
  8
0
 10
151.649
 20
34.1875
 11
151.75
 21
34.3586
  0
LINE
  8
0
 10
151.75
 20
34.3586
 11
151.853
 21
34.5278
  0
LINE
  8
0
 10
151.853
 20
34.5278
 11
151.96
 21
34.6953
  0
LINE
  8
0
 10
151.96
 20
34.6953
 11
152.07
 21
34.8608
  0
LINE
  8
0
 10
152.07
 20
34.8608
 11
152.182
 21
35.0244
  0
LINE
  8
0
 10
152.182
 20
35.0244
 11
152.297
 21
35.1861
  0
LINE
  8
0
 10
152.297
 20
35.1861
 11
152.416
 21
35.3456
  0
LINE
  8
0
 10
152.416
 20
35.3456
 11
152.536
 21
35.5031
  0
LINE
  8
0
 10
152.536
 20
35.5031
 11
152.66
 21
35.6585
  0
LINE
  8
0
 10
152.66
 20
35.6585
 11
152.786
 21
35.8117
  0
LINE
  8
0
 10
152.786
 20
35.8117
 11
152.915
 21
35.9627
  0
LINE
  8
0
 10
152.915
 20
35.9627
 11
153.047
 21
36.1114
  0
LINE
  8
0
 10
153.047
 20
36.1114
 11
153.181
 21
36.2577
  0
LINE
  8
0
 10
153.181
 20
36.2577
 11
153.318
 21
36.4017
  0
LINE
  8
0
 10
153.318
 20
36.4017
 11
153.457
 21
36.5433
  0
LINE
  8
0
 10
153.457
 20
36.5433
 11
153.598
 21
36.6825
  0
LINE
  8
0
 10
153.598
 20
36.6825
 11
153.742
 21
36.8191
  0
LINE
  8
0
 10
153.742
 20
36.8191
 11
153.889
 21
36.9533
  0
LINE
  8
0
 10
153.889
 20
36.9533
 11
154.037
 21
37.0848
  0
LINE
  8
0
 10
154.037
 20
37.0848
 11
154.188
 21
37.2137
  0
LINE
  8
0
 10
154.188
 20
37.2137
 11
154.341
 21
37.34
  0
LINE
  8
0
 10
154.341
 20
37.34
 11
154.497
 21
37.4636
  0
LINE
  8
0
 10
154.497
 20
37.4636
 11
154.654
 21
37.5845
  0
LINE
  8
0
 10
154.654
 20
37.5845
 11
154.814
 21
37.7026
  0
LINE
  8
0
 10
154.814
 20
37.7026
 11
154.976
 21
37.8179
  0
LINE
  8
0
 10
154.976
 20
37.8179
 11
155.139
 21
37.9303
  0
LINE
  8
0
 10
155.139
 20
37.9303
 11
155.305
 21
38.0399
  0
LINE
  8
0
 10
155.305
 20
38.0399
 11
155.472
 21
38.1465
  0
LINE
  8
0
 10
155.472
 20
38.1465
 11
155.641
 21
38.2503
  0
LINE
  8
0
 10
155.641
 20
38.2503
 11
155.812
 21
38.351
  0
LINE
  8
0
 10
155.812
 20
38.351
 11
155.985
 21
38.4488
  0
LINE
  8
0
 10
155.985
 20
38.4488
 11
156.16
 21
38.5435
  0
LINE
  8
0
 10
156.16
 20
38.5435
 11
156.336
 21
38.6352
  0
LINE
  8
0
 10
156.336
 20
38.6352
 11
156.514
 21
38.7238
  0
LINE
  8
0
 10
156.514
 20
38.7238
 11
156.693
 21
38.8092
  0
LINE
  8
0
 10
156.693
 20
38.8092
 11
156.873
 21
38.8916
  0
LINE
  8
0
 10
156.873
 20
38.8916
 11
157.055
 21
38.9707
  0
LINE
  8
0
 10
157.055
 20
38.9707
 11
157.239
 21
39.0467
  0
LINE
  8
0
 10
157.239
 20
39.0467
 11
157.424
 21
39.1195
  0
LINE
  8
0
 10
157.424
 20
39.1195
 11
157.61
 21
39.189
  0
LINE
  8
0
 10
157.61
 20
39.189
 11
157.797
 21
39.2553
  0
LINE
  8
0
 10
157.797
 20
39.2553
 11
157.985
 21
39.3183
  0
LINE
  8
0
 10
157.985
 20
39.3183
 11
158.174
 21
39.378
  0
LINE
  8
0
 10
158.174
 20
39.378
 11
158.365
 21
39.4343
  0
LINE
  8
0
 10
158.365
 20
39.4343
 11
158.556
 21
39.4874
  0
LINE
  8
0
 10
158.556
 20
39.4874
 11
158.748
 21
39.5371
  0
LINE
  8
0
 10
158.748
 20
39.5371
 11
158.941
 21
39.5835
  0
LINE
  8
0
 10
158.941
 20
39.5835
 11
159.135
 21
39.6264
  0
LINE
  8
0
 10
159.135
 20
39.6264
 11
159.33
 21
39.666
  0
LINE
  8
0
 10
159.33
 20
39.666
 11
159.525
 21
39.7022
  0
LINE
  8
0
 10
159.525
 20
39.7022
 11
159.721
 21
39.735
  0
LINE
  8
0
 10
159.721
 20
39.735
 11
159.917
 21
39.7643
  0
LINE
  8
0
 10
159.917
 20
39.7643
 11
160.114
 21
39.7902
  0
LINE
  8
0
 10
160.114
 20
39.7902
 11
160.311
 21
39.8127
  0
LINE
  8
0
 10
160.311
 20
39.8127
 11
160.509
 21
39.8317
  0
LINE
  8
0
 10
160.509
 20
39.8317
 11
160.707
 21
39.8473
  0
LINE
  8
0
 10
160.707
 20
39.8473
 11
160.905
 21
39.8594
  0
LINE
  8
0
 10
160.905
 20
39.8594
 11
161.103
 21
39.8681
  0
LINE
  8
0
 10
161.103
 20
39.8681
 11
161.301
 21
39.8733
  0
LINE
  8
0
 10
161.301
 20
39.8733
 11
161.5
 21
39.875
  0
LINE
  8
0
 10
161.5
 20
39.875
 11
161.699
 21
39.8733
  0
LINE
  8
0
 10
161.699
 20
39.8733
 11
161.897
 21
39.8681
  0
LINE
  8
0
 10
161.897
 20
39.8681
 11
162.095
 21
39.8594
  0
LINE
  8
0
 10
162.095
 20
39.8594
 11
162.293
 21
39.8473
  0
LINE
  8
0
 10
162.293
 20
39.8473
 11
162.491
 21
39.8317
  0
LINE
  8
0
 10
162.491
 20
39.8317
 11
162.689
 21
39.8127
  0
LINE
  8
0
 10
162.689
 20
39.8127
 11
162.886
 21
39.7902
  0
LINE
  8
0
 10
162.886
 20
39.7902
 11
163.083
 21
39.7643
  0
LINE
  8
0
 10
163.083
 20
39.7643
 11
163.279
 21
39.735
  0
LINE
  8
0
 10
163.279
 20
39.735
 11
163.475
 21
39.7022
  0
LINE
  8
0
 10
163.475
 20
39.7022
 11
163.67
 21
39.666
  0
LINE
  8
0
 10
163.67
 20
39.666
 11
163.865
 21
39.6264
  0
LINE
  8
0
 10
163.865
 20
39.6264
 11
164.059
 21
39.5835
  0
LINE
  8
0
 10
164.059
 20
39.5835
 11
164.252
 21
39.5371
  0
LINE
  8
0
 10
164.252
 20
39.5371
 11
164.444
 21
39.4874
  0
LINE
  8
0
 10
164.444
 20
39.4874
 11
164.635
 21
39.4343
  0
LINE
  8
0
 10
164.635
 20
39.4343
 11
164.826
 21
39.378
  0
LINE
  8
0
 10
164.826
 20
39.378
 11
165.015
 21
39.3183
  0
LINE
  8
0
 10
165.015
 20
39.3183
 11
165.203
 21
39.2553
  0
LINE
  8
0
 10
165.203
 20
39.2553
 11
165.39
 21
39.189
  0
LINE
  8
0
 10
165.39
 20
39.189
 11
165.576
 21
39.1195
  0
LINE
  8
0
 10
165.576
 20
39.1195
 11
165.761
 21
39.0467
  0
LINE
  8
0
 10
165.761
 20
39.0467
 11
165.945
 21
38.9707
  0
LINE
  8
0
 10
165.945
 20
38.9707
 11
166.127
 21
38.8916
  0
LINE
  8
0
 10
166.127
 20
38.8916
 11
166.307
 21
38.8092
  0
LINE
  8
0
 10
166.307
 20
38.8092
 11
166.486
 21
38.7238
  0
LINE
  8
0
 10
166.486
 20
38.7238
 11
166.664
 21
38.6352
  0
LINE
  8
0
 10
166.664
 20
38.6352
 11
166.84
 21
38.5435
  0
LINE
  8
0
 10
166.84
 20
38.5435
 11
167.015
 21
38.4488
  0
LINE
  8
0
 10
167.015
 20
38.4488
 11
167.188
 21
38.351
  0
LINE
  8
0
 10
167.188
 20
38.351
 11
167.359
 21
38.2503
  0
LINE
  8
0
 10
167.359
 20
38.2503
 11
167.528
 21
38.1465
  0
LINE
  8
0
 10
167.528
 20
38.1465
 11
167.695
 21
38.0399
  0
LINE
  8
0
 10
167.695
 20
38.0399
 11
167.861
 21
37.9303
  0
LINE
  8
0
 10
167.861
 20
37.9303
 11
168.024
 21
37.8179
  0
LINE
  8
0
 10
168.024
 20
37.8179
 11
168.186
 21
37.7026
  0
LINE
  8
0
 10
168.186
 20
37.7026
 11
168.346
 21
37.5845
  0
LINE
  8
0
 10
168.346
 20
37.5845
 11
168.503
 21
37.4636
  0
LINE
  8
0
 10
168.503
 20
37.4636
 11
168.659
 21
37.34
  0
LINE
  8
0
 10
168.659
 20
37.34
 11
168.812
 21
37.2137
  0
LINE
  8
0
 10
168.812
 20
37.2137
 11
168.963
 21
37.0848
  0
LINE
  8
0
 10
168.963
 20
37.0848
 11
169.111
 21
36.9533
  0
LINE
  8
0
 10
169.111
 20
36.9533
 11
169.258
 21
36.8191
  0
LINE
  8
0
 10
169.258
 20
36.8191
 11
169.402
 21
36.6825
  0
LINE
  8
0
 10
169.402
 20
36.6825
 11
169.543
 21
36.5433
  0
LINE
  8
0
 10
169.543
 20
36.5433
 11
169.682
 21
36.4017
  0
LINE
  8
0
 10
169.682
 20
36.4017
 11
169.819
 21
36.2577
  0
LINE
  8
0
 10
169.819
 20
36.2577
 11
169.953
 21
36.1114
  0
LINE
  8
0
 10
169.953
 20
36.1114
 11
170.085
 21
35.9627
  0
LINE
  8
0
 10
170.085
 20
35.9627
 11
170.214
 21
35.8117
  0
LINE
  8
0
 10
170.214
 20
35.8117
 11
170.34
 21
35.6585
  0
LINE
  8
0
 10
170.34
 20
35.6585
 11
170.464
 21
35.5031
  0
LINE
  8
0
 10
170.464
 20
35.5031
 11
170.584
 21
35.3456
  0
LINE
  8
0
 10
170.584
 20
35.3456
 11
170.703
 21
35.1861
  0
LINE
  8
0
 10
170.703
 20
35.1861
 11
170.818
 21
35.0244
  0
LINE
  8
0
 10
170.818
 20
35.0244
 11
170.93
 21
34.8608
  0
LINE
  8
0
 10
170.93
 20
34.8608
 11
171.04
 21
34.6953
  0
LINE
  8
0
 10
171.04
 20
34.6953
 11
171.147
 21
34.5278
  0
LINE
  8
0
 10
171.147
 20
34.5278
 11
171.25
 21
34.3586
  0
LINE
  8
0
 10
171.25
 20
34.3586
 11
171.351
 21
34.1875
  0
LINE
  8
0
 10
171.351
 20
34.1875
 11
171.449
 21
34.0147
  0
LINE
  8
0
 10
171.449
 20
34.0147
 11
171.544
 21
33.8402
  0
LINE
  8
0
 10
171.544
 20
33.8402
 11
171.635
 21
33.6641
  0
LINE
  8
0
 10
171.635
 20
33.6641
 11
171.724
 21
33.4865
  0
LINE
  8
0
 10
171.724
 20
33.4865
 11
171.809
 21
33.3073
  0
LINE
  8
0
 10
171.809
 20
33.3073
 11
171.892
 21
33.1266
  0
LINE
  8
0
 10
171.892
 20
33.1266
 11
171.971
 21
32.9446
  0
LINE
  8
0
 10
171.971
 20
32.9446
 11
172.047
 21
32.7611
  0
LINE
  8
0
 10
172.047
 20
32.7611
 11
172.119
 21
32.5764
  0
LINE
  8
0
 10
172.119
 20
32.5764
 11
172.189
 21
32.3905
  0
LINE
  8
0
 10
172.189
 20
32.3905
 11
172.255
 21
32.2033
  0
LINE
  8
0
 10
172.255
 20
32.2033
 11
172.318
 21
32.0151
  0
LINE
  8
0
 10
172.318
 20
32.0151
 11
172.378
 21
31.8257
  0
LINE
  8
0
 10
172.378
 20
31.8257
 11
172.434
 21
31.6354
  0
LINE
  8
0
 10
172.434
 20
31.6354
 11
172.487
 21
31.4441
  0
LINE
  8
0
 10
172.487
 20
31.4441
 11
172.537
 21
31.2519
  0
LINE
  8
0
 10
172.537
 20
31.2519
 11
172.583
 21
31.0588
  0
LINE
  8
0
 10
172.583
 20
31.0588
 11
172.626
 21
30.865
  0
LINE
  8
0
 10
172.626
 20
30.865
 11
172.666
 21
30.6704
  0
LINE
  8
0
 10
172.666
 20
30.6704
 11
172.702
 21
30.4752
  0
LINE
  8
0
 10
172.702
 20
30.4752
 11
172.735
 21
30.2794
  0
LINE
  8
0
 10
172.735
 20
30.2794
 11
172.764
 21
30.0831
  0
LINE
  8
0
 10
172.764
 20
30.0831
 11
172.79
 21
29.8863
  0
LINE
  8
0
 10
172.79
 20
29.8863
 11
172.813
 21
29.689
  0
LINE
  8
0
 10
172.813
 20
29.689
 11
172.832
 21
29.4914
  0
LINE
  8
0
 10
172.832
 20
29.4914
 11
172.847
 21
29.2935
  0
LINE
  8
0
 10
172.847
 20
29.2935
 11
172.859
 21
29.0953
  0
LINE
  8
0
 10
172.859
 20
29.0953
 11
172.868
 21
28.897
  0
LINE
  8
0
 10
172.868
 20
28.897
 11
172.873
 21
28.6985
  0
LINE
  8
0
 10
172.873
 20
28.6985
 11
172.875
 21
28.5
  0
LINE
  8
0
 10
172.875
 20
28.5
 11
172.873
 21
28.3015
  0
LINE
  8
0
 10
172.873
 20
28.3015
 11
172.868
 21
28.103
  0
LINE
  8
0
 10
172.868
 20
28.103
 11
172.859
 21
27.9047
  0
LINE
  8
0
 10
172.859
 20
27.9047
 11
172.847
 21
27.7065
  0
LINE
  8
0
 10
172.847
 20
27.7065
 11
172.832
 21
27.5086
  0
LINE
  8
0
 10
172.832
 20
27.5086
 11
172.813
 21
27.311
  0
LINE
  8
0
 10
172.813
 20
27.311
 11
172.79
 21
27.1137
  0
LINE
  8
0
 10
172.79
 20
27.1137
 11
172.764
 21
26.9169
  0
LINE
  8
0
 10
172.764
 20
26.9169
 11
172.735
 21
26.7206
  0
LINE
  8
0
 10
172.735
 20
26.7206
 11
172.702
 21
26.5247
  0
LINE
  8
0
 10
172.702
 20
26.5247
 11
172.666
 21
26.3295
  0
LINE
  8
0
 10
172.666
 20
26.3295
 11
172.626
 21
26.135
  0
LINE
  8
0
 10
172.626
 20
26.135
 11
172.583
 21
25.9412
  0
LINE
  8
0
 10
172.583
 20
25.9412
 11
172.537
 21
25.7481
  0
LINE
  8
0
 10
172.537
 20
25.7481
 11
172.487
 21
25.5559
  0
LINE
  8
0
 10
172.487
 20
25.5559
 11
172.434
 21
25.3646
  0
LINE
  8
0
 10
172.434
 20
25.3646
 11
172.378
 21
25.1743
  0
LINE
  8
0
 10
172.378
 20
25.1743
 11
172.318
 21
24.9849
  0
LINE
  8
0
 10
172.318
 20
24.9849
 11
172.255
 21
24.7967
  0
LINE
  8
0
 10
172.255
 20
24.7967
 11
172.189
 21
24.6095
  0
LINE
  8
0
 10
172.189
 20
24.6095
 11
172.119
 21
24.4236
  0
LINE
  8
0
 10
172.119
 20
24.4236
 11
172.047
 21
24.2388
  0
LINE
  8
0
 10
172.047
 20
24.2388
 11
171.971
 21
24.0554
  0
LINE
  8
0
 10
171.971
 20
24.0554
 11
171.892
 21
23.8734
  0
LINE
  8
0
 10
171.892
 20
23.8734
 11
171.809
 21
23.6927
  0
LINE
  8
0
 10
171.809
 20
23.6927
 11
171.724
 21
23.5135
  0
LINE
  8
0
 10
171.724
 20
23.5135
 11
171.635
 21
23.3358
  0
LINE
  8
0
 10
171.635
 20
23.3358
 11
171.544
 21
23.1598
  0
LINE
  8
0
 10
171.544
 20
23.1598
 11
171.449
 21
22.9853
  0
LINE
  8
0
 10
171.449
 20
22.9853
 11
171.351
 21
22.8125
  0
LINE
  8
0
 10
171.351
 20
22.8125
 11
171.25
 21
22.6414
  0
LINE
  8
0
 10
171.25
 20
22.6414
 11
171.147
 21
22.4722
  0
LINE
  8
0
 10
171.147
 20
22.4722
 11
171.04
 21
22.3047
  0
LINE
  8
0
 10
171.04
 20
22.3047
 11
170.93
 21
22.1392
  0
LINE
  8
0
 10
170.93
 20
22.1392
 11
170.818
 21
21.9756
  0
LINE
  8
0
 10
170.818
 20
21.9756
 11
170.703
 21
21.8139
  0
LINE
  8
0
 10
170.703
 20
21.8139
 11
170.584
 21
21.6543
  0
LINE
  8
0
 10
170.584
 20
21.6543
 11
170.464
 21
21.4968
  0
LINE
  8
0
 10
170.464
 20
21.4968
 11
170.34
 21
21.3415
  0
LINE
  8
0
 10
170.34
 20
21.3415
 11
170.214
 21
21.1883
  0
LINE
  8
0
 10
170.214
 20
21.1883
 11
170.085
 21
21.0373
  0
LINE
  8
0
 10
170.085
 20
21.0373
 11
169.953
 21
20.8886
  0
LINE
  8
0
 10
169.953
 20
20.8886
 11
169.819
 21
20.7423
  0
LINE
  8
0
 10
169.819
 20
20.7423
 11
169.682
 21
20.5983
  0
LINE
  8
0
 10
169.682
 20
20.5983
 11
169.543
 21
20.4566
  0
LINE
  8
0
 10
169.543
 20
20.4566
 11
169.402
 21
20.3175
  0
LINE
  8
0
 10
169.402
 20
20.3175
 11
169.258
 21
20.1808
  0
LINE
  8
0
 10
169.258
 20
20.1808
 11
169.111
 21
20.0467
  0
LINE
  8
0
 10
169.111
 20
20.0467
 11
168.963
 21
19.9152
  0
LINE
  8
0
 10
168.963
 20
19.9152
 11
168.812
 21
19.7862
  0
LINE
  8
0
 10
168.812
 20
19.7862
 11
168.659
 21
19.66
  0
LINE
  8
0
 10
168.659
 20
19.66
 11
168.503
 21
19.5364
  0
LINE
  8
0
 10
168.503
 20
19.5364
 11
168.346
 21
19.4155
  0
LINE
  8
0
 10
168.346
 20
19.4155
 11
168.186
 21
19.2974
  0
LINE
  8
0
 10
168.186
 20
19.2974
 11
168.024
 21
19.1821
  0
LINE
  8
0
 10
168.024
 20
19.1821
 11
167.861
 21
19.0697
  0
LINE
  8
0
 10
167.861
 20
19.0697
 11
167.695
 21
18.9601
  0
LINE
  8
0
 10
167.695
 20
18.9601
 11
167.528
 21
18.8535
  0
LINE
  8
0
 10
167.528
 20
18.8535
 11
167.359
 21
18.7497
  0
LINE
  8
0
 10
167.359
 20
18.7497
 11
167.188
 21
18.649
  0
LINE
  8
0
 10
167.188
 20
18.649
 11
167.015
 21
18.5512
  0
LINE
  8
0
 10
167.015
 20
18.5512
 11
166.84
 21
18.4565
  0
LINE
  8
0
 10
166.84
 20
18.4565
 11
166.664
 21
18.3648
  0
LINE
  8
0
 10
166.664
 20
18.3648
 11
166.486
 21
18.2762
  0
LINE
  8
0
 10
166.486
 20
18.2762
 11
166.307
 21
18.1908
  0
LINE
  8
0
 10
166.307
 20
18.1908
 11
166.127
 21
18.1084
  0
LINE
  8
0
 10
166.127
 20
18.1084
 11
165.945
 21
18.0293
  0
LINE
  8
0
 10
165.945
 20
18.0293
 11
165.761
 21
17.9533
  0
LINE
  8
0
 10
165.761
 20
17.9533
 11
165.576
 21
17.8805
  0
LINE
  8
0
 10
165.576
 20
17.8805
 11
165.39
 21
17.811
  0
LINE
  8
0
 10
165.39
 20
17.811
 11
165.203
 21
17.7447
  0
LINE
  8
0
 10
165.203
 20
17.7447
 11
165.015
 21
17.6817
  0
LINE
  8
0
 10
165.015
 20
17.6817
 11
164.826
 21
17.622
  0
LINE
  8
0
 10
164.826
 20
17.622
 11
164.635
 21
17.5656
  0
LINE
  8
0
 10
164.635
 20
17.5656
 11
164.444
 21
17.5126
  0
LINE
  8
0
 10
164.444
 20
17.5126
 11
164.252
 21
17.4629
  0
LINE
  8
0
 10
164.252
 20
17.4629
 11
164.059
 21
17.4165
  0
LINE
  8
0
 10
164.059
 20
17.4165
 11
163.865
 21
17.3736
  0
LINE
  8
0
 10
163.865
 20
17.3736
 11
163.67
 21
17.334
  0
LINE
  8
0
 10
163.67
 20
17.334
 11
163.475
 21
17.2978
  0
LINE
  8
0
 10
163.475
 20
17.2978
 11
163.279
 21
17.265
  0
LINE
  8
0
 10
163.279
 20
17.265
 11
163.083
 21
17.2357
  0
LINE
  8
0
 10
163.083
 20
17.2357
 11
162.886
 21
17.2098
  0
LINE
  8
0
 10
162.886
 20
17.2098
 11
162.689
 21
17.1873
  0
LINE
  8
0
 10
162.689
 20
17.1873
 11
162.491
 21
17.1683
  0
LINE
  8
0
 10
162.491
 20
17.1683
 11
162.293
 21
17.1527
  0
LINE
  8
0
 10
162.293
 20
17.1527
 11
162.095
 21
17.1406
  0
LINE
  8
0
 10
162.095
 20
17.1406
 11
161.897
 21
17.1319
  0
LINE
  8
0
 10
161.897
 20
17.1319
 11
161.699
 21
17.1267
  0
LINE
  8
0
 10
161.699
 20
17.1267
 11
161.5
 21
17.125
  0
LINE
  8
0
 10
161.5
 20
17.125
 11
161.301
 21
17.1267
  0
LINE
  8
0
 10
-17.5
 20
32.4
 11
-17.824
 21
32.417
  0
LINE
  8
0
 10
-17.824
 20
32.417
 11
-18.1445
 21
32.4677
  0
LINE
  8
0
 10
-18.1445
 20
32.4677
 11
-18.4579
 21
32.5517
  0
LINE
  8
0
 10
-18.4579
 20
32.5517
 11
-18.7609
 21
32.668
  0
LINE
  8
0
 10
-18.7609
 20
32.668
 11
-19.05
 21
32.8153
  0
LINE
  8
0
 10
-19.05
 20
32.8153
 11
-19.3221
 21
32.992
  0
LINE
  8
0
 10
-19.3221
 20
32.992
 11
-19.5743
 21
33.1962
  0
LINE
  8
0
 10
-19.5743
 20
33.1962
 11
-19.8037
 21
33.4257
  0
LINE
  8
0
 10
-19.8037
 20
33.4257
 11
-20.0079
 21
33.6779
  0
LINE
  8
0
 10
-20.0079
 20
33.6779
 11
-20.1847
 21
33.95
  0
LINE
  8
0
 10
-20.1847
 20
33.95
 11
-20.332
 21
34.2391
  0
LINE
  8
0
 10
-20.332
 20
34.2391
 11
-20.4483
 21
34.542
  0
LINE
  8
0
 10
-20.4483
 20
34.542
 11
-20.5323
 21
34.8555
  0
LINE
  8
0
 10
-20.5323
 20
34.8555
 11
-20.583
 21
35.1759
  0
LINE
  8
0
 10
-20.583
 20
35.1759
 11
-20.6
 21
35.5
  0
LINE
  8
0
 10
-20.6
 20
35.5
 11
-20.583
 21
35.824
  0
LINE
  8
0
 10
-20.583
 20
35.824
 11
-20.5323
 21
36.1445
  0
LINE
  8
0
 10
-20.5323
 20
36.1445
 11
-20.4483
 21
36.4579
  0
LINE
  8
0
 10
-20.4483
 20
36.4579
 11
-20.332
 21
36.7609
  0
LINE
  8
0
 10
-20.332
 20
36.7609
 11
-20.1847
 21
37.05
  0
LINE
  8
0
 10
-20.1847
 20
37.05
 11
-20.0079
 21
37.3221
  0
LINE
  8
0
 10
-20.0079
 20
37.3221
 11
-19.8037
 21
37.5743
  0
LINE
  8
0
 10
-19.8037
 20
37.5743
 11
-19.5743
 21
37.8037
  0
LINE
  8
0
 10
-19.5743
 20
37.8037
 11
-19.3221
 21
38.0079
  0
LINE
  8
0
 10
-19.3221
 20
38.0079
 11
-19.05
 21
38.1847
  0
LINE
  8
0
 10
-19.05
 20
38.1847
 11
-18.7609
 21
38.332
  0
LINE
  8
0
 10
-18.7609
 20
38.332
 11
-18.4579
 21
38.4483
  0
LINE
  8
0
 10
-18.4579
 20
38.4483
 11
-18.1445
 21
38.5323
  0
LINE
  8
0
 10
-18.1445
 20
38.5323
 11
-17.824
 21
38.583
  0
LINE
  8
0
 10
-17.824
 20
38.583
 11
-17.5
 21
38.6
  0
LINE
  8
0
 10
-17.5
 20
38.6
 11
-7.5
 21
38.6
  0
LINE
  8
0
 10
-7.5
 20
38.6
 11
-7.17595
 21
38.583
  0
LINE
  8
0
 10
-7.17595
 20
38.583
 11
-6.85547
 21
38.5323
  0
LINE
  8
0
 10
-6.85547
 20
38.5323
 11
-6.54204
 21
38.4483
  0
LINE
  8
0
 10
-6.54204
 20
38.4483
 11
-6.23911
 21
38.332
  0
LINE
  8
0
 10
-6.23911
 20
38.332
 11
-5.95
 21
38.1847
  0
LINE
  8
0
 10
-5.95
 20
38.1847
 11
-5.67786
 21
38.0079
  0
LINE
  8
0
 10
-5.67786
 20
38.0079
 11
-5.42569
 21
37.8037
  0
LINE
  8
0
 10
-5.42569
 20
37.8037
 11
-5.19624
 21
37.5743
  0
LINE
  8
0
 10
-5.19624
 20
37.5743
 11
-4.99203
 21
37.3221
  0
LINE
  8
0
 10
-4.99203
 20
37.3221
 11
-4.81531
 21
37.05
  0
LINE
  8
0
 10
-4.81531
 20
37.05
 11
-4.668
 21
36.7609
  0
LINE
  8
0
 10
-4.668
 20
36.7609
 11
-4.55171
 21
36.4579
  0
LINE
  8
0
 10
-4.55171
 20
36.4579
 11
-4.46773
 21
36.1445
  0
LINE
  8
0
 10
-4.46773
 20
36.1445
 11
-4.41698
 21
35.824
  0
LINE
  8
0
 10
-4.41698
 20
35.824
 11
-4.39999
 21
35.5
  0
LINE
  8
0
 10
-4.39999
 20
35.5
 11
-4.41698
 21
35.1759
  0
LINE
  8
0
 10
-4.41698
 20
35.1759
 11
-4.46773
 21
34.8555
  0
LINE
  8
0
 10
-4.46773
 20
34.8555
 11
-4.55171
 21
34.542
  0
LINE
  8
0
 10
-4.55171
 20
34.542
 11
-4.668
 21
34.2391
  0
LINE
  8
0
 10
-4.668
 20
34.2391
 11
-4.81531
 21
33.95
  0
LINE
  8
0
 10
-4.81531
 20
33.95
 11
-4.99203
 21
33.6779
  0
LINE
  8
0
 10
-4.99203
 20
33.6779
 11
-5.19624
 21
33.4257
  0
LINE
  8
0
 10
-5.19624
 20
33.4257
 11
-5.42569
 21
33.1962
  0
LINE
  8
0
 10
-5.42569
 20
33.1962
 11
-5.67786
 21
32.992
  0
LINE
  8
0
 10
-5.67786
 20
32.992
 11
-5.95
 21
32.8153
  0
LINE
  8
0
 10
-5.95
 20
32.8153
 11
-6.23911
 21
32.668
  0
LINE
  8
0
 10
-6.23911
 20
32.668
 11
-6.54204
 21
32.5517
  0
LINE
  8
0
 10
-6.54204
 20
32.5517
 11
-6.85547
 21
32.4677
  0
LINE
  8
0
 10
-6.85547
 20
32.4677
 11
-7.17595
 21
32.417
  0
LINE
  8
0
 10
-7.17595
 20
32.417
 11
-7.5
 21
32.4
  0
LINE
  8
0
 10
-7.5
 20
32.4
 11
-17.5
 21
32.4
  0
LINE
  8
0
 10
71.608
 20
28.7705
 11
71.2203
 21
28.8319
  0
LINE
  8
0
 10
71.2203
 20
28.8319
 11
70.8412
 21
28.9335
  0
LINE
  8
0
 10
70.8412
 20
28.9335
 11
70.4747
 21
29.0742
  0
LINE
  8
0
 10
70.4747
 20
29.0742
 11
70.125
 21
29.2524
  0
LINE
  8
0
 10
70.125
 20
29.2524
 11
69.7958
 21
29.4662
  0
LINE
  8
0
 10
69.7958
 20
29.4662
 11
69.4908
 21
29.7132
  0
LINE
  8
0
 10
69.4908
 20
29.7132
 11
69.2132
 21
29.9908
  0
LINE
  8
0
 10
69.2132
 20
29.9908
 11
68.9662
 21
30.2958
  0
LINE
  8
0
 10
68.9662
 20
30.2958
 11
68.7524
 21
30.625
  0
LINE
  8
0
 10
68.7524
 20
30.625
 11
68.5742
 21
30.9747
  0
LINE
  8
0
 10
68.5742
 20
30.9747
 11
68.4335
 21
31.3412
  0
LINE
  8
0
 10
68.4335
 20
31.3412
 11
68.3319
 21
31.7203
  0
LINE
  8
0
 10
68.3319
 20
31.7203
 11
68.2705
 21
32.108
  0
LINE
  8
0
 10
68.2705
 20
32.108
 11
68.25
 21
32.5
  0
LINE
  8
0
 10
68.25
 20
32.5
 11
68.2705
 21
32.892
  0
LINE
  8
0
 10
68.2705
 20
32.892
 11
68.3319
 21
33.2797
  0
LINE
  8
0
 10
68.3319
 20
33.2797
 11
68.4335
 21
33.6588
  0
LINE
  8
0
 10
68.4335
 20
33.6588
 11
68.5742
 21
34.0253
  0
LINE
  8
0
 10
68.5742
 20
34.0253
 11
68.7524
 21
34.375
  0
LINE
  8
0
 10
68.7524
 20
34.375
 11
68.9662
 21
34.7042
  0
LINE
  8
0
 10
68.9662
 20
34.7042
 11
69.2132
 21
35.0092
  0
LINE
  8
0
 10
69.2132
 20
35.0092
 11
69.4908
 21
35.2868
  0
LINE
  8
0
 10
69.4908
 20
35.2868
 11
69.7958
 21
35.5338
  0
LINE
  8
0
 10
69.7958
 20
35.5338
 11
70.125
 21
35.7476
  0
LINE
  8
0
 10
70.125
 20
35.7476
 11
70.4747
 21
35.9258
  0
LINE
  8
0
 10
70.4747
 20
35.9258
 11
70.8412
 21
36.0665
  0
LINE
  8
0
 10
70.8412
 20
36.0665
 11
71.2203
 21
36.168
  0
LINE
  8
0
 10
71.2203
 20
36.168
 11
71.608
 21
36.2294
  0
LINE
  8
0
 10
71.608
 20
36.2294
 11
72
 21
36.25
  0
LINE
  8
0
 10
72
 20
36.25
 11
72.392
 21
36.2294
  0
LINE
  8
0
 10
72.392
 20
36.2294
 11
72.7797
 21
36.168
  0
LINE
  8
0
 10
72.7797
 20
36.168
 11
73.1588
 21
36.0665
  0
LINE
  8
0
 10
73.1588
 20
36.0665
 11
73.5253
 21
35.9258
  0
LINE
  8
0
 10
73.5253
 20
35.9258
 11
73.875
 21
35.7476
  0
LINE
  8
0
 10
73.875
 20
35.7476
 11
74.2042
 21
35.5338
  0
LINE
  8
0
 10
74.2042
 20
35.5338
 11
74.5092
 21
35.2868
  0
LINE
  8
0
 10
74.5092
 20
35.2868
 11
74.7868
 21
35.0092
  0
LINE
  8
0
 10
74.7868
 20
35.0092
 11
75.0338
 21
34.7042
  0
LINE
  8
0
 10
75.0338
 20
34.7042
 11
75.2476
 21
34.375
  0
LINE
  8
0
 10
75.2476
 20
34.375
 11
75.4258
 21
34.0253
  0
LINE
  8
0
 10
75.4258
 20
34.0253
 11
75.5665
 21
33.6588
  0
LINE
  8
0
 10
75.5665
 20
33.6588
 11
75.668
 21
33.2797
  0
LINE
  8
0
 10
75.668
 20
33.2797
 11
75.7294
 21
32.892
  0
LINE
  8
0
 10
75.7294
 20
32.892
 11
75.75
 21
32.5
  0
LINE
  8
0
 10
75.75
 20
32.5
 11
75.7294
 21
32.108
  0
LINE
  8
0
 10
75.7294
 20
32.108
 11
75.668
 21
31.7203
  0
LINE
  8
0
 10
75.668
 20
31.7203
 11
75.5665
 21
31.3412
  0
LINE
  8
0
 10
75.5665
 20
31.3412
 11
75.4258
 21
30.9747
  0
LINE
  8
0
 10
75.4258
 20
30.9747
 11
75.2476
 21
30.625
  0
LINE
  8
0
 10
75.2476
 20
30.625
 11
75.0338
 21
30.2958
  0
LINE
  8
0
 10
75.0338
 20
30.2958
 11
74.7868
 21
29.9908
  0
LINE
  8
0
 10
74.7868
 20
29.9908
 11
74.5092
 21
29.7132
  0
LINE
  8
0
 10
74.5092
 20
29.7132
 11
74.2042
 21
29.4662
  0
LINE
  8
0
 10
74.2042
 20
29.4662
 11
73.875
 21
29.2524
  0
LINE
  8
0
 10
73.875
 20
29.2524
 11
73.5253
 21
29.0742
  0
LINE
  8
0
 10
73.5253
 20
29.0742
 11
73.1588
 21
28.9335
  0
LINE
  8
0
 10
73.1588
 20
28.9335
 11
72.7797
 21
28.8319
  0
LINE
  8
0
 10
72.7797
 20
28.8319
 11
72.392
 21
28.7705
  0
LINE
  8
0
 10
72.392
 20
28.7705
 11
72
 21
28.75
  0
LINE
  8
0
 10
72
 20
28.75
 11
71.608
 21
28.7705
  0
LINE
  8
0
 10
182.16
 20
22.7678
 11
181.824
 21
22.821
  0
LINE
  8
0
 10
181.824
 20
22.821
 11
181.496
 21
22.9091
  0
LINE
  8
0
 10
181.496
 20
22.9091
 11
181.178
 21
23.031
  0
LINE
  8
0
 10
181.178
 20
23.031
 11
180.875
 21
23.1854
  0
LINE
  8
0
 10
180.875
 20
23.1854
 11
180.59
 21
23.3707
  0
LINE
  8
0
 10
180.59
 20
23.3707
 11
180.325
 21
23.5848
  0
LINE
  8
0
 10
180.325
 20
23.5848
 11
180.085
 21
23.8253
  0
LINE
  8
0
 10
180.085
 20
23.8253
 11
179.871
 21
24.0897
  0
LINE
  8
0
 10
179.871
 20
24.0897
 11
179.685
 21
24.375
  0
LINE
  8
0
 10
179.685
 20
24.375
 11
179.531
 21
24.6781
  0
LINE
  8
0
 10
179.531
 20
24.6781
 11
179.409
 21
24.9957
  0
LINE
  8
0
 10
179.409
 20
24.9957
 11
179.321
 21
25.3243
  0
LINE
  8
0
 10
179.321
 20
25.3243
 11
179.268
 21
25.6603
  0
LINE
  8
0
 10
179.268
 20
25.6603
 11
179.25
 21
26
  0
LINE
  8
0
 10
179.25
 20
26
 11
179.268
 21
26.3397
  0
LINE
  8
0
 10
179.268
 20
26.3397
 11
179.321
 21
26.6757
  0
LINE
  8
0
 10
179.321
 20
26.6757
 11
179.409
 21
27.0043
  0
LINE
  8
0
 10
179.409
 20
27.0043
 11
179.531
 21
27.3219
  0
LINE
  8
0
 10
179.531
 20
27.3219
 11
179.685
 21
27.625
  0
LINE
  8
0
 10
179.685
 20
27.625
 11
179.871
 21
27.9103
  0
LINE
  8
0
 10
179.871
 20
27.9103
 11
180.085
 21
28.1747
  0
LINE
  8
0
 10
180.085
 20
28.1747
 11
180.325
 21
28.4152
  0
LINE
  8
0
 10
180.325
 20
28.4152
 11
180.59
 21
28.6293
  0
LINE
  8
0
 10
180.59
 20
28.6293
 11
180.875
 21
28.8146
  0
LINE
  8
0
 10
180.875
 20
28.8146
 11
181.178
 21
28.969
  0
LINE
  8
0
 10
181.178
 20
28.969
 11
181.496
 21
29.0909
  0
LINE
  8
0
 10
181.496
 20
29.0909
 11
181.824
 21
29.179
  0
LINE
  8
0
 10
181.824
 20
29.179
 11
182.16
 21
29.2322
  0
LINE
  8
0
 10
182.16
 20
29.2322
 11
182.5
 21
29.25
  0
LINE
  8
0
 10
182.5
 20
29.25
 11
182.84
 21
29.2322
  0
LINE
  8
0
 10
182.84
 20
29.2322
 11
183.176
 21
29.179
  0
LINE
  8
0
 10
183.176
 20
29.179
 11
183.504
 21
29.0909
  0
LINE
  8
0
 10
183.504
 20
29.0909
 11
183.822
 21
28.969
  0
LINE
  8
0
 10
183.822
 20
28.969
 11
184.125
 21
28.8146
  0
LINE
  8
0
 10
184.125
 20
28.8146
 11
184.41
 21
28.6293
  0
LINE
  8
0
 10
184.41
 20
28.6293
 11
184.675
 21
28.4152
  0
LINE
  8
0
 10
184.675
 20
28.4152
 11
184.915
 21
28.1747
  0
LINE
  8
0
 10
184.915
 20
28.1747
 11
185.129
 21
27.9103
  0
LINE
  8
0
 10
185.129
 20
27.9103
 11
185.315
 21
27.625
  0
LINE
  8
0
 10
185.315
 20
27.625
 11
185.469
 21
27.3219
  0
LINE
  8
0
 10
185.469
 20
27.3219
 11
185.591
 21
27.0043
  0
LINE
  8
0
 10
185.591
 20
27.0043
 11
185.679
 21
26.6757
  0
LINE
  8
0
 10
185.679
 20
26.6757
 11
185.732
 21
26.3397
  0
LINE
  8
0
 10
185.732
 20
26.3397
 11
185.75
 21
26
  0
LINE
  8
0
 10
185.75
 20
26
 11
185.732
 21
25.6603
  0
LINE
  8
0
 10
185.732
 20
25.6603
 11
185.679
 21
25.3243
  0
LINE
  8
0
 10
185.679
 20
25.3243
 11
185.591
 21
24.9957
  0
LINE
  8
0
 10
185.591
 20
24.9957
 11
185.469
 21
24.6781
  0
LINE
  8
0
 10
185.469
 20
24.6781
 11
185.315
 21
24.375
  0
LINE
  8
0
 10
185.315
 20
24.375
 11
185.129
 21
24.0897
  0
LINE
  8
0
 10
185.129
 20
24.0897
 11
184.915
 21
23.8253
  0
LINE
  8
0
 10
184.915
 20
23.8253
 11
184.675
 21
23.5848
  0
LINE
  8
0
 10
184.675
 20
23.5848
 11
184.41
 21
23.3707
  0
LINE
  8
0
 10
184.41
 20
23.3707
 11
184.125
 21
23.1854
  0
LINE
  8
0
 10
184.125
 20
23.1854
 11
183.822
 21
23.031
  0
LINE
  8
0
 10
183.822
 20
23.031
 11
183.504
 21
22.9091
  0
LINE
  8
0
 10
183.504
 20
22.9091
 11
183.176
 21
22.821
  0
LINE
  8
0
 10
183.176
 20
22.821
 11
182.84
 21
22.7678
  0
LINE
  8
0
 10
182.84
 20
22.7678
 11
182.5
 21
22.75
  0
LINE
  8
0
 10
182.5
 20
22.75
 11
182.16
 21
22.7678
  0
LINE
  8
0
 10
-0.0999908
 20
13.7333
 11
-0.0999908
 21
24.7667
  0
LINE
  8
0
 10
-0.0999908
 20
24.7667
 11
3
 21
24.7667
  0
LINE
  8
0
 10
3
 20
24.7667
 11
3
 21
13.7333
  0
LINE
  8
0
 10
3
 20
13.7333
 11
-0.0999908
 21
13.7333
  0
LINE
  8
0
 10
-17.5
 20
16.5
 11
-17.824
 21
16.517
  0
LINE
  8
0
 10
-17.824
 20
16.517
 11
-18.1445
 21
16.5677
  0
LINE
  8
0
 10
-18.1445
 20
16.5677
 11
-18.4579
 21
16.6517
  0
LINE
  8
0
 10
-18.4579
 20
16.6517
 11
-18.7609
 21
16.768
  0
LINE
  8
0
 10
-18.7609
 20
16.768
 11
-19.05
 21
16.9153
  0
LINE
  8
0
 10
-19.05
 20
16.9153
 11
-19.3221
 21
17.092
  0
LINE
  8
0
 10
-19.3221
 20
17.092
 11
-19.5743
 21
17.2962
  0
LINE
  8
0
 10
-19.5743
 20
17.2962
 11
-19.8037
 21
17.5257
  0
LINE
  8
0
 10
-19.8037
 20
17.5257
 11
-20.0079
 21
17.7779
  0
LINE
  8
0
 10
-20.0079
 20
17.7779
 11
-20.1847
 21
18.05
  0
LINE
  8
0
 10
-20.1847
 20
18.05
 11
-20.332
 21
18.3391
  0
LINE
  8
0
 10
-20.332
 20
18.3391
 11
-20.4483
 21
18.642
  0
LINE
  8
0
 10
-20.4483
 20
18.642
 11
-20.5323
 21
18.9555
  0
LINE
  8
0
 10
-20.5323
 20
18.9555
 11
-20.583
 21
19.276
  0
LINE
  8
0
 10
-20.583
 20
19.276
 11
-20.6
 21
19.6
  0
LINE
  8
0
 10
-20.6
 20
19.6
 11
-20.583
 21
19.924
  0
LINE
  8
0
 10
-20.583
 20
19.924
 11
-20.5323
 21
20.2445
  0
LINE
  8
0
 10
-20.5323
 20
20.2445
 11
-20.4483
 21
20.558
  0
LINE
  8
0
 10
-20.4483
 20
20.558
 11
-20.332
 21
20.8609
  0
LINE
  8
0
 10
-20.332
 20
20.8609
 11
-20.1847
 21
21.15
  0
LINE
  8
0
 10
-20.1847
 20
21.15
 11
-20.0079
 21
21.4221
  0
LINE
  8
0
 10
-20.0079
 20
21.4221
 11
-19.8037
 21
21.6743
  0
LINE
  8
0
 10
-19.8037
 20
21.6743
 11
-19.5743
 21
21.9037
  0
LINE
  8
0
 10
-19.5743
 20
21.9037
 11
-19.3221
 21
22.1079
  0
LINE
  8
0
 10
-19.3221
 20
22.1079
 11
-19.05
 21
22.2847
  0
LINE
  8
0
 10
-19.05
 20
22.2847
 11
-18.7609
 21
22.432
  0
LINE
  8
0
 10
-18.7609
 20
22.432
 11
-18.4579
 21
22.5483
  0
LINE
  8
0
 10
-18.4579
 20
22.5483
 11
-18.1445
 21
22.6322
  0
LINE
  8
0
 10
-18.1445
 20
22.6322
 11
-17.824
 21
22.683
  0
LINE
  8
0
 10
-17.824
 20
22.683
 11
-17.5
 21
22.7
  0
LINE
  8
0
 10
-17.5
 20
22.7
 11
-7.5
 21
22.7
  0
LINE
  8
0
 10
-7.5
 20
22.7
 11
-7.17595
 21
22.683
  0
LINE
  8
0
 10
-7.17595
 20
22.683
 11
-6.85547
 21
22.6322
  0
LINE
  8
0
 10
-6.85547
 20
22.6322
 11
-6.54204
 21
22.5483
  0
LINE
  8
0
 10
-6.54204
 20
22.5483
 11
-6.23911
 21
22.432
  0
LINE
  8
0
 10
-6.23911
 20
22.432
 11
-5.95
 21
22.2847
  0
LINE
  8
0
 10
-5.95
 20
22.2847
 11
-5.67786
 21
22.1079
  0
LINE
  8
0
 10
-5.67786
 20
22.1079
 11
-5.42569
 21
21.9037
  0
LINE
  8
0
 10
-5.42569
 20
21.9037
 11
-5.19624
 21
21.6743
  0
LINE
  8
0
 10
-5.19624
 20
21.6743
 11
-4.99203
 21
21.4221
  0
LINE
  8
0
 10
-4.99203
 20
21.4221
 11
-4.81531
 21
21.15
  0
LINE
  8
0
 10
-4.81531
 20
21.15
 11
-4.668
 21
20.8609
  0
LINE
  8
0
 10
-4.668
 20
20.8609
 11
-4.55171
 21
20.558
  0
LINE
  8
0
 10
-4.55171
 20
20.558
 11
-4.46773
 21
20.2445
  0
LINE
  8
0
 10
-4.46773
 20
20.2445
 11
-4.41698
 21
19.924
  0
LINE
  8
0
 10
-4.41698
 20
19.924
 11
-4.39999
 21
19.6
  0
LINE
  8
0
 10
-4.39999
 20
19.6
 11
-4.41698
 21
19.276
  0
LINE
  8
0
 10
-4.41698
 20
19.276
 11
-4.46773
 21
18.9555
  0
LINE
  8
0
 10
-4.46773
 20
18.9555
 11
-4.55171
 21
18.642
  0
LINE
  8
0
 10
-4.55171
 20
18.642
 11
-4.668
 21
18.3391
  0
LINE
  8
0
 10
-4.668
 20
18.3391
 11
-4.81531
 21
18.05
  0
LINE
  8
0
 10
-4.81531
 20
18.05
 11
-4.99203
 21
17.7779
  0
LINE
  8
0
 10
-4.99203
 20
17.7779
 11
-5.19624
 21
17.5257
  0
LINE
  8
0
 10
-5.19624
 20
17.5257
 11
-5.42569
 21
17.2962
  0
LINE
  8
0
 10
-5.42569
 20
17.2962
 11
-5.67786
 21
17.092
  0
LINE
  8
0
 10
-5.67786
 20
17.092
 11
-5.95
 21
16.9153
  0
LINE
  8
0
 10
-5.95
 20
16.9153
 11
-6.23911
 21
16.768
  0
LINE
  8
0
 10
-6.23911
 20
16.768
 11
-6.54204
 21
16.6517
  0
LINE
  8
0
 10
-6.54204
 20
16.6517
 11
-6.85547
 21
16.5677
  0
LINE
  8
0
 10
-6.85547
 20
16.5677
 11
-7.17595
 21
16.517
  0
LINE
  8
0
 10
-7.17595
 20
16.517
 11
-7.5
 21
16.5
  0
LINE
  8
0
 10
-7.5
 20
16.5
 11
-17.5
 21
16.5
  0
LINE
  8
0
 10
58.01
 20
15.531
 11
57.8963
 21
15.549
  0
LINE
  8
0
 10
57.8963
 20
15.549
 11
57.7851
 21
15.5788
  0
LINE
  8
0
 10
57.7851
 20
15.5788
 11
57.6776
 21
15.6201
  0
LINE
  8
0
 10
57.6776
 20
15.6201
 11
57.575
 21
15.6724
  0
LINE
  8
0
 10
57.575
 20
15.6724
 11
57.4784
 21
15.7351
  0
LINE
  8
0
 10
57.4784
 20
15.7351
 11
57.3889
 21
15.8075
  0
LINE
  8
0
 10
57.3889
 20
15.8075
 11
57.3075
 21
15.8889
  0
LINE
  8
0
 10
57.3075
 20
15.8889
 11
57.2351
 21
15.9784
  0
LINE
  8
0
 10
57.2351
 20
15.9784
 11
57.1724
 21
16.075
  0
LINE
  8
0
 10
57.1724
 20
16.075
 11
57.1201
 21
16.1776
  0
LINE
  8
0
 10
57.1201
 20
16.1776
 11
57.0788
 21
16.2851
  0
LINE
  8
0
 10
57.0788
 20
16.2851
 11
57.049
 21
16.3963
  0
LINE
  8
0
 10
57.049
 20
16.3963
 11
57.031
 21
16.51
  0
LINE
  8
0
 10
57.031
 20
16.51
 11
57.025
 21
16.625
  0
LINE
  8
0
 10
57.025
 20
16.625
 11
57.031
 21
16.74
  0
LINE
  8
0
 10
57.031
 20
16.74
 11
57.049
 21
16.8537
  0
LINE
  8
0
 10
57.049
 20
16.8537
 11
57.0788
 21
16.9649
  0
LINE
  8
0
 10
57.0788
 20
16.9649
 11
57.1201
 21
17.0724
  0
LINE
  8
0
 10
57.1201
 20
17.0724
 11
57.1724
 21
17.175
  0
LINE
  8
0
 10
57.1724
 20
17.175
 11
57.2351
 21
17.2716
  0
LINE
  8
0
 10
57.2351
 20
17.2716
 11
57.3075
 21
17.361
  0
LINE
  8
0
 10
57.3075
 20
17.361
 11
57.3889
 21
17.4425
  0
LINE
  8
0
 10
57.3889
 20
17.4425
 11
57.4784
 21
17.5149
  0
LINE
  8
0
 10
57.4784
 20
17.5149
 11
57.575
 21
17.5776
  0
LINE
  8
0
 10
57.575
 20
17.5776
 11
57.6776
 21
17.6299
  0
LINE
  8
0
 10
57.6776
 20
17.6299
 11
57.7851
 21
17.6712
  0
LINE
  8
0
 10
57.7851
 20
17.6712
 11
57.8963
 21
17.701
  0
LINE
  8
0
 10
57.8963
 20
17.701
 11
58.01
 21
17.719
  0
LINE
  8
0
 10
58.01
 20
17.719
 11
58.125
 21
17.725
  0
LINE
  8
0
 10
58.125
 20
17.725
 11
58.24
 21
17.719
  0
LINE
  8
0
 10
58.24
 20
17.719
 11
58.3537
 21
17.701
  0
LINE
  8
0
 10
58.3537
 20
17.701
 11
58.4649
 21
17.6712
  0
LINE
  8
0
 10
58.4649
 20
17.6712
 11
58.5724
 21
17.6299
  0
LINE
  8
0
 10
58.5724
 20
17.6299
 11
58.675
 21
17.5776
  0
LINE
  8
0
 10
58.675
 20
17.5776
 11
58.7716
 21
17.5149
  0
LINE
  8
0
 10
58.7716
 20
17.5149
 11
58.861
 21
17.4425
  0
LINE
  8
0
 10
58.861
 20
17.4425
 11
58.9425
 21
17.361
  0
LINE
  8
0
 10
58.9425
 20
17.361
 11
59.0149
 21
17.2716
  0
LINE
  8
0
 10
59.0149
 20
17.2716
 11
59.0776
 21
17.175
  0
LINE
  8
0
 10
59.0776
 20
17.175
 11
59.1299
 21
17.0724
  0
LINE
  8
0
 10
59.1299
 20
17.0724
 11
59.1712
 21
16.9649
  0
LINE
  8
0
 10
59.1712
 20
16.9649
 11
59.201
 21
16.8537
  0
LINE
  8
0
 10
59.201
 20
16.8537
 11
59.219
 21
16.74
  0
LINE
  8
0
 10
59.219
 20
16.74
 11
59.225
 21
16.625
  0
LINE
  8
0
 10
59.225
 20
16.625
 11
59.219
 21
16.51
  0
LINE
  8
0
 10
59.219
 20
16.51
 11
59.201
 21
16.3963
  0
LINE
  8
0
 10
59.201
 20
16.3963
 11
59.1712
 21
16.2851
  0
LINE
  8
0
 10
59.1712
 20
16.2851
 11
59.1299
 21
16.1776
  0
LINE
  8
0
 10
59.1299
 20
16.1776
 11
59.0776
 21
16.075
  0
LINE
  8
0
 10
59.0776
 20
16.075
 11
59.0149
 21
15.9784
  0
LINE
  8
0
 10
59.0149
 20
15.9784
 11
58.9425
 21
15.8889
  0
LINE
  8
0
 10
58.9425
 20
15.8889
 11
58.861
 21
15.8075
  0
LINE
  8
0
 10
58.861
 20
15.8075
 11
58.7716
 21
15.7351
  0
LINE
  8
0
 10
58.7716
 20
15.7351
 11
58.675
 21
15.6724
  0
LINE
  8
0
 10
58.675
 20
15.6724
 11
58.5724
 21
15.6201
  0
LINE
  8
0
 10
58.5724
 20
15.6201
 11
58.4649
 21
15.5788
  0
LINE
  8
0
 10
58.4649
 20
15.5788
 11
58.3537
 21
15.549
  0
LINE
  8
0
 10
58.3537
 20
15.549
 11
58.24
 21
15.531
  0
LINE
  8
0
 10
58.24
 20
15.531
 11
58.125
 21
15.525
  0
LINE
  8
0
 10
58.125
 20
15.525
 11
58.01
 21
15.531
  0
LINE
  8
0
 10
5.01001
 20
15.531
 11
4.89629
 21
15.549
  0
LINE
  8
0
 10
4.89629
 20
15.549
 11
4.78508
 21
15.5788
  0
LINE
  8
0
 10
4.78508
 20
15.5788
 11
4.67758
 21
15.6201
  0
LINE
  8
0
 10
4.67758
 20
15.6201
 11
4.575
 21
15.6724
  0
LINE
  8
0
 10
4.575
 20
15.6724
 11
4.47842
 21
15.7351
  0
LINE
  8
0
 10
4.47842
 20
15.7351
 11
4.38895
 21
15.8075
  0
LINE
  8
0
 10
4.38895
 20
15.8075
 11
4.30753
 21
15.8889
  0
LINE
  8
0
 10
4.30753
 20
15.8889
 11
4.23508
 21
15.9784
  0
LINE
  8
0
 10
4.23508
 20
15.9784
 11
4.17236
 21
16.075
  0
LINE
  8
0
 10
4.17236
 20
16.075
 11
4.12009
 21
16.1776
  0
LINE
  8
0
 10
4.12009
 20
16.1776
 11
4.07883
 21
16.2851
  0
LINE
  8
0
 10
4.07883
 20
16.2851
 11
4.04903
 21
16.3963
  0
LINE
  8
0
 10
4.04903
 20
16.3963
 11
4.03102
 21
16.51
  0
LINE
  8
0
 10
4.03102
 20
16.51
 11
4.02499
 21
16.625
  0
LINE
  8
0
 10
4.02499
 20
16.625
 11
4.03102
 21
16.74
  0
LINE
  8
0
 10
4.03102
 20
16.74
 11
4.04903
 21
16.8537
  0
LINE
  8
0
 10
4.04903
 20
16.8537
 11
4.07883
 21
16.9649
  0
LINE
  8
0
 10
4.07883
 20
16.9649
 11
4.12009
 21
17.0724
  0
LINE
  8
0
 10
4.12009
 20
17.0724
 11
4.17236
 21
17.175
  0
LINE
  8
0
 10
4.17236
 20
17.175
 11
4.23508
 21
17.2716
  0
LINE
  8
0
 10
4.23508
 20
17.2716
 11
4.30753
 21
17.361
  0
LINE
  8
0
 10
4.30753
 20
17.361
 11
4.38895
 21
17.4425
  0
LINE
  8
0
 10
4.38895
 20
17.4425
 11
4.47842
 21
17.5149
  0
LINE
  8
0
 10
4.47842
 20
17.5149
 11
4.575
 21
17.5776
  0
LINE
  8
0
 10
4.575
 20
17.5776
 11
4.67758
 21
17.6299
  0
LINE
  8
0
 10
4.67758
 20
17.6299
 11
4.78508
 21
17.6712
  0
LINE
  8
0
 10
4.78508
 20
17.6712
 11
4.89629
 21
17.701
  0
LINE
  8
0
 10
4.89629
 20
17.701
 11
5.01001
 21
17.719
  0
LINE
  8
0
 10
5.01001
 20
17.719
 11
5.125
 21
17.725
  0
LINE
  8
0
 10
5.125
 20
17.725
 11
5.23997
 21
17.719
  0
LINE
  8
0
 10
5.23997
 20
17.719
 11
5.3537
 21
17.701
  0
LINE
  8
0
 10
5.3537
 20
17.701
 11
5.4649
 21
17.6712
  0
LINE
  8
0
 10
5.4649
 20
17.6712
 11
5.5724
 21
17.6299
  0
LINE
  8
0
 10
5.5724
 20
17.6299
 11
5.67499
 21
17.5776
  0
LINE
  8
0
 10
5.67499
 20
17.5776
 11
5.77156
 21
17.5149
  0
LINE
  8
0
 10
5.77156
 20
17.5149
 11
5.86104
 21
17.4425
  0
LINE
  8
0
 10
5.86104
 20
17.4425
 11
5.94246
 21
17.361
  0
LINE
  8
0
 10
5.94246
 20
17.361
 11
6.01491
 21
17.2716
  0
LINE
  8
0
 10
6.01491
 20
17.2716
 11
6.07762
 21
17.175
  0
LINE
  8
0
 10
6.07762
 20
17.175
 11
6.1299
 21
17.0724
  0
LINE
  8
0
 10
6.1299
 20
17.0724
 11
6.17116
 21
16.9649
  0
LINE
  8
0
 10
6.17116
 20
16.9649
 11
6.20096
 21
16.8537
  0
LINE
  8
0
 10
6.20096
 20
16.8537
 11
6.21896
 21
16.74
  0
LINE
  8
0
 10
6.21896
 20
16.74
 11
6.22499
 21
16.625
  0
LINE
  8
0
 10
6.22499
 20
16.625
 11
6.21896
 21
16.51
  0
LINE
  8
0
 10
6.21896
 20
16.51
 11
6.20096
 21
16.3963
  0
LINE
  8
0
 10
6.20096
 20
16.3963
 11
6.17116
 21
16.2851
  0
LINE
  8
0
 10
6.17116
 20
16.2851
 11
6.1299
 21
16.1776
  0
LINE
  8
0
 10
6.1299
 20
16.1776
 11
6.07762
 21
16.075
  0
LINE
  8
0
 10
6.07762
 20
16.075
 11
6.01491
 21
15.9784
  0
LINE
  8
0
 10
6.01491
 20
15.9784
 11
5.94246
 21
15.8889
  0
LINE
  8
0
 10
5.94246
 20
15.8889
 11
5.86104
 21
15.8075
  0
LINE
  8
0
 10
5.86104
 20
15.8075
 11
5.77156
 21
15.7351
  0
LINE
  8
0
 10
5.77156
 20
15.7351
 11
5.67499
 21
15.6724
  0
LINE
  8
0
 10
5.67499
 20
15.6724
 11
5.5724
 21
15.6201
  0
LINE
  8
0
 10
5.5724
 20
15.6201
 11
5.4649
 21
15.5788
  0
LINE
  8
0
 10
5.4649
 20
15.5788
 11
5.3537
 21
15.549
  0
LINE
  8
0
 10
5.3537
 20
15.549
 11
5.23997
 21
15.531
  0
LINE
  8
0
 10
5.23997
 20
15.531
 11
5.125
 21
15.525
  0
LINE
  8
0
 10
5.125
 20
15.525
 11
5.01001
 21
15.531
  0
LINE
  8
0
 10
93.576
 20
11.317
 11
93.2555
 21
11.3677
  0
LINE
  8
0
 10
93.2555
 20
11.3677
 11
92.942
 21
11.4517
  0
LINE
  8
0
 10
92.942
 20
11.4517
 11
92.6391
 21
11.568
  0
LINE
  8
0
 10
92.6391
 20
11.568
 11
92.35
 21
11.7153
  0
LINE
  8
0
 10
92.35
 20
11.7153
 11
92.0779
 21
11.892
  0
LINE
  8
0
 10
92.0779
 20
11.892
 11
91.8257
 21
12.0962
  0
LINE
  8
0
 10
91.8257
 20
12.0962
 11
91.5963
 21
12.3257
  0
LINE
  8
0
 10
91.5963
 20
12.3257
 11
91.392
 21
12.5779
  0
LINE
  8
0
 10
91.392
 20
12.5779
 11
91.2153
 21
12.85
  0
LINE
  8
0
 10
91.2153
 20
12.85
 11
91.068
 21
13.1391
  0
LINE
  8
0
 10
91.068
 20
13.1391
 11
90.9517
 21
13.442
  0
LINE
  8
0
 10
90.9517
 20
13.442
 11
90.8677
 21
13.7555
  0
LINE
  8
0
 10
90.8677
 20
13.7555
 11
90.817
 21
14.076
  0
LINE
  8
0
 10
90.817
 20
14.076
 11
90.8
 21
14.4
  0
LINE
  8
0
 10
90.8
 20
14.4
 11
90.817
 21
14.724
  0
LINE
  8
0
 10
90.817
 20
14.724
 11
90.8677
 21
15.0445
  0
LINE
  8
0
 10
90.8677
 20
15.0445
 11
90.9517
 21
15.3579
  0
LINE
  8
0
 10
90.9517
 20
15.3579
 11
91.068
 21
15.6609
  0
LINE
  8
0
 10
91.068
 20
15.6609
 11
91.2153
 21
15.95
  0
LINE
  8
0
 10
91.2153
 20
15.95
 11
91.392
 21
16.2221
  0
LINE
  8
0
 10
91.392
 20
16.2221
 11
91.5963
 21
16.4743
  0
LINE
  8
0
 10
91.5963
 20
16.4743
 11
91.8257
 21
16.7037
  0
LINE
  8
0
 10
91.8257
 20
16.7037
 11
92.0779
 21
16.9079
  0
LINE
  8
0
 10
92.0779
 20
16.9079
 11
92.35
 21
17.0847
  0
LINE
  8
0
 10
92.35
 20
17.0847
 11
92.6391
 21
17.232
  0
LINE
  8
0
 10
92.6391
 20
17.232
 11
92.942
 21
17.3483
  0
LINE
  8
0
 10
92.942
 20
17.3483
 11
93.2555
 21
17.4323
  0
LINE
  8
0
 10
93.2555
 20
17.4323
 11
93.576
 21
17.483
  0
LINE
  8
0
 10
93.576
 20
17.483
 11
93.9
 21
17.5
  0
LINE
  8
0
 10
93.9
 20
17.5
 11
94.224
 21
17.483
  0
LINE
  8
0
 10
94.224
 20
17.483
 11
94.5445
 21
17.4323
  0
LINE
  8
0
 10
94.5445
 20
17.4323
 11
94.858
 21
17.3483
  0
LINE
  8
0
 10
94.858
 20
17.3483
 11
95.1609
 21
17.232
  0
LINE
  8
0
 10
95.1609
 20
17.232
 11
95.45
 21
17.0847
  0
LINE
  8
0
 10
95.45
 20
17.0847
 11
95.7221
 21
16.9079
  0
LINE
  8
0
 10
95.7221
 20
16.9079
 11
95.9743
 21
16.7037
  0
LINE
  8
0
 10
95.9743
 20
16.7037
 11
96.2038
 21
16.4743
  0
LINE
  8
0
 10
96.2038
 20
16.4743
 11
96.4079
 21
16.2221
  0
LINE
  8
0
 10
96.4079
 20
16.2221
 11
96.5847
 21
15.95
  0
LINE
  8
0
 10
96.5847
 20
15.95
 11
96.732
 21
15.6609
  0
LINE
  8
0
 10
96.732
 20
15.6609
 11
96.8483
 21
15.3579
  0
LINE
  8
0
 10
96.8483
 20
15.3579
 11
96.9323
 21
15.0445
  0
LINE
  8
0
 10
96.9323
 20
15.0445
 11
96.983
 21
14.724
  0
LINE
  8
0
 10
96.983
 20
14.724
 11
97
 21
14.4
  0
LINE
  8
0
 10
97
 20
14.4
 11
96.983
 21
14.076
  0
LINE
  8
0
 10
96.983
 20
14.076
 11
96.9323
 21
13.7555
  0
LINE
  8
0
 10
96.9323
 20
13.7555
 11
96.8483
 21
13.442
  0
LINE
  8
0
 10
96.8483
 20
13.442
 11
96.732
 21
13.1391
  0
LINE
  8
0
 10
96.732
 20
13.1391
 11
96.5847
 21
12.85
  0
LINE
  8
0
 10
96.5847
 20
12.85
 11
96.4079
 21
12.5779
  0
LINE
  8
0
 10
96.4079
 20
12.5779
 11
96.2038
 21
12.3257
  0
LINE
  8
0
 10
96.2038
 20
12.3257
 11
95.9743
 21
12.0962
  0
LINE
  8
0
 10
95.9743
 20
12.0962
 11
95.7221
 21
11.892
  0
LINE
  8
0
 10
95.7221
 20
11.892
 11
95.45
 21
11.7153
  0
LINE
  8
0
 10
95.45
 20
11.7153
 11
95.1609
 21
11.568
  0
LINE
  8
0
 10
95.1609
 20
11.568
 11
94.858
 21
11.4517
  0
LINE
  8
0
 10
94.858
 20
11.4517
 11
94.5445
 21
11.3677
  0
LINE
  8
0
 10
94.5445
 20
11.3677
 11
94.224
 21
11.317
  0
LINE
  8
0
 10
94.224
 20
11.317
 11
93.9
 21
11.3
  0
LINE
  8
0
 10
93.9
 20
11.3
 11
93.576
 21
11.317
  0
LINE
  8
0
 10
98.3
 20
11.9
 11
98.3
 21
16.9
  0
LINE
  8
0
 10
98.3
 20
16.9
 11
113.3
 21
16.9
  0
LINE
  8
0
 10
113.3
 20
16.9
 11
113.3
 21
11.9
  0
LINE
  8
0
 10
113.3
 20
11.9
 11
98.3
 21
11.9
  0
LINE
  8
0
 10
74.5
 20
11.9
 11
74.5
 21
16.9
  0
LINE
  8
0
 10
74.5
 20
16.9
 11
89.5
 21
16.9
  0
LINE
  8
0
 10
89.5
 20
16.9
 11
89.5
 21
11.9
  0
LINE
  8
0
 10
89.5
 20
11.9
 11
74.5
 21
11.9
  0
ENDSEC
  0
SECTION
  2
OBJECTS
  0
DICTIONARY
  0
ENDSEC
  0
EOF
