  0
SECTION
  2
BLOCKS
  0
ENDSEC
  0
SECTION
  2
ENTITIES
  0
LINE
  8
0
 10
16.9273
 20
-8
 11
25.6818
 21
-8
  0
LINE
  8
0
 10
25.6818
 20
-8
 11
25.6818
 21
-11
  0
LINE
  8
0
 10
25.6818
 20
-11
 11
36.3818
 21
-11
  0
LINE
  8
0
 10
36.3818
 20
-11
 11
36.3818
 21
-8
  0
LINE
  8
0
 10
36.3818
 20
-8
 11
45.1364
 21
-8
  0
LINE
  8
0
 10
45.1364
 20
-8
 11
45.1364
 21
-11
  0
LINE
  8
0
 10
45.1364
 20
-11
 11
55.8364
 21
-11
  0
LINE
  8
0
 10
55.8364
 20
-11
 11
55.8364
 21
-8
  0
LINE
  8
0
 10
55.8364
 20
-8
 11
64.5909
 21
-8
  0
LINE
  8
0
 10
64.5909
 20
-8
 11
64.5909
 21
-11
  0
LINE
  8
0
 10
64.5909
 20
-11
 11
75.2909
 21
-11
  0
LINE
  8
0
 10
75.2909
 20
-11
 11
75.2909
 21
-8
  0
LINE
  8
0
 10
75.2909
 20
-8
 11
84.0455
 21
-8
  0
LINE
  8
0
 10
84.0455
 20
-8
 11
84.0455
 21
-11
  0
LINE
  8
0
 10
84.0455
 20
-11
 11
94.7455
 21
-11
  0
LINE
  8
0
 10
94.7455
 20
-11
 11
94.7455
 21
-8
  0
LINE
  8
0
 10
94.7455
 20
-8
 11
103.5
 21
-8
  0
LINE
  8
0
 10
103.5
 20
-8
 11
103.5
 21
-1
  0
LINE
  8
0
 10
103.5
 20
-1
 11
100.4
 21
-1
  0
LINE
  8
0
 10
100.4
 20
-1
 11
100.4
 21
6
  0
LINE
  8
0
 10
100.4
 20
6
 11
103.5
 21
6
  0
LINE
  8
0
 10
103.5
 20
6
 11
103.5
 21
13
  0
LINE
  8
0
 10
103.5
 20
13
 11
100.4
 21
13
  0
LINE
  8
0
 10
100.4
 20
13
 11
100.4
 21
20
  0
LINE
  8
0
 10
100.4
 20
20
 11
103.5
 21
20
  0
LINE
  8
0
 10
103.5
 20
20
 11
103.5
 21
27
  0
LINE
  8
0
 10
103.5
 20
27
 11
100.4
 21
27
  0
LINE
  8
0
 10
100.4
 20
27
 11
100.4
 21
34
  0
LINE
  8
0
 10
100.4
 20
34
 11
94.7455
 21
34
  0
LINE
  8
0
 10
94.7455
 20
34
 11
94.7455
 21
37
  0
LINE
  8
0
 10
94.7455
 20
37
 11
84.0455
 21
37
  0
LINE
  8
0
 10
84.0455
 20
37
 11
84.0455
 21
34
  0
LINE
  8
0
 10
84.0455
 20
34
 11
75.2909
 21
34
  0
LINE
  8
0
 10
75.2909
 20
34
 11
75.2909
 21
37
  0
LINE
  8
0
 10
75.2909
 20
37
 11
64.5909
 21
37
  0
LINE
  8
0
 10
64.5909
 20
37
 11
64.5909
 21
34
  0
LINE
  8
0
 10
64.5909
 20
34
 11
55.8364
 21
34
  0
LINE
  8
0
 10
55.8364
 20
34
 11
55.8364
 21
37
  0
LINE
  8
0
 10
55.8364
 20
37
 11
45.1364
 21
37
  0
LINE
  8
0
 10
45.1364
 20
37
 11
45.1364
 21
34
  0
LINE
  8
0
 10
45.1364
 20
34
 11
36.3818
 21
34
  0
LINE
  8
0
 10
36.3818
 20
34
 11
36.3818
 21
37
  0
LINE
  8
0
 10
36.3818
 20
37
 11
25.6818
 21
37
  0
LINE
  8
0
 10
25.6818
 20
37
 11
25.6818
 21
34
  0
LINE
  8
0
 10
25.6818
 20
34
 11
16.9273
 21
34
  0
LINE
  8
0
 10
16.9273
 20
34
 11
16.9273
 21
37
  0
LINE
  8
0
 10
16.9273
 20
37
 11
6.22726
 21
37
  0
LINE
  8
0
 10
6.22726
 20
37
 11
6.22726
 21
34
  0
LINE
  8
0
 10
6.22726
 20
34
 11
-0.399994
 21
34
  0
LINE
  8
0
 10
-0.399994
 20
34
 11
-0.399994
 21
27
  0
LINE
  8
0
 10
-0.399994
 20
27
 11
-3.5
 21
27
  0
LINE
  8
0
 10
-3.5
 20
27
 11
-3.5
 21
20
  0
LINE
  8
0
 10
-3.5
 20
20
 11
-0.399994
 21
20
  0
LINE
  8
0
 10
-0.399994
 20
20
 11
-0.399994
 21
13
  0
LINE
  8
0
 10
-0.399994
 20
13
 11
-3.5
 21
13
  0
LINE
  8
0
 10
-3.5
 20
13
 11
-3.5
 21
6
  0
LINE
  8
0
 10
-3.5
 20
6
 11
-0.399994
 21
6
  0
LINE
  8
0
 10
-0.399994
 20
6
 11
-0.399994
 21
-1
  0
LINE
  8
0
 10
-0.399994
 20
-1
 11
-3.5
 21
-1
  0
LINE
  8
0
 10
-3.5
 20
-1
 11
-3.5
 21
-8
  0
LINE
  8
0
 10
-3.5
 20
-8
 11
6.22726
 21
-8
  0
LINE
  8
0
 10
6.22726
 20
-8
 11
6.22726
 21
-11
  0
LINE
  8
0
 10
6.22726
 20
-11
 11
16.9273
 21
-11
  0
LINE
  8
0
 10
16.9273
 20
-11
 11
16.9273
 21
-8
  0
LINE
  8
0
 10
84.7993
 20
7.50174
 11
84.5986
 21
7.507
  0
LINE
  8
0
 10
84.5986
 20
7.507
 11
84.3981
 21
7.51575
  0
LINE
  8
0
 10
84.3981
 20
7.51575
 11
84.1978
 21
7.528
  0
LINE
  8
0
 10
84.1978
 20
7.528
 11
83.9977
 21
7.54375
  0
LINE
  8
0
 10
83.9977
 20
7.54375
 11
83.7979
 21
7.56299
  0
LINE
  8
0
 10
83.7979
 20
7.56299
 11
83.5985
 21
7.58571
  0
LINE
  8
0
 10
83.5985
 20
7.58571
 11
83.3995
 21
7.61191
  0
LINE
  8
0
 10
83.3995
 20
7.61191
 11
83.201
 21
7.64157
  0
LINE
  8
0
 10
83.201
 20
7.64157
 11
83.003
 21
7.6747
  0
LINE
  8
0
 10
83.003
 20
7.6747
 11
82.8057
 21
7.71127
  0
LINE
  8
0
 10
82.8057
 20
7.71127
 11
82.609
 21
7.7513
  0
LINE
  8
0
 10
82.609
 20
7.7513
 11
82.4131
 21
7.79474
  0
LINE
  8
0
 10
82.4131
 20
7.79474
 11
82.2179
 21
7.8416
  0
LINE
  8
0
 10
82.2179
 20
7.8416
 11
82.0236
 21
7.89185
  0
LINE
  8
0
 10
82.0236
 20
7.89185
 11
81.8302
 21
7.94548
  0
LINE
  8
0
 10
81.8302
 20
7.94548
 11
81.6377
 21
8.00249
  0
LINE
  8
0
 10
81.6377
 20
8.00249
 11
81.4463
 21
8.06285
  0
LINE
  8
0
 10
81.4463
 20
8.06285
 11
81.256
 21
8.12653
  0
LINE
  8
0
 10
81.256
 20
8.12653
 11
81.0668
 21
8.19353
  0
LINE
  8
0
 10
81.0668
 20
8.19353
 11
80.8788
 21
8.26382
  0
LINE
  8
0
 10
80.8788
 20
8.26382
 11
80.692
 21
8.33737
  0
LINE
  8
0
 10
80.692
 20
8.33737
 11
80.5066
 21
8.41418
  0
LINE
  8
0
 10
80.5066
 20
8.41418
 11
80.3225
 21
8.49422
  0
LINE
  8
0
 10
80.3225
 20
8.49422
 11
80.1399
 21
8.57745
  0
LINE
  8
0
 10
80.1399
 20
8.57745
 11
79.9587
 21
8.66386
  0
LINE
  8
0
 10
79.9587
 20
8.66386
 11
79.7791
 21
8.75342
  0
LINE
  8
0
 10
79.7791
 20
8.75342
 11
79.6011
 21
8.8461
  0
LINE
  8
0
 10
79.6011
 20
8.8461
 11
79.4247
 21
8.94186
  0
LINE
  8
0
 10
79.4247
 20
8.94186
 11
79.25
 21
9.0407
  0
LINE
  8
0
 10
79.25
 20
9.0407
 11
79.0771
 21
9.14256
  0
LINE
  8
0
 10
79.0771
 20
9.14256
 11
78.9059
 21
9.24744
  0
LINE
  8
0
 10
78.9059
 20
9.24744
 11
78.7366
 21
9.35529
  0
LINE
  8
0
 10
78.7366
 20
9.35529
 11
78.5693
 21
9.46606
  0
LINE
  8
0
 10
78.5693
 20
9.46606
 11
78.4039
 21
9.57974
  0
LINE
  8
0
 10
78.4039
 20
9.57974
 11
78.2405
 21
9.6963
  0
LINE
  8
0
 10
78.2405
 20
9.6963
 11
78.0791
 21
9.81569
  0
LINE
  8
0
 10
78.0791
 20
9.81569
 11
77.9199
 21
9.93787
  0
LINE
  8
0
 10
77.9199
 20
9.93787
 11
77.7628
 21
10.0628
  0
LINE
  8
0
 10
77.7628
 20
10.0628
 11
77.6079
 21
10.1905
  0
LINE
  8
0
 10
77.6079
 20
10.1905
 11
77.4553
 21
10.3208
  0
LINE
  8
0
 10
77.4553
 20
10.3208
 11
77.305
 21
10.4538
  0
LINE
  8
0
 10
77.305
 20
10.4538
 11
77.157
 21
10.5894
  0
LINE
  8
0
 10
77.157
 20
10.5894
 11
77.0114
 21
10.7276
  0
LINE
  8
0
 10
77.0114
 20
10.7276
 11
76.8683
 21
10.8683
  0
LINE
  8
0
 10
76.8683
 20
10.8683
 11
76.7276
 21
11.0114
  0
LINE
  8
0
 10
76.7276
 20
11.0114
 11
76.5894
 21
11.157
  0
LINE
  8
0
 10
76.5894
 20
11.157
 11
76.4538
 21
11.305
  0
LINE
  8
0
 10
76.4538
 20
11.305
 11
76.3208
 21
11.4553
  0
LINE
  8
0
 10
76.3208
 20
11.4553
 11
76.1905
 21
11.6079
  0
LINE
  8
0
 10
76.1905
 20
11.6079
 11
76.0628
 21
11.7628
  0
LINE
  8
0
 10
76.0628
 20
11.7628
 11
75.9379
 21
11.9199
  0
LINE
  8
0
 10
75.9379
 20
11.9199
 11
75.8157
 21
12.0791
  0
LINE
  8
0
 10
75.8157
 20
12.0791
 11
75.6963
 21
12.2405
  0
LINE
  8
0
 10
75.6963
 20
12.2405
 11
75.5797
 21
12.4039
  0
LINE
  8
0
 10
75.5797
 20
12.4039
 11
75.4661
 21
12.5693
  0
LINE
  8
0
 10
75.4661
 20
12.5693
 11
75.3553
 21
12.7366
  0
LINE
  8
0
 10
75.3553
 20
12.7366
 11
75.2474
 21
12.9059
  0
LINE
  8
0
 10
75.2474
 20
12.9059
 11
75.1426
 21
13.0771
  0
LINE
  8
0
 10
75.1426
 20
13.0771
 11
75.0407
 21
13.25
  0
LINE
  8
0
 10
75.0407
 20
13.25
 11
74.9419
 21
13.4247
  0
LINE
  8
0
 10
74.9419
 20
13.4247
 11
74.8461
 21
13.6011
  0
LINE
  8
0
 10
74.8461
 20
13.6011
 11
74.7534
 21
13.7791
  0
LINE
  8
0
 10
74.7534
 20
13.7791
 11
74.6639
 21
13.9587
  0
LINE
  8
0
 10
74.6639
 20
13.9587
 11
74.5775
 21
14.1399
  0
LINE
  8
0
 10
74.5775
 20
14.1399
 11
74.4942
 21
14.3225
  0
LINE
  8
0
 10
74.4942
 20
14.3225
 11
74.4142
 21
14.5066
  0
LINE
  8
0
 10
74.4142
 20
14.5066
 11
74.3374
 21
14.692
  0
LINE
  8
0
 10
74.3374
 20
14.692
 11
74.2638
 21
14.8788
  0
LINE
  8
0
 10
74.2638
 20
14.8788
 11
74.1935
 21
15.0668
  0
LINE
  8
0
 10
74.1935
 20
15.0668
 11
74.1265
 21
15.256
  0
LINE
  8
0
 10
74.1265
 20
15.256
 11
74.0629
 21
15.4463
  0
LINE
  8
0
 10
74.0629
 20
15.4463
 11
74.0025
 21
15.6377
  0
LINE
  8
0
 10
74.0025
 20
15.6377
 11
73.9455
 21
15.8302
  0
LINE
  8
0
 10
73.9455
 20
15.8302
 11
73.8918
 21
16.0236
  0
LINE
  8
0
 10
73.8918
 20
16.0236
 11
73.8416
 21
16.2179
  0
LINE
  8
0
 10
73.8416
 20
16.2179
 11
73.7947
 21
16.4131
  0
LINE
  8
0
 10
73.7947
 20
16.4131
 11
73.7513
 21
16.609
  0
LINE
  8
0
 10
73.7513
 20
16.609
 11
73.7113
 21
16.8057
  0
LINE
  8
0
 10
73.7113
 20
16.8057
 11
73.6747
 21
17.003
  0
LINE
  8
0
 10
73.6747
 20
17.003
 11
73.6416
 21
17.201
  0
LINE
  8
0
 10
73.6416
 20
17.201
 11
73.6119
 21
17.3995
  0
LINE
  8
0
 10
73.6119
 20
17.3995
 11
73.5857
 21
17.5985
  0
LINE
  8
0
 10
73.5857
 20
17.5985
 11
73.563
 21
17.7979
  0
LINE
  8
0
 10
73.563
 20
17.7979
 11
73.5438
 21
17.9977
  0
LINE
  8
0
 10
73.5438
 20
17.9977
 11
73.528
 21
18.1978
  0
LINE
  8
0
 10
73.528
 20
18.1978
 11
73.5158
 21
18.3981
  0
LINE
  8
0
 10
73.5158
 20
18.3981
 11
73.507
 21
18.5986
  0
LINE
  8
0
 10
73.507
 20
18.5986
 11
73.5018
 21
18.7993
  0
LINE
  8
0
 10
73.5018
 20
18.7993
 11
73.5
 21
19
  0
LINE
  8
0
 10
73.5
 20
19
 11
73.5018
 21
19.2007
  0
LINE
  8
0
 10
73.5018
 20
19.2007
 11
73.507
 21
19.4013
  0
LINE
  8
0
 10
73.507
 20
19.4013
 11
73.5158
 21
19.6019
  0
LINE
  8
0
 10
73.5158
 20
19.6019
 11
73.528
 21
19.8022
  0
LINE
  8
0
 10
73.528
 20
19.8022
 11
73.5438
 21
20.0023
  0
LINE
  8
0
 10
73.5438
 20
20.0023
 11
73.563
 21
20.2021
  0
LINE
  8
0
 10
73.563
 20
20.2021
 11
73.5857
 21
20.4015
  0
LINE
  8
0
 10
73.5857
 20
20.4015
 11
73.6119
 21
20.6005
  0
LINE
  8
0
 10
73.6119
 20
20.6005
 11
73.6416
 21
20.799
  0
LINE
  8
0
 10
73.6416
 20
20.799
 11
73.6747
 21
20.9969
  0
LINE
  8
0
 10
73.6747
 20
20.9969
 11
73.7113
 21
21.1943
  0
LINE
  8
0
 10
73.7113
 20
21.1943
 11
73.7513
 21
21.391
  0
LINE
  8
0
 10
73.7513
 20
21.391
 11
73.7947
 21
21.5869
  0
LINE
  8
0
 10
73.7947
 20
21.5869
 11
73.8416
 21
21.7821
  0
LINE
  8
0
 10
73.8416
 20
21.7821
 11
73.8918
 21
21.9764
  0
LINE
  8
0
 10
73.8918
 20
21.9764
 11
73.9455
 21
22.1698
  0
LINE
  8
0
 10
73.9455
 20
22.1698
 11
74.0025
 21
22.3623
  0
LINE
  8
0
 10
74.0025
 20
22.3623
 11
74.0629
 21
22.5537
  0
LINE
  8
0
 10
74.0629
 20
22.5537
 11
74.1265
 21
22.744
  0
LINE
  8
0
 10
74.1265
 20
22.744
 11
74.1935
 21
22.9332
  0
LINE
  8
0
 10
74.1935
 20
22.9332
 11
74.2638
 21
23.1212
  0
LINE
  8
0
 10
74.2638
 20
23.1212
 11
74.3374
 21
23.308
  0
LINE
  8
0
 10
74.3374
 20
23.308
 11
74.4142
 21
23.4934
  0
LINE
  8
0
 10
74.4142
 20
23.4934
 11
74.4942
 21
23.6775
  0
LINE
  8
0
 10
74.4942
 20
23.6775
 11
74.5775
 21
23.8601
  0
LINE
  8
0
 10
74.5775
 20
23.8601
 11
74.6639
 21
24.0413
  0
LINE
  8
0
 10
74.6639
 20
24.0413
 11
74.7534
 21
24.2209
  0
LINE
  8
0
 10
74.7534
 20
24.2209
 11
74.8461
 21
24.3989
  0
LINE
  8
0
 10
74.8461
 20
24.3989
 11
74.9419
 21
24.5753
  0
LINE
  8
0
 10
74.9419
 20
24.5753
 11
75.0407
 21
24.75
  0
LINE
  8
0
 10
75.0407
 20
24.75
 11
75.1426
 21
24.9229
  0
LINE
  8
0
 10
75.1426
 20
24.9229
 11
75.2474
 21
25.0941
  0
LINE
  8
0
 10
75.2474
 20
25.0941
 11
75.3553
 21
25.2633
  0
LINE
  8
0
 10
75.3553
 20
25.2633
 11
75.4661
 21
25.4307
  0
LINE
  8
0
 10
75.4661
 20
25.4307
 11
75.5797
 21
25.5961
  0
LINE
  8
0
 10
75.5797
 20
25.5961
 11
75.6963
 21
25.7595
  0
LINE
  8
0
 10
75.6963
 20
25.7595
 11
75.8157
 21
25.9209
  0
LINE
  8
0
 10
75.8157
 20
25.9209
 11
75.9379
 21
26.0801
  0
LINE
  8
0
 10
75.9379
 20
26.0801
 11
76.0628
 21
26.2372
  0
LINE
  8
0
 10
76.0628
 20
26.2372
 11
76.1905
 21
26.392
  0
LINE
  8
0
 10
76.1905
 20
26.392
 11
76.3208
 21
26.5447
  0
LINE
  8
0
 10
76.3208
 20
26.5447
 11
76.4538
 21
26.695
  0
LINE
  8
0
 10
76.4538
 20
26.695
 11
76.5894
 21
26.843
  0
LINE
  8
0
 10
76.5894
 20
26.843
 11
76.7276
 21
26.9886
  0
LINE
  8
0
 10
76.7276
 20
26.9886
 11
76.8683
 21
27.1317
  0
LINE
  8
0
 10
76.8683
 20
27.1317
 11
77.0114
 21
27.2724
  0
LINE
  8
0
 10
77.0114
 20
27.2724
 11
77.157
 21
27.4106
  0
LINE
  8
0
 10
77.157
 20
27.4106
 11
77.305
 21
27.5462
  0
LINE
  8
0
 10
77.305
 20
27.5462
 11
77.4553
 21
27.6792
  0
LINE
  8
0
 10
77.4553
 20
27.6792
 11
77.6079
 21
27.8095
  0
LINE
  8
0
 10
77.6079
 20
27.8095
 11
77.7628
 21
27.9372
  0
LINE
  8
0
 10
77.7628
 20
27.9372
 11
77.9199
 21
28.0621
  0
LINE
  8
0
 10
77.9199
 20
28.0621
 11
78.0791
 21
28.1843
  0
LINE
  8
0
 10
78.0791
 20
28.1843
 11
78.2405
 21
28.3037
  0
LINE
  8
0
 10
78.2405
 20
28.3037
 11
78.4039
 21
28.4202
  0
LINE
  8
0
 10
78.4039
 20
28.4202
 11
78.5693
 21
28.5339
  0
LINE
  8
0
 10
78.5693
 20
28.5339
 11
78.7366
 21
28.6447
  0
LINE
  8
0
 10
78.7366
 20
28.6447
 11
78.9059
 21
28.7525
  0
LINE
  8
0
 10
78.9059
 20
28.7525
 11
79.0771
 21
28.8574
  0
LINE
  8
0
 10
79.0771
 20
28.8574
 11
79.25
 21
28.9593
  0
LINE
  8
0
 10
79.25
 20
28.9593
 11
79.4247
 21
29.0581
  0
LINE
  8
0
 10
79.4247
 20
29.0581
 11
79.6011
 21
29.1539
  0
LINE
  8
0
 10
79.6011
 20
29.1539
 11
79.7791
 21
29.2466
  0
LINE
  8
0
 10
79.7791
 20
29.2466
 11
79.9587
 21
29.3361
  0
LINE
  8
0
 10
79.9587
 20
29.3361
 11
80.1399
 21
29.4225
  0
LINE
  8
0
 10
80.1399
 20
29.4225
 11
80.3225
 21
29.5058
  0
LINE
  8
0
 10
80.3225
 20
29.5058
 11
80.5066
 21
29.5858
  0
LINE
  8
0
 10
80.5066
 20
29.5858
 11
80.692
 21
29.6626
  0
LINE
  8
0
 10
80.692
 20
29.6626
 11
80.8788
 21
29.7362
  0
LINE
  8
0
 10
80.8788
 20
29.7362
 11
81.0668
 21
29.8065
  0
LINE
  8
0
 10
81.0668
 20
29.8065
 11
81.256
 21
29.8735
  0
LINE
  8
0
 10
81.256
 20
29.8735
 11
81.4463
 21
29.9371
  0
LINE
  8
0
 10
81.4463
 20
29.9371
 11
81.6377
 21
29.9975
  0
LINE
  8
0
 10
81.6377
 20
29.9975
 11
81.8302
 21
30.0545
  0
LINE
  8
0
 10
81.8302
 20
30.0545
 11
82.0236
 21
30.1081
  0
LINE
  8
0
 10
82.0236
 20
30.1081
 11
82.2179
 21
30.1584
  0
LINE
  8
0
 10
82.2179
 20
30.1584
 11
82.4131
 21
30.2052
  0
LINE
  8
0
 10
82.4131
 20
30.2052
 11
82.609
 21
30.2487
  0
LINE
  8
0
 10
82.609
 20
30.2487
 11
82.8057
 21
30.2887
  0
LINE
  8
0
 10
82.8057
 20
30.2887
 11
83.003
 21
30.3253
  0
LINE
  8
0
 10
83.003
 20
30.3253
 11
83.201
 21
30.3584
  0
LINE
  8
0
 10
83.201
 20
30.3584
 11
83.3995
 21
30.3881
  0
LINE
  8
0
 10
83.3995
 20
30.3881
 11
83.5985
 21
30.4143
  0
LINE
  8
0
 10
83.5985
 20
30.4143
 11
83.7979
 21
30.437
  0
LINE
  8
0
 10
83.7979
 20
30.437
 11
83.9977
 21
30.4562
  0
LINE
  8
0
 10
83.9977
 20
30.4562
 11
84.1978
 21
30.472
  0
LINE
  8
0
 10
84.1978
 20
30.472
 11
84.3981
 21
30.4842
  0
LINE
  8
0
 10
84.3981
 20
30.4842
 11
84.5986
 21
30.493
  0
LINE
  8
0
 10
84.5986
 20
30.493
 11
84.7993
 21
30.4982
  0
LINE
  8
0
 10
84.7993
 20
30.4982
 11
85
 21
30.5
  0
LINE
  8
0
 10
85
 20
30.5
 11
85.2007
 21
30.4982
  0
LINE
  8
0
 10
85.2007
 20
30.4982
 11
85.4013
 21
30.493
  0
LINE
  8
0
 10
85.4013
 20
30.493
 11
85.6019
 21
30.4842
  0
LINE
  8
0
 10
85.6019
 20
30.4842
 11
85.8022
 21
30.472
  0
LINE
  8
0
 10
85.8022
 20
30.472
 11
86.0023
 21
30.4562
  0
LINE
  8
0
 10
86.0023
 20
30.4562
 11
86.2021
 21
30.437
  0
LINE
  8
0
 10
86.2021
 20
30.437
 11
86.4015
 21
30.4143
  0
LINE
  8
0
 10
86.4015
 20
30.4143
 11
86.6005
 21
30.3881
  0
LINE
  8
0
 10
86.6005
 20
30.3881
 11
86.799
 21
30.3584
  0
LINE
  8
0
 10
86.799
 20
30.3584
 11
86.9969
 21
30.3253
  0
LINE
  8
0
 10
86.9969
 20
30.3253
 11
87.1943
 21
30.2887
  0
LINE
  8
0
 10
87.1943
 20
30.2887
 11
87.391
 21
30.2487
  0
LINE
  8
0
 10
87.391
 20
30.2487
 11
87.5869
 21
30.2052
  0
LINE
  8
0
 10
87.5869
 20
30.2052
 11
87.7821
 21
30.1584
  0
LINE
  8
0
 10
87.7821
 20
30.1584
 11
87.9764
 21
30.1081
  0
LINE
  8
0
 10
87.9764
 20
30.1081
 11
88.1698
 21
30.0545
  0
LINE
  8
0
 10
88.1698
 20
30.0545
 11
88.3623
 21
29.9975
  0
LINE
  8
0
 10
88.3623
 20
29.9975
 11
88.5537
 21
29.9371
  0
LINE
  8
0
 10
88.5537
 20
29.9371
 11
88.744
 21
29.8735
  0
LINE
  8
0
 10
88.744
 20
29.8735
 11
88.9332
 21
29.8065
  0
LINE
  8
0
 10
88.9332
 20
29.8065
 11
89.1212
 21
29.7362
  0
LINE
  8
0
 10
89.1212
 20
29.7362
 11
89.308
 21
29.6626
  0
LINE
  8
0
 10
89.308
 20
29.6626
 11
89.4934
 21
29.5858
  0
LINE
  8
0
 10
89.4934
 20
29.5858
 11
89.6775
 21
29.5058
  0
LINE
  8
0
 10
89.6775
 20
29.5058
 11
89.8601
 21
29.4225
  0
LINE
  8
0
 10
89.8601
 20
29.4225
 11
90.0413
 21
29.3361
  0
LINE
  8
0
 10
90.0413
 20
29.3361
 11
90.2209
 21
29.2466
  0
LINE
  8
0
 10
90.2209
 20
29.2466
 11
90.3989
 21
29.1539
  0
LINE
  8
0
 10
90.3989
 20
29.1539
 11
90.5753
 21
29.0581
  0
LINE
  8
0
 10
90.5753
 20
29.0581
 11
90.75
 21
28.9593
  0
LINE
  8
0
 10
90.75
 20
28.9593
 11
90.9229
 21
28.8574
  0
LINE
  8
0
 10
90.9229
 20
28.8574
 11
91.0941
 21
28.7525
  0
LINE
  8
0
 10
91.0941
 20
28.7525
 11
91.2634
 21
28.6447
  0
LINE
  8
0
 10
91.2634
 20
28.6447
 11
91.4307
 21
28.5339
  0
LINE
  8
0
 10
91.4307
 20
28.5339
 11
91.5961
 21
28.4202
  0
LINE
  8
0
 10
91.5961
 20
28.4202
 11
91.7595
 21
28.3037
  0
LINE
  8
0
 10
91.7595
 20
28.3037
 11
91.9209
 21
28.1843
  0
LINE
  8
0
 10
91.9209
 20
28.1843
 11
92.0801
 21
28.0621
  0
LINE
  8
0
 10
92.0801
 20
28.0621
 11
92.2372
 21
27.9372
  0
LINE
  8
0
 10
92.2372
 20
27.9372
 11
92.3921
 21
27.8095
  0
LINE
  8
0
 10
92.3921
 20
27.8095
 11
92.5447
 21
27.6792
  0
LINE
  8
0
 10
92.5447
 20
27.6792
 11
92.695
 21
27.5462
  0
LINE
  8
0
 10
92.695
 20
27.5462
 11
92.843
 21
27.4106
  0
LINE
  8
0
 10
92.843
 20
27.4106
 11
92.9886
 21
27.2724
  0
LINE
  8
0
 10
92.9886
 20
27.2724
 11
93.1317
 21
27.1317
  0
LINE
  8
0
 10
93.1317
 20
27.1317
 11
93.2724
 21
26.9886
  0
LINE
  8
0
 10
93.2724
 20
26.9886
 11
93.4106
 21
26.843
  0
LINE
  8
0
 10
93.4106
 20
26.843
 11
93.5462
 21
26.695
  0
LINE
  8
0
 10
93.5462
 20
26.695
 11
93.6792
 21
26.5447
  0
LINE
  8
0
 10
93.6792
 20
26.5447
 11
93.8095
 21
26.392
  0
LINE
  8
0
 10
93.8095
 20
26.392
 11
93.9372
 21
26.2372
  0
LINE
  8
0
 10
93.9372
 20
26.2372
 11
94.0621
 21
26.0801
  0
LINE
  8
0
 10
94.0621
 20
26.0801
 11
94.1843
 21
25.9209
  0
LINE
  8
0
 10
94.1843
 20
25.9209
 11
94.3037
 21
25.7595
  0
LINE
  8
0
 10
94.3037
 20
25.7595
 11
94.4202
 21
25.5961
  0
LINE
  8
0
 10
94.4202
 20
25.5961
 11
94.5339
 21
25.4307
  0
LINE
  8
0
 10
94.5339
 20
25.4307
 11
94.6447
 21
25.2633
  0
LINE
  8
0
 10
94.6447
 20
25.2633
 11
94.7525
 21
25.0941
  0
LINE
  8
0
 10
94.7525
 20
25.0941
 11
94.8574
 21
24.9229
  0
LINE
  8
0
 10
94.8574
 20
24.9229
 11
94.9593
 21
24.75
  0
LINE
  8
0
 10
94.9593
 20
24.75
 11
95.0581
 21
24.5753
  0
LINE
  8
0
 10
95.0581
 20
24.5753
 11
95.1539
 21
24.3989
  0
LINE
  8
0
 10
95.1539
 20
24.3989
 11
95.2466
 21
24.2209
  0
LINE
  8
0
 10
95.2466
 20
24.2209
 11
95.3361
 21
24.0413
  0
LINE
  8
0
 10
95.3361
 20
24.0413
 11
95.4225
 21
23.8601
  0
LINE
  8
0
 10
95.4225
 20
23.8601
 11
95.5058
 21
23.6775
  0
LINE
  8
0
 10
95.5058
 20
23.6775
 11
95.5858
 21
23.4934
  0
LINE
  8
0
 10
95.5858
 20
23.4934
 11
95.6626
 21
23.308
  0
LINE
  8
0
 10
95.6626
 20
23.308
 11
95.7362
 21
23.1212
  0
LINE
  8
0
 10
95.7362
 20
23.1212
 11
95.8065
 21
22.9332
  0
LINE
  8
0
 10
95.8065
 20
22.9332
 11
95.8735
 21
22.744
  0
LINE
  8
0
 10
95.8735
 20
22.744
 11
95.9371
 21
22.5537
  0
LINE
  8
0
 10
95.9371
 20
22.5537
 11
95.9975
 21
22.3623
  0
LINE
  8
0
 10
95.9975
 20
22.3623
 11
96.0545
 21
22.1698
  0
LINE
  8
0
 10
96.0545
 20
22.1698
 11
96.1081
 21
21.9764
  0
LINE
  8
0
 10
96.1081
 20
21.9764
 11
96.1584
 21
21.7821
  0
LINE
  8
0
 10
96.1584
 20
21.7821
 11
96.2052
 21
21.5869
  0
LINE
  8
0
 10
96.2052
 20
21.5869
 11
96.2487
 21
21.391
  0
LINE
  8
0
 10
96.2487
 20
21.391
 11
96.2887
 21
21.1943
  0
LINE
  8
0
 10
96.2887
 20
21.1943
 11
96.3253
 21
20.9969
  0
LINE
  8
0
 10
96.3253
 20
20.9969
 11
96.3584
 21
20.799
  0
LINE
  8
0
 10
96.3584
 20
20.799
 11
96.3881
 21
20.6005
  0
LINE
  8
0
 10
96.3881
 20
20.6005
 11
96.4143
 21
20.4015
  0
LINE
  8
0
 10
96.4143
 20
20.4015
 11
96.437
 21
20.2021
  0
LINE
  8
0
 10
96.437
 20
20.2021
 11
96.4562
 21
20.0023
  0
LINE
  8
0
 10
96.4562
 20
20.0023
 11
96.472
 21
19.8022
  0
LINE
  8
0
 10
96.472
 20
19.8022
 11
96.4842
 21
19.6019
  0
LINE
  8
0
 10
96.4842
 20
19.6019
 11
96.493
 21
19.4013
  0
LINE
  8
0
 10
96.493
 20
19.4013
 11
96.4982
 21
19.2007
  0
LINE
  8
0
 10
96.4982
 20
19.2007
 11
96.5
 21
19
  0
LINE
  8
0
 10
96.5
 20
19
 11
96.4982
 21
18.7993
  0
LINE
  8
0
 10
96.4982
 20
18.7993
 11
96.493
 21
18.5986
  0
LINE
  8
0
 10
96.493
 20
18.5986
 11
96.4842
 21
18.3981
  0
LINE
  8
0
 10
96.4842
 20
18.3981
 11
96.472
 21
18.1978
  0
LINE
  8
0
 10
96.472
 20
18.1978
 11
96.4562
 21
17.9977
  0
LINE
  8
0
 10
96.4562
 20
17.9977
 11
96.437
 21
17.7979
  0
LINE
  8
0
 10
96.437
 20
17.7979
 11
96.4143
 21
17.5985
  0
LINE
  8
0
 10
96.4143
 20
17.5985
 11
96.3881
 21
17.3995
  0
LINE
  8
0
 10
96.3881
 20
17.3995
 11
96.3584
 21
17.201
  0
LINE
  8
0
 10
96.3584
 20
17.201
 11
96.3253
 21
17.003
  0
LINE
  8
0
 10
96.3253
 20
17.003
 11
96.2887
 21
16.8057
  0
LINE
  8
0
 10
96.2887
 20
16.8057
 11
96.2487
 21
16.609
  0
LINE
  8
0
 10
96.2487
 20
16.609
 11
96.2052
 21
16.4131
  0
LINE
  8
0
 10
96.2052
 20
16.4131
 11
96.1584
 21
16.2179
  0
LINE
  8
0
 10
96.1584
 20
16.2179
 11
96.1081
 21
16.0236
  0
LINE
  8
0
 10
96.1081
 20
16.0236
 11
96.0545
 21
15.8302
  0
LINE
  8
0
 10
96.0545
 20
15.8302
 11
95.9975
 21
15.6377
  0
LINE
  8
0
 10
95.9975
 20
15.6377
 11
95.9371
 21
15.4463
  0
LINE
  8
0
 10
95.9371
 20
15.4463
 11
95.8735
 21
15.256
  0
LINE
  8
0
 10
95.8735
 20
15.256
 11
95.8065
 21
15.0668
  0
LINE
  8
0
 10
95.8065
 20
15.0668
 11
95.7362
 21
14.8788
  0
LINE
  8
0
 10
95.7362
 20
14.8788
 11
95.6626
 21
14.692
  0
LINE
  8
0
 10
95.6626
 20
14.692
 11
95.5858
 21
14.5066
  0
LINE
  8
0
 10
95.5858
 20
14.5066
 11
95.5058
 21
14.3225
  0
LINE
  8
0
 10
95.5058
 20
14.3225
 11
95.4225
 21
14.1399
  0
LINE
  8
0
 10
95.4225
 20
14.1399
 11
95.3361
 21
13.9587
  0
LINE
  8
0
 10
95.3361
 20
13.9587
 11
95.2466
 21
13.7791
  0
LINE
  8
0
 10
95.2466
 20
13.7791
 11
95.1539
 21
13.6011
  0
LINE
  8
0
 10
95.1539
 20
13.6011
 11
95.0581
 21
13.4247
  0
LINE
  8
0
 10
95.0581
 20
13.4247
 11
94.9593
 21
13.25
  0
LINE
  8
0
 10
94.9593
 20
13.25
 11
94.8574
 21
13.0771
  0
LINE
  8
0
 10
94.8574
 20
13.0771
 11
94.7525
 21
12.9059
  0
LINE
  8
0
 10
94.7525
 20
12.9059
 11
94.6447
 21
12.7366
  0
LINE
  8
0
 10
94.6447
 20
12.7366
 11
94.5339
 21
12.5693
  0
LINE
  8
0
 10
94.5339
 20
12.5693
 11
94.4202
 21
12.4039
  0
LINE
  8
0
 10
94.4202
 20
12.4039
 11
94.3037
 21
12.2405
  0
LINE
  8
0
 10
94.3037
 20
12.2405
 11
94.1843
 21
12.0791
  0
LINE
  8
0
 10
94.1843
 20
12.0791
 11
94.0621
 21
11.9199
  0
LINE
  8
0
 10
94.0621
 20
11.9199
 11
93.9372
 21
11.7628
  0
LINE
  8
0
 10
93.9372
 20
11.7628
 11
93.8095
 21
11.6079
  0
LINE
  8
0
 10
93.8095
 20
11.6079
 11
93.6792
 21
11.4553
  0
LINE
  8
0
 10
93.6792
 20
11.4553
 11
93.5462
 21
11.305
  0
LINE
  8
0
 10
93.5462
 20
11.305
 11
93.4106
 21
11.157
  0
LINE
  8
0
 10
93.4106
 20
11.157
 11
93.2724
 21
11.0114
  0
LINE
  8
0
 10
93.2724
 20
11.0114
 11
93.1317
 21
10.8683
  0
LINE
  8
0
 10
93.1317
 20
10.8683
 11
92.9886
 21
10.7276
  0
LINE
  8
0
 10
92.9886
 20
10.7276
 11
92.843
 21
10.5894
  0
LINE
  8
0
 10
92.843
 20
10.5894
 11
92.695
 21
10.4538
  0
LINE
  8
0
 10
92.695
 20
10.4538
 11
92.5447
 21
10.3208
  0
LINE
  8
0
 10
92.5447
 20
10.3208
 11
92.3921
 21
10.1905
  0
LINE
  8
0
 10
92.3921
 20
10.1905
 11
92.2372
 21
10.0628
  0
LINE
  8
0
 10
92.2372
 20
10.0628
 11
92.0801
 21
9.93787
  0
LINE
  8
0
 10
92.0801
 20
9.93787
 11
91.9209
 21
9.81569
  0
LINE
  8
0
 10
91.9209
 20
9.81569
 11
91.7595
 21
9.6963
  0
LINE
  8
0
 10
91.7595
 20
9.6963
 11
91.5961
 21
9.57974
  0
LINE
  8
0
 10
91.5961
 20
9.57974
 11
91.4307
 21
9.46606
  0
LINE
  8
0
 10
91.4307
 20
9.46606
 11
91.2634
 21
9.35529
  0
LINE
  8
0
 10
91.2634
 20
9.35529
 11
91.0941
 21
9.24744
  0
LINE
  8
0
 10
91.0941
 20
9.24744
 11
90.9229
 21
9.14256
  0
LINE
  8
0
 10
90.9229
 20
9.14256
 11
90.75
 21
9.0407
  0
LINE
  8
0
 10
90.75
 20
9.0407
 11
90.5753
 21
8.94186
  0
LINE
  8
0
 10
90.5753
 20
8.94186
 11
90.3989
 21
8.8461
  0
LINE
  8
0
 10
90.3989
 20
8.8461
 11
90.2209
 21
8.75342
  0
LINE
  8
0
 10
90.2209
 20
8.75342
 11
90.0413
 21
8.66386
  0
LINE
  8
0
 10
90.0413
 20
8.66386
 11
89.8601
 21
8.57745
  0
LINE
  8
0
 10
89.8601
 20
8.57745
 11
89.6775
 21
8.49422
  0
LINE
  8
0
 10
89.6775
 20
8.49422
 11
89.4934
 21
8.41418
  0
LINE
  8
0
 10
89.4934
 20
8.41418
 11
89.308
 21
8.33737
  0
LINE
  8
0
 10
89.308
 20
8.33737
 11
89.1212
 21
8.26382
  0
LINE
  8
0
 10
89.1212
 20
8.26382
 11
88.9332
 21
8.19353
  0
LINE
  8
0
 10
88.9332
 20
8.19353
 11
88.744
 21
8.12653
  0
LINE
  8
0
 10
88.744
 20
8.12653
 11
88.5537
 21
8.06285
  0
LINE
  8
0
 10
88.5537
 20
8.06285
 11
88.3623
 21
8.00249
  0
LINE
  8
0
 10
88.3623
 20
8.00249
 11
88.1698
 21
7.94548
  0
LINE
  8
0
 10
88.1698
 20
7.94548
 11
87.9764
 21
7.89185
  0
LINE
  8
0
 10
87.9764
 20
7.89185
 11
87.7821
 21
7.8416
  0
LINE
  8
0
 10
87.7821
 20
7.8416
 11
87.5869
 21
7.79474
  0
LINE
  8
0
 10
87.5869
 20
7.79474
 11
87.391
 21
7.7513
  0
LINE
  8
0
 10
87.391
 20
7.7513
 11
87.1943
 21
7.71127
  0
LINE
  8
0
 10
87.1943
 20
7.71127
 11
86.9969
 21
7.6747
  0
LINE
  8
0
 10
86.9969
 20
7.6747
 11
86.799
 21
7.64157
  0
LINE
  8
0
 10
86.799
 20
7.64157
 11
86.6005
 21
7.61191
  0
LINE
  8
0
 10
86.6005
 20
7.61191
 11
86.4015
 21
7.58571
  0
LINE
  8
0
 10
86.4015
 20
7.58571
 11
86.2021
 21
7.56299
  0
LINE
  8
0
 10
86.2021
 20
7.56299
 11
86.0023
 21
7.54375
  0
LINE
  8
0
 10
86.0023
 20
7.54375
 11
85.8022
 21
7.528
  0
LINE
  8
0
 10
85.8022
 20
7.528
 11
85.6019
 21
7.51575
  0
LINE
  8
0
 10
85.6019
 20
7.51575
 11
85.4013
 21
7.507
  0
LINE
  8
0
 10
85.4013
 20
7.507
 11
85.2007
 21
7.50174
  0
LINE
  8
0
 10
85.2007
 20
7.50174
 11
85
 21
7.5
  0
LINE
  8
0
 10
85
 20
7.5
 11
84.7993
 21
7.50174
  0
LINE
  8
0
 10
44.9346
 20
20.7506
 11
44.8691
 21
20.7523
  0
LINE
  8
0
 10
44.8691
 20
20.7523
 11
44.8037
 21
20.7551
  0
LINE
  8
0
 10
44.8037
 20
20.7551
 11
44.7384
 21
20.7591
  0
LINE
  8
0
 10
44.7384
 20
20.7591
 11
44.6732
 21
20.7643
  0
LINE
  8
0
 10
44.6732
 20
20.7643
 11
44.608
 21
20.7705
  0
LINE
  8
0
 10
44.608
 20
20.7705
 11
44.543
 21
20.7779
  0
LINE
  8
0
 10
44.543
 20
20.7779
 11
44.4781
 21
20.7865
  0
LINE
  8
0
 10
44.4781
 20
20.7865
 11
44.4134
 21
20.7962
  0
LINE
  8
0
 10
44.4134
 20
20.7962
 11
44.3488
 21
20.807
  0
LINE
  8
0
 10
44.3488
 20
20.807
 11
44.2845
 21
20.8189
  0
LINE
  8
0
 10
44.2845
 20
20.8189
 11
44.2203
 21
20.8319
  0
LINE
  8
0
 10
44.2203
 20
20.8319
 11
44.1564
 21
20.8461
  0
LINE
  8
0
 10
44.1564
 20
20.8461
 11
44.0928
 21
20.8614
  0
LINE
  8
0
 10
44.0928
 20
20.8614
 11
44.0294
 21
20.8778
  0
LINE
  8
0
 10
44.0294
 20
20.8778
 11
43.9664
 21
20.8953
  0
LINE
  8
0
 10
43.9664
 20
20.8953
 11
43.9036
 21
20.9138
  0
LINE
  8
0
 10
43.9036
 20
20.9138
 11
43.8412
 21
20.9335
  0
LINE
  8
0
 10
43.8412
 20
20.9335
 11
43.7791
 21
20.9543
  0
LINE
  8
0
 10
43.7791
 20
20.9543
 11
43.7174
 21
20.9762
  0
LINE
  8
0
 10
43.7174
 20
20.9762
 11
43.6561
 21
20.9991
  0
LINE
  8
0
 10
43.6561
 20
20.9991
 11
43.5952
 21
21.0231
  0
LINE
  8
0
 10
43.5952
 20
21.0231
 11
43.5348
 21
21.0481
  0
LINE
  8
0
 10
43.5348
 20
21.0481
 11
43.4747
 21
21.0742
  0
LINE
  8
0
 10
43.4747
 20
21.0742
 11
43.4152
 21
21.1013
  0
LINE
  8
0
 10
43.4152
 20
21.1013
 11
43.3561
 21
21.1295
  0
LINE
  8
0
 10
43.3561
 20
21.1295
 11
43.2975
 21
21.1587
  0
LINE
  8
0
 10
43.2975
 20
21.1587
 11
43.2395
 21
21.1889
  0
LINE
  8
0
 10
43.2395
 20
21.1889
 11
43.182
 21
21.2202
  0
LINE
  8
0
 10
43.182
 20
21.2202
 11
43.125
 21
21.2524
  0
LINE
  8
0
 10
43.125
 20
21.2524
 11
43.0686
 21
21.2856
  0
LINE
  8
0
 10
43.0686
 20
21.2856
 11
43.0128
 21
21.3198
  0
LINE
  8
0
 10
43.0128
 20
21.3198
 11
42.9576
 21
21.355
  0
LINE
  8
0
 10
42.9576
 20
21.355
 11
42.903
 21
21.3911
  0
LINE
  8
0
 10
42.903
 20
21.3911
 11
42.8491
 21
21.4282
  0
LINE
  8
0
 10
42.8491
 20
21.4282
 11
42.7958
 21
21.4662
  0
LINE
  8
0
 10
42.7958
 20
21.4662
 11
42.7432
 21
21.5051
  0
LINE
  8
0
 10
42.7432
 20
21.5051
 11
42.6913
 21
21.545
  0
LINE
  8
0
 10
42.6913
 20
21.545
 11
42.64
 21
21.5857
  0
LINE
  8
0
 10
42.64
 20
21.5857
 11
42.5895
 21
21.6273
  0
LINE
  8
0
 10
42.5895
 20
21.6273
 11
42.5398
 21
21.6698
  0
LINE
  8
0
 10
42.5398
 20
21.6698
 11
42.4908
 21
21.7132
  0
LINE
  8
0
 10
42.4908
 20
21.7132
 11
42.4425
 21
21.7574
  0
LINE
  8
0
 10
42.4425
 20
21.7574
 11
42.395
 21
21.8025
  0
LINE
  8
0
 10
42.395
 20
21.8025
 11
42.3483
 21
21.8483
  0
LINE
  8
0
 10
42.3483
 20
21.8483
 11
42.3025
 21
21.895
  0
LINE
  8
0
 10
42.3025
 20
21.895
 11
42.2574
 21
21.9425
  0
LINE
  8
0
 10
42.2574
 20
21.9425
 11
42.2132
 21
21.9908
  0
LINE
  8
0
 10
42.2132
 20
21.9908
 11
42.1698
 21
22.0398
  0
LINE
  8
0
 10
42.1698
 20
22.0398
 11
42.1273
 21
22.0895
  0
LINE
  8
0
 10
42.1273
 20
22.0895
 11
42.0857
 21
22.14
  0
LINE
  8
0
 10
42.0857
 20
22.14
 11
42.045
 21
22.1913
  0
LINE
  8
0
 10
42.045
 20
22.1913
 11
42.0051
 21
22.2432
  0
LINE
  8
0
 10
42.0051
 20
22.2432
 11
41.9662
 21
22.2958
  0
LINE
  8
0
 10
41.9662
 20
22.2958
 11
41.9282
 21
22.3491
  0
LINE
  8
0
 10
41.9282
 20
22.3491
 11
41.8911
 21
22.403
  0
LINE
  8
0
 10
41.8911
 20
22.403
 11
41.855
 21
22.4576
  0
LINE
  8
0
 10
41.855
 20
22.4576
 11
41.8198
 21
22.5128
  0
LINE
  8
0
 10
41.8198
 20
22.5128
 11
41.7856
 21
22.5686
  0
LINE
  8
0
 10
41.7856
 20
22.5686
 11
41.7524
 21
22.625
  0
LINE
  8
0
 10
41.7524
 20
22.625
 11
41.7202
 21
22.682
  0
LINE
  8
0
 10
41.7202
 20
22.682
 11
41.6889
 21
22.7395
  0
LINE
  8
0
 10
41.6889
 20
22.7395
 11
41.6587
 21
22.7975
  0
LINE
  8
0
 10
41.6587
 20
22.7975
 11
41.6295
 21
22.8561
  0
LINE
  8
0
 10
41.6295
 20
22.8561
 11
41.6013
 21
22.9152
  0
LINE
  8
0
 10
41.6013
 20
22.9152
 11
41.5742
 21
22.9747
  0
LINE
  8
0
 10
41.5742
 20
22.9747
 11
41.5481
 21
23.0347
  0
LINE
  8
0
 10
41.5481
 20
23.0347
 11
41.5231
 21
23.0952
  0
LINE
  8
0
 10
41.5231
 20
23.0952
 11
41.4991
 21
23.1561
  0
LINE
  8
0
 10
41.4991
 20
23.1561
 11
41.4762
 21
23.2174
  0
LINE
  8
0
 10
41.4762
 20
23.2174
 11
41.4543
 21
23.2791
  0
LINE
  8
0
 10
41.4543
 20
23.2791
 11
41.4335
 21
23.3412
  0
LINE
  8
0
 10
41.4335
 20
23.3412
 11
41.4138
 21
23.4036
  0
LINE
  8
0
 10
41.4138
 20
23.4036
 11
41.3953
 21
23.4664
  0
LINE
  8
0
 10
41.3953
 20
23.4664
 11
41.3778
 21
23.5294
  0
LINE
  8
0
 10
41.3778
 20
23.5294
 11
41.3614
 21
23.5928
  0
LINE
  8
0
 10
41.3614
 20
23.5928
 11
41.3461
 21
23.6564
  0
LINE
  8
0
 10
41.3461
 20
23.6564
 11
41.3319
 21
23.7203
  0
LINE
  8
0
 10
41.3319
 20
23.7203
 11
41.3189
 21
23.7845
  0
LINE
  8
0
 10
41.3189
 20
23.7845
 11
41.307
 21
23.8488
  0
LINE
  8
0
 10
41.307
 20
23.8488
 11
41.2962
 21
23.9134
  0
LINE
  8
0
 10
41.2962
 20
23.9134
 11
41.2865
 21
23.9781
  0
LINE
  8
0
 10
41.2865
 20
23.9781
 11
41.2779
 21
24.043
  0
LINE
  8
0
 10
41.2779
 20
24.043
 11
41.2705
 21
24.108
  0
LINE
  8
0
 10
41.2705
 20
24.108
 11
41.2643
 21
24.1732
  0
LINE
  8
0
 10
41.2643
 20
24.1732
 11
41.2591
 21
24.2384
  0
LINE
  8
0
 10
41.2591
 20
24.2384
 11
41.2551
 21
24.3037
  0
LINE
  8
0
 10
41.2551
 20
24.3037
 11
41.2523
 21
24.3691
  0
LINE
  8
0
 10
41.2523
 20
24.3691
 11
41.2506
 21
24.4345
  0
LINE
  8
0
 10
41.2506
 20
24.4345
 11
41.25
 21
24.5
  0
LINE
  8
0
 10
41.25
 20
24.5
 11
41.2506
 21
24.5654
  0
LINE
  8
0
 10
41.2506
 20
24.5654
 11
41.2523
 21
24.6309
  0
LINE
  8
0
 10
41.2523
 20
24.6309
 11
41.2551
 21
24.6963
  0
LINE
  8
0
 10
41.2551
 20
24.6963
 11
41.2591
 21
24.7616
  0
LINE
  8
0
 10
41.2591
 20
24.7616
 11
41.2643
 21
24.8268
  0
LINE
  8
0
 10
41.2643
 20
24.8268
 11
41.2705
 21
24.892
  0
LINE
  8
0
 10
41.2705
 20
24.892
 11
41.2779
 21
24.957
  0
LINE
  8
0
 10
41.2779
 20
24.957
 11
41.2865
 21
25.0219
  0
LINE
  8
0
 10
41.2865
 20
25.0219
 11
41.2962
 21
25.0866
  0
LINE
  8
0
 10
41.2962
 20
25.0866
 11
41.307
 21
25.1512
  0
LINE
  8
0
 10
41.307
 20
25.1512
 11
41.3189
 21
25.2155
  0
LINE
  8
0
 10
41.3189
 20
25.2155
 11
41.3319
 21
25.2797
  0
LINE
  8
0
 10
41.3319
 20
25.2797
 11
41.3461
 21
25.3436
  0
LINE
  8
0
 10
41.3461
 20
25.3436
 11
41.3614
 21
25.4072
  0
LINE
  8
0
 10
41.3614
 20
25.4072
 11
41.3778
 21
25.4706
  0
LINE
  8
0
 10
41.3778
 20
25.4706
 11
41.3953
 21
25.5336
  0
LINE
  8
0
 10
41.3953
 20
25.5336
 11
41.4138
 21
25.5964
  0
LINE
  8
0
 10
41.4138
 20
25.5964
 11
41.4335
 21
25.6588
  0
LINE
  8
0
 10
41.4335
 20
25.6588
 11
41.4543
 21
25.7209
  0
LINE
  8
0
 10
41.4543
 20
25.7209
 11
41.4762
 21
25.7826
  0
LINE
  8
0
 10
41.4762
 20
25.7826
 11
41.4991
 21
25.8439
  0
LINE
  8
0
 10
41.4991
 20
25.8439
 11
41.5231
 21
25.9048
  0
LINE
  8
0
 10
41.5231
 20
25.9048
 11
41.5481
 21
25.9652
  0
LINE
  8
0
 10
41.5481
 20
25.9652
 11
41.5742
 21
26.0253
  0
LINE
  8
0
 10
41.5742
 20
26.0253
 11
41.6013
 21
26.0848
  0
LINE
  8
0
 10
41.6013
 20
26.0848
 11
41.6295
 21
26.1439
  0
LINE
  8
0
 10
41.6295
 20
26.1439
 11
41.6587
 21
26.2025
  0
LINE
  8
0
 10
41.6587
 20
26.2025
 11
41.6889
 21
26.2605
  0
LINE
  8
0
 10
41.6889
 20
26.2605
 11
41.7202
 21
26.318
  0
LINE
  8
0
 10
41.7202
 20
26.318
 11
41.7524
 21
26.375
  0
LINE
  8
0
 10
41.7524
 20
26.375
 11
41.7856
 21
26.4314
  0
LINE
  8
0
 10
41.7856
 20
26.4314
 11
41.8198
 21
26.4872
  0
LINE
  8
0
 10
41.8198
 20
26.4872
 11
41.855
 21
26.5424
  0
LINE
  8
0
 10
41.855
 20
26.5424
 11
41.8911
 21
26.597
  0
LINE
  8
0
 10
41.8911
 20
26.597
 11
41.9282
 21
26.6509
  0
LINE
  8
0
 10
41.9282
 20
26.6509
 11
41.9662
 21
26.7042
  0
LINE
  8
0
 10
41.9662
 20
26.7042
 11
42.0051
 21
26.7568
  0
LINE
  8
0
 10
42.0051
 20
26.7568
 11
42.045
 21
26.8087
  0
LINE
  8
0
 10
42.045
 20
26.8087
 11
42.0857
 21
26.8599
  0
LINE
  8
0
 10
42.0857
 20
26.8599
 11
42.1273
 21
26.9104
  0
LINE
  8
0
 10
42.1273
 20
26.9104
 11
42.1698
 21
26.9602
  0
LINE
  8
0
 10
42.1698
 20
26.9602
 11
42.2132
 21
27.0092
  0
LINE
  8
0
 10
42.2132
 20
27.0092
 11
42.2574
 21
27.0575
  0
LINE
  8
0
 10
42.2574
 20
27.0575
 11
42.3025
 21
27.105
  0
LINE
  8
0
 10
42.3025
 20
27.105
 11
42.3483
 21
27.1516
  0
LINE
  8
0
 10
42.3483
 20
27.1516
 11
42.395
 21
27.1975
  0
LINE
  8
0
 10
42.395
 20
27.1975
 11
42.4425
 21
27.2426
  0
LINE
  8
0
 10
42.4425
 20
27.2426
 11
42.4908
 21
27.2868
  0
LINE
  8
0
 10
42.4908
 20
27.2868
 11
42.5398
 21
27.3302
  0
LINE
  8
0
 10
42.5398
 20
27.3302
 11
42.5895
 21
27.3727
  0
LINE
  8
0
 10
42.5895
 20
27.3727
 11
42.64
 21
27.4143
  0
LINE
  8
0
 10
42.64
 20
27.4143
 11
42.6913
 21
27.455
  0
LINE
  8
0
 10
42.6913
 20
27.455
 11
42.7432
 21
27.4949
  0
LINE
  8
0
 10
42.7432
 20
27.4949
 11
42.7958
 21
27.5338
  0
LINE
  8
0
 10
42.7958
 20
27.5338
 11
42.8491
 21
27.5718
  0
LINE
  8
0
 10
42.8491
 20
27.5718
 11
42.903
 21
27.6089
  0
LINE
  8
0
 10
42.903
 20
27.6089
 11
42.9576
 21
27.645
  0
LINE
  8
0
 10
42.9576
 20
27.645
 11
43.0128
 21
27.6802
  0
LINE
  8
0
 10
43.0128
 20
27.6802
 11
43.0686
 21
27.7144
  0
LINE
  8
0
 10
43.0686
 20
27.7144
 11
43.125
 21
27.7476
  0
LINE
  8
0
 10
43.125
 20
27.7476
 11
43.182
 21
27.7798
  0
LINE
  8
0
 10
43.182
 20
27.7798
 11
43.2395
 21
27.8111
  0
LINE
  8
0
 10
43.2395
 20
27.8111
 11
43.2975
 21
27.8413
  0
LINE
  8
0
 10
43.2975
 20
27.8413
 11
43.3561
 21
27.8705
  0
LINE
  8
0
 10
43.3561
 20
27.8705
 11
43.4152
 21
27.8987
  0
LINE
  8
0
 10
43.4152
 20
27.8987
 11
43.4747
 21
27.9258
  0
LINE
  8
0
 10
43.4747
 20
27.9258
 11
43.5348
 21
27.9519
  0
LINE
  8
0
 10
43.5348
 20
27.9519
 11
43.5952
 21
27.9769
  0
LINE
  8
0
 10
43.5952
 20
27.9769
 11
43.6561
 21
28.0009
  0
LINE
  8
0
 10
43.6561
 20
28.0009
 11
43.7174
 21
28.0238
  0
LINE
  8
0
 10
43.7174
 20
28.0238
 11
43.7791
 21
28.0457
  0
LINE
  8
0
 10
43.7791
 20
28.0457
 11
43.8412
 21
28.0665
  0
LINE
  8
0
 10
43.8412
 20
28.0665
 11
43.9036
 21
28.0861
  0
LINE
  8
0
 10
43.9036
 20
28.0861
 11
43.9664
 21
28.1047
  0
LINE
  8
0
 10
43.9664
 20
28.1047
 11
44.0294
 21
28.1222
  0
LINE
  8
0
 10
44.0294
 20
28.1222
 11
44.0928
 21
28.1386
  0
LINE
  8
0
 10
44.0928
 20
28.1386
 11
44.1564
 21
28.1539
  0
LINE
  8
0
 10
44.1564
 20
28.1539
 11
44.2203
 21
28.168
  0
LINE
  8
0
 10
44.2203
 20
28.168
 11
44.2845
 21
28.1811
  0
LINE
  8
0
 10
44.2845
 20
28.1811
 11
44.3488
 21
28.193
  0
LINE
  8
0
 10
44.3488
 20
28.193
 11
44.4134
 21
28.2038
  0
LINE
  8
0
 10
44.4134
 20
28.2038
 11
44.4781
 21
28.2135
  0
LINE
  8
0
 10
44.4781
 20
28.2135
 11
44.543
 21
28.222
  0
LINE
  8
0
 10
44.543
 20
28.222
 11
44.608
 21
28.2294
  0
LINE
  8
0
 10
44.608
 20
28.2294
 11
44.6732
 21
28.2357
  0
LINE
  8
0
 10
44.6732
 20
28.2357
 11
44.7384
 21
28.2409
  0
LINE
  8
0
 10
44.7384
 20
28.2409
 11
44.8037
 21
28.2449
  0
LINE
  8
0
 10
44.8037
 20
28.2449
 11
44.8691
 21
28.2477
  0
LINE
  8
0
 10
44.8691
 20
28.2477
 11
44.9346
 21
28.2494
  0
LINE
  8
0
 10
44.9346
 20
28.2494
 11
45
 21
28.25
  0
LINE
  8
0
 10
45
 20
28.25
 11
45.0654
 21
28.2494
  0
LINE
  8
0
 10
45.0654
 20
28.2494
 11
45.1309
 21
28.2477
  0
LINE
  8
0
 10
45.1309
 20
28.2477
 11
45.1963
 21
28.2449
  0
LINE
  8
0
 10
45.1963
 20
28.2449
 11
45.2616
 21
28.2409
  0
LINE
  8
0
 10
45.2616
 20
28.2409
 11
45.3268
 21
28.2357
  0
LINE
  8
0
 10
45.3268
 20
28.2357
 11
45.392
 21
28.2294
  0
LINE
  8
0
 10
45.392
 20
28.2294
 11
45.457
 21
28.222
  0
LINE
  8
0
 10
45.457
 20
28.222
 11
45.5219
 21
28.2135
  0
LINE
  8
0
 10
45.5219
 20
28.2135
 11
45.5866
 21
28.2038
  0
LINE
  8
0
 10
45.5866
 20
28.2038
 11
45.6512
 21
28.193
  0
LINE
  8
0
 10
45.6512
 20
28.193
 11
45.7155
 21
28.1811
  0
LINE
  8
0
 10
45.7155
 20
28.1811
 11
45.7797
 21
28.168
  0
LINE
  8
0
 10
45.7797
 20
28.168
 11
45.8436
 21
28.1539
  0
LINE
  8
0
 10
45.8436
 20
28.1539
 11
45.9072
 21
28.1386
  0
LINE
  8
0
 10
45.9072
 20
28.1386
 11
45.9706
 21
28.1222
  0
LINE
  8
0
 10
45.9706
 20
28.1222
 11
46.0336
 21
28.1047
  0
LINE
  8
0
 10
46.0336
 20
28.1047
 11
46.0964
 21
28.0861
  0
LINE
  8
0
 10
46.0964
 20
28.0861
 11
46.1588
 21
28.0665
  0
LINE
  8
0
 10
46.1588
 20
28.0665
 11
46.2209
 21
28.0457
  0
LINE
  8
0
 10
46.2209
 20
28.0457
 11
46.2826
 21
28.0238
  0
LINE
  8
0
 10
46.2826
 20
28.0238
 11
46.3439
 21
28.0009
  0
LINE
  8
0
 10
46.3439
 20
28.0009
 11
46.4048
 21
27.9769
  0
LINE
  8
0
 10
46.4048
 20
27.9769
 11
46.4652
 21
27.9519
  0
LINE
  8
0
 10
46.4652
 20
27.9519
 11
46.5253
 21
27.9258
  0
LINE
  8
0
 10
46.5253
 20
27.9258
 11
46.5848
 21
27.8987
  0
LINE
  8
0
 10
46.5848
 20
27.8987
 11
46.6439
 21
27.8705
  0
LINE
  8
0
 10
46.6439
 20
27.8705
 11
46.7025
 21
27.8413
  0
LINE
  8
0
 10
46.7025
 20
27.8413
 11
46.7605
 21
27.8111
  0
LINE
  8
0
 10
46.7605
 20
27.8111
 11
46.818
 21
27.7798
  0
LINE
  8
0
 10
46.818
 20
27.7798
 11
46.875
 21
27.7476
  0
LINE
  8
0
 10
46.875
 20
27.7476
 11
46.9314
 21
27.7144
  0
LINE
  8
0
 10
46.9314
 20
27.7144
 11
46.9872
 21
27.6802
  0
LINE
  8
0
 10
46.9872
 20
27.6802
 11
47.0424
 21
27.645
  0
LINE
  8
0
 10
47.0424
 20
27.645
 11
47.097
 21
27.6089
  0
LINE
  8
0
 10
47.097
 20
27.6089
 11
47.1509
 21
27.5718
  0
LINE
  8
0
 10
47.1509
 20
27.5718
 11
47.2042
 21
27.5338
  0
LINE
  8
0
 10
47.2042
 20
27.5338
 11
47.2568
 21
27.4949
  0
LINE
  8
0
 10
47.2568
 20
27.4949
 11
47.3087
 21
27.455
  0
LINE
  8
0
 10
47.3087
 20
27.455
 11
47.3599
 21
27.4143
  0
LINE
  8
0
 10
47.3599
 20
27.4143
 11
47.4104
 21
27.3727
  0
LINE
  8
0
 10
47.4104
 20
27.3727
 11
47.4602
 21
27.3302
  0
LINE
  8
0
 10
47.4602
 20
27.3302
 11
47.5092
 21
27.2868
  0
LINE
  8
0
 10
47.5092
 20
27.2868
 11
47.5575
 21
27.2426
  0
LINE
  8
0
 10
47.5575
 20
27.2426
 11
47.605
 21
27.1975
  0
LINE
  8
0
 10
47.605
 20
27.1975
 11
47.6516
 21
27.1516
  0
LINE
  8
0
 10
47.6516
 20
27.1516
 11
47.6975
 21
27.105
  0
LINE
  8
0
 10
47.6975
 20
27.105
 11
47.7426
 21
27.0575
  0
LINE
  8
0
 10
47.7426
 20
27.0575
 11
47.7868
 21
27.0092
  0
LINE
  8
0
 10
47.7868
 20
27.0092
 11
47.8302
 21
26.9602
  0
LINE
  8
0
 10
47.8302
 20
26.9602
 11
47.8727
 21
26.9104
  0
LINE
  8
0
 10
47.8727
 20
26.9104
 11
47.9143
 21
26.8599
  0
LINE
  8
0
 10
47.9143
 20
26.8599
 11
47.955
 21
26.8087
  0
LINE
  8
0
 10
47.955
 20
26.8087
 11
47.9949
 21
26.7568
  0
LINE
  8
0
 10
47.9949
 20
26.7568
 11
48.0338
 21
26.7042
  0
LINE
  8
0
 10
48.0338
 20
26.7042
 11
48.0718
 21
26.6509
  0
LINE
  8
0
 10
48.0718
 20
26.6509
 11
48.1089
 21
26.597
  0
LINE
  8
0
 10
48.1089
 20
26.597
 11
48.145
 21
26.5424
  0
LINE
  8
0
 10
48.145
 20
26.5424
 11
48.1802
 21
26.4872
  0
LINE
  8
0
 10
48.1802
 20
26.4872
 11
48.2144
 21
26.4314
  0
LINE
  8
0
 10
48.2144
 20
26.4314
 11
48.2476
 21
26.375
  0
LINE
  8
0
 10
48.2476
 20
26.375
 11
48.2798
 21
26.318
  0
LINE
  8
0
 10
48.2798
 20
26.318
 11
48.3111
 21
26.2605
  0
LINE
  8
0
 10
48.3111
 20
26.2605
 11
48.3413
 21
26.2025
  0
LINE
  8
0
 10
48.3413
 20
26.2025
 11
48.3705
 21
26.1439
  0
LINE
  8
0
 10
48.3705
 20
26.1439
 11
48.3987
 21
26.0848
  0
LINE
  8
0
 10
48.3987
 20
26.0848
 11
48.4258
 21
26.0253
  0
LINE
  8
0
 10
48.4258
 20
26.0253
 11
48.4519
 21
25.9652
  0
LINE
  8
0
 10
48.4519
 20
25.9652
 11
48.4769
 21
25.9048
  0
LINE
  8
0
 10
48.4769
 20
25.9048
 11
48.5009
 21
25.8439
  0
LINE
  8
0
 10
48.5009
 20
25.8439
 11
48.5238
 21
25.7826
  0
LINE
  8
0
 10
48.5238
 20
25.7826
 11
48.5457
 21
25.7209
  0
LINE
  8
0
 10
48.5457
 20
25.7209
 11
48.5665
 21
25.6588
  0
LINE
  8
0
 10
48.5665
 20
25.6588
 11
48.5861
 21
25.5964
  0
LINE
  8
0
 10
48.5861
 20
25.5964
 11
48.6047
 21
25.5336
  0
LINE
  8
0
 10
48.6047
 20
25.5336
 11
48.6222
 21
25.4706
  0
LINE
  8
0
 10
48.6222
 20
25.4706
 11
48.6386
 21
25.4072
  0
LINE
  8
0
 10
48.6386
 20
25.4072
 11
48.6539
 21
25.3436
  0
LINE
  8
0
 10
48.6539
 20
25.3436
 11
48.668
 21
25.2797
  0
LINE
  8
0
 10
48.668
 20
25.2797
 11
48.6811
 21
25.2155
  0
LINE
  8
0
 10
48.6811
 20
25.2155
 11
48.693
 21
25.1512
  0
LINE
  8
0
 10
48.693
 20
25.1512
 11
48.7038
 21
25.0866
  0
LINE
  8
0
 10
48.7038
 20
25.0866
 11
48.7135
 21
25.0219
  0
LINE
  8
0
 10
48.7135
 20
25.0219
 11
48.722
 21
24.957
  0
LINE
  8
0
 10
48.722
 20
24.957
 11
48.7294
 21
24.892
  0
LINE
  8
0
 10
48.7294
 20
24.892
 11
48.7357
 21
24.8268
  0
LINE
  8
0
 10
48.7357
 20
24.8268
 11
48.7409
 21
24.7616
  0
LINE
  8
0
 10
48.7409
 20
24.7616
 11
48.7449
 21
24.6963
  0
LINE
  8
0
 10
48.7449
 20
24.6963
 11
48.7477
 21
24.6309
  0
LINE
  8
0
 10
48.7477
 20
24.6309
 11
48.7494
 21
24.5654
  0
LINE
  8
0
 10
48.7494
 20
24.5654
 11
48.75
 21
24.5
  0
LINE
  8
0
 10
48.75
 20
24.5
 11
48.7494
 21
24.4345
  0
LINE
  8
0
 10
48.7494
 20
24.4345
 11
48.7477
 21
24.3691
  0
LINE
  8
0
 10
48.7477
 20
24.3691
 11
48.7449
 21
24.3037
  0
LINE
  8
0
 10
48.7449
 20
24.3037
 11
48.7409
 21
24.2384
  0
LINE
  8
0
 10
48.7409
 20
24.2384
 11
48.7357
 21
24.1732
  0
LINE
  8
0
 10
48.7357
 20
24.1732
 11
48.7294
 21
24.108
  0
LINE
  8
0
 10
48.7294
 20
24.108
 11
48.722
 21
24.043
  0
LINE
  8
0
 10
48.722
 20
24.043
 11
48.7135
 21
23.9781
  0
LINE
  8
0
 10
48.7135
 20
23.9781
 11
48.7038
 21
23.9134
  0
LINE
  8
0
 10
48.7038
 20
23.9134
 11
48.693
 21
23.8488
  0
LINE
  8
0
 10
48.693
 20
23.8488
 11
48.6811
 21
23.7845
  0
LINE
  8
0
 10
48.6811
 20
23.7845
 11
48.668
 21
23.7203
  0
LINE
  8
0
 10
48.668
 20
23.7203
 11
48.6539
 21
23.6564
  0
LINE
  8
0
 10
48.6539
 20
23.6564
 11
48.6386
 21
23.5928
  0
LINE
  8
0
 10
48.6386
 20
23.5928
 11
48.6222
 21
23.5294
  0
LINE
  8
0
 10
48.6222
 20
23.5294
 11
48.6047
 21
23.4664
  0
LINE
  8
0
 10
48.6047
 20
23.4664
 11
48.5861
 21
23.4036
  0
LINE
  8
0
 10
48.5861
 20
23.4036
 11
48.5665
 21
23.3412
  0
LINE
  8
0
 10
48.5665
 20
23.3412
 11
48.5457
 21
23.2791
  0
LINE
  8
0
 10
48.5457
 20
23.2791
 11
48.5238
 21
23.2174
  0
LINE
  8
0
 10
48.5238
 20
23.2174
 11
48.5009
 21
23.1561
  0
LINE
  8
0
 10
48.5009
 20
23.1561
 11
48.4769
 21
23.0952
  0
LINE
  8
0
 10
48.4769
 20
23.0952
 11
48.4519
 21
23.0347
  0
LINE
  8
0
 10
48.4519
 20
23.0347
 11
48.4258
 21
22.9747
  0
LINE
  8
0
 10
48.4258
 20
22.9747
 11
48.3987
 21
22.9152
  0
LINE
  8
0
 10
48.3987
 20
22.9152
 11
48.3705
 21
22.8561
  0
LINE
  8
0
 10
48.3705
 20
22.8561
 11
48.3413
 21
22.7975
  0
LINE
  8
0
 10
48.3413
 20
22.7975
 11
48.3111
 21
22.7395
  0
LINE
  8
0
 10
48.3111
 20
22.7395
 11
48.2798
 21
22.682
  0
LINE
  8
0
 10
48.2798
 20
22.682
 11
48.2476
 21
22.625
  0
LINE
  8
0
 10
48.2476
 20
22.625
 11
48.2144
 21
22.5686
  0
LINE
  8
0
 10
48.2144
 20
22.5686
 11
48.1802
 21
22.5128
  0
LINE
  8
0
 10
48.1802
 20
22.5128
 11
48.145
 21
22.4576
  0
LINE
  8
0
 10
48.145
 20
22.4576
 11
48.1089
 21
22.403
  0
LINE
  8
0
 10
48.1089
 20
22.403
 11
48.0718
 21
22.3491
  0
LINE
  8
0
 10
48.0718
 20
22.3491
 11
48.0338
 21
22.2958
  0
LINE
  8
0
 10
48.0338
 20
22.2958
 11
47.9949
 21
22.2432
  0
LINE
  8
0
 10
47.9949
 20
22.2432
 11
47.955
 21
22.1913
  0
LINE
  8
0
 10
47.955
 20
22.1913
 11
47.9143
 21
22.14
  0
LINE
  8
0
 10
47.9143
 20
22.14
 11
47.8727
 21
22.0895
  0
LINE
  8
0
 10
47.8727
 20
22.0895
 11
47.8302
 21
22.0398
  0
LINE
  8
0
 10
47.8302
 20
22.0398
 11
47.7868
 21
21.9908
  0
LINE
  8
0
 10
47.7868
 20
21.9908
 11
47.7426
 21
21.9425
  0
LINE
  8
0
 10
47.7426
 20
21.9425
 11
47.6975
 21
21.895
  0
LINE
  8
0
 10
47.6975
 20
21.895
 11
47.6516
 21
21.8483
  0
LINE
  8
0
 10
47.6516
 20
21.8483
 11
47.605
 21
21.8025
  0
LINE
  8
0
 10
47.605
 20
21.8025
 11
47.5575
 21
21.7574
  0
LINE
  8
0
 10
47.5575
 20
21.7574
 11
47.5092
 21
21.7132
  0
LINE
  8
0
 10
47.5092
 20
21.7132
 11
47.4602
 21
21.6698
  0
LINE
  8
0
 10
47.4602
 20
21.6698
 11
47.4104
 21
21.6273
  0
LINE
  8
0
 10
47.4104
 20
21.6273
 11
47.3599
 21
21.5857
  0
LINE
  8
0
 10
47.3599
 20
21.5857
 11
47.3087
 21
21.545
  0
LINE
  8
0
 10
47.3087
 20
21.545
 11
47.2568
 21
21.5051
  0
LINE
  8
0
 10
47.2568
 20
21.5051
 11
47.2042
 21
21.4662
  0
LINE
  8
0
 10
47.2042
 20
21.4662
 11
47.1509
 21
21.4282
  0
LINE
  8
0
 10
47.1509
 20
21.4282
 11
47.097
 21
21.3911
  0
LINE
  8
0
 10
47.097
 20
21.3911
 11
47.0424
 21
21.355
  0
LINE
  8
0
 10
47.0424
 20
21.355
 11
46.9872
 21
21.3198
  0
LINE
  8
0
 10
46.9872
 20
21.3198
 11
46.9314
 21
21.2856
  0
LINE
  8
0
 10
46.9314
 20
21.2856
 11
46.875
 21
21.2524
  0
LINE
  8
0
 10
46.875
 20
21.2524
 11
46.818
 21
21.2202
  0
LINE
  8
0
 10
46.818
 20
21.2202
 11
46.7605
 21
21.1889
  0
LINE
  8
0
 10
46.7605
 20
21.1889
 11
46.7025
 21
21.1587
  0
LINE
  8
0
 10
46.7025
 20
21.1587
 11
46.6439
 21
21.1295
  0
LINE
  8
0
 10
46.6439
 20
21.1295
 11
46.5848
 21
21.1013
  0
LINE
  8
0
 10
46.5848
 20
21.1013
 11
46.5253
 21
21.0742
  0
LINE
  8
0
 10
46.5253
 20
21.0742
 11
46.4652
 21
21.0481
  0
LINE
  8
0
 10
46.4652
 20
21.0481
 11
46.4048
 21
21.0231
  0
LINE
  8
0
 10
46.4048
 20
21.0231
 11
46.3439
 21
20.9991
  0
LINE
  8
0
 10
46.3439
 20
20.9991
 11
46.2826
 21
20.9762
  0
LINE
  8
0
 10
46.2826
 20
20.9762
 11
46.2209
 21
20.9543
  0
LINE
  8
0
 10
46.2209
 20
20.9543
 11
46.1588
 21
20.9335
  0
LINE
  8
0
 10
46.1588
 20
20.9335
 11
46.0964
 21
20.9138
  0
LINE
  8
0
 10
46.0964
 20
20.9138
 11
46.0336
 21
20.8953
  0
LINE
  8
0
 10
46.0336
 20
20.8953
 11
45.9706
 21
20.8778
  0
LINE
  8
0
 10
45.9706
 20
20.8778
 11
45.9072
 21
20.8614
  0
LINE
  8
0
 10
45.9072
 20
20.8614
 11
45.8436
 21
20.8461
  0
LINE
  8
0
 10
45.8436
 20
20.8461
 11
45.7797
 21
20.8319
  0
LINE
  8
0
 10
45.7797
 20
20.8319
 11
45.7155
 21
20.8189
  0
LINE
  8
0
 10
45.7155
 20
20.8189
 11
45.6512
 21
20.807
  0
LINE
  8
0
 10
45.6512
 20
20.807
 11
45.5866
 21
20.7962
  0
LINE
  8
0
 10
45.5866
 20
20.7962
 11
45.5219
 21
20.7865
  0
LINE
  8
0
 10
45.5219
 20
20.7865
 11
45.457
 21
20.7779
  0
LINE
  8
0
 10
45.457
 20
20.7779
 11
45.392
 21
20.7705
  0
LINE
  8
0
 10
45.392
 20
20.7705
 11
45.3268
 21
20.7643
  0
LINE
  8
0
 10
45.3268
 20
20.7643
 11
45.2616
 21
20.7591
  0
LINE
  8
0
 10
45.2616
 20
20.7591
 11
45.1963
 21
20.7551
  0
LINE
  8
0
 10
45.1963
 20
20.7551
 11
45.1309
 21
20.7523
  0
LINE
  8
0
 10
45.1309
 20
20.7523
 11
45.0654
 21
20.7506
  0
LINE
  8
0
 10
45.0654
 20
20.7506
 11
45
 21
20.75
  0
LINE
  8
0
 10
45
 20
20.75
 11
44.9346
 21
20.7506
  0
LINE
  8
0
 10
26.6359
 20
3.30046
 11
26.5818
 21
3.30188
  0
LINE
  8
0
 10
26.5818
 20
3.30188
 11
26.5278
 21
3.30424
  0
LINE
  8
0
 10
26.5278
 20
3.30424
 11
26.4738
 21
3.30754
  0
LINE
  8
0
 10
26.4738
 20
3.30754
 11
26.4198
 21
3.31178
  0
LINE
  8
0
 10
26.4198
 20
3.31178
 11
26.366
 21
3.31697
  0
LINE
  8
0
 10
26.366
 20
3.31697
 11
26.3122
 21
3.3231
  0
LINE
  8
0
 10
26.3122
 20
3.3231
 11
26.2586
 21
3.33015
  0
LINE
  8
0
 10
26.2586
 20
3.33015
 11
26.205
 21
3.33817
  0
LINE
  8
0
 10
26.205
 20
3.33817
 11
26.1517
 21
3.34709
  0
LINE
  8
0
 10
26.1517
 20
3.34709
 11
26.0985
 21
3.35695
  0
LINE
  8
0
 10
26.0985
 20
3.35695
 11
26.0455
 21
3.36774
  0
LINE
  8
0
 10
26.0455
 20
3.36774
 11
25.9926
 21
3.37944
  0
LINE
  8
0
 10
25.9926
 20
3.37944
 11
25.94
 21
3.39207
  0
LINE
  8
0
 10
25.94
 20
3.39207
 11
25.8876
 21
3.40562
  0
LINE
  8
0
 10
25.8876
 20
3.40562
 11
25.8355
 21
3.42007
  0
LINE
  8
0
 10
25.8355
 20
3.42007
 11
25.7836
 21
3.43544
  0
LINE
  8
0
 10
25.7836
 20
3.43544
 11
25.732
 21
3.45172
  0
LINE
  8
0
 10
25.732
 20
3.45172
 11
25.6807
 21
3.46889
  0
LINE
  8
0
 10
25.6807
 20
3.46889
 11
25.6297
 21
3.48694
  0
LINE
  8
0
 10
25.6297
 20
3.48694
 11
25.5791
 21
3.50589
  0
LINE
  8
0
 10
25.5791
 20
3.50589
 11
25.5287
 21
3.52573
  0
LINE
  8
0
 10
25.5287
 20
3.52573
 11
25.4787
 21
3.54643
  0
LINE
  8
0
 10
25.4787
 20
3.54643
 11
25.4291
 21
3.56801
  0
LINE
  8
0
 10
25.4291
 20
3.56801
 11
25.3799
 21
3.59044
  0
LINE
  8
0
 10
25.3799
 20
3.59044
 11
25.331
 21
3.61372
  0
LINE
  8
0
 10
25.331
 20
3.61372
 11
25.2826
 21
3.63788
  0
LINE
  8
0
 10
25.2826
 20
3.63788
 11
25.2346
 21
3.66286
  0
LINE
  8
0
 10
25.2346
 20
3.66286
 11
25.1871
 21
3.68867
  0
LINE
  8
0
 10
25.1871
 20
3.68867
 11
25.14
 21
3.71532
  0
LINE
  8
0
 10
25.14
 20
3.71532
 11
25.0934
 21
3.74277
  0
LINE
  8
0
 10
25.0934
 20
3.74277
 11
25.0472
 21
3.77104
  0
LINE
  8
0
 10
25.0472
 20
3.77104
 11
25.0016
 21
3.80011
  0
LINE
  8
0
 10
25.0016
 20
3.80011
 11
24.9565
 21
3.82997
  0
LINE
  8
0
 10
24.9565
 20
3.82997
 11
24.9119
 21
3.86063
  0
LINE
  8
0
 10
24.9119
 20
3.86063
 11
24.8679
 21
3.89204
  0
LINE
  8
0
 10
24.8679
 20
3.89204
 11
24.8244
 21
3.92422
  0
LINE
  8
0
 10
24.8244
 20
3.92422
 11
24.7814
 21
3.95715
  0
LINE
  8
0
 10
24.7814
 20
3.95715
 11
24.7391
 21
3.99084
  0
LINE
  8
0
 10
24.7391
 20
3.99084
 11
24.6974
 21
4.02525
  0
LINE
  8
0
 10
24.6974
 20
4.02525
 11
24.6562
 21
4.06039
  0
LINE
  8
0
 10
24.6562
 20
4.06039
 11
24.6157
 21
4.09624
  0
LINE
  8
0
 10
24.6157
 20
4.09624
 11
24.5758
 21
4.1328
  0
LINE
  8
0
 10
24.5758
 20
4.1328
 11
24.5365
 21
4.17004
  0
LINE
  8
0
 10
24.5365
 20
4.17004
 11
24.498
 21
4.20796
  0
LINE
  8
0
 10
24.498
 20
4.20796
 11
24.46
 21
4.24655
  0
LINE
  8
0
 10
24.46
 20
4.24655
 11
24.4228
 21
4.2858
  0
LINE
  8
0
 10
24.4228
 20
4.2858
 11
24.3862
 21
4.32568
  0
LINE
  8
0
 10
24.3862
 20
4.32568
 11
24.3504
 21
4.36621
  0
LINE
  8
0
 10
24.3504
 20
4.36621
 11
24.3153
 21
4.40735
  0
LINE
  8
0
 10
24.3153
 20
4.40735
 11
24.2808
 21
4.4491
  0
LINE
  8
0
 10
24.2808
 20
4.4491
 11
24.2472
 21
4.49144
  0
LINE
  8
0
 10
24.2472
 20
4.49144
 11
24.2142
 21
4.53436
  0
LINE
  8
0
 10
24.2142
 20
4.53436
 11
24.182
 21
4.57787
  0
LINE
  8
0
 10
24.182
 20
4.57787
 11
24.1506
 21
4.6219
  0
LINE
  8
0
 10
24.1506
 20
4.6219
 11
24.12
 21
4.66649
  0
LINE
  8
0
 10
24.12
 20
4.66649
 11
24.0901
 21
4.71161
  0
LINE
  8
0
 10
24.0901
 20
4.71161
 11
24.0611
 21
4.75725
  0
LINE
  8
0
 10
24.0611
 20
4.75725
 11
24.0328
 21
4.80338
  0
LINE
  8
0
 10
24.0328
 20
4.80338
 11
24.0053
 21
4.84999
  0
LINE
  8
0
 10
24.0053
 20
4.84999
 11
23.9787
 21
4.89708
  0
LINE
  8
0
 10
23.9787
 20
4.89708
 11
23.9529
 21
4.94463
  0
LINE
  8
0
 10
23.9529
 20
4.94463
 11
23.9279
 21
4.99261
  0
LINE
  8
0
 10
23.9279
 20
4.99261
 11
23.9037
 21
5.04105
  0
LINE
  8
0
 10
23.9037
 20
5.04105
 11
23.8804
 21
5.08987
  0
LINE
  8
0
 10
23.8804
 20
5.08987
 11
23.858
 21
5.13911
  0
LINE
  8
0
 10
23.858
 20
5.13911
 11
23.8364
 21
5.18872
  0
LINE
  8
0
 10
23.8364
 20
5.18872
 11
23.8157
 21
5.23871
  0
LINE
  8
0
 10
23.8157
 20
5.23871
 11
23.7959
 21
5.28905
  0
LINE
  8
0
 10
23.7959
 20
5.28905
 11
23.7769
 21
5.33974
  0
LINE
  8
0
 10
23.7769
 20
5.33974
 11
23.7589
 21
5.39073
  0
LINE
  8
0
 10
23.7589
 20
5.39073
 11
23.7417
 21
5.44205
  0
LINE
  8
0
 10
23.7417
 20
5.44205
 11
23.7254
 21
5.49364
  0
LINE
  8
0
 10
23.7254
 20
5.49364
 11
23.7101
 21
5.54552
  0
LINE
  8
0
 10
23.7101
 20
5.54552
 11
23.6956
 21
5.59766
  0
LINE
  8
0
 10
23.6956
 20
5.59766
 11
23.6821
 21
5.65004
  0
LINE
  8
0
 10
23.6821
 20
5.65004
 11
23.6694
 21
5.70264
  0
LINE
  8
0
 10
23.6694
 20
5.70264
 11
23.6577
 21
5.75546
  0
LINE
  8
0
 10
23.6577
 20
5.75546
 11
23.6469
 21
5.80849
  0
LINE
  8
0
 10
23.6469
 20
5.80849
 11
23.6371
 21
5.86168
  0
LINE
  8
0
 10
23.6371
 20
5.86168
 11
23.6282
 21
5.91504
  0
LINE
  8
0
 10
23.6282
 20
5.91504
 11
23.6202
 21
5.96855
  0
LINE
  8
0
 10
23.6202
 20
5.96855
 11
23.6131
 21
6.0222
  0
LINE
  8
0
 10
23.6131
 20
6.0222
 11
23.607
 21
6.07596
  0
LINE
  8
0
 10
23.607
 20
6.07596
 11
23.6018
 21
6.12981
  0
LINE
  8
0
 10
23.6018
 20
6.12981
 11
23.5975
 21
6.18375
  0
LINE
  8
0
 10
23.5975
 20
6.18375
 11
23.5942
 21
6.23775
  0
LINE
  8
0
 10
23.5942
 20
6.23775
 11
23.5919
 21
6.29181
  0
LINE
  8
0
 10
23.5919
 20
6.29181
 11
23.5905
 21
6.34589
  0
LINE
  8
0
 10
23.5905
 20
6.34589
 11
23.59
 21
6.39999
  0
LINE
  8
0
 10
23.59
 20
6.39999
 11
23.5905
 21
6.4541
  0
LINE
  8
0
 10
23.5905
 20
6.4541
 11
23.5919
 21
6.50818
  0
LINE
  8
0
 10
23.5919
 20
6.50818
 11
23.5942
 21
6.56224
  0
LINE
  8
0
 10
23.5942
 20
6.56224
 11
23.5975
 21
6.61624
  0
LINE
  8
0
 10
23.5975
 20
6.61624
 11
23.6018
 21
6.67018
  0
LINE
  8
0
 10
23.6018
 20
6.67018
 11
23.607
 21
6.72403
  0
LINE
  8
0
 10
23.607
 20
6.72403
 11
23.6131
 21
6.77779
  0
LINE
  8
0
 10
23.6131
 20
6.77779
 11
23.6202
 21
6.83144
  0
LINE
  8
0
 10
23.6202
 20
6.83144
 11
23.6282
 21
6.88493
  0
LINE
  8
0
 10
23.6282
 20
6.88493
 11
23.6371
 21
6.93831
  0
LINE
  8
0
 10
23.6371
 20
6.93831
 11
23.6469
 21
6.9915
  0
LINE
  8
0
 10
23.6469
 20
6.9915
 11
23.6577
 21
7.04453
  0
LINE
  8
0
 10
23.6577
 20
7.04453
 11
23.6694
 21
7.09734
  0
LINE
  8
0
 10
23.6694
 20
7.09734
 11
23.6821
 21
7.14995
  0
LINE
  8
0
 10
23.6821
 20
7.14995
 11
23.6956
 21
7.20233
  0
LINE
  8
0
 10
23.6956
 20
7.20233
 11
23.7101
 21
7.25447
  0
LINE
  8
0
 10
23.7101
 20
7.25447
 11
23.7254
 21
7.30635
  0
LINE
  8
0
 10
23.7254
 20
7.30635
 11
23.7417
 21
7.35794
  0
LINE
  8
0
 10
23.7417
 20
7.35794
 11
23.7589
 21
7.40926
  0
LINE
  8
0
 10
23.7589
 20
7.40926
 11
23.7769
 21
7.46025
  0
LINE
  8
0
 10
23.7769
 20
7.46025
 11
23.7959
 21
7.51094
  0
LINE
  8
0
 10
23.7959
 20
7.51094
 11
23.8157
 21
7.56128
  0
LINE
  8
0
 10
23.8157
 20
7.56128
 11
23.8364
 21
7.61125
  0
LINE
  8
0
 10
23.8364
 20
7.61125
 11
23.858
 21
7.66087
  0
LINE
  8
0
 10
23.858
 20
7.66087
 11
23.8804
 21
7.71011
  0
LINE
  8
0
 10
23.8804
 20
7.71011
 11
23.9037
 21
7.75894
  0
LINE
  8
0
 10
23.9037
 20
7.75894
 11
23.9279
 21
7.80736
  0
LINE
  8
0
 10
23.9279
 20
7.80736
 11
23.9529
 21
7.85535
  0
LINE
  8
0
 10
23.9529
 20
7.85535
 11
23.9787
 21
7.90291
  0
LINE
  8
0
 10
23.9787
 20
7.90291
 11
24.0053
 21
7.95
  0
LINE
  8
0
 10
24.0053
 20
7.95
 11
24.0328
 21
7.99661
  0
LINE
  8
0
 10
24.0328
 20
7.99661
 11
24.0611
 21
8.04274
  0
LINE
  8
0
 10
24.0611
 20
8.04274
 11
24.0901
 21
8.08838
  0
LINE
  8
0
 10
24.0901
 20
8.08838
 11
24.12
 21
8.13348
  0
LINE
  8
0
 10
24.12
 20
8.13348
 11
24.1506
 21
8.17809
  0
LINE
  8
0
 10
24.1506
 20
8.17809
 11
24.182
 21
8.22212
  0
LINE
  8
0
 10
24.182
 20
8.22212
 11
24.2142
 21
8.26562
  0
LINE
  8
0
 10
24.2142
 20
8.26562
 11
24.2472
 21
8.30855
  0
LINE
  8
0
 10
24.2472
 20
8.30855
 11
24.2808
 21
8.35089
  0
LINE
  8
0
 10
24.2808
 20
8.35089
 11
24.3153
 21
8.39264
  0
LINE
  8
0
 10
24.3153
 20
8.39264
 11
24.3504
 21
8.43378
  0
LINE
  8
0
 10
24.3504
 20
8.43378
 11
24.3862
 21
8.4743
  0
LINE
  8
0
 10
24.3862
 20
8.4743
 11
24.4228
 21
8.51419
  0
LINE
  8
0
 10
24.4228
 20
8.51419
 11
24.46
 21
8.55344
  0
LINE
  8
0
 10
24.46
 20
8.55344
 11
24.498
 21
8.59203
  0
LINE
  8
0
 10
24.498
 20
8.59203
 11
24.5365
 21
8.62994
  0
LINE
  8
0
 10
24.5365
 20
8.62994
 11
24.5758
 21
8.66719
  0
LINE
  8
0
 10
24.5758
 20
8.66719
 11
24.6157
 21
8.70374
  0
LINE
  8
0
 10
24.6157
 20
8.70374
 11
24.6562
 21
8.73959
  0
LINE
  8
0
 10
24.6562
 20
8.73959
 11
24.6974
 21
8.77473
  0
LINE
  8
0
 10
24.6974
 20
8.77473
 11
24.7391
 21
8.80914
  0
LINE
  8
0
 10
24.7391
 20
8.80914
 11
24.7814
 21
8.84282
  0
LINE
  8
0
 10
24.7814
 20
8.84282
 11
24.8244
 21
8.87576
  0
LINE
  8
0
 10
24.8244
 20
8.87576
 11
24.8679
 21
8.90794
  0
LINE
  8
0
 10
24.8679
 20
8.90794
 11
24.9119
 21
8.93936
  0
LINE
  8
0
 10
24.9119
 20
8.93936
 11
24.9565
 21
8.97
  0
LINE
  8
0
 10
24.9565
 20
8.97
 11
25.0016
 21
8.99988
  0
LINE
  8
0
 10
25.0016
 20
8.99988
 11
25.0472
 21
9.02895
  0
LINE
  8
0
 10
25.0472
 20
9.02895
 11
25.0934
 21
9.05721
  0
LINE
  8
0
 10
25.0934
 20
9.05721
 11
25.14
 21
9.08467
  0
LINE
  8
0
 10
25.14
 20
9.08467
 11
25.1871
 21
9.11131
  0
LINE
  8
0
 10
25.1871
 20
9.11131
 11
25.2346
 21
9.13713
  0
LINE
  8
0
 10
25.2346
 20
9.13713
 11
25.2826
 21
9.16211
  0
LINE
  8
0
 10
25.2826
 20
9.16211
 11
25.331
 21
9.18625
  0
LINE
  8
0
 10
25.331
 20
9.18625
 11
25.3799
 21
9.20955
  0
LINE
  8
0
 10
25.3799
 20
9.20955
 11
25.4291
 21
9.23198
  0
LINE
  8
0
 10
25.4291
 20
9.23198
 11
25.4787
 21
9.25356
  0
LINE
  8
0
 10
25.4787
 20
9.25356
 11
25.5287
 21
9.27426
  0
LINE
  8
0
 10
25.5287
 20
9.27426
 11
25.5791
 21
9.2941
  0
LINE
  8
0
 10
25.5791
 20
9.2941
 11
25.6297
 21
9.31303
  0
LINE
  8
0
 10
25.6297
 20
9.31303
 11
25.6807
 21
9.3311
  0
LINE
  8
0
 10
25.6807
 20
9.3311
 11
25.732
 21
9.34827
  0
LINE
  8
0
 10
25.732
 20
9.34827
 11
25.7836
 21
9.36453
  0
LINE
  8
0
 10
25.7836
 20
9.36453
 11
25.8355
 21
9.3799
  0
LINE
  8
0
 10
25.8355
 20
9.3799
 11
25.8876
 21
9.39436
  0
LINE
  8
0
 10
25.8876
 20
9.39436
 11
25.94
 21
9.40791
  0
LINE
  8
0
 10
25.94
 20
9.40791
 11
25.9926
 21
9.42053
  0
LINE
  8
0
 10
25.9926
 20
9.42053
 11
26.0455
 21
9.43225
  0
LINE
  8
0
 10
26.0455
 20
9.43225
 11
26.0985
 21
9.44304
  0
LINE
  8
0
 10
26.0985
 20
9.44304
 11
26.1517
 21
9.4529
  0
LINE
  8
0
 10
26.1517
 20
9.4529
 11
26.205
 21
9.46182
  0
LINE
  8
0
 10
26.205
 20
9.46182
 11
26.2586
 21
9.46982
  0
LINE
  8
0
 10
26.2586
 20
9.46982
 11
26.3122
 21
9.47688
  0
LINE
  8
0
 10
26.3122
 20
9.47688
 11
26.366
 21
9.48302
  0
LINE
  8
0
 10
26.366
 20
9.48302
 11
26.4198
 21
9.48819
  0
LINE
  8
0
 10
26.4198
 20
9.48819
 11
26.4738
 21
9.49245
  0
LINE
  8
0
 10
26.4738
 20
9.49245
 11
26.5278
 21
9.49574
  0
LINE
  8
0
 10
26.5278
 20
9.49574
 11
26.5818
 21
9.49811
  0
LINE
  8
0
 10
26.5818
 20
9.49811
 11
26.6359
 21
9.49953
  0
LINE
  8
0
 10
26.6359
 20
9.49953
 11
26.69
 21
9.5
  0
LINE
  8
0
 10
26.69
 20
9.5
 11
26.7441
 21
9.49953
  0
LINE
  8
0
 10
26.7441
 20
9.49953
 11
26.7982
 21
9.49811
  0
LINE
  8
0
 10
26.7982
 20
9.49811
 11
26.8522
 21
9.49574
  0
LINE
  8
0
 10
26.8522
 20
9.49574
 11
26.9062
 21
9.49245
  0
LINE
  8
0
 10
26.9062
 20
9.49245
 11
26.9602
 21
9.48819
  0
LINE
  8
0
 10
26.9602
 20
9.48819
 11
27.014
 21
9.48302
  0
LINE
  8
0
 10
27.014
 20
9.48302
 11
27.0678
 21
9.47688
  0
LINE
  8
0
 10
27.0678
 20
9.47688
 11
27.1214
 21
9.46982
  0
LINE
  8
0
 10
27.1214
 20
9.46982
 11
27.1749
 21
9.46182
  0
LINE
  8
0
 10
27.1749
 20
9.46182
 11
27.2283
 21
9.4529
  0
LINE
  8
0
 10
27.2283
 20
9.4529
 11
27.2815
 21
9.44304
  0
LINE
  8
0
 10
27.2815
 20
9.44304
 11
27.3345
 21
9.43225
  0
LINE
  8
0
 10
27.3345
 20
9.43225
 11
27.3873
 21
9.42053
  0
LINE
  8
0
 10
27.3873
 20
9.42053
 11
27.44
 21
9.40791
  0
LINE
  8
0
 10
27.44
 20
9.40791
 11
27.4923
 21
9.39436
  0
LINE
  8
0
 10
27.4923
 20
9.39436
 11
27.5445
 21
9.3799
  0
LINE
  8
0
 10
27.5445
 20
9.3799
 11
27.5963
 21
9.36453
  0
LINE
  8
0
 10
27.5963
 20
9.36453
 11
27.6479
 21
9.34827
  0
LINE
  8
0
 10
27.6479
 20
9.34827
 11
27.6992
 21
9.3311
  0
LINE
  8
0
 10
27.6992
 20
9.3311
 11
27.7503
 21
9.31303
  0
LINE
  8
0
 10
27.7503
 20
9.31303
 11
27.8009
 21
9.2941
  0
LINE
  8
0
 10
27.8009
 20
9.2941
 11
27.8513
 21
9.27426
  0
LINE
  8
0
 10
27.8513
 20
9.27426
 11
27.9013
 21
9.25356
  0
LINE
  8
0
 10
27.9013
 20
9.25356
 11
27.9509
 21
9.23198
  0
LINE
  8
0
 10
27.9509
 20
9.23198
 11
28.0001
 21
9.20955
  0
LINE
  8
0
 10
28.0001
 20
9.20955
 11
28.049
 21
9.18625
  0
LINE
  8
0
 10
28.049
 20
9.18625
 11
28.0974
 21
9.16211
  0
LINE
  8
0
 10
28.0974
 20
9.16211
 11
28.1454
 21
9.13713
  0
LINE
  8
0
 10
28.1454
 20
9.13713
 11
28.1929
 21
9.11131
  0
LINE
  8
0
 10
28.1929
 20
9.11131
 11
28.24
 21
9.08467
  0
LINE
  8
0
 10
28.24
 20
9.08467
 11
28.2866
 21
9.05721
  0
LINE
  8
0
 10
28.2866
 20
9.05721
 11
28.3327
 21
9.02895
  0
LINE
  8
0
 10
28.3327
 20
9.02895
 11
28.3784
 21
8.99988
  0
LINE
  8
0
 10
28.3784
 20
8.99988
 11
28.4235
 21
8.97
  0
LINE
  8
0
 10
28.4235
 20
8.97
 11
28.4681
 21
8.93936
  0
LINE
  8
0
 10
28.4681
 20
8.93936
 11
28.5121
 21
8.90794
  0
LINE
  8
0
 10
28.5121
 20
8.90794
 11
28.5556
 21
8.87576
  0
LINE
  8
0
 10
28.5556
 20
8.87576
 11
28.5985
 21
8.84282
  0
LINE
  8
0
 10
28.5985
 20
8.84282
 11
28.6409
 21
8.80914
  0
LINE
  8
0
 10
28.6409
 20
8.80914
 11
28.6826
 21
8.77473
  0
LINE
  8
0
 10
28.6826
 20
8.77473
 11
28.7238
 21
8.73959
  0
LINE
  8
0
 10
28.7238
 20
8.73959
 11
28.7643
 21
8.70374
  0
LINE
  8
0
 10
28.7643
 20
8.70374
 11
28.8042
 21
8.66719
  0
LINE
  8
0
 10
28.8042
 20
8.66719
 11
28.8434
 21
8.62994
  0
LINE
  8
0
 10
28.8434
 20
8.62994
 11
28.882
 21
8.59203
  0
LINE
  8
0
 10
28.882
 20
8.59203
 11
28.92
 21
8.55344
  0
LINE
  8
0
 10
28.92
 20
8.55344
 11
28.9572
 21
8.51419
  0
LINE
  8
0
 10
28.9572
 20
8.51419
 11
28.9937
 21
8.4743
  0
LINE
  8
0
 10
28.9937
 20
8.4743
 11
29.0296
 21
8.43378
  0
LINE
  8
0
 10
29.0296
 20
8.43378
 11
29.0647
 21
8.39264
  0
LINE
  8
0
 10
29.0647
 20
8.39264
 11
29.0992
 21
8.35089
  0
LINE
  8
0
 10
29.0992
 20
8.35089
 11
29.1328
 21
8.30855
  0
LINE
  8
0
 10
29.1328
 20
8.30855
 11
29.1658
 21
8.26562
  0
LINE
  8
0
 10
29.1658
 20
8.26562
 11
29.198
 21
8.22212
  0
LINE
  8
0
 10
29.198
 20
8.22212
 11
29.2294
 21
8.17809
  0
LINE
  8
0
 10
29.2294
 20
8.17809
 11
29.26
 21
8.13348
  0
LINE
  8
0
 10
29.26
 20
8.13348
 11
29.2899
 21
8.08838
  0
LINE
  8
0
 10
29.2899
 20
8.08838
 11
29.3189
 21
8.04274
  0
LINE
  8
0
 10
29.3189
 20
8.04274
 11
29.3472
 21
7.99661
  0
LINE
  8
0
 10
29.3472
 20
7.99661
 11
29.3747
 21
7.95
  0
LINE
  8
0
 10
29.3747
 20
7.95
 11
29.4013
 21
7.90291
  0
LINE
  8
0
 10
29.4013
 20
7.90291
 11
29.4271
 21
7.85535
  0
LINE
  8
0
 10
29.4271
 20
7.85535
 11
29.4521
 21
7.80736
  0
LINE
  8
0
 10
29.4521
 20
7.80736
 11
29.4763
 21
7.75894
  0
LINE
  8
0
 10
29.4763
 20
7.75894
 11
29.4995
 21
7.71011
  0
LINE
  8
0
 10
29.4995
 20
7.71011
 11
29.522
 21
7.66087
  0
LINE
  8
0
 10
29.522
 20
7.66087
 11
29.5436
 21
7.61125
  0
LINE
  8
0
 10
29.5436
 20
7.61125
 11
29.5643
 21
7.56128
  0
LINE
  8
0
 10
29.5643
 20
7.56128
 11
29.5841
 21
7.51094
  0
LINE
  8
0
 10
29.5841
 20
7.51094
 11
29.603
 21
7.46025
  0
LINE
  8
0
 10
29.603
 20
7.46025
 11
29.6211
 21
7.40926
  0
LINE
  8
0
 10
29.6211
 20
7.40926
 11
29.6383
 21
7.35794
  0
LINE
  8
0
 10
29.6383
 20
7.35794
 11
29.6545
 21
7.30635
  0
LINE
  8
0
 10
29.6545
 20
7.30635
 11
29.6699
 21
7.25447
  0
LINE
  8
0
 10
29.6699
 20
7.25447
 11
29.6844
 21
7.20233
  0
LINE
  8
0
 10
29.6844
 20
7.20233
 11
29.6979
 21
7.14995
  0
LINE
  8
0
 10
29.6979
 20
7.14995
 11
29.7105
 21
7.09734
  0
LINE
  8
0
 10
29.7105
 20
7.09734
 11
29.7222
 21
7.04453
  0
LINE
  8
0
 10
29.7222
 20
7.04453
 11
29.733
 21
6.9915
  0
LINE
  8
0
 10
29.733
 20
6.9915
 11
29.7429
 21
6.93831
  0
LINE
  8
0
 10
29.7429
 20
6.93831
 11
29.7518
 21
6.88493
  0
LINE
  8
0
 10
29.7518
 20
6.88493
 11
29.7598
 21
6.83144
  0
LINE
  8
0
 10
29.7598
 20
6.83144
 11
29.7669
 21
6.77779
  0
LINE
  8
0
 10
29.7669
 20
6.77779
 11
29.773
 21
6.72403
  0
LINE
  8
0
 10
29.773
 20
6.72403
 11
29.7782
 21
6.67018
  0
LINE
  8
0
 10
29.7782
 20
6.67018
 11
29.7824
 21
6.61624
  0
LINE
  8
0
 10
29.7824
 20
6.61624
 11
29.7858
 21
6.56224
  0
LINE
  8
0
 10
29.7858
 20
6.56224
 11
29.7881
 21
6.50818
  0
LINE
  8
0
 10
29.7881
 20
6.50818
 11
29.7895
 21
6.4541
  0
LINE
  8
0
 10
29.7895
 20
6.4541
 11
29.79
 21
6.39999
  0
LINE
  8
0
 10
29.79
 20
6.39999
 11
29.7895
 21
6.34589
  0
LINE
  8
0
 10
29.7895
 20
6.34589
 11
29.7881
 21
6.29181
  0
LINE
  8
0
 10
29.7881
 20
6.29181
 11
29.7858
 21
6.23775
  0
LINE
  8
0
 10
29.7858
 20
6.23775
 11
29.7824
 21
6.18375
  0
LINE
  8
0
 10
29.7824
 20
6.18375
 11
29.7782
 21
6.12981
  0
LINE
  8
0
 10
29.7782
 20
6.12981
 11
29.773
 21
6.07596
  0
LINE
  8
0
 10
29.773
 20
6.07596
 11
29.7669
 21
6.0222
  0
LINE
  8
0
 10
29.7669
 20
6.0222
 11
29.7598
 21
5.96855
  0
LINE
  8
0
 10
29.7598
 20
5.96855
 11
29.7518
 21
5.91504
  0
LINE
  8
0
 10
29.7518
 20
5.91504
 11
29.7429
 21
5.86168
  0
LINE
  8
0
 10
29.7429
 20
5.86168
 11
29.733
 21
5.80849
  0
LINE
  8
0
 10
29.733
 20
5.80849
 11
29.7222
 21
5.75546
  0
LINE
  8
0
 10
29.7222
 20
5.75546
 11
29.7105
 21
5.70264
  0
LINE
  8
0
 10
29.7105
 20
5.70264
 11
29.6979
 21
5.65004
  0
LINE
  8
0
 10
29.6979
 20
5.65004
 11
29.6844
 21
5.59766
  0
LINE
  8
0
 10
29.6844
 20
5.59766
 11
29.6699
 21
5.54552
  0
LINE
  8
0
 10
29.6699
 20
5.54552
 11
29.6545
 21
5.49364
  0
LINE
  8
0
 10
29.6545
 20
5.49364
 11
29.6383
 21
5.44205
  0
LINE
  8
0
 10
29.6383
 20
5.44205
 11
29.6211
 21
5.39073
  0
LINE
  8
0
 10
29.6211
 20
5.39073
 11
29.603
 21
5.33974
  0
LINE
  8
0
 10
29.603
 20
5.33974
 11
29.5841
 21
5.28905
  0
LINE
  8
0
 10
29.5841
 20
5.28905
 11
29.5643
 21
5.23871
  0
LINE
  8
0
 10
29.5643
 20
5.23871
 11
29.5436
 21
5.18872
  0
LINE
  8
0
 10
29.5436
 20
5.18872
 11
29.522
 21
5.13911
  0
LINE
  8
0
 10
29.522
 20
5.13911
 11
29.4995
 21
5.08987
  0
LINE
  8
0
 10
29.4995
 20
5.08987
 11
29.4763
 21
5.04105
  0
LINE
  8
0
 10
29.4763
 20
5.04105
 11
29.4521
 21
4.99261
  0
LINE
  8
0
 10
29.4521
 20
4.99261
 11
29.4271
 21
4.94463
  0
LINE
  8
0
 10
29.4271
 20
4.94463
 11
29.4013
 21
4.89708
  0
LINE
  8
0
 10
29.4013
 20
4.89708
 11
29.3747
 21
4.84999
  0
LINE
  8
0
 10
29.3747
 20
4.84999
 11
29.3472
 21
4.80338
  0
LINE
  8
0
 10
29.3472
 20
4.80338
 11
29.3189
 21
4.75725
  0
LINE
  8
0
 10
29.3189
 20
4.75725
 11
29.2899
 21
4.71161
  0
LINE
  8
0
 10
29.2899
 20
4.71161
 11
29.26
 21
4.66649
  0
LINE
  8
0
 10
29.26
 20
4.66649
 11
29.2294
 21
4.6219
  0
LINE
  8
0
 10
29.2294
 20
4.6219
 11
29.198
 21
4.57787
  0
LINE
  8
0
 10
29.198
 20
4.57787
 11
29.1658
 21
4.53436
  0
LINE
  8
0
 10
29.1658
 20
4.53436
 11
29.1328
 21
4.49144
  0
LINE
  8
0
 10
29.1328
 20
4.49144
 11
29.0992
 21
4.4491
  0
LINE
  8
0
 10
29.0992
 20
4.4491
 11
29.0647
 21
4.40735
  0
LINE
  8
0
 10
29.0647
 20
4.40735
 11
29.0296
 21
4.36621
  0
LINE
  8
0
 10
29.0296
 20
4.36621
 11
28.9937
 21
4.32568
  0
LINE
  8
0
 10
28.9937
 20
4.32568
 11
28.9572
 21
4.2858
  0
LINE
  8
0
 10
28.9572
 20
4.2858
 11
28.92
 21
4.24655
  0
LINE
  8
0
 10
28.92
 20
4.24655
 11
28.882
 21
4.20796
  0
LINE
  8
0
 10
28.882
 20
4.20796
 11
28.8434
 21
4.17004
  0
LINE
  8
0
 10
28.8434
 20
4.17004
 11
28.8042
 21
4.1328
  0
LINE
  8
0
 10
28.8042
 20
4.1328
 11
28.7643
 21
4.09624
  0
LINE
  8
0
 10
28.7643
 20
4.09624
 11
28.7238
 21
4.06039
  0
LINE
  8
0
 10
28.7238
 20
4.06039
 11
28.6826
 21
4.02525
  0
LINE
  8
0
 10
28.6826
 20
4.02525
 11
28.6409
 21
3.99084
  0
LINE
  8
0
 10
28.6409
 20
3.99084
 11
28.5985
 21
3.95715
  0
LINE
  8
0
 10
28.5985
 20
3.95715
 11
28.5556
 21
3.92422
  0
LINE
  8
0
 10
28.5556
 20
3.92422
 11
28.5121
 21
3.89204
  0
LINE
  8
0
 10
28.5121
 20
3.89204
 11
28.4681
 21
3.86063
  0
LINE
  8
0
 10
28.4681
 20
3.86063
 11
28.4235
 21
3.82997
  0
LINE
  8
0
 10
28.4235
 20
3.82997
 11
28.3784
 21
3.80011
  0
LINE
  8
0
 10
28.3784
 20
3.80011
 11
28.3327
 21
3.77104
  0
LINE
  8
0
 10
28.3327
 20
3.77104
 11
28.2866
 21
3.74277
  0
LINE
  8
0
 10
28.2866
 20
3.74277
 11
28.24
 21
3.71532
  0
LINE
  8
0
 10
28.24
 20
3.71532
 11
28.1929
 21
3.68867
  0
LINE
  8
0
 10
28.1929
 20
3.68867
 11
28.1454
 21
3.66286
  0
LINE
  8
0
 10
28.1454
 20
3.66286
 11
28.0974
 21
3.63788
  0
LINE
  8
0
 10
28.0974
 20
3.63788
 11
28.049
 21
3.61372
  0
LINE
  8
0
 10
28.049
 20
3.61372
 11
28.0001
 21
3.59044
  0
LINE
  8
0
 10
28.0001
 20
3.59044
 11
27.9509
 21
3.56801
  0
LINE
  8
0
 10
27.9509
 20
3.56801
 11
27.9013
 21
3.54643
  0
LINE
  8
0
 10
27.9013
 20
3.54643
 11
27.8513
 21
3.52573
  0
LINE
  8
0
 10
27.8513
 20
3.52573
 11
27.8009
 21
3.50589
  0
LINE
  8
0
 10
27.8009
 20
3.50589
 11
27.7503
 21
3.48694
  0
LINE
  8
0
 10
27.7503
 20
3.48694
 11
27.6992
 21
3.46889
  0
LINE
  8
0
 10
27.6992
 20
3.46889
 11
27.6479
 21
3.45172
  0
LINE
  8
0
 10
27.6479
 20
3.45172
 11
27.5963
 21
3.43544
  0
LINE
  8
0
 10
27.5963
 20
3.43544
 11
27.5445
 21
3.42007
  0
LINE
  8
0
 10
27.5445
 20
3.42007
 11
27.4923
 21
3.40562
  0
LINE
  8
0
 10
27.4923
 20
3.40562
 11
27.44
 21
3.39207
  0
LINE
  8
0
 10
27.44
 20
3.39207
 11
27.3873
 21
3.37944
  0
LINE
  8
0
 10
27.3873
 20
3.37944
 11
27.3345
 21
3.36774
  0
LINE
  8
0
 10
27.3345
 20
3.36774
 11
27.2815
 21
3.35695
  0
LINE
  8
0
 10
27.2815
 20
3.35695
 11
27.2283
 21
3.34709
  0
LINE
  8
0
 10
27.2283
 20
3.34709
 11
27.1749
 21
3.33817
  0
LINE
  8
0
 10
27.1749
 20
3.33817
 11
27.1214
 21
3.33015
  0
LINE
  8
0
 10
27.1214
 20
3.33015
 11
27.0678
 21
3.3231
  0
LINE
  8
0
 10
27.0678
 20
3.3231
 11
27.014
 21
3.31697
  0
LINE
  8
0
 10
27.014
 20
3.31697
 11
26.9602
 21
3.31178
  0
LINE
  8
0
 10
26.9602
 20
3.31178
 11
26.9062
 21
3.30754
  0
LINE
  8
0
 10
26.9062
 20
3.30754
 11
26.8522
 21
3.30424
  0
LINE
  8
0
 10
26.8522
 20
3.30424
 11
26.7982
 21
3.30188
  0
LINE
  8
0
 10
26.7982
 20
3.30188
 11
26.7441
 21
3.30046
  0
LINE
  8
0
 10
26.7441
 20
3.30046
 11
26.69
 21
3.29999
  0
LINE
  8
0
 10
26.69
 20
3.29999
 11
26.6359
 21
3.30046
  0
ENDSEC
  0
SECTION
  2
OBJECTS
  0
DICTIONARY
  0
ENDSEC
  0
EOF
