  0
SECTION
  2
BLOCKS
  0
ENDSEC
  0
SECTION
  2
ENTITIES
  0
LINE
  8
0
 10
-27.1
 20
-0.5
 11
-19.9
 21
-0.5
  0
LINE
  8
0
 10
-19.9
 20
-0.5
 11
-19.9
 21
-3.5
  0
LINE
  8
0
 10
-19.9
 20
-3.5
 11
-13.1
 21
-3.5
  0
LINE
  8
0
 10
-13.1
 20
-3.5
 11
-13.1
 21
-0.5
  0
LINE
  8
0
 10
-13.1
 20
-0.5
 11
-5.89999
 21
-0.5
  0
LINE
  8
0
 10
-5.89999
 20
-0.5
 11
-5.89999
 21
-3.5
  0
LINE
  8
0
 10
-5.89999
 20
-3.5
 11
0.899994
 21
-3.5
  0
LINE
  8
0
 10
0.899994
 20
-3.5
 11
0.899994
 21
-0.5
  0
LINE
  8
0
 10
0.899994
 20
-0.5
 11
8
 21
-0.5
  0
LINE
  8
0
 10
8
 20
-0.5
 11
8
 21
4.86363
  0
LINE
  8
0
 10
8
 20
4.86363
 11
11
 21
4.86363
  0
LINE
  8
0
 10
11
 20
4.86363
 11
11
 21
12.6818
  0
LINE
  8
0
 10
11
 20
12.6818
 11
8
 21
12.6818
  0
LINE
  8
0
 10
8
 20
12.6818
 11
8
 21
21.5909
  0
LINE
  8
0
 10
8
 20
21.5909
 11
11
 21
21.5909
  0
LINE
  8
0
 10
11
 20
21.5909
 11
11
 21
29.4091
  0
LINE
  8
0
 10
11
 20
29.4091
 11
8
 21
29.4091
  0
LINE
  8
0
 10
8
 20
29.4091
 11
8
 21
38.3182
  0
LINE
  8
0
 10
8
 20
38.3182
 11
11
 21
38.3182
  0
LINE
  8
0
 10
11
 20
38.3182
 11
11
 21
46.1364
  0
LINE
  8
0
 10
11
 20
46.1364
 11
8
 21
46.1364
  0
LINE
  8
0
 10
8
 20
46.1364
 11
8
 21
55.0455
  0
LINE
  8
0
 10
8
 20
55.0455
 11
11
 21
55.0455
  0
LINE
  8
0
 10
11
 20
55.0455
 11
11
 21
62.8636
  0
LINE
  8
0
 10
11
 20
62.8636
 11
8
 21
62.8636
  0
LINE
  8
0
 10
8
 20
62.8636
 11
8
 21
71.7727
  0
LINE
  8
0
 10
8
 20
71.7727
 11
11
 21
71.7727
  0
LINE
  8
0
 10
11
 20
71.7727
 11
11
 21
79.5909
  0
LINE
  8
0
 10
11
 20
79.5909
 11
8
 21
79.5909
  0
LINE
  8
0
 10
8
 20
79.5909
 11
8
 21
85.5
  0
LINE
  8
0
 10
8
 20
85.5
 11
0.899994
 21
85.5
  0
LINE
  8
0
 10
0.899994
 20
85.5
 11
0.899994
 21
88.5
  0
LINE
  8
0
 10
0.899994
 20
88.5
 11
-5.89999
 21
88.5
  0
LINE
  8
0
 10
-5.89999
 20
88.5
 11
-5.89999
 21
85.5
  0
LINE
  8
0
 10
-5.89999
 20
85.5
 11
-13.1
 21
85.5
  0
LINE
  8
0
 10
-13.1
 20
85.5
 11
-13.1
 21
88.5
  0
LINE
  8
0
 10
-13.1
 20
88.5
 11
-19.9
 21
88.5
  0
LINE
  8
0
 10
-19.9
 20
88.5
 11
-19.9
 21
85.5
  0
LINE
  8
0
 10
-19.9
 20
85.5
 11
-27.1
 21
85.5
  0
LINE
  8
0
 10
-27.1
 20
85.5
 11
-27.1
 21
88.5
  0
LINE
  8
0
 10
-27.1
 20
88.5
 11
-33.9
 21
88.5
  0
LINE
  8
0
 10
-33.9
 20
88.5
 11
-33.9
 21
85.5
  0
LINE
  8
0
 10
-33.9
 20
85.5
 11
-34
 21
85.5
  0
LINE
  8
0
 10
-34
 20
85.5
 11
-34
 21
79.5909
  0
LINE
  8
0
 10
-34
 20
79.5909
 11
-37
 21
79.5909
  0
LINE
  8
0
 10
-37
 20
79.5909
 11
-37
 21
71.7727
  0
LINE
  8
0
 10
-37
 20
71.7727
 11
-34
 21
71.7727
  0
LINE
  8
0
 10
-34
 20
71.7727
 11
-34
 21
62.8636
  0
LINE
  8
0
 10
-34
 20
62.8636
 11
-37
 21
62.8636
  0
LINE
  8
0
 10
-37
 20
62.8636
 11
-37
 21
55.0455
  0
LINE
  8
0
 10
-37
 20
55.0455
 11
-34
 21
55.0455
  0
LINE
  8
0
 10
-34
 20
55.0455
 11
-34
 21
46.1364
  0
LINE
  8
0
 10
-34
 20
46.1364
 11
-37
 21
46.1364
  0
LINE
  8
0
 10
-37
 20
46.1364
 11
-37
 21
38.3182
  0
LINE
  8
0
 10
-37
 20
38.3182
 11
-34
 21
38.3182
  0
LINE
  8
0
 10
-34
 20
38.3182
 11
-34
 21
29.4091
  0
LINE
  8
0
 10
-34
 20
29.4091
 11
-37
 21
29.4091
  0
LINE
  8
0
 10
-37
 20
29.4091
 11
-37
 21
21.5909
  0
LINE
  8
0
 10
-37
 20
21.5909
 11
-34
 21
21.5909
  0
LINE
  8
0
 10
-34
 20
21.5909
 11
-34
 21
12.6818
  0
LINE
  8
0
 10
-34
 20
12.6818
 11
-37
 21
12.6818
  0
LINE
  8
0
 10
-37
 20
12.6818
 11
-37
 21
4.86363
  0
LINE
  8
0
 10
-37
 20
4.86363
 11
-34
 21
4.86363
  0
LINE
  8
0
 10
-34
 20
4.86363
 11
-34
 21
-0.5
  0
LINE
  8
0
 10
-34
 20
-0.5
 11
-33.9
 21
-0.5
  0
LINE
  8
0
 10
-33.9
 20
-0.5
 11
-33.9
 21
-3.5
  0
LINE
  8
0
 10
-33.9
 20
-3.5
 11
-27.1
 21
-3.5
  0
LINE
  8
0
 10
-27.1
 20
-3.5
 11
-27.1
 21
-0.5
  0
LINE
  8
0
 10
-10.1134
 20
53.501
 11
-10.2268
 21
53.504
  0
LINE
  8
0
 10
-10.2268
 20
53.504
 11
-10.3402
 21
53.5089
  0
LINE
  8
0
 10
-10.3402
 20
53.5089
 11
-10.4534
 21
53.5158
  0
LINE
  8
0
 10
-10.4534
 20
53.5158
 11
-10.5665
 21
53.5247
  0
LINE
  8
0
 10
-10.5665
 20
53.5247
 11
-10.6794
 21
53.5356
  0
LINE
  8
0
 10
-10.6794
 20
53.5356
 11
-10.7921
 21
53.5484
  0
LINE
  8
0
 10
-10.7921
 20
53.5484
 11
-10.9046
 21
53.5632
  0
LINE
  8
0
 10
-10.9046
 20
53.5632
 11
-11.0168
 21
53.58
  0
LINE
  8
0
 10
-11.0168
 20
53.58
 11
-11.1287
 21
53.5987
  0
LINE
  8
0
 10
-11.1287
 20
53.5987
 11
-11.2402
 21
53.6194
  0
LINE
  8
0
 10
-11.2402
 20
53.6194
 11
-11.3514
 21
53.642
  0
LINE
  8
0
 10
-11.3514
 20
53.642
 11
-11.4622
 21
53.6666
  0
LINE
  8
0
 10
-11.4622
 20
53.6666
 11
-11.5725
 21
53.6931
  0
LINE
  8
0
 10
-11.5725
 20
53.6931
 11
-11.6823
 21
53.7215
  0
LINE
  8
0
 10
-11.6823
 20
53.7215
 11
-11.7916
 21
53.7518
  0
LINE
  8
0
 10
-11.7916
 20
53.7518
 11
-11.9004
 21
53.784
  0
LINE
  8
0
 10
-11.9004
 20
53.784
 11
-12.0086
 21
53.8181
  0
LINE
  8
0
 10
-12.0086
 20
53.8181
 11
-12.1162
 21
53.8541
  0
LINE
  8
0
 10
-12.1162
 20
53.8541
 11
-12.2231
 21
53.892
  0
LINE
  8
0
 10
-12.2231
 20
53.892
 11
-12.3294
 21
53.9317
  0
LINE
  8
0
 10
-12.3294
 20
53.9317
 11
-12.4349
 21
53.9733
  0
LINE
  8
0
 10
-12.4349
 20
53.9733
 11
-12.5397
 21
54.0167
  0
LINE
  8
0
 10
-12.5397
 20
54.0167
 11
-12.6438
 21
54.062
  0
LINE
  8
0
 10
-12.6438
 20
54.062
 11
-12.747
 21
54.109
  0
LINE
  8
0
 10
-12.747
 20
54.109
 11
-12.8494
 21
54.1578
  0
LINE
  8
0
 10
-12.8494
 20
54.1578
 11
-12.9509
 21
54.2085
  0
LINE
  8
0
 10
-12.9509
 20
54.2085
 11
-13.0516
 21
54.2608
  0
LINE
  8
0
 10
-13.0516
 20
54.2608
 11
-13.1513
 21
54.315
  0
LINE
  8
0
 10
-13.1513
 20
54.315
 11
-13.25
 21
54.3708
  0
LINE
  8
0
 10
-13.25
 20
54.3708
 11
-13.3477
 21
54.4284
  0
LINE
  8
0
 10
-13.3477
 20
54.4284
 11
-13.4445
 21
54.4877
  0
LINE
  8
0
 10
-13.4445
 20
54.4877
 11
-13.5401
 21
54.5486
  0
LINE
  8
0
 10
-13.5401
 20
54.5486
 11
-13.6348
 21
54.6113
  0
LINE
  8
0
 10
-13.6348
 20
54.6113
 11
-13.7282
 21
54.6755
  0
LINE
  8
0
 10
-13.7282
 20
54.6755
 11
-13.8206
 21
54.7414
  0
LINE
  8
0
 10
-13.8206
 20
54.7414
 11
-13.9118
 21
54.8089
  0
LINE
  8
0
 10
-13.9118
 20
54.8089
 11
-14.0018
 21
54.8779
  0
LINE
  8
0
 10
-14.0018
 20
54.8779
 11
-14.0906
 21
54.9485
  0
LINE
  8
0
 10
-14.0906
 20
54.9485
 11
-14.1781
 21
55.0207
  0
LINE
  8
0
 10
-14.1781
 20
55.0207
 11
-14.2644
 21
55.0944
  0
LINE
  8
0
 10
-14.2644
 20
55.0944
 11
-14.3493
 21
55.1696
  0
LINE
  8
0
 10
-14.3493
 20
55.1696
 11
-14.433
 21
55.2462
  0
LINE
  8
0
 10
-14.433
 20
55.2462
 11
-14.5153
 21
55.3243
  0
LINE
  8
0
 10
-14.5153
 20
55.3243
 11
-14.5962
 21
55.4038
  0
LINE
  8
0
 10
-14.5962
 20
55.4038
 11
-14.6757
 21
55.4847
  0
LINE
  8
0
 10
-14.6757
 20
55.4847
 11
-14.7538
 21
55.567
  0
LINE
  8
0
 10
-14.7538
 20
55.567
 11
-14.8304
 21
55.6507
  0
LINE
  8
0
 10
-14.8304
 20
55.6507
 11
-14.9056
 21
55.7356
  0
LINE
  8
0
 10
-14.9056
 20
55.7356
 11
-14.9793
 21
55.8219
  0
LINE
  8
0
 10
-14.9793
 20
55.8219
 11
-15.0514
 21
55.9094
  0
LINE
  8
0
 10
-15.0514
 20
55.9094
 11
-15.1221
 21
55.9982
  0
LINE
  8
0
 10
-15.1221
 20
55.9982
 11
-15.1911
 21
56.0882
  0
LINE
  8
0
 10
-15.1911
 20
56.0882
 11
-15.2586
 21
56.1794
  0
LINE
  8
0
 10
-15.2586
 20
56.1794
 11
-15.3245
 21
56.2717
  0
LINE
  8
0
 10
-15.3245
 20
56.2717
 11
-15.3887
 21
56.3652
  0
LINE
  8
0
 10
-15.3887
 20
56.3652
 11
-15.4514
 21
56.4598
  0
LINE
  8
0
 10
-15.4514
 20
56.4598
 11
-15.5123
 21
56.5555
  0
LINE
  8
0
 10
-15.5123
 20
56.5555
 11
-15.5716
 21
56.6523
  0
LINE
  8
0
 10
-15.5716
 20
56.6523
 11
-15.6292
 21
56.75
  0
LINE
  8
0
 10
-15.6292
 20
56.75
 11
-15.685
 21
56.8487
  0
LINE
  8
0
 10
-15.685
 20
56.8487
 11
-15.7392
 21
56.9484
  0
LINE
  8
0
 10
-15.7392
 20
56.9484
 11
-15.7915
 21
57.0491
  0
LINE
  8
0
 10
-15.7915
 20
57.0491
 11
-15.8421
 21
57.1506
  0
LINE
  8
0
 10
-15.8421
 20
57.1506
 11
-15.891
 21
57.253
  0
LINE
  8
0
 10
-15.891
 20
57.253
 11
-15.938
 21
57.3562
  0
LINE
  8
0
 10
-15.938
 20
57.3562
 11
-15.9833
 21
57.4602
  0
LINE
  8
0
 10
-15.9833
 20
57.4602
 11
-16.0267
 21
57.565
  0
LINE
  8
0
 10
-16.0267
 20
57.565
 11
-16.0683
 21
57.6706
  0
LINE
  8
0
 10
-16.0683
 20
57.6706
 11
-16.108
 21
57.7769
  0
LINE
  8
0
 10
-16.108
 20
57.7769
 11
-16.1459
 21
57.8838
  0
LINE
  8
0
 10
-16.1459
 20
57.8838
 11
-16.1819
 21
57.9914
  0
LINE
  8
0
 10
-16.1819
 20
57.9914
 11
-16.216
 21
58.0996
  0
LINE
  8
0
 10
-16.216
 20
58.0996
 11
-16.2482
 21
58.2084
  0
LINE
  8
0
 10
-16.2482
 20
58.2084
 11
-16.2785
 21
58.3177
  0
LINE
  8
0
 10
-16.2785
 20
58.3177
 11
-16.3069
 21
58.4275
  0
LINE
  8
0
 10
-16.3069
 20
58.4275
 11
-16.3334
 21
58.5378
  0
LINE
  8
0
 10
-16.3334
 20
58.5378
 11
-16.358
 21
58.6486
  0
LINE
  8
0
 10
-16.358
 20
58.6486
 11
-16.3806
 21
58.7597
  0
LINE
  8
0
 10
-16.3806
 20
58.7597
 11
-16.4012
 21
58.8713
  0
LINE
  8
0
 10
-16.4012
 20
58.8713
 11
-16.42
 21
58.9832
  0
LINE
  8
0
 10
-16.42
 20
58.9832
 11
-16.4367
 21
59.0954
  0
LINE
  8
0
 10
-16.4367
 20
59.0954
 11
-16.4515
 21
59.2078
  0
LINE
  8
0
 10
-16.4515
 20
59.2078
 11
-16.4644
 21
59.3206
  0
LINE
  8
0
 10
-16.4644
 20
59.3206
 11
-16.4753
 21
59.4335
  0
LINE
  8
0
 10
-16.4753
 20
59.4335
 11
-16.4842
 21
59.5466
  0
LINE
  8
0
 10
-16.4842
 20
59.5466
 11
-16.4911
 21
59.6598
  0
LINE
  8
0
 10
-16.4911
 20
59.6598
 11
-16.496
 21
59.7731
  0
LINE
  8
0
 10
-16.496
 20
59.7731
 11
-16.499
 21
59.8866
  0
LINE
  8
0
 10
-16.499
 20
59.8866
 11
-16.5
 21
60
  0
LINE
  8
0
 10
-16.5
 20
60
 11
-16.499
 21
60.1134
  0
LINE
  8
0
 10
-16.499
 20
60.1134
 11
-16.496
 21
60.2268
  0
LINE
  8
0
 10
-16.496
 20
60.2268
 11
-16.4911
 21
60.3402
  0
LINE
  8
0
 10
-16.4911
 20
60.3402
 11
-16.4842
 21
60.4534
  0
LINE
  8
0
 10
-16.4842
 20
60.4534
 11
-16.4753
 21
60.5665
  0
LINE
  8
0
 10
-16.4753
 20
60.5665
 11
-16.4644
 21
60.6794
  0
LINE
  8
0
 10
-16.4644
 20
60.6794
 11
-16.4515
 21
60.7921
  0
LINE
  8
0
 10
-16.4515
 20
60.7921
 11
-16.4367
 21
60.9046
  0
LINE
  8
0
 10
-16.4367
 20
60.9046
 11
-16.42
 21
61.0168
  0
LINE
  8
0
 10
-16.42
 20
61.0168
 11
-16.4012
 21
61.1287
  0
LINE
  8
0
 10
-16.4012
 20
61.1287
 11
-16.3806
 21
61.2402
  0
LINE
  8
0
 10
-16.3806
 20
61.2402
 11
-16.358
 21
61.3514
  0
LINE
  8
0
 10
-16.358
 20
61.3514
 11
-16.3334
 21
61.4622
  0
LINE
  8
0
 10
-16.3334
 20
61.4622
 11
-16.3069
 21
61.5725
  0
LINE
  8
0
 10
-16.3069
 20
61.5725
 11
-16.2785
 21
61.6823
  0
LINE
  8
0
 10
-16.2785
 20
61.6823
 11
-16.2482
 21
61.7916
  0
LINE
  8
0
 10
-16.2482
 20
61.7916
 11
-16.216
 21
61.9004
  0
LINE
  8
0
 10
-16.216
 20
61.9004
 11
-16.1819
 21
62.0086
  0
LINE
  8
0
 10
-16.1819
 20
62.0086
 11
-16.1459
 21
62.1162
  0
LINE
  8
0
 10
-16.1459
 20
62.1162
 11
-16.108
 21
62.2231
  0
LINE
  8
0
 10
-16.108
 20
62.2231
 11
-16.0683
 21
62.3294
  0
LINE
  8
0
 10
-16.0683
 20
62.3294
 11
-16.0267
 21
62.4349
  0
LINE
  8
0
 10
-16.0267
 20
62.4349
 11
-15.9833
 21
62.5397
  0
LINE
  8
0
 10
-15.9833
 20
62.5397
 11
-15.938
 21
62.6438
  0
LINE
  8
0
 10
-15.938
 20
62.6438
 11
-15.891
 21
62.747
  0
LINE
  8
0
 10
-15.891
 20
62.747
 11
-15.8421
 21
62.8494
  0
LINE
  8
0
 10
-15.8421
 20
62.8494
 11
-15.7915
 21
62.9509
  0
LINE
  8
0
 10
-15.7915
 20
62.9509
 11
-15.7392
 21
63.0516
  0
LINE
  8
0
 10
-15.7392
 20
63.0516
 11
-15.685
 21
63.1513
  0
LINE
  8
0
 10
-15.685
 20
63.1513
 11
-15.6292
 21
63.25
  0
LINE
  8
0
 10
-15.6292
 20
63.25
 11
-15.5716
 21
63.3477
  0
LINE
  8
0
 10
-15.5716
 20
63.3477
 11
-15.5123
 21
63.4445
  0
LINE
  8
0
 10
-15.5123
 20
63.4445
 11
-15.4514
 21
63.5401
  0
LINE
  8
0
 10
-15.4514
 20
63.5401
 11
-15.3887
 21
63.6348
  0
LINE
  8
0
 10
-15.3887
 20
63.6348
 11
-15.3245
 21
63.7282
  0
LINE
  8
0
 10
-15.3245
 20
63.7282
 11
-15.2586
 21
63.8206
  0
LINE
  8
0
 10
-15.2586
 20
63.8206
 11
-15.1911
 21
63.9118
  0
LINE
  8
0
 10
-15.1911
 20
63.9118
 11
-15.1221
 21
64.0018
  0
LINE
  8
0
 10
-15.1221
 20
64.0018
 11
-15.0514
 21
64.0906
  0
LINE
  8
0
 10
-15.0514
 20
64.0906
 11
-14.9793
 21
64.1781
  0
LINE
  8
0
 10
-14.9793
 20
64.1781
 11
-14.9056
 21
64.2644
  0
LINE
  8
0
 10
-14.9056
 20
64.2644
 11
-14.8304
 21
64.3493
  0
LINE
  8
0
 10
-14.8304
 20
64.3493
 11
-14.7538
 21
64.433
  0
LINE
  8
0
 10
-14.7538
 20
64.433
 11
-14.6757
 21
64.5153
  0
LINE
  8
0
 10
-14.6757
 20
64.5153
 11
-14.5962
 21
64.5962
  0
LINE
  8
0
 10
-14.5962
 20
64.5962
 11
-14.5153
 21
64.6757
  0
LINE
  8
0
 10
-14.5153
 20
64.6757
 11
-14.433
 21
64.7538
  0
LINE
  8
0
 10
-14.433
 20
64.7538
 11
-14.3493
 21
64.8304
  0
LINE
  8
0
 10
-14.3493
 20
64.8304
 11
-14.2644
 21
64.9056
  0
LINE
  8
0
 10
-14.2644
 20
64.9056
 11
-14.1781
 21
64.9793
  0
LINE
  8
0
 10
-14.1781
 20
64.9793
 11
-14.0906
 21
65.0514
  0
LINE
  8
0
 10
-14.0906
 20
65.0514
 11
-14.0018
 21
65.1221
  0
LINE
  8
0
 10
-14.0018
 20
65.1221
 11
-13.9118
 21
65.1911
  0
LINE
  8
0
 10
-13.9118
 20
65.1911
 11
-13.8206
 21
65.2586
  0
LINE
  8
0
 10
-13.8206
 20
65.2586
 11
-13.7282
 21
65.3245
  0
LINE
  8
0
 10
-13.7282
 20
65.3245
 11
-13.6348
 21
65.3887
  0
LINE
  8
0
 10
-13.6348
 20
65.3887
 11
-13.5401
 21
65.4514
  0
LINE
  8
0
 10
-13.5401
 20
65.4514
 11
-13.4445
 21
65.5123
  0
LINE
  8
0
 10
-13.4445
 20
65.5123
 11
-13.3477
 21
65.5716
  0
LINE
  8
0
 10
-13.3477
 20
65.5716
 11
-13.25
 21
65.6292
  0
LINE
  8
0
 10
-13.25
 20
65.6292
 11
-13.1513
 21
65.685
  0
LINE
  8
0
 10
-13.1513
 20
65.685
 11
-13.0516
 21
65.7392
  0
LINE
  8
0
 10
-13.0516
 20
65.7392
 11
-12.9509
 21
65.7915
  0
LINE
  8
0
 10
-12.9509
 20
65.7915
 11
-12.8494
 21
65.8422
  0
LINE
  8
0
 10
-12.8494
 20
65.8422
 11
-12.747
 21
65.891
  0
LINE
  8
0
 10
-12.747
 20
65.891
 11
-12.6438
 21
65.938
  0
LINE
  8
0
 10
-12.6438
 20
65.938
 11
-12.5397
 21
65.9833
  0
LINE
  8
0
 10
-12.5397
 20
65.9833
 11
-12.4349
 21
66.0267
  0
LINE
  8
0
 10
-12.4349
 20
66.0267
 11
-12.3294
 21
66.0683
  0
LINE
  8
0
 10
-12.3294
 20
66.0683
 11
-12.2231
 21
66.108
  0
LINE
  8
0
 10
-12.2231
 20
66.108
 11
-12.1162
 21
66.1459
  0
LINE
  8
0
 10
-12.1162
 20
66.1459
 11
-12.0086
 21
66.1819
  0
LINE
  8
0
 10
-12.0086
 20
66.1819
 11
-11.9004
 21
66.216
  0
LINE
  8
0
 10
-11.9004
 20
66.216
 11
-11.7916
 21
66.2482
  0
LINE
  8
0
 10
-11.7916
 20
66.2482
 11
-11.6823
 21
66.2785
  0
LINE
  8
0
 10
-11.6823
 20
66.2785
 11
-11.5725
 21
66.3069
  0
LINE
  8
0
 10
-11.5725
 20
66.3069
 11
-11.4622
 21
66.3334
  0
LINE
  8
0
 10
-11.4622
 20
66.3334
 11
-11.3514
 21
66.358
  0
LINE
  8
0
 10
-11.3514
 20
66.358
 11
-11.2402
 21
66.3806
  0
LINE
  8
0
 10
-11.2402
 20
66.3806
 11
-11.1287
 21
66.4012
  0
LINE
  8
0
 10
-11.1287
 20
66.4012
 11
-11.0168
 21
66.42
  0
LINE
  8
0
 10
-11.0168
 20
66.42
 11
-10.9046
 21
66.4367
  0
LINE
  8
0
 10
-10.9046
 20
66.4367
 11
-10.7921
 21
66.4516
  0
LINE
  8
0
 10
-10.7921
 20
66.4516
 11
-10.6794
 21
66.4644
  0
LINE
  8
0
 10
-10.6794
 20
66.4644
 11
-10.5665
 21
66.4753
  0
LINE
  8
0
 10
-10.5665
 20
66.4753
 11
-10.4534
 21
66.4842
  0
LINE
  8
0
 10
-10.4534
 20
66.4842
 11
-10.3402
 21
66.4911
  0
LINE
  8
0
 10
-10.3402
 20
66.4911
 11
-10.2268
 21
66.496
  0
LINE
  8
0
 10
-10.2268
 20
66.496
 11
-10.1134
 21
66.499
  0
LINE
  8
0
 10
-10.1134
 20
66.499
 11
-10
 21
66.5
  0
LINE
  8
0
 10
-10
 20
66.5
 11
-9.88655
 21
66.499
  0
LINE
  8
0
 10
-9.88655
 20
66.499
 11
-9.77315
 21
66.496
  0
LINE
  8
0
 10
-9.77315
 20
66.496
 11
-9.65981
 21
66.4911
  0
LINE
  8
0
 10
-9.65981
 20
66.4911
 11
-9.54657
 21
66.4842
  0
LINE
  8
0
 10
-9.54657
 20
66.4842
 11
-9.43349
 21
66.4753
  0
LINE
  8
0
 10
-9.43349
 20
66.4753
 11
-9.32056
 21
66.4644
  0
LINE
  8
0
 10
-9.32056
 20
66.4644
 11
-9.20784
 21
66.4516
  0
LINE
  8
0
 10
-9.20784
 20
66.4516
 11
-9.09537
 21
66.4367
  0
LINE
  8
0
 10
-9.09537
 20
66.4367
 11
-8.98317
 21
66.42
  0
LINE
  8
0
 10
-8.98317
 20
66.42
 11
-8.87128
 21
66.4012
  0
LINE
  8
0
 10
-8.87128
 20
66.4012
 11
-8.75974
 21
66.3806
  0
LINE
  8
0
 10
-8.75974
 20
66.3806
 11
-8.64856
 21
66.358
  0
LINE
  8
0
 10
-8.64856
 20
66.358
 11
-8.53781
 21
66.3334
  0
LINE
  8
0
 10
-8.53781
 20
66.3334
 11
-8.42751
 21
66.3069
  0
LINE
  8
0
 10
-8.42751
 20
66.3069
 11
-8.31767
 21
66.2785
  0
LINE
  8
0
 10
-8.31767
 20
66.2785
 11
-8.20834
 21
66.2482
  0
LINE
  8
0
 10
-8.20834
 20
66.2482
 11
-8.09958
 21
66.216
  0
LINE
  8
0
 10
-8.09958
 20
66.216
 11
-7.99138
 21
66.1819
  0
LINE
  8
0
 10
-7.99138
 20
66.1819
 11
-7.8838
 21
66.1459
  0
LINE
  8
0
 10
-7.8838
 20
66.1459
 11
-7.77686
 21
66.108
  0
LINE
  8
0
 10
-7.77686
 20
66.108
 11
-7.67059
 21
66.0683
  0
LINE
  8
0
 10
-7.67059
 20
66.0683
 11
-7.56505
 21
66.0267
  0
LINE
  8
0
 10
-7.56505
 20
66.0267
 11
-7.46024
 21
65.9833
  0
LINE
  8
0
 10
-7.46024
 20
65.9833
 11
-7.3562
 21
65.938
  0
LINE
  8
0
 10
-7.3562
 20
65.938
 11
-7.25298
 21
65.891
  0
LINE
  8
0
 10
-7.25298
 20
65.891
 11
-7.15057
 21
65.8422
  0
LINE
  8
0
 10
-7.15057
 20
65.8422
 11
-7.04906
 21
65.7915
  0
LINE
  8
0
 10
-7.04906
 20
65.7915
 11
-6.94843
 21
65.7392
  0
LINE
  8
0
 10
-6.94843
 20
65.7392
 11
-6.84872
 21
65.685
  0
LINE
  8
0
 10
-6.84872
 20
65.685
 11
-6.75
 21
65.6292
  0
LINE
  8
0
 10
-6.75
 20
65.6292
 11
-6.65225
 21
65.5716
  0
LINE
  8
0
 10
-6.65225
 20
65.5716
 11
-6.55551
 21
65.5123
  0
LINE
  8
0
 10
-6.55551
 20
65.5123
 11
-6.45984
 21
65.4514
  0
LINE
  8
0
 10
-6.45984
 20
65.4514
 11
-6.36523
 21
65.3887
  0
LINE
  8
0
 10
-6.36523
 20
65.3887
 11
-6.27174
 21
65.3245
  0
LINE
  8
0
 10
-6.27174
 20
65.3245
 11
-6.17938
 21
65.2586
  0
LINE
  8
0
 10
-6.17938
 20
65.2586
 11
-6.0882
 21
65.1911
  0
LINE
  8
0
 10
-6.0882
 20
65.1911
 11
-5.9982
 21
65.1221
  0
LINE
  8
0
 10
-5.9982
 20
65.1221
 11
-5.90941
 21
65.0514
  0
LINE
  8
0
 10
-5.90941
 20
65.0514
 11
-5.82187
 21
64.9793
  0
LINE
  8
0
 10
-5.82187
 20
64.9793
 11
-5.73561
 21
64.9056
  0
LINE
  8
0
 10
-5.73561
 20
64.9056
 11
-5.65065
 21
64.8304
  0
LINE
  8
0
 10
-5.65065
 20
64.8304
 11
-5.567
 21
64.7538
  0
LINE
  8
0
 10
-5.567
 20
64.7538
 11
-5.48471
 21
64.6757
  0
LINE
  8
0
 10
-5.48471
 20
64.6757
 11
-5.40379
 21
64.5962
  0
LINE
  8
0
 10
-5.40379
 20
64.5962
 11
-5.32428
 21
64.5153
  0
LINE
  8
0
 10
-5.32428
 20
64.5153
 11
-5.2462
 21
64.433
  0
LINE
  8
0
 10
-5.2462
 20
64.433
 11
-5.16956
 21
64.3493
  0
LINE
  8
0
 10
-5.16956
 20
64.3493
 11
-5.09438
 21
64.2644
  0
LINE
  8
0
 10
-5.09438
 20
64.2644
 11
-5.02071
 21
64.1781
  0
LINE
  8
0
 10
-5.02071
 20
64.1781
 11
-4.94855
 21
64.0906
  0
LINE
  8
0
 10
-4.94855
 20
64.0906
 11
-4.87793
 21
64.0018
  0
LINE
  8
0
 10
-4.87793
 20
64.0018
 11
-4.80887
 21
63.9118
  0
LINE
  8
0
 10
-4.80887
 20
63.9118
 11
-4.74138
 21
63.8206
  0
LINE
  8
0
 10
-4.74138
 20
63.8206
 11
-4.67551
 21
63.7282
  0
LINE
  8
0
 10
-4.67551
 20
63.7282
 11
-4.61125
 21
63.6348
  0
LINE
  8
0
 10
-4.61125
 20
63.6348
 11
-4.54863
 21
63.5401
  0
LINE
  8
0
 10
-4.54863
 20
63.5401
 11
-4.48769
 21
63.4445
  0
LINE
  8
0
 10
-4.48769
 20
63.4445
 11
-4.42841
 21
63.3477
  0
LINE
  8
0
 10
-4.42841
 20
63.3477
 11
-4.37083
 21
63.25
  0
LINE
  8
0
 10
-4.37083
 20
63.25
 11
-4.31496
 21
63.1513
  0
LINE
  8
0
 10
-4.31496
 20
63.1513
 11
-4.26083
 21
63.0516
  0
LINE
  8
0
 10
-4.26083
 20
63.0516
 11
-4.20845
 21
62.9509
  0
LINE
  8
0
 10
-4.20845
 20
62.9509
 11
-4.15784
 21
62.8494
  0
LINE
  8
0
 10
-4.15784
 20
62.8494
 11
-4.10899
 21
62.747
  0
LINE
  8
0
 10
-4.10899
 20
62.747
 11
-4.06195
 21
62.6438
  0
LINE
  8
0
 10
-4.06195
 20
62.6438
 11
-4.01671
 21
62.5397
  0
LINE
  8
0
 10
-4.01671
 20
62.5397
 11
-3.9733
 21
62.4349
  0
LINE
  8
0
 10
-3.9733
 20
62.4349
 11
-3.93172
 21
62.3294
  0
LINE
  8
0
 10
-3.93172
 20
62.3294
 11
-3.89198
 21
62.2231
  0
LINE
  8
0
 10
-3.89198
 20
62.2231
 11
-3.85413
 21
62.1162
  0
LINE
  8
0
 10
-3.85413
 20
62.1162
 11
-3.81813
 21
62.0086
  0
LINE
  8
0
 10
-3.81813
 20
62.0086
 11
-3.78401
 21
61.9004
  0
LINE
  8
0
 10
-3.78401
 20
61.9004
 11
-3.75179
 21
61.7916
  0
LINE
  8
0
 10
-3.75179
 20
61.7916
 11
-3.72148
 21
61.6823
  0
LINE
  8
0
 10
-3.72148
 20
61.6823
 11
-3.69307
 21
61.5725
  0
LINE
  8
0
 10
-3.69307
 20
61.5725
 11
-3.66658
 21
61.4622
  0
LINE
  8
0
 10
-3.66658
 20
61.4622
 11
-3.64203
 21
61.3514
  0
LINE
  8
0
 10
-3.64203
 20
61.3514
 11
-3.61942
 21
61.2402
  0
LINE
  8
0
 10
-3.61942
 20
61.2402
 11
-3.59874
 21
61.1287
  0
LINE
  8
0
 10
-3.59874
 20
61.1287
 11
-3.58002
 21
61.0168
  0
LINE
  8
0
 10
-3.58002
 20
61.0168
 11
-3.56325
 21
60.9046
  0
LINE
  8
0
 10
-3.56325
 20
60.9046
 11
-3.54845
 21
60.7921
  0
LINE
  8
0
 10
-3.54845
 20
60.7921
 11
-3.5356
 21
60.6794
  0
LINE
  8
0
 10
-3.5356
 20
60.6794
 11
-3.52472
 21
60.5665
  0
LINE
  8
0
 10
-3.52472
 20
60.5665
 11
-3.51582
 21
60.4534
  0
LINE
  8
0
 10
-3.51582
 20
60.4534
 11
-3.5089
 21
60.3402
  0
LINE
  8
0
 10
-3.5089
 20
60.3402
 11
-3.50395
 21
60.2268
  0
LINE
  8
0
 10
-3.50395
 20
60.2268
 11
-3.50098
 21
60.1134
  0
LINE
  8
0
 10
-3.50098
 20
60.1134
 11
-3.5
 21
60
  0
LINE
  8
0
 10
-3.5
 20
60
 11
-3.50098
 21
59.8866
  0
LINE
  8
0
 10
-3.50098
 20
59.8866
 11
-3.50395
 21
59.7731
  0
LINE
  8
0
 10
-3.50395
 20
59.7731
 11
-3.5089
 21
59.6598
  0
LINE
  8
0
 10
-3.5089
 20
59.6598
 11
-3.51582
 21
59.5466
  0
LINE
  8
0
 10
-3.51582
 20
59.5466
 11
-3.52472
 21
59.4335
  0
LINE
  8
0
 10
-3.52472
 20
59.4335
 11
-3.5356
 21
59.3206
  0
LINE
  8
0
 10
-3.5356
 20
59.3206
 11
-3.54845
 21
59.2078
  0
LINE
  8
0
 10
-3.54845
 20
59.2078
 11
-3.56325
 21
59.0954
  0
LINE
  8
0
 10
-3.56325
 20
59.0954
 11
-3.58002
 21
58.9832
  0
LINE
  8
0
 10
-3.58002
 20
58.9832
 11
-3.59874
 21
58.8713
  0
LINE
  8
0
 10
-3.59874
 20
58.8713
 11
-3.61942
 21
58.7597
  0
LINE
  8
0
 10
-3.61942
 20
58.7597
 11
-3.64203
 21
58.6486
  0
LINE
  8
0
 10
-3.64203
 20
58.6486
 11
-3.66658
 21
58.5378
  0
LINE
  8
0
 10
-3.66658
 20
58.5378
 11
-3.69307
 21
58.4275
  0
LINE
  8
0
 10
-3.69307
 20
58.4275
 11
-3.72148
 21
58.3177
  0
LINE
  8
0
 10
-3.72148
 20
58.3177
 11
-3.75179
 21
58.2084
  0
LINE
  8
0
 10
-3.75179
 20
58.2084
 11
-3.78401
 21
58.0996
  0
LINE
  8
0
 10
-3.78401
 20
58.0996
 11
-3.81813
 21
57.9914
  0
LINE
  8
0
 10
-3.81813
 20
57.9914
 11
-3.85413
 21
57.8838
  0
LINE
  8
0
 10
-3.85413
 20
57.8838
 11
-3.89198
 21
57.7769
  0
LINE
  8
0
 10
-3.89198
 20
57.7769
 11
-3.93172
 21
57.6706
  0
LINE
  8
0
 10
-3.93172
 20
57.6706
 11
-3.9733
 21
57.565
  0
LINE
  8
0
 10
-3.9733
 20
57.565
 11
-4.01671
 21
57.4602
  0
LINE
  8
0
 10
-4.01671
 20
57.4602
 11
-4.06195
 21
57.3562
  0
LINE
  8
0
 10
-4.06195
 20
57.3562
 11
-4.10899
 21
57.253
  0
LINE
  8
0
 10
-4.10899
 20
57.253
 11
-4.15784
 21
57.1506
  0
LINE
  8
0
 10
-4.15784
 20
57.1506
 11
-4.20845
 21
57.0491
  0
LINE
  8
0
 10
-4.20845
 20
57.0491
 11
-4.26083
 21
56.9484
  0
LINE
  8
0
 10
-4.26083
 20
56.9484
 11
-4.31496
 21
56.8487
  0
LINE
  8
0
 10
-4.31496
 20
56.8487
 11
-4.37083
 21
56.75
  0
LINE
  8
0
 10
-4.37083
 20
56.75
 11
-4.42841
 21
56.6523
  0
LINE
  8
0
 10
-4.42841
 20
56.6523
 11
-4.48769
 21
56.5555
  0
LINE
  8
0
 10
-4.48769
 20
56.5555
 11
-4.54863
 21
56.4598
  0
LINE
  8
0
 10
-4.54863
 20
56.4598
 11
-4.61125
 21
56.3652
  0
LINE
  8
0
 10
-4.61125
 20
56.3652
 11
-4.67551
 21
56.2717
  0
LINE
  8
0
 10
-4.67551
 20
56.2717
 11
-4.74138
 21
56.1794
  0
LINE
  8
0
 10
-4.74138
 20
56.1794
 11
-4.80887
 21
56.0882
  0
LINE
  8
0
 10
-4.80887
 20
56.0882
 11
-4.87793
 21
55.9982
  0
LINE
  8
0
 10
-4.87793
 20
55.9982
 11
-4.94855
 21
55.9094
  0
LINE
  8
0
 10
-4.94855
 20
55.9094
 11
-5.02071
 21
55.8219
  0
LINE
  8
0
 10
-5.02071
 20
55.8219
 11
-5.09438
 21
55.7356
  0
LINE
  8
0
 10
-5.09438
 20
55.7356
 11
-5.16956
 21
55.6507
  0
LINE
  8
0
 10
-5.16956
 20
55.6507
 11
-5.2462
 21
55.567
  0
LINE
  8
0
 10
-5.2462
 20
55.567
 11
-5.32428
 21
55.4847
  0
LINE
  8
0
 10
-5.32428
 20
55.4847
 11
-5.40379
 21
55.4038
  0
LINE
  8
0
 10
-5.40379
 20
55.4038
 11
-5.48471
 21
55.3243
  0
LINE
  8
0
 10
-5.48471
 20
55.3243
 11
-5.567
 21
55.2462
  0
LINE
  8
0
 10
-5.567
 20
55.2462
 11
-5.65065
 21
55.1696
  0
LINE
  8
0
 10
-5.65065
 20
55.1696
 11
-5.73561
 21
55.0944
  0
LINE
  8
0
 10
-5.73561
 20
55.0944
 11
-5.82187
 21
55.0207
  0
LINE
  8
0
 10
-5.82187
 20
55.0207
 11
-5.90941
 21
54.9485
  0
LINE
  8
0
 10
-5.90941
 20
54.9485
 11
-5.9982
 21
54.8779
  0
LINE
  8
0
 10
-5.9982
 20
54.8779
 11
-6.0882
 21
54.8089
  0
LINE
  8
0
 10
-6.0882
 20
54.8089
 11
-6.17938
 21
54.7414
  0
LINE
  8
0
 10
-6.17938
 20
54.7414
 11
-6.27174
 21
54.6755
  0
LINE
  8
0
 10
-6.27174
 20
54.6755
 11
-6.36523
 21
54.6113
  0
LINE
  8
0
 10
-6.36523
 20
54.6113
 11
-6.45984
 21
54.5486
  0
LINE
  8
0
 10
-6.45984
 20
54.5486
 11
-6.55551
 21
54.4877
  0
LINE
  8
0
 10
-6.55551
 20
54.4877
 11
-6.65225
 21
54.4284
  0
LINE
  8
0
 10
-6.65225
 20
54.4284
 11
-6.75
 21
54.3708
  0
LINE
  8
0
 10
-6.75
 20
54.3708
 11
-6.84872
 21
54.315
  0
LINE
  8
0
 10
-6.84872
 20
54.315
 11
-6.94843
 21
54.2608
  0
LINE
  8
0
 10
-6.94843
 20
54.2608
 11
-7.04906
 21
54.2085
  0
LINE
  8
0
 10
-7.04906
 20
54.2085
 11
-7.15057
 21
54.1578
  0
LINE
  8
0
 10
-7.15057
 20
54.1578
 11
-7.25298
 21
54.109
  0
LINE
  8
0
 10
-7.25298
 20
54.109
 11
-7.3562
 21
54.062
  0
LINE
  8
0
 10
-7.3562
 20
54.062
 11
-7.46024
 21
54.0167
  0
LINE
  8
0
 10
-7.46024
 20
54.0167
 11
-7.56505
 21
53.9733
  0
LINE
  8
0
 10
-7.56505
 20
53.9733
 11
-7.67059
 21
53.9317
  0
LINE
  8
0
 10
-7.67059
 20
53.9317
 11
-7.77686
 21
53.892
  0
LINE
  8
0
 10
-7.77686
 20
53.892
 11
-7.8838
 21
53.8541
  0
LINE
  8
0
 10
-7.8838
 20
53.8541
 11
-7.99138
 21
53.8181
  0
LINE
  8
0
 10
-7.99138
 20
53.8181
 11
-8.09958
 21
53.784
  0
LINE
  8
0
 10
-8.09958
 20
53.784
 11
-8.20834
 21
53.7518
  0
LINE
  8
0
 10
-8.20834
 20
53.7518
 11
-8.31767
 21
53.7215
  0
LINE
  8
0
 10
-8.31767
 20
53.7215
 11
-8.42751
 21
53.6931
  0
LINE
  8
0
 10
-8.42751
 20
53.6931
 11
-8.53781
 21
53.6666
  0
LINE
  8
0
 10
-8.53781
 20
53.6666
 11
-8.64856
 21
53.642
  0
LINE
  8
0
 10
-8.64856
 20
53.642
 11
-8.75974
 21
53.6194
  0
LINE
  8
0
 10
-8.75974
 20
53.6194
 11
-8.87128
 21
53.5987
  0
LINE
  8
0
 10
-8.87128
 20
53.5987
 11
-8.98317
 21
53.58
  0
LINE
  8
0
 10
-8.98317
 20
53.58
 11
-9.09537
 21
53.5632
  0
LINE
  8
0
 10
-9.09537
 20
53.5632
 11
-9.20784
 21
53.5484
  0
LINE
  8
0
 10
-9.20784
 20
53.5484
 11
-9.32056
 21
53.5356
  0
LINE
  8
0
 10
-9.32056
 20
53.5356
 11
-9.43349
 21
53.5247
  0
LINE
  8
0
 10
-9.43349
 20
53.5247
 11
-9.54657
 21
53.5158
  0
LINE
  8
0
 10
-9.54657
 20
53.5158
 11
-9.65981
 21
53.5089
  0
LINE
  8
0
 10
-9.65981
 20
53.5089
 11
-9.77315
 21
53.504
  0
LINE
  8
0
 10
-9.77315
 20
53.504
 11
-9.88655
 21
53.501
  0
LINE
  8
0
 10
-9.88655
 20
53.501
 11
-10
 21
53.5
  0
LINE
  8
0
 10
-10
 20
53.5
 11
-10.1134
 21
53.501
  0
LINE
  8
0
 10
-10.1134
 20
18.501
 11
-10.2268
 21
18.504
  0
LINE
  8
0
 10
-10.2268
 20
18.504
 11
-10.3402
 21
18.5089
  0
LINE
  8
0
 10
-10.3402
 20
18.5089
 11
-10.4534
 21
18.5158
  0
LINE
  8
0
 10
-10.4534
 20
18.5158
 11
-10.5665
 21
18.5247
  0
LINE
  8
0
 10
-10.5665
 20
18.5247
 11
-10.6794
 21
18.5356
  0
LINE
  8
0
 10
-10.6794
 20
18.5356
 11
-10.7921
 21
18.5484
  0
LINE
  8
0
 10
-10.7921
 20
18.5484
 11
-10.9046
 21
18.5632
  0
LINE
  8
0
 10
-10.9046
 20
18.5632
 11
-11.0168
 21
18.58
  0
LINE
  8
0
 10
-11.0168
 20
18.58
 11
-11.1287
 21
18.5987
  0
LINE
  8
0
 10
-11.1287
 20
18.5987
 11
-11.2402
 21
18.6194
  0
LINE
  8
0
 10
-11.2402
 20
18.6194
 11
-11.3514
 21
18.642
  0
LINE
  8
0
 10
-11.3514
 20
18.642
 11
-11.4622
 21
18.6666
  0
LINE
  8
0
 10
-11.4622
 20
18.6666
 11
-11.5725
 21
18.6931
  0
LINE
  8
0
 10
-11.5725
 20
18.6931
 11
-11.6823
 21
18.7215
  0
LINE
  8
0
 10
-11.6823
 20
18.7215
 11
-11.7916
 21
18.7518
  0
LINE
  8
0
 10
-11.7916
 20
18.7518
 11
-11.9004
 21
18.784
  0
LINE
  8
0
 10
-11.9004
 20
18.784
 11
-12.0086
 21
18.8181
  0
LINE
  8
0
 10
-12.0086
 20
18.8181
 11
-12.1162
 21
18.8541
  0
LINE
  8
0
 10
-12.1162
 20
18.8541
 11
-12.2231
 21
18.892
  0
LINE
  8
0
 10
-12.2231
 20
18.892
 11
-12.3294
 21
18.9317
  0
LINE
  8
0
 10
-12.3294
 20
18.9317
 11
-12.4349
 21
18.9733
  0
LINE
  8
0
 10
-12.4349
 20
18.9733
 11
-12.5397
 21
19.0167
  0
LINE
  8
0
 10
-12.5397
 20
19.0167
 11
-12.6438
 21
19.062
  0
LINE
  8
0
 10
-12.6438
 20
19.062
 11
-12.747
 21
19.109
  0
LINE
  8
0
 10
-12.747
 20
19.109
 11
-12.8494
 21
19.1578
  0
LINE
  8
0
 10
-12.8494
 20
19.1578
 11
-12.9509
 21
19.2085
  0
LINE
  8
0
 10
-12.9509
 20
19.2085
 11
-13.0516
 21
19.2608
  0
LINE
  8
0
 10
-13.0516
 20
19.2608
 11
-13.1513
 21
19.315
  0
LINE
  8
0
 10
-13.1513
 20
19.315
 11
-13.25
 21
19.3708
  0
LINE
  8
0
 10
-13.25
 20
19.3708
 11
-13.3477
 21
19.4284
  0
LINE
  8
0
 10
-13.3477
 20
19.4284
 11
-13.4445
 21
19.4877
  0
LINE
  8
0
 10
-13.4445
 20
19.4877
 11
-13.5401
 21
19.5486
  0
LINE
  8
0
 10
-13.5401
 20
19.5486
 11
-13.6348
 21
19.6113
  0
LINE
  8
0
 10
-13.6348
 20
19.6113
 11
-13.7282
 21
19.6755
  0
LINE
  8
0
 10
-13.7282
 20
19.6755
 11
-13.8206
 21
19.7414
  0
LINE
  8
0
 10
-13.8206
 20
19.7414
 11
-13.9118
 21
19.8089
  0
LINE
  8
0
 10
-13.9118
 20
19.8089
 11
-14.0018
 21
19.8779
  0
LINE
  8
0
 10
-14.0018
 20
19.8779
 11
-14.0906
 21
19.9485
  0
LINE
  8
0
 10
-14.0906
 20
19.9485
 11
-14.1781
 21
20.0207
  0
LINE
  8
0
 10
-14.1781
 20
20.0207
 11
-14.2644
 21
20.0944
  0
LINE
  8
0
 10
-14.2644
 20
20.0944
 11
-14.3493
 21
20.1696
  0
LINE
  8
0
 10
-14.3493
 20
20.1696
 11
-14.433
 21
20.2462
  0
LINE
  8
0
 10
-14.433
 20
20.2462
 11
-14.5153
 21
20.3243
  0
LINE
  8
0
 10
-14.5153
 20
20.3243
 11
-14.5962
 21
20.4038
  0
LINE
  8
0
 10
-14.5962
 20
20.4038
 11
-14.6757
 21
20.4847
  0
LINE
  8
0
 10
-14.6757
 20
20.4847
 11
-14.7538
 21
20.567
  0
LINE
  8
0
 10
-14.7538
 20
20.567
 11
-14.8304
 21
20.6507
  0
LINE
  8
0
 10
-14.8304
 20
20.6507
 11
-14.9056
 21
20.7356
  0
LINE
  8
0
 10
-14.9056
 20
20.7356
 11
-14.9793
 21
20.8219
  0
LINE
  8
0
 10
-14.9793
 20
20.8219
 11
-15.0514
 21
20.9094
  0
LINE
  8
0
 10
-15.0514
 20
20.9094
 11
-15.1221
 21
20.9982
  0
LINE
  8
0
 10
-15.1221
 20
20.9982
 11
-15.1911
 21
21.0882
  0
LINE
  8
0
 10
-15.1911
 20
21.0882
 11
-15.2586
 21
21.1794
  0
LINE
  8
0
 10
-15.2586
 20
21.1794
 11
-15.3245
 21
21.2717
  0
LINE
  8
0
 10
-15.3245
 20
21.2717
 11
-15.3887
 21
21.3652
  0
LINE
  8
0
 10
-15.3887
 20
21.3652
 11
-15.4514
 21
21.4598
  0
LINE
  8
0
 10
-15.4514
 20
21.4598
 11
-15.5123
 21
21.5555
  0
LINE
  8
0
 10
-15.5123
 20
21.5555
 11
-15.5716
 21
21.6523
  0
LINE
  8
0
 10
-15.5716
 20
21.6523
 11
-15.6292
 21
21.75
  0
LINE
  8
0
 10
-15.6292
 20
21.75
 11
-15.685
 21
21.8487
  0
LINE
  8
0
 10
-15.685
 20
21.8487
 11
-15.7392
 21
21.9484
  0
LINE
  8
0
 10
-15.7392
 20
21.9484
 11
-15.7915
 21
22.0491
  0
LINE
  8
0
 10
-15.7915
 20
22.0491
 11
-15.8421
 21
22.1506
  0
LINE
  8
0
 10
-15.8421
 20
22.1506
 11
-15.891
 21
22.253
  0
LINE
  8
0
 10
-15.891
 20
22.253
 11
-15.938
 21
22.3562
  0
LINE
  8
0
 10
-15.938
 20
22.3562
 11
-15.9833
 21
22.4602
  0
LINE
  8
0
 10
-15.9833
 20
22.4602
 11
-16.0267
 21
22.565
  0
LINE
  8
0
 10
-16.0267
 20
22.565
 11
-16.0683
 21
22.6706
  0
LINE
  8
0
 10
-16.0683
 20
22.6706
 11
-16.108
 21
22.7769
  0
LINE
  8
0
 10
-16.108
 20
22.7769
 11
-16.1459
 21
22.8838
  0
LINE
  8
0
 10
-16.1459
 20
22.8838
 11
-16.1819
 21
22.9914
  0
LINE
  8
0
 10
-16.1819
 20
22.9914
 11
-16.216
 21
23.0996
  0
LINE
  8
0
 10
-16.216
 20
23.0996
 11
-16.2482
 21
23.2084
  0
LINE
  8
0
 10
-16.2482
 20
23.2084
 11
-16.2785
 21
23.3177
  0
LINE
  8
0
 10
-16.2785
 20
23.3177
 11
-16.3069
 21
23.4275
  0
LINE
  8
0
 10
-16.3069
 20
23.4275
 11
-16.3334
 21
23.5378
  0
LINE
  8
0
 10
-16.3334
 20
23.5378
 11
-16.358
 21
23.6486
  0
LINE
  8
0
 10
-16.358
 20
23.6486
 11
-16.3806
 21
23.7597
  0
LINE
  8
0
 10
-16.3806
 20
23.7597
 11
-16.4012
 21
23.8713
  0
LINE
  8
0
 10
-16.4012
 20
23.8713
 11
-16.42
 21
23.9832
  0
LINE
  8
0
 10
-16.42
 20
23.9832
 11
-16.4367
 21
24.0954
  0
LINE
  8
0
 10
-16.4367
 20
24.0954
 11
-16.4515
 21
24.2078
  0
LINE
  8
0
 10
-16.4515
 20
24.2078
 11
-16.4644
 21
24.3206
  0
LINE
  8
0
 10
-16.4644
 20
24.3206
 11
-16.4753
 21
24.4335
  0
LINE
  8
0
 10
-16.4753
 20
24.4335
 11
-16.4842
 21
24.5466
  0
LINE
  8
0
 10
-16.4842
 20
24.5466
 11
-16.4911
 21
24.6598
  0
LINE
  8
0
 10
-16.4911
 20
24.6598
 11
-16.496
 21
24.7731
  0
LINE
  8
0
 10
-16.496
 20
24.7731
 11
-16.499
 21
24.8866
  0
LINE
  8
0
 10
-16.499
 20
24.8866
 11
-16.5
 21
25
  0
LINE
  8
0
 10
-16.5
 20
25
 11
-16.499
 21
25.1134
  0
LINE
  8
0
 10
-16.499
 20
25.1134
 11
-16.496
 21
25.2268
  0
LINE
  8
0
 10
-16.496
 20
25.2268
 11
-16.4911
 21
25.3402
  0
LINE
  8
0
 10
-16.4911
 20
25.3402
 11
-16.4842
 21
25.4534
  0
LINE
  8
0
 10
-16.4842
 20
25.4534
 11
-16.4753
 21
25.5665
  0
LINE
  8
0
 10
-16.4753
 20
25.5665
 11
-16.4644
 21
25.6794
  0
LINE
  8
0
 10
-16.4644
 20
25.6794
 11
-16.4515
 21
25.7921
  0
LINE
  8
0
 10
-16.4515
 20
25.7921
 11
-16.4367
 21
25.9046
  0
LINE
  8
0
 10
-16.4367
 20
25.9046
 11
-16.42
 21
26.0168
  0
LINE
  8
0
 10
-16.42
 20
26.0168
 11
-16.4012
 21
26.1287
  0
LINE
  8
0
 10
-16.4012
 20
26.1287
 11
-16.3806
 21
26.2402
  0
LINE
  8
0
 10
-16.3806
 20
26.2402
 11
-16.358
 21
26.3514
  0
LINE
  8
0
 10
-16.358
 20
26.3514
 11
-16.3334
 21
26.4622
  0
LINE
  8
0
 10
-16.3334
 20
26.4622
 11
-16.3069
 21
26.5725
  0
LINE
  8
0
 10
-16.3069
 20
26.5725
 11
-16.2785
 21
26.6823
  0
LINE
  8
0
 10
-16.2785
 20
26.6823
 11
-16.2482
 21
26.7916
  0
LINE
  8
0
 10
-16.2482
 20
26.7916
 11
-16.216
 21
26.9004
  0
LINE
  8
0
 10
-16.216
 20
26.9004
 11
-16.1819
 21
27.0086
  0
LINE
  8
0
 10
-16.1819
 20
27.0086
 11
-16.1459
 21
27.1162
  0
LINE
  8
0
 10
-16.1459
 20
27.1162
 11
-16.108
 21
27.2231
  0
LINE
  8
0
 10
-16.108
 20
27.2231
 11
-16.0683
 21
27.3294
  0
LINE
  8
0
 10
-16.0683
 20
27.3294
 11
-16.0267
 21
27.4349
  0
LINE
  8
0
 10
-16.0267
 20
27.4349
 11
-15.9833
 21
27.5397
  0
LINE
  8
0
 10
-15.9833
 20
27.5397
 11
-15.938
 21
27.6438
  0
LINE
  8
0
 10
-15.938
 20
27.6438
 11
-15.891
 21
27.747
  0
LINE
  8
0
 10
-15.891
 20
27.747
 11
-15.8421
 21
27.8494
  0
LINE
  8
0
 10
-15.8421
 20
27.8494
 11
-15.7915
 21
27.9509
  0
LINE
  8
0
 10
-15.7915
 20
27.9509
 11
-15.7392
 21
28.0516
  0
LINE
  8
0
 10
-15.7392
 20
28.0516
 11
-15.685
 21
28.1513
  0
LINE
  8
0
 10
-15.685
 20
28.1513
 11
-15.6292
 21
28.25
  0
LINE
  8
0
 10
-15.6292
 20
28.25
 11
-15.5716
 21
28.3477
  0
LINE
  8
0
 10
-15.5716
 20
28.3477
 11
-15.5123
 21
28.4445
  0
LINE
  8
0
 10
-15.5123
 20
28.4445
 11
-15.4514
 21
28.5401
  0
LINE
  8
0
 10
-15.4514
 20
28.5401
 11
-15.3887
 21
28.6348
  0
LINE
  8
0
 10
-15.3887
 20
28.6348
 11
-15.3245
 21
28.7282
  0
LINE
  8
0
 10
-15.3245
 20
28.7282
 11
-15.2586
 21
28.8206
  0
LINE
  8
0
 10
-15.2586
 20
28.8206
 11
-15.1911
 21
28.9118
  0
LINE
  8
0
 10
-15.1911
 20
28.9118
 11
-15.1221
 21
29.0018
  0
LINE
  8
0
 10
-15.1221
 20
29.0018
 11
-15.0514
 21
29.0906
  0
LINE
  8
0
 10
-15.0514
 20
29.0906
 11
-14.9793
 21
29.1781
  0
LINE
  8
0
 10
-14.9793
 20
29.1781
 11
-14.9056
 21
29.2644
  0
LINE
  8
0
 10
-14.9056
 20
29.2644
 11
-14.8304
 21
29.3493
  0
LINE
  8
0
 10
-14.8304
 20
29.3493
 11
-14.7538
 21
29.433
  0
LINE
  8
0
 10
-14.7538
 20
29.433
 11
-14.6757
 21
29.5153
  0
LINE
  8
0
 10
-14.6757
 20
29.5153
 11
-14.5962
 21
29.5962
  0
LINE
  8
0
 10
-14.5962
 20
29.5962
 11
-14.5153
 21
29.6757
  0
LINE
  8
0
 10
-14.5153
 20
29.6757
 11
-14.433
 21
29.7538
  0
LINE
  8
0
 10
-14.433
 20
29.7538
 11
-14.3493
 21
29.8304
  0
LINE
  8
0
 10
-14.3493
 20
29.8304
 11
-14.2644
 21
29.9056
  0
LINE
  8
0
 10
-14.2644
 20
29.9056
 11
-14.1781
 21
29.9793
  0
LINE
  8
0
 10
-14.1781
 20
29.9793
 11
-14.0906
 21
30.0514
  0
LINE
  8
0
 10
-14.0906
 20
30.0514
 11
-14.0018
 21
30.1221
  0
LINE
  8
0
 10
-14.0018
 20
30.1221
 11
-13.9118
 21
30.1911
  0
LINE
  8
0
 10
-13.9118
 20
30.1911
 11
-13.8206
 21
30.2586
  0
LINE
  8
0
 10
-13.8206
 20
30.2586
 11
-13.7282
 21
30.3245
  0
LINE
  8
0
 10
-13.7282
 20
30.3245
 11
-13.6348
 21
30.3887
  0
LINE
  8
0
 10
-13.6348
 20
30.3887
 11
-13.5401
 21
30.4514
  0
LINE
  8
0
 10
-13.5401
 20
30.4514
 11
-13.4445
 21
30.5123
  0
LINE
  8
0
 10
-13.4445
 20
30.5123
 11
-13.3477
 21
30.5716
  0
LINE
  8
0
 10
-13.3477
 20
30.5716
 11
-13.25
 21
30.6292
  0
LINE
  8
0
 10
-13.25
 20
30.6292
 11
-13.1513
 21
30.685
  0
LINE
  8
0
 10
-13.1513
 20
30.685
 11
-13.0516
 21
30.7392
  0
LINE
  8
0
 10
-13.0516
 20
30.7392
 11
-12.9509
 21
30.7915
  0
LINE
  8
0
 10
-12.9509
 20
30.7915
 11
-12.8494
 21
30.8421
  0
LINE
  8
0
 10
-12.8494
 20
30.8421
 11
-12.747
 21
30.891
  0
LINE
  8
0
 10
-12.747
 20
30.891
 11
-12.6438
 21
30.938
  0
LINE
  8
0
 10
-12.6438
 20
30.938
 11
-12.5397
 21
30.9833
  0
LINE
  8
0
 10
-12.5397
 20
30.9833
 11
-12.4349
 21
31.0267
  0
LINE
  8
0
 10
-12.4349
 20
31.0267
 11
-12.3294
 21
31.0683
  0
LINE
  8
0
 10
-12.3294
 20
31.0683
 11
-12.2231
 21
31.108
  0
LINE
  8
0
 10
-12.2231
 20
31.108
 11
-12.1162
 21
31.1459
  0
LINE
  8
0
 10
-12.1162
 20
31.1459
 11
-12.0086
 21
31.1819
  0
LINE
  8
0
 10
-12.0086
 20
31.1819
 11
-11.9004
 21
31.216
  0
LINE
  8
0
 10
-11.9004
 20
31.216
 11
-11.7916
 21
31.2482
  0
LINE
  8
0
 10
-11.7916
 20
31.2482
 11
-11.6823
 21
31.2785
  0
LINE
  8
0
 10
-11.6823
 20
31.2785
 11
-11.5725
 21
31.3069
  0
LINE
  8
0
 10
-11.5725
 20
31.3069
 11
-11.4622
 21
31.3334
  0
LINE
  8
0
 10
-11.4622
 20
31.3334
 11
-11.3514
 21
31.358
  0
LINE
  8
0
 10
-11.3514
 20
31.358
 11
-11.2402
 21
31.3806
  0
LINE
  8
0
 10
-11.2402
 20
31.3806
 11
-11.1287
 21
31.4012
  0
LINE
  8
0
 10
-11.1287
 20
31.4012
 11
-11.0168
 21
31.42
  0
LINE
  8
0
 10
-11.0168
 20
31.42
 11
-10.9046
 21
31.4367
  0
LINE
  8
0
 10
-10.9046
 20
31.4367
 11
-10.7921
 21
31.4515
  0
LINE
  8
0
 10
-10.7921
 20
31.4515
 11
-10.6794
 21
31.4644
  0
LINE
  8
0
 10
-10.6794
 20
31.4644
 11
-10.5665
 21
31.4753
  0
LINE
  8
0
 10
-10.5665
 20
31.4753
 11
-10.4534
 21
31.4842
  0
LINE
  8
0
 10
-10.4534
 20
31.4842
 11
-10.3402
 21
31.4911
  0
LINE
  8
0
 10
-10.3402
 20
31.4911
 11
-10.2268
 21
31.496
  0
LINE
  8
0
 10
-10.2268
 20
31.496
 11
-10.1134
 21
31.499
  0
LINE
  8
0
 10
-10.1134
 20
31.499
 11
-10
 21
31.5
  0
LINE
  8
0
 10
-10
 20
31.5
 11
-9.88655
 21
31.499
  0
LINE
  8
0
 10
-9.88655
 20
31.499
 11
-9.77315
 21
31.496
  0
LINE
  8
0
 10
-9.77315
 20
31.496
 11
-9.65981
 21
31.4911
  0
LINE
  8
0
 10
-9.65981
 20
31.4911
 11
-9.54657
 21
31.4842
  0
LINE
  8
0
 10
-9.54657
 20
31.4842
 11
-9.43349
 21
31.4753
  0
LINE
  8
0
 10
-9.43349
 20
31.4753
 11
-9.32056
 21
31.4644
  0
LINE
  8
0
 10
-9.32056
 20
31.4644
 11
-9.20784
 21
31.4515
  0
LINE
  8
0
 10
-9.20784
 20
31.4515
 11
-9.09537
 21
31.4367
  0
LINE
  8
0
 10
-9.09537
 20
31.4367
 11
-8.98317
 21
31.42
  0
LINE
  8
0
 10
-8.98317
 20
31.42
 11
-8.87128
 21
31.4012
  0
LINE
  8
0
 10
-8.87128
 20
31.4012
 11
-8.75974
 21
31.3806
  0
LINE
  8
0
 10
-8.75974
 20
31.3806
 11
-8.64856
 21
31.358
  0
LINE
  8
0
 10
-8.64856
 20
31.358
 11
-8.53781
 21
31.3334
  0
LINE
  8
0
 10
-8.53781
 20
31.3334
 11
-8.42751
 21
31.3069
  0
LINE
  8
0
 10
-8.42751
 20
31.3069
 11
-8.31767
 21
31.2785
  0
LINE
  8
0
 10
-8.31767
 20
31.2785
 11
-8.20834
 21
31.2482
  0
LINE
  8
0
 10
-8.20834
 20
31.2482
 11
-8.09958
 21
31.216
  0
LINE
  8
0
 10
-8.09958
 20
31.216
 11
-7.99138
 21
31.1819
  0
LINE
  8
0
 10
-7.99138
 20
31.1819
 11
-7.8838
 21
31.1459
  0
LINE
  8
0
 10
-7.8838
 20
31.1459
 11
-7.77686
 21
31.108
  0
LINE
  8
0
 10
-7.77686
 20
31.108
 11
-7.67059
 21
31.0683
  0
LINE
  8
0
 10
-7.67059
 20
31.0683
 11
-7.56505
 21
31.0267
  0
LINE
  8
0
 10
-7.56505
 20
31.0267
 11
-7.46024
 21
30.9833
  0
LINE
  8
0
 10
-7.46024
 20
30.9833
 11
-7.3562
 21
30.938
  0
LINE
  8
0
 10
-7.3562
 20
30.938
 11
-7.25298
 21
30.891
  0
LINE
  8
0
 10
-7.25298
 20
30.891
 11
-7.15057
 21
30.8421
  0
LINE
  8
0
 10
-7.15057
 20
30.8421
 11
-7.04906
 21
30.7915
  0
LINE
  8
0
 10
-7.04906
 20
30.7915
 11
-6.94843
 21
30.7392
  0
LINE
  8
0
 10
-6.94843
 20
30.7392
 11
-6.84872
 21
30.685
  0
LINE
  8
0
 10
-6.84872
 20
30.685
 11
-6.75
 21
30.6292
  0
LINE
  8
0
 10
-6.75
 20
30.6292
 11
-6.65225
 21
30.5716
  0
LINE
  8
0
 10
-6.65225
 20
30.5716
 11
-6.55551
 21
30.5123
  0
LINE
  8
0
 10
-6.55551
 20
30.5123
 11
-6.45984
 21
30.4514
  0
LINE
  8
0
 10
-6.45984
 20
30.4514
 11
-6.36523
 21
30.3887
  0
LINE
  8
0
 10
-6.36523
 20
30.3887
 11
-6.27174
 21
30.3245
  0
LINE
  8
0
 10
-6.27174
 20
30.3245
 11
-6.17938
 21
30.2586
  0
LINE
  8
0
 10
-6.17938
 20
30.2586
 11
-6.0882
 21
30.1911
  0
LINE
  8
0
 10
-6.0882
 20
30.1911
 11
-5.9982
 21
30.1221
  0
LINE
  8
0
 10
-5.9982
 20
30.1221
 11
-5.90941
 21
30.0514
  0
LINE
  8
0
 10
-5.90941
 20
30.0514
 11
-5.82187
 21
29.9793
  0
LINE
  8
0
 10
-5.82187
 20
29.9793
 11
-5.73561
 21
29.9056
  0
LINE
  8
0
 10
-5.73561
 20
29.9056
 11
-5.65065
 21
29.8304
  0
LINE
  8
0
 10
-5.65065
 20
29.8304
 11
-5.567
 21
29.7538
  0
LINE
  8
0
 10
-5.567
 20
29.7538
 11
-5.48471
 21
29.6757
  0
LINE
  8
0
 10
-5.48471
 20
29.6757
 11
-5.40379
 21
29.5962
  0
LINE
  8
0
 10
-5.40379
 20
29.5962
 11
-5.32428
 21
29.5153
  0
LINE
  8
0
 10
-5.32428
 20
29.5153
 11
-5.2462
 21
29.433
  0
LINE
  8
0
 10
-5.2462
 20
29.433
 11
-5.16956
 21
29.3493
  0
LINE
  8
0
 10
-5.16956
 20
29.3493
 11
-5.09438
 21
29.2644
  0
LINE
  8
0
 10
-5.09438
 20
29.2644
 11
-5.02071
 21
29.1781
  0
LINE
  8
0
 10
-5.02071
 20
29.1781
 11
-4.94855
 21
29.0906
  0
LINE
  8
0
 10
-4.94855
 20
29.0906
 11
-4.87793
 21
29.0018
  0
LINE
  8
0
 10
-4.87793
 20
29.0018
 11
-4.80887
 21
28.9118
  0
LINE
  8
0
 10
-4.80887
 20
28.9118
 11
-4.74138
 21
28.8206
  0
LINE
  8
0
 10
-4.74138
 20
28.8206
 11
-4.67551
 21
28.7282
  0
LINE
  8
0
 10
-4.67551
 20
28.7282
 11
-4.61125
 21
28.6348
  0
LINE
  8
0
 10
-4.61125
 20
28.6348
 11
-4.54863
 21
28.5401
  0
LINE
  8
0
 10
-4.54863
 20
28.5401
 11
-4.48769
 21
28.4445
  0
LINE
  8
0
 10
-4.48769
 20
28.4445
 11
-4.42841
 21
28.3477
  0
LINE
  8
0
 10
-4.42841
 20
28.3477
 11
-4.37083
 21
28.25
  0
LINE
  8
0
 10
-4.37083
 20
28.25
 11
-4.31496
 21
28.1513
  0
LINE
  8
0
 10
-4.31496
 20
28.1513
 11
-4.26083
 21
28.0516
  0
LINE
  8
0
 10
-4.26083
 20
28.0516
 11
-4.20845
 21
27.9509
  0
LINE
  8
0
 10
-4.20845
 20
27.9509
 11
-4.15784
 21
27.8494
  0
LINE
  8
0
 10
-4.15784
 20
27.8494
 11
-4.10899
 21
27.747
  0
LINE
  8
0
 10
-4.10899
 20
27.747
 11
-4.06195
 21
27.6438
  0
LINE
  8
0
 10
-4.06195
 20
27.6438
 11
-4.01671
 21
27.5397
  0
LINE
  8
0
 10
-4.01671
 20
27.5397
 11
-3.9733
 21
27.4349
  0
LINE
  8
0
 10
-3.9733
 20
27.4349
 11
-3.93172
 21
27.3294
  0
LINE
  8
0
 10
-3.93172
 20
27.3294
 11
-3.89198
 21
27.2231
  0
LINE
  8
0
 10
-3.89198
 20
27.2231
 11
-3.85413
 21
27.1162
  0
LINE
  8
0
 10
-3.85413
 20
27.1162
 11
-3.81813
 21
27.0086
  0
LINE
  8
0
 10
-3.81813
 20
27.0086
 11
-3.78401
 21
26.9004
  0
LINE
  8
0
 10
-3.78401
 20
26.9004
 11
-3.75179
 21
26.7916
  0
LINE
  8
0
 10
-3.75179
 20
26.7916
 11
-3.72148
 21
26.6823
  0
LINE
  8
0
 10
-3.72148
 20
26.6823
 11
-3.69307
 21
26.5725
  0
LINE
  8
0
 10
-3.69307
 20
26.5725
 11
-3.66658
 21
26.4622
  0
LINE
  8
0
 10
-3.66658
 20
26.4622
 11
-3.64203
 21
26.3514
  0
LINE
  8
0
 10
-3.64203
 20
26.3514
 11
-3.61942
 21
26.2402
  0
LINE
  8
0
 10
-3.61942
 20
26.2402
 11
-3.59874
 21
26.1287
  0
LINE
  8
0
 10
-3.59874
 20
26.1287
 11
-3.58002
 21
26.0168
  0
LINE
  8
0
 10
-3.58002
 20
26.0168
 11
-3.56325
 21
25.9046
  0
LINE
  8
0
 10
-3.56325
 20
25.9046
 11
-3.54845
 21
25.7921
  0
LINE
  8
0
 10
-3.54845
 20
25.7921
 11
-3.5356
 21
25.6794
  0
LINE
  8
0
 10
-3.5356
 20
25.6794
 11
-3.52472
 21
25.5665
  0
LINE
  8
0
 10
-3.52472
 20
25.5665
 11
-3.51582
 21
25.4534
  0
LINE
  8
0
 10
-3.51582
 20
25.4534
 11
-3.5089
 21
25.3402
  0
LINE
  8
0
 10
-3.5089
 20
25.3402
 11
-3.50395
 21
25.2268
  0
LINE
  8
0
 10
-3.50395
 20
25.2268
 11
-3.50098
 21
25.1134
  0
LINE
  8
0
 10
-3.50098
 20
25.1134
 11
-3.5
 21
25
  0
LINE
  8
0
 10
-3.5
 20
25
 11
-3.50098
 21
24.8866
  0
LINE
  8
0
 10
-3.50098
 20
24.8866
 11
-3.50395
 21
24.7731
  0
LINE
  8
0
 10
-3.50395
 20
24.7731
 11
-3.5089
 21
24.6598
  0
LINE
  8
0
 10
-3.5089
 20
24.6598
 11
-3.51582
 21
24.5466
  0
LINE
  8
0
 10
-3.51582
 20
24.5466
 11
-3.52472
 21
24.4335
  0
LINE
  8
0
 10
-3.52472
 20
24.4335
 11
-3.5356
 21
24.3206
  0
LINE
  8
0
 10
-3.5356
 20
24.3206
 11
-3.54845
 21
24.2078
  0
LINE
  8
0
 10
-3.54845
 20
24.2078
 11
-3.56325
 21
24.0954
  0
LINE
  8
0
 10
-3.56325
 20
24.0954
 11
-3.58002
 21
23.9832
  0
LINE
  8
0
 10
-3.58002
 20
23.9832
 11
-3.59874
 21
23.8713
  0
LINE
  8
0
 10
-3.59874
 20
23.8713
 11
-3.61942
 21
23.7597
  0
LINE
  8
0
 10
-3.61942
 20
23.7597
 11
-3.64203
 21
23.6486
  0
LINE
  8
0
 10
-3.64203
 20
23.6486
 11
-3.66658
 21
23.5378
  0
LINE
  8
0
 10
-3.66658
 20
23.5378
 11
-3.69307
 21
23.4275
  0
LINE
  8
0
 10
-3.69307
 20
23.4275
 11
-3.72148
 21
23.3177
  0
LINE
  8
0
 10
-3.72148
 20
23.3177
 11
-3.75179
 21
23.2084
  0
LINE
  8
0
 10
-3.75179
 20
23.2084
 11
-3.78401
 21
23.0996
  0
LINE
  8
0
 10
-3.78401
 20
23.0996
 11
-3.81813
 21
22.9914
  0
LINE
  8
0
 10
-3.81813
 20
22.9914
 11
-3.85413
 21
22.8838
  0
LINE
  8
0
 10
-3.85413
 20
22.8838
 11
-3.89198
 21
22.7769
  0
LINE
  8
0
 10
-3.89198
 20
22.7769
 11
-3.93172
 21
22.6706
  0
LINE
  8
0
 10
-3.93172
 20
22.6706
 11
-3.9733
 21
22.565
  0
LINE
  8
0
 10
-3.9733
 20
22.565
 11
-4.01671
 21
22.4602
  0
LINE
  8
0
 10
-4.01671
 20
22.4602
 11
-4.06195
 21
22.3562
  0
LINE
  8
0
 10
-4.06195
 20
22.3562
 11
-4.10899
 21
22.253
  0
LINE
  8
0
 10
-4.10899
 20
22.253
 11
-4.15784
 21
22.1506
  0
LINE
  8
0
 10
-4.15784
 20
22.1506
 11
-4.20845
 21
22.0491
  0
LINE
  8
0
 10
-4.20845
 20
22.0491
 11
-4.26083
 21
21.9484
  0
LINE
  8
0
 10
-4.26083
 20
21.9484
 11
-4.31496
 21
21.8487
  0
LINE
  8
0
 10
-4.31496
 20
21.8487
 11
-4.37083
 21
21.75
  0
LINE
  8
0
 10
-4.37083
 20
21.75
 11
-4.42841
 21
21.6523
  0
LINE
  8
0
 10
-4.42841
 20
21.6523
 11
-4.48769
 21
21.5555
  0
LINE
  8
0
 10
-4.48769
 20
21.5555
 11
-4.54863
 21
21.4598
  0
LINE
  8
0
 10
-4.54863
 20
21.4598
 11
-4.61125
 21
21.3652
  0
LINE
  8
0
 10
-4.61125
 20
21.3652
 11
-4.67551
 21
21.2717
  0
LINE
  8
0
 10
-4.67551
 20
21.2717
 11
-4.74138
 21
21.1794
  0
LINE
  8
0
 10
-4.74138
 20
21.1794
 11
-4.80887
 21
21.0882
  0
LINE
  8
0
 10
-4.80887
 20
21.0882
 11
-4.87793
 21
20.9982
  0
LINE
  8
0
 10
-4.87793
 20
20.9982
 11
-4.94855
 21
20.9094
  0
LINE
  8
0
 10
-4.94855
 20
20.9094
 11
-5.02071
 21
20.8219
  0
LINE
  8
0
 10
-5.02071
 20
20.8219
 11
-5.09438
 21
20.7356
  0
LINE
  8
0
 10
-5.09438
 20
20.7356
 11
-5.16956
 21
20.6507
  0
LINE
  8
0
 10
-5.16956
 20
20.6507
 11
-5.2462
 21
20.567
  0
LINE
  8
0
 10
-5.2462
 20
20.567
 11
-5.32428
 21
20.4847
  0
LINE
  8
0
 10
-5.32428
 20
20.4847
 11
-5.40379
 21
20.4038
  0
LINE
  8
0
 10
-5.40379
 20
20.4038
 11
-5.48471
 21
20.3243
  0
LINE
  8
0
 10
-5.48471
 20
20.3243
 11
-5.567
 21
20.2462
  0
LINE
  8
0
 10
-5.567
 20
20.2462
 11
-5.65065
 21
20.1696
  0
LINE
  8
0
 10
-5.65065
 20
20.1696
 11
-5.73561
 21
20.0944
  0
LINE
  8
0
 10
-5.73561
 20
20.0944
 11
-5.82187
 21
20.0207
  0
LINE
  8
0
 10
-5.82187
 20
20.0207
 11
-5.90941
 21
19.9485
  0
LINE
  8
0
 10
-5.90941
 20
19.9485
 11
-5.9982
 21
19.8779
  0
LINE
  8
0
 10
-5.9982
 20
19.8779
 11
-6.0882
 21
19.8089
  0
LINE
  8
0
 10
-6.0882
 20
19.8089
 11
-6.17938
 21
19.7414
  0
LINE
  8
0
 10
-6.17938
 20
19.7414
 11
-6.27174
 21
19.6755
  0
LINE
  8
0
 10
-6.27174
 20
19.6755
 11
-6.36523
 21
19.6113
  0
LINE
  8
0
 10
-6.36523
 20
19.6113
 11
-6.45984
 21
19.5486
  0
LINE
  8
0
 10
-6.45984
 20
19.5486
 11
-6.55551
 21
19.4877
  0
LINE
  8
0
 10
-6.55551
 20
19.4877
 11
-6.65225
 21
19.4284
  0
LINE
  8
0
 10
-6.65225
 20
19.4284
 11
-6.75
 21
19.3708
  0
LINE
  8
0
 10
-6.75
 20
19.3708
 11
-6.84872
 21
19.315
  0
LINE
  8
0
 10
-6.84872
 20
19.315
 11
-6.94843
 21
19.2608
  0
LINE
  8
0
 10
-6.94843
 20
19.2608
 11
-7.04906
 21
19.2085
  0
LINE
  8
0
 10
-7.04906
 20
19.2085
 11
-7.15057
 21
19.1578
  0
LINE
  8
0
 10
-7.15057
 20
19.1578
 11
-7.25298
 21
19.109
  0
LINE
  8
0
 10
-7.25298
 20
19.109
 11
-7.3562
 21
19.062
  0
LINE
  8
0
 10
-7.3562
 20
19.062
 11
-7.46024
 21
19.0167
  0
LINE
  8
0
 10
-7.46024
 20
19.0167
 11
-7.56505
 21
18.9733
  0
LINE
  8
0
 10
-7.56505
 20
18.9733
 11
-7.67059
 21
18.9317
  0
LINE
  8
0
 10
-7.67059
 20
18.9317
 11
-7.77686
 21
18.892
  0
LINE
  8
0
 10
-7.77686
 20
18.892
 11
-7.8838
 21
18.8541
  0
LINE
  8
0
 10
-7.8838
 20
18.8541
 11
-7.99138
 21
18.8181
  0
LINE
  8
0
 10
-7.99138
 20
18.8181
 11
-8.09958
 21
18.784
  0
LINE
  8
0
 10
-8.09958
 20
18.784
 11
-8.20834
 21
18.7518
  0
LINE
  8
0
 10
-8.20834
 20
18.7518
 11
-8.31767
 21
18.7215
  0
LINE
  8
0
 10
-8.31767
 20
18.7215
 11
-8.42751
 21
18.6931
  0
LINE
  8
0
 10
-8.42751
 20
18.6931
 11
-8.53781
 21
18.6666
  0
LINE
  8
0
 10
-8.53781
 20
18.6666
 11
-8.64856
 21
18.642
  0
LINE
  8
0
 10
-8.64856
 20
18.642
 11
-8.75974
 21
18.6194
  0
LINE
  8
0
 10
-8.75974
 20
18.6194
 11
-8.87128
 21
18.5987
  0
LINE
  8
0
 10
-8.87128
 20
18.5987
 11
-8.98317
 21
18.58
  0
LINE
  8
0
 10
-8.98317
 20
18.58
 11
-9.09537
 21
18.5632
  0
LINE
  8
0
 10
-9.09537
 20
18.5632
 11
-9.20784
 21
18.5484
  0
LINE
  8
0
 10
-9.20784
 20
18.5484
 11
-9.32056
 21
18.5356
  0
LINE
  8
0
 10
-9.32056
 20
18.5356
 11
-9.43349
 21
18.5247
  0
LINE
  8
0
 10
-9.43349
 20
18.5247
 11
-9.54657
 21
18.5158
  0
LINE
  8
0
 10
-9.54657
 20
18.5158
 11
-9.65981
 21
18.5089
  0
LINE
  8
0
 10
-9.65981
 20
18.5089
 11
-9.77315
 21
18.504
  0
LINE
  8
0
 10
-9.77315
 20
18.504
 11
-9.88655
 21
18.501
  0
LINE
  8
0
 10
-9.88655
 20
18.501
 11
-10
 21
18.5
  0
LINE
  8
0
 10
-10
 20
18.5
 11
-10.1134
 21
18.501
  0
ENDSEC
  0
SECTION
  2
OBJECTS
  0
DICTIONARY
  0
ENDSEC
  0
EOF
