  0
SECTION
  2
BLOCKS
  0
ENDSEC
  0
SECTION
  2
ENTITIES
  0
LINE
  8
0
 10
5.89999
 20
-0.5
 11
13.1
 21
-0.5
  0
LINE
  8
0
 10
13.1
 20
-0.5
 11
13.1
 21
-3.5
  0
LINE
  8
0
 10
13.1
 20
-3.5
 11
19.9
 21
-3.5
  0
LINE
  8
0
 10
19.9
 20
-3.5
 11
19.9
 21
-0.5
  0
LINE
  8
0
 10
19.9
 20
-0.5
 11
27.1
 21
-0.5
  0
LINE
  8
0
 10
27.1
 20
-0.5
 11
27.1
 21
-3.5
  0
LINE
  8
0
 10
27.1
 20
-3.5
 11
33.9
 21
-3.5
  0
LINE
  8
0
 10
33.9
 20
-3.5
 11
33.9
 21
-0.5
  0
LINE
  8
0
 10
33.9
 20
-0.5
 11
34
 21
-0.5
  0
LINE
  8
0
 10
34
 20
-0.5
 11
34
 21
4.86363
  0
LINE
  8
0
 10
34
 20
4.86363
 11
37
 21
4.86363
  0
LINE
  8
0
 10
37
 20
4.86363
 11
37
 21
12.6818
  0
LINE
  8
0
 10
37
 20
12.6818
 11
34
 21
12.6818
  0
LINE
  8
0
 10
34
 20
12.6818
 11
34
 21
21.5909
  0
LINE
  8
0
 10
34
 20
21.5909
 11
37
 21
21.5909
  0
LINE
  8
0
 10
37
 20
21.5909
 11
37
 21
29.4091
  0
LINE
  8
0
 10
37
 20
29.4091
 11
34
 21
29.4091
  0
LINE
  8
0
 10
34
 20
29.4091
 11
34
 21
38.3182
  0
LINE
  8
0
 10
34
 20
38.3182
 11
37
 21
38.3182
  0
LINE
  8
0
 10
37
 20
38.3182
 11
37
 21
46.1364
  0
LINE
  8
0
 10
37
 20
46.1364
 11
34
 21
46.1364
  0
LINE
  8
0
 10
34
 20
46.1364
 11
34
 21
55.0455
  0
LINE
  8
0
 10
34
 20
55.0455
 11
37
 21
55.0455
  0
LINE
  8
0
 10
37
 20
55.0455
 11
37
 21
62.8636
  0
LINE
  8
0
 10
37
 20
62.8636
 11
34
 21
62.8636
  0
LINE
  8
0
 10
34
 20
62.8636
 11
34
 21
71.7727
  0
LINE
  8
0
 10
34
 20
71.7727
 11
37
 21
71.7727
  0
LINE
  8
0
 10
37
 20
71.7727
 11
37
 21
79.5909
  0
LINE
  8
0
 10
37
 20
79.5909
 11
34
 21
79.5909
  0
LINE
  8
0
 10
34
 20
79.5909
 11
34
 21
85.5
  0
LINE
  8
0
 10
34
 20
85.5
 11
33.9
 21
85.5
  0
LINE
  8
0
 10
33.9
 20
85.5
 11
33.9
 21
88.5
  0
LINE
  8
0
 10
33.9
 20
88.5
 11
27.1
 21
88.5
  0
LINE
  8
0
 10
27.1
 20
88.5
 11
27.1
 21
85.5
  0
LINE
  8
0
 10
27.1
 20
85.5
 11
19.9
 21
85.5
  0
LINE
  8
0
 10
19.9
 20
85.5
 11
19.9
 21
88.5
  0
LINE
  8
0
 10
19.9
 20
88.5
 11
13.1
 21
88.5
  0
LINE
  8
0
 10
13.1
 20
88.5
 11
13.1
 21
85.5
  0
LINE
  8
0
 10
13.1
 20
85.5
 11
5.89999
 21
85.5
  0
LINE
  8
0
 10
5.89999
 20
85.5
 11
5.89999
 21
88.5
  0
LINE
  8
0
 10
5.89999
 20
88.5
 11
-0.899994
 21
88.5
  0
LINE
  8
0
 10
-0.899994
 20
88.5
 11
-0.899994
 21
85.5
  0
LINE
  8
0
 10
-0.899994
 20
85.5
 11
-8
 21
85.5
  0
LINE
  8
0
 10
-8
 20
85.5
 11
-8
 21
79.5909
  0
LINE
  8
0
 10
-8
 20
79.5909
 11
-11
 21
79.5909
  0
LINE
  8
0
 10
-11
 20
79.5909
 11
-11
 21
71.7727
  0
LINE
  8
0
 10
-11
 20
71.7727
 11
-8
 21
71.7727
  0
LINE
  8
0
 10
-8
 20
71.7727
 11
-8
 21
62.8636
  0
LINE
  8
0
 10
-8
 20
62.8636
 11
-11
 21
62.8636
  0
LINE
  8
0
 10
-11
 20
62.8636
 11
-11
 21
55.0455
  0
LINE
  8
0
 10
-11
 20
55.0455
 11
-8
 21
55.0455
  0
LINE
  8
0
 10
-8
 20
55.0455
 11
-8
 21
46.1364
  0
LINE
  8
0
 10
-8
 20
46.1364
 11
-11
 21
46.1364
  0
LINE
  8
0
 10
-11
 20
46.1364
 11
-11
 21
38.3182
  0
LINE
  8
0
 10
-11
 20
38.3182
 11
-8
 21
38.3182
  0
LINE
  8
0
 10
-8
 20
38.3182
 11
-8
 21
29.4091
  0
LINE
  8
0
 10
-8
 20
29.4091
 11
-11
 21
29.4091
  0
LINE
  8
0
 10
-11
 20
29.4091
 11
-11
 21
21.5909
  0
LINE
  8
0
 10
-11
 20
21.5909
 11
-8
 21
21.5909
  0
LINE
  8
0
 10
-8
 20
21.5909
 11
-8
 21
12.6818
  0
LINE
  8
0
 10
-8
 20
12.6818
 11
-11
 21
12.6818
  0
LINE
  8
0
 10
-11
 20
12.6818
 11
-11
 21
4.86363
  0
LINE
  8
0
 10
-11
 20
4.86363
 11
-8
 21
4.86363
  0
LINE
  8
0
 10
-8
 20
4.86363
 11
-8
 21
-0.5
  0
LINE
  8
0
 10
-8
 20
-0.5
 11
-0.899994
 21
-0.5
  0
LINE
  8
0
 10
-0.899994
 20
-0.5
 11
-0.899994
 21
-3.5
  0
LINE
  8
0
 10
-0.899994
 20
-3.5
 11
5.89999
 21
-3.5
  0
LINE
  8
0
 10
5.89999
 20
-3.5
 11
5.89999
 21
-0.5
  0
LINE
  8
0
 10
14.8167
 20
32.0016
 11
14.6335
 21
32.0064
  0
LINE
  8
0
 10
14.6335
 20
32.0064
 11
14.4505
 21
32.0144
  0
LINE
  8
0
 10
14.4505
 20
32.0144
 11
14.2675
 21
32.0256
  0
LINE
  8
0
 10
14.2675
 20
32.0256
 11
14.0849
 21
32.0399
  0
LINE
  8
0
 10
14.0849
 20
32.0399
 11
13.9025
 21
32.0575
  0
LINE
  8
0
 10
13.9025
 20
32.0575
 11
13.7204
 21
32.0783
  0
LINE
  8
0
 10
13.7204
 20
32.0783
 11
13.5387
 21
32.1022
  0
LINE
  8
0
 10
13.5387
 20
32.1022
 11
13.3574
 21
32.1293
  0
LINE
  8
0
 10
13.3574
 20
32.1293
 11
13.1767
 21
32.1595
  0
LINE
  8
0
 10
13.1767
 20
32.1595
 11
12.9965
 21
32.1929
  0
LINE
  8
0
 10
12.9965
 20
32.1929
 11
12.8169
 21
32.2294
  0
LINE
  8
0
 10
12.8169
 20
32.2294
 11
12.638
 21
32.2691
  0
LINE
  8
0
 10
12.638
 20
32.2691
 11
12.4598
 21
32.3119
  0
LINE
  8
0
 10
12.4598
 20
32.3119
 11
12.2824
 21
32.3578
  0
LINE
  8
0
 10
12.2824
 20
32.3578
 11
12.1058
 21
32.4068
  0
LINE
  8
0
 10
12.1058
 20
32.4068
 11
11.9301
 21
32.4588
  0
LINE
  8
0
 10
11.9301
 20
32.4588
 11
11.7553
 21
32.5139
  0
LINE
  8
0
 10
11.7553
 20
32.5139
 11
11.5815
 21
32.5721
  0
LINE
  8
0
 10
11.5815
 20
32.5721
 11
11.4088
 21
32.6332
  0
LINE
  8
0
 10
11.4088
 20
32.6332
 11
11.2371
 21
32.6974
  0
LINE
  8
0
 10
11.2371
 20
32.6974
 11
11.0666
 21
32.7646
  0
LINE
  8
0
 10
11.0666
 20
32.7646
 11
10.8973
 21
32.8347
  0
LINE
  8
0
 10
10.8973
 20
32.8347
 11
10.7293
 21
32.9078
  0
LINE
  8
0
 10
10.7293
 20
32.9078
 11
10.5625
 21
32.9838
  0
LINE
  8
0
 10
10.5625
 20
32.9838
 11
10.3971
 21
33.0627
  0
LINE
  8
0
 10
10.3971
 20
33.0627
 11
10.2331
 21
33.1444
  0
LINE
  8
0
 10
10.2331
 20
33.1444
 11
10.0705
 21
33.229
  0
LINE
  8
0
 10
10.0705
 20
33.229
 11
9.90948
 21
33.3165
  0
LINE
  8
0
 10
9.90948
 20
33.3165
 11
9.75
 21
33.4067
  0
LINE
  8
0
 10
9.75
 20
33.4067
 11
9.59209
 21
33.4997
  0
LINE
  8
0
 10
9.59209
 20
33.4997
 11
9.43584
 21
33.5955
  0
LINE
  8
0
 10
9.43584
 20
33.5955
 11
9.28128
 21
33.694
  0
LINE
  8
0
 10
9.28128
 20
33.694
 11
9.12846
 21
33.7951
  0
LINE
  8
0
 10
9.12846
 20
33.7951
 11
8.97743
 21
33.8989
  0
LINE
  8
0
 10
8.97743
 20
33.8989
 11
8.82825
 21
34.0053
  0
LINE
  8
0
 10
8.82825
 20
34.0053
 11
8.68094
 21
34.1143
  0
LINE
  8
0
 10
8.68094
 20
34.1143
 11
8.53555
 21
34.2259
  0
LINE
  8
0
 10
8.53555
 20
34.2259
 11
8.39214
 21
34.34
  0
LINE
  8
0
 10
8.39214
 20
34.34
 11
8.25072
 21
34.4565
  0
LINE
  8
0
 10
8.25072
 20
34.4565
 11
8.11137
 21
34.5755
  0
LINE
  8
0
 10
8.11137
 20
34.5755
 11
7.97412
 21
34.697
  0
LINE
  8
0
 10
7.97412
 20
34.697
 11
7.839
 21
34.8208
  0
LINE
  8
0
 10
7.839
 20
34.8208
 11
7.70609
 21
34.9469
  0
LINE
  8
0
 10
7.70609
 20
34.9469
 11
7.57538
 21
35.0754
  0
LINE
  8
0
 10
7.57538
 20
35.0754
 11
7.44693
 21
35.2061
  0
LINE
  8
0
 10
7.44693
 20
35.2061
 11
7.32079
 21
35.339
  0
LINE
  8
0
 10
7.32079
 20
35.339
 11
7.19698
 21
35.4741
  0
LINE
  8
0
 10
7.19698
 20
35.4741
 11
7.07555
 21
35.6114
  0
LINE
  8
0
 10
7.07555
 20
35.6114
 11
6.95653
 21
35.7507
  0
LINE
  8
0
 10
6.95653
 20
35.7507
 11
6.83997
 21
35.8921
  0
LINE
  8
0
 10
6.83997
 20
35.8921
 11
6.72588
 21
36.0356
  0
LINE
  8
0
 10
6.72588
 20
36.0356
 11
6.61432
 21
36.1809
  0
LINE
  8
0
 10
6.61432
 20
36.1809
 11
6.50531
 21
36.3282
  0
LINE
  8
0
 10
6.50531
 20
36.3282
 11
6.3989
 21
36.4774
  0
LINE
  8
0
 10
6.3989
 20
36.4774
 11
6.2951
 21
36.6285
  0
LINE
  8
0
 10
6.2951
 20
36.6285
 11
6.19395
 21
36.7813
  0
LINE
  8
0
 10
6.19395
 20
36.7813
 11
6.09549
 21
36.9358
  0
LINE
  8
0
 10
6.09549
 20
36.9358
 11
5.99974
 21
37.0921
  0
LINE
  8
0
 10
5.99974
 20
37.0921
 11
5.90672
 21
37.25
  0
LINE
  8
0
 10
5.90672
 20
37.25
 11
5.81648
 21
37.4095
  0
LINE
  8
0
 10
5.81648
 20
37.4095
 11
5.72905
 21
37.5705
  0
LINE
  8
0
 10
5.72905
 20
37.5705
 11
5.64442
 21
37.7331
  0
LINE
  8
0
 10
5.64442
 20
37.7331
 11
5.56265
 21
37.8971
  0
LINE
  8
0
 10
5.56265
 20
37.8971
 11
5.48376
 21
38.0625
  0
LINE
  8
0
 10
5.48376
 20
38.0625
 11
5.40776
 21
38.2293
  0
LINE
  8
0
 10
5.40776
 20
38.2293
 11
5.33469
 21
38.3973
  0
LINE
  8
0
 10
5.33469
 20
38.3973
 11
5.26456
 21
38.5666
  0
LINE
  8
0
 10
5.26456
 20
38.5666
 11
5.1974
 21
38.7371
  0
LINE
  8
0
 10
5.1974
 20
38.7371
 11
5.13322
 21
38.9088
  0
LINE
  8
0
 10
5.13322
 20
38.9088
 11
5.07205
 21
39.0815
  0
LINE
  8
0
 10
5.07205
 20
39.0815
 11
5.0139
 21
39.2553
  0
LINE
  8
0
 10
5.0139
 20
39.2553
 11
4.95879
 21
39.4301
  0
LINE
  8
0
 10
4.95879
 20
39.4301
 11
4.90674
 21
39.6058
  0
LINE
  8
0
 10
4.90674
 20
39.6058
 11
4.85777
 21
39.7824
  0
LINE
  8
0
 10
4.85777
 20
39.7824
 11
4.81189
 21
39.9598
  0
LINE
  8
0
 10
4.81189
 20
39.9598
 11
4.7691
 21
40.138
  0
LINE
  8
0
 10
4.7691
 20
40.138
 11
4.72945
 21
40.3169
  0
LINE
  8
0
 10
4.72945
 20
40.3169
 11
4.6929
 21
40.4965
  0
LINE
  8
0
 10
4.6929
 20
40.4965
 11
4.65952
 21
40.6767
  0
LINE
  8
0
 10
4.65952
 20
40.6767
 11
4.62926
 21
40.8574
  0
LINE
  8
0
 10
4.62926
 20
40.8574
 11
4.60217
 21
41.0387
  0
LINE
  8
0
 10
4.60217
 20
41.0387
 11
4.57826
 21
41.2204
  0
LINE
  8
0
 10
4.57826
 20
41.2204
 11
4.55751
 21
41.4025
  0
LINE
  8
0
 10
4.55751
 20
41.4025
 11
4.53995
 21
41.5849
  0
LINE
  8
0
 10
4.53995
 20
41.5849
 11
4.52557
 21
41.7675
  0
LINE
  8
0
 10
4.52557
 20
41.7675
 11
4.51439
 21
41.9505
  0
LINE
  8
0
 10
4.51439
 20
41.9505
 11
4.50639
 21
42.1335
  0
LINE
  8
0
 10
4.50639
 20
42.1335
 11
4.50159
 21
42.3167
  0
LINE
  8
0
 10
4.50159
 20
42.3167
 11
4.5
 21
42.5
  0
LINE
  8
0
 10
4.5
 20
42.5
 11
4.50159
 21
42.6832
  0
LINE
  8
0
 10
4.50159
 20
42.6832
 11
4.50639
 21
42.8664
  0
LINE
  8
0
 10
4.50639
 20
42.8664
 11
4.51439
 21
43.0495
  0
LINE
  8
0
 10
4.51439
 20
43.0495
 11
4.52557
 21
43.2324
  0
LINE
  8
0
 10
4.52557
 20
43.2324
 11
4.53995
 21
43.4151
  0
LINE
  8
0
 10
4.53995
 20
43.4151
 11
4.55751
 21
43.5975
  0
LINE
  8
0
 10
4.55751
 20
43.5975
 11
4.57826
 21
43.7796
  0
LINE
  8
0
 10
4.57826
 20
43.7796
 11
4.60217
 21
43.9613
  0
LINE
  8
0
 10
4.60217
 20
43.9613
 11
4.62926
 21
44.1426
  0
LINE
  8
0
 10
4.62926
 20
44.1426
 11
4.65952
 21
44.3233
  0
LINE
  8
0
 10
4.65952
 20
44.3233
 11
4.6929
 21
44.5035
  0
LINE
  8
0
 10
4.6929
 20
44.5035
 11
4.72945
 21
44.6831
  0
LINE
  8
0
 10
4.72945
 20
44.6831
 11
4.7691
 21
44.862
  0
LINE
  8
0
 10
4.7691
 20
44.862
 11
4.81189
 21
45.0402
  0
LINE
  8
0
 10
4.81189
 20
45.0402
 11
4.85777
 21
45.2176
  0
LINE
  8
0
 10
4.85777
 20
45.2176
 11
4.90674
 21
45.3942
  0
LINE
  8
0
 10
4.90674
 20
45.3942
 11
4.95879
 21
45.5699
  0
LINE
  8
0
 10
4.95879
 20
45.5699
 11
5.0139
 21
45.7447
  0
LINE
  8
0
 10
5.0139
 20
45.7447
 11
5.07205
 21
45.9185
  0
LINE
  8
0
 10
5.07205
 20
45.9185
 11
5.13322
 21
46.0912
  0
LINE
  8
0
 10
5.13322
 20
46.0912
 11
5.1974
 21
46.2629
  0
LINE
  8
0
 10
5.1974
 20
46.2629
 11
5.26456
 21
46.4334
  0
LINE
  8
0
 10
5.26456
 20
46.4334
 11
5.33469
 21
46.6027
  0
LINE
  8
0
 10
5.33469
 20
46.6027
 11
5.40776
 21
46.7707
  0
LINE
  8
0
 10
5.40776
 20
46.7707
 11
5.48376
 21
46.9375
  0
LINE
  8
0
 10
5.48376
 20
46.9375
 11
5.56265
 21
47.1029
  0
LINE
  8
0
 10
5.56265
 20
47.1029
 11
5.64442
 21
47.2669
  0
LINE
  8
0
 10
5.64442
 20
47.2669
 11
5.72905
 21
47.4294
  0
LINE
  8
0
 10
5.72905
 20
47.4294
 11
5.81648
 21
47.5905
  0
LINE
  8
0
 10
5.81648
 20
47.5905
 11
5.90672
 21
47.75
  0
LINE
  8
0
 10
5.90672
 20
47.75
 11
5.99974
 21
47.9079
  0
LINE
  8
0
 10
5.99974
 20
47.9079
 11
6.09549
 21
48.0641
  0
LINE
  8
0
 10
6.09549
 20
48.0641
 11
6.19395
 21
48.2187
  0
LINE
  8
0
 10
6.19395
 20
48.2187
 11
6.2951
 21
48.3715
  0
LINE
  8
0
 10
6.2951
 20
48.3715
 11
6.3989
 21
48.5226
  0
LINE
  8
0
 10
6.3989
 20
48.5226
 11
6.50531
 21
48.6717
  0
LINE
  8
0
 10
6.50531
 20
48.6717
 11
6.61432
 21
48.819
  0
LINE
  8
0
 10
6.61432
 20
48.819
 11
6.72588
 21
48.9644
  0
LINE
  8
0
 10
6.72588
 20
48.9644
 11
6.83997
 21
49.1079
  0
LINE
  8
0
 10
6.83997
 20
49.1079
 11
6.95653
 21
49.2493
  0
LINE
  8
0
 10
6.95653
 20
49.2493
 11
7.07555
 21
49.3886
  0
LINE
  8
0
 10
7.07555
 20
49.3886
 11
7.19698
 21
49.5259
  0
LINE
  8
0
 10
7.19698
 20
49.5259
 11
7.32079
 21
49.661
  0
LINE
  8
0
 10
7.32079
 20
49.661
 11
7.44693
 21
49.7939
  0
LINE
  8
0
 10
7.44693
 20
49.7939
 11
7.57538
 21
49.9246
  0
LINE
  8
0
 10
7.57538
 20
49.9246
 11
7.70609
 21
50.0531
  0
LINE
  8
0
 10
7.70609
 20
50.0531
 11
7.839
 21
50.1792
  0
LINE
  8
0
 10
7.839
 20
50.1792
 11
7.97412
 21
50.303
  0
LINE
  8
0
 10
7.97412
 20
50.303
 11
8.11137
 21
50.4244
  0
LINE
  8
0
 10
8.11137
 20
50.4244
 11
8.25072
 21
50.5435
  0
LINE
  8
0
 10
8.25072
 20
50.5435
 11
8.39214
 21
50.66
  0
LINE
  8
0
 10
8.39214
 20
50.66
 11
8.53555
 21
50.7741
  0
LINE
  8
0
 10
8.53555
 20
50.7741
 11
8.68094
 21
50.8857
  0
LINE
  8
0
 10
8.68094
 20
50.8857
 11
8.82825
 21
50.9947
  0
LINE
  8
0
 10
8.82825
 20
50.9947
 11
8.97743
 21
51.1011
  0
LINE
  8
0
 10
8.97743
 20
51.1011
 11
9.12846
 21
51.2049
  0
LINE
  8
0
 10
9.12846
 20
51.2049
 11
9.28128
 21
51.306
  0
LINE
  8
0
 10
9.28128
 20
51.306
 11
9.43584
 21
51.4045
  0
LINE
  8
0
 10
9.43584
 20
51.4045
 11
9.59209
 21
51.5002
  0
LINE
  8
0
 10
9.59209
 20
51.5002
 11
9.75
 21
51.5933
  0
LINE
  8
0
 10
9.75
 20
51.5933
 11
9.90948
 21
51.6835
  0
LINE
  8
0
 10
9.90948
 20
51.6835
 11
10.0705
 21
51.771
  0
LINE
  8
0
 10
10.0705
 20
51.771
 11
10.2331
 21
51.8556
  0
LINE
  8
0
 10
10.2331
 20
51.8556
 11
10.3971
 21
51.9373
  0
LINE
  8
0
 10
10.3971
 20
51.9373
 11
10.5625
 21
52.0162
  0
LINE
  8
0
 10
10.5625
 20
52.0162
 11
10.7293
 21
52.0922
  0
LINE
  8
0
 10
10.7293
 20
52.0922
 11
10.8973
 21
52.1653
  0
LINE
  8
0
 10
10.8973
 20
52.1653
 11
11.0666
 21
52.2354
  0
LINE
  8
0
 10
11.0666
 20
52.2354
 11
11.2371
 21
52.3026
  0
LINE
  8
0
 10
11.2371
 20
52.3026
 11
11.4088
 21
52.3668
  0
LINE
  8
0
 10
11.4088
 20
52.3668
 11
11.5815
 21
52.4279
  0
LINE
  8
0
 10
11.5815
 20
52.4279
 11
11.7553
 21
52.4861
  0
LINE
  8
0
 10
11.7553
 20
52.4861
 11
11.9301
 21
52.5412
  0
LINE
  8
0
 10
11.9301
 20
52.5412
 11
12.1058
 21
52.5932
  0
LINE
  8
0
 10
12.1058
 20
52.5932
 11
12.2824
 21
52.6422
  0
LINE
  8
0
 10
12.2824
 20
52.6422
 11
12.4598
 21
52.6881
  0
LINE
  8
0
 10
12.4598
 20
52.6881
 11
12.638
 21
52.7309
  0
LINE
  8
0
 10
12.638
 20
52.7309
 11
12.8169
 21
52.7705
  0
LINE
  8
0
 10
12.8169
 20
52.7705
 11
12.9965
 21
52.8071
  0
LINE
  8
0
 10
12.9965
 20
52.8071
 11
13.1767
 21
52.8405
  0
LINE
  8
0
 10
13.1767
 20
52.8405
 11
13.3574
 21
52.8707
  0
LINE
  8
0
 10
13.3574
 20
52.8707
 11
13.5387
 21
52.8978
  0
LINE
  8
0
 10
13.5387
 20
52.8978
 11
13.7204
 21
52.9217
  0
LINE
  8
0
 10
13.7204
 20
52.9217
 11
13.9025
 21
52.9425
  0
LINE
  8
0
 10
13.9025
 20
52.9425
 11
14.0849
 21
52.96
  0
LINE
  8
0
 10
14.0849
 20
52.96
 11
14.2675
 21
52.9744
  0
LINE
  8
0
 10
14.2675
 20
52.9744
 11
14.4505
 21
52.9856
  0
LINE
  8
0
 10
14.4505
 20
52.9856
 11
14.6335
 21
52.9936
  0
LINE
  8
0
 10
14.6335
 20
52.9936
 11
14.8167
 21
52.9984
  0
LINE
  8
0
 10
14.8167
 20
52.9984
 11
15
 21
53
  0
LINE
  8
0
 10
15
 20
53
 11
15.1832
 21
52.9984
  0
LINE
  8
0
 10
15.1832
 20
52.9984
 11
15.3664
 21
52.9936
  0
LINE
  8
0
 10
15.3664
 20
52.9936
 11
15.5495
 21
52.9856
  0
LINE
  8
0
 10
15.5495
 20
52.9856
 11
15.7324
 21
52.9744
  0
LINE
  8
0
 10
15.7324
 20
52.9744
 11
15.9151
 21
52.96
  0
LINE
  8
0
 10
15.9151
 20
52.96
 11
16.0975
 21
52.9425
  0
LINE
  8
0
 10
16.0975
 20
52.9425
 11
16.2796
 21
52.9217
  0
LINE
  8
0
 10
16.2796
 20
52.9217
 11
16.4613
 21
52.8978
  0
LINE
  8
0
 10
16.4613
 20
52.8978
 11
16.6425
 21
52.8707
  0
LINE
  8
0
 10
16.6425
 20
52.8707
 11
16.8233
 21
52.8405
  0
LINE
  8
0
 10
16.8233
 20
52.8405
 11
17.0035
 21
52.8071
  0
LINE
  8
0
 10
17.0035
 20
52.8071
 11
17.1831
 21
52.7705
  0
LINE
  8
0
 10
17.1831
 20
52.7705
 11
17.362
 21
52.7309
  0
LINE
  8
0
 10
17.362
 20
52.7309
 11
17.5402
 21
52.6881
  0
LINE
  8
0
 10
17.5402
 20
52.6881
 11
17.7176
 21
52.6422
  0
LINE
  8
0
 10
17.7176
 20
52.6422
 11
17.8942
 21
52.5932
  0
LINE
  8
0
 10
17.8942
 20
52.5932
 11
18.0699
 21
52.5412
  0
LINE
  8
0
 10
18.0699
 20
52.5412
 11
18.2447
 21
52.4861
  0
LINE
  8
0
 10
18.2447
 20
52.4861
 11
18.4185
 21
52.4279
  0
LINE
  8
0
 10
18.4185
 20
52.4279
 11
18.5912
 21
52.3668
  0
LINE
  8
0
 10
18.5912
 20
52.3668
 11
18.7629
 21
52.3026
  0
LINE
  8
0
 10
18.7629
 20
52.3026
 11
18.9334
 21
52.2354
  0
LINE
  8
0
 10
18.9334
 20
52.2354
 11
19.1027
 21
52.1653
  0
LINE
  8
0
 10
19.1027
 20
52.1653
 11
19.2707
 21
52.0922
  0
LINE
  8
0
 10
19.2707
 20
52.0922
 11
19.4375
 21
52.0162
  0
LINE
  8
0
 10
19.4375
 20
52.0162
 11
19.6029
 21
51.9373
  0
LINE
  8
0
 10
19.6029
 20
51.9373
 11
19.7669
 21
51.8556
  0
LINE
  8
0
 10
19.7669
 20
51.8556
 11
19.9294
 21
51.771
  0
LINE
  8
0
 10
19.9294
 20
51.771
 11
20.0905
 21
51.6835
  0
LINE
  8
0
 10
20.0905
 20
51.6835
 11
20.25
 21
51.5933
  0
LINE
  8
0
 10
20.25
 20
51.5933
 11
20.4079
 21
51.5002
  0
LINE
  8
0
 10
20.4079
 20
51.5002
 11
20.5641
 21
51.4045
  0
LINE
  8
0
 10
20.5641
 20
51.4045
 11
20.7187
 21
51.306
  0
LINE
  8
0
 10
20.7187
 20
51.306
 11
20.8715
 21
51.2049
  0
LINE
  8
0
 10
20.8715
 20
51.2049
 11
21.0226
 21
51.1011
  0
LINE
  8
0
 10
21.0226
 20
51.1011
 11
21.1717
 21
50.9947
  0
LINE
  8
0
 10
21.1717
 20
50.9947
 11
21.319
 21
50.8857
  0
LINE
  8
0
 10
21.319
 20
50.8857
 11
21.4644
 21
50.7741
  0
LINE
  8
0
 10
21.4644
 20
50.7741
 11
21.6079
 21
50.66
  0
LINE
  8
0
 10
21.6079
 20
50.66
 11
21.7493
 21
50.5435
  0
LINE
  8
0
 10
21.7493
 20
50.5435
 11
21.8886
 21
50.4244
  0
LINE
  8
0
 10
21.8886
 20
50.4244
 11
22.0259
 21
50.303
  0
LINE
  8
0
 10
22.0259
 20
50.303
 11
22.161
 21
50.1792
  0
LINE
  8
0
 10
22.161
 20
50.1792
 11
22.2939
 21
50.0531
  0
LINE
  8
0
 10
22.2939
 20
50.0531
 11
22.4246
 21
49.9246
  0
LINE
  8
0
 10
22.4246
 20
49.9246
 11
22.5531
 21
49.7939
  0
LINE
  8
0
 10
22.5531
 20
49.7939
 11
22.6792
 21
49.661
  0
LINE
  8
0
 10
22.6792
 20
49.661
 11
22.803
 21
49.5259
  0
LINE
  8
0
 10
22.803
 20
49.5259
 11
22.9244
 21
49.3886
  0
LINE
  8
0
 10
22.9244
 20
49.3886
 11
23.0435
 21
49.2493
  0
LINE
  8
0
 10
23.0435
 20
49.2493
 11
23.16
 21
49.1079
  0
LINE
  8
0
 10
23.16
 20
49.1079
 11
23.2741
 21
48.9644
  0
LINE
  8
0
 10
23.2741
 20
48.9644
 11
23.3857
 21
48.819
  0
LINE
  8
0
 10
23.3857
 20
48.819
 11
23.4947
 21
48.6717
  0
LINE
  8
0
 10
23.4947
 20
48.6717
 11
23.6011
 21
48.5226
  0
LINE
  8
0
 10
23.6011
 20
48.5226
 11
23.7049
 21
48.3715
  0
LINE
  8
0
 10
23.7049
 20
48.3715
 11
23.806
 21
48.2187
  0
LINE
  8
0
 10
23.806
 20
48.2187
 11
23.9045
 21
48.0641
  0
LINE
  8
0
 10
23.9045
 20
48.0641
 11
24.0002
 21
47.9079
  0
LINE
  8
0
 10
24.0002
 20
47.9079
 11
24.0933
 21
47.75
  0
LINE
  8
0
 10
24.0933
 20
47.75
 11
24.1835
 21
47.5905
  0
LINE
  8
0
 10
24.1835
 20
47.5905
 11
24.271
 21
47.4294
  0
LINE
  8
0
 10
24.271
 20
47.4294
 11
24.3556
 21
47.2669
  0
LINE
  8
0
 10
24.3556
 20
47.2669
 11
24.4373
 21
47.1029
  0
LINE
  8
0
 10
24.4373
 20
47.1029
 11
24.5162
 21
46.9375
  0
LINE
  8
0
 10
24.5162
 20
46.9375
 11
24.5922
 21
46.7707
  0
LINE
  8
0
 10
24.5922
 20
46.7707
 11
24.6653
 21
46.6027
  0
LINE
  8
0
 10
24.6653
 20
46.6027
 11
24.7354
 21
46.4334
  0
LINE
  8
0
 10
24.7354
 20
46.4334
 11
24.8026
 21
46.2629
  0
LINE
  8
0
 10
24.8026
 20
46.2629
 11
24.8668
 21
46.0912
  0
LINE
  8
0
 10
24.8668
 20
46.0912
 11
24.9279
 21
45.9185
  0
LINE
  8
0
 10
24.9279
 20
45.9185
 11
24.9861
 21
45.7447
  0
LINE
  8
0
 10
24.9861
 20
45.7447
 11
25.0412
 21
45.5699
  0
LINE
  8
0
 10
25.0412
 20
45.5699
 11
25.0932
 21
45.3942
  0
LINE
  8
0
 10
25.0932
 20
45.3942
 11
25.1422
 21
45.2176
  0
LINE
  8
0
 10
25.1422
 20
45.2176
 11
25.1881
 21
45.0402
  0
LINE
  8
0
 10
25.1881
 20
45.0402
 11
25.2309
 21
44.862
  0
LINE
  8
0
 10
25.2309
 20
44.862
 11
25.2705
 21
44.6831
  0
LINE
  8
0
 10
25.2705
 20
44.6831
 11
25.3071
 21
44.5035
  0
LINE
  8
0
 10
25.3071
 20
44.5035
 11
25.3405
 21
44.3233
  0
LINE
  8
0
 10
25.3405
 20
44.3233
 11
25.3707
 21
44.1426
  0
LINE
  8
0
 10
25.3707
 20
44.1426
 11
25.3978
 21
43.9613
  0
LINE
  8
0
 10
25.3978
 20
43.9613
 11
25.4217
 21
43.7796
  0
LINE
  8
0
 10
25.4217
 20
43.7796
 11
25.4425
 21
43.5975
  0
LINE
  8
0
 10
25.4425
 20
43.5975
 11
25.46
 21
43.4151
  0
LINE
  8
0
 10
25.46
 20
43.4151
 11
25.4744
 21
43.2324
  0
LINE
  8
0
 10
25.4744
 20
43.2324
 11
25.4856
 21
43.0495
  0
LINE
  8
0
 10
25.4856
 20
43.0495
 11
25.4936
 21
42.8664
  0
LINE
  8
0
 10
25.4936
 20
42.8664
 11
25.4984
 21
42.6832
  0
LINE
  8
0
 10
25.4984
 20
42.6832
 11
25.5
 21
42.5
  0
LINE
  8
0
 10
25.5
 20
42.5
 11
25.4984
 21
42.3167
  0
LINE
  8
0
 10
25.4984
 20
42.3167
 11
25.4936
 21
42.1335
  0
LINE
  8
0
 10
25.4936
 20
42.1335
 11
25.4856
 21
41.9505
  0
LINE
  8
0
 10
25.4856
 20
41.9505
 11
25.4744
 21
41.7675
  0
LINE
  8
0
 10
25.4744
 20
41.7675
 11
25.46
 21
41.5849
  0
LINE
  8
0
 10
25.46
 20
41.5849
 11
25.4425
 21
41.4025
  0
LINE
  8
0
 10
25.4425
 20
41.4025
 11
25.4217
 21
41.2204
  0
LINE
  8
0
 10
25.4217
 20
41.2204
 11
25.3978
 21
41.0387
  0
LINE
  8
0
 10
25.3978
 20
41.0387
 11
25.3707
 21
40.8574
  0
LINE
  8
0
 10
25.3707
 20
40.8574
 11
25.3405
 21
40.6767
  0
LINE
  8
0
 10
25.3405
 20
40.6767
 11
25.3071
 21
40.4965
  0
LINE
  8
0
 10
25.3071
 20
40.4965
 11
25.2705
 21
40.3169
  0
LINE
  8
0
 10
25.2705
 20
40.3169
 11
25.2309
 21
40.138
  0
LINE
  8
0
 10
25.2309
 20
40.138
 11
25.1881
 21
39.9598
  0
LINE
  8
0
 10
25.1881
 20
39.9598
 11
25.1422
 21
39.7824
  0
LINE
  8
0
 10
25.1422
 20
39.7824
 11
25.0932
 21
39.6058
  0
LINE
  8
0
 10
25.0932
 20
39.6058
 11
25.0412
 21
39.4301
  0
LINE
  8
0
 10
25.0412
 20
39.4301
 11
24.9861
 21
39.2553
  0
LINE
  8
0
 10
24.9861
 20
39.2553
 11
24.9279
 21
39.0815
  0
LINE
  8
0
 10
24.9279
 20
39.0815
 11
24.8668
 21
38.9088
  0
LINE
  8
0
 10
24.8668
 20
38.9088
 11
24.8026
 21
38.7371
  0
LINE
  8
0
 10
24.8026
 20
38.7371
 11
24.7354
 21
38.5666
  0
LINE
  8
0
 10
24.7354
 20
38.5666
 11
24.6653
 21
38.3973
  0
LINE
  8
0
 10
24.6653
 20
38.3973
 11
24.5922
 21
38.2293
  0
LINE
  8
0
 10
24.5922
 20
38.2293
 11
24.5162
 21
38.0625
  0
LINE
  8
0
 10
24.5162
 20
38.0625
 11
24.4373
 21
37.8971
  0
LINE
  8
0
 10
24.4373
 20
37.8971
 11
24.3556
 21
37.7331
  0
LINE
  8
0
 10
24.3556
 20
37.7331
 11
24.271
 21
37.5705
  0
LINE
  8
0
 10
24.271
 20
37.5705
 11
24.1835
 21
37.4095
  0
LINE
  8
0
 10
24.1835
 20
37.4095
 11
24.0933
 21
37.25
  0
LINE
  8
0
 10
24.0933
 20
37.25
 11
24.0002
 21
37.0921
  0
LINE
  8
0
 10
24.0002
 20
37.0921
 11
23.9045
 21
36.9358
  0
LINE
  8
0
 10
23.9045
 20
36.9358
 11
23.806
 21
36.7813
  0
LINE
  8
0
 10
23.806
 20
36.7813
 11
23.7049
 21
36.6285
  0
LINE
  8
0
 10
23.7049
 20
36.6285
 11
23.6011
 21
36.4774
  0
LINE
  8
0
 10
23.6011
 20
36.4774
 11
23.4947
 21
36.3282
  0
LINE
  8
0
 10
23.4947
 20
36.3282
 11
23.3857
 21
36.1809
  0
LINE
  8
0
 10
23.3857
 20
36.1809
 11
23.2741
 21
36.0356
  0
LINE
  8
0
 10
23.2741
 20
36.0356
 11
23.16
 21
35.8921
  0
LINE
  8
0
 10
23.16
 20
35.8921
 11
23.0435
 21
35.7507
  0
LINE
  8
0
 10
23.0435
 20
35.7507
 11
22.9244
 21
35.6114
  0
LINE
  8
0
 10
22.9244
 20
35.6114
 11
22.803
 21
35.4741
  0
LINE
  8
0
 10
22.803
 20
35.4741
 11
22.6792
 21
35.339
  0
LINE
  8
0
 10
22.6792
 20
35.339
 11
22.5531
 21
35.2061
  0
LINE
  8
0
 10
22.5531
 20
35.2061
 11
22.4246
 21
35.0754
  0
LINE
  8
0
 10
22.4246
 20
35.0754
 11
22.2939
 21
34.9469
  0
LINE
  8
0
 10
22.2939
 20
34.9469
 11
22.161
 21
34.8208
  0
LINE
  8
0
 10
22.161
 20
34.8208
 11
22.0259
 21
34.697
  0
LINE
  8
0
 10
22.0259
 20
34.697
 11
21.8886
 21
34.5755
  0
LINE
  8
0
 10
21.8886
 20
34.5755
 11
21.7493
 21
34.4565
  0
LINE
  8
0
 10
21.7493
 20
34.4565
 11
21.6079
 21
34.34
  0
LINE
  8
0
 10
21.6079
 20
34.34
 11
21.4644
 21
34.2259
  0
LINE
  8
0
 10
21.4644
 20
34.2259
 11
21.319
 21
34.1143
  0
LINE
  8
0
 10
21.319
 20
34.1143
 11
21.1717
 21
34.0053
  0
LINE
  8
0
 10
21.1717
 20
34.0053
 11
21.0226
 21
33.8989
  0
LINE
  8
0
 10
21.0226
 20
33.8989
 11
20.8715
 21
33.7951
  0
LINE
  8
0
 10
20.8715
 20
33.7951
 11
20.7187
 21
33.694
  0
LINE
  8
0
 10
20.7187
 20
33.694
 11
20.5641
 21
33.5955
  0
LINE
  8
0
 10
20.5641
 20
33.5955
 11
20.4079
 21
33.4997
  0
LINE
  8
0
 10
20.4079
 20
33.4997
 11
20.25
 21
33.4067
  0
LINE
  8
0
 10
20.25
 20
33.4067
 11
20.0905
 21
33.3165
  0
LINE
  8
0
 10
20.0905
 20
33.3165
 11
19.9294
 21
33.229
  0
LINE
  8
0
 10
19.9294
 20
33.229
 11
19.7669
 21
33.1444
  0
LINE
  8
0
 10
19.7669
 20
33.1444
 11
19.6029
 21
33.0627
  0
LINE
  8
0
 10
19.6029
 20
33.0627
 11
19.4375
 21
32.9838
  0
LINE
  8
0
 10
19.4375
 20
32.9838
 11
19.2707
 21
32.9078
  0
LINE
  8
0
 10
19.2707
 20
32.9078
 11
19.1027
 21
32.8347
  0
LINE
  8
0
 10
19.1027
 20
32.8347
 11
18.9334
 21
32.7646
  0
LINE
  8
0
 10
18.9334
 20
32.7646
 11
18.7629
 21
32.6974
  0
LINE
  8
0
 10
18.7629
 20
32.6974
 11
18.5912
 21
32.6332
  0
LINE
  8
0
 10
18.5912
 20
32.6332
 11
18.4185
 21
32.5721
  0
LINE
  8
0
 10
18.4185
 20
32.5721
 11
18.2447
 21
32.5139
  0
LINE
  8
0
 10
18.2447
 20
32.5139
 11
18.0699
 21
32.4588
  0
LINE
  8
0
 10
18.0699
 20
32.4588
 11
17.8942
 21
32.4068
  0
LINE
  8
0
 10
17.8942
 20
32.4068
 11
17.7176
 21
32.3578
  0
LINE
  8
0
 10
17.7176
 20
32.3578
 11
17.5402
 21
32.3119
  0
LINE
  8
0
 10
17.5402
 20
32.3119
 11
17.362
 21
32.2691
  0
LINE
  8
0
 10
17.362
 20
32.2691
 11
17.1831
 21
32.2294
  0
LINE
  8
0
 10
17.1831
 20
32.2294
 11
17.0035
 21
32.1929
  0
LINE
  8
0
 10
17.0035
 20
32.1929
 11
16.8233
 21
32.1595
  0
LINE
  8
0
 10
16.8233
 20
32.1595
 11
16.6425
 21
32.1293
  0
LINE
  8
0
 10
16.6425
 20
32.1293
 11
16.4613
 21
32.1022
  0
LINE
  8
0
 10
16.4613
 20
32.1022
 11
16.2796
 21
32.0783
  0
LINE
  8
0
 10
16.2796
 20
32.0783
 11
16.0975
 21
32.0575
  0
LINE
  8
0
 10
16.0975
 20
32.0575
 11
15.9151
 21
32.0399
  0
LINE
  8
0
 10
15.9151
 20
32.0399
 11
15.7324
 21
32.0256
  0
LINE
  8
0
 10
15.7324
 20
32.0256
 11
15.5495
 21
32.0144
  0
LINE
  8
0
 10
15.5495
 20
32.0144
 11
15.3664
 21
32.0064
  0
LINE
  8
0
 10
15.3664
 20
32.0064
 11
15.1832
 21
32.0016
  0
LINE
  8
0
 10
15.1832
 20
32.0016
 11
15
 21
32
  0
LINE
  8
0
 10
15
 20
32
 11
14.8167
 21
32.0016
  0
LINE
  8
0
 10
18.9302
 20
8.5006
 11
18.8604
 21
8.50243
  0
LINE
  8
0
 10
18.8604
 20
8.50243
 11
18.7906
 21
8.50548
  0
LINE
  8
0
 10
18.7906
 20
8.50548
 11
18.721
 21
8.50974
  0
LINE
  8
0
 10
18.721
 20
8.50974
 11
18.6514
 21
8.51521
  0
LINE
  8
0
 10
18.6514
 20
8.51521
 11
18.5819
 21
8.52191
  0
LINE
  8
0
 10
18.5819
 20
8.52191
 11
18.5125
 21
8.52982
  0
LINE
  8
0
 10
18.5125
 20
8.52982
 11
18.4433
 21
8.53893
  0
LINE
  8
0
 10
18.4433
 20
8.53893
 11
18.3743
 21
8.54924
  0
LINE
  8
0
 10
18.3743
 20
8.54924
 11
18.3054
 21
8.56076
  0
LINE
  8
0
 10
18.3054
 20
8.56076
 11
18.2368
 21
8.57349
  0
LINE
  8
0
 10
18.2368
 20
8.57349
 11
18.1684
 21
8.5874
  0
LINE
  8
0
 10
18.1684
 20
8.5874
 11
18.1002
 21
8.60251
  0
LINE
  8
0
 10
18.1002
 20
8.60251
 11
18.0323
 21
8.6188
  0
LINE
  8
0
 10
18.0323
 20
8.6188
 11
17.9647
 21
8.63629
  0
LINE
  8
0
 10
17.9647
 20
8.63629
 11
17.8974
 21
8.65495
  0
LINE
  8
0
 10
17.8974
 20
8.65495
 11
17.8305
 21
8.67477
  0
LINE
  8
0
 10
17.8305
 20
8.67477
 11
17.7639
 21
8.69577
  0
LINE
  8
0
 10
17.7639
 20
8.69577
 11
17.6977
 21
8.71793
  0
LINE
  8
0
 10
17.6977
 20
8.71793
 11
17.6319
 21
8.74123
  0
LINE
  8
0
 10
17.6319
 20
8.74123
 11
17.5665
 21
8.76567
  0
LINE
  8
0
 10
17.5665
 20
8.76567
 11
17.5016
 21
8.79126
  0
LINE
  8
0
 10
17.5016
 20
8.79126
 11
17.4371
 21
8.81798
  0
LINE
  8
0
 10
17.4371
 20
8.81798
 11
17.373
 21
8.84581
  0
LINE
  8
0
 10
17.373
 20
8.84581
 11
17.3095
 21
8.87476
  0
LINE
  8
0
 10
17.3095
 20
8.87476
 11
17.2465
 21
8.90482
  0
LINE
  8
0
 10
17.2465
 20
8.90482
 11
17.184
 21
8.93597
  0
LINE
  8
0
 10
17.184
 20
8.93597
 11
17.1221
 21
8.9682
  0
LINE
  8
0
 10
17.1221
 20
8.9682
 11
17.0608
 21
9.00151
  0
LINE
  8
0
 10
17.0608
 20
9.00151
 11
17
 21
9.03589
  0
LINE
  8
0
 10
17
 20
9.03589
 11
16.9398
 21
9.07132
  0
LINE
  8
0
 10
16.9398
 20
9.07132
 11
16.8803
 21
9.1078
  0
LINE
  8
0
 10
16.8803
 20
9.1078
 11
16.8214
 21
9.14531
  0
LINE
  8
0
 10
16.8214
 20
9.14531
 11
16.7632
 21
9.18384
  0
LINE
  8
0
 10
16.7632
 20
9.18384
 11
16.7057
 21
9.22339
  0
LINE
  8
0
 10
16.7057
 20
9.22339
 11
16.6488
 21
9.26393
  0
LINE
  8
0
 10
16.6488
 20
9.26393
 11
16.5927
 21
9.30545
  0
LINE
  8
0
 10
16.5927
 20
9.30545
 11
16.5374
 21
9.34795
  0
LINE
  8
0
 10
16.5374
 20
9.34795
 11
16.4827
 21
9.3914
  0
LINE
  8
0
 10
16.4827
 20
9.3914
 11
16.4288
 21
9.43582
  0
LINE
  8
0
 10
16.4288
 20
9.43582
 11
16.3758
 21
9.48116
  0
LINE
  8
0
 10
16.3758
 20
9.48116
 11
16.3235
 21
9.52742
  0
LINE
  8
0
 10
16.3235
 20
9.52742
 11
16.272
 21
9.57458
  0
LINE
  8
0
 10
16.272
 20
9.57458
 11
16.2214
 21
9.62263
  0
LINE
  8
0
 10
16.2214
 20
9.62263
 11
16.1716
 21
9.67157
  0
LINE
  8
0
 10
16.1716
 20
9.67157
 11
16.1226
 21
9.72136
  0
LINE
  8
0
 10
16.1226
 20
9.72136
 11
16.0746
 21
9.772
  0
LINE
  8
0
 10
16.0746
 20
9.772
 11
16.0274
 21
9.82347
  0
LINE
  8
0
 10
16.0274
 20
9.82347
 11
15.9812
 21
9.87576
  0
LINE
  8
0
 10
15.9812
 20
9.87576
 11
15.9358
 21
9.92885
  0
LINE
  8
0
 10
15.9358
 20
9.92885
 11
15.8914
 21
9.98271
  0
LINE
  8
0
 10
15.8914
 20
9.98271
 11
15.8479
 21
10.0374
  0
LINE
  8
0
 10
15.8479
 20
10.0374
 11
15.8055
 21
10.0927
  0
LINE
  8
0
 10
15.8055
 20
10.0927
 11
15.7639
 21
10.1488
  0
LINE
  8
0
 10
15.7639
 20
10.1488
 11
15.7234
 21
10.2057
  0
LINE
  8
0
 10
15.7234
 20
10.2057
 11
15.6838
 21
10.2632
  0
LINE
  8
0
 10
15.6838
 20
10.2632
 11
15.6453
 21
10.3214
  0
LINE
  8
0
 10
15.6453
 20
10.3214
 11
15.6078
 21
10.3803
  0
LINE
  8
0
 10
15.6078
 20
10.3803
 11
15.5713
 21
10.4398
  0
LINE
  8
0
 10
15.5713
 20
10.4398
 11
15.5359
 21
10.5
  0
LINE
  8
0
 10
15.5359
 20
10.5
 11
15.5015
 21
10.5608
  0
LINE
  8
0
 10
15.5015
 20
10.5608
 11
15.4682
 21
10.6221
  0
LINE
  8
0
 10
15.4682
 20
10.6221
 11
15.436
 21
10.684
  0
LINE
  8
0
 10
15.436
 20
10.684
 11
15.4048
 21
10.7465
  0
LINE
  8
0
 10
15.4048
 20
10.7465
 11
15.3748
 21
10.8095
  0
LINE
  8
0
 10
15.3748
 20
10.8095
 11
15.3458
 21
10.873
  0
LINE
  8
0
 10
15.3458
 20
10.873
 11
15.318
 21
10.9371
  0
LINE
  8
0
 10
15.318
 20
10.9371
 11
15.2913
 21
11.0016
  0
LINE
  8
0
 10
15.2913
 20
11.0016
 11
15.2657
 21
11.0665
  0
LINE
  8
0
 10
15.2657
 20
11.0665
 11
15.2412
 21
11.1319
  0
LINE
  8
0
 10
15.2412
 20
11.1319
 11
15.2179
 21
11.1977
  0
LINE
  8
0
 10
15.2179
 20
11.1977
 11
15.1958
 21
11.2639
  0
LINE
  8
0
 10
15.1958
 20
11.2639
 11
15.1748
 21
11.3305
  0
LINE
  8
0
 10
15.1748
 20
11.3305
 11
15.155
 21
11.3974
  0
LINE
  8
0
 10
15.155
 20
11.3974
 11
15.1363
 21
11.4647
  0
LINE
  8
0
 10
15.1363
 20
11.4647
 11
15.1188
 21
11.5323
  0
LINE
  8
0
 10
15.1188
 20
11.5323
 11
15.1025
 21
11.6002
  0
LINE
  8
0
 10
15.1025
 20
11.6002
 11
15.0874
 21
11.6684
  0
LINE
  8
0
 10
15.0874
 20
11.6684
 11
15.0735
 21
11.7368
  0
LINE
  8
0
 10
15.0735
 20
11.7368
 11
15.0608
 21
11.8054
  0
LINE
  8
0
 10
15.0608
 20
11.8054
 11
15.0492
 21
11.8743
  0
LINE
  8
0
 10
15.0492
 20
11.8743
 11
15.0389
 21
11.9433
  0
LINE
  8
0
 10
15.0389
 20
11.9433
 11
15.0298
 21
12.0125
  0
LINE
  8
0
 10
15.0298
 20
12.0125
 11
15.0219
 21
12.0819
  0
LINE
  8
0
 10
15.0219
 20
12.0819
 11
15.0152
 21
12.1514
  0
LINE
  8
0
 10
15.0152
 20
12.1514
 11
15.0097
 21
12.221
  0
LINE
  8
0
 10
15.0097
 20
12.221
 11
15.0055
 21
12.2906
  0
LINE
  8
0
 10
15.0055
 20
12.2906
 11
15.0024
 21
12.3604
  0
LINE
  8
0
 10
15.0024
 20
12.3604
 11
15.0006
 21
12.4302
  0
LINE
  8
0
 10
15.0006
 20
12.4302
 11
15
 21
12.5
  0
LINE
  8
0
 10
15
 20
12.5
 11
15.0006
 21
12.5698
  0
LINE
  8
0
 10
15.0006
 20
12.5698
 11
15.0024
 21
12.6396
  0
LINE
  8
0
 10
15.0024
 20
12.6396
 11
15.0055
 21
12.7093
  0
LINE
  8
0
 10
15.0055
 20
12.7093
 11
15.0097
 21
12.779
  0
LINE
  8
0
 10
15.0097
 20
12.779
 11
15.0152
 21
12.8486
  0
LINE
  8
0
 10
15.0152
 20
12.8486
 11
15.0219
 21
12.9181
  0
LINE
  8
0
 10
15.0219
 20
12.9181
 11
15.0298
 21
12.9875
  0
LINE
  8
0
 10
15.0298
 20
12.9875
 11
15.0389
 21
13.0567
  0
LINE
  8
0
 10
15.0389
 20
13.0567
 11
15.0492
 21
13.1257
  0
LINE
  8
0
 10
15.0492
 20
13.1257
 11
15.0608
 21
13.1946
  0
LINE
  8
0
 10
15.0608
 20
13.1946
 11
15.0735
 21
13.2632
  0
LINE
  8
0
 10
15.0735
 20
13.2632
 11
15.0874
 21
13.3316
  0
LINE
  8
0
 10
15.0874
 20
13.3316
 11
15.1025
 21
13.3998
  0
LINE
  8
0
 10
15.1025
 20
13.3998
 11
15.1188
 21
13.4677
  0
LINE
  8
0
 10
15.1188
 20
13.4677
 11
15.1363
 21
13.5353
  0
LINE
  8
0
 10
15.1363
 20
13.5353
 11
15.155
 21
13.6025
  0
LINE
  8
0
 10
15.155
 20
13.6025
 11
15.1748
 21
13.6695
  0
LINE
  8
0
 10
15.1748
 20
13.6695
 11
15.1958
 21
13.7361
  0
LINE
  8
0
 10
15.1958
 20
13.7361
 11
15.2179
 21
13.8023
  0
LINE
  8
0
 10
15.2179
 20
13.8023
 11
15.2412
 21
13.8681
  0
LINE
  8
0
 10
15.2412
 20
13.8681
 11
15.2657
 21
13.9335
  0
LINE
  8
0
 10
15.2657
 20
13.9335
 11
15.2913
 21
13.9984
  0
LINE
  8
0
 10
15.2913
 20
13.9984
 11
15.318
 21
14.0629
  0
LINE
  8
0
 10
15.318
 20
14.0629
 11
15.3458
 21
14.1269
  0
LINE
  8
0
 10
15.3458
 20
14.1269
 11
15.3748
 21
14.1905
  0
LINE
  8
0
 10
15.3748
 20
14.1905
 11
15.4048
 21
14.2535
  0
LINE
  8
0
 10
15.4048
 20
14.2535
 11
15.436
 21
14.3159
  0
LINE
  8
0
 10
15.436
 20
14.3159
 11
15.4682
 21
14.3779
  0
LINE
  8
0
 10
15.4682
 20
14.3779
 11
15.5015
 21
14.4392
  0
LINE
  8
0
 10
15.5015
 20
14.4392
 11
15.5359
 21
14.5
  0
LINE
  8
0
 10
15.5359
 20
14.5
 11
15.5713
 21
14.5602
  0
LINE
  8
0
 10
15.5713
 20
14.5602
 11
15.6078
 21
14.6197
  0
LINE
  8
0
 10
15.6078
 20
14.6197
 11
15.6453
 21
14.6785
  0
LINE
  8
0
 10
15.6453
 20
14.6785
 11
15.6838
 21
14.7368
  0
LINE
  8
0
 10
15.6838
 20
14.7368
 11
15.7234
 21
14.7943
  0
LINE
  8
0
 10
15.7234
 20
14.7943
 11
15.7639
 21
14.8511
  0
LINE
  8
0
 10
15.7639
 20
14.8511
 11
15.8055
 21
14.9073
  0
LINE
  8
0
 10
15.8055
 20
14.9073
 11
15.8479
 21
14.9626
  0
LINE
  8
0
 10
15.8479
 20
14.9626
 11
15.8914
 21
15.0173
  0
LINE
  8
0
 10
15.8914
 20
15.0173
 11
15.9358
 21
15.0711
  0
LINE
  8
0
 10
15.9358
 20
15.0711
 11
15.9812
 21
15.1242
  0
LINE
  8
0
 10
15.9812
 20
15.1242
 11
16.0274
 21
15.1765
  0
LINE
  8
0
 10
16.0274
 20
15.1765
 11
16.0746
 21
15.228
  0
LINE
  8
0
 10
16.0746
 20
15.228
 11
16.1226
 21
15.2786
  0
LINE
  8
0
 10
16.1226
 20
15.2786
 11
16.1716
 21
15.3284
  0
LINE
  8
0
 10
16.1716
 20
15.3284
 11
16.2214
 21
15.3773
  0
LINE
  8
0
 10
16.2214
 20
15.3773
 11
16.272
 21
15.4254
  0
LINE
  8
0
 10
16.272
 20
15.4254
 11
16.3235
 21
15.4726
  0
LINE
  8
0
 10
16.3235
 20
15.4726
 11
16.3758
 21
15.5188
  0
LINE
  8
0
 10
16.3758
 20
15.5188
 11
16.4288
 21
15.5642
  0
LINE
  8
0
 10
16.4288
 20
15.5642
 11
16.4827
 21
15.6086
  0
LINE
  8
0
 10
16.4827
 20
15.6086
 11
16.5374
 21
15.652
  0
LINE
  8
0
 10
16.5374
 20
15.652
 11
16.5927
 21
15.6945
  0
LINE
  8
0
 10
16.5927
 20
15.6945
 11
16.6488
 21
15.7361
  0
LINE
  8
0
 10
16.6488
 20
15.7361
 11
16.7057
 21
15.7766
  0
LINE
  8
0
 10
16.7057
 20
15.7766
 11
16.7632
 21
15.8161
  0
LINE
  8
0
 10
16.7632
 20
15.8161
 11
16.8214
 21
15.8547
  0
LINE
  8
0
 10
16.8214
 20
15.8547
 11
16.8803
 21
15.8922
  0
LINE
  8
0
 10
16.8803
 20
15.8922
 11
16.9398
 21
15.9287
  0
LINE
  8
0
 10
16.9398
 20
15.9287
 11
17
 21
15.9641
  0
LINE
  8
0
 10
17
 20
15.9641
 11
17.0608
 21
15.9985
  0
LINE
  8
0
 10
17.0608
 20
15.9985
 11
17.1221
 21
16.0318
  0
LINE
  8
0
 10
17.1221
 20
16.0318
 11
17.184
 21
16.064
  0
LINE
  8
0
 10
17.184
 20
16.064
 11
17.2465
 21
16.0952
  0
LINE
  8
0
 10
17.2465
 20
16.0952
 11
17.3095
 21
16.1252
  0
LINE
  8
0
 10
17.3095
 20
16.1252
 11
17.373
 21
16.1542
  0
LINE
  8
0
 10
17.373
 20
16.1542
 11
17.4371
 21
16.182
  0
LINE
  8
0
 10
17.4371
 20
16.182
 11
17.5016
 21
16.2087
  0
LINE
  8
0
 10
17.5016
 20
16.2087
 11
17.5665
 21
16.2343
  0
LINE
  8
0
 10
17.5665
 20
16.2343
 11
17.6319
 21
16.2588
  0
LINE
  8
0
 10
17.6319
 20
16.2588
 11
17.6977
 21
16.2821
  0
LINE
  8
0
 10
17.6977
 20
16.2821
 11
17.7639
 21
16.3042
  0
LINE
  8
0
 10
17.7639
 20
16.3042
 11
17.8305
 21
16.3252
  0
LINE
  8
0
 10
17.8305
 20
16.3252
 11
17.8974
 21
16.345
  0
LINE
  8
0
 10
17.8974
 20
16.345
 11
17.9647
 21
16.3637
  0
LINE
  8
0
 10
17.9647
 20
16.3637
 11
18.0323
 21
16.3812
  0
LINE
  8
0
 10
18.0323
 20
16.3812
 11
18.1002
 21
16.3975
  0
LINE
  8
0
 10
18.1002
 20
16.3975
 11
18.1684
 21
16.4126
  0
LINE
  8
0
 10
18.1684
 20
16.4126
 11
18.2368
 21
16.4265
  0
LINE
  8
0
 10
18.2368
 20
16.4265
 11
18.3054
 21
16.4392
  0
LINE
  8
0
 10
18.3054
 20
16.4392
 11
18.3743
 21
16.4507
  0
LINE
  8
0
 10
18.3743
 20
16.4507
 11
18.4433
 21
16.4611
  0
LINE
  8
0
 10
18.4433
 20
16.4611
 11
18.5125
 21
16.4702
  0
LINE
  8
0
 10
18.5125
 20
16.4702
 11
18.5819
 21
16.4781
  0
LINE
  8
0
 10
18.5819
 20
16.4781
 11
18.6514
 21
16.4848
  0
LINE
  8
0
 10
18.6514
 20
16.4848
 11
18.721
 21
16.4902
  0
LINE
  8
0
 10
18.721
 20
16.4902
 11
18.7906
 21
16.4945
  0
LINE
  8
0
 10
18.7906
 20
16.4945
 11
18.8604
 21
16.4976
  0
LINE
  8
0
 10
18.8604
 20
16.4976
 11
18.9302
 21
16.4994
  0
LINE
  8
0
 10
18.9302
 20
16.4994
 11
19
 21
16.5
  0
LINE
  8
0
 10
19
 20
16.5
 11
19.0698
 21
16.4994
  0
LINE
  8
0
 10
19.0698
 20
16.4994
 11
19.1396
 21
16.4976
  0
LINE
  8
0
 10
19.1396
 20
16.4976
 11
19.2093
 21
16.4945
  0
LINE
  8
0
 10
19.2093
 20
16.4945
 11
19.279
 21
16.4902
  0
LINE
  8
0
 10
19.279
 20
16.4902
 11
19.3486
 21
16.4848
  0
LINE
  8
0
 10
19.3486
 20
16.4848
 11
19.4181
 21
16.4781
  0
LINE
  8
0
 10
19.4181
 20
16.4781
 11
19.4875
 21
16.4702
  0
LINE
  8
0
 10
19.4875
 20
16.4702
 11
19.5567
 21
16.4611
  0
LINE
  8
0
 10
19.5567
 20
16.4611
 11
19.6257
 21
16.4507
  0
LINE
  8
0
 10
19.6257
 20
16.4507
 11
19.6946
 21
16.4392
  0
LINE
  8
0
 10
19.6946
 20
16.4392
 11
19.7632
 21
16.4265
  0
LINE
  8
0
 10
19.7632
 20
16.4265
 11
19.8316
 21
16.4126
  0
LINE
  8
0
 10
19.8316
 20
16.4126
 11
19.8998
 21
16.3975
  0
LINE
  8
0
 10
19.8998
 20
16.3975
 11
19.9677
 21
16.3812
  0
LINE
  8
0
 10
19.9677
 20
16.3812
 11
20.0353
 21
16.3637
  0
LINE
  8
0
 10
20.0353
 20
16.3637
 11
20.1025
 21
16.345
  0
LINE
  8
0
 10
20.1025
 20
16.345
 11
20.1695
 21
16.3252
  0
LINE
  8
0
 10
20.1695
 20
16.3252
 11
20.2361
 21
16.3042
  0
LINE
  8
0
 10
20.2361
 20
16.3042
 11
20.3023
 21
16.2821
  0
LINE
  8
0
 10
20.3023
 20
16.2821
 11
20.3681
 21
16.2588
  0
LINE
  8
0
 10
20.3681
 20
16.2588
 11
20.4335
 21
16.2343
  0
LINE
  8
0
 10
20.4335
 20
16.2343
 11
20.4984
 21
16.2087
  0
LINE
  8
0
 10
20.4984
 20
16.2087
 11
20.5629
 21
16.182
  0
LINE
  8
0
 10
20.5629
 20
16.182
 11
20.6269
 21
16.1542
  0
LINE
  8
0
 10
20.6269
 20
16.1542
 11
20.6905
 21
16.1252
  0
LINE
  8
0
 10
20.6905
 20
16.1252
 11
20.7535
 21
16.0952
  0
LINE
  8
0
 10
20.7535
 20
16.0952
 11
20.8159
 21
16.064
  0
LINE
  8
0
 10
20.8159
 20
16.064
 11
20.8779
 21
16.0318
  0
LINE
  8
0
 10
20.8779
 20
16.0318
 11
20.9392
 21
15.9985
  0
LINE
  8
0
 10
20.9392
 20
15.9985
 11
21
 21
15.9641
  0
LINE
  8
0
 10
21
 20
15.9641
 11
21.0602
 21
15.9287
  0
LINE
  8
0
 10
21.0602
 20
15.9287
 11
21.1197
 21
15.8922
  0
LINE
  8
0
 10
21.1197
 20
15.8922
 11
21.1785
 21
15.8547
  0
LINE
  8
0
 10
21.1785
 20
15.8547
 11
21.2368
 21
15.8161
  0
LINE
  8
0
 10
21.2368
 20
15.8161
 11
21.2943
 21
15.7766
  0
LINE
  8
0
 10
21.2943
 20
15.7766
 11
21.3511
 21
15.7361
  0
LINE
  8
0
 10
21.3511
 20
15.7361
 11
21.4073
 21
15.6945
  0
LINE
  8
0
 10
21.4073
 20
15.6945
 11
21.4626
 21
15.652
  0
LINE
  8
0
 10
21.4626
 20
15.652
 11
21.5173
 21
15.6086
  0
LINE
  8
0
 10
21.5173
 20
15.6086
 11
21.5711
 21
15.5642
  0
LINE
  8
0
 10
21.5711
 20
15.5642
 11
21.6242
 21
15.5188
  0
LINE
  8
0
 10
21.6242
 20
15.5188
 11
21.6765
 21
15.4726
  0
LINE
  8
0
 10
21.6765
 20
15.4726
 11
21.728
 21
15.4254
  0
LINE
  8
0
 10
21.728
 20
15.4254
 11
21.7786
 21
15.3773
  0
LINE
  8
0
 10
21.7786
 20
15.3773
 11
21.8284
 21
15.3284
  0
LINE
  8
0
 10
21.8284
 20
15.3284
 11
21.8773
 21
15.2786
  0
LINE
  8
0
 10
21.8773
 20
15.2786
 11
21.9254
 21
15.228
  0
LINE
  8
0
 10
21.9254
 20
15.228
 11
21.9726
 21
15.1765
  0
LINE
  8
0
 10
21.9726
 20
15.1765
 11
22.0188
 21
15.1242
  0
LINE
  8
0
 10
22.0188
 20
15.1242
 11
22.0642
 21
15.0711
  0
LINE
  8
0
 10
22.0642
 20
15.0711
 11
22.1086
 21
15.0173
  0
LINE
  8
0
 10
22.1086
 20
15.0173
 11
22.152
 21
14.9626
  0
LINE
  8
0
 10
22.152
 20
14.9626
 11
22.1945
 21
14.9073
  0
LINE
  8
0
 10
22.1945
 20
14.9073
 11
22.2361
 21
14.8511
  0
LINE
  8
0
 10
22.2361
 20
14.8511
 11
22.2766
 21
14.7943
  0
LINE
  8
0
 10
22.2766
 20
14.7943
 11
22.3161
 21
14.7368
  0
LINE
  8
0
 10
22.3161
 20
14.7368
 11
22.3547
 21
14.6785
  0
LINE
  8
0
 10
22.3547
 20
14.6785
 11
22.3922
 21
14.6197
  0
LINE
  8
0
 10
22.3922
 20
14.6197
 11
22.4287
 21
14.5602
  0
LINE
  8
0
 10
22.4287
 20
14.5602
 11
22.4641
 21
14.5
  0
LINE
  8
0
 10
22.4641
 20
14.5
 11
22.4985
 21
14.4392
  0
LINE
  8
0
 10
22.4985
 20
14.4392
 11
22.5318
 21
14.3779
  0
LINE
  8
0
 10
22.5318
 20
14.3779
 11
22.564
 21
14.3159
  0
LINE
  8
0
 10
22.564
 20
14.3159
 11
22.5952
 21
14.2535
  0
LINE
  8
0
 10
22.5952
 20
14.2535
 11
22.6252
 21
14.1905
  0
LINE
  8
0
 10
22.6252
 20
14.1905
 11
22.6542
 21
14.1269
  0
LINE
  8
0
 10
22.6542
 20
14.1269
 11
22.682
 21
14.0629
  0
LINE
  8
0
 10
22.682
 20
14.0629
 11
22.7087
 21
13.9984
  0
LINE
  8
0
 10
22.7087
 20
13.9984
 11
22.7343
 21
13.9335
  0
LINE
  8
0
 10
22.7343
 20
13.9335
 11
22.7588
 21
13.8681
  0
LINE
  8
0
 10
22.7588
 20
13.8681
 11
22.7821
 21
13.8023
  0
LINE
  8
0
 10
22.7821
 20
13.8023
 11
22.8042
 21
13.7361
  0
LINE
  8
0
 10
22.8042
 20
13.7361
 11
22.8252
 21
13.6695
  0
LINE
  8
0
 10
22.8252
 20
13.6695
 11
22.845
 21
13.6025
  0
LINE
  8
0
 10
22.845
 20
13.6025
 11
22.8637
 21
13.5353
  0
LINE
  8
0
 10
22.8637
 20
13.5353
 11
22.8812
 21
13.4677
  0
LINE
  8
0
 10
22.8812
 20
13.4677
 11
22.8975
 21
13.3998
  0
LINE
  8
0
 10
22.8975
 20
13.3998
 11
22.9126
 21
13.3316
  0
LINE
  8
0
 10
22.9126
 20
13.3316
 11
22.9265
 21
13.2632
  0
LINE
  8
0
 10
22.9265
 20
13.2632
 11
22.9392
 21
13.1946
  0
LINE
  8
0
 10
22.9392
 20
13.1946
 11
22.9507
 21
13.1257
  0
LINE
  8
0
 10
22.9507
 20
13.1257
 11
22.9611
 21
13.0567
  0
LINE
  8
0
 10
22.9611
 20
13.0567
 11
22.9702
 21
12.9875
  0
LINE
  8
0
 10
22.9702
 20
12.9875
 11
22.9781
 21
12.9181
  0
LINE
  8
0
 10
22.9781
 20
12.9181
 11
22.9848
 21
12.8486
  0
LINE
  8
0
 10
22.9848
 20
12.8486
 11
22.9902
 21
12.779
  0
LINE
  8
0
 10
22.9902
 20
12.779
 11
22.9945
 21
12.7093
  0
LINE
  8
0
 10
22.9945
 20
12.7093
 11
22.9976
 21
12.6396
  0
LINE
  8
0
 10
22.9976
 20
12.6396
 11
22.9994
 21
12.5698
  0
LINE
  8
0
 10
22.9994
 20
12.5698
 11
23
 21
12.5
  0
LINE
  8
0
 10
23
 20
12.5
 11
22.9994
 21
12.4302
  0
LINE
  8
0
 10
22.9994
 20
12.4302
 11
22.9976
 21
12.3604
  0
LINE
  8
0
 10
22.9976
 20
12.3604
 11
22.9945
 21
12.2906
  0
LINE
  8
0
 10
22.9945
 20
12.2906
 11
22.9902
 21
12.221
  0
LINE
  8
0
 10
22.9902
 20
12.221
 11
22.9848
 21
12.1514
  0
LINE
  8
0
 10
22.9848
 20
12.1514
 11
22.9781
 21
12.0819
  0
LINE
  8
0
 10
22.9781
 20
12.0819
 11
22.9702
 21
12.0125
  0
LINE
  8
0
 10
22.9702
 20
12.0125
 11
22.9611
 21
11.9433
  0
LINE
  8
0
 10
22.9611
 20
11.9433
 11
22.9507
 21
11.8743
  0
LINE
  8
0
 10
22.9507
 20
11.8743
 11
22.9392
 21
11.8054
  0
LINE
  8
0
 10
22.9392
 20
11.8054
 11
22.9265
 21
11.7368
  0
LINE
  8
0
 10
22.9265
 20
11.7368
 11
22.9126
 21
11.6684
  0
LINE
  8
0
 10
22.9126
 20
11.6684
 11
22.8975
 21
11.6002
  0
LINE
  8
0
 10
22.8975
 20
11.6002
 11
22.8812
 21
11.5323
  0
LINE
  8
0
 10
22.8812
 20
11.5323
 11
22.8637
 21
11.4647
  0
LINE
  8
0
 10
22.8637
 20
11.4647
 11
22.845
 21
11.3974
  0
LINE
  8
0
 10
22.845
 20
11.3974
 11
22.8252
 21
11.3305
  0
LINE
  8
0
 10
22.8252
 20
11.3305
 11
22.8042
 21
11.2639
  0
LINE
  8
0
 10
22.8042
 20
11.2639
 11
22.7821
 21
11.1977
  0
LINE
  8
0
 10
22.7821
 20
11.1977
 11
22.7588
 21
11.1319
  0
LINE
  8
0
 10
22.7588
 20
11.1319
 11
22.7343
 21
11.0665
  0
LINE
  8
0
 10
22.7343
 20
11.0665
 11
22.7087
 21
11.0016
  0
LINE
  8
0
 10
22.7087
 20
11.0016
 11
22.682
 21
10.9371
  0
LINE
  8
0
 10
22.682
 20
10.9371
 11
22.6542
 21
10.873
  0
LINE
  8
0
 10
22.6542
 20
10.873
 11
22.6252
 21
10.8095
  0
LINE
  8
0
 10
22.6252
 20
10.8095
 11
22.5952
 21
10.7465
  0
LINE
  8
0
 10
22.5952
 20
10.7465
 11
22.564
 21
10.684
  0
LINE
  8
0
 10
22.564
 20
10.684
 11
22.5318
 21
10.6221
  0
LINE
  8
0
 10
22.5318
 20
10.6221
 11
22.4985
 21
10.5608
  0
LINE
  8
0
 10
22.4985
 20
10.5608
 11
22.4641
 21
10.5
  0
LINE
  8
0
 10
22.4641
 20
10.5
 11
22.4287
 21
10.4398
  0
LINE
  8
0
 10
22.4287
 20
10.4398
 11
22.3922
 21
10.3803
  0
LINE
  8
0
 10
22.3922
 20
10.3803
 11
22.3547
 21
10.3214
  0
LINE
  8
0
 10
22.3547
 20
10.3214
 11
22.3161
 21
10.2632
  0
LINE
  8
0
 10
22.3161
 20
10.2632
 11
22.2766
 21
10.2057
  0
LINE
  8
0
 10
22.2766
 20
10.2057
 11
22.2361
 21
10.1488
  0
LINE
  8
0
 10
22.2361
 20
10.1488
 11
22.1945
 21
10.0927
  0
LINE
  8
0
 10
22.1945
 20
10.0927
 11
22.152
 21
10.0374
  0
LINE
  8
0
 10
22.152
 20
10.0374
 11
22.1086
 21
9.98271
  0
LINE
  8
0
 10
22.1086
 20
9.98271
 11
22.0642
 21
9.92885
  0
LINE
  8
0
 10
22.0642
 20
9.92885
 11
22.0188
 21
9.87576
  0
LINE
  8
0
 10
22.0188
 20
9.87576
 11
21.9726
 21
9.82347
  0
LINE
  8
0
 10
21.9726
 20
9.82347
 11
21.9254
 21
9.772
  0
LINE
  8
0
 10
21.9254
 20
9.772
 11
21.8773
 21
9.72136
  0
LINE
  8
0
 10
21.8773
 20
9.72136
 11
21.8284
 21
9.67157
  0
LINE
  8
0
 10
21.8284
 20
9.67157
 11
21.7786
 21
9.62263
  0
LINE
  8
0
 10
21.7786
 20
9.62263
 11
21.728
 21
9.57458
  0
LINE
  8
0
 10
21.728
 20
9.57458
 11
21.6765
 21
9.52742
  0
LINE
  8
0
 10
21.6765
 20
9.52742
 11
21.6242
 21
9.48116
  0
LINE
  8
0
 10
21.6242
 20
9.48116
 11
21.5711
 21
9.43582
  0
LINE
  8
0
 10
21.5711
 20
9.43582
 11
21.5173
 21
9.3914
  0
LINE
  8
0
 10
21.5173
 20
9.3914
 11
21.4626
 21
9.34795
  0
LINE
  8
0
 10
21.4626
 20
9.34795
 11
21.4073
 21
9.30545
  0
LINE
  8
0
 10
21.4073
 20
9.30545
 11
21.3511
 21
9.26393
  0
LINE
  8
0
 10
21.3511
 20
9.26393
 11
21.2943
 21
9.22339
  0
LINE
  8
0
 10
21.2943
 20
9.22339
 11
21.2368
 21
9.18384
  0
LINE
  8
0
 10
21.2368
 20
9.18384
 11
21.1785
 21
9.14531
  0
LINE
  8
0
 10
21.1785
 20
9.14531
 11
21.1197
 21
9.1078
  0
LINE
  8
0
 10
21.1197
 20
9.1078
 11
21.0602
 21
9.07132
  0
LINE
  8
0
 10
21.0602
 20
9.07132
 11
21
 21
9.03589
  0
LINE
  8
0
 10
21
 20
9.03589
 11
20.9392
 21
9.00151
  0
LINE
  8
0
 10
20.9392
 20
9.00151
 11
20.8779
 21
8.9682
  0
LINE
  8
0
 10
20.8779
 20
8.9682
 11
20.8159
 21
8.93597
  0
LINE
  8
0
 10
20.8159
 20
8.93597
 11
20.7535
 21
8.90482
  0
LINE
  8
0
 10
20.7535
 20
8.90482
 11
20.6905
 21
8.87476
  0
LINE
  8
0
 10
20.6905
 20
8.87476
 11
20.6269
 21
8.84581
  0
LINE
  8
0
 10
20.6269
 20
8.84581
 11
20.5629
 21
8.81798
  0
LINE
  8
0
 10
20.5629
 20
8.81798
 11
20.4984
 21
8.79126
  0
LINE
  8
0
 10
20.4984
 20
8.79126
 11
20.4335
 21
8.76567
  0
LINE
  8
0
 10
20.4335
 20
8.76567
 11
20.3681
 21
8.74123
  0
LINE
  8
0
 10
20.3681
 20
8.74123
 11
20.3023
 21
8.71793
  0
LINE
  8
0
 10
20.3023
 20
8.71793
 11
20.2361
 21
8.69577
  0
LINE
  8
0
 10
20.2361
 20
8.69577
 11
20.1695
 21
8.67477
  0
LINE
  8
0
 10
20.1695
 20
8.67477
 11
20.1025
 21
8.65495
  0
LINE
  8
0
 10
20.1025
 20
8.65495
 11
20.0353
 21
8.63629
  0
LINE
  8
0
 10
20.0353
 20
8.63629
 11
19.9677
 21
8.6188
  0
LINE
  8
0
 10
19.9677
 20
8.6188
 11
19.8998
 21
8.60251
  0
LINE
  8
0
 10
19.8998
 20
8.60251
 11
19.8316
 21
8.5874
  0
LINE
  8
0
 10
19.8316
 20
8.5874
 11
19.7632
 21
8.57349
  0
LINE
  8
0
 10
19.7632
 20
8.57349
 11
19.6946
 21
8.56076
  0
LINE
  8
0
 10
19.6946
 20
8.56076
 11
19.6257
 21
8.54924
  0
LINE
  8
0
 10
19.6257
 20
8.54924
 11
19.5567
 21
8.53893
  0
LINE
  8
0
 10
19.5567
 20
8.53893
 11
19.4875
 21
8.52982
  0
LINE
  8
0
 10
19.4875
 20
8.52982
 11
19.4181
 21
8.52191
  0
LINE
  8
0
 10
19.4181
 20
8.52191
 11
19.3486
 21
8.51521
  0
LINE
  8
0
 10
19.3486
 20
8.51521
 11
19.279
 21
8.50974
  0
LINE
  8
0
 10
19.279
 20
8.50974
 11
19.2093
 21
8.50548
  0
LINE
  8
0
 10
19.2093
 20
8.50548
 11
19.1396
 21
8.50243
  0
LINE
  8
0
 10
19.1396
 20
8.50243
 11
19.0698
 21
8.5006
  0
LINE
  8
0
 10
19.0698
 20
8.5006
 11
19
 21
8.5
  0
LINE
  8
0
 10
19
 20
8.5
 11
18.9302
 21
8.5006
  0
ENDSEC
  0
SECTION
  2
OBJECTS
  0
DICTIONARY
  0
ENDSEC
  0
EOF
