  0
SECTION
  2
BLOCKS
  0
ENDSEC
  0
SECTION
  2
ENTITIES
  0
LINE
  8
0
 10
105.087
 20
-9.99924
 11
105.174
 21
-9.99695
  0
LINE
  8
0
 10
105.174
 20
-9.99695
 11
105.262
 21
-9.99313
  0
LINE
  8
0
 10
105.262
 20
-9.99313
 11
105.349
 21
-9.98781
  0
LINE
  8
0
 10
105.349
 20
-9.98781
 11
105.436
 21
-9.98097
  0
LINE
  8
0
 10
105.436
 20
-9.98097
 11
105.523
 21
-9.9726
  0
LINE
  8
0
 10
105.523
 20
-9.9726
 11
105.609
 21
-9.96272
  0
LINE
  8
0
 10
105.609
 20
-9.96272
 11
105.696
 21
-9.95134
  0
LINE
  8
0
 10
105.696
 20
-9.95134
 11
105.782
 21
-9.93843
  0
LINE
  8
0
 10
105.782
 20
-9.93843
 11
105.868
 21
-9.92403
  0
LINE
  8
0
 10
105.868
 20
-9.92403
 11
105.954
 21
-9.90813
  0
LINE
  8
0
 10
105.954
 20
-9.90813
 11
106.04
 21
-9.89073
  0
LINE
  8
0
 10
106.04
 20
-9.89073
 11
106.125
 21
-9.87184
  0
LINE
  8
0
 10
106.125
 20
-9.87184
 11
106.21
 21
-9.85147
  0
LINE
  8
0
 10
106.21
 20
-9.85147
 11
106.294
 21
-9.82962
  0
LINE
  8
0
 10
106.294
 20
-9.82962
 11
106.378
 21
-9.8063
  0
LINE
  8
0
 10
106.378
 20
-9.8063
 11
106.462
 21
-9.78151
  0
LINE
  8
0
 10
106.462
 20
-9.78151
 11
106.545
 21
-9.75528
  0
LINE
  8
0
 10
106.545
 20
-9.75528
 11
106.628
 21
-9.72758
  0
LINE
  8
0
 10
106.628
 20
-9.72758
 11
106.71
 21
-9.69846
  0
LINE
  8
0
 10
106.71
 20
-9.69846
 11
106.792
 21
-9.66789
  0
LINE
  8
0
 10
106.792
 20
-9.66789
 11
106.873
 21
-9.63591
  0
LINE
  8
0
 10
106.873
 20
-9.63591
 11
106.954
 21
-9.60252
  0
LINE
  8
0
 10
106.954
 20
-9.60252
 11
107.034
 21
-9.56772
  0
LINE
  8
0
 10
107.034
 20
-9.56772
 11
107.113
 21
-9.53152
  0
LINE
  8
0
 10
107.113
 20
-9.53152
 11
107.192
 21
-9.49396
  0
LINE
  8
0
 10
107.192
 20
-9.49396
 11
107.27
 21
-9.45503
  0
LINE
  8
0
 10
107.27
 20
-9.45503
 11
107.347
 21
-9.41473
  0
LINE
  8
0
 10
107.347
 20
-9.41473
 11
107.424
 21
-9.37309
  0
LINE
  8
0
 10
107.424
 20
-9.37309
 11
107.5
 21
-9.33012
  0
LINE
  8
0
 10
107.5
 20
-9.33012
 11
107.575
 21
-9.28583
  0
LINE
  8
0
 10
107.575
 20
-9.28583
 11
107.65
 21
-9.24023
  0
LINE
  8
0
 10
107.65
 20
-9.24023
 11
107.723
 21
-9.19334
  0
LINE
  8
0
 10
107.723
 20
-9.19334
 11
107.796
 21
-9.14519
  0
LINE
  8
0
 10
107.796
 20
-9.14519
 11
107.868
 21
-9.09575
  0
LINE
  8
0
 10
107.868
 20
-9.09575
 11
107.939
 21
-9.04507
  0
LINE
  8
0
 10
107.939
 20
-9.04507
 11
108.009
 21
-8.99316
  0
LINE
  8
0
 10
108.009
 20
-8.99316
 11
108.078
 21
-8.94005
  0
LINE
  8
0
 10
108.078
 20
-8.94005
 11
108.147
 21
-8.88573
  0
LINE
  8
0
 10
108.147
 20
-8.88573
 11
108.214
 21
-8.83022
  0
LINE
  8
0
 10
108.214
 20
-8.83022
 11
108.28
 21
-8.77354
  0
LINE
  8
0
 10
108.28
 20
-8.77354
 11
108.346
 21
-8.71571
  0
LINE
  8
0
 10
108.346
 20
-8.71571
 11
108.41
 21
-8.65675
  0
LINE
  8
0
 10
108.41
 20
-8.65675
 11
108.473
 21
-8.59669
  0
LINE
  8
0
 10
108.473
 20
-8.59669
 11
108.536
 21
-8.53552
  0
LINE
  8
0
 10
108.536
 20
-8.53552
 11
108.597
 21
-8.47328
  0
LINE
  8
0
 10
108.597
 20
-8.47328
 11
108.657
 21
-8.40999
  0
LINE
  8
0
 10
108.657
 20
-8.40999
 11
108.716
 21
-8.34564
  0
LINE
  8
0
 10
108.716
 20
-8.34564
 11
108.774
 21
-8.28029
  0
LINE
  8
0
 10
108.774
 20
-8.28029
 11
108.83
 21
-8.21393
  0
LINE
  8
0
 10
108.83
 20
-8.21393
 11
108.886
 21
-8.14659
  0
LINE
  8
0
 10
108.886
 20
-8.14659
 11
108.94
 21
-8.07829
  0
LINE
  8
0
 10
108.94
 20
-8.07829
 11
108.993
 21
-8.00906
  0
LINE
  8
0
 10
108.993
 20
-8.00906
 11
109.045
 21
-7.93892
  0
LINE
  8
0
 10
109.045
 20
-7.93892
 11
109.096
 21
-7.86787
  0
LINE
  8
0
 10
109.096
 20
-7.86787
 11
109.145
 21
-7.79596
  0
LINE
  8
0
 10
109.145
 20
-7.79596
 11
109.193
 21
-7.72319
  0
LINE
  8
0
 10
109.193
 20
-7.72319
 11
109.24
 21
-7.64958
  0
LINE
  8
0
 10
109.24
 20
-7.64958
 11
109.286
 21
-7.57518
  0
LINE
  8
0
 10
109.286
 20
-7.57518
 11
109.33
 21
-7.5
  0
LINE
  8
0
 10
109.33
 20
-7.5
 11
109.373
 21
-7.42404
  0
LINE
  8
0
 10
109.373
 20
-7.42404
 11
109.415
 21
-7.34735
  0
LINE
  8
0
 10
109.415
 20
-7.34735
 11
109.455
 21
-7.26994
  0
LINE
  8
0
 10
109.455
 20
-7.26994
 11
109.494
 21
-7.19185
  0
LINE
  8
0
 10
109.494
 20
-7.19185
 11
109.532
 21
-7.11308
  0
LINE
  8
0
 10
109.532
 20
-7.11308
 11
109.568
 21
-7.03368
  0
LINE
  8
0
 10
109.568
 20
-7.03368
 11
109.603
 21
-6.95364
  0
LINE
  8
0
 10
109.603
 20
-6.95364
 11
109.636
 21
-6.87303
  0
LINE
  8
0
 10
109.636
 20
-6.87303
 11
109.668
 21
-6.79184
  0
LINE
  8
0
 10
109.668
 20
-6.79184
 11
109.698
 21
-6.7101
  0
LINE
  8
0
 10
109.698
 20
-6.7101
 11
109.728
 21
-6.62784
  0
LINE
  8
0
 10
109.728
 20
-6.62784
 11
109.755
 21
-6.54507
  0
LINE
  8
0
 10
109.755
 20
-6.54507
 11
109.782
 21
-6.46185
  0
LINE
  8
0
 10
109.782
 20
-6.46185
 11
109.806
 21
-6.37817
  0
LINE
  8
0
 10
109.806
 20
-6.37817
 11
109.83
 21
-6.29408
  0
LINE
  8
0
 10
109.83
 20
-6.29408
 11
109.851
 21
-6.20959
  0
LINE
  8
0
 10
109.851
 20
-6.20959
 11
109.872
 21
-6.12474
  0
LINE
  8
0
 10
109.872
 20
-6.12474
 11
109.891
 21
-6.03955
  0
LINE
  8
0
 10
109.891
 20
-6.03955
 11
109.908
 21
-5.95404
  0
LINE
  8
0
 10
109.908
 20
-5.95404
 11
109.924
 21
-5.86824
  0
LINE
  8
0
 10
109.924
 20
-5.86824
 11
109.938
 21
-5.78217
  0
LINE
  8
0
 10
109.938
 20
-5.78217
 11
109.951
 21
-5.69586
  0
LINE
  8
0
 10
109.951
 20
-5.69586
 11
109.963
 21
-5.60934
  0
LINE
  8
0
 10
109.963
 20
-5.60934
 11
109.973
 21
-5.52263
  0
LINE
  8
0
 10
109.973
 20
-5.52263
 11
109.981
 21
-5.43578
  0
LINE
  8
0
 10
109.981
 20
-5.43578
 11
109.988
 21
-5.34877
  0
LINE
  8
0
 10
109.988
 20
-5.34877
 11
109.993
 21
-5.26167
  0
LINE
  8
0
 10
109.993
 20
-5.26167
 11
109.997
 21
-5.17448
  0
LINE
  8
0
 10
109.997
 20
-5.17448
 11
109.999
 21
-5.08725
  0
LINE
  8
0
 10
109.999
 20
-5.08725
 11
110
 21
-5
  0
LINE
  8
0
 10
110
 20
-5
 11
110
 21
90
  0
LINE
  8
0
 10
110
 20
90
 11
109.999
 21
90.0873
  0
LINE
  8
0
 10
109.999
 20
90.0873
 11
109.997
 21
90.1745
  0
LINE
  8
0
 10
109.997
 20
90.1745
 11
109.993
 21
90.2617
  0
LINE
  8
0
 10
109.993
 20
90.2617
 11
109.988
 21
90.3488
  0
LINE
  8
0
 10
109.988
 20
90.3488
 11
109.981
 21
90.4358
  0
LINE
  8
0
 10
109.981
 20
90.4358
 11
109.973
 21
90.5226
  0
LINE
  8
0
 10
109.973
 20
90.5226
 11
109.963
 21
90.6093
  0
LINE
  8
0
 10
109.963
 20
90.6093
 11
109.951
 21
90.6959
  0
LINE
  8
0
 10
109.951
 20
90.6959
 11
109.938
 21
90.7822
  0
LINE
  8
0
 10
109.938
 20
90.7822
 11
109.924
 21
90.8682
  0
LINE
  8
0
 10
109.924
 20
90.8682
 11
109.908
 21
90.954
  0
LINE
  8
0
 10
109.908
 20
90.954
 11
109.891
 21
91.0396
  0
LINE
  8
0
 10
109.891
 20
91.0396
 11
109.872
 21
91.1248
  0
LINE
  8
0
 10
109.872
 20
91.1248
 11
109.851
 21
91.2096
  0
LINE
  8
0
 10
109.851
 20
91.2096
 11
109.83
 21
91.2941
  0
LINE
  8
0
 10
109.83
 20
91.2941
 11
109.806
 21
91.3782
  0
LINE
  8
0
 10
109.806
 20
91.3782
 11
109.782
 21
91.4619
  0
LINE
  8
0
 10
109.782
 20
91.4619
 11
109.755
 21
91.5451
  0
LINE
  8
0
 10
109.755
 20
91.5451
 11
109.728
 21
91.6278
  0
LINE
  8
0
 10
109.728
 20
91.6278
 11
109.698
 21
91.7101
  0
LINE
  8
0
 10
109.698
 20
91.7101
 11
109.668
 21
91.7918
  0
LINE
  8
0
 10
109.668
 20
91.7918
 11
109.636
 21
91.873
  0
LINE
  8
0
 10
109.636
 20
91.873
 11
109.603
 21
91.9537
  0
LINE
  8
0
 10
109.603
 20
91.9537
 11
109.568
 21
92.0337
  0
LINE
  8
0
 10
109.568
 20
92.0337
 11
109.532
 21
92.1131
  0
LINE
  8
0
 10
109.532
 20
92.1131
 11
109.494
 21
92.1918
  0
LINE
  8
0
 10
109.494
 20
92.1918
 11
109.455
 21
92.2699
  0
LINE
  8
0
 10
109.455
 20
92.2699
 11
109.415
 21
92.3474
  0
LINE
  8
0
 10
109.415
 20
92.3474
 11
109.373
 21
92.424
  0
LINE
  8
0
 10
109.373
 20
92.424
 11
109.33
 21
92.5
  0
LINE
  8
0
 10
109.33
 20
92.5
 11
109.286
 21
92.5752
  0
LINE
  8
0
 10
109.286
 20
92.5752
 11
109.24
 21
92.6496
  0
LINE
  8
0
 10
109.24
 20
92.6496
 11
109.193
 21
92.7232
  0
LINE
  8
0
 10
109.193
 20
92.7232
 11
109.145
 21
92.796
  0
LINE
  8
0
 10
109.145
 20
92.796
 11
109.096
 21
92.8679
  0
LINE
  8
0
 10
109.096
 20
92.8679
 11
109.045
 21
92.9389
  0
LINE
  8
0
 10
109.045
 20
92.9389
 11
108.993
 21
93.0091
  0
LINE
  8
0
 10
108.993
 20
93.0091
 11
108.94
 21
93.0783
  0
LINE
  8
0
 10
108.94
 20
93.0783
 11
108.886
 21
93.1466
  0
LINE
  8
0
 10
108.886
 20
93.1466
 11
108.83
 21
93.2139
  0
LINE
  8
0
 10
108.83
 20
93.2139
 11
108.774
 21
93.2803
  0
LINE
  8
0
 10
108.774
 20
93.2803
 11
108.716
 21
93.3456
  0
LINE
  8
0
 10
108.716
 20
93.3456
 11
108.657
 21
93.41
  0
LINE
  8
0
 10
108.657
 20
93.41
 11
108.597
 21
93.4733
  0
LINE
  8
0
 10
108.597
 20
93.4733
 11
108.536
 21
93.5355
  0
LINE
  8
0
 10
108.536
 20
93.5355
 11
108.473
 21
93.5967
  0
LINE
  8
0
 10
108.473
 20
93.5967
 11
108.41
 21
93.6568
  0
LINE
  8
0
 10
108.41
 20
93.6568
 11
108.346
 21
93.7157
  0
LINE
  8
0
 10
108.346
 20
93.7157
 11
108.28
 21
93.7735
  0
LINE
  8
0
 10
108.28
 20
93.7735
 11
108.214
 21
93.8302
  0
LINE
  8
0
 10
108.214
 20
93.8302
 11
108.147
 21
93.8857
  0
LINE
  8
0
 10
108.147
 20
93.8857
 11
108.078
 21
93.94
  0
LINE
  8
0
 10
108.078
 20
93.94
 11
108.009
 21
93.9932
  0
LINE
  8
0
 10
108.009
 20
93.9932
 11
107.939
 21
94.0451
  0
LINE
  8
0
 10
107.939
 20
94.0451
 11
107.868
 21
94.0957
  0
LINE
  8
0
 10
107.868
 20
94.0957
 11
107.796
 21
94.1452
  0
LINE
  8
0
 10
107.796
 20
94.1452
 11
107.723
 21
94.1933
  0
LINE
  8
0
 10
107.723
 20
94.1933
 11
107.65
 21
94.2402
  0
LINE
  8
0
 10
107.65
 20
94.2402
 11
107.575
 21
94.2858
  0
LINE
  8
0
 10
107.575
 20
94.2858
 11
107.5
 21
94.3301
  0
LINE
  8
0
 10
107.5
 20
94.3301
 11
107.424
 21
94.3731
  0
LINE
  8
0
 10
107.424
 20
94.3731
 11
107.347
 21
94.4147
  0
LINE
  8
0
 10
107.347
 20
94.4147
 11
107.27
 21
94.455
  0
LINE
  8
0
 10
107.27
 20
94.455
 11
107.192
 21
94.494
  0
LINE
  8
0
 10
107.192
 20
94.494
 11
107.113
 21
94.5315
  0
LINE
  8
0
 10
107.113
 20
94.5315
 11
107.034
 21
94.5677
  0
LINE
  8
0
 10
107.034
 20
94.5677
 11
106.954
 21
94.6025
  0
LINE
  8
0
 10
106.954
 20
94.6025
 11
106.873
 21
94.6359
  0
LINE
  8
0
 10
106.873
 20
94.6359
 11
106.792
 21
94.6679
  0
LINE
  8
0
 10
106.792
 20
94.6679
 11
106.71
 21
94.6985
  0
LINE
  8
0
 10
106.71
 20
94.6985
 11
106.628
 21
94.7276
  0
LINE
  8
0
 10
106.628
 20
94.7276
 11
106.545
 21
94.7553
  0
LINE
  8
0
 10
106.545
 20
94.7553
 11
106.462
 21
94.7815
  0
LINE
  8
0
 10
106.462
 20
94.7815
 11
106.378
 21
94.8063
  0
LINE
  8
0
 10
106.378
 20
94.8063
 11
106.294
 21
94.8296
  0
LINE
  8
0
 10
106.294
 20
94.8296
 11
106.21
 21
94.8515
  0
LINE
  8
0
 10
106.21
 20
94.8515
 11
106.125
 21
94.8718
  0
LINE
  8
0
 10
106.125
 20
94.8718
 11
106.04
 21
94.8907
  0
LINE
  8
0
 10
106.04
 20
94.8907
 11
105.954
 21
94.9081
  0
LINE
  8
0
 10
105.954
 20
94.9081
 11
105.868
 21
94.924
  0
LINE
  8
0
 10
105.868
 20
94.924
 11
105.782
 21
94.9384
  0
LINE
  8
0
 10
105.782
 20
94.9384
 11
105.696
 21
94.9513
  0
LINE
  8
0
 10
105.696
 20
94.9513
 11
105.609
 21
94.9627
  0
LINE
  8
0
 10
105.609
 20
94.9627
 11
105.523
 21
94.9726
  0
LINE
  8
0
 10
105.523
 20
94.9726
 11
105.436
 21
94.981
  0
LINE
  8
0
 10
105.436
 20
94.981
 11
105.349
 21
94.9878
  0
LINE
  8
0
 10
105.349
 20
94.9878
 11
105.262
 21
94.9931
  0
LINE
  8
0
 10
105.262
 20
94.9931
 11
105.174
 21
94.9969
  0
LINE
  8
0
 10
105.174
 20
94.9969
 11
105.087
 21
94.9992
  0
LINE
  8
0
 10
105.087
 20
94.9992
 11
105
 21
95
  0
LINE
  8
0
 10
105
 20
95
 11
-5
 21
95
  0
LINE
  8
0
 10
-5
 20
95
 11
-5.08725
 21
94.9992
  0
LINE
  8
0
 10
-5.08725
 20
94.9992
 11
-5.17448
 21
94.9969
  0
LINE
  8
0
 10
-5.17448
 20
94.9969
 11
-5.26167
 21
94.9931
  0
LINE
  8
0
 10
-5.26167
 20
94.9931
 11
-5.34877
 21
94.9878
  0
LINE
  8
0
 10
-5.34877
 20
94.9878
 11
-5.43578
 21
94.981
  0
LINE
  8
0
 10
-5.43578
 20
94.981
 11
-5.52263
 21
94.9726
  0
LINE
  8
0
 10
-5.52263
 20
94.9726
 11
-5.60934
 21
94.9627
  0
LINE
  8
0
 10
-5.60934
 20
94.9627
 11
-5.69586
 21
94.9513
  0
LINE
  8
0
 10
-5.69586
 20
94.9513
 11
-5.78217
 21
94.9384
  0
LINE
  8
0
 10
-5.78217
 20
94.9384
 11
-5.86824
 21
94.924
  0
LINE
  8
0
 10
-5.86824
 20
94.924
 11
-5.95404
 21
94.9081
  0
LINE
  8
0
 10
-5.95404
 20
94.9081
 11
-6.03955
 21
94.8907
  0
LINE
  8
0
 10
-6.03955
 20
94.8907
 11
-6.12474
 21
94.8718
  0
LINE
  8
0
 10
-6.12474
 20
94.8718
 11
-6.20959
 21
94.8515
  0
LINE
  8
0
 10
-6.20959
 20
94.8515
 11
-6.29408
 21
94.8296
  0
LINE
  8
0
 10
-6.29408
 20
94.8296
 11
-6.37817
 21
94.8063
  0
LINE
  8
0
 10
-6.37817
 20
94.8063
 11
-6.46185
 21
94.7815
  0
LINE
  8
0
 10
-6.46185
 20
94.7815
 11
-6.54507
 21
94.7553
  0
LINE
  8
0
 10
-6.54507
 20
94.7553
 11
-6.62784
 21
94.7276
  0
LINE
  8
0
 10
-6.62784
 20
94.7276
 11
-6.7101
 21
94.6985
  0
LINE
  8
0
 10
-6.7101
 20
94.6985
 11
-6.79184
 21
94.6679
  0
LINE
  8
0
 10
-6.79184
 20
94.6679
 11
-6.87303
 21
94.6359
  0
LINE
  8
0
 10
-6.87303
 20
94.6359
 11
-6.95364
 21
94.6025
  0
LINE
  8
0
 10
-6.95364
 20
94.6025
 11
-7.03368
 21
94.5677
  0
LINE
  8
0
 10
-7.03368
 20
94.5677
 11
-7.11308
 21
94.5315
  0
LINE
  8
0
 10
-7.11308
 20
94.5315
 11
-7.19185
 21
94.494
  0
LINE
  8
0
 10
-7.19185
 20
94.494
 11
-7.26994
 21
94.455
  0
LINE
  8
0
 10
-7.26994
 20
94.455
 11
-7.34735
 21
94.4147
  0
LINE
  8
0
 10
-7.34735
 20
94.4147
 11
-7.42404
 21
94.3731
  0
LINE
  8
0
 10
-7.42404
 20
94.3731
 11
-7.5
 21
94.3301
  0
LINE
  8
0
 10
-7.5
 20
94.3301
 11
-7.57518
 21
94.2858
  0
LINE
  8
0
 10
-7.57518
 20
94.2858
 11
-7.64958
 21
94.2402
  0
LINE
  8
0
 10
-7.64958
 20
94.2402
 11
-7.72319
 21
94.1933
  0
LINE
  8
0
 10
-7.72319
 20
94.1933
 11
-7.79596
 21
94.1452
  0
LINE
  8
0
 10
-7.79596
 20
94.1452
 11
-7.86787
 21
94.0957
  0
LINE
  8
0
 10
-7.86787
 20
94.0957
 11
-7.93892
 21
94.0451
  0
LINE
  8
0
 10
-7.93892
 20
94.0451
 11
-8.00906
 21
93.9932
  0
LINE
  8
0
 10
-8.00906
 20
93.9932
 11
-8.07829
 21
93.94
  0
LINE
  8
0
 10
-8.07829
 20
93.94
 11
-8.14659
 21
93.8857
  0
LINE
  8
0
 10
-8.14659
 20
93.8857
 11
-8.21393
 21
93.8302
  0
LINE
  8
0
 10
-8.21393
 20
93.8302
 11
-8.28029
 21
93.7735
  0
LINE
  8
0
 10
-8.28029
 20
93.7735
 11
-8.34564
 21
93.7157
  0
LINE
  8
0
 10
-8.34564
 20
93.7157
 11
-8.40999
 21
93.6568
  0
LINE
  8
0
 10
-8.40999
 20
93.6568
 11
-8.47328
 21
93.5967
  0
LINE
  8
0
 10
-8.47328
 20
93.5967
 11
-8.53552
 21
93.5355
  0
LINE
  8
0
 10
-8.53552
 20
93.5355
 11
-8.59669
 21
93.4733
  0
LINE
  8
0
 10
-8.59669
 20
93.4733
 11
-8.65675
 21
93.41
  0
LINE
  8
0
 10
-8.65675
 20
93.41
 11
-8.71571
 21
93.3456
  0
LINE
  8
0
 10
-8.71571
 20
93.3456
 11
-8.77354
 21
93.2803
  0
LINE
  8
0
 10
-8.77354
 20
93.2803
 11
-8.83022
 21
93.2139
  0
LINE
  8
0
 10
-8.83022
 20
93.2139
 11
-8.88573
 21
93.1466
  0
LINE
  8
0
 10
-8.88573
 20
93.1466
 11
-8.94005
 21
93.0783
  0
LINE
  8
0
 10
-8.94005
 20
93.0783
 11
-8.99316
 21
93.0091
  0
LINE
  8
0
 10
-8.99316
 20
93.0091
 11
-9.04507
 21
92.9389
  0
LINE
  8
0
 10
-9.04507
 20
92.9389
 11
-9.09575
 21
92.8679
  0
LINE
  8
0
 10
-9.09575
 20
92.8679
 11
-9.14519
 21
92.796
  0
LINE
  8
0
 10
-9.14519
 20
92.796
 11
-9.19334
 21
92.7232
  0
LINE
  8
0
 10
-9.19334
 20
92.7232
 11
-9.24023
 21
92.6496
  0
LINE
  8
0
 10
-9.24023
 20
92.6496
 11
-9.28583
 21
92.5752
  0
LINE
  8
0
 10
-9.28583
 20
92.5752
 11
-9.33012
 21
92.5
  0
LINE
  8
0
 10
-9.33012
 20
92.5
 11
-9.37309
 21
92.424
  0
LINE
  8
0
 10
-9.37309
 20
92.424
 11
-9.41473
 21
92.3474
  0
LINE
  8
0
 10
-9.41473
 20
92.3474
 11
-9.45503
 21
92.2699
  0
LINE
  8
0
 10
-9.45503
 20
92.2699
 11
-9.49396
 21
92.1918
  0
LINE
  8
0
 10
-9.49396
 20
92.1918
 11
-9.53152
 21
92.1131
  0
LINE
  8
0
 10
-9.53152
 20
92.1131
 11
-9.56772
 21
92.0337
  0
LINE
  8
0
 10
-9.56772
 20
92.0337
 11
-9.60252
 21
91.9537
  0
LINE
  8
0
 10
-9.60252
 20
91.9537
 11
-9.63591
 21
91.873
  0
LINE
  8
0
 10
-9.63591
 20
91.873
 11
-9.66789
 21
91.7918
  0
LINE
  8
0
 10
-9.66789
 20
91.7918
 11
-9.69846
 21
91.7101
  0
LINE
  8
0
 10
-9.69846
 20
91.7101
 11
-9.72758
 21
91.6278
  0
LINE
  8
0
 10
-9.72758
 20
91.6278
 11
-9.75528
 21
91.5451
  0
LINE
  8
0
 10
-9.75528
 20
91.5451
 11
-9.78151
 21
91.4619
  0
LINE
  8
0
 10
-9.78151
 20
91.4619
 11
-9.8063
 21
91.3782
  0
LINE
  8
0
 10
-9.8063
 20
91.3782
 11
-9.82962
 21
91.2941
  0
LINE
  8
0
 10
-9.82962
 20
91.2941
 11
-9.85147
 21
91.2096
  0
LINE
  8
0
 10
-9.85147
 20
91.2096
 11
-9.87184
 21
91.1248
  0
LINE
  8
0
 10
-9.87184
 20
91.1248
 11
-9.89073
 21
91.0396
  0
LINE
  8
0
 10
-9.89073
 20
91.0396
 11
-9.90813
 21
90.954
  0
LINE
  8
0
 10
-9.90813
 20
90.954
 11
-9.92403
 21
90.8682
  0
LINE
  8
0
 10
-9.92403
 20
90.8682
 11
-9.93843
 21
90.7822
  0
LINE
  8
0
 10
-9.93843
 20
90.7822
 11
-9.95134
 21
90.6959
  0
LINE
  8
0
 10
-9.95134
 20
90.6959
 11
-9.96272
 21
90.6093
  0
LINE
  8
0
 10
-9.96272
 20
90.6093
 11
-9.9726
 21
90.5226
  0
LINE
  8
0
 10
-9.9726
 20
90.5226
 11
-9.98097
 21
90.4358
  0
LINE
  8
0
 10
-9.98097
 20
90.4358
 11
-9.98781
 21
90.3488
  0
LINE
  8
0
 10
-9.98781
 20
90.3488
 11
-9.99313
 21
90.2617
  0
LINE
  8
0
 10
-9.99313
 20
90.2617
 11
-9.99695
 21
90.1745
  0
LINE
  8
0
 10
-9.99695
 20
90.1745
 11
-9.99924
 21
90.0873
  0
LINE
  8
0
 10
-9.99924
 20
90.0873
 11
-10
 21
90
  0
LINE
  8
0
 10
-10
 20
90
 11
-10
 21
-5
  0
LINE
  8
0
 10
-10
 20
-5
 11
-9.99924
 21
-5.08725
  0
LINE
  8
0
 10
-9.99924
 20
-5.08725
 11
-9.99695
 21
-5.17448
  0
LINE
  8
0
 10
-9.99695
 20
-5.17448
 11
-9.99313
 21
-5.26167
  0
LINE
  8
0
 10
-9.99313
 20
-5.26167
 11
-9.98781
 21
-5.34877
  0
LINE
  8
0
 10
-9.98781
 20
-5.34877
 11
-9.98097
 21
-5.43578
  0
LINE
  8
0
 10
-9.98097
 20
-5.43578
 11
-9.9726
 21
-5.52263
  0
LINE
  8
0
 10
-9.9726
 20
-5.52263
 11
-9.96272
 21
-5.60934
  0
LINE
  8
0
 10
-9.96272
 20
-5.60934
 11
-9.95134
 21
-5.69586
  0
LINE
  8
0
 10
-9.95134
 20
-5.69586
 11
-9.93843
 21
-5.78217
  0
LINE
  8
0
 10
-9.93843
 20
-5.78217
 11
-9.92403
 21
-5.86824
  0
LINE
  8
0
 10
-9.92403
 20
-5.86824
 11
-9.90813
 21
-5.95404
  0
LINE
  8
0
 10
-9.90813
 20
-5.95404
 11
-9.89073
 21
-6.03955
  0
LINE
  8
0
 10
-9.89073
 20
-6.03955
 11
-9.87184
 21
-6.12474
  0
LINE
  8
0
 10
-9.87184
 20
-6.12474
 11
-9.85147
 21
-6.20959
  0
LINE
  8
0
 10
-9.85147
 20
-6.20959
 11
-9.82962
 21
-6.29408
  0
LINE
  8
0
 10
-9.82962
 20
-6.29408
 11
-9.8063
 21
-6.37817
  0
LINE
  8
0
 10
-9.8063
 20
-6.37817
 11
-9.78151
 21
-6.46185
  0
LINE
  8
0
 10
-9.78151
 20
-6.46185
 11
-9.75528
 21
-6.54507
  0
LINE
  8
0
 10
-9.75528
 20
-6.54507
 11
-9.72758
 21
-6.62784
  0
LINE
  8
0
 10
-9.72758
 20
-6.62784
 11
-9.69846
 21
-6.7101
  0
LINE
  8
0
 10
-9.69846
 20
-6.7101
 11
-9.66789
 21
-6.79184
  0
LINE
  8
0
 10
-9.66789
 20
-6.79184
 11
-9.63591
 21
-6.87303
  0
LINE
  8
0
 10
-9.63591
 20
-6.87303
 11
-9.60252
 21
-6.95364
  0
LINE
  8
0
 10
-9.60252
 20
-6.95364
 11
-9.56772
 21
-7.03368
  0
LINE
  8
0
 10
-9.56772
 20
-7.03368
 11
-9.53152
 21
-7.11308
  0
LINE
  8
0
 10
-9.53152
 20
-7.11308
 11
-9.49396
 21
-7.19185
  0
LINE
  8
0
 10
-9.49396
 20
-7.19185
 11
-9.45503
 21
-7.26994
  0
LINE
  8
0
 10
-9.45503
 20
-7.26994
 11
-9.41473
 21
-7.34735
  0
LINE
  8
0
 10
-9.41473
 20
-7.34735
 11
-9.37309
 21
-7.42404
  0
LINE
  8
0
 10
-9.37309
 20
-7.42404
 11
-9.33012
 21
-7.5
  0
LINE
  8
0
 10
-9.33012
 20
-7.5
 11
-9.28583
 21
-7.57518
  0
LINE
  8
0
 10
-9.28583
 20
-7.57518
 11
-9.24023
 21
-7.64958
  0
LINE
  8
0
 10
-9.24023
 20
-7.64958
 11
-9.19334
 21
-7.72319
  0
LINE
  8
0
 10
-9.19334
 20
-7.72319
 11
-9.14519
 21
-7.79596
  0
LINE
  8
0
 10
-9.14519
 20
-7.79596
 11
-9.09575
 21
-7.86787
  0
LINE
  8
0
 10
-9.09575
 20
-7.86787
 11
-9.04507
 21
-7.93892
  0
LINE
  8
0
 10
-9.04507
 20
-7.93892
 11
-8.99316
 21
-8.00906
  0
LINE
  8
0
 10
-8.99316
 20
-8.00906
 11
-8.94005
 21
-8.07829
  0
LINE
  8
0
 10
-8.94005
 20
-8.07829
 11
-8.88573
 21
-8.14659
  0
LINE
  8
0
 10
-8.88573
 20
-8.14659
 11
-8.83022
 21
-8.21393
  0
LINE
  8
0
 10
-8.83022
 20
-8.21393
 11
-8.77354
 21
-8.28029
  0
LINE
  8
0
 10
-8.77354
 20
-8.28029
 11
-8.71571
 21
-8.34564
  0
LINE
  8
0
 10
-8.71571
 20
-8.34564
 11
-8.65675
 21
-8.40999
  0
LINE
  8
0
 10
-8.65675
 20
-8.40999
 11
-8.59669
 21
-8.47328
  0
LINE
  8
0
 10
-8.59669
 20
-8.47328
 11
-8.53552
 21
-8.53552
  0
LINE
  8
0
 10
-8.53552
 20
-8.53552
 11
-8.47328
 21
-8.59669
  0
LINE
  8
0
 10
-8.47328
 20
-8.59669
 11
-8.40999
 21
-8.65675
  0
LINE
  8
0
 10
-8.40999
 20
-8.65675
 11
-8.34564
 21
-8.71571
  0
LINE
  8
0
 10
-8.34564
 20
-8.71571
 11
-8.28029
 21
-8.77354
  0
LINE
  8
0
 10
-8.28029
 20
-8.77354
 11
-8.21393
 21
-8.83022
  0
LINE
  8
0
 10
-8.21393
 20
-8.83022
 11
-8.14659
 21
-8.88573
  0
LINE
  8
0
 10
-8.14659
 20
-8.88573
 11
-8.07829
 21
-8.94005
  0
LINE
  8
0
 10
-8.07829
 20
-8.94005
 11
-8.00906
 21
-8.99316
  0
LINE
  8
0
 10
-8.00906
 20
-8.99316
 11
-7.93892
 21
-9.04507
  0
LINE
  8
0
 10
-7.93892
 20
-9.04507
 11
-7.86787
 21
-9.09575
  0
LINE
  8
0
 10
-7.86787
 20
-9.09575
 11
-7.79596
 21
-9.14519
  0
LINE
  8
0
 10
-7.79596
 20
-9.14519
 11
-7.72319
 21
-9.19334
  0
LINE
  8
0
 10
-7.72319
 20
-9.19334
 11
-7.64958
 21
-9.24023
  0
LINE
  8
0
 10
-7.64958
 20
-9.24023
 11
-7.57518
 21
-9.28583
  0
LINE
  8
0
 10
-7.57518
 20
-9.28583
 11
-7.5
 21
-9.33012
  0
LINE
  8
0
 10
-7.5
 20
-9.33012
 11
-7.42404
 21
-9.37309
  0
LINE
  8
0
 10
-7.42404
 20
-9.37309
 11
-7.34735
 21
-9.41473
  0
LINE
  8
0
 10
-7.34735
 20
-9.41473
 11
-7.26994
 21
-9.45503
  0
LINE
  8
0
 10
-7.26994
 20
-9.45503
 11
-7.19185
 21
-9.49396
  0
LINE
  8
0
 10
-7.19185
 20
-9.49396
 11
-7.11308
 21
-9.53152
  0
LINE
  8
0
 10
-7.11308
 20
-9.53152
 11
-7.03368
 21
-9.56772
  0
LINE
  8
0
 10
-7.03368
 20
-9.56772
 11
-6.95364
 21
-9.60252
  0
LINE
  8
0
 10
-6.95364
 20
-9.60252
 11
-6.87303
 21
-9.63591
  0
LINE
  8
0
 10
-6.87303
 20
-9.63591
 11
-6.79184
 21
-9.66789
  0
LINE
  8
0
 10
-6.79184
 20
-9.66789
 11
-6.7101
 21
-9.69846
  0
LINE
  8
0
 10
-6.7101
 20
-9.69846
 11
-6.62784
 21
-9.72758
  0
LINE
  8
0
 10
-6.62784
 20
-9.72758
 11
-6.54507
 21
-9.75528
  0
LINE
  8
0
 10
-6.54507
 20
-9.75528
 11
-6.46185
 21
-9.78151
  0
LINE
  8
0
 10
-6.46185
 20
-9.78151
 11
-6.37817
 21
-9.8063
  0
LINE
  8
0
 10
-6.37817
 20
-9.8063
 11
-6.29408
 21
-9.82962
  0
LINE
  8
0
 10
-6.29408
 20
-9.82962
 11
-6.20959
 21
-9.85147
  0
LINE
  8
0
 10
-6.20959
 20
-9.85147
 11
-6.12474
 21
-9.87184
  0
LINE
  8
0
 10
-6.12474
 20
-9.87184
 11
-6.03955
 21
-9.89073
  0
LINE
  8
0
 10
-6.03955
 20
-9.89073
 11
-5.95404
 21
-9.90813
  0
LINE
  8
0
 10
-5.95404
 20
-9.90813
 11
-5.86824
 21
-9.92403
  0
LINE
  8
0
 10
-5.86824
 20
-9.92403
 11
-5.78217
 21
-9.93843
  0
LINE
  8
0
 10
-5.78217
 20
-9.93843
 11
-5.69586
 21
-9.95134
  0
LINE
  8
0
 10
-5.69586
 20
-9.95134
 11
-5.60934
 21
-9.96272
  0
LINE
  8
0
 10
-5.60934
 20
-9.96272
 11
-5.52263
 21
-9.9726
  0
LINE
  8
0
 10
-5.52263
 20
-9.9726
 11
-5.43578
 21
-9.98097
  0
LINE
  8
0
 10
-5.43578
 20
-9.98097
 11
-5.34877
 21
-9.98781
  0
LINE
  8
0
 10
-5.34877
 20
-9.98781
 11
-5.26167
 21
-9.99313
  0
LINE
  8
0
 10
-5.26167
 20
-9.99313
 11
-5.17448
 21
-9.99695
  0
LINE
  8
0
 10
-5.17448
 20
-9.99695
 11
-5.08725
 21
-9.99924
  0
LINE
  8
0
 10
-5.08725
 20
-9.99924
 11
-5
 21
-10
  0
LINE
  8
0
 10
-5
 20
-10
 11
105
 21
-10
  0
LINE
  8
0
 10
105
 20
-10
 11
105.087
 21
-9.99924
  0
LINE
  8
0
 10
6.12726
 20
85.4
 11
6.12726
 21
88.6
  0
LINE
  8
0
 10
6.12726
 20
88.6
 11
18.2162
 21
88.6
  0
LINE
  8
0
 10
18.2162
 20
88.6
 11
18.2162
 21
85.4
  0
LINE
  8
0
 10
18.2162
 20
85.4
 11
6.12726
 21
85.4
  0
LINE
  8
0
 10
25.5818
 20
85.4
 11
25.5818
 21
88.6
  0
LINE
  8
0
 10
25.5818
 20
88.6
 11
37.6707
 21
88.6
  0
LINE
  8
0
 10
37.6707
 20
88.6
 11
37.6707
 21
85.4
  0
LINE
  8
0
 10
37.6707
 20
85.4
 11
25.5818
 21
85.4
  0
LINE
  8
0
 10
45.0364
 20
85.4
 11
45.0364
 21
88.6
  0
LINE
  8
0
 10
45.0364
 20
88.6
 11
57.1252
 21
88.6
  0
LINE
  8
0
 10
57.1252
 20
88.6
 11
57.1252
 21
85.4
  0
LINE
  8
0
 10
57.1252
 20
85.4
 11
45.0364
 21
85.4
  0
LINE
  8
0
 10
64.4909
 20
85.4
 11
64.4909
 21
88.6
  0
LINE
  8
0
 10
64.4909
 20
88.6
 11
76.5798
 21
88.6
  0
LINE
  8
0
 10
76.5798
 20
88.6
 11
76.5798
 21
85.4
  0
LINE
  8
0
 10
76.5798
 20
85.4
 11
64.4909
 21
85.4
  0
LINE
  8
0
 10
83.9454
 20
85.4
 11
83.9454
 21
88.6
  0
LINE
  8
0
 10
83.9454
 20
88.6
 11
96.0343
 21
88.6
  0
LINE
  8
0
 10
96.0343
 20
88.6
 11
96.0343
 21
85.4
  0
LINE
  8
0
 10
96.0343
 20
85.4
 11
83.9454
 21
85.4
  0
LINE
  8
0
 10
-3.59999
 20
71.6727
 11
-3.59999
 21
79.6909
  0
LINE
  8
0
 10
-3.59999
 20
79.6909
 11
-0.399994
 21
79.6909
  0
LINE
  8
0
 10
-0.399994
 20
79.6909
 11
-0.399994
 21
71.6727
  0
LINE
  8
0
 10
-0.399994
 20
71.6727
 11
-3.59999
 21
71.6727
  0
LINE
  8
0
 10
100.4
 20
71.6727
 11
100.4
 21
79.6909
  0
LINE
  8
0
 10
100.4
 20
79.6909
 11
103.6
 21
79.6909
  0
LINE
  8
0
 10
103.6
 20
79.6909
 11
103.6
 21
71.6727
  0
LINE
  8
0
 10
103.6
 20
71.6727
 11
100.4
 21
71.6727
  0
LINE
  8
0
 10
35.979
 20
76.3002
 11
35.9581
 21
76.3007
  0
LINE
  8
0
 10
35.9581
 20
76.3007
 11
35.9372
 21
76.3016
  0
LINE
  8
0
 10
35.9372
 20
76.3016
 11
35.9163
 21
76.3029
  0
LINE
  8
0
 10
35.9163
 20
76.3029
 11
35.8954
 21
76.3046
  0
LINE
  8
0
 10
35.8954
 20
76.3046
 11
35.8746
 21
76.3066
  0
LINE
  8
0
 10
35.8746
 20
76.3066
 11
35.8537
 21
76.3089
  0
LINE
  8
0
 10
35.8537
 20
76.3089
 11
35.833
 21
76.3117
  0
LINE
  8
0
 10
35.833
 20
76.3117
 11
35.8123
 21
76.3148
  0
LINE
  8
0
 10
35.8123
 20
76.3148
 11
35.7916
 21
76.3182
  0
LINE
  8
0
 10
35.7916
 20
76.3182
 11
35.771
 21
76.322
  0
LINE
  8
0
 10
35.771
 20
76.322
 11
35.7505
 21
76.3262
  0
LINE
  8
0
 10
35.7505
 20
76.3262
 11
35.7301
 21
76.3307
  0
LINE
  8
0
 10
35.7301
 20
76.3307
 11
35.7097
 21
76.3356
  0
LINE
  8
0
 10
35.7097
 20
76.3356
 11
35.6894
 21
76.3409
  0
LINE
  8
0
 10
35.6894
 20
76.3409
 11
35.6692
 21
76.3465
  0
LINE
  8
0
 10
35.6692
 20
76.3465
 11
35.6492
 21
76.3524
  0
LINE
  8
0
 10
35.6492
 20
76.3524
 11
35.6292
 21
76.3587
  0
LINE
  8
0
 10
35.6292
 20
76.3587
 11
35.6093
 21
76.3654
  0
LINE
  8
0
 10
35.6093
 20
76.3654
 11
35.5896
 21
76.3724
  0
LINE
  8
0
 10
35.5896
 20
76.3724
 11
35.5699
 21
76.3797
  0
LINE
  8
0
 10
35.5699
 20
76.3797
 11
35.5505
 21
76.3874
  0
LINE
  8
0
 10
35.5505
 20
76.3874
 11
35.5311
 21
76.3954
  0
LINE
  8
0
 10
35.5311
 20
76.3954
 11
35.5119
 21
76.4037
  0
LINE
  8
0
 10
35.5119
 20
76.4037
 11
35.4929
 21
76.4124
  0
LINE
  8
0
 10
35.4929
 20
76.4124
 11
35.474
 21
76.4214
  0
LINE
  8
0
 10
35.474
 20
76.4214
 11
35.4552
 21
76.4308
  0
LINE
  8
0
 10
35.4552
 20
76.4308
 11
35.4366
 21
76.4405
  0
LINE
  8
0
 10
35.4366
 20
76.4405
 11
35.4182
 21
76.4505
  0
LINE
  8
0
 10
35.4182
 20
76.4505
 11
35.4
 21
76.4608
  0
LINE
  8
0
 10
35.4
 20
76.4608
 11
35.3819
 21
76.4714
  0
LINE
  8
0
 10
35.3819
 20
76.4714
 11
35.3641
 21
76.4823
  0
LINE
  8
0
 10
35.3641
 20
76.4823
 11
35.3464
 21
76.4936
  0
LINE
  8
0
 10
35.3464
 20
76.4936
 11
35.329
 21
76.5052
  0
LINE
  8
0
 10
35.329
 20
76.5052
 11
35.3117
 21
76.517
  0
LINE
  8
0
 10
35.3117
 20
76.517
 11
35.2946
 21
76.5292
  0
LINE
  8
0
 10
35.2946
 20
76.5292
 11
35.2778
 21
76.5416
  0
LINE
  8
0
 10
35.2778
 20
76.5416
 11
35.2612
 21
76.5544
  0
LINE
  8
0
 10
35.2612
 20
76.5544
 11
35.2448
 21
76.5674
  0
LINE
  8
0
 10
35.2448
 20
76.5674
 11
35.2287
 21
76.5807
  0
LINE
  8
0
 10
35.2287
 20
76.5807
 11
35.2127
 21
76.5943
  0
LINE
  8
0
 10
35.2127
 20
76.5943
 11
35.197
 21
76.6082
  0
LINE
  8
0
 10
35.197
 20
76.6082
 11
35.1816
 21
76.6224
  0
LINE
  8
0
 10
35.1816
 20
76.6224
 11
35.1664
 21
76.6368
  0
LINE
  8
0
 10
35.1664
 20
76.6368
 11
35.1515
 21
76.6515
  0
LINE
  8
0
 10
35.1515
 20
76.6515
 11
35.1368
 21
76.6664
  0
LINE
  8
0
 10
35.1368
 20
76.6664
 11
35.1224
 21
76.6816
  0
LINE
  8
0
 10
35.1224
 20
76.6816
 11
35.1082
 21
76.697
  0
LINE
  8
0
 10
35.1082
 20
76.697
 11
35.0943
 21
76.7127
  0
LINE
  8
0
 10
35.0943
 20
76.7127
 11
35.0807
 21
76.7287
  0
LINE
  8
0
 10
35.0807
 20
76.7287
 11
35.0674
 21
76.7448
  0
LINE
  8
0
 10
35.0674
 20
76.7448
 11
35.0544
 21
76.7612
  0
LINE
  8
0
 10
35.0544
 20
76.7612
 11
35.0416
 21
76.7778
  0
LINE
  8
0
 10
35.0416
 20
76.7778
 11
35.0292
 21
76.7946
  0
LINE
  8
0
 10
35.0292
 20
76.7946
 11
35.017
 21
76.8117
  0
LINE
  8
0
 10
35.017
 20
76.8117
 11
35.0051
 21
76.829
  0
LINE
  8
0
 10
35.0051
 20
76.829
 11
34.9936
 21
76.8464
  0
LINE
  8
0
 10
34.9936
 20
76.8464
 11
34.9823
 21
76.8641
  0
LINE
  8
0
 10
34.9823
 20
76.8641
 11
34.9714
 21
76.882
  0
LINE
  8
0
 10
34.9714
 20
76.882
 11
34.9608
 21
76.9
  0
LINE
  8
0
 10
34.9608
 20
76.9
 11
34.9505
 21
76.9182
  0
LINE
  8
0
 10
34.9505
 20
76.9182
 11
34.9405
 21
76.9366
  0
LINE
  8
0
 10
34.9405
 20
76.9366
 11
34.9308
 21
76.9552
  0
LINE
  8
0
 10
34.9308
 20
76.9552
 11
34.9214
 21
76.974
  0
LINE
  8
0
 10
34.9214
 20
76.974
 11
34.9124
 21
76.9929
  0
LINE
  8
0
 10
34.9124
 20
76.9929
 11
34.9037
 21
77.0119
  0
LINE
  8
0
 10
34.9037
 20
77.0119
 11
34.8954
 21
77.0311
  0
LINE
  8
0
 10
34.8954
 20
77.0311
 11
34.8874
 21
77.0505
  0
LINE
  8
0
 10
34.8874
 20
77.0505
 11
34.8797
 21
77.07
  0
LINE
  8
0
 10
34.8797
 20
77.07
 11
34.8724
 21
77.0896
  0
LINE
  8
0
 10
34.8724
 20
77.0896
 11
34.8654
 21
77.1093
  0
LINE
  8
0
 10
34.8654
 20
77.1093
 11
34.8587
 21
77.1292
  0
LINE
  8
0
 10
34.8587
 20
77.1292
 11
34.8524
 21
77.1492
  0
LINE
  8
0
 10
34.8524
 20
77.1492
 11
34.8465
 21
77.1692
  0
LINE
  8
0
 10
34.8465
 20
77.1692
 11
34.8409
 21
77.1894
  0
LINE
  8
0
 10
34.8409
 20
77.1894
 11
34.8356
 21
77.2097
  0
LINE
  8
0
 10
34.8356
 20
77.2097
 11
34.8307
 21
77.2301
  0
LINE
  8
0
 10
34.8307
 20
77.2301
 11
34.8262
 21
77.2505
  0
LINE
  8
0
 10
34.8262
 20
77.2505
 11
34.822
 21
77.271
  0
LINE
  8
0
 10
34.822
 20
77.271
 11
34.8182
 21
77.2916
  0
LINE
  8
0
 10
34.8182
 20
77.2916
 11
34.8148
 21
77.3123
  0
LINE
  8
0
 10
34.8148
 20
77.3123
 11
34.8117
 21
77.333
  0
LINE
  8
0
 10
34.8117
 20
77.333
 11
34.8089
 21
77.3538
  0
LINE
  8
0
 10
34.8089
 20
77.3538
 11
34.8066
 21
77.3746
  0
LINE
  8
0
 10
34.8066
 20
77.3746
 11
34.8046
 21
77.3954
  0
LINE
  8
0
 10
34.8046
 20
77.3954
 11
34.8029
 21
77.4163
  0
LINE
  8
0
 10
34.8029
 20
77.4163
 11
34.8016
 21
77.4372
  0
LINE
  8
0
 10
34.8016
 20
77.4372
 11
34.8007
 21
77.4581
  0
LINE
  8
0
 10
34.8007
 20
77.4581
 11
34.8002
 21
77.479
  0
LINE
  8
0
 10
34.8002
 20
77.479
 11
34.8
 21
77.5
  0
LINE
  8
0
 10
34.8
 20
77.5
 11
34.8002
 21
77.5209
  0
LINE
  8
0
 10
34.8002
 20
77.5209
 11
34.8007
 21
77.5419
  0
LINE
  8
0
 10
34.8007
 20
77.5419
 11
34.8016
 21
77.5628
  0
LINE
  8
0
 10
34.8016
 20
77.5628
 11
34.8029
 21
77.5837
  0
LINE
  8
0
 10
34.8029
 20
77.5837
 11
34.8046
 21
77.6046
  0
LINE
  8
0
 10
34.8046
 20
77.6046
 11
34.8066
 21
77.6254
  0
LINE
  8
0
 10
34.8066
 20
77.6254
 11
34.8089
 21
77.6462
  0
LINE
  8
0
 10
34.8089
 20
77.6462
 11
34.8117
 21
77.667
  0
LINE
  8
0
 10
34.8117
 20
77.667
 11
34.8148
 21
77.6877
  0
LINE
  8
0
 10
34.8148
 20
77.6877
 11
34.8182
 21
77.7084
  0
LINE
  8
0
 10
34.8182
 20
77.7084
 11
34.822
 21
77.729
  0
LINE
  8
0
 10
34.822
 20
77.729
 11
34.8262
 21
77.7495
  0
LINE
  8
0
 10
34.8262
 20
77.7495
 11
34.8307
 21
77.7699
  0
LINE
  8
0
 10
34.8307
 20
77.7699
 11
34.8356
 21
77.7903
  0
LINE
  8
0
 10
34.8356
 20
77.7903
 11
34.8409
 21
77.8106
  0
LINE
  8
0
 10
34.8409
 20
77.8106
 11
34.8465
 21
77.8308
  0
LINE
  8
0
 10
34.8465
 20
77.8308
 11
34.8524
 21
77.8508
  0
LINE
  8
0
 10
34.8524
 20
77.8508
 11
34.8587
 21
77.8708
  0
LINE
  8
0
 10
34.8587
 20
77.8708
 11
34.8654
 21
77.8907
  0
LINE
  8
0
 10
34.8654
 20
77.8907
 11
34.8724
 21
77.9104
  0
LINE
  8
0
 10
34.8724
 20
77.9104
 11
34.8797
 21
77.93
  0
LINE
  8
0
 10
34.8797
 20
77.93
 11
34.8874
 21
77.9495
  0
LINE
  8
0
 10
34.8874
 20
77.9495
 11
34.8954
 21
77.9689
  0
LINE
  8
0
 10
34.8954
 20
77.9689
 11
34.9037
 21
77.9881
  0
LINE
  8
0
 10
34.9037
 20
77.9881
 11
34.9124
 21
78.0071
  0
LINE
  8
0
 10
34.9124
 20
78.0071
 11
34.9214
 21
78.026
  0
LINE
  8
0
 10
34.9214
 20
78.026
 11
34.9308
 21
78.0448
  0
LINE
  8
0
 10
34.9308
 20
78.0448
 11
34.9405
 21
78.0634
  0
LINE
  8
0
 10
34.9405
 20
78.0634
 11
34.9505
 21
78.0818
  0
LINE
  8
0
 10
34.9505
 20
78.0818
 11
34.9608
 21
78.1
  0
LINE
  8
0
 10
34.9608
 20
78.1
 11
34.9714
 21
78.118
  0
LINE
  8
0
 10
34.9714
 20
78.118
 11
34.9823
 21
78.1359
  0
LINE
  8
0
 10
34.9823
 20
78.1359
 11
34.9936
 21
78.1536
  0
LINE
  8
0
 10
34.9936
 20
78.1536
 11
35.0051
 21
78.171
  0
LINE
  8
0
 10
35.0051
 20
78.171
 11
35.017
 21
78.1883
  0
LINE
  8
0
 10
35.017
 20
78.1883
 11
35.0292
 21
78.2053
  0
LINE
  8
0
 10
35.0292
 20
78.2053
 11
35.0416
 21
78.2222
  0
LINE
  8
0
 10
35.0416
 20
78.2222
 11
35.0544
 21
78.2388
  0
LINE
  8
0
 10
35.0544
 20
78.2388
 11
35.0674
 21
78.2552
  0
LINE
  8
0
 10
35.0674
 20
78.2552
 11
35.0807
 21
78.2713
  0
LINE
  8
0
 10
35.0807
 20
78.2713
 11
35.0943
 21
78.2873
  0
LINE
  8
0
 10
35.0943
 20
78.2873
 11
35.1082
 21
78.3029
  0
LINE
  8
0
 10
35.1082
 20
78.3029
 11
35.1224
 21
78.3184
  0
LINE
  8
0
 10
35.1224
 20
78.3184
 11
35.1368
 21
78.3336
  0
LINE
  8
0
 10
35.1368
 20
78.3336
 11
35.1515
 21
78.3485
  0
LINE
  8
0
 10
35.1515
 20
78.3485
 11
35.1664
 21
78.3632
  0
LINE
  8
0
 10
35.1664
 20
78.3632
 11
35.1816
 21
78.3776
  0
LINE
  8
0
 10
35.1816
 20
78.3776
 11
35.197
 21
78.3918
  0
LINE
  8
0
 10
35.197
 20
78.3918
 11
35.2127
 21
78.4057
  0
LINE
  8
0
 10
35.2127
 20
78.4057
 11
35.2287
 21
78.4193
  0
LINE
  8
0
 10
35.2287
 20
78.4193
 11
35.2448
 21
78.4326
  0
LINE
  8
0
 10
35.2448
 20
78.4326
 11
35.2612
 21
78.4456
  0
LINE
  8
0
 10
35.2612
 20
78.4456
 11
35.2778
 21
78.4584
  0
LINE
  8
0
 10
35.2778
 20
78.4584
 11
35.2946
 21
78.4708
  0
LINE
  8
0
 10
35.2946
 20
78.4708
 11
35.3117
 21
78.483
  0
LINE
  8
0
 10
35.3117
 20
78.483
 11
35.329
 21
78.4948
  0
LINE
  8
0
 10
35.329
 20
78.4948
 11
35.3464
 21
78.5064
  0
LINE
  8
0
 10
35.3464
 20
78.5064
 11
35.3641
 21
78.5177
  0
LINE
  8
0
 10
35.3641
 20
78.5177
 11
35.3819
 21
78.5286
  0
LINE
  8
0
 10
35.3819
 20
78.5286
 11
35.4
 21
78.5392
  0
LINE
  8
0
 10
35.4
 20
78.5392
 11
35.4182
 21
78.5495
  0
LINE
  8
0
 10
35.4182
 20
78.5495
 11
35.4366
 21
78.5595
  0
LINE
  8
0
 10
35.4366
 20
78.5595
 11
35.4552
 21
78.5692
  0
LINE
  8
0
 10
35.4552
 20
78.5692
 11
35.474
 21
78.5786
  0
LINE
  8
0
 10
35.474
 20
78.5786
 11
35.4929
 21
78.5876
  0
LINE
  8
0
 10
35.4929
 20
78.5876
 11
35.5119
 21
78.5963
  0
LINE
  8
0
 10
35.5119
 20
78.5963
 11
35.5311
 21
78.6046
  0
LINE
  8
0
 10
35.5311
 20
78.6046
 11
35.5505
 21
78.6126
  0
LINE
  8
0
 10
35.5505
 20
78.6126
 11
35.5699
 21
78.6203
  0
LINE
  8
0
 10
35.5699
 20
78.6203
 11
35.5896
 21
78.6276
  0
LINE
  8
0
 10
35.5896
 20
78.6276
 11
35.6093
 21
78.6346
  0
LINE
  8
0
 10
35.6093
 20
78.6346
 11
35.6292
 21
78.6413
  0
LINE
  8
0
 10
35.6292
 20
78.6413
 11
35.6492
 21
78.6476
  0
LINE
  8
0
 10
35.6492
 20
78.6476
 11
35.6692
 21
78.6535
  0
LINE
  8
0
 10
35.6692
 20
78.6535
 11
35.6894
 21
78.6591
  0
LINE
  8
0
 10
35.6894
 20
78.6591
 11
35.7097
 21
78.6644
  0
LINE
  8
0
 10
35.7097
 20
78.6644
 11
35.7301
 21
78.6692
  0
LINE
  8
0
 10
35.7301
 20
78.6692
 11
35.7505
 21
78.6738
  0
LINE
  8
0
 10
35.7505
 20
78.6738
 11
35.771
 21
78.6779
  0
LINE
  8
0
 10
35.771
 20
78.6779
 11
35.7916
 21
78.6818
  0
LINE
  8
0
 10
35.7916
 20
78.6818
 11
35.8123
 21
78.6852
  0
LINE
  8
0
 10
35.8123
 20
78.6852
 11
35.833
 21
78.6883
  0
LINE
  8
0
 10
35.833
 20
78.6883
 11
35.8537
 21
78.6911
  0
LINE
  8
0
 10
35.8537
 20
78.6911
 11
35.8746
 21
78.6934
  0
LINE
  8
0
 10
35.8746
 20
78.6934
 11
35.8954
 21
78.6954
  0
LINE
  8
0
 10
35.8954
 20
78.6954
 11
35.9163
 21
78.6971
  0
LINE
  8
0
 10
35.9163
 20
78.6971
 11
35.9372
 21
78.6983
  0
LINE
  8
0
 10
35.9372
 20
78.6983
 11
35.9581
 21
78.6993
  0
LINE
  8
0
 10
35.9581
 20
78.6993
 11
35.979
 21
78.6998
  0
LINE
  8
0
 10
35.979
 20
78.6998
 11
36
 21
78.7
  0
LINE
  8
0
 10
36
 20
78.7
 11
36.0209
 21
78.6998
  0
LINE
  8
0
 10
36.0209
 20
78.6998
 11
36.0419
 21
78.6993
  0
LINE
  8
0
 10
36.0419
 20
78.6993
 11
36.0628
 21
78.6983
  0
LINE
  8
0
 10
36.0628
 20
78.6983
 11
36.0837
 21
78.6971
  0
LINE
  8
0
 10
36.0837
 20
78.6971
 11
36.1046
 21
78.6954
  0
LINE
  8
0
 10
36.1046
 20
78.6954
 11
36.1254
 21
78.6934
  0
LINE
  8
0
 10
36.1254
 20
78.6934
 11
36.1462
 21
78.6911
  0
LINE
  8
0
 10
36.1462
 20
78.6911
 11
36.167
 21
78.6883
  0
LINE
  8
0
 10
36.167
 20
78.6883
 11
36.1877
 21
78.6852
  0
LINE
  8
0
 10
36.1877
 20
78.6852
 11
36.2084
 21
78.6818
  0
LINE
  8
0
 10
36.2084
 20
78.6818
 11
36.229
 21
78.6779
  0
LINE
  8
0
 10
36.229
 20
78.6779
 11
36.2495
 21
78.6738
  0
LINE
  8
0
 10
36.2495
 20
78.6738
 11
36.2699
 21
78.6692
  0
LINE
  8
0
 10
36.2699
 20
78.6692
 11
36.2903
 21
78.6644
  0
LINE
  8
0
 10
36.2903
 20
78.6644
 11
36.3106
 21
78.6591
  0
LINE
  8
0
 10
36.3106
 20
78.6591
 11
36.3308
 21
78.6535
  0
LINE
  8
0
 10
36.3308
 20
78.6535
 11
36.3508
 21
78.6476
  0
LINE
  8
0
 10
36.3508
 20
78.6476
 11
36.3708
 21
78.6413
  0
LINE
  8
0
 10
36.3708
 20
78.6413
 11
36.3907
 21
78.6346
  0
LINE
  8
0
 10
36.3907
 20
78.6346
 11
36.4104
 21
78.6276
  0
LINE
  8
0
 10
36.4104
 20
78.6276
 11
36.43
 21
78.6203
  0
LINE
  8
0
 10
36.43
 20
78.6203
 11
36.4495
 21
78.6126
  0
LINE
  8
0
 10
36.4495
 20
78.6126
 11
36.4689
 21
78.6046
  0
LINE
  8
0
 10
36.4689
 20
78.6046
 11
36.4881
 21
78.5963
  0
LINE
  8
0
 10
36.4881
 20
78.5963
 11
36.5071
 21
78.5876
  0
LINE
  8
0
 10
36.5071
 20
78.5876
 11
36.526
 21
78.5786
  0
LINE
  8
0
 10
36.526
 20
78.5786
 11
36.5448
 21
78.5692
  0
LINE
  8
0
 10
36.5448
 20
78.5692
 11
36.5634
 21
78.5595
  0
LINE
  8
0
 10
36.5634
 20
78.5595
 11
36.5818
 21
78.5495
  0
LINE
  8
0
 10
36.5818
 20
78.5495
 11
36.6
 21
78.5392
  0
LINE
  8
0
 10
36.6
 20
78.5392
 11
36.618
 21
78.5286
  0
LINE
  8
0
 10
36.618
 20
78.5286
 11
36.6359
 21
78.5177
  0
LINE
  8
0
 10
36.6359
 20
78.5177
 11
36.6536
 21
78.5064
  0
LINE
  8
0
 10
36.6536
 20
78.5064
 11
36.671
 21
78.4948
  0
LINE
  8
0
 10
36.671
 20
78.4948
 11
36.6883
 21
78.483
  0
LINE
  8
0
 10
36.6883
 20
78.483
 11
36.7053
 21
78.4708
  0
LINE
  8
0
 10
36.7053
 20
78.4708
 11
36.7222
 21
78.4584
  0
LINE
  8
0
 10
36.7222
 20
78.4584
 11
36.7388
 21
78.4456
  0
LINE
  8
0
 10
36.7388
 20
78.4456
 11
36.7552
 21
78.4326
  0
LINE
  8
0
 10
36.7552
 20
78.4326
 11
36.7713
 21
78.4193
  0
LINE
  8
0
 10
36.7713
 20
78.4193
 11
36.7873
 21
78.4057
  0
LINE
  8
0
 10
36.7873
 20
78.4057
 11
36.8029
 21
78.3918
  0
LINE
  8
0
 10
36.8029
 20
78.3918
 11
36.8184
 21
78.3776
  0
LINE
  8
0
 10
36.8184
 20
78.3776
 11
36.8336
 21
78.3632
  0
LINE
  8
0
 10
36.8336
 20
78.3632
 11
36.8485
 21
78.3485
  0
LINE
  8
0
 10
36.8485
 20
78.3485
 11
36.8632
 21
78.3336
  0
LINE
  8
0
 10
36.8632
 20
78.3336
 11
36.8776
 21
78.3184
  0
LINE
  8
0
 10
36.8776
 20
78.3184
 11
36.8918
 21
78.3029
  0
LINE
  8
0
 10
36.8918
 20
78.3029
 11
36.9056
 21
78.2873
  0
LINE
  8
0
 10
36.9056
 20
78.2873
 11
36.9193
 21
78.2713
  0
LINE
  8
0
 10
36.9193
 20
78.2713
 11
36.9326
 21
78.2552
  0
LINE
  8
0
 10
36.9326
 20
78.2552
 11
36.9456
 21
78.2388
  0
LINE
  8
0
 10
36.9456
 20
78.2388
 11
36.9584
 21
78.2222
  0
LINE
  8
0
 10
36.9584
 20
78.2222
 11
36.9708
 21
78.2053
  0
LINE
  8
0
 10
36.9708
 20
78.2053
 11
36.983
 21
78.1883
  0
LINE
  8
0
 10
36.983
 20
78.1883
 11
36.9948
 21
78.171
  0
LINE
  8
0
 10
36.9948
 20
78.171
 11
37.0064
 21
78.1536
  0
LINE
  8
0
 10
37.0064
 20
78.1536
 11
37.0177
 21
78.1359
  0
LINE
  8
0
 10
37.0177
 20
78.1359
 11
37.0286
 21
78.118
  0
LINE
  8
0
 10
37.0286
 20
78.118
 11
37.0392
 21
78.1
  0
LINE
  8
0
 10
37.0392
 20
78.1
 11
37.0495
 21
78.0818
  0
LINE
  8
0
 10
37.0495
 20
78.0818
 11
37.0595
 21
78.0634
  0
LINE
  8
0
 10
37.0595
 20
78.0634
 11
37.0692
 21
78.0448
  0
LINE
  8
0
 10
37.0692
 20
78.0448
 11
37.0786
 21
78.026
  0
LINE
  8
0
 10
37.0786
 20
78.026
 11
37.0876
 21
78.0071
  0
LINE
  8
0
 10
37.0876
 20
78.0071
 11
37.0963
 21
77.9881
  0
LINE
  8
0
 10
37.0963
 20
77.9881
 11
37.1046
 21
77.9689
  0
LINE
  8
0
 10
37.1046
 20
77.9689
 11
37.1126
 21
77.9495
  0
LINE
  8
0
 10
37.1126
 20
77.9495
 11
37.1203
 21
77.93
  0
LINE
  8
0
 10
37.1203
 20
77.93
 11
37.1276
 21
77.9104
  0
LINE
  8
0
 10
37.1276
 20
77.9104
 11
37.1346
 21
77.8907
  0
LINE
  8
0
 10
37.1346
 20
77.8907
 11
37.1413
 21
77.8708
  0
LINE
  8
0
 10
37.1413
 20
77.8708
 11
37.1476
 21
77.8508
  0
LINE
  8
0
 10
37.1476
 20
77.8508
 11
37.1535
 21
77.8308
  0
LINE
  8
0
 10
37.1535
 20
77.8308
 11
37.1591
 21
77.8106
  0
LINE
  8
0
 10
37.1591
 20
77.8106
 11
37.1644
 21
77.7903
  0
LINE
  8
0
 10
37.1644
 20
77.7903
 11
37.1692
 21
77.7699
  0
LINE
  8
0
 10
37.1692
 20
77.7699
 11
37.1738
 21
77.7495
  0
LINE
  8
0
 10
37.1738
 20
77.7495
 11
37.1779
 21
77.729
  0
LINE
  8
0
 10
37.1779
 20
77.729
 11
37.1818
 21
77.7084
  0
LINE
  8
0
 10
37.1818
 20
77.7084
 11
37.1852
 21
77.6877
  0
LINE
  8
0
 10
37.1852
 20
77.6877
 11
37.1883
 21
77.667
  0
LINE
  8
0
 10
37.1883
 20
77.667
 11
37.1911
 21
77.6462
  0
LINE
  8
0
 10
37.1911
 20
77.6462
 11
37.1934
 21
77.6254
  0
LINE
  8
0
 10
37.1934
 20
77.6254
 11
37.1954
 21
77.6046
  0
LINE
  8
0
 10
37.1954
 20
77.6046
 11
37.1971
 21
77.5837
  0
LINE
  8
0
 10
37.1971
 20
77.5837
 11
37.1983
 21
77.5628
  0
LINE
  8
0
 10
37.1983
 20
77.5628
 11
37.1993
 21
77.5419
  0
LINE
  8
0
 10
37.1993
 20
77.5419
 11
37.1998
 21
77.5209
  0
LINE
  8
0
 10
37.1998
 20
77.5209
 11
37.2
 21
77.5
  0
LINE
  8
0
 10
37.2
 20
77.5
 11
37.1998
 21
77.479
  0
LINE
  8
0
 10
37.1998
 20
77.479
 11
37.1993
 21
77.4581
  0
LINE
  8
0
 10
37.1993
 20
77.4581
 11
37.1983
 21
77.4372
  0
LINE
  8
0
 10
37.1983
 20
77.4372
 11
37.1971
 21
77.4163
  0
LINE
  8
0
 10
37.1971
 20
77.4163
 11
37.1954
 21
77.3954
  0
LINE
  8
0
 10
37.1954
 20
77.3954
 11
37.1934
 21
77.3746
  0
LINE
  8
0
 10
37.1934
 20
77.3746
 11
37.1911
 21
77.3538
  0
LINE
  8
0
 10
37.1911
 20
77.3538
 11
37.1883
 21
77.333
  0
LINE
  8
0
 10
37.1883
 20
77.333
 11
37.1852
 21
77.3123
  0
LINE
  8
0
 10
37.1852
 20
77.3123
 11
37.1818
 21
77.2916
  0
LINE
  8
0
 10
37.1818
 20
77.2916
 11
37.1779
 21
77.271
  0
LINE
  8
0
 10
37.1779
 20
77.271
 11
37.1738
 21
77.2505
  0
LINE
  8
0
 10
37.1738
 20
77.2505
 11
37.1692
 21
77.2301
  0
LINE
  8
0
 10
37.1692
 20
77.2301
 11
37.1644
 21
77.2097
  0
LINE
  8
0
 10
37.1644
 20
77.2097
 11
37.1591
 21
77.1894
  0
LINE
  8
0
 10
37.1591
 20
77.1894
 11
37.1535
 21
77.1692
  0
LINE
  8
0
 10
37.1535
 20
77.1692
 11
37.1476
 21
77.1492
  0
LINE
  8
0
 10
37.1476
 20
77.1492
 11
37.1413
 21
77.1292
  0
LINE
  8
0
 10
37.1413
 20
77.1292
 11
37.1346
 21
77.1093
  0
LINE
  8
0
 10
37.1346
 20
77.1093
 11
37.1276
 21
77.0896
  0
LINE
  8
0
 10
37.1276
 20
77.0896
 11
37.1203
 21
77.07
  0
LINE
  8
0
 10
37.1203
 20
77.07
 11
37.1126
 21
77.0505
  0
LINE
  8
0
 10
37.1126
 20
77.0505
 11
37.1046
 21
77.0311
  0
LINE
  8
0
 10
37.1046
 20
77.0311
 11
37.0963
 21
77.0119
  0
LINE
  8
0
 10
37.0963
 20
77.0119
 11
37.0876
 21
76.9929
  0
LINE
  8
0
 10
37.0876
 20
76.9929
 11
37.0786
 21
76.974
  0
LINE
  8
0
 10
37.0786
 20
76.974
 11
37.0692
 21
76.9552
  0
LINE
  8
0
 10
37.0692
 20
76.9552
 11
37.0595
 21
76.9366
  0
LINE
  8
0
 10
37.0595
 20
76.9366
 11
37.0495
 21
76.9182
  0
LINE
  8
0
 10
37.0495
 20
76.9182
 11
37.0392
 21
76.9
  0
LINE
  8
0
 10
37.0392
 20
76.9
 11
37.0286
 21
76.882
  0
LINE
  8
0
 10
37.0286
 20
76.882
 11
37.0177
 21
76.8641
  0
LINE
  8
0
 10
37.0177
 20
76.8641
 11
37.0064
 21
76.8464
  0
LINE
  8
0
 10
37.0064
 20
76.8464
 11
36.9948
 21
76.829
  0
LINE
  8
0
 10
36.9948
 20
76.829
 11
36.983
 21
76.8117
  0
LINE
  8
0
 10
36.983
 20
76.8117
 11
36.9708
 21
76.7946
  0
LINE
  8
0
 10
36.9708
 20
76.7946
 11
36.9584
 21
76.7778
  0
LINE
  8
0
 10
36.9584
 20
76.7778
 11
36.9456
 21
76.7612
  0
LINE
  8
0
 10
36.9456
 20
76.7612
 11
36.9326
 21
76.7448
  0
LINE
  8
0
 10
36.9326
 20
76.7448
 11
36.9193
 21
76.7287
  0
LINE
  8
0
 10
36.9193
 20
76.7287
 11
36.9056
 21
76.7127
  0
LINE
  8
0
 10
36.9056
 20
76.7127
 11
36.8918
 21
76.697
  0
LINE
  8
0
 10
36.8918
 20
76.697
 11
36.8776
 21
76.6816
  0
LINE
  8
0
 10
36.8776
 20
76.6816
 11
36.8632
 21
76.6664
  0
LINE
  8
0
 10
36.8632
 20
76.6664
 11
36.8485
 21
76.6515
  0
LINE
  8
0
 10
36.8485
 20
76.6515
 11
36.8336
 21
76.6368
  0
LINE
  8
0
 10
36.8336
 20
76.6368
 11
36.8184
 21
76.6224
  0
LINE
  8
0
 10
36.8184
 20
76.6224
 11
36.8029
 21
76.6082
  0
LINE
  8
0
 10
36.8029
 20
76.6082
 11
36.7873
 21
76.5943
  0
LINE
  8
0
 10
36.7873
 20
76.5943
 11
36.7713
 21
76.5807
  0
LINE
  8
0
 10
36.7713
 20
76.5807
 11
36.7552
 21
76.5674
  0
LINE
  8
0
 10
36.7552
 20
76.5674
 11
36.7388
 21
76.5544
  0
LINE
  8
0
 10
36.7388
 20
76.5544
 11
36.7222
 21
76.5416
  0
LINE
  8
0
 10
36.7222
 20
76.5416
 11
36.7053
 21
76.5292
  0
LINE
  8
0
 10
36.7053
 20
76.5292
 11
36.6883
 21
76.517
  0
LINE
  8
0
 10
36.6883
 20
76.517
 11
36.671
 21
76.5052
  0
LINE
  8
0
 10
36.671
 20
76.5052
 11
36.6536
 21
76.4936
  0
LINE
  8
0
 10
36.6536
 20
76.4936
 11
36.6359
 21
76.4823
  0
LINE
  8
0
 10
36.6359
 20
76.4823
 11
36.618
 21
76.4714
  0
LINE
  8
0
 10
36.618
 20
76.4714
 11
36.6
 21
76.4608
  0
LINE
  8
0
 10
36.6
 20
76.4608
 11
36.5818
 21
76.4505
  0
LINE
  8
0
 10
36.5818
 20
76.4505
 11
36.5634
 21
76.4405
  0
LINE
  8
0
 10
36.5634
 20
76.4405
 11
36.5448
 21
76.4308
  0
LINE
  8
0
 10
36.5448
 20
76.4308
 11
36.526
 21
76.4214
  0
LINE
  8
0
 10
36.526
 20
76.4214
 11
36.5071
 21
76.4124
  0
LINE
  8
0
 10
36.5071
 20
76.4124
 11
36.4881
 21
76.4037
  0
LINE
  8
0
 10
36.4881
 20
76.4037
 11
36.4689
 21
76.3954
  0
LINE
  8
0
 10
36.4689
 20
76.3954
 11
36.4495
 21
76.3874
  0
LINE
  8
0
 10
36.4495
 20
76.3874
 11
36.43
 21
76.3797
  0
LINE
  8
0
 10
36.43
 20
76.3797
 11
36.4104
 21
76.3724
  0
LINE
  8
0
 10
36.4104
 20
76.3724
 11
36.3907
 21
76.3654
  0
LINE
  8
0
 10
36.3907
 20
76.3654
 11
36.3708
 21
76.3587
  0
LINE
  8
0
 10
36.3708
 20
76.3587
 11
36.3508
 21
76.3524
  0
LINE
  8
0
 10
36.3508
 20
76.3524
 11
36.3308
 21
76.3465
  0
LINE
  8
0
 10
36.3308
 20
76.3465
 11
36.3106
 21
76.3409
  0
LINE
  8
0
 10
36.3106
 20
76.3409
 11
36.2903
 21
76.3356
  0
LINE
  8
0
 10
36.2903
 20
76.3356
 11
36.2699
 21
76.3307
  0
LINE
  8
0
 10
36.2699
 20
76.3307
 11
36.2495
 21
76.3262
  0
LINE
  8
0
 10
36.2495
 20
76.3262
 11
36.229
 21
76.322
  0
LINE
  8
0
 10
36.229
 20
76.322
 11
36.2084
 21
76.3182
  0
LINE
  8
0
 10
36.2084
 20
76.3182
 11
36.1877
 21
76.3148
  0
LINE
  8
0
 10
36.1877
 20
76.3148
 11
36.167
 21
76.3117
  0
LINE
  8
0
 10
36.167
 20
76.3117
 11
36.1462
 21
76.3089
  0
LINE
  8
0
 10
36.1462
 20
76.3089
 11
36.1254
 21
76.3066
  0
LINE
  8
0
 10
36.1254
 20
76.3066
 11
36.1046
 21
76.3046
  0
LINE
  8
0
 10
36.1046
 20
76.3046
 11
36.0837
 21
76.3029
  0
LINE
  8
0
 10
36.0837
 20
76.3029
 11
36.0628
 21
76.3016
  0
LINE
  8
0
 10
36.0628
 20
76.3016
 11
36.0419
 21
76.3007
  0
LINE
  8
0
 10
36.0419
 20
76.3007
 11
36.0209
 21
76.3002
  0
LINE
  8
0
 10
36.0209
 20
76.3002
 11
36
 21
76.3
  0
LINE
  8
0
 10
36
 20
76.3
 11
35.979
 21
76.3002
  0
LINE
  8
0
 10
-3.59999
 20
54.9454
 11
-3.59999
 21
62.9636
  0
LINE
  8
0
 10
-3.59999
 20
62.9636
 11
-0.399994
 21
62.9636
  0
LINE
  8
0
 10
-0.399994
 20
62.9636
 11
-0.399994
 21
54.9454
  0
LINE
  8
0
 10
-0.399994
 20
54.9454
 11
-3.59999
 21
54.9454
  0
LINE
  8
0
 10
100.4
 20
54.9454
 11
100.4
 21
62.9636
  0
LINE
  8
0
 10
100.4
 20
62.9636
 11
103.6
 21
62.9636
  0
LINE
  8
0
 10
103.6
 20
62.9636
 11
103.6
 21
54.9454
  0
LINE
  8
0
 10
103.6
 20
54.9454
 11
100.4
 21
54.9454
  0
LINE
  8
0
 10
35.979
 20
58.3002
 11
35.9581
 21
58.3007
  0
LINE
  8
0
 10
35.9581
 20
58.3007
 11
35.9372
 21
58.3016
  0
LINE
  8
0
 10
35.9372
 20
58.3016
 11
35.9163
 21
58.3029
  0
LINE
  8
0
 10
35.9163
 20
58.3029
 11
35.8954
 21
58.3046
  0
LINE
  8
0
 10
35.8954
 20
58.3046
 11
35.8746
 21
58.3066
  0
LINE
  8
0
 10
35.8746
 20
58.3066
 11
35.8537
 21
58.3089
  0
LINE
  8
0
 10
35.8537
 20
58.3089
 11
35.833
 21
58.3117
  0
LINE
  8
0
 10
35.833
 20
58.3117
 11
35.8123
 21
58.3148
  0
LINE
  8
0
 10
35.8123
 20
58.3148
 11
35.7916
 21
58.3182
  0
LINE
  8
0
 10
35.7916
 20
58.3182
 11
35.771
 21
58.322
  0
LINE
  8
0
 10
35.771
 20
58.322
 11
35.7505
 21
58.3262
  0
LINE
  8
0
 10
35.7505
 20
58.3262
 11
35.7301
 21
58.3307
  0
LINE
  8
0
 10
35.7301
 20
58.3307
 11
35.7097
 21
58.3356
  0
LINE
  8
0
 10
35.7097
 20
58.3356
 11
35.6894
 21
58.3409
  0
LINE
  8
0
 10
35.6894
 20
58.3409
 11
35.6692
 21
58.3465
  0
LINE
  8
0
 10
35.6692
 20
58.3465
 11
35.6492
 21
58.3524
  0
LINE
  8
0
 10
35.6492
 20
58.3524
 11
35.6292
 21
58.3587
  0
LINE
  8
0
 10
35.6292
 20
58.3587
 11
35.6093
 21
58.3654
  0
LINE
  8
0
 10
35.6093
 20
58.3654
 11
35.5896
 21
58.3724
  0
LINE
  8
0
 10
35.5896
 20
58.3724
 11
35.5699
 21
58.3797
  0
LINE
  8
0
 10
35.5699
 20
58.3797
 11
35.5505
 21
58.3874
  0
LINE
  8
0
 10
35.5505
 20
58.3874
 11
35.5311
 21
58.3954
  0
LINE
  8
0
 10
35.5311
 20
58.3954
 11
35.5119
 21
58.4037
  0
LINE
  8
0
 10
35.5119
 20
58.4037
 11
35.4929
 21
58.4124
  0
LINE
  8
0
 10
35.4929
 20
58.4124
 11
35.474
 21
58.4214
  0
LINE
  8
0
 10
35.474
 20
58.4214
 11
35.4552
 21
58.4308
  0
LINE
  8
0
 10
35.4552
 20
58.4308
 11
35.4366
 21
58.4405
  0
LINE
  8
0
 10
35.4366
 20
58.4405
 11
35.4182
 21
58.4505
  0
LINE
  8
0
 10
35.4182
 20
58.4505
 11
35.4
 21
58.4608
  0
LINE
  8
0
 10
35.4
 20
58.4608
 11
35.3819
 21
58.4714
  0
LINE
  8
0
 10
35.3819
 20
58.4714
 11
35.3641
 21
58.4823
  0
LINE
  8
0
 10
35.3641
 20
58.4823
 11
35.3464
 21
58.4936
  0
LINE
  8
0
 10
35.3464
 20
58.4936
 11
35.329
 21
58.5051
  0
LINE
  8
0
 10
35.329
 20
58.5051
 11
35.3117
 21
58.517
  0
LINE
  8
0
 10
35.3117
 20
58.517
 11
35.2946
 21
58.5292
  0
LINE
  8
0
 10
35.2946
 20
58.5292
 11
35.2778
 21
58.5416
  0
LINE
  8
0
 10
35.2778
 20
58.5416
 11
35.2612
 21
58.5544
  0
LINE
  8
0
 10
35.2612
 20
58.5544
 11
35.2448
 21
58.5674
  0
LINE
  8
0
 10
35.2448
 20
58.5674
 11
35.2287
 21
58.5807
  0
LINE
  8
0
 10
35.2287
 20
58.5807
 11
35.2127
 21
58.5943
  0
LINE
  8
0
 10
35.2127
 20
58.5943
 11
35.197
 21
58.6082
  0
LINE
  8
0
 10
35.197
 20
58.6082
 11
35.1816
 21
58.6224
  0
LINE
  8
0
 10
35.1816
 20
58.6224
 11
35.1664
 21
58.6368
  0
LINE
  8
0
 10
35.1664
 20
58.6368
 11
35.1515
 21
58.6515
  0
LINE
  8
0
 10
35.1515
 20
58.6515
 11
35.1368
 21
58.6664
  0
LINE
  8
0
 10
35.1368
 20
58.6664
 11
35.1224
 21
58.6816
  0
LINE
  8
0
 10
35.1224
 20
58.6816
 11
35.1082
 21
58.697
  0
LINE
  8
0
 10
35.1082
 20
58.697
 11
35.0943
 21
58.7127
  0
LINE
  8
0
 10
35.0943
 20
58.7127
 11
35.0807
 21
58.7287
  0
LINE
  8
0
 10
35.0807
 20
58.7287
 11
35.0674
 21
58.7448
  0
LINE
  8
0
 10
35.0674
 20
58.7448
 11
35.0544
 21
58.7612
  0
LINE
  8
0
 10
35.0544
 20
58.7612
 11
35.0416
 21
58.7778
  0
LINE
  8
0
 10
35.0416
 20
58.7778
 11
35.0292
 21
58.7946
  0
LINE
  8
0
 10
35.0292
 20
58.7946
 11
35.017
 21
58.8117
  0
LINE
  8
0
 10
35.017
 20
58.8117
 11
35.0051
 21
58.829
  0
LINE
  8
0
 10
35.0051
 20
58.829
 11
34.9936
 21
58.8464
  0
LINE
  8
0
 10
34.9936
 20
58.8464
 11
34.9823
 21
58.8641
  0
LINE
  8
0
 10
34.9823
 20
58.8641
 11
34.9714
 21
58.8819
  0
LINE
  8
0
 10
34.9714
 20
58.8819
 11
34.9608
 21
58.9
  0
LINE
  8
0
 10
34.9608
 20
58.9
 11
34.9505
 21
58.9182
  0
LINE
  8
0
 10
34.9505
 20
58.9182
 11
34.9405
 21
58.9366
  0
LINE
  8
0
 10
34.9405
 20
58.9366
 11
34.9308
 21
58.9552
  0
LINE
  8
0
 10
34.9308
 20
58.9552
 11
34.9214
 21
58.974
  0
LINE
  8
0
 10
34.9214
 20
58.974
 11
34.9124
 21
58.9929
  0
LINE
  8
0
 10
34.9124
 20
58.9929
 11
34.9037
 21
59.0119
  0
LINE
  8
0
 10
34.9037
 20
59.0119
 11
34.8954
 21
59.0311
  0
LINE
  8
0
 10
34.8954
 20
59.0311
 11
34.8874
 21
59.0505
  0
LINE
  8
0
 10
34.8874
 20
59.0505
 11
34.8797
 21
59.0699
  0
LINE
  8
0
 10
34.8797
 20
59.0699
 11
34.8724
 21
59.0896
  0
LINE
  8
0
 10
34.8724
 20
59.0896
 11
34.8654
 21
59.1093
  0
LINE
  8
0
 10
34.8654
 20
59.1093
 11
34.8587
 21
59.1292
  0
LINE
  8
0
 10
34.8587
 20
59.1292
 11
34.8524
 21
59.1492
  0
LINE
  8
0
 10
34.8524
 20
59.1492
 11
34.8465
 21
59.1692
  0
LINE
  8
0
 10
34.8465
 20
59.1692
 11
34.8409
 21
59.1894
  0
LINE
  8
0
 10
34.8409
 20
59.1894
 11
34.8356
 21
59.2097
  0
LINE
  8
0
 10
34.8356
 20
59.2097
 11
34.8307
 21
59.2301
  0
LINE
  8
0
 10
34.8307
 20
59.2301
 11
34.8262
 21
59.2505
  0
LINE
  8
0
 10
34.8262
 20
59.2505
 11
34.822
 21
59.271
  0
LINE
  8
0
 10
34.822
 20
59.271
 11
34.8182
 21
59.2916
  0
LINE
  8
0
 10
34.8182
 20
59.2916
 11
34.8148
 21
59.3123
  0
LINE
  8
0
 10
34.8148
 20
59.3123
 11
34.8117
 21
59.333
  0
LINE
  8
0
 10
34.8117
 20
59.333
 11
34.8089
 21
59.3537
  0
LINE
  8
0
 10
34.8089
 20
59.3537
 11
34.8066
 21
59.3746
  0
LINE
  8
0
 10
34.8066
 20
59.3746
 11
34.8046
 21
59.3954
  0
LINE
  8
0
 10
34.8046
 20
59.3954
 11
34.8029
 21
59.4163
  0
LINE
  8
0
 10
34.8029
 20
59.4163
 11
34.8016
 21
59.4372
  0
LINE
  8
0
 10
34.8016
 20
59.4372
 11
34.8007
 21
59.4581
  0
LINE
  8
0
 10
34.8007
 20
59.4581
 11
34.8002
 21
59.479
  0
LINE
  8
0
 10
34.8002
 20
59.479
 11
34.8
 21
59.5
  0
LINE
  8
0
 10
34.8
 20
59.5
 11
34.8002
 21
59.5209
  0
LINE
  8
0
 10
34.8002
 20
59.5209
 11
34.8007
 21
59.5419
  0
LINE
  8
0
 10
34.8007
 20
59.5419
 11
34.8016
 21
59.5628
  0
LINE
  8
0
 10
34.8016
 20
59.5628
 11
34.8029
 21
59.5837
  0
LINE
  8
0
 10
34.8029
 20
59.5837
 11
34.8046
 21
59.6046
  0
LINE
  8
0
 10
34.8046
 20
59.6046
 11
34.8066
 21
59.6254
  0
LINE
  8
0
 10
34.8066
 20
59.6254
 11
34.8089
 21
59.6462
  0
LINE
  8
0
 10
34.8089
 20
59.6462
 11
34.8117
 21
59.667
  0
LINE
  8
0
 10
34.8117
 20
59.667
 11
34.8148
 21
59.6877
  0
LINE
  8
0
 10
34.8148
 20
59.6877
 11
34.8182
 21
59.7084
  0
LINE
  8
0
 10
34.8182
 20
59.7084
 11
34.822
 21
59.729
  0
LINE
  8
0
 10
34.822
 20
59.729
 11
34.8262
 21
59.7495
  0
LINE
  8
0
 10
34.8262
 20
59.7495
 11
34.8307
 21
59.7699
  0
LINE
  8
0
 10
34.8307
 20
59.7699
 11
34.8356
 21
59.7903
  0
LINE
  8
0
 10
34.8356
 20
59.7903
 11
34.8409
 21
59.8106
  0
LINE
  8
0
 10
34.8409
 20
59.8106
 11
34.8465
 21
59.8308
  0
LINE
  8
0
 10
34.8465
 20
59.8308
 11
34.8524
 21
59.8508
  0
LINE
  8
0
 10
34.8524
 20
59.8508
 11
34.8587
 21
59.8708
  0
LINE
  8
0
 10
34.8587
 20
59.8708
 11
34.8654
 21
59.8907
  0
LINE
  8
0
 10
34.8654
 20
59.8907
 11
34.8724
 21
59.9104
  0
LINE
  8
0
 10
34.8724
 20
59.9104
 11
34.8797
 21
59.93
  0
LINE
  8
0
 10
34.8797
 20
59.93
 11
34.8874
 21
59.9495
  0
LINE
  8
0
 10
34.8874
 20
59.9495
 11
34.8954
 21
59.9689
  0
LINE
  8
0
 10
34.8954
 20
59.9689
 11
34.9037
 21
59.9881
  0
LINE
  8
0
 10
34.9037
 20
59.9881
 11
34.9124
 21
60.0071
  0
LINE
  8
0
 10
34.9124
 20
60.0071
 11
34.9214
 21
60.026
  0
LINE
  8
0
 10
34.9214
 20
60.026
 11
34.9308
 21
60.0448
  0
LINE
  8
0
 10
34.9308
 20
60.0448
 11
34.9405
 21
60.0634
  0
LINE
  8
0
 10
34.9405
 20
60.0634
 11
34.9505
 21
60.0818
  0
LINE
  8
0
 10
34.9505
 20
60.0818
 11
34.9608
 21
60.1
  0
LINE
  8
0
 10
34.9608
 20
60.1
 11
34.9714
 21
60.118
  0
LINE
  8
0
 10
34.9714
 20
60.118
 11
34.9823
 21
60.1359
  0
LINE
  8
0
 10
34.9823
 20
60.1359
 11
34.9936
 21
60.1536
  0
LINE
  8
0
 10
34.9936
 20
60.1536
 11
35.0051
 21
60.171
  0
LINE
  8
0
 10
35.0051
 20
60.171
 11
35.017
 21
60.1883
  0
LINE
  8
0
 10
35.017
 20
60.1883
 11
35.0292
 21
60.2053
  0
LINE
  8
0
 10
35.0292
 20
60.2053
 11
35.0416
 21
60.2222
  0
LINE
  8
0
 10
35.0416
 20
60.2222
 11
35.0544
 21
60.2388
  0
LINE
  8
0
 10
35.0544
 20
60.2388
 11
35.0674
 21
60.2552
  0
LINE
  8
0
 10
35.0674
 20
60.2552
 11
35.0807
 21
60.2713
  0
LINE
  8
0
 10
35.0807
 20
60.2713
 11
35.0943
 21
60.2873
  0
LINE
  8
0
 10
35.0943
 20
60.2873
 11
35.1082
 21
60.3029
  0
LINE
  8
0
 10
35.1082
 20
60.3029
 11
35.1224
 21
60.3184
  0
LINE
  8
0
 10
35.1224
 20
60.3184
 11
35.1368
 21
60.3336
  0
LINE
  8
0
 10
35.1368
 20
60.3336
 11
35.1515
 21
60.3485
  0
LINE
  8
0
 10
35.1515
 20
60.3485
 11
35.1664
 21
60.3632
  0
LINE
  8
0
 10
35.1664
 20
60.3632
 11
35.1816
 21
60.3776
  0
LINE
  8
0
 10
35.1816
 20
60.3776
 11
35.197
 21
60.3918
  0
LINE
  8
0
 10
35.197
 20
60.3918
 11
35.2127
 21
60.4056
  0
LINE
  8
0
 10
35.2127
 20
60.4056
 11
35.2287
 21
60.4193
  0
LINE
  8
0
 10
35.2287
 20
60.4193
 11
35.2448
 21
60.4326
  0
LINE
  8
0
 10
35.2448
 20
60.4326
 11
35.2612
 21
60.4456
  0
LINE
  8
0
 10
35.2612
 20
60.4456
 11
35.2778
 21
60.4584
  0
LINE
  8
0
 10
35.2778
 20
60.4584
 11
35.2946
 21
60.4708
  0
LINE
  8
0
 10
35.2946
 20
60.4708
 11
35.3117
 21
60.483
  0
LINE
  8
0
 10
35.3117
 20
60.483
 11
35.329
 21
60.4948
  0
LINE
  8
0
 10
35.329
 20
60.4948
 11
35.3464
 21
60.5064
  0
LINE
  8
0
 10
35.3464
 20
60.5064
 11
35.3641
 21
60.5177
  0
LINE
  8
0
 10
35.3641
 20
60.5177
 11
35.3819
 21
60.5286
  0
LINE
  8
0
 10
35.3819
 20
60.5286
 11
35.4
 21
60.5392
  0
LINE
  8
0
 10
35.4
 20
60.5392
 11
35.4182
 21
60.5495
  0
LINE
  8
0
 10
35.4182
 20
60.5495
 11
35.4366
 21
60.5595
  0
LINE
  8
0
 10
35.4366
 20
60.5595
 11
35.4552
 21
60.5692
  0
LINE
  8
0
 10
35.4552
 20
60.5692
 11
35.474
 21
60.5786
  0
LINE
  8
0
 10
35.474
 20
60.5786
 11
35.4929
 21
60.5876
  0
LINE
  8
0
 10
35.4929
 20
60.5876
 11
35.5119
 21
60.5963
  0
LINE
  8
0
 10
35.5119
 20
60.5963
 11
35.5311
 21
60.6046
  0
LINE
  8
0
 10
35.5311
 20
60.6046
 11
35.5505
 21
60.6126
  0
LINE
  8
0
 10
35.5505
 20
60.6126
 11
35.5699
 21
60.6203
  0
LINE
  8
0
 10
35.5699
 20
60.6203
 11
35.5896
 21
60.6276
  0
LINE
  8
0
 10
35.5896
 20
60.6276
 11
35.6093
 21
60.6346
  0
LINE
  8
0
 10
35.6093
 20
60.6346
 11
35.6292
 21
60.6413
  0
LINE
  8
0
 10
35.6292
 20
60.6413
 11
35.6492
 21
60.6476
  0
LINE
  8
0
 10
35.6492
 20
60.6476
 11
35.6692
 21
60.6535
  0
LINE
  8
0
 10
35.6692
 20
60.6535
 11
35.6894
 21
60.6591
  0
LINE
  8
0
 10
35.6894
 20
60.6591
 11
35.7097
 21
60.6644
  0
LINE
  8
0
 10
35.7097
 20
60.6644
 11
35.7301
 21
60.6692
  0
LINE
  8
0
 10
35.7301
 20
60.6692
 11
35.7505
 21
60.6738
  0
LINE
  8
0
 10
35.7505
 20
60.6738
 11
35.771
 21
60.6779
  0
LINE
  8
0
 10
35.771
 20
60.6779
 11
35.7916
 21
60.6818
  0
LINE
  8
0
 10
35.7916
 20
60.6818
 11
35.8123
 21
60.6852
  0
LINE
  8
0
 10
35.8123
 20
60.6852
 11
35.833
 21
60.6883
  0
LINE
  8
0
 10
35.833
 20
60.6883
 11
35.8537
 21
60.6911
  0
LINE
  8
0
 10
35.8537
 20
60.6911
 11
35.8746
 21
60.6934
  0
LINE
  8
0
 10
35.8746
 20
60.6934
 11
35.8954
 21
60.6954
  0
LINE
  8
0
 10
35.8954
 20
60.6954
 11
35.9163
 21
60.6971
  0
LINE
  8
0
 10
35.9163
 20
60.6971
 11
35.9372
 21
60.6983
  0
LINE
  8
0
 10
35.9372
 20
60.6983
 11
35.9581
 21
60.6993
  0
LINE
  8
0
 10
35.9581
 20
60.6993
 11
35.979
 21
60.6998
  0
LINE
  8
0
 10
35.979
 20
60.6998
 11
36
 21
60.7
  0
LINE
  8
0
 10
36
 20
60.7
 11
36.0209
 21
60.6998
  0
LINE
  8
0
 10
36.0209
 20
60.6998
 11
36.0419
 21
60.6993
  0
LINE
  8
0
 10
36.0419
 20
60.6993
 11
36.0628
 21
60.6983
  0
LINE
  8
0
 10
36.0628
 20
60.6983
 11
36.0837
 21
60.6971
  0
LINE
  8
0
 10
36.0837
 20
60.6971
 11
36.1046
 21
60.6954
  0
LINE
  8
0
 10
36.1046
 20
60.6954
 11
36.1254
 21
60.6934
  0
LINE
  8
0
 10
36.1254
 20
60.6934
 11
36.1462
 21
60.6911
  0
LINE
  8
0
 10
36.1462
 20
60.6911
 11
36.167
 21
60.6883
  0
LINE
  8
0
 10
36.167
 20
60.6883
 11
36.1877
 21
60.6852
  0
LINE
  8
0
 10
36.1877
 20
60.6852
 11
36.2084
 21
60.6818
  0
LINE
  8
0
 10
36.2084
 20
60.6818
 11
36.229
 21
60.6779
  0
LINE
  8
0
 10
36.229
 20
60.6779
 11
36.2495
 21
60.6738
  0
LINE
  8
0
 10
36.2495
 20
60.6738
 11
36.2699
 21
60.6692
  0
LINE
  8
0
 10
36.2699
 20
60.6692
 11
36.2903
 21
60.6644
  0
LINE
  8
0
 10
36.2903
 20
60.6644
 11
36.3106
 21
60.6591
  0
LINE
  8
0
 10
36.3106
 20
60.6591
 11
36.3308
 21
60.6535
  0
LINE
  8
0
 10
36.3308
 20
60.6535
 11
36.3508
 21
60.6476
  0
LINE
  8
0
 10
36.3508
 20
60.6476
 11
36.3708
 21
60.6413
  0
LINE
  8
0
 10
36.3708
 20
60.6413
 11
36.3907
 21
60.6346
  0
LINE
  8
0
 10
36.3907
 20
60.6346
 11
36.4104
 21
60.6276
  0
LINE
  8
0
 10
36.4104
 20
60.6276
 11
36.43
 21
60.6203
  0
LINE
  8
0
 10
36.43
 20
60.6203
 11
36.4495
 21
60.6126
  0
LINE
  8
0
 10
36.4495
 20
60.6126
 11
36.4689
 21
60.6046
  0
LINE
  8
0
 10
36.4689
 20
60.6046
 11
36.4881
 21
60.5963
  0
LINE
  8
0
 10
36.4881
 20
60.5963
 11
36.5071
 21
60.5876
  0
LINE
  8
0
 10
36.5071
 20
60.5876
 11
36.526
 21
60.5786
  0
LINE
  8
0
 10
36.526
 20
60.5786
 11
36.5448
 21
60.5692
  0
LINE
  8
0
 10
36.5448
 20
60.5692
 11
36.5634
 21
60.5595
  0
LINE
  8
0
 10
36.5634
 20
60.5595
 11
36.5818
 21
60.5495
  0
LINE
  8
0
 10
36.5818
 20
60.5495
 11
36.6
 21
60.5392
  0
LINE
  8
0
 10
36.6
 20
60.5392
 11
36.618
 21
60.5286
  0
LINE
  8
0
 10
36.618
 20
60.5286
 11
36.6359
 21
60.5177
  0
LINE
  8
0
 10
36.6359
 20
60.5177
 11
36.6536
 21
60.5064
  0
LINE
  8
0
 10
36.6536
 20
60.5064
 11
36.671
 21
60.4948
  0
LINE
  8
0
 10
36.671
 20
60.4948
 11
36.6883
 21
60.483
  0
LINE
  8
0
 10
36.6883
 20
60.483
 11
36.7053
 21
60.4708
  0
LINE
  8
0
 10
36.7053
 20
60.4708
 11
36.7222
 21
60.4584
  0
LINE
  8
0
 10
36.7222
 20
60.4584
 11
36.7388
 21
60.4456
  0
LINE
  8
0
 10
36.7388
 20
60.4456
 11
36.7552
 21
60.4326
  0
LINE
  8
0
 10
36.7552
 20
60.4326
 11
36.7713
 21
60.4193
  0
LINE
  8
0
 10
36.7713
 20
60.4193
 11
36.7873
 21
60.4056
  0
LINE
  8
0
 10
36.7873
 20
60.4056
 11
36.8029
 21
60.3918
  0
LINE
  8
0
 10
36.8029
 20
60.3918
 11
36.8184
 21
60.3776
  0
LINE
  8
0
 10
36.8184
 20
60.3776
 11
36.8336
 21
60.3632
  0
LINE
  8
0
 10
36.8336
 20
60.3632
 11
36.8485
 21
60.3485
  0
LINE
  8
0
 10
36.8485
 20
60.3485
 11
36.8632
 21
60.3336
  0
LINE
  8
0
 10
36.8632
 20
60.3336
 11
36.8776
 21
60.3184
  0
LINE
  8
0
 10
36.8776
 20
60.3184
 11
36.8918
 21
60.3029
  0
LINE
  8
0
 10
36.8918
 20
60.3029
 11
36.9056
 21
60.2873
  0
LINE
  8
0
 10
36.9056
 20
60.2873
 11
36.9193
 21
60.2713
  0
LINE
  8
0
 10
36.9193
 20
60.2713
 11
36.9326
 21
60.2552
  0
LINE
  8
0
 10
36.9326
 20
60.2552
 11
36.9456
 21
60.2388
  0
LINE
  8
0
 10
36.9456
 20
60.2388
 11
36.9584
 21
60.2222
  0
LINE
  8
0
 10
36.9584
 20
60.2222
 11
36.9708
 21
60.2053
  0
LINE
  8
0
 10
36.9708
 20
60.2053
 11
36.983
 21
60.1883
  0
LINE
  8
0
 10
36.983
 20
60.1883
 11
36.9948
 21
60.171
  0
LINE
  8
0
 10
36.9948
 20
60.171
 11
37.0064
 21
60.1536
  0
LINE
  8
0
 10
37.0064
 20
60.1536
 11
37.0177
 21
60.1359
  0
LINE
  8
0
 10
37.0177
 20
60.1359
 11
37.0286
 21
60.118
  0
LINE
  8
0
 10
37.0286
 20
60.118
 11
37.0392
 21
60.1
  0
LINE
  8
0
 10
37.0392
 20
60.1
 11
37.0495
 21
60.0818
  0
LINE
  8
0
 10
37.0495
 20
60.0818
 11
37.0595
 21
60.0634
  0
LINE
  8
0
 10
37.0595
 20
60.0634
 11
37.0692
 21
60.0448
  0
LINE
  8
0
 10
37.0692
 20
60.0448
 11
37.0786
 21
60.026
  0
LINE
  8
0
 10
37.0786
 20
60.026
 11
37.0876
 21
60.0071
  0
LINE
  8
0
 10
37.0876
 20
60.0071
 11
37.0963
 21
59.9881
  0
LINE
  8
0
 10
37.0963
 20
59.9881
 11
37.1046
 21
59.9689
  0
LINE
  8
0
 10
37.1046
 20
59.9689
 11
37.1126
 21
59.9495
  0
LINE
  8
0
 10
37.1126
 20
59.9495
 11
37.1203
 21
59.93
  0
LINE
  8
0
 10
37.1203
 20
59.93
 11
37.1276
 21
59.9104
  0
LINE
  8
0
 10
37.1276
 20
59.9104
 11
37.1346
 21
59.8907
  0
LINE
  8
0
 10
37.1346
 20
59.8907
 11
37.1413
 21
59.8708
  0
LINE
  8
0
 10
37.1413
 20
59.8708
 11
37.1476
 21
59.8508
  0
LINE
  8
0
 10
37.1476
 20
59.8508
 11
37.1535
 21
59.8308
  0
LINE
  8
0
 10
37.1535
 20
59.8308
 11
37.1591
 21
59.8106
  0
LINE
  8
0
 10
37.1591
 20
59.8106
 11
37.1644
 21
59.7903
  0
LINE
  8
0
 10
37.1644
 20
59.7903
 11
37.1692
 21
59.7699
  0
LINE
  8
0
 10
37.1692
 20
59.7699
 11
37.1738
 21
59.7495
  0
LINE
  8
0
 10
37.1738
 20
59.7495
 11
37.1779
 21
59.729
  0
LINE
  8
0
 10
37.1779
 20
59.729
 11
37.1818
 21
59.7084
  0
LINE
  8
0
 10
37.1818
 20
59.7084
 11
37.1852
 21
59.6877
  0
LINE
  8
0
 10
37.1852
 20
59.6877
 11
37.1883
 21
59.667
  0
LINE
  8
0
 10
37.1883
 20
59.667
 11
37.1911
 21
59.6462
  0
LINE
  8
0
 10
37.1911
 20
59.6462
 11
37.1934
 21
59.6254
  0
LINE
  8
0
 10
37.1934
 20
59.6254
 11
37.1954
 21
59.6046
  0
LINE
  8
0
 10
37.1954
 20
59.6046
 11
37.1971
 21
59.5837
  0
LINE
  8
0
 10
37.1971
 20
59.5837
 11
37.1983
 21
59.5628
  0
LINE
  8
0
 10
37.1983
 20
59.5628
 11
37.1993
 21
59.5419
  0
LINE
  8
0
 10
37.1993
 20
59.5419
 11
37.1998
 21
59.5209
  0
LINE
  8
0
 10
37.1998
 20
59.5209
 11
37.2
 21
59.5
  0
LINE
  8
0
 10
37.2
 20
59.5
 11
37.1998
 21
59.479
  0
LINE
  8
0
 10
37.1998
 20
59.479
 11
37.1993
 21
59.4581
  0
LINE
  8
0
 10
37.1993
 20
59.4581
 11
37.1983
 21
59.4372
  0
LINE
  8
0
 10
37.1983
 20
59.4372
 11
37.1971
 21
59.4163
  0
LINE
  8
0
 10
37.1971
 20
59.4163
 11
37.1954
 21
59.3954
  0
LINE
  8
0
 10
37.1954
 20
59.3954
 11
37.1934
 21
59.3746
  0
LINE
  8
0
 10
37.1934
 20
59.3746
 11
37.1911
 21
59.3537
  0
LINE
  8
0
 10
37.1911
 20
59.3537
 11
37.1883
 21
59.333
  0
LINE
  8
0
 10
37.1883
 20
59.333
 11
37.1852
 21
59.3123
  0
LINE
  8
0
 10
37.1852
 20
59.3123
 11
37.1818
 21
59.2916
  0
LINE
  8
0
 10
37.1818
 20
59.2916
 11
37.1779
 21
59.271
  0
LINE
  8
0
 10
37.1779
 20
59.271
 11
37.1738
 21
59.2505
  0
LINE
  8
0
 10
37.1738
 20
59.2505
 11
37.1692
 21
59.2301
  0
LINE
  8
0
 10
37.1692
 20
59.2301
 11
37.1644
 21
59.2097
  0
LINE
  8
0
 10
37.1644
 20
59.2097
 11
37.1591
 21
59.1894
  0
LINE
  8
0
 10
37.1591
 20
59.1894
 11
37.1535
 21
59.1692
  0
LINE
  8
0
 10
37.1535
 20
59.1692
 11
37.1476
 21
59.1492
  0
LINE
  8
0
 10
37.1476
 20
59.1492
 11
37.1413
 21
59.1292
  0
LINE
  8
0
 10
37.1413
 20
59.1292
 11
37.1346
 21
59.1093
  0
LINE
  8
0
 10
37.1346
 20
59.1093
 11
37.1276
 21
59.0896
  0
LINE
  8
0
 10
37.1276
 20
59.0896
 11
37.1203
 21
59.0699
  0
LINE
  8
0
 10
37.1203
 20
59.0699
 11
37.1126
 21
59.0505
  0
LINE
  8
0
 10
37.1126
 20
59.0505
 11
37.1046
 21
59.0311
  0
LINE
  8
0
 10
37.1046
 20
59.0311
 11
37.0963
 21
59.0119
  0
LINE
  8
0
 10
37.0963
 20
59.0119
 11
37.0876
 21
58.9929
  0
LINE
  8
0
 10
37.0876
 20
58.9929
 11
37.0786
 21
58.974
  0
LINE
  8
0
 10
37.0786
 20
58.974
 11
37.0692
 21
58.9552
  0
LINE
  8
0
 10
37.0692
 20
58.9552
 11
37.0595
 21
58.9366
  0
LINE
  8
0
 10
37.0595
 20
58.9366
 11
37.0495
 21
58.9182
  0
LINE
  8
0
 10
37.0495
 20
58.9182
 11
37.0392
 21
58.9
  0
LINE
  8
0
 10
37.0392
 20
58.9
 11
37.0286
 21
58.8819
  0
LINE
  8
0
 10
37.0286
 20
58.8819
 11
37.0177
 21
58.8641
  0
LINE
  8
0
 10
37.0177
 20
58.8641
 11
37.0064
 21
58.8464
  0
LINE
  8
0
 10
37.0064
 20
58.8464
 11
36.9948
 21
58.829
  0
LINE
  8
0
 10
36.9948
 20
58.829
 11
36.983
 21
58.8117
  0
LINE
  8
0
 10
36.983
 20
58.8117
 11
36.9708
 21
58.7946
  0
LINE
  8
0
 10
36.9708
 20
58.7946
 11
36.9584
 21
58.7778
  0
LINE
  8
0
 10
36.9584
 20
58.7778
 11
36.9456
 21
58.7612
  0
LINE
  8
0
 10
36.9456
 20
58.7612
 11
36.9326
 21
58.7448
  0
LINE
  8
0
 10
36.9326
 20
58.7448
 11
36.9193
 21
58.7287
  0
LINE
  8
0
 10
36.9193
 20
58.7287
 11
36.9056
 21
58.7127
  0
LINE
  8
0
 10
36.9056
 20
58.7127
 11
36.8918
 21
58.697
  0
LINE
  8
0
 10
36.8918
 20
58.697
 11
36.8776
 21
58.6816
  0
LINE
  8
0
 10
36.8776
 20
58.6816
 11
36.8632
 21
58.6664
  0
LINE
  8
0
 10
36.8632
 20
58.6664
 11
36.8485
 21
58.6515
  0
LINE
  8
0
 10
36.8485
 20
58.6515
 11
36.8336
 21
58.6368
  0
LINE
  8
0
 10
36.8336
 20
58.6368
 11
36.8184
 21
58.6224
  0
LINE
  8
0
 10
36.8184
 20
58.6224
 11
36.8029
 21
58.6082
  0
LINE
  8
0
 10
36.8029
 20
58.6082
 11
36.7873
 21
58.5943
  0
LINE
  8
0
 10
36.7873
 20
58.5943
 11
36.7713
 21
58.5807
  0
LINE
  8
0
 10
36.7713
 20
58.5807
 11
36.7552
 21
58.5674
  0
LINE
  8
0
 10
36.7552
 20
58.5674
 11
36.7388
 21
58.5544
  0
LINE
  8
0
 10
36.7388
 20
58.5544
 11
36.7222
 21
58.5416
  0
LINE
  8
0
 10
36.7222
 20
58.5416
 11
36.7053
 21
58.5292
  0
LINE
  8
0
 10
36.7053
 20
58.5292
 11
36.6883
 21
58.517
  0
LINE
  8
0
 10
36.6883
 20
58.517
 11
36.671
 21
58.5051
  0
LINE
  8
0
 10
36.671
 20
58.5051
 11
36.6536
 21
58.4936
  0
LINE
  8
0
 10
36.6536
 20
58.4936
 11
36.6359
 21
58.4823
  0
LINE
  8
0
 10
36.6359
 20
58.4823
 11
36.618
 21
58.4714
  0
LINE
  8
0
 10
36.618
 20
58.4714
 11
36.6
 21
58.4608
  0
LINE
  8
0
 10
36.6
 20
58.4608
 11
36.5818
 21
58.4505
  0
LINE
  8
0
 10
36.5818
 20
58.4505
 11
36.5634
 21
58.4405
  0
LINE
  8
0
 10
36.5634
 20
58.4405
 11
36.5448
 21
58.4308
  0
LINE
  8
0
 10
36.5448
 20
58.4308
 11
36.526
 21
58.4214
  0
LINE
  8
0
 10
36.526
 20
58.4214
 11
36.5071
 21
58.4124
  0
LINE
  8
0
 10
36.5071
 20
58.4124
 11
36.4881
 21
58.4037
  0
LINE
  8
0
 10
36.4881
 20
58.4037
 11
36.4689
 21
58.3954
  0
LINE
  8
0
 10
36.4689
 20
58.3954
 11
36.4495
 21
58.3874
  0
LINE
  8
0
 10
36.4495
 20
58.3874
 11
36.43
 21
58.3797
  0
LINE
  8
0
 10
36.43
 20
58.3797
 11
36.4104
 21
58.3724
  0
LINE
  8
0
 10
36.4104
 20
58.3724
 11
36.3907
 21
58.3654
  0
LINE
  8
0
 10
36.3907
 20
58.3654
 11
36.3708
 21
58.3587
  0
LINE
  8
0
 10
36.3708
 20
58.3587
 11
36.3508
 21
58.3524
  0
LINE
  8
0
 10
36.3508
 20
58.3524
 11
36.3308
 21
58.3465
  0
LINE
  8
0
 10
36.3308
 20
58.3465
 11
36.3106
 21
58.3409
  0
LINE
  8
0
 10
36.3106
 20
58.3409
 11
36.2903
 21
58.3356
  0
LINE
  8
0
 10
36.2903
 20
58.3356
 11
36.2699
 21
58.3307
  0
LINE
  8
0
 10
36.2699
 20
58.3307
 11
36.2495
 21
58.3262
  0
LINE
  8
0
 10
36.2495
 20
58.3262
 11
36.229
 21
58.322
  0
LINE
  8
0
 10
36.229
 20
58.322
 11
36.2084
 21
58.3182
  0
LINE
  8
0
 10
36.2084
 20
58.3182
 11
36.1877
 21
58.3148
  0
LINE
  8
0
 10
36.1877
 20
58.3148
 11
36.167
 21
58.3117
  0
LINE
  8
0
 10
36.167
 20
58.3117
 11
36.1462
 21
58.3089
  0
LINE
  8
0
 10
36.1462
 20
58.3089
 11
36.1254
 21
58.3066
  0
LINE
  8
0
 10
36.1254
 20
58.3066
 11
36.1046
 21
58.3046
  0
LINE
  8
0
 10
36.1046
 20
58.3046
 11
36.0837
 21
58.3029
  0
LINE
  8
0
 10
36.0837
 20
58.3029
 11
36.0628
 21
58.3016
  0
LINE
  8
0
 10
36.0628
 20
58.3016
 11
36.0419
 21
58.3007
  0
LINE
  8
0
 10
36.0419
 20
58.3007
 11
36.0209
 21
58.3002
  0
LINE
  8
0
 10
36.0209
 20
58.3002
 11
36
 21
58.3
  0
LINE
  8
0
 10
36
 20
58.3
 11
35.979
 21
58.3002
  0
LINE
  8
0
 10
-3.59999
 20
38.2182
 11
-3.59999
 21
46.2364
  0
LINE
  8
0
 10
-3.59999
 20
46.2364
 11
-0.399994
 21
46.2364
  0
LINE
  8
0
 10
-0.399994
 20
46.2364
 11
-0.399994
 21
38.2182
  0
LINE
  8
0
 10
-0.399994
 20
38.2182
 11
-3.59999
 21
38.2182
  0
LINE
  8
0
 10
100.4
 20
38.2182
 11
100.4
 21
46.2364
  0
LINE
  8
0
 10
100.4
 20
46.2364
 11
103.6
 21
46.2364
  0
LINE
  8
0
 10
103.6
 20
46.2364
 11
103.6
 21
38.2182
  0
LINE
  8
0
 10
103.6
 20
38.2182
 11
100.4
 21
38.2182
  0
LINE
  8
0
 10
2.5
 20
2.5
 11
2.5
 21
37.5
  0
LINE
  8
0
 10
2.5
 20
37.5
 11
51.5
 21
37.5
  0
LINE
  8
0
 10
51.5
 20
37.5
 11
51.5
 21
2.5
  0
LINE
  8
0
 10
51.5
 20
2.5
 11
2.5
 21
2.5
  0
LINE
  8
0
 10
0.732544
 20
33.7502
 11
0.715088
 21
33.7506
  0
LINE
  8
0
 10
0.715088
 20
33.7506
 11
0.697662
 21
33.7514
  0
LINE
  8
0
 10
0.697662
 20
33.7514
 11
0.680237
 21
33.7524
  0
LINE
  8
0
 10
0.680237
 20
33.7524
 11
0.662842
 21
33.7538
  0
LINE
  8
0
 10
0.662842
 20
33.7538
 11
0.645462
 21
33.7555
  0
LINE
  8
0
 10
0.645462
 20
33.7555
 11
0.628128
 21
33.7574
  0
LINE
  8
0
 10
0.628128
 20
33.7574
 11
0.610825
 21
33.7597
  0
LINE
  8
0
 10
0.610825
 20
33.7597
 11
0.593552
 21
33.7623
  0
LINE
  8
0
 10
0.593552
 20
33.7623
 11
0.57634
 21
33.7652
  0
LINE
  8
0
 10
0.57634
 20
33.7652
 11
0.559189
 21
33.7684
  0
LINE
  8
0
 10
0.559189
 20
33.7684
 11
0.542084
 21
33.7719
  0
LINE
  8
0
 10
0.542084
 20
33.7719
 11
0.52504
 21
33.7756
  0
LINE
  8
0
 10
0.52504
 20
33.7756
 11
0.508072
 21
33.7797
  0
LINE
  8
0
 10
0.508072
 20
33.7797
 11
0.49118
 21
33.7841
  0
LINE
  8
0
 10
0.49118
 20
33.7841
 11
0.47435
 21
33.7887
  0
LINE
  8
0
 10
0.47435
 20
33.7887
 11
0.457626
 21
33.7937
  0
LINE
  8
0
 10
0.457626
 20
33.7937
 11
0.440979
 21
33.7989
  0
LINE
  8
0
 10
0.440979
 20
33.7989
 11
0.424423
 21
33.8045
  0
LINE
  8
0
 10
0.424423
 20
33.8045
 11
0.407974
 21
33.8103
  0
LINE
  8
0
 10
0.407974
 20
33.8103
 11
0.391632
 21
33.8164
  0
LINE
  8
0
 10
0.391632
 20
33.8164
 11
0.375381
 21
33.8228
  0
LINE
  8
0
 10
0.375381
 20
33.8228
 11
0.359268
 21
33.8295
  0
LINE
  8
0
 10
0.359268
 20
33.8295
 11
0.343262
 21
33.8365
  0
LINE
  8
0
 10
0.343262
 20
33.8365
 11
0.327377
 21
33.8437
  0
LINE
  8
0
 10
0.327377
 20
33.8437
 11
0.311615
 21
33.8512
  0
LINE
  8
0
 10
0.311615
 20
33.8512
 11
0.296005
 21
33.859
  0
LINE
  8
0
 10
0.296005
 20
33.859
 11
0.280518
 21
33.8671
  0
LINE
  8
0
 10
0.280518
 20
33.8671
 11
0.265182
 21
33.8754
  0
LINE
  8
0
 10
0.265182
 20
33.8754
 11
0.25
 21
33.884
  0
LINE
  8
0
 10
0.25
 20
33.884
 11
0.234955
 21
33.8928
  0
LINE
  8
0
 10
0.234955
 20
33.8928
 11
0.220078
 21
33.9019
  0
LINE
  8
0
 10
0.220078
 20
33.9019
 11
0.205353
 21
33.9113
  0
LINE
  8
0
 10
0.205353
 20
33.9113
 11
0.190796
 21
33.921
  0
LINE
  8
0
 10
0.190796
 20
33.921
 11
0.176422
 21
33.9308
  0
LINE
  8
0
 10
0.176422
 20
33.9308
 11
0.162201
 21
33.941
  0
LINE
  8
0
 10
0.162201
 20
33.941
 11
0.148178
 21
33.9514
  0
LINE
  8
0
 10
0.148178
 20
33.9514
 11
0.134338
 21
33.962
  0
LINE
  8
0
 10
0.134338
 20
33.962
 11
0.120667
 21
33.9729
  0
LINE
  8
0
 10
0.120667
 20
33.9729
 11
0.107208
 21
33.9839
  0
LINE
  8
0
 10
0.107208
 20
33.9839
 11
0.0939331
 21
33.9953
  0
LINE
  8
0
 10
0.0939331
 20
33.9953
 11
0.0808563
 21
34.0069
  0
LINE
  8
0
 10
0.0808563
 20
34.0069
 11
0.0679932
 21
34.0186
  0
LINE
  8
0
 10
0.0679932
 20
34.0186
 11
0.0553284
 21
34.0307
  0
LINE
  8
0
 10
0.0553284
 20
34.0307
 11
0.0428925
 21
34.0429
  0
LINE
  8
0
 10
0.0428925
 20
34.0429
 11
0.0306549
 21
34.0553
  0
LINE
  8
0
 10
0.0306549
 20
34.0553
 11
0.0186462
 21
34.068
  0
LINE
  8
0
 10
0.0186462
 20
34.068
 11
0.0068512
 21
34.0809
  0
LINE
  8
0
 10
0.0068512
 20
34.0809
 11
-0.00469971
 21
34.0939
  0
LINE
  8
0
 10
-0.00469971
 20
34.0939
 11
-0.016037
 21
34.1072
  0
LINE
  8
0
 10
-0.016037
 20
34.1072
 11
-0.0271454
 21
34.1207
  0
LINE
  8
0
 10
-0.0271454
 20
34.1207
 11
-0.0380096
 21
34.1343
  0
LINE
  8
0
 10
-0.0380096
 20
34.1343
 11
-0.0486298
 21
34.1482
  0
LINE
  8
0
 10
-0.0486298
 20
34.1482
 11
-0.0590057
 21
34.1622
  0
LINE
  8
0
 10
-0.0590057
 20
34.1622
 11
-0.0691376
 21
34.1764
  0
LINE
  8
0
 10
-0.0691376
 20
34.1764
 11
-0.0790253
 21
34.1908
  0
LINE
  8
0
 10
-0.0790253
 20
34.1908
 11
-0.0886688
 21
34.2054
  0
LINE
  8
0
 10
-0.0886688
 20
34.2054
 11
-0.0980377
 21
34.2201
  0
LINE
  8
0
 10
-0.0980377
 20
34.2201
 11
-0.107162
 21
34.235
  0
LINE
  8
0
 10
-0.107162
 20
34.235
 11
-0.116013
 21
34.25
  0
LINE
  8
0
 10
-0.116013
 20
34.25
 11
-0.124619
 21
34.2652
  0
LINE
  8
0
 10
-0.124619
 20
34.2652
 11
-0.132935
 21
34.2805
  0
LINE
  8
0
 10
-0.132935
 20
34.2805
 11
-0.141006
 21
34.296
  0
LINE
  8
0
 10
-0.141006
 20
34.296
 11
-0.148788
 21
34.3116
  0
LINE
  8
0
 10
-0.148788
 20
34.3116
 11
-0.156296
 21
34.3274
  0
LINE
  8
0
 10
-0.156296
 20
34.3274
 11
-0.163544
 21
34.3433
  0
LINE
  8
0
 10
-0.163544
 20
34.3433
 11
-0.170502
 21
34.3593
  0
LINE
  8
0
 10
-0.170502
 20
34.3593
 11
-0.17717
 21
34.3754
  0
LINE
  8
0
 10
-0.17717
 20
34.3754
 11
-0.183578
 21
34.3916
  0
LINE
  8
0
 10
-0.183578
 20
34.3916
 11
-0.189682
 21
34.408
  0
LINE
  8
0
 10
-0.189682
 20
34.408
 11
-0.195511
 21
34.4244
  0
LINE
  8
0
 10
-0.195511
 20
34.4244
 11
-0.20105
 21
34.441
  0
LINE
  8
0
 10
-0.20105
 20
34.441
 11
-0.206299
 21
34.4576
  0
LINE
  8
0
 10
-0.206299
 20
34.4576
 11
-0.211258
 21
34.4743
  0
LINE
  8
0
 10
-0.211258
 20
34.4743
 11
-0.215912
 21
34.4912
  0
LINE
  8
0
 10
-0.215912
 20
34.4912
 11
-0.220291
 21
34.5081
  0
LINE
  8
0
 10
-0.220291
 20
34.5081
 11
-0.224365
 21
34.525
  0
LINE
  8
0
 10
-0.224365
 20
34.525
 11
-0.228134
 21
34.5421
  0
LINE
  8
0
 10
-0.228134
 20
34.5421
 11
-0.231613
 21
34.5592
  0
LINE
  8
0
 10
-0.231613
 20
34.5592
 11
-0.234802
 21
34.5763
  0
LINE
  8
0
 10
-0.234802
 20
34.5763
 11
-0.237686
 21
34.5936
  0
LINE
  8
0
 10
-0.237686
 20
34.5936
 11
-0.240265
 21
34.6108
  0
LINE
  8
0
 10
-0.240265
 20
34.6108
 11
-0.242538
 21
34.6281
  0
LINE
  8
0
 10
-0.242538
 20
34.6281
 11
-0.244507
 21
34.6455
  0
LINE
  8
0
 10
-0.244507
 20
34.6455
 11
-0.246185
 21
34.6628
  0
LINE
  8
0
 10
-0.246185
 20
34.6628
 11
-0.247559
 21
34.6802
  0
LINE
  8
0
 10
-0.247559
 20
34.6802
 11
-0.248627
 21
34.6977
  0
LINE
  8
0
 10
-0.248627
 20
34.6977
 11
-0.24939
 21
34.7151
  0
LINE
  8
0
 10
-0.24939
 20
34.7151
 11
-0.249847
 21
34.7325
  0
LINE
  8
0
 10
-0.249847
 20
34.7325
 11
-0.25
 21
34.75
  0
LINE
  8
0
 10
-0.25
 20
34.75
 11
-0.249847
 21
34.7674
  0
LINE
  8
0
 10
-0.249847
 20
34.7674
 11
-0.24939
 21
34.7849
  0
LINE
  8
0
 10
-0.24939
 20
34.7849
 11
-0.248627
 21
34.8023
  0
LINE
  8
0
 10
-0.248627
 20
34.8023
 11
-0.247559
 21
34.8197
  0
LINE
  8
0
 10
-0.247559
 20
34.8197
 11
-0.246185
 21
34.8371
  0
LINE
  8
0
 10
-0.246185
 20
34.8371
 11
-0.244507
 21
34.8545
  0
LINE
  8
0
 10
-0.244507
 20
34.8545
 11
-0.242538
 21
34.8719
  0
LINE
  8
0
 10
-0.242538
 20
34.8719
 11
-0.240265
 21
34.8892
  0
LINE
  8
0
 10
-0.240265
 20
34.8892
 11
-0.237686
 21
34.9064
  0
LINE
  8
0
 10
-0.237686
 20
34.9064
 11
-0.234802
 21
34.9236
  0
LINE
  8
0
 10
-0.234802
 20
34.9236
 11
-0.231613
 21
34.9408
  0
LINE
  8
0
 10
-0.231613
 20
34.9408
 11
-0.228134
 21
34.9579
  0
LINE
  8
0
 10
-0.228134
 20
34.9579
 11
-0.224365
 21
34.9749
  0
LINE
  8
0
 10
-0.224365
 20
34.9749
 11
-0.220291
 21
34.9919
  0
LINE
  8
0
 10
-0.220291
 20
34.9919
 11
-0.215912
 21
35.0088
  0
LINE
  8
0
 10
-0.215912
 20
35.0088
 11
-0.211258
 21
35.0256
  0
LINE
  8
0
 10
-0.211258
 20
35.0256
 11
-0.206299
 21
35.0424
  0
LINE
  8
0
 10
-0.206299
 20
35.0424
 11
-0.20105
 21
35.059
  0
LINE
  8
0
 10
-0.20105
 20
35.059
 11
-0.195511
 21
35.0756
  0
LINE
  8
0
 10
-0.195511
 20
35.0756
 11
-0.189682
 21
35.092
  0
LINE
  8
0
 10
-0.189682
 20
35.092
 11
-0.183578
 21
35.1084
  0
LINE
  8
0
 10
-0.183578
 20
35.1084
 11
-0.17717
 21
35.1246
  0
LINE
  8
0
 10
-0.17717
 20
35.1246
 11
-0.170502
 21
35.1407
  0
LINE
  8
0
 10
-0.170502
 20
35.1407
 11
-0.163544
 21
35.1567
  0
LINE
  8
0
 10
-0.163544
 20
35.1567
 11
-0.156296
 21
35.1726
  0
LINE
  8
0
 10
-0.156296
 20
35.1726
 11
-0.148788
 21
35.1884
  0
LINE
  8
0
 10
-0.148788
 20
35.1884
 11
-0.141006
 21
35.204
  0
LINE
  8
0
 10
-0.141006
 20
35.204
 11
-0.132935
 21
35.2195
  0
LINE
  8
0
 10
-0.132935
 20
35.2195
 11
-0.124619
 21
35.2348
  0
LINE
  8
0
 10
-0.124619
 20
35.2348
 11
-0.116013
 21
35.25
  0
LINE
  8
0
 10
-0.116013
 20
35.25
 11
-0.107162
 21
35.265
  0
LINE
  8
0
 10
-0.107162
 20
35.265
 11
-0.0980377
 21
35.2799
  0
LINE
  8
0
 10
-0.0980377
 20
35.2799
 11
-0.0886688
 21
35.2946
  0
LINE
  8
0
 10
-0.0886688
 20
35.2946
 11
-0.0790253
 21
35.3092
  0
LINE
  8
0
 10
-0.0790253
 20
35.3092
 11
-0.0691376
 21
35.3236
  0
LINE
  8
0
 10
-0.0691376
 20
35.3236
 11
-0.0590057
 21
35.3378
  0
LINE
  8
0
 10
-0.0590057
 20
35.3378
 11
-0.0486298
 21
35.3518
  0
LINE
  8
0
 10
-0.0486298
 20
35.3518
 11
-0.0380096
 21
35.3657
  0
LINE
  8
0
 10
-0.0380096
 20
35.3657
 11
-0.0271454
 21
35.3793
  0
LINE
  8
0
 10
-0.0271454
 20
35.3793
 11
-0.016037
 21
35.3928
  0
LINE
  8
0
 10
-0.016037
 20
35.3928
 11
-0.00469971
 21
35.4061
  0
LINE
  8
0
 10
-0.00469971
 20
35.4061
 11
0.0068512
 21
35.4191
  0
LINE
  8
0
 10
0.0068512
 20
35.4191
 11
0.0186462
 21
35.432
  0
LINE
  8
0
 10
0.0186462
 20
35.432
 11
0.0306549
 21
35.4447
  0
LINE
  8
0
 10
0.0306549
 20
35.4447
 11
0.0428925
 21
35.4571
  0
LINE
  8
0
 10
0.0428925
 20
35.4571
 11
0.0553284
 21
35.4693
  0
LINE
  8
0
 10
0.0553284
 20
35.4693
 11
0.0679932
 21
35.4814
  0
LINE
  8
0
 10
0.0679932
 20
35.4814
 11
0.0808563
 21
35.4931
  0
LINE
  8
0
 10
0.0808563
 20
35.4931
 11
0.0939331
 21
35.5047
  0
LINE
  8
0
 10
0.0939331
 20
35.5047
 11
0.107208
 21
35.516
  0
LINE
  8
0
 10
0.107208
 20
35.516
 11
0.120667
 21
35.5271
  0
LINE
  8
0
 10
0.120667
 20
35.5271
 11
0.134338
 21
35.538
  0
LINE
  8
0
 10
0.134338
 20
35.538
 11
0.148178
 21
35.5486
  0
LINE
  8
0
 10
0.148178
 20
35.5486
 11
0.162201
 21
35.559
  0
LINE
  8
0
 10
0.162201
 20
35.559
 11
0.176422
 21
35.5692
  0
LINE
  8
0
 10
0.176422
 20
35.5692
 11
0.190796
 21
35.579
  0
LINE
  8
0
 10
0.190796
 20
35.579
 11
0.205353
 21
35.5887
  0
LINE
  8
0
 10
0.205353
 20
35.5887
 11
0.220078
 21
35.598
  0
LINE
  8
0
 10
0.220078
 20
35.598
 11
0.234955
 21
35.6072
  0
LINE
  8
0
 10
0.234955
 20
35.6072
 11
0.25
 21
35.616
  0
LINE
  8
0
 10
0.25
 20
35.616
 11
0.265182
 21
35.6246
  0
LINE
  8
0
 10
0.265182
 20
35.6246
 11
0.280518
 21
35.6329
  0
LINE
  8
0
 10
0.280518
 20
35.6329
 11
0.296005
 21
35.641
  0
LINE
  8
0
 10
0.296005
 20
35.641
 11
0.311615
 21
35.6488
  0
LINE
  8
0
 10
0.311615
 20
35.6488
 11
0.327377
 21
35.6563
  0
LINE
  8
0
 10
0.327377
 20
35.6563
 11
0.343262
 21
35.6635
  0
LINE
  8
0
 10
0.343262
 20
35.6635
 11
0.359268
 21
35.6705
  0
LINE
  8
0
 10
0.359268
 20
35.6705
 11
0.375381
 21
35.6772
  0
LINE
  8
0
 10
0.375381
 20
35.6772
 11
0.391632
 21
35.6836
  0
LINE
  8
0
 10
0.391632
 20
35.6836
 11
0.407974
 21
35.6897
  0
LINE
  8
0
 10
0.407974
 20
35.6897
 11
0.424423
 21
35.6955
  0
LINE
  8
0
 10
0.424423
 20
35.6955
 11
0.440979
 21
35.701
  0
LINE
  8
0
 10
0.440979
 20
35.701
 11
0.457626
 21
35.7063
  0
LINE
  8
0
 10
0.457626
 20
35.7063
 11
0.47435
 21
35.7113
  0
LINE
  8
0
 10
0.47435
 20
35.7113
 11
0.49118
 21
35.7159
  0
LINE
  8
0
 10
0.49118
 20
35.7159
 11
0.508072
 21
35.7203
  0
LINE
  8
0
 10
0.508072
 20
35.7203
 11
0.52504
 21
35.7244
  0
LINE
  8
0
 10
0.52504
 20
35.7244
 11
0.542084
 21
35.7281
  0
LINE
  8
0
 10
0.542084
 20
35.7281
 11
0.559189
 21
35.7316
  0
LINE
  8
0
 10
0.559189
 20
35.7316
 11
0.57634
 21
35.7348
  0
LINE
  8
0
 10
0.57634
 20
35.7348
 11
0.593552
 21
35.7377
  0
LINE
  8
0
 10
0.593552
 20
35.7377
 11
0.610825
 21
35.7403
  0
LINE
  8
0
 10
0.610825
 20
35.7403
 11
0.628128
 21
35.7425
  0
LINE
  8
0
 10
0.628128
 20
35.7425
 11
0.645462
 21
35.7445
  0
LINE
  8
0
 10
0.645462
 20
35.7445
 11
0.662842
 21
35.7462
  0
LINE
  8
0
 10
0.662842
 20
35.7462
 11
0.680237
 21
35.7476
  0
LINE
  8
0
 10
0.680237
 20
35.7476
 11
0.697662
 21
35.7486
  0
LINE
  8
0
 10
0.697662
 20
35.7486
 11
0.715088
 21
35.7494
  0
LINE
  8
0
 10
0.715088
 20
35.7494
 11
0.732544
 21
35.7498
  0
LINE
  8
0
 10
0.732544
 20
35.7498
 11
0.75
 21
35.75
  0
LINE
  8
0
 10
0.75
 20
35.75
 11
0.767441
 21
35.7498
  0
LINE
  8
0
 10
0.767441
 20
35.7498
 11
0.784897
 21
35.7494
  0
LINE
  8
0
 10
0.784897
 20
35.7494
 11
0.802322
 21
35.7486
  0
LINE
  8
0
 10
0.802322
 20
35.7486
 11
0.819748
 21
35.7476
  0
LINE
  8
0
 10
0.819748
 20
35.7476
 11
0.837143
 21
35.7462
  0
LINE
  8
0
 10
0.837143
 20
35.7462
 11
0.854523
 21
35.7445
  0
LINE
  8
0
 10
0.854523
 20
35.7445
 11
0.871857
 21
35.7425
  0
LINE
  8
0
 10
0.871857
 20
35.7425
 11
0.88916
 21
35.7403
  0
LINE
  8
0
 10
0.88916
 20
35.7403
 11
0.906433
 21
35.7377
  0
LINE
  8
0
 10
0.906433
 20
35.7377
 11
0.923645
 21
35.7348
  0
LINE
  8
0
 10
0.923645
 20
35.7348
 11
0.940796
 21
35.7316
  0
LINE
  8
0
 10
0.940796
 20
35.7316
 11
0.957901
 21
35.7281
  0
LINE
  8
0
 10
0.957901
 20
35.7281
 11
0.974945
 21
35.7244
  0
LINE
  8
0
 10
0.974945
 20
35.7244
 11
0.991913
 21
35.7203
  0
LINE
  8
0
 10
0.991913
 20
35.7203
 11
1.00882
 21
35.7159
  0
LINE
  8
0
 10
1.00882
 20
35.7159
 11
1.02563
 21
35.7113
  0
LINE
  8
0
 10
1.02563
 20
35.7113
 11
1.04236
 21
35.7063
  0
LINE
  8
0
 10
1.04236
 20
35.7063
 11
1.05901
 21
35.701
  0
LINE
  8
0
 10
1.05901
 20
35.701
 11
1.07556
 21
35.6955
  0
LINE
  8
0
 10
1.07556
 20
35.6955
 11
1.09201
 21
35.6897
  0
LINE
  8
0
 10
1.09201
 20
35.6897
 11
1.10837
 21
35.6836
  0
LINE
  8
0
 10
1.10837
 20
35.6836
 11
1.1246
 21
35.6772
  0
LINE
  8
0
 10
1.1246
 20
35.6772
 11
1.14073
 21
35.6705
  0
LINE
  8
0
 10
1.14073
 20
35.6705
 11
1.15672
 21
35.6635
  0
LINE
  8
0
 10
1.15672
 20
35.6635
 11
1.17261
 21
35.6563
  0
LINE
  8
0
 10
1.17261
 20
35.6563
 11
1.18837
 21
35.6488
  0
LINE
  8
0
 10
1.18837
 20
35.6488
 11
1.20398
 21
35.641
  0
LINE
  8
0
 10
1.20398
 20
35.641
 11
1.21947
 21
35.6329
  0
LINE
  8
0
 10
1.21947
 20
35.6329
 11
1.2348
 21
35.6246
  0
LINE
  8
0
 10
1.2348
 20
35.6246
 11
1.25
 21
35.616
  0
LINE
  8
0
 10
1.25
 20
35.616
 11
1.26503
 21
35.6072
  0
LINE
  8
0
 10
1.26503
 20
35.6072
 11
1.27991
 21
35.598
  0
LINE
  8
0
 10
1.27991
 20
35.598
 11
1.29463
 21
35.5887
  0
LINE
  8
0
 10
1.29463
 20
35.5887
 11
1.30919
 21
35.579
  0
LINE
  8
0
 10
1.30919
 20
35.579
 11
1.32356
 21
35.5692
  0
LINE
  8
0
 10
1.32356
 20
35.5692
 11
1.33778
 21
35.559
  0
LINE
  8
0
 10
1.33778
 20
35.559
 11
1.35181
 21
35.5486
  0
LINE
  8
0
 10
1.35181
 20
35.5486
 11
1.36566
 21
35.538
  0
LINE
  8
0
 10
1.36566
 20
35.538
 11
1.37932
 21
35.5271
  0
LINE
  8
0
 10
1.37932
 20
35.5271
 11
1.39278
 21
35.516
  0
LINE
  8
0
 10
1.39278
 20
35.516
 11
1.40605
 21
35.5047
  0
LINE
  8
0
 10
1.40605
 20
35.5047
 11
1.41913
 21
35.4931
  0
LINE
  8
0
 10
1.41913
 20
35.4931
 11
1.43199
 21
35.4814
  0
LINE
  8
0
 10
1.43199
 20
35.4814
 11
1.44466
 21
35.4693
  0
LINE
  8
0
 10
1.44466
 20
35.4693
 11
1.45711
 21
35.4571
  0
LINE
  8
0
 10
1.45711
 20
35.4571
 11
1.46933
 21
35.4447
  0
LINE
  8
0
 10
1.46933
 20
35.4447
 11
1.48135
 21
35.432
  0
LINE
  8
0
 10
1.48135
 20
35.432
 11
1.49313
 21
35.4191
  0
LINE
  8
0
 10
1.49313
 20
35.4191
 11
1.5047
 21
35.4061
  0
LINE
  8
0
 10
1.5047
 20
35.4061
 11
1.51604
 21
35.3928
  0
LINE
  8
0
 10
1.51604
 20
35.3928
 11
1.52715
 21
35.3793
  0
LINE
  8
0
 10
1.52715
 20
35.3793
 11
1.53801
 21
35.3657
  0
LINE
  8
0
 10
1.53801
 20
35.3657
 11
1.54863
 21
35.3518
  0
LINE
  8
0
 10
1.54863
 20
35.3518
 11
1.55901
 21
35.3378
  0
LINE
  8
0
 10
1.55901
 20
35.3378
 11
1.56915
 21
35.3236
  0
LINE
  8
0
 10
1.56915
 20
35.3236
 11
1.57903
 21
35.3092
  0
LINE
  8
0
 10
1.57903
 20
35.3092
 11
1.58867
 21
35.2946
  0
LINE
  8
0
 10
1.58867
 20
35.2946
 11
1.59804
 21
35.2799
  0
LINE
  8
0
 10
1.59804
 20
35.2799
 11
1.60716
 21
35.265
  0
LINE
  8
0
 10
1.60716
 20
35.265
 11
1.61601
 21
35.25
  0
LINE
  8
0
 10
1.61601
 20
35.25
 11
1.62462
 21
35.2348
  0
LINE
  8
0
 10
1.62462
 20
35.2348
 11
1.63293
 21
35.2195
  0
LINE
  8
0
 10
1.63293
 20
35.2195
 11
1.64101
 21
35.204
  0
LINE
  8
0
 10
1.64101
 20
35.204
 11
1.64879
 21
35.1884
  0
LINE
  8
0
 10
1.64879
 20
35.1884
 11
1.6563
 21
35.1726
  0
LINE
  8
0
 10
1.6563
 20
35.1726
 11
1.66354
 21
35.1567
  0
LINE
  8
0
 10
1.66354
 20
35.1567
 11
1.6705
 21
35.1407
  0
LINE
  8
0
 10
1.6705
 20
35.1407
 11
1.67717
 21
35.1246
  0
LINE
  8
0
 10
1.67717
 20
35.1246
 11
1.68358
 21
35.1084
  0
LINE
  8
0
 10
1.68358
 20
35.1084
 11
1.68968
 21
35.092
  0
LINE
  8
0
 10
1.68968
 20
35.092
 11
1.69551
 21
35.0756
  0
LINE
  8
0
 10
1.69551
 20
35.0756
 11
1.70105
 21
35.059
  0
LINE
  8
0
 10
1.70105
 20
35.059
 11
1.7063
 21
35.0424
  0
LINE
  8
0
 10
1.7063
 20
35.0424
 11
1.71126
 21
35.0256
  0
LINE
  8
0
 10
1.71126
 20
35.0256
 11
1.71591
 21
35.0088
  0
LINE
  8
0
 10
1.71591
 20
35.0088
 11
1.72029
 21
34.9919
  0
LINE
  8
0
 10
1.72029
 20
34.9919
 11
1.72437
 21
34.9749
  0
LINE
  8
0
 10
1.72437
 20
34.9749
 11
1.72813
 21
34.9579
  0
LINE
  8
0
 10
1.72813
 20
34.9579
 11
1.73161
 21
34.9408
  0
LINE
  8
0
 10
1.73161
 20
34.9408
 11
1.7348
 21
34.9236
  0
LINE
  8
0
 10
1.7348
 20
34.9236
 11
1.73769
 21
34.9064
  0
LINE
  8
0
 10
1.73769
 20
34.9064
 11
1.74026
 21
34.8892
  0
LINE
  8
0
 10
1.74026
 20
34.8892
 11
1.74254
 21
34.8719
  0
LINE
  8
0
 10
1.74254
 20
34.8719
 11
1.74452
 21
34.8545
  0
LINE
  8
0
 10
1.74452
 20
34.8545
 11
1.74619
 21
34.8371
  0
LINE
  8
0
 10
1.74619
 20
34.8371
 11
1.74756
 21
34.8197
  0
LINE
  8
0
 10
1.74756
 20
34.8197
 11
1.74863
 21
34.8023
  0
LINE
  8
0
 10
1.74863
 20
34.8023
 11
1.74939
 21
34.7849
  0
LINE
  8
0
 10
1.74939
 20
34.7849
 11
1.74985
 21
34.7674
  0
LINE
  8
0
 10
1.74985
 20
34.7674
 11
1.75
 21
34.75
  0
LINE
  8
0
 10
1.75
 20
34.75
 11
1.74985
 21
34.7325
  0
LINE
  8
0
 10
1.74985
 20
34.7325
 11
1.74939
 21
34.7151
  0
LINE
  8
0
 10
1.74939
 20
34.7151
 11
1.74863
 21
34.6977
  0
LINE
  8
0
 10
1.74863
 20
34.6977
 11
1.74756
 21
34.6802
  0
LINE
  8
0
 10
1.74756
 20
34.6802
 11
1.74619
 21
34.6628
  0
LINE
  8
0
 10
1.74619
 20
34.6628
 11
1.74452
 21
34.6455
  0
LINE
  8
0
 10
1.74452
 20
34.6455
 11
1.74254
 21
34.6281
  0
LINE
  8
0
 10
1.74254
 20
34.6281
 11
1.74026
 21
34.6108
  0
LINE
  8
0
 10
1.74026
 20
34.6108
 11
1.73769
 21
34.5936
  0
LINE
  8
0
 10
1.73769
 20
34.5936
 11
1.7348
 21
34.5763
  0
LINE
  8
0
 10
1.7348
 20
34.5763
 11
1.73161
 21
34.5592
  0
LINE
  8
0
 10
1.73161
 20
34.5592
 11
1.72813
 21
34.5421
  0
LINE
  8
0
 10
1.72813
 20
34.5421
 11
1.72437
 21
34.525
  0
LINE
  8
0
 10
1.72437
 20
34.525
 11
1.72029
 21
34.5081
  0
LINE
  8
0
 10
1.72029
 20
34.5081
 11
1.71591
 21
34.4912
  0
LINE
  8
0
 10
1.71591
 20
34.4912
 11
1.71126
 21
34.4743
  0
LINE
  8
0
 10
1.71126
 20
34.4743
 11
1.7063
 21
34.4576
  0
LINE
  8
0
 10
1.7063
 20
34.4576
 11
1.70105
 21
34.441
  0
LINE
  8
0
 10
1.70105
 20
34.441
 11
1.69551
 21
34.4244
  0
LINE
  8
0
 10
1.69551
 20
34.4244
 11
1.68968
 21
34.408
  0
LINE
  8
0
 10
1.68968
 20
34.408
 11
1.68358
 21
34.3916
  0
LINE
  8
0
 10
1.68358
 20
34.3916
 11
1.67717
 21
34.3754
  0
LINE
  8
0
 10
1.67717
 20
34.3754
 11
1.6705
 21
34.3593
  0
LINE
  8
0
 10
1.6705
 20
34.3593
 11
1.66354
 21
34.3433
  0
LINE
  8
0
 10
1.66354
 20
34.3433
 11
1.6563
 21
34.3274
  0
LINE
  8
0
 10
1.6563
 20
34.3274
 11
1.64879
 21
34.3116
  0
LINE
  8
0
 10
1.64879
 20
34.3116
 11
1.64101
 21
34.296
  0
LINE
  8
0
 10
1.64101
 20
34.296
 11
1.63293
 21
34.2805
  0
LINE
  8
0
 10
1.63293
 20
34.2805
 11
1.62462
 21
34.2652
  0
LINE
  8
0
 10
1.62462
 20
34.2652
 11
1.61601
 21
34.25
  0
LINE
  8
0
 10
1.61601
 20
34.25
 11
1.60716
 21
34.235
  0
LINE
  8
0
 10
1.60716
 20
34.235
 11
1.59804
 21
34.2201
  0
LINE
  8
0
 10
1.59804
 20
34.2201
 11
1.58867
 21
34.2054
  0
LINE
  8
0
 10
1.58867
 20
34.2054
 11
1.57903
 21
34.1908
  0
LINE
  8
0
 10
1.57903
 20
34.1908
 11
1.56915
 21
34.1764
  0
LINE
  8
0
 10
1.56915
 20
34.1764
 11
1.55901
 21
34.1622
  0
LINE
  8
0
 10
1.55901
 20
34.1622
 11
1.54863
 21
34.1482
  0
LINE
  8
0
 10
1.54863
 20
34.1482
 11
1.53801
 21
34.1343
  0
LINE
  8
0
 10
1.53801
 20
34.1343
 11
1.52715
 21
34.1207
  0
LINE
  8
0
 10
1.52715
 20
34.1207
 11
1.51604
 21
34.1072
  0
LINE
  8
0
 10
1.51604
 20
34.1072
 11
1.5047
 21
34.0939
  0
LINE
  8
0
 10
1.5047
 20
34.0939
 11
1.49313
 21
34.0809
  0
LINE
  8
0
 10
1.49313
 20
34.0809
 11
1.48135
 21
34.068
  0
LINE
  8
0
 10
1.48135
 20
34.068
 11
1.46933
 21
34.0553
  0
LINE
  8
0
 10
1.46933
 20
34.0553
 11
1.45711
 21
34.0429
  0
LINE
  8
0
 10
1.45711
 20
34.0429
 11
1.44466
 21
34.0307
  0
LINE
  8
0
 10
1.44466
 20
34.0307
 11
1.43199
 21
34.0186
  0
LINE
  8
0
 10
1.43199
 20
34.0186
 11
1.41913
 21
34.0069
  0
LINE
  8
0
 10
1.41913
 20
34.0069
 11
1.40605
 21
33.9953
  0
LINE
  8
0
 10
1.40605
 20
33.9953
 11
1.39278
 21
33.9839
  0
LINE
  8
0
 10
1.39278
 20
33.9839
 11
1.37932
 21
33.9729
  0
LINE
  8
0
 10
1.37932
 20
33.9729
 11
1.36566
 21
33.962
  0
LINE
  8
0
 10
1.36566
 20
33.962
 11
1.35181
 21
33.9514
  0
LINE
  8
0
 10
1.35181
 20
33.9514
 11
1.33778
 21
33.941
  0
LINE
  8
0
 10
1.33778
 20
33.941
 11
1.32356
 21
33.9308
  0
LINE
  8
0
 10
1.32356
 20
33.9308
 11
1.30919
 21
33.921
  0
LINE
  8
0
 10
1.30919
 20
33.921
 11
1.29463
 21
33.9113
  0
LINE
  8
0
 10
1.29463
 20
33.9113
 11
1.27991
 21
33.9019
  0
LINE
  8
0
 10
1.27991
 20
33.9019
 11
1.26503
 21
33.8928
  0
LINE
  8
0
 10
1.26503
 20
33.8928
 11
1.25
 21
33.884
  0
LINE
  8
0
 10
1.25
 20
33.884
 11
1.2348
 21
33.8754
  0
LINE
  8
0
 10
1.2348
 20
33.8754
 11
1.21947
 21
33.8671
  0
LINE
  8
0
 10
1.21947
 20
33.8671
 11
1.20398
 21
33.859
  0
LINE
  8
0
 10
1.20398
 20
33.859
 11
1.18837
 21
33.8512
  0
LINE
  8
0
 10
1.18837
 20
33.8512
 11
1.17261
 21
33.8437
  0
LINE
  8
0
 10
1.17261
 20
33.8437
 11
1.15672
 21
33.8365
  0
LINE
  8
0
 10
1.15672
 20
33.8365
 11
1.14073
 21
33.8295
  0
LINE
  8
0
 10
1.14073
 20
33.8295
 11
1.1246
 21
33.8228
  0
LINE
  8
0
 10
1.1246
 20
33.8228
 11
1.10837
 21
33.8164
  0
LINE
  8
0
 10
1.10837
 20
33.8164
 11
1.09201
 21
33.8103
  0
LINE
  8
0
 10
1.09201
 20
33.8103
 11
1.07556
 21
33.8045
  0
LINE
  8
0
 10
1.07556
 20
33.8045
 11
1.05901
 21
33.7989
  0
LINE
  8
0
 10
1.05901
 20
33.7989
 11
1.04236
 21
33.7937
  0
LINE
  8
0
 10
1.04236
 20
33.7937
 11
1.02563
 21
33.7887
  0
LINE
  8
0
 10
1.02563
 20
33.7887
 11
1.00882
 21
33.7841
  0
LINE
  8
0
 10
1.00882
 20
33.7841
 11
0.991913
 21
33.7797
  0
LINE
  8
0
 10
0.991913
 20
33.7797
 11
0.974945
 21
33.7756
  0
LINE
  8
0
 10
0.974945
 20
33.7756
 11
0.957901
 21
33.7719
  0
LINE
  8
0
 10
0.957901
 20
33.7719
 11
0.940796
 21
33.7684
  0
LINE
  8
0
 10
0.940796
 20
33.7684
 11
0.923645
 21
33.7652
  0
LINE
  8
0
 10
0.923645
 20
33.7652
 11
0.906433
 21
33.7623
  0
LINE
  8
0
 10
0.906433
 20
33.7623
 11
0.88916
 21
33.7597
  0
LINE
  8
0
 10
0.88916
 20
33.7597
 11
0.871857
 21
33.7574
  0
LINE
  8
0
 10
0.871857
 20
33.7574
 11
0.854523
 21
33.7555
  0
LINE
  8
0
 10
0.854523
 20
33.7555
 11
0.837143
 21
33.7538
  0
LINE
  8
0
 10
0.837143
 20
33.7538
 11
0.819748
 21
33.7524
  0
LINE
  8
0
 10
0.819748
 20
33.7524
 11
0.802322
 21
33.7514
  0
LINE
  8
0
 10
0.802322
 20
33.7514
 11
0.784897
 21
33.7506
  0
LINE
  8
0
 10
0.784897
 20
33.7506
 11
0.767441
 21
33.7502
  0
LINE
  8
0
 10
0.767441
 20
33.7502
 11
0.75
 21
33.75
  0
LINE
  8
0
 10
0.75
 20
33.75
 11
0.732544
 21
33.7502
  0
LINE
  8
0
 10
53.2325
 20
33.7502
 11
53.2151
 21
33.7506
  0
LINE
  8
0
 10
53.2151
 20
33.7506
 11
53.1977
 21
33.7514
  0
LINE
  8
0
 10
53.1977
 20
33.7514
 11
53.1802
 21
33.7524
  0
LINE
  8
0
 10
53.1802
 20
33.7524
 11
53.1628
 21
33.7538
  0
LINE
  8
0
 10
53.1628
 20
33.7538
 11
53.1455
 21
33.7555
  0
LINE
  8
0
 10
53.1455
 20
33.7555
 11
53.1281
 21
33.7574
  0
LINE
  8
0
 10
53.1281
 20
33.7574
 11
53.1108
 21
33.7597
  0
LINE
  8
0
 10
53.1108
 20
33.7597
 11
53.0936
 21
33.7623
  0
LINE
  8
0
 10
53.0936
 20
33.7623
 11
53.0763
 21
33.7652
  0
LINE
  8
0
 10
53.0763
 20
33.7652
 11
53.0592
 21
33.7684
  0
LINE
  8
0
 10
53.0592
 20
33.7684
 11
53.0421
 21
33.7719
  0
LINE
  8
0
 10
53.0421
 20
33.7719
 11
53.025
 21
33.7756
  0
LINE
  8
0
 10
53.025
 20
33.7756
 11
53.0081
 21
33.7797
  0
LINE
  8
0
 10
53.0081
 20
33.7797
 11
52.9912
 21
33.7841
  0
LINE
  8
0
 10
52.9912
 20
33.7841
 11
52.9743
 21
33.7887
  0
LINE
  8
0
 10
52.9743
 20
33.7887
 11
52.9576
 21
33.7937
  0
LINE
  8
0
 10
52.9576
 20
33.7937
 11
52.941
 21
33.7989
  0
LINE
  8
0
 10
52.941
 20
33.7989
 11
52.9244
 21
33.8045
  0
LINE
  8
0
 10
52.9244
 20
33.8045
 11
52.908
 21
33.8103
  0
LINE
  8
0
 10
52.908
 20
33.8103
 11
52.8916
 21
33.8164
  0
LINE
  8
0
 10
52.8916
 20
33.8164
 11
52.8754
 21
33.8228
  0
LINE
  8
0
 10
52.8754
 20
33.8228
 11
52.8593
 21
33.8295
  0
LINE
  8
0
 10
52.8593
 20
33.8295
 11
52.8433
 21
33.8365
  0
LINE
  8
0
 10
52.8433
 20
33.8365
 11
52.8274
 21
33.8437
  0
LINE
  8
0
 10
52.8274
 20
33.8437
 11
52.8116
 21
33.8512
  0
LINE
  8
0
 10
52.8116
 20
33.8512
 11
52.796
 21
33.859
  0
LINE
  8
0
 10
52.796
 20
33.859
 11
52.7805
 21
33.8671
  0
LINE
  8
0
 10
52.7805
 20
33.8671
 11
52.7652
 21
33.8754
  0
LINE
  8
0
 10
52.7652
 20
33.8754
 11
52.75
 21
33.884
  0
LINE
  8
0
 10
52.75
 20
33.884
 11
52.735
 21
33.8928
  0
LINE
  8
0
 10
52.735
 20
33.8928
 11
52.7201
 21
33.9019
  0
LINE
  8
0
 10
52.7201
 20
33.9019
 11
52.7054
 21
33.9113
  0
LINE
  8
0
 10
52.7054
 20
33.9113
 11
52.6908
 21
33.921
  0
LINE
  8
0
 10
52.6908
 20
33.921
 11
52.6764
 21
33.9308
  0
LINE
  8
0
 10
52.6764
 20
33.9308
 11
52.6622
 21
33.941
  0
LINE
  8
0
 10
52.6622
 20
33.941
 11
52.6482
 21
33.9514
  0
LINE
  8
0
 10
52.6482
 20
33.9514
 11
52.6343
 21
33.962
  0
LINE
  8
0
 10
52.6343
 20
33.962
 11
52.6207
 21
33.9729
  0
LINE
  8
0
 10
52.6207
 20
33.9729
 11
52.6072
 21
33.9839
  0
LINE
  8
0
 10
52.6072
 20
33.9839
 11
52.5939
 21
33.9953
  0
LINE
  8
0
 10
52.5939
 20
33.9953
 11
52.5809
 21
34.0069
  0
LINE
  8
0
 10
52.5809
 20
34.0069
 11
52.568
 21
34.0186
  0
LINE
  8
0
 10
52.568
 20
34.0186
 11
52.5553
 21
34.0307
  0
LINE
  8
0
 10
52.5553
 20
34.0307
 11
52.5429
 21
34.0429
  0
LINE
  8
0
 10
52.5429
 20
34.0429
 11
52.5307
 21
34.0553
  0
LINE
  8
0
 10
52.5307
 20
34.0553
 11
52.5186
 21
34.068
  0
LINE
  8
0
 10
52.5186
 20
34.068
 11
52.5069
 21
34.0809
  0
LINE
  8
0
 10
52.5069
 20
34.0809
 11
52.4953
 21
34.0939
  0
LINE
  8
0
 10
52.4953
 20
34.0939
 11
52.4839
 21
34.1072
  0
LINE
  8
0
 10
52.4839
 20
34.1072
 11
52.4729
 21
34.1207
  0
LINE
  8
0
 10
52.4729
 20
34.1207
 11
52.462
 21
34.1343
  0
LINE
  8
0
 10
52.462
 20
34.1343
 11
52.4514
 21
34.1482
  0
LINE
  8
0
 10
52.4514
 20
34.1482
 11
52.441
 21
34.1622
  0
LINE
  8
0
 10
52.441
 20
34.1622
 11
52.4308
 21
34.1764
  0
LINE
  8
0
 10
52.4308
 20
34.1764
 11
52.421
 21
34.1908
  0
LINE
  8
0
 10
52.421
 20
34.1908
 11
52.4113
 21
34.2054
  0
LINE
  8
0
 10
52.4113
 20
34.2054
 11
52.4019
 21
34.2201
  0
LINE
  8
0
 10
52.4019
 20
34.2201
 11
52.3928
 21
34.235
  0
LINE
  8
0
 10
52.3928
 20
34.235
 11
52.384
 21
34.25
  0
LINE
  8
0
 10
52.384
 20
34.25
 11
52.3754
 21
34.2652
  0
LINE
  8
0
 10
52.3754
 20
34.2652
 11
52.3671
 21
34.2805
  0
LINE
  8
0
 10
52.3671
 20
34.2805
 11
52.359
 21
34.296
  0
LINE
  8
0
 10
52.359
 20
34.296
 11
52.3512
 21
34.3116
  0
LINE
  8
0
 10
52.3512
 20
34.3116
 11
52.3437
 21
34.3274
  0
LINE
  8
0
 10
52.3437
 20
34.3274
 11
52.3365
 21
34.3433
  0
LINE
  8
0
 10
52.3365
 20
34.3433
 11
52.3295
 21
34.3593
  0
LINE
  8
0
 10
52.3295
 20
34.3593
 11
52.3228
 21
34.3754
  0
LINE
  8
0
 10
52.3228
 20
34.3754
 11
52.3164
 21
34.3916
  0
LINE
  8
0
 10
52.3164
 20
34.3916
 11
52.3103
 21
34.408
  0
LINE
  8
0
 10
52.3103
 20
34.408
 11
52.3045
 21
34.4244
  0
LINE
  8
0
 10
52.3045
 20
34.4244
 11
52.2989
 21
34.441
  0
LINE
  8
0
 10
52.2989
 20
34.441
 11
52.2937
 21
34.4576
  0
LINE
  8
0
 10
52.2937
 20
34.4576
 11
52.2887
 21
34.4743
  0
LINE
  8
0
 10
52.2887
 20
34.4743
 11
52.2841
 21
34.4912
  0
LINE
  8
0
 10
52.2841
 20
34.4912
 11
52.2797
 21
34.5081
  0
LINE
  8
0
 10
52.2797
 20
34.5081
 11
52.2756
 21
34.525
  0
LINE
  8
0
 10
52.2756
 20
34.525
 11
52.2719
 21
34.5421
  0
LINE
  8
0
 10
52.2719
 20
34.5421
 11
52.2684
 21
34.5592
  0
LINE
  8
0
 10
52.2684
 20
34.5592
 11
52.2652
 21
34.5763
  0
LINE
  8
0
 10
52.2652
 20
34.5763
 11
52.2623
 21
34.5936
  0
LINE
  8
0
 10
52.2623
 20
34.5936
 11
52.2597
 21
34.6108
  0
LINE
  8
0
 10
52.2597
 20
34.6108
 11
52.2574
 21
34.6281
  0
LINE
  8
0
 10
52.2574
 20
34.6281
 11
52.2555
 21
34.6455
  0
LINE
  8
0
 10
52.2555
 20
34.6455
 11
52.2538
 21
34.6628
  0
LINE
  8
0
 10
52.2538
 20
34.6628
 11
52.2524
 21
34.6802
  0
LINE
  8
0
 10
52.2524
 20
34.6802
 11
52.2514
 21
34.6977
  0
LINE
  8
0
 10
52.2514
 20
34.6977
 11
52.2506
 21
34.7151
  0
LINE
  8
0
 10
52.2506
 20
34.7151
 11
52.2502
 21
34.7325
  0
LINE
  8
0
 10
52.2502
 20
34.7325
 11
52.25
 21
34.75
  0
LINE
  8
0
 10
52.25
 20
34.75
 11
52.2502
 21
34.7674
  0
LINE
  8
0
 10
52.2502
 20
34.7674
 11
52.2506
 21
34.7849
  0
LINE
  8
0
 10
52.2506
 20
34.7849
 11
52.2514
 21
34.8023
  0
LINE
  8
0
 10
52.2514
 20
34.8023
 11
52.2524
 21
34.8197
  0
LINE
  8
0
 10
52.2524
 20
34.8197
 11
52.2538
 21
34.8371
  0
LINE
  8
0
 10
52.2538
 20
34.8371
 11
52.2555
 21
34.8545
  0
LINE
  8
0
 10
52.2555
 20
34.8545
 11
52.2574
 21
34.8719
  0
LINE
  8
0
 10
52.2574
 20
34.8719
 11
52.2597
 21
34.8892
  0
LINE
  8
0
 10
52.2597
 20
34.8892
 11
52.2623
 21
34.9064
  0
LINE
  8
0
 10
52.2623
 20
34.9064
 11
52.2652
 21
34.9236
  0
LINE
  8
0
 10
52.2652
 20
34.9236
 11
52.2684
 21
34.9408
  0
LINE
  8
0
 10
52.2684
 20
34.9408
 11
52.2719
 21
34.9579
  0
LINE
  8
0
 10
52.2719
 20
34.9579
 11
52.2756
 21
34.9749
  0
LINE
  8
0
 10
52.2756
 20
34.9749
 11
52.2797
 21
34.9919
  0
LINE
  8
0
 10
52.2797
 20
34.9919
 11
52.2841
 21
35.0088
  0
LINE
  8
0
 10
52.2841
 20
35.0088
 11
52.2887
 21
35.0256
  0
LINE
  8
0
 10
52.2887
 20
35.0256
 11
52.2937
 21
35.0424
  0
LINE
  8
0
 10
52.2937
 20
35.0424
 11
52.2989
 21
35.059
  0
LINE
  8
0
 10
52.2989
 20
35.059
 11
52.3045
 21
35.0756
  0
LINE
  8
0
 10
52.3045
 20
35.0756
 11
52.3103
 21
35.092
  0
LINE
  8
0
 10
52.3103
 20
35.092
 11
52.3164
 21
35.1084
  0
LINE
  8
0
 10
52.3164
 20
35.1084
 11
52.3228
 21
35.1246
  0
LINE
  8
0
 10
52.3228
 20
35.1246
 11
52.3295
 21
35.1407
  0
LINE
  8
0
 10
52.3295
 20
35.1407
 11
52.3365
 21
35.1567
  0
LINE
  8
0
 10
52.3365
 20
35.1567
 11
52.3437
 21
35.1726
  0
LINE
  8
0
 10
52.3437
 20
35.1726
 11
52.3512
 21
35.1884
  0
LINE
  8
0
 10
52.3512
 20
35.1884
 11
52.359
 21
35.204
  0
LINE
  8
0
 10
52.359
 20
35.204
 11
52.3671
 21
35.2195
  0
LINE
  8
0
 10
52.3671
 20
35.2195
 11
52.3754
 21
35.2348
  0
LINE
  8
0
 10
52.3754
 20
35.2348
 11
52.384
 21
35.25
  0
LINE
  8
0
 10
52.384
 20
35.25
 11
52.3928
 21
35.265
  0
LINE
  8
0
 10
52.3928
 20
35.265
 11
52.4019
 21
35.2799
  0
LINE
  8
0
 10
52.4019
 20
35.2799
 11
52.4113
 21
35.2946
  0
LINE
  8
0
 10
52.4113
 20
35.2946
 11
52.421
 21
35.3092
  0
LINE
  8
0
 10
52.421
 20
35.3092
 11
52.4308
 21
35.3236
  0
LINE
  8
0
 10
52.4308
 20
35.3236
 11
52.441
 21
35.3378
  0
LINE
  8
0
 10
52.441
 20
35.3378
 11
52.4514
 21
35.3518
  0
LINE
  8
0
 10
52.4514
 20
35.3518
 11
52.462
 21
35.3657
  0
LINE
  8
0
 10
52.462
 20
35.3657
 11
52.4729
 21
35.3793
  0
LINE
  8
0
 10
52.4729
 20
35.3793
 11
52.4839
 21
35.3928
  0
LINE
  8
0
 10
52.4839
 20
35.3928
 11
52.4953
 21
35.4061
  0
LINE
  8
0
 10
52.4953
 20
35.4061
 11
52.5069
 21
35.4191
  0
LINE
  8
0
 10
52.5069
 20
35.4191
 11
52.5186
 21
35.432
  0
LINE
  8
0
 10
52.5186
 20
35.432
 11
52.5307
 21
35.4447
  0
LINE
  8
0
 10
52.5307
 20
35.4447
 11
52.5429
 21
35.4571
  0
LINE
  8
0
 10
52.5429
 20
35.4571
 11
52.5553
 21
35.4693
  0
LINE
  8
0
 10
52.5553
 20
35.4693
 11
52.568
 21
35.4814
  0
LINE
  8
0
 10
52.568
 20
35.4814
 11
52.5809
 21
35.4931
  0
LINE
  8
0
 10
52.5809
 20
35.4931
 11
52.5939
 21
35.5047
  0
LINE
  8
0
 10
52.5939
 20
35.5047
 11
52.6072
 21
35.516
  0
LINE
  8
0
 10
52.6072
 20
35.516
 11
52.6207
 21
35.5271
  0
LINE
  8
0
 10
52.6207
 20
35.5271
 11
52.6343
 21
35.538
  0
LINE
  8
0
 10
52.6343
 20
35.538
 11
52.6482
 21
35.5486
  0
LINE
  8
0
 10
52.6482
 20
35.5486
 11
52.6622
 21
35.559
  0
LINE
  8
0
 10
52.6622
 20
35.559
 11
52.6764
 21
35.5692
  0
LINE
  8
0
 10
52.6764
 20
35.5692
 11
52.6908
 21
35.579
  0
LINE
  8
0
 10
52.6908
 20
35.579
 11
52.7054
 21
35.5887
  0
LINE
  8
0
 10
52.7054
 20
35.5887
 11
52.7201
 21
35.598
  0
LINE
  8
0
 10
52.7201
 20
35.598
 11
52.735
 21
35.6072
  0
LINE
  8
0
 10
52.735
 20
35.6072
 11
52.75
 21
35.616
  0
LINE
  8
0
 10
52.75
 20
35.616
 11
52.7652
 21
35.6246
  0
LINE
  8
0
 10
52.7652
 20
35.6246
 11
52.7805
 21
35.6329
  0
LINE
  8
0
 10
52.7805
 20
35.6329
 11
52.796
 21
35.641
  0
LINE
  8
0
 10
52.796
 20
35.641
 11
52.8116
 21
35.6488
  0
LINE
  8
0
 10
52.8116
 20
35.6488
 11
52.8274
 21
35.6563
  0
LINE
  8
0
 10
52.8274
 20
35.6563
 11
52.8433
 21
35.6635
  0
LINE
  8
0
 10
52.8433
 20
35.6635
 11
52.8593
 21
35.6705
  0
LINE
  8
0
 10
52.8593
 20
35.6705
 11
52.8754
 21
35.6772
  0
LINE
  8
0
 10
52.8754
 20
35.6772
 11
52.8916
 21
35.6836
  0
LINE
  8
0
 10
52.8916
 20
35.6836
 11
52.908
 21
35.6897
  0
LINE
  8
0
 10
52.908
 20
35.6897
 11
52.9244
 21
35.6955
  0
LINE
  8
0
 10
52.9244
 20
35.6955
 11
52.941
 21
35.701
  0
LINE
  8
0
 10
52.941
 20
35.701
 11
52.9576
 21
35.7063
  0
LINE
  8
0
 10
52.9576
 20
35.7063
 11
52.9743
 21
35.7113
  0
LINE
  8
0
 10
52.9743
 20
35.7113
 11
52.9912
 21
35.7159
  0
LINE
  8
0
 10
52.9912
 20
35.7159
 11
53.0081
 21
35.7203
  0
LINE
  8
0
 10
53.0081
 20
35.7203
 11
53.025
 21
35.7244
  0
LINE
  8
0
 10
53.025
 20
35.7244
 11
53.0421
 21
35.7281
  0
LINE
  8
0
 10
53.0421
 20
35.7281
 11
53.0592
 21
35.7316
  0
LINE
  8
0
 10
53.0592
 20
35.7316
 11
53.0763
 21
35.7348
  0
LINE
  8
0
 10
53.0763
 20
35.7348
 11
53.0936
 21
35.7377
  0
LINE
  8
0
 10
53.0936
 20
35.7377
 11
53.1108
 21
35.7403
  0
LINE
  8
0
 10
53.1108
 20
35.7403
 11
53.1281
 21
35.7425
  0
LINE
  8
0
 10
53.1281
 20
35.7425
 11
53.1455
 21
35.7445
  0
LINE
  8
0
 10
53.1455
 20
35.7445
 11
53.1628
 21
35.7462
  0
LINE
  8
0
 10
53.1628
 20
35.7462
 11
53.1802
 21
35.7476
  0
LINE
  8
0
 10
53.1802
 20
35.7476
 11
53.1977
 21
35.7486
  0
LINE
  8
0
 10
53.1977
 20
35.7486
 11
53.2151
 21
35.7494
  0
LINE
  8
0
 10
53.2151
 20
35.7494
 11
53.2325
 21
35.7498
  0
LINE
  8
0
 10
53.2325
 20
35.7498
 11
53.25
 21
35.75
  0
LINE
  8
0
 10
53.25
 20
35.75
 11
53.2674
 21
35.7498
  0
LINE
  8
0
 10
53.2674
 20
35.7498
 11
53.2849
 21
35.7494
  0
LINE
  8
0
 10
53.2849
 20
35.7494
 11
53.3023
 21
35.7486
  0
LINE
  8
0
 10
53.3023
 20
35.7486
 11
53.3197
 21
35.7476
  0
LINE
  8
0
 10
53.3197
 20
35.7476
 11
53.3371
 21
35.7462
  0
LINE
  8
0
 10
53.3371
 20
35.7462
 11
53.3545
 21
35.7445
  0
LINE
  8
0
 10
53.3545
 20
35.7445
 11
53.3719
 21
35.7425
  0
LINE
  8
0
 10
53.3719
 20
35.7425
 11
53.3892
 21
35.7403
  0
LINE
  8
0
 10
53.3892
 20
35.7403
 11
53.4064
 21
35.7377
  0
LINE
  8
0
 10
53.4064
 20
35.7377
 11
53.4236
 21
35.7348
  0
LINE
  8
0
 10
53.4236
 20
35.7348
 11
53.4408
 21
35.7316
  0
LINE
  8
0
 10
53.4408
 20
35.7316
 11
53.4579
 21
35.7281
  0
LINE
  8
0
 10
53.4579
 20
35.7281
 11
53.4749
 21
35.7244
  0
LINE
  8
0
 10
53.4749
 20
35.7244
 11
53.4919
 21
35.7203
  0
LINE
  8
0
 10
53.4919
 20
35.7203
 11
53.5088
 21
35.7159
  0
LINE
  8
0
 10
53.5088
 20
35.7159
 11
53.5256
 21
35.7113
  0
LINE
  8
0
 10
53.5256
 20
35.7113
 11
53.5424
 21
35.7063
  0
LINE
  8
0
 10
53.5424
 20
35.7063
 11
53.559
 21
35.701
  0
LINE
  8
0
 10
53.559
 20
35.701
 11
53.5756
 21
35.6955
  0
LINE
  8
0
 10
53.5756
 20
35.6955
 11
53.592
 21
35.6897
  0
LINE
  8
0
 10
53.592
 20
35.6897
 11
53.6084
 21
35.6836
  0
LINE
  8
0
 10
53.6084
 20
35.6836
 11
53.6246
 21
35.6772
  0
LINE
  8
0
 10
53.6246
 20
35.6772
 11
53.6407
 21
35.6705
  0
LINE
  8
0
 10
53.6407
 20
35.6705
 11
53.6567
 21
35.6635
  0
LINE
  8
0
 10
53.6567
 20
35.6635
 11
53.6726
 21
35.6563
  0
LINE
  8
0
 10
53.6726
 20
35.6563
 11
53.6884
 21
35.6488
  0
LINE
  8
0
 10
53.6884
 20
35.6488
 11
53.704
 21
35.641
  0
LINE
  8
0
 10
53.704
 20
35.641
 11
53.7195
 21
35.6329
  0
LINE
  8
0
 10
53.7195
 20
35.6329
 11
53.7348
 21
35.6246
  0
LINE
  8
0
 10
53.7348
 20
35.6246
 11
53.75
 21
35.616
  0
LINE
  8
0
 10
53.75
 20
35.616
 11
53.765
 21
35.6072
  0
LINE
  8
0
 10
53.765
 20
35.6072
 11
53.7799
 21
35.598
  0
LINE
  8
0
 10
53.7799
 20
35.598
 11
53.7946
 21
35.5887
  0
LINE
  8
0
 10
53.7946
 20
35.5887
 11
53.8092
 21
35.579
  0
LINE
  8
0
 10
53.8092
 20
35.579
 11
53.8236
 21
35.5692
  0
LINE
  8
0
 10
53.8236
 20
35.5692
 11
53.8378
 21
35.559
  0
LINE
  8
0
 10
53.8378
 20
35.559
 11
53.8518
 21
35.5486
  0
LINE
  8
0
 10
53.8518
 20
35.5486
 11
53.8657
 21
35.538
  0
LINE
  8
0
 10
53.8657
 20
35.538
 11
53.8793
 21
35.5271
  0
LINE
  8
0
 10
53.8793
 20
35.5271
 11
53.8928
 21
35.516
  0
LINE
  8
0
 10
53.8928
 20
35.516
 11
53.9061
 21
35.5047
  0
LINE
  8
0
 10
53.9061
 20
35.5047
 11
53.9191
 21
35.4931
  0
LINE
  8
0
 10
53.9191
 20
35.4931
 11
53.932
 21
35.4814
  0
LINE
  8
0
 10
53.932
 20
35.4814
 11
53.9447
 21
35.4693
  0
LINE
  8
0
 10
53.9447
 20
35.4693
 11
53.9571
 21
35.4571
  0
LINE
  8
0
 10
53.9571
 20
35.4571
 11
53.9693
 21
35.4447
  0
LINE
  8
0
 10
53.9693
 20
35.4447
 11
53.9814
 21
35.432
  0
LINE
  8
0
 10
53.9814
 20
35.432
 11
53.9931
 21
35.4191
  0
LINE
  8
0
 10
53.9931
 20
35.4191
 11
54.0047
 21
35.4061
  0
LINE
  8
0
 10
54.0047
 20
35.4061
 11
54.016
 21
35.3928
  0
LINE
  8
0
 10
54.016
 20
35.3928
 11
54.0271
 21
35.3793
  0
LINE
  8
0
 10
54.0271
 20
35.3793
 11
54.038
 21
35.3657
  0
LINE
  8
0
 10
54.038
 20
35.3657
 11
54.0486
 21
35.3518
  0
LINE
  8
0
 10
54.0486
 20
35.3518
 11
54.059
 21
35.3378
  0
LINE
  8
0
 10
54.059
 20
35.3378
 11
54.0692
 21
35.3236
  0
LINE
  8
0
 10
54.0692
 20
35.3236
 11
54.079
 21
35.3092
  0
LINE
  8
0
 10
54.079
 20
35.3092
 11
54.0887
 21
35.2946
  0
LINE
  8
0
 10
54.0887
 20
35.2946
 11
54.098
 21
35.2799
  0
LINE
  8
0
 10
54.098
 20
35.2799
 11
54.1072
 21
35.265
  0
LINE
  8
0
 10
54.1072
 20
35.265
 11
54.116
 21
35.25
  0
LINE
  8
0
 10
54.116
 20
35.25
 11
54.1246
 21
35.2348
  0
LINE
  8
0
 10
54.1246
 20
35.2348
 11
54.1329
 21
35.2195
  0
LINE
  8
0
 10
54.1329
 20
35.2195
 11
54.141
 21
35.204
  0
LINE
  8
0
 10
54.141
 20
35.204
 11
54.1488
 21
35.1884
  0
LINE
  8
0
 10
54.1488
 20
35.1884
 11
54.1563
 21
35.1726
  0
LINE
  8
0
 10
54.1563
 20
35.1726
 11
54.1635
 21
35.1567
  0
LINE
  8
0
 10
54.1635
 20
35.1567
 11
54.1705
 21
35.1407
  0
LINE
  8
0
 10
54.1705
 20
35.1407
 11
54.1772
 21
35.1246
  0
LINE
  8
0
 10
54.1772
 20
35.1246
 11
54.1836
 21
35.1084
  0
LINE
  8
0
 10
54.1836
 20
35.1084
 11
54.1897
 21
35.092
  0
LINE
  8
0
 10
54.1897
 20
35.092
 11
54.1955
 21
35.0756
  0
LINE
  8
0
 10
54.1955
 20
35.0756
 11
54.201
 21
35.059
  0
LINE
  8
0
 10
54.201
 20
35.059
 11
54.2063
 21
35.0424
  0
LINE
  8
0
 10
54.2063
 20
35.0424
 11
54.2113
 21
35.0256
  0
LINE
  8
0
 10
54.2113
 20
35.0256
 11
54.2159
 21
35.0088
  0
LINE
  8
0
 10
54.2159
 20
35.0088
 11
54.2203
 21
34.9919
  0
LINE
  8
0
 10
54.2203
 20
34.9919
 11
54.2244
 21
34.9749
  0
LINE
  8
0
 10
54.2244
 20
34.9749
 11
54.2281
 21
34.9579
  0
LINE
  8
0
 10
54.2281
 20
34.9579
 11
54.2316
 21
34.9408
  0
LINE
  8
0
 10
54.2316
 20
34.9408
 11
54.2348
 21
34.9236
  0
LINE
  8
0
 10
54.2348
 20
34.9236
 11
54.2377
 21
34.9064
  0
LINE
  8
0
 10
54.2377
 20
34.9064
 11
54.2403
 21
34.8892
  0
LINE
  8
0
 10
54.2403
 20
34.8892
 11
54.2425
 21
34.8719
  0
LINE
  8
0
 10
54.2425
 20
34.8719
 11
54.2445
 21
34.8545
  0
LINE
  8
0
 10
54.2445
 20
34.8545
 11
54.2462
 21
34.8371
  0
LINE
  8
0
 10
54.2462
 20
34.8371
 11
54.2476
 21
34.8197
  0
LINE
  8
0
 10
54.2476
 20
34.8197
 11
54.2486
 21
34.8023
  0
LINE
  8
0
 10
54.2486
 20
34.8023
 11
54.2494
 21
34.7849
  0
LINE
  8
0
 10
54.2494
 20
34.7849
 11
54.2498
 21
34.7674
  0
LINE
  8
0
 10
54.2498
 20
34.7674
 11
54.25
 21
34.75
  0
LINE
  8
0
 10
54.25
 20
34.75
 11
54.2498
 21
34.7325
  0
LINE
  8
0
 10
54.2498
 20
34.7325
 11
54.2494
 21
34.7151
  0
LINE
  8
0
 10
54.2494
 20
34.7151
 11
54.2486
 21
34.6977
  0
LINE
  8
0
 10
54.2486
 20
34.6977
 11
54.2476
 21
34.6802
  0
LINE
  8
0
 10
54.2476
 20
34.6802
 11
54.2462
 21
34.6628
  0
LINE
  8
0
 10
54.2462
 20
34.6628
 11
54.2445
 21
34.6455
  0
LINE
  8
0
 10
54.2445
 20
34.6455
 11
54.2425
 21
34.6281
  0
LINE
  8
0
 10
54.2425
 20
34.6281
 11
54.2403
 21
34.6108
  0
LINE
  8
0
 10
54.2403
 20
34.6108
 11
54.2377
 21
34.5936
  0
LINE
  8
0
 10
54.2377
 20
34.5936
 11
54.2348
 21
34.5763
  0
LINE
  8
0
 10
54.2348
 20
34.5763
 11
54.2316
 21
34.5592
  0
LINE
  8
0
 10
54.2316
 20
34.5592
 11
54.2281
 21
34.5421
  0
LINE
  8
0
 10
54.2281
 20
34.5421
 11
54.2244
 21
34.525
  0
LINE
  8
0
 10
54.2244
 20
34.525
 11
54.2203
 21
34.5081
  0
LINE
  8
0
 10
54.2203
 20
34.5081
 11
54.2159
 21
34.4912
  0
LINE
  8
0
 10
54.2159
 20
34.4912
 11
54.2113
 21
34.4743
  0
LINE
  8
0
 10
54.2113
 20
34.4743
 11
54.2063
 21
34.4576
  0
LINE
  8
0
 10
54.2063
 20
34.4576
 11
54.201
 21
34.441
  0
LINE
  8
0
 10
54.201
 20
34.441
 11
54.1955
 21
34.4244
  0
LINE
  8
0
 10
54.1955
 20
34.4244
 11
54.1897
 21
34.408
  0
LINE
  8
0
 10
54.1897
 20
34.408
 11
54.1836
 21
34.3916
  0
LINE
  8
0
 10
54.1836
 20
34.3916
 11
54.1772
 21
34.3754
  0
LINE
  8
0
 10
54.1772
 20
34.3754
 11
54.1705
 21
34.3593
  0
LINE
  8
0
 10
54.1705
 20
34.3593
 11
54.1635
 21
34.3433
  0
LINE
  8
0
 10
54.1635
 20
34.3433
 11
54.1563
 21
34.3274
  0
LINE
  8
0
 10
54.1563
 20
34.3274
 11
54.1488
 21
34.3116
  0
LINE
  8
0
 10
54.1488
 20
34.3116
 11
54.141
 21
34.296
  0
LINE
  8
0
 10
54.141
 20
34.296
 11
54.1329
 21
34.2805
  0
LINE
  8
0
 10
54.1329
 20
34.2805
 11
54.1246
 21
34.2652
  0
LINE
  8
0
 10
54.1246
 20
34.2652
 11
54.116
 21
34.25
  0
LINE
  8
0
 10
54.116
 20
34.25
 11
54.1072
 21
34.235
  0
LINE
  8
0
 10
54.1072
 20
34.235
 11
54.098
 21
34.2201
  0
LINE
  8
0
 10
54.098
 20
34.2201
 11
54.0887
 21
34.2054
  0
LINE
  8
0
 10
54.0887
 20
34.2054
 11
54.079
 21
34.1908
  0
LINE
  8
0
 10
54.079
 20
34.1908
 11
54.0692
 21
34.1764
  0
LINE
  8
0
 10
54.0692
 20
34.1764
 11
54.059
 21
34.1622
  0
LINE
  8
0
 10
54.059
 20
34.1622
 11
54.0486
 21
34.1482
  0
LINE
  8
0
 10
54.0486
 20
34.1482
 11
54.038
 21
34.1343
  0
LINE
  8
0
 10
54.038
 20
34.1343
 11
54.0271
 21
34.1207
  0
LINE
  8
0
 10
54.0271
 20
34.1207
 11
54.016
 21
34.1072
  0
LINE
  8
0
 10
54.016
 20
34.1072
 11
54.0047
 21
34.0939
  0
LINE
  8
0
 10
54.0047
 20
34.0939
 11
53.9931
 21
34.0809
  0
LINE
  8
0
 10
53.9931
 20
34.0809
 11
53.9814
 21
34.068
  0
LINE
  8
0
 10
53.9814
 20
34.068
 11
53.9693
 21
34.0553
  0
LINE
  8
0
 10
53.9693
 20
34.0553
 11
53.9571
 21
34.0429
  0
LINE
  8
0
 10
53.9571
 20
34.0429
 11
53.9447
 21
34.0307
  0
LINE
  8
0
 10
53.9447
 20
34.0307
 11
53.932
 21
34.0186
  0
LINE
  8
0
 10
53.932
 20
34.0186
 11
53.9191
 21
34.0069
  0
LINE
  8
0
 10
53.9191
 20
34.0069
 11
53.9061
 21
33.9953
  0
LINE
  8
0
 10
53.9061
 20
33.9953
 11
53.8928
 21
33.9839
  0
LINE
  8
0
 10
53.8928
 20
33.9839
 11
53.8793
 21
33.9729
  0
LINE
  8
0
 10
53.8793
 20
33.9729
 11
53.8657
 21
33.962
  0
LINE
  8
0
 10
53.8657
 20
33.962
 11
53.8518
 21
33.9514
  0
LINE
  8
0
 10
53.8518
 20
33.9514
 11
53.8378
 21
33.941
  0
LINE
  8
0
 10
53.8378
 20
33.941
 11
53.8236
 21
33.9308
  0
LINE
  8
0
 10
53.8236
 20
33.9308
 11
53.8092
 21
33.921
  0
LINE
  8
0
 10
53.8092
 20
33.921
 11
53.7946
 21
33.9113
  0
LINE
  8
0
 10
53.7946
 20
33.9113
 11
53.7799
 21
33.9019
  0
LINE
  8
0
 10
53.7799
 20
33.9019
 11
53.765
 21
33.8928
  0
LINE
  8
0
 10
53.765
 20
33.8928
 11
53.75
 21
33.884
  0
LINE
  8
0
 10
53.75
 20
33.884
 11
53.7348
 21
33.8754
  0
LINE
  8
0
 10
53.7348
 20
33.8754
 11
53.7195
 21
33.8671
  0
LINE
  8
0
 10
53.7195
 20
33.8671
 11
53.704
 21
33.859
  0
LINE
  8
0
 10
53.704
 20
33.859
 11
53.6884
 21
33.8512
  0
LINE
  8
0
 10
53.6884
 20
33.8512
 11
53.6726
 21
33.8437
  0
LINE
  8
0
 10
53.6726
 20
33.8437
 11
53.6567
 21
33.8365
  0
LINE
  8
0
 10
53.6567
 20
33.8365
 11
53.6407
 21
33.8295
  0
LINE
  8
0
 10
53.6407
 20
33.8295
 11
53.6246
 21
33.8228
  0
LINE
  8
0
 10
53.6246
 20
33.8228
 11
53.6084
 21
33.8164
  0
LINE
  8
0
 10
53.6084
 20
33.8164
 11
53.592
 21
33.8103
  0
LINE
  8
0
 10
53.592
 20
33.8103
 11
53.5756
 21
33.8045
  0
LINE
  8
0
 10
53.5756
 20
33.8045
 11
53.559
 21
33.7989
  0
LINE
  8
0
 10
53.559
 20
33.7989
 11
53.5424
 21
33.7937
  0
LINE
  8
0
 10
53.5424
 20
33.7937
 11
53.5256
 21
33.7887
  0
LINE
  8
0
 10
53.5256
 20
33.7887
 11
53.5088
 21
33.7841
  0
LINE
  8
0
 10
53.5088
 20
33.7841
 11
53.4919
 21
33.7797
  0
LINE
  8
0
 10
53.4919
 20
33.7797
 11
53.4749
 21
33.7756
  0
LINE
  8
0
 10
53.4749
 20
33.7756
 11
53.4579
 21
33.7719
  0
LINE
  8
0
 10
53.4579
 20
33.7719
 11
53.4408
 21
33.7684
  0
LINE
  8
0
 10
53.4408
 20
33.7684
 11
53.4236
 21
33.7652
  0
LINE
  8
0
 10
53.4236
 20
33.7652
 11
53.4064
 21
33.7623
  0
LINE
  8
0
 10
53.4064
 20
33.7623
 11
53.3892
 21
33.7597
  0
LINE
  8
0
 10
53.3892
 20
33.7597
 11
53.3719
 21
33.7574
  0
LINE
  8
0
 10
53.3719
 20
33.7574
 11
53.3545
 21
33.7555
  0
LINE
  8
0
 10
53.3545
 20
33.7555
 11
53.3371
 21
33.7538
  0
LINE
  8
0
 10
53.3371
 20
33.7538
 11
53.3197
 21
33.7524
  0
LINE
  8
0
 10
53.3197
 20
33.7524
 11
53.3023
 21
33.7514
  0
LINE
  8
0
 10
53.3023
 20
33.7514
 11
53.2849
 21
33.7506
  0
LINE
  8
0
 10
53.2849
 20
33.7506
 11
53.2674
 21
33.7502
  0
LINE
  8
0
 10
53.2674
 20
33.7502
 11
53.25
 21
33.75
  0
LINE
  8
0
 10
53.25
 20
33.75
 11
53.2325
 21
33.7502
  0
LINE
  8
0
 10
-3.59999
 20
21.4909
 11
-3.59999
 21
29.5091
  0
LINE
  8
0
 10
-3.59999
 20
29.5091
 11
-0.399994
 21
29.5091
  0
LINE
  8
0
 10
-0.399994
 20
29.5091
 11
-0.399994
 21
21.4909
  0
LINE
  8
0
 10
-0.399994
 20
21.4909
 11
-3.59999
 21
21.4909
  0
LINE
  8
0
 10
100.4
 20
21.4909
 11
100.4
 21
29.5091
  0
LINE
  8
0
 10
100.4
 20
29.5091
 11
103.6
 21
29.5091
  0
LINE
  8
0
 10
103.6
 20
29.5091
 11
103.6
 21
21.4909
  0
LINE
  8
0
 10
103.6
 20
21.4909
 11
100.4
 21
21.4909
  0
LINE
  8
0
 10
84.8778
 20
5.50105
 11
84.7557
 21
5.50426
  0
LINE
  8
0
 10
84.7557
 20
5.50426
 11
84.6337
 21
5.50958
  0
LINE
  8
0
 10
84.6337
 20
5.50958
 11
84.5117
 21
5.51704
  0
LINE
  8
0
 10
84.5117
 20
5.51704
 11
84.3899
 21
5.52663
  0
LINE
  8
0
 10
84.3899
 20
5.52663
 11
84.2683
 21
5.53835
  0
LINE
  8
0
 10
84.2683
 20
5.53835
 11
84.1469
 21
5.55217
  0
LINE
  8
0
 10
84.1469
 20
5.55217
 11
84.0258
 21
5.56812
  0
LINE
  8
0
 10
84.0258
 20
5.56812
 11
83.905
 21
5.58618
  0
LINE
  8
0
 10
83.905
 20
5.58618
 11
83.7845
 21
5.60634
  0
LINE
  8
0
 10
83.7845
 20
5.60634
 11
83.6643
 21
5.6286
  0
LINE
  8
0
 10
83.6643
 20
5.6286
 11
83.5446
 21
5.65295
  0
LINE
  8
0
 10
83.5446
 20
5.65295
 11
83.4253
 21
5.6794
  0
LINE
  8
0
 10
83.4253
 20
5.6794
 11
83.3065
 21
5.70792
  0
LINE
  8
0
 10
83.3065
 20
5.70792
 11
83.1883
 21
5.73851
  0
LINE
  8
0
 10
83.1883
 20
5.73851
 11
83.0705
 21
5.77116
  0
LINE
  8
0
 10
83.0705
 20
5.77116
 11
82.9534
 21
5.80586
  0
LINE
  8
0
 10
82.9534
 20
5.80586
 11
82.8369
 21
5.84259
  0
LINE
  8
0
 10
82.8369
 20
5.84259
 11
82.721
 21
5.88136
  0
LINE
  8
0
 10
82.721
 20
5.88136
 11
82.6059
 21
5.92215
  0
LINE
  8
0
 10
82.6059
 20
5.92215
 11
82.4914
 21
5.96494
  0
LINE
  8
0
 10
82.4914
 20
5.96494
 11
82.3777
 21
6.0097
  0
LINE
  8
0
 10
82.3777
 20
6.0097
 11
82.2649
 21
6.05646
  0
LINE
  8
0
 10
82.2649
 20
6.05646
 11
82.1528
 21
6.10518
  0
LINE
  8
0
 10
82.1528
 20
6.10518
 11
82.0417
 21
6.15584
  0
LINE
  8
0
 10
82.0417
 20
6.15584
 11
81.9314
 21
6.20844
  0
LINE
  8
0
 10
81.9314
 20
6.20844
 11
81.8221
 21
6.26295
  0
LINE
  8
0
 10
81.8221
 20
6.26295
 11
81.7137
 21
6.31937
  0
LINE
  8
0
 10
81.7137
 20
6.31937
 11
81.6063
 21
6.37766
  0
LINE
  8
0
 10
81.6063
 20
6.37766
 11
81.5
 21
6.43782
  0
LINE
  8
0
 10
81.5
 20
6.43782
 11
81.3947
 21
6.49982
  0
LINE
  8
0
 10
81.3947
 20
6.49982
 11
81.2906
 21
6.56366
  0
LINE
  8
0
 10
81.2906
 20
6.56366
 11
81.1875
 21
6.6293
  0
LINE
  8
0
 10
81.1875
 20
6.6293
 11
81.0856
 21
6.69673
  0
LINE
  8
0
 10
81.0856
 20
6.69673
 11
80.985
 21
6.76593
  0
LINE
  8
0
 10
80.985
 20
6.76593
 11
80.8855
 21
6.83687
  0
LINE
  8
0
 10
80.8855
 20
6.83687
 11
80.7873
 21
6.90955
  0
LINE
  8
0
 10
80.7873
 20
6.90955
 11
80.6904
 21
6.98392
  0
LINE
  8
0
 10
80.6904
 20
6.98392
 11
80.5948
 21
7.05997
  0
LINE
  8
0
 10
80.5948
 20
7.05997
 11
80.5005
 21
7.13768
  0
LINE
  8
0
 10
80.5005
 20
7.13768
 11
80.4076
 21
7.21703
  0
LINE
  8
0
 10
80.4076
 20
7.21703
 11
80.3161
 21
7.29797
  0
LINE
  8
0
 10
80.3161
 20
7.29797
 11
80.226
 21
7.38052
  0
LINE
  8
0
 10
80.226
 20
7.38052
 11
80.1374
 21
7.46461
  0
LINE
  8
0
 10
80.1374
 20
7.46461
 11
80.0502
 21
7.55025
  0
LINE
  8
0
 10
80.0502
 20
7.55025
 11
79.9646
 21
7.63739
  0
LINE
  8
0
 10
79.9646
 20
7.63739
 11
79.8805
 21
7.726
  0
LINE
  8
0
 10
79.8805
 20
7.726
 11
79.798
 21
7.81609
  0
LINE
  8
0
 10
79.798
 20
7.81609
 11
79.717
 21
7.90758
  0
LINE
  8
0
 10
79.717
 20
7.90758
 11
79.6377
 21
8.00047
  0
LINE
  8
0
 10
79.6377
 20
8.00047
 11
79.56
 21
8.09476
  0
LINE
  8
0
 10
79.56
 20
8.09476
 11
79.4839
 21
8.19037
  0
LINE
  8
0
 10
79.4839
 20
8.19037
 11
79.4095
 21
8.28729
  0
LINE
  8
0
 10
79.4095
 20
8.28729
 11
79.3369
 21
8.3855
  0
LINE
  8
0
 10
79.3369
 20
8.3855
 11
79.2659
 21
8.48495
  0
LINE
  8
0
 10
79.2659
 20
8.48495
 11
79.1967
 21
8.58565
  0
LINE
  8
0
 10
79.1967
 20
8.58565
 11
79.1293
 21
8.68752
  0
LINE
  8
0
 10
79.1293
 20
8.68752
 11
79.0637
 21
8.79056
  0
LINE
  8
0
 10
79.0637
 20
8.79056
 11
78.9998
 21
8.89473
  0
LINE
  8
0
 10
78.9998
 20
8.89473
 11
78.9378
 21
9
  0
LINE
  8
0
 10
78.9378
 20
9
 11
78.8777
 21
9.10632
  0
LINE
  8
0
 10
78.8777
 20
9.10632
 11
78.8194
 21
9.2137
  0
LINE
  8
0
 10
78.8194
 20
9.2137
 11
78.763
 21
9.32207
  0
LINE
  8
0
 10
78.763
 20
9.32207
 11
78.7084
 21
9.4314
  0
LINE
  8
0
 10
78.7084
 20
9.4314
 11
78.6558
 21
9.54167
  0
LINE
  8
0
 10
78.6558
 20
9.54167
 11
78.6052
 21
9.65283
  0
LINE
  8
0
 10
78.6052
 20
9.65283
 11
78.5565
 21
9.76488
  0
LINE
  8
0
 10
78.5565
 20
9.76488
 11
78.5097
 21
9.87775
  0
LINE
  8
0
 10
78.5097
 20
9.87775
 11
78.4649
 21
9.99142
  0
LINE
  8
0
 10
78.4649
 20
9.99142
 11
78.4221
 21
10.1059
  0
LINE
  8
0
 10
78.4221
 20
10.1059
 11
78.3814
 21
10.221
  0
LINE
  8
0
 10
78.3814
 20
10.221
 11
78.3426
 21
10.3369
  0
LINE
  8
0
 10
78.3426
 20
10.3369
 11
78.3059
 21
10.4534
  0
LINE
  8
0
 10
78.3059
 20
10.4534
 11
78.2712
 21
10.5705
  0
LINE
  8
0
 10
78.2712
 20
10.5705
 11
78.2385
 21
10.6883
  0
LINE
  8
0
 10
78.2385
 20
10.6883
 11
78.2079
 21
10.8065
  0
LINE
  8
0
 10
78.2079
 20
10.8065
 11
78.1794
 21
10.9253
  0
LINE
  8
0
 10
78.1794
 20
10.9253
 11
78.153
 21
11.0446
  0
LINE
  8
0
 10
78.153
 20
11.0446
 11
78.1286
 21
11.1643
  0
LINE
  8
0
 10
78.1286
 20
11.1643
 11
78.1063
 21
11.2845
  0
LINE
  8
0
 10
78.1063
 20
11.2845
 11
78.0862
 21
11.405
  0
LINE
  8
0
 10
78.0862
 20
11.405
 11
78.0681
 21
11.5258
  0
LINE
  8
0
 10
78.0681
 20
11.5258
 11
78.0522
 21
11.6469
  0
LINE
  8
0
 10
78.0522
 20
11.6469
 11
78.0383
 21
11.7683
  0
LINE
  8
0
 10
78.0383
 20
11.7683
 11
78.0266
 21
11.8899
  0
LINE
  8
0
 10
78.0266
 20
11.8899
 11
78.017
 21
12.0117
  0
LINE
  8
0
 10
78.017
 20
12.0117
 11
78.0096
 21
12.1336
  0
LINE
  8
0
 10
78.0096
 20
12.1336
 11
78.0043
 21
12.2557
  0
LINE
  8
0
 10
78.0043
 20
12.2557
 11
78.0011
 21
12.3778
  0
LINE
  8
0
 10
78.0011
 20
12.3778
 11
78
 21
12.5
  0
LINE
  8
0
 10
78
 20
12.5
 11
78.0011
 21
12.6222
  0
LINE
  8
0
 10
78.0011
 20
12.6222
 11
78.0043
 21
12.7443
  0
LINE
  8
0
 10
78.0043
 20
12.7443
 11
78.0096
 21
12.8663
  0
LINE
  8
0
 10
78.0096
 20
12.8663
 11
78.017
 21
12.9883
  0
LINE
  8
0
 10
78.017
 20
12.9883
 11
78.0266
 21
13.1101
  0
LINE
  8
0
 10
78.0266
 20
13.1101
 11
78.0383
 21
13.2317
  0
LINE
  8
0
 10
78.0383
 20
13.2317
 11
78.0522
 21
13.3531
  0
LINE
  8
0
 10
78.0522
 20
13.3531
 11
78.0681
 21
13.4742
  0
LINE
  8
0
 10
78.0681
 20
13.4742
 11
78.0862
 21
13.595
  0
LINE
  8
0
 10
78.0862
 20
13.595
 11
78.1063
 21
13.7155
  0
LINE
  8
0
 10
78.1063
 20
13.7155
 11
78.1286
 21
13.8357
  0
LINE
  8
0
 10
78.1286
 20
13.8357
 11
78.153
 21
13.9554
  0
LINE
  8
0
 10
78.153
 20
13.9554
 11
78.1794
 21
14.0746
  0
LINE
  8
0
 10
78.1794
 20
14.0746
 11
78.2079
 21
14.1935
  0
LINE
  8
0
 10
78.2079
 20
14.1935
 11
78.2385
 21
14.3117
  0
LINE
  8
0
 10
78.2385
 20
14.3117
 11
78.2712
 21
14.4295
  0
LINE
  8
0
 10
78.2712
 20
14.4295
 11
78.3059
 21
14.5466
  0
LINE
  8
0
 10
78.3059
 20
14.5466
 11
78.3426
 21
14.6631
  0
LINE
  8
0
 10
78.3426
 20
14.6631
 11
78.3814
 21
14.779
  0
LINE
  8
0
 10
78.3814
 20
14.779
 11
78.4221
 21
14.8941
  0
LINE
  8
0
 10
78.4221
 20
14.8941
 11
78.4649
 21
15.0086
  0
LINE
  8
0
 10
78.4649
 20
15.0086
 11
78.5097
 21
15.1222
  0
LINE
  8
0
 10
78.5097
 20
15.1222
 11
78.5565
 21
15.2351
  0
LINE
  8
0
 10
78.5565
 20
15.2351
 11
78.6052
 21
15.3472
  0
LINE
  8
0
 10
78.6052
 20
15.3472
 11
78.6558
 21
15.4583
  0
LINE
  8
0
 10
78.6558
 20
15.4583
 11
78.7084
 21
15.5686
  0
LINE
  8
0
 10
78.7084
 20
15.5686
 11
78.763
 21
15.6779
  0
LINE
  8
0
 10
78.763
 20
15.6779
 11
78.8194
 21
15.7863
  0
LINE
  8
0
 10
78.8194
 20
15.7863
 11
78.8777
 21
15.8937
  0
LINE
  8
0
 10
78.8777
 20
15.8937
 11
78.9378
 21
16
  0
LINE
  8
0
 10
78.9378
 20
16
 11
78.9998
 21
16.1053
  0
LINE
  8
0
 10
78.9998
 20
16.1053
 11
79.0637
 21
16.2094
  0
LINE
  8
0
 10
79.0637
 20
16.2094
 11
79.1293
 21
16.3125
  0
LINE
  8
0
 10
79.1293
 20
16.3125
 11
79.1967
 21
16.4143
  0
LINE
  8
0
 10
79.1967
 20
16.4143
 11
79.2659
 21
16.515
  0
LINE
  8
0
 10
79.2659
 20
16.515
 11
79.3369
 21
16.6145
  0
LINE
  8
0
 10
79.3369
 20
16.6145
 11
79.4095
 21
16.7127
  0
LINE
  8
0
 10
79.4095
 20
16.7127
 11
79.4839
 21
16.8096
  0
LINE
  8
0
 10
79.4839
 20
16.8096
 11
79.56
 21
16.9052
  0
LINE
  8
0
 10
79.56
 20
16.9052
 11
79.6377
 21
16.9995
  0
LINE
  8
0
 10
79.6377
 20
16.9995
 11
79.717
 21
17.0924
  0
LINE
  8
0
 10
79.717
 20
17.0924
 11
79.798
 21
17.1839
  0
LINE
  8
0
 10
79.798
 20
17.1839
 11
79.8805
 21
17.274
  0
LINE
  8
0
 10
79.8805
 20
17.274
 11
79.9646
 21
17.3626
  0
LINE
  8
0
 10
79.9646
 20
17.3626
 11
80.0502
 21
17.4497
  0
LINE
  8
0
 10
80.0502
 20
17.4497
 11
80.1374
 21
17.5354
  0
LINE
  8
0
 10
80.1374
 20
17.5354
 11
80.226
 21
17.6195
  0
LINE
  8
0
 10
80.226
 20
17.6195
 11
80.3161
 21
17.702
  0
LINE
  8
0
 10
80.3161
 20
17.702
 11
80.4076
 21
17.783
  0
LINE
  8
0
 10
80.4076
 20
17.783
 11
80.5005
 21
17.8623
  0
LINE
  8
0
 10
80.5005
 20
17.8623
 11
80.5948
 21
17.94
  0
LINE
  8
0
 10
80.5948
 20
17.94
 11
80.6904
 21
18.0161
  0
LINE
  8
0
 10
80.6904
 20
18.0161
 11
80.7873
 21
18.0904
  0
LINE
  8
0
 10
80.7873
 20
18.0904
 11
80.8855
 21
18.1631
  0
LINE
  8
0
 10
80.8855
 20
18.1631
 11
80.985
 21
18.2341
  0
LINE
  8
0
 10
80.985
 20
18.2341
 11
81.0856
 21
18.3033
  0
LINE
  8
0
 10
81.0856
 20
18.3033
 11
81.1875
 21
18.3707
  0
LINE
  8
0
 10
81.1875
 20
18.3707
 11
81.2906
 21
18.4363
  0
LINE
  8
0
 10
81.2906
 20
18.4363
 11
81.3947
 21
18.5002
  0
LINE
  8
0
 10
81.3947
 20
18.5002
 11
81.5
 21
18.5622
  0
LINE
  8
0
 10
81.5
 20
18.5622
 11
81.6063
 21
18.6223
  0
LINE
  8
0
 10
81.6063
 20
18.6223
 11
81.7137
 21
18.6806
  0
LINE
  8
0
 10
81.7137
 20
18.6806
 11
81.8221
 21
18.737
  0
LINE
  8
0
 10
81.8221
 20
18.737
 11
81.9314
 21
18.7915
  0
LINE
  8
0
 10
81.9314
 20
18.7915
 11
82.0417
 21
18.8441
  0
LINE
  8
0
 10
82.0417
 20
18.8441
 11
82.1528
 21
18.8948
  0
LINE
  8
0
 10
82.1528
 20
18.8948
 11
82.2649
 21
18.9435
  0
LINE
  8
0
 10
82.2649
 20
18.9435
 11
82.3777
 21
18.9903
  0
LINE
  8
0
 10
82.3777
 20
18.9903
 11
82.4914
 21
19.0351
  0
LINE
  8
0
 10
82.4914
 20
19.0351
 11
82.6059
 21
19.0778
  0
LINE
  8
0
 10
82.6059
 20
19.0778
 11
82.721
 21
19.1186
  0
LINE
  8
0
 10
82.721
 20
19.1186
 11
82.8369
 21
19.1574
  0
LINE
  8
0
 10
82.8369
 20
19.1574
 11
82.9534
 21
19.1941
  0
LINE
  8
0
 10
82.9534
 20
19.1941
 11
83.0705
 21
19.2288
  0
LINE
  8
0
 10
83.0705
 20
19.2288
 11
83.1883
 21
19.2615
  0
LINE
  8
0
 10
83.1883
 20
19.2615
 11
83.3065
 21
19.2921
  0
LINE
  8
0
 10
83.3065
 20
19.2921
 11
83.4253
 21
19.3206
  0
LINE
  8
0
 10
83.4253
 20
19.3206
 11
83.5446
 21
19.347
  0
LINE
  8
0
 10
83.5446
 20
19.347
 11
83.6643
 21
19.3714
  0
LINE
  8
0
 10
83.6643
 20
19.3714
 11
83.7845
 21
19.3936
  0
LINE
  8
0
 10
83.7845
 20
19.3936
 11
83.905
 21
19.4138
  0
LINE
  8
0
 10
83.905
 20
19.4138
 11
84.0258
 21
19.4319
  0
LINE
  8
0
 10
84.0258
 20
19.4319
 11
84.1469
 21
19.4478
  0
LINE
  8
0
 10
84.1469
 20
19.4478
 11
84.2683
 21
19.4617
  0
LINE
  8
0
 10
84.2683
 20
19.4617
 11
84.3899
 21
19.4734
  0
LINE
  8
0
 10
84.3899
 20
19.4734
 11
84.5117
 21
19.4829
  0
LINE
  8
0
 10
84.5117
 20
19.4829
 11
84.6337
 21
19.4904
  0
LINE
  8
0
 10
84.6337
 20
19.4904
 11
84.7557
 21
19.4957
  0
LINE
  8
0
 10
84.7557
 20
19.4957
 11
84.8778
 21
19.4989
  0
LINE
  8
0
 10
84.8778
 20
19.4989
 11
85
 21
19.5
  0
LINE
  8
0
 10
85
 20
19.5
 11
85.1222
 21
19.4989
  0
LINE
  8
0
 10
85.1222
 20
19.4989
 11
85.2443
 21
19.4957
  0
LINE
  8
0
 10
85.2443
 20
19.4957
 11
85.3663
 21
19.4904
  0
LINE
  8
0
 10
85.3663
 20
19.4904
 11
85.4883
 21
19.4829
  0
LINE
  8
0
 10
85.4883
 20
19.4829
 11
85.6101
 21
19.4734
  0
LINE
  8
0
 10
85.6101
 20
19.4734
 11
85.7317
 21
19.4617
  0
LINE
  8
0
 10
85.7317
 20
19.4617
 11
85.8531
 21
19.4478
  0
LINE
  8
0
 10
85.8531
 20
19.4478
 11
85.9742
 21
19.4319
  0
LINE
  8
0
 10
85.9742
 20
19.4319
 11
86.095
 21
19.4138
  0
LINE
  8
0
 10
86.095
 20
19.4138
 11
86.2155
 21
19.3936
  0
LINE
  8
0
 10
86.2155
 20
19.3936
 11
86.3357
 21
19.3714
  0
LINE
  8
0
 10
86.3357
 20
19.3714
 11
86.4554
 21
19.347
  0
LINE
  8
0
 10
86.4554
 20
19.347
 11
86.5746
 21
19.3206
  0
LINE
  8
0
 10
86.5746
 20
19.3206
 11
86.6935
 21
19.2921
  0
LINE
  8
0
 10
86.6935
 20
19.2921
 11
86.8117
 21
19.2615
  0
LINE
  8
0
 10
86.8117
 20
19.2615
 11
86.9295
 21
19.2288
  0
LINE
  8
0
 10
86.9295
 20
19.2288
 11
87.0466
 21
19.1941
  0
LINE
  8
0
 10
87.0466
 20
19.1941
 11
87.1631
 21
19.1574
  0
LINE
  8
0
 10
87.1631
 20
19.1574
 11
87.279
 21
19.1186
  0
LINE
  8
0
 10
87.279
 20
19.1186
 11
87.3941
 21
19.0778
  0
LINE
  8
0
 10
87.3941
 20
19.0778
 11
87.5086
 21
19.0351
  0
LINE
  8
0
 10
87.5086
 20
19.0351
 11
87.6222
 21
18.9903
  0
LINE
  8
0
 10
87.6222
 20
18.9903
 11
87.7351
 21
18.9435
  0
LINE
  8
0
 10
87.7351
 20
18.9435
 11
87.8472
 21
18.8948
  0
LINE
  8
0
 10
87.8472
 20
18.8948
 11
87.9583
 21
18.8441
  0
LINE
  8
0
 10
87.9583
 20
18.8441
 11
88.0686
 21
18.7915
  0
LINE
  8
0
 10
88.0686
 20
18.7915
 11
88.1779
 21
18.737
  0
LINE
  8
0
 10
88.1779
 20
18.737
 11
88.2863
 21
18.6806
  0
LINE
  8
0
 10
88.2863
 20
18.6806
 11
88.3937
 21
18.6223
  0
LINE
  8
0
 10
88.3937
 20
18.6223
 11
88.5
 21
18.5622
  0
LINE
  8
0
 10
88.5
 20
18.5622
 11
88.6053
 21
18.5002
  0
LINE
  8
0
 10
88.6053
 20
18.5002
 11
88.7094
 21
18.4363
  0
LINE
  8
0
 10
88.7094
 20
18.4363
 11
88.8125
 21
18.3707
  0
LINE
  8
0
 10
88.8125
 20
18.3707
 11
88.9144
 21
18.3033
  0
LINE
  8
0
 10
88.9144
 20
18.3033
 11
89.015
 21
18.2341
  0
LINE
  8
0
 10
89.015
 20
18.2341
 11
89.1145
 21
18.1631
  0
LINE
  8
0
 10
89.1145
 20
18.1631
 11
89.2127
 21
18.0904
  0
LINE
  8
0
 10
89.2127
 20
18.0904
 11
89.3096
 21
18.0161
  0
LINE
  8
0
 10
89.3096
 20
18.0161
 11
89.4052
 21
17.94
  0
LINE
  8
0
 10
89.4052
 20
17.94
 11
89.4995
 21
17.8623
  0
LINE
  8
0
 10
89.4995
 20
17.8623
 11
89.5924
 21
17.783
  0
LINE
  8
0
 10
89.5924
 20
17.783
 11
89.6839
 21
17.702
  0
LINE
  8
0
 10
89.6839
 20
17.702
 11
89.774
 21
17.6195
  0
LINE
  8
0
 10
89.774
 20
17.6195
 11
89.8626
 21
17.5354
  0
LINE
  8
0
 10
89.8626
 20
17.5354
 11
89.9497
 21
17.4497
  0
LINE
  8
0
 10
89.9497
 20
17.4497
 11
90.0354
 21
17.3626
  0
LINE
  8
0
 10
90.0354
 20
17.3626
 11
90.1195
 21
17.274
  0
LINE
  8
0
 10
90.1195
 20
17.274
 11
90.202
 21
17.1839
  0
LINE
  8
0
 10
90.202
 20
17.1839
 11
90.283
 21
17.0924
  0
LINE
  8
0
 10
90.283
 20
17.0924
 11
90.3623
 21
16.9995
  0
LINE
  8
0
 10
90.3623
 20
16.9995
 11
90.44
 21
16.9052
  0
LINE
  8
0
 10
90.44
 20
16.9052
 11
90.5161
 21
16.8096
  0
LINE
  8
0
 10
90.5161
 20
16.8096
 11
90.5904
 21
16.7127
  0
LINE
  8
0
 10
90.5904
 20
16.7127
 11
90.6631
 21
16.6145
  0
LINE
  8
0
 10
90.6631
 20
16.6145
 11
90.7341
 21
16.515
  0
LINE
  8
0
 10
90.7341
 20
16.515
 11
90.8033
 21
16.4143
  0
LINE
  8
0
 10
90.8033
 20
16.4143
 11
90.8707
 21
16.3125
  0
LINE
  8
0
 10
90.8707
 20
16.3125
 11
90.9363
 21
16.2094
  0
LINE
  8
0
 10
90.9363
 20
16.2094
 11
91.0002
 21
16.1053
  0
LINE
  8
0
 10
91.0002
 20
16.1053
 11
91.0622
 21
16
  0
LINE
  8
0
 10
91.0622
 20
16
 11
91.1223
 21
15.8937
  0
LINE
  8
0
 10
91.1223
 20
15.8937
 11
91.1806
 21
15.7863
  0
LINE
  8
0
 10
91.1806
 20
15.7863
 11
91.237
 21
15.6779
  0
LINE
  8
0
 10
91.237
 20
15.6779
 11
91.2915
 21
15.5686
  0
LINE
  8
0
 10
91.2915
 20
15.5686
 11
91.3441
 21
15.4583
  0
LINE
  8
0
 10
91.3441
 20
15.4583
 11
91.3948
 21
15.3472
  0
LINE
  8
0
 10
91.3948
 20
15.3472
 11
91.4435
 21
15.2351
  0
LINE
  8
0
 10
91.4435
 20
15.2351
 11
91.4903
 21
15.1222
  0
LINE
  8
0
 10
91.4903
 20
15.1222
 11
91.5351
 21
15.0086
  0
LINE
  8
0
 10
91.5351
 20
15.0086
 11
91.5779
 21
14.8941
  0
LINE
  8
0
 10
91.5779
 20
14.8941
 11
91.6186
 21
14.779
  0
LINE
  8
0
 10
91.6186
 20
14.779
 11
91.6574
 21
14.6631
  0
LINE
  8
0
 10
91.6574
 20
14.6631
 11
91.6941
 21
14.5466
  0
LINE
  8
0
 10
91.6941
 20
14.5466
 11
91.7288
 21
14.4295
  0
LINE
  8
0
 10
91.7288
 20
14.4295
 11
91.7615
 21
14.3117
  0
LINE
  8
0
 10
91.7615
 20
14.3117
 11
91.7921
 21
14.1935
  0
LINE
  8
0
 10
91.7921
 20
14.1935
 11
91.8206
 21
14.0746
  0
LINE
  8
0
 10
91.8206
 20
14.0746
 11
91.847
 21
13.9554
  0
LINE
  8
0
 10
91.847
 20
13.9554
 11
91.8714
 21
13.8357
  0
LINE
  8
0
 10
91.8714
 20
13.8357
 11
91.8936
 21
13.7155
  0
LINE
  8
0
 10
91.8936
 20
13.7155
 11
91.9138
 21
13.595
  0
LINE
  8
0
 10
91.9138
 20
13.595
 11
91.9319
 21
13.4742
  0
LINE
  8
0
 10
91.9319
 20
13.4742
 11
91.9478
 21
13.3531
  0
LINE
  8
0
 10
91.9478
 20
13.3531
 11
91.9617
 21
13.2317
  0
LINE
  8
0
 10
91.9617
 20
13.2317
 11
91.9734
 21
13.1101
  0
LINE
  8
0
 10
91.9734
 20
13.1101
 11
91.9829
 21
12.9883
  0
LINE
  8
0
 10
91.9829
 20
12.9883
 11
91.9904
 21
12.8663
  0
LINE
  8
0
 10
91.9904
 20
12.8663
 11
91.9957
 21
12.7443
  0
LINE
  8
0
 10
91.9957
 20
12.7443
 11
91.9989
 21
12.6222
  0
LINE
  8
0
 10
91.9989
 20
12.6222
 11
92
 21
12.5
  0
LINE
  8
0
 10
92
 20
12.5
 11
91.9989
 21
12.3778
  0
LINE
  8
0
 10
91.9989
 20
12.3778
 11
91.9957
 21
12.2557
  0
LINE
  8
0
 10
91.9957
 20
12.2557
 11
91.9904
 21
12.1336
  0
LINE
  8
0
 10
91.9904
 20
12.1336
 11
91.9829
 21
12.0117
  0
LINE
  8
0
 10
91.9829
 20
12.0117
 11
91.9734
 21
11.8899
  0
LINE
  8
0
 10
91.9734
 20
11.8899
 11
91.9617
 21
11.7683
  0
LINE
  8
0
 10
91.9617
 20
11.7683
 11
91.9478
 21
11.6469
  0
LINE
  8
0
 10
91.9478
 20
11.6469
 11
91.9319
 21
11.5258
  0
LINE
  8
0
 10
91.9319
 20
11.5258
 11
91.9138
 21
11.405
  0
LINE
  8
0
 10
91.9138
 20
11.405
 11
91.8936
 21
11.2845
  0
LINE
  8
0
 10
91.8936
 20
11.2845
 11
91.8714
 21
11.1643
  0
LINE
  8
0
 10
91.8714
 20
11.1643
 11
91.847
 21
11.0446
  0
LINE
  8
0
 10
91.847
 20
11.0446
 11
91.8206
 21
10.9253
  0
LINE
  8
0
 10
91.8206
 20
10.9253
 11
91.7921
 21
10.8065
  0
LINE
  8
0
 10
91.7921
 20
10.8065
 11
91.7615
 21
10.6883
  0
LINE
  8
0
 10
91.7615
 20
10.6883
 11
91.7288
 21
10.5705
  0
LINE
  8
0
 10
91.7288
 20
10.5705
 11
91.6941
 21
10.4534
  0
LINE
  8
0
 10
91.6941
 20
10.4534
 11
91.6574
 21
10.3369
  0
LINE
  8
0
 10
91.6574
 20
10.3369
 11
91.6186
 21
10.221
  0
LINE
  8
0
 10
91.6186
 20
10.221
 11
91.5779
 21
10.1059
  0
LINE
  8
0
 10
91.5779
 20
10.1059
 11
91.5351
 21
9.99142
  0
LINE
  8
0
 10
91.5351
 20
9.99142
 11
91.4903
 21
9.87775
  0
LINE
  8
0
 10
91.4903
 20
9.87775
 11
91.4435
 21
9.76488
  0
LINE
  8
0
 10
91.4435
 20
9.76488
 11
91.3948
 21
9.65283
  0
LINE
  8
0
 10
91.3948
 20
9.65283
 11
91.3441
 21
9.54167
  0
LINE
  8
0
 10
91.3441
 20
9.54167
 11
91.2915
 21
9.4314
  0
LINE
  8
0
 10
91.2915
 20
9.4314
 11
91.237
 21
9.32207
  0
LINE
  8
0
 10
91.237
 20
9.32207
 11
91.1806
 21
9.2137
  0
LINE
  8
0
 10
91.1806
 20
9.2137
 11
91.1223
 21
9.10632
  0
LINE
  8
0
 10
91.1223
 20
9.10632
 11
91.0622
 21
9
  0
LINE
  8
0
 10
91.0622
 20
9
 11
91.0002
 21
8.89473
  0
LINE
  8
0
 10
91.0002
 20
8.89473
 11
90.9363
 21
8.79056
  0
LINE
  8
0
 10
90.9363
 20
8.79056
 11
90.8707
 21
8.68752
  0
LINE
  8
0
 10
90.8707
 20
8.68752
 11
90.8033
 21
8.58565
  0
LINE
  8
0
 10
90.8033
 20
8.58565
 11
90.7341
 21
8.48495
  0
LINE
  8
0
 10
90.7341
 20
8.48495
 11
90.6631
 21
8.3855
  0
LINE
  8
0
 10
90.6631
 20
8.3855
 11
90.5904
 21
8.28729
  0
LINE
  8
0
 10
90.5904
 20
8.28729
 11
90.5161
 21
8.19037
  0
LINE
  8
0
 10
90.5161
 20
8.19037
 11
90.44
 21
8.09476
  0
LINE
  8
0
 10
90.44
 20
8.09476
 11
90.3623
 21
8.00047
  0
LINE
  8
0
 10
90.3623
 20
8.00047
 11
90.283
 21
7.90758
  0
LINE
  8
0
 10
90.283
 20
7.90758
 11
90.202
 21
7.81609
  0
LINE
  8
0
 10
90.202
 20
7.81609
 11
90.1195
 21
7.726
  0
LINE
  8
0
 10
90.1195
 20
7.726
 11
90.0354
 21
7.63739
  0
LINE
  8
0
 10
90.0354
 20
7.63739
 11
89.9497
 21
7.55025
  0
LINE
  8
0
 10
89.9497
 20
7.55025
 11
89.8626
 21
7.46461
  0
LINE
  8
0
 10
89.8626
 20
7.46461
 11
89.774
 21
7.38052
  0
LINE
  8
0
 10
89.774
 20
7.38052
 11
89.6839
 21
7.29797
  0
LINE
  8
0
 10
89.6839
 20
7.29797
 11
89.5924
 21
7.21703
  0
LINE
  8
0
 10
89.5924
 20
7.21703
 11
89.4995
 21
7.13768
  0
LINE
  8
0
 10
89.4995
 20
7.13768
 11
89.4052
 21
7.05997
  0
LINE
  8
0
 10
89.4052
 20
7.05997
 11
89.3096
 21
6.98392
  0
LINE
  8
0
 10
89.3096
 20
6.98392
 11
89.2127
 21
6.90955
  0
LINE
  8
0
 10
89.2127
 20
6.90955
 11
89.1145
 21
6.83687
  0
LINE
  8
0
 10
89.1145
 20
6.83687
 11
89.015
 21
6.76593
  0
LINE
  8
0
 10
89.015
 20
6.76593
 11
88.9144
 21
6.69673
  0
LINE
  8
0
 10
88.9144
 20
6.69673
 11
88.8125
 21
6.6293
  0
LINE
  8
0
 10
88.8125
 20
6.6293
 11
88.7094
 21
6.56366
  0
LINE
  8
0
 10
88.7094
 20
6.56366
 11
88.6053
 21
6.49982
  0
LINE
  8
0
 10
88.6053
 20
6.49982
 11
88.5
 21
6.43782
  0
LINE
  8
0
 10
88.5
 20
6.43782
 11
88.3937
 21
6.37766
  0
LINE
  8
0
 10
88.3937
 20
6.37766
 11
88.2863
 21
6.31937
  0
LINE
  8
0
 10
88.2863
 20
6.31937
 11
88.1779
 21
6.26295
  0
LINE
  8
0
 10
88.1779
 20
6.26295
 11
88.0686
 21
6.20844
  0
LINE
  8
0
 10
88.0686
 20
6.20844
 11
87.9583
 21
6.15584
  0
LINE
  8
0
 10
87.9583
 20
6.15584
 11
87.8472
 21
6.10518
  0
LINE
  8
0
 10
87.8472
 20
6.10518
 11
87.7351
 21
6.05646
  0
LINE
  8
0
 10
87.7351
 20
6.05646
 11
87.6222
 21
6.0097
  0
LINE
  8
0
 10
87.6222
 20
6.0097
 11
87.5086
 21
5.96494
  0
LINE
  8
0
 10
87.5086
 20
5.96494
 11
87.3941
 21
5.92215
  0
LINE
  8
0
 10
87.3941
 20
5.92215
 11
87.279
 21
5.88136
  0
LINE
  8
0
 10
87.279
 20
5.88136
 11
87.1631
 21
5.84259
  0
LINE
  8
0
 10
87.1631
 20
5.84259
 11
87.0466
 21
5.80586
  0
LINE
  8
0
 10
87.0466
 20
5.80586
 11
86.9295
 21
5.77116
  0
LINE
  8
0
 10
86.9295
 20
5.77116
 11
86.8117
 21
5.73851
  0
LINE
  8
0
 10
86.8117
 20
5.73851
 11
86.6935
 21
5.70792
  0
LINE
  8
0
 10
86.6935
 20
5.70792
 11
86.5746
 21
5.6794
  0
LINE
  8
0
 10
86.5746
 20
5.6794
 11
86.4554
 21
5.65295
  0
LINE
  8
0
 10
86.4554
 20
5.65295
 11
86.3357
 21
5.6286
  0
LINE
  8
0
 10
86.3357
 20
5.6286
 11
86.2155
 21
5.60634
  0
LINE
  8
0
 10
86.2155
 20
5.60634
 11
86.095
 21
5.58618
  0
LINE
  8
0
 10
86.095
 20
5.58618
 11
85.9742
 21
5.56812
  0
LINE
  8
0
 10
85.9742
 20
5.56812
 11
85.8531
 21
5.55217
  0
LINE
  8
0
 10
85.8531
 20
5.55217
 11
85.7317
 21
5.53835
  0
LINE
  8
0
 10
85.7317
 20
5.53835
 11
85.6101
 21
5.52663
  0
LINE
  8
0
 10
85.6101
 20
5.52663
 11
85.4883
 21
5.51704
  0
LINE
  8
0
 10
85.4883
 20
5.51704
 11
85.3663
 21
5.50958
  0
LINE
  8
0
 10
85.3663
 20
5.50958
 11
85.2443
 21
5.50426
  0
LINE
  8
0
 10
85.2443
 20
5.50426
 11
85.1222
 21
5.50105
  0
LINE
  8
0
 10
85.1222
 20
5.50105
 11
85
 21
5.5
  0
LINE
  8
0
 10
85
 20
5.5
 11
84.8778
 21
5.50105
  0
LINE
  8
0
 10
-3.59999
 20
4.76363
 11
-3.59999
 21
12.7818
  0
LINE
  8
0
 10
-3.59999
 20
12.7818
 11
-0.399994
 21
12.7818
  0
LINE
  8
0
 10
-0.399994
 20
12.7818
 11
-0.399994
 21
4.76363
  0
LINE
  8
0
 10
-0.399994
 20
4.76363
 11
-3.59999
 21
4.76363
  0
LINE
  8
0
 10
100.4
 20
4.76363
 11
100.4
 21
12.7818
  0
LINE
  8
0
 10
100.4
 20
12.7818
 11
103.6
 21
12.7818
  0
LINE
  8
0
 10
103.6
 20
12.7818
 11
103.6
 21
4.76363
  0
LINE
  8
0
 10
103.6
 20
4.76363
 11
100.4
 21
4.76363
  0
LINE
  8
0
 10
0.732544
 20
4.25015
 11
0.715088
 21
4.2506
  0
LINE
  8
0
 10
0.715088
 20
4.2506
 11
0.697662
 21
4.25136
  0
LINE
  8
0
 10
0.697662
 20
4.25136
 11
0.680237
 21
4.25243
  0
LINE
  8
0
 10
0.680237
 20
4.25243
 11
0.662842
 21
4.2538
  0
LINE
  8
0
 10
0.662842
 20
4.2538
 11
0.645462
 21
4.25548
  0
LINE
  8
0
 10
0.645462
 20
4.25548
 11
0.628128
 21
4.25745
  0
LINE
  8
0
 10
0.628128
 20
4.25745
 11
0.610825
 21
4.25972
  0
LINE
  8
0
 10
0.610825
 20
4.25972
 11
0.593552
 21
4.2623
  0
LINE
  8
0
 10
0.593552
 20
4.2623
 11
0.57634
 21
4.26518
  0
LINE
  8
0
 10
0.57634
 20
4.26518
 11
0.559189
 21
4.26837
  0
LINE
  8
0
 10
0.559189
 20
4.26837
 11
0.542084
 21
4.27185
  0
LINE
  8
0
 10
0.542084
 20
4.27185
 11
0.52504
 21
4.27562
  0
LINE
  8
0
 10
0.52504
 20
4.27562
 11
0.508072
 21
4.27969
  0
LINE
  8
0
 10
0.508072
 20
4.27969
 11
0.49118
 21
4.28407
  0
LINE
  8
0
 10
0.49118
 20
4.28407
 11
0.47435
 21
4.28873
  0
LINE
  8
0
 10
0.47435
 20
4.28873
 11
0.457626
 21
4.29369
  0
LINE
  8
0
 10
0.457626
 20
4.29369
 11
0.440979
 21
4.29893
  0
LINE
  8
0
 10
0.440979
 20
4.29893
 11
0.424423
 21
4.30447
  0
LINE
  8
0
 10
0.424423
 20
4.30447
 11
0.407974
 21
4.3103
  0
LINE
  8
0
 10
0.407974
 20
4.3103
 11
0.391632
 21
4.31641
  0
LINE
  8
0
 10
0.391632
 20
4.31641
 11
0.375381
 21
4.32281
  0
LINE
  8
0
 10
0.375381
 20
4.32281
 11
0.359268
 21
4.32948
  0
LINE
  8
0
 10
0.359268
 20
4.32948
 11
0.343262
 21
4.33644
  0
LINE
  8
0
 10
0.343262
 20
4.33644
 11
0.327377
 21
4.34369
  0
LINE
  8
0
 10
0.327377
 20
4.34369
 11
0.311615
 21
4.3512
  0
LINE
  8
0
 10
0.311615
 20
4.3512
 11
0.296005
 21
4.35899
  0
LINE
  8
0
 10
0.296005
 20
4.35899
 11
0.280518
 21
4.36705
  0
LINE
  8
0
 10
0.280518
 20
4.36705
 11
0.265182
 21
4.37537
  0
LINE
  8
0
 10
0.265182
 20
4.37537
 11
0.25
 21
4.38397
  0
LINE
  8
0
 10
0.25
 20
4.38397
 11
0.234955
 21
4.39282
  0
LINE
  8
0
 10
0.234955
 20
4.39282
 11
0.220078
 21
4.40195
  0
LINE
  8
0
 10
0.220078
 20
4.40195
 11
0.205353
 21
4.41132
  0
LINE
  8
0
 10
0.205353
 20
4.41132
 11
0.190796
 21
4.42096
  0
LINE
  8
0
 10
0.190796
 20
4.42096
 11
0.176422
 21
4.43085
  0
LINE
  8
0
 10
0.176422
 20
4.43085
 11
0.162201
 21
4.44098
  0
LINE
  8
0
 10
0.162201
 20
4.44098
 11
0.148178
 21
4.45135
  0
LINE
  8
0
 10
0.148178
 20
4.45135
 11
0.134338
 21
4.46198
  0
LINE
  8
0
 10
0.134338
 20
4.46198
 11
0.120667
 21
4.47285
  0
LINE
  8
0
 10
0.120667
 20
4.47285
 11
0.107208
 21
4.48395
  0
LINE
  8
0
 10
0.107208
 20
4.48395
 11
0.0939331
 21
4.49529
  0
LINE
  8
0
 10
0.0939331
 20
4.49529
 11
0.0808563
 21
4.50685
  0
LINE
  8
0
 10
0.0808563
 20
4.50685
 11
0.0679932
 21
4.51865
  0
LINE
  8
0
 10
0.0679932
 20
4.51865
 11
0.0553284
 21
4.53065
  0
LINE
  8
0
 10
0.0553284
 20
4.53065
 11
0.0428925
 21
4.54289
  0
LINE
  8
0
 10
0.0428925
 20
4.54289
 11
0.0306549
 21
4.55533
  0
LINE
  8
0
 10
0.0306549
 20
4.55533
 11
0.0186462
 21
4.56799
  0
LINE
  8
0
 10
0.0186462
 20
4.56799
 11
0.0068512
 21
4.58086
  0
LINE
  8
0
 10
0.0068512
 20
4.58086
 11
-0.00469971
 21
4.59393
  0
LINE
  8
0
 10
-0.00469971
 20
4.59393
 11
-0.016037
 21
4.60721
  0
LINE
  8
0
 10
-0.016037
 20
4.60721
 11
-0.0271454
 21
4.62067
  0
LINE
  8
0
 10
-0.0271454
 20
4.62067
 11
-0.0380096
 21
4.63434
  0
LINE
  8
0
 10
-0.0380096
 20
4.63434
 11
-0.0486298
 21
4.64818
  0
LINE
  8
0
 10
-0.0486298
 20
4.64818
 11
-0.0590057
 21
4.6622
  0
LINE
  8
0
 10
-0.0590057
 20
4.6622
 11
-0.0691376
 21
4.67642
  0
LINE
  8
0
 10
-0.0691376
 20
4.67642
 11
-0.0790253
 21
4.6908
  0
LINE
  8
0
 10
-0.0790253
 20
4.6908
 11
-0.0886688
 21
4.70535
  0
LINE
  8
0
 10
-0.0886688
 20
4.70535
 11
-0.0980377
 21
4.72008
  0
LINE
  8
0
 10
-0.0980377
 20
4.72008
 11
-0.107162
 21
4.73495
  0
LINE
  8
0
 10
-0.107162
 20
4.73495
 11
-0.116013
 21
4.75
  0
LINE
  8
0
 10
-0.116013
 20
4.75
 11
-0.124619
 21
4.76518
  0
LINE
  8
0
 10
-0.124619
 20
4.76518
 11
-0.132935
 21
4.78052
  0
LINE
  8
0
 10
-0.132935
 20
4.78052
 11
-0.141006
 21
4.79601
  0
LINE
  8
0
 10
-0.141006
 20
4.79601
 11
-0.148788
 21
4.81161
  0
LINE
  8
0
 10
-0.148788
 20
4.81161
 11
-0.156296
 21
4.82738
  0
LINE
  8
0
 10
-0.156296
 20
4.82738
 11
-0.163544
 21
4.84326
  0
LINE
  8
0
 10
-0.163544
 20
4.84326
 11
-0.170502
 21
4.85927
  0
LINE
  8
0
 10
-0.170502
 20
4.85927
 11
-0.17717
 21
4.87538
  0
LINE
  8
0
 10
-0.17717
 20
4.87538
 11
-0.183578
 21
4.89163
  0
LINE
  8
0
 10
-0.183578
 20
4.89163
 11
-0.189682
 21
4.90797
  0
LINE
  8
0
 10
-0.189682
 20
4.90797
 11
-0.195511
 21
4.92442
  0
LINE
  8
0
 10
-0.195511
 20
4.92442
 11
-0.20105
 21
4.94098
  0
LINE
  8
0
 10
-0.20105
 20
4.94098
 11
-0.206299
 21
4.95763
  0
LINE
  8
0
 10
-0.206299
 20
4.95763
 11
-0.211258
 21
4.97435
  0
LINE
  8
0
 10
-0.211258
 20
4.97435
 11
-0.215912
 21
4.99118
  0
LINE
  8
0
 10
-0.215912
 20
4.99118
 11
-0.220291
 21
5.00807
  0
LINE
  8
0
 10
-0.220291
 20
5.00807
 11
-0.224365
 21
5.02504
  0
LINE
  8
0
 10
-0.224365
 20
5.02504
 11
-0.228134
 21
5.04208
  0
LINE
  8
0
 10
-0.228134
 20
5.04208
 11
-0.231613
 21
5.05919
  0
LINE
  8
0
 10
-0.231613
 20
5.05919
 11
-0.234802
 21
5.07634
  0
LINE
  8
0
 10
-0.234802
 20
5.07634
 11
-0.237686
 21
5.09355
  0
LINE
  8
0
 10
-0.237686
 20
5.09355
 11
-0.240265
 21
5.11082
  0
LINE
  8
0
 10
-0.240265
 20
5.11082
 11
-0.242538
 21
5.12813
  0
LINE
  8
0
 10
-0.242538
 20
5.12813
 11
-0.244507
 21
5.14546
  0
LINE
  8
0
 10
-0.244507
 20
5.14546
 11
-0.246185
 21
5.16284
  0
LINE
  8
0
 10
-0.246185
 20
5.16284
 11
-0.247559
 21
5.18024
  0
LINE
  8
0
 10
-0.247559
 20
5.18024
 11
-0.248627
 21
5.19766
  0
LINE
  8
0
 10
-0.248627
 20
5.19766
 11
-0.24939
 21
5.21509
  0
LINE
  8
0
 10
-0.24939
 20
5.21509
 11
-0.249847
 21
5.23254
  0
LINE
  8
0
 10
-0.249847
 20
5.23254
 11
-0.25
 21
5.25
  0
LINE
  8
0
 10
-0.25
 20
5.25
 11
-0.249847
 21
5.26744
  0
LINE
  8
0
 10
-0.249847
 20
5.26744
 11
-0.24939
 21
5.2849
  0
LINE
  8
0
 10
-0.24939
 20
5.2849
 11
-0.248627
 21
5.30232
  0
LINE
  8
0
 10
-0.248627
 20
5.30232
 11
-0.247559
 21
5.31975
  0
LINE
  8
0
 10
-0.247559
 20
5.31975
 11
-0.246185
 21
5.33714
  0
LINE
  8
0
 10
-0.246185
 20
5.33714
 11
-0.244507
 21
5.35452
  0
LINE
  8
0
 10
-0.244507
 20
5.35452
 11
-0.242538
 21
5.37186
  0
LINE
  8
0
 10
-0.242538
 20
5.37186
 11
-0.240265
 21
5.38916
  0
LINE
  8
0
 10
-0.240265
 20
5.38916
 11
-0.237686
 21
5.40643
  0
LINE
  8
0
 10
-0.237686
 20
5.40643
 11
-0.234802
 21
5.42365
  0
LINE
  8
0
 10
-0.234802
 20
5.42365
 11
-0.231613
 21
5.4408
  0
LINE
  8
0
 10
-0.231613
 20
5.4408
 11
-0.228134
 21
5.4579
  0
LINE
  8
0
 10
-0.228134
 20
5.4579
 11
-0.224365
 21
5.47495
  0
LINE
  8
0
 10
-0.224365
 20
5.47495
 11
-0.220291
 21
5.49191
  0
LINE
  8
0
 10
-0.220291
 20
5.49191
 11
-0.215912
 21
5.50882
  0
LINE
  8
0
 10
-0.215912
 20
5.50882
 11
-0.211258
 21
5.52563
  0
LINE
  8
0
 10
-0.211258
 20
5.52563
 11
-0.206299
 21
5.54236
  0
LINE
  8
0
 10
-0.206299
 20
5.54236
 11
-0.20105
 21
5.55901
  0
LINE
  8
0
 10
-0.20105
 20
5.55901
 11
-0.195511
 21
5.57556
  0
LINE
  8
0
 10
-0.195511
 20
5.57556
 11
-0.189682
 21
5.59201
  0
LINE
  8
0
 10
-0.189682
 20
5.59201
 11
-0.183578
 21
5.60837
  0
LINE
  8
0
 10
-0.183578
 20
5.60837
 11
-0.17717
 21
5.6246
  0
LINE
  8
0
 10
-0.17717
 20
5.6246
 11
-0.170502
 21
5.64073
  0
LINE
  8
0
 10
-0.170502
 20
5.64073
 11
-0.163544
 21
5.65672
  0
LINE
  8
0
 10
-0.163544
 20
5.65672
 11
-0.156296
 21
5.67261
  0
LINE
  8
0
 10
-0.156296
 20
5.67261
 11
-0.148788
 21
5.68837
  0
LINE
  8
0
 10
-0.148788
 20
5.68837
 11
-0.141006
 21
5.70398
  0
LINE
  8
0
 10
-0.141006
 20
5.70398
 11
-0.132935
 21
5.71947
  0
LINE
  8
0
 10
-0.132935
 20
5.71947
 11
-0.124619
 21
5.7348
  0
LINE
  8
0
 10
-0.124619
 20
5.7348
 11
-0.116013
 21
5.75
  0
LINE
  8
0
 10
-0.116013
 20
5.75
 11
-0.107162
 21
5.76503
  0
LINE
  8
0
 10
-0.107162
 20
5.76503
 11
-0.0980377
 21
5.77991
  0
LINE
  8
0
 10
-0.0980377
 20
5.77991
 11
-0.0886688
 21
5.79463
  0
LINE
  8
0
 10
-0.0886688
 20
5.79463
 11
-0.0790253
 21
5.80919
  0
LINE
  8
0
 10
-0.0790253
 20
5.80919
 11
-0.0691376
 21
5.82356
  0
LINE
  8
0
 10
-0.0691376
 20
5.82356
 11
-0.0590057
 21
5.83778
  0
LINE
  8
0
 10
-0.0590057
 20
5.83778
 11
-0.0486298
 21
5.85181
  0
LINE
  8
0
 10
-0.0486298
 20
5.85181
 11
-0.0380096
 21
5.86566
  0
LINE
  8
0
 10
-0.0380096
 20
5.86566
 11
-0.0271454
 21
5.87932
  0
LINE
  8
0
 10
-0.0271454
 20
5.87932
 11
-0.016037
 21
5.89278
  0
LINE
  8
0
 10
-0.016037
 20
5.89278
 11
-0.00469971
 21
5.90605
  0
LINE
  8
0
 10
-0.00469971
 20
5.90605
 11
0.0068512
 21
5.91913
  0
LINE
  8
0
 10
0.0068512
 20
5.91913
 11
0.0186462
 21
5.93199
  0
LINE
  8
0
 10
0.0186462
 20
5.93199
 11
0.0306549
 21
5.94466
  0
LINE
  8
0
 10
0.0306549
 20
5.94466
 11
0.0428925
 21
5.95711
  0
LINE
  8
0
 10
0.0428925
 20
5.95711
 11
0.0553284
 21
5.96933
  0
LINE
  8
0
 10
0.0553284
 20
5.96933
 11
0.0679932
 21
5.98135
  0
LINE
  8
0
 10
0.0679932
 20
5.98135
 11
0.0808563
 21
5.99313
  0
LINE
  8
0
 10
0.0808563
 20
5.99313
 11
0.0939331
 21
6.0047
  0
LINE
  8
0
 10
0.0939331
 20
6.0047
 11
0.107208
 21
6.01604
  0
LINE
  8
0
 10
0.107208
 20
6.01604
 11
0.120667
 21
6.02715
  0
LINE
  8
0
 10
0.120667
 20
6.02715
 11
0.134338
 21
6.03801
  0
LINE
  8
0
 10
0.134338
 20
6.03801
 11
0.148178
 21
6.04863
  0
LINE
  8
0
 10
0.148178
 20
6.04863
 11
0.162201
 21
6.05901
  0
LINE
  8
0
 10
0.162201
 20
6.05901
 11
0.176422
 21
6.06915
  0
LINE
  8
0
 10
0.176422
 20
6.06915
 11
0.190796
 21
6.07903
  0
LINE
  8
0
 10
0.190796
 20
6.07903
 11
0.205353
 21
6.08867
  0
LINE
  8
0
 10
0.205353
 20
6.08867
 11
0.220078
 21
6.09804
  0
LINE
  8
0
 10
0.220078
 20
6.09804
 11
0.234955
 21
6.10716
  0
LINE
  8
0
 10
0.234955
 20
6.10716
 11
0.25
 21
6.11601
  0
LINE
  8
0
 10
0.25
 20
6.11601
 11
0.265182
 21
6.12462
  0
LINE
  8
0
 10
0.265182
 20
6.12462
 11
0.280518
 21
6.13293
  0
LINE
  8
0
 10
0.280518
 20
6.13293
 11
0.296005
 21
6.14101
  0
LINE
  8
0
 10
0.296005
 20
6.14101
 11
0.311615
 21
6.14879
  0
LINE
  8
0
 10
0.311615
 20
6.14879
 11
0.327377
 21
6.1563
  0
LINE
  8
0
 10
0.327377
 20
6.1563
 11
0.343262
 21
6.16354
  0
LINE
  8
0
 10
0.343262
 20
6.16354
 11
0.359268
 21
6.1705
  0
LINE
  8
0
 10
0.359268
 20
6.1705
 11
0.375381
 21
6.17717
  0
LINE
  8
0
 10
0.375381
 20
6.17717
 11
0.391632
 21
6.18358
  0
LINE
  8
0
 10
0.391632
 20
6.18358
 11
0.407974
 21
6.18968
  0
LINE
  8
0
 10
0.407974
 20
6.18968
 11
0.424423
 21
6.19551
  0
LINE
  8
0
 10
0.424423
 20
6.19551
 11
0.440979
 21
6.20105
  0
LINE
  8
0
 10
0.440979
 20
6.20105
 11
0.457626
 21
6.2063
  0
LINE
  8
0
 10
0.457626
 20
6.2063
 11
0.47435
 21
6.21126
  0
LINE
  8
0
 10
0.47435
 20
6.21126
 11
0.49118
 21
6.21591
  0
LINE
  8
0
 10
0.49118
 20
6.21591
 11
0.508072
 21
6.22029
  0
LINE
  8
0
 10
0.508072
 20
6.22029
 11
0.52504
 21
6.22437
  0
LINE
  8
0
 10
0.52504
 20
6.22437
 11
0.542084
 21
6.22813
  0
LINE
  8
0
 10
0.542084
 20
6.22813
 11
0.559189
 21
6.23161
  0
LINE
  8
0
 10
0.559189
 20
6.23161
 11
0.57634
 21
6.2348
  0
LINE
  8
0
 10
0.57634
 20
6.2348
 11
0.593552
 21
6.23769
  0
LINE
  8
0
 10
0.593552
 20
6.23769
 11
0.610825
 21
6.24026
  0
LINE
  8
0
 10
0.610825
 20
6.24026
 11
0.628128
 21
6.24254
  0
LINE
  8
0
 10
0.628128
 20
6.24254
 11
0.645462
 21
6.24452
  0
LINE
  8
0
 10
0.645462
 20
6.24452
 11
0.662842
 21
6.24619
  0
LINE
  8
0
 10
0.662842
 20
6.24619
 11
0.680237
 21
6.24756
  0
LINE
  8
0
 10
0.680237
 20
6.24756
 11
0.697662
 21
6.24863
  0
LINE
  8
0
 10
0.697662
 20
6.24863
 11
0.715088
 21
6.24939
  0
LINE
  8
0
 10
0.715088
 20
6.24939
 11
0.732544
 21
6.24985
  0
LINE
  8
0
 10
0.732544
 20
6.24985
 11
0.75
 21
6.25
  0
LINE
  8
0
 10
0.75
 20
6.25
 11
0.767441
 21
6.24985
  0
LINE
  8
0
 10
0.767441
 20
6.24985
 11
0.784897
 21
6.24939
  0
LINE
  8
0
 10
0.784897
 20
6.24939
 11
0.802322
 21
6.24863
  0
LINE
  8
0
 10
0.802322
 20
6.24863
 11
0.819748
 21
6.24756
  0
LINE
  8
0
 10
0.819748
 20
6.24756
 11
0.837143
 21
6.24619
  0
LINE
  8
0
 10
0.837143
 20
6.24619
 11
0.854523
 21
6.24452
  0
LINE
  8
0
 10
0.854523
 20
6.24452
 11
0.871857
 21
6.24254
  0
LINE
  8
0
 10
0.871857
 20
6.24254
 11
0.88916
 21
6.24026
  0
LINE
  8
0
 10
0.88916
 20
6.24026
 11
0.906433
 21
6.23769
  0
LINE
  8
0
 10
0.906433
 20
6.23769
 11
0.923645
 21
6.2348
  0
LINE
  8
0
 10
0.923645
 20
6.2348
 11
0.940796
 21
6.23161
  0
LINE
  8
0
 10
0.940796
 20
6.23161
 11
0.957901
 21
6.22813
  0
LINE
  8
0
 10
0.957901
 20
6.22813
 11
0.974945
 21
6.22437
  0
LINE
  8
0
 10
0.974945
 20
6.22437
 11
0.991913
 21
6.22029
  0
LINE
  8
0
 10
0.991913
 20
6.22029
 11
1.00882
 21
6.21591
  0
LINE
  8
0
 10
1.00882
 20
6.21591
 11
1.02563
 21
6.21126
  0
LINE
  8
0
 10
1.02563
 20
6.21126
 11
1.04236
 21
6.2063
  0
LINE
  8
0
 10
1.04236
 20
6.2063
 11
1.05901
 21
6.20105
  0
LINE
  8
0
 10
1.05901
 20
6.20105
 11
1.07556
 21
6.19551
  0
LINE
  8
0
 10
1.07556
 20
6.19551
 11
1.09201
 21
6.18968
  0
LINE
  8
0
 10
1.09201
 20
6.18968
 11
1.10837
 21
6.18358
  0
LINE
  8
0
 10
1.10837
 20
6.18358
 11
1.1246
 21
6.17717
  0
LINE
  8
0
 10
1.1246
 20
6.17717
 11
1.14073
 21
6.1705
  0
LINE
  8
0
 10
1.14073
 20
6.1705
 11
1.15672
 21
6.16354
  0
LINE
  8
0
 10
1.15672
 20
6.16354
 11
1.17261
 21
6.1563
  0
LINE
  8
0
 10
1.17261
 20
6.1563
 11
1.18837
 21
6.14879
  0
LINE
  8
0
 10
1.18837
 20
6.14879
 11
1.20398
 21
6.14101
  0
LINE
  8
0
 10
1.20398
 20
6.14101
 11
1.21947
 21
6.13293
  0
LINE
  8
0
 10
1.21947
 20
6.13293
 11
1.2348
 21
6.12462
  0
LINE
  8
0
 10
1.2348
 20
6.12462
 11
1.25
 21
6.11601
  0
LINE
  8
0
 10
1.25
 20
6.11601
 11
1.26503
 21
6.10716
  0
LINE
  8
0
 10
1.26503
 20
6.10716
 11
1.27991
 21
6.09804
  0
LINE
  8
0
 10
1.27991
 20
6.09804
 11
1.29463
 21
6.08867
  0
LINE
  8
0
 10
1.29463
 20
6.08867
 11
1.30919
 21
6.07903
  0
LINE
  8
0
 10
1.30919
 20
6.07903
 11
1.32356
 21
6.06915
  0
LINE
  8
0
 10
1.32356
 20
6.06915
 11
1.33778
 21
6.05901
  0
LINE
  8
0
 10
1.33778
 20
6.05901
 11
1.35181
 21
6.04863
  0
LINE
  8
0
 10
1.35181
 20
6.04863
 11
1.36566
 21
6.03801
  0
LINE
  8
0
 10
1.36566
 20
6.03801
 11
1.37932
 21
6.02715
  0
LINE
  8
0
 10
1.37932
 20
6.02715
 11
1.39278
 21
6.01604
  0
LINE
  8
0
 10
1.39278
 20
6.01604
 11
1.40605
 21
6.0047
  0
LINE
  8
0
 10
1.40605
 20
6.0047
 11
1.41913
 21
5.99313
  0
LINE
  8
0
 10
1.41913
 20
5.99313
 11
1.43199
 21
5.98135
  0
LINE
  8
0
 10
1.43199
 20
5.98135
 11
1.44466
 21
5.96933
  0
LINE
  8
0
 10
1.44466
 20
5.96933
 11
1.45711
 21
5.95711
  0
LINE
  8
0
 10
1.45711
 20
5.95711
 11
1.46933
 21
5.94466
  0
LINE
  8
0
 10
1.46933
 20
5.94466
 11
1.48135
 21
5.93199
  0
LINE
  8
0
 10
1.48135
 20
5.93199
 11
1.49313
 21
5.91913
  0
LINE
  8
0
 10
1.49313
 20
5.91913
 11
1.5047
 21
5.90605
  0
LINE
  8
0
 10
1.5047
 20
5.90605
 11
1.51604
 21
5.89278
  0
LINE
  8
0
 10
1.51604
 20
5.89278
 11
1.52715
 21
5.87932
  0
LINE
  8
0
 10
1.52715
 20
5.87932
 11
1.53801
 21
5.86566
  0
LINE
  8
0
 10
1.53801
 20
5.86566
 11
1.54863
 21
5.85181
  0
LINE
  8
0
 10
1.54863
 20
5.85181
 11
1.55901
 21
5.83778
  0
LINE
  8
0
 10
1.55901
 20
5.83778
 11
1.56915
 21
5.82356
  0
LINE
  8
0
 10
1.56915
 20
5.82356
 11
1.57903
 21
5.80919
  0
LINE
  8
0
 10
1.57903
 20
5.80919
 11
1.58867
 21
5.79463
  0
LINE
  8
0
 10
1.58867
 20
5.79463
 11
1.59804
 21
5.77991
  0
LINE
  8
0
 10
1.59804
 20
5.77991
 11
1.60716
 21
5.76503
  0
LINE
  8
0
 10
1.60716
 20
5.76503
 11
1.61601
 21
5.75
  0
LINE
  8
0
 10
1.61601
 20
5.75
 11
1.62462
 21
5.7348
  0
LINE
  8
0
 10
1.62462
 20
5.7348
 11
1.63293
 21
5.71947
  0
LINE
  8
0
 10
1.63293
 20
5.71947
 11
1.64101
 21
5.70398
  0
LINE
  8
0
 10
1.64101
 20
5.70398
 11
1.64879
 21
5.68837
  0
LINE
  8
0
 10
1.64879
 20
5.68837
 11
1.6563
 21
5.67261
  0
LINE
  8
0
 10
1.6563
 20
5.67261
 11
1.66354
 21
5.65672
  0
LINE
  8
0
 10
1.66354
 20
5.65672
 11
1.6705
 21
5.64073
  0
LINE
  8
0
 10
1.6705
 20
5.64073
 11
1.67717
 21
5.6246
  0
LINE
  8
0
 10
1.67717
 20
5.6246
 11
1.68358
 21
5.60837
  0
LINE
  8
0
 10
1.68358
 20
5.60837
 11
1.68968
 21
5.59201
  0
LINE
  8
0
 10
1.68968
 20
5.59201
 11
1.69551
 21
5.57556
  0
LINE
  8
0
 10
1.69551
 20
5.57556
 11
1.70105
 21
5.55901
  0
LINE
  8
0
 10
1.70105
 20
5.55901
 11
1.7063
 21
5.54236
  0
LINE
  8
0
 10
1.7063
 20
5.54236
 11
1.71126
 21
5.52563
  0
LINE
  8
0
 10
1.71126
 20
5.52563
 11
1.71591
 21
5.50882
  0
LINE
  8
0
 10
1.71591
 20
5.50882
 11
1.72029
 21
5.49191
  0
LINE
  8
0
 10
1.72029
 20
5.49191
 11
1.72437
 21
5.47495
  0
LINE
  8
0
 10
1.72437
 20
5.47495
 11
1.72813
 21
5.4579
  0
LINE
  8
0
 10
1.72813
 20
5.4579
 11
1.73161
 21
5.4408
  0
LINE
  8
0
 10
1.73161
 20
5.4408
 11
1.7348
 21
5.42365
  0
LINE
  8
0
 10
1.7348
 20
5.42365
 11
1.73769
 21
5.40643
  0
LINE
  8
0
 10
1.73769
 20
5.40643
 11
1.74026
 21
5.38916
  0
LINE
  8
0
 10
1.74026
 20
5.38916
 11
1.74254
 21
5.37186
  0
LINE
  8
0
 10
1.74254
 20
5.37186
 11
1.74452
 21
5.35452
  0
LINE
  8
0
 10
1.74452
 20
5.35452
 11
1.74619
 21
5.33714
  0
LINE
  8
0
 10
1.74619
 20
5.33714
 11
1.74756
 21
5.31975
  0
LINE
  8
0
 10
1.74756
 20
5.31975
 11
1.74863
 21
5.30232
  0
LINE
  8
0
 10
1.74863
 20
5.30232
 11
1.74939
 21
5.2849
  0
LINE
  8
0
 10
1.74939
 20
5.2849
 11
1.74985
 21
5.26744
  0
LINE
  8
0
 10
1.74985
 20
5.26744
 11
1.75
 21
5.25
  0
LINE
  8
0
 10
1.75
 20
5.25
 11
1.74985
 21
5.23254
  0
LINE
  8
0
 10
1.74985
 20
5.23254
 11
1.74939
 21
5.21509
  0
LINE
  8
0
 10
1.74939
 20
5.21509
 11
1.74863
 21
5.19766
  0
LINE
  8
0
 10
1.74863
 20
5.19766
 11
1.74756
 21
5.18024
  0
LINE
  8
0
 10
1.74756
 20
5.18024
 11
1.74619
 21
5.16284
  0
LINE
  8
0
 10
1.74619
 20
5.16284
 11
1.74452
 21
5.14546
  0
LINE
  8
0
 10
1.74452
 20
5.14546
 11
1.74254
 21
5.12813
  0
LINE
  8
0
 10
1.74254
 20
5.12813
 11
1.74026
 21
5.11082
  0
LINE
  8
0
 10
1.74026
 20
5.11082
 11
1.73769
 21
5.09355
  0
LINE
  8
0
 10
1.73769
 20
5.09355
 11
1.7348
 21
5.07634
  0
LINE
  8
0
 10
1.7348
 20
5.07634
 11
1.73161
 21
5.05919
  0
LINE
  8
0
 10
1.73161
 20
5.05919
 11
1.72813
 21
5.04208
  0
LINE
  8
0
 10
1.72813
 20
5.04208
 11
1.72437
 21
5.02504
  0
LINE
  8
0
 10
1.72437
 20
5.02504
 11
1.72029
 21
5.00807
  0
LINE
  8
0
 10
1.72029
 20
5.00807
 11
1.71591
 21
4.99118
  0
LINE
  8
0
 10
1.71591
 20
4.99118
 11
1.71126
 21
4.97435
  0
LINE
  8
0
 10
1.71126
 20
4.97435
 11
1.7063
 21
4.95763
  0
LINE
  8
0
 10
1.7063
 20
4.95763
 11
1.70105
 21
4.94098
  0
LINE
  8
0
 10
1.70105
 20
4.94098
 11
1.69551
 21
4.92442
  0
LINE
  8
0
 10
1.69551
 20
4.92442
 11
1.68968
 21
4.90797
  0
LINE
  8
0
 10
1.68968
 20
4.90797
 11
1.68358
 21
4.89163
  0
LINE
  8
0
 10
1.68358
 20
4.89163
 11
1.67717
 21
4.87538
  0
LINE
  8
0
 10
1.67717
 20
4.87538
 11
1.6705
 21
4.85927
  0
LINE
  8
0
 10
1.6705
 20
4.85927
 11
1.66354
 21
4.84326
  0
LINE
  8
0
 10
1.66354
 20
4.84326
 11
1.6563
 21
4.82738
  0
LINE
  8
0
 10
1.6563
 20
4.82738
 11
1.64879
 21
4.81161
  0
LINE
  8
0
 10
1.64879
 20
4.81161
 11
1.64101
 21
4.79601
  0
LINE
  8
0
 10
1.64101
 20
4.79601
 11
1.63293
 21
4.78052
  0
LINE
  8
0
 10
1.63293
 20
4.78052
 11
1.62462
 21
4.76518
  0
LINE
  8
0
 10
1.62462
 20
4.76518
 11
1.61601
 21
4.75
  0
LINE
  8
0
 10
1.61601
 20
4.75
 11
1.60716
 21
4.73495
  0
LINE
  8
0
 10
1.60716
 20
4.73495
 11
1.59804
 21
4.72008
  0
LINE
  8
0
 10
1.59804
 20
4.72008
 11
1.58867
 21
4.70535
  0
LINE
  8
0
 10
1.58867
 20
4.70535
 11
1.57903
 21
4.6908
  0
LINE
  8
0
 10
1.57903
 20
4.6908
 11
1.56915
 21
4.67642
  0
LINE
  8
0
 10
1.56915
 20
4.67642
 11
1.55901
 21
4.6622
  0
LINE
  8
0
 10
1.55901
 20
4.6622
 11
1.54863
 21
4.64818
  0
LINE
  8
0
 10
1.54863
 20
4.64818
 11
1.53801
 21
4.63434
  0
LINE
  8
0
 10
1.53801
 20
4.63434
 11
1.52715
 21
4.62067
  0
LINE
  8
0
 10
1.52715
 20
4.62067
 11
1.51604
 21
4.60721
  0
LINE
  8
0
 10
1.51604
 20
4.60721
 11
1.5047
 21
4.59393
  0
LINE
  8
0
 10
1.5047
 20
4.59393
 11
1.49313
 21
4.58086
  0
LINE
  8
0
 10
1.49313
 20
4.58086
 11
1.48135
 21
4.56799
  0
LINE
  8
0
 10
1.48135
 20
4.56799
 11
1.46933
 21
4.55533
  0
LINE
  8
0
 10
1.46933
 20
4.55533
 11
1.45711
 21
4.54289
  0
LINE
  8
0
 10
1.45711
 20
4.54289
 11
1.44466
 21
4.53065
  0
LINE
  8
0
 10
1.44466
 20
4.53065
 11
1.43199
 21
4.51865
  0
LINE
  8
0
 10
1.43199
 20
4.51865
 11
1.41913
 21
4.50685
  0
LINE
  8
0
 10
1.41913
 20
4.50685
 11
1.40605
 21
4.49529
  0
LINE
  8
0
 10
1.40605
 20
4.49529
 11
1.39278
 21
4.48395
  0
LINE
  8
0
 10
1.39278
 20
4.48395
 11
1.37932
 21
4.47285
  0
LINE
  8
0
 10
1.37932
 20
4.47285
 11
1.36566
 21
4.46198
  0
LINE
  8
0
 10
1.36566
 20
4.46198
 11
1.35181
 21
4.45135
  0
LINE
  8
0
 10
1.35181
 20
4.45135
 11
1.33778
 21
4.44098
  0
LINE
  8
0
 10
1.33778
 20
4.44098
 11
1.32356
 21
4.43085
  0
LINE
  8
0
 10
1.32356
 20
4.43085
 11
1.30919
 21
4.42096
  0
LINE
  8
0
 10
1.30919
 20
4.42096
 11
1.29463
 21
4.41132
  0
LINE
  8
0
 10
1.29463
 20
4.41132
 11
1.27991
 21
4.40195
  0
LINE
  8
0
 10
1.27991
 20
4.40195
 11
1.26503
 21
4.39282
  0
LINE
  8
0
 10
1.26503
 20
4.39282
 11
1.25
 21
4.38397
  0
LINE
  8
0
 10
1.25
 20
4.38397
 11
1.2348
 21
4.37537
  0
LINE
  8
0
 10
1.2348
 20
4.37537
 11
1.21947
 21
4.36705
  0
LINE
  8
0
 10
1.21947
 20
4.36705
 11
1.20398
 21
4.35899
  0
LINE
  8
0
 10
1.20398
 20
4.35899
 11
1.18837
 21
4.3512
  0
LINE
  8
0
 10
1.18837
 20
4.3512
 11
1.17261
 21
4.34369
  0
LINE
  8
0
 10
1.17261
 20
4.34369
 11
1.15672
 21
4.33644
  0
LINE
  8
0
 10
1.15672
 20
4.33644
 11
1.14073
 21
4.32948
  0
LINE
  8
0
 10
1.14073
 20
4.32948
 11
1.1246
 21
4.32281
  0
LINE
  8
0
 10
1.1246
 20
4.32281
 11
1.10837
 21
4.31641
  0
LINE
  8
0
 10
1.10837
 20
4.31641
 11
1.09201
 21
4.3103
  0
LINE
  8
0
 10
1.09201
 20
4.3103
 11
1.07556
 21
4.30447
  0
LINE
  8
0
 10
1.07556
 20
4.30447
 11
1.05901
 21
4.29893
  0
LINE
  8
0
 10
1.05901
 20
4.29893
 11
1.04236
 21
4.29369
  0
LINE
  8
0
 10
1.04236
 20
4.29369
 11
1.02563
 21
4.28873
  0
LINE
  8
0
 10
1.02563
 20
4.28873
 11
1.00882
 21
4.28407
  0
LINE
  8
0
 10
1.00882
 20
4.28407
 11
0.991913
 21
4.27969
  0
LINE
  8
0
 10
0.991913
 20
4.27969
 11
0.974945
 21
4.27562
  0
LINE
  8
0
 10
0.974945
 20
4.27562
 11
0.957901
 21
4.27185
  0
LINE
  8
0
 10
0.957901
 20
4.27185
 11
0.940796
 21
4.26837
  0
LINE
  8
0
 10
0.940796
 20
4.26837
 11
0.923645
 21
4.26518
  0
LINE
  8
0
 10
0.923645
 20
4.26518
 11
0.906433
 21
4.2623
  0
LINE
  8
0
 10
0.906433
 20
4.2623
 11
0.88916
 21
4.25972
  0
LINE
  8
0
 10
0.88916
 20
4.25972
 11
0.871857
 21
4.25745
  0
LINE
  8
0
 10
0.871857
 20
4.25745
 11
0.854523
 21
4.25548
  0
LINE
  8
0
 10
0.854523
 20
4.25548
 11
0.837143
 21
4.2538
  0
LINE
  8
0
 10
0.837143
 20
4.2538
 11
0.819748
 21
4.25243
  0
LINE
  8
0
 10
0.819748
 20
4.25243
 11
0.802322
 21
4.25136
  0
LINE
  8
0
 10
0.802322
 20
4.25136
 11
0.784897
 21
4.2506
  0
LINE
  8
0
 10
0.784897
 20
4.2506
 11
0.767441
 21
4.25015
  0
LINE
  8
0
 10
0.767441
 20
4.25015
 11
0.75
 21
4.25
  0
LINE
  8
0
 10
0.75
 20
4.25
 11
0.732544
 21
4.25015
  0
LINE
  8
0
 10
53.2325
 20
4.25015
 11
53.2151
 21
4.2506
  0
LINE
  8
0
 10
53.2151
 20
4.2506
 11
53.1977
 21
4.25136
  0
LINE
  8
0
 10
53.1977
 20
4.25136
 11
53.1802
 21
4.25243
  0
LINE
  8
0
 10
53.1802
 20
4.25243
 11
53.1628
 21
4.2538
  0
LINE
  8
0
 10
53.1628
 20
4.2538
 11
53.1455
 21
4.25548
  0
LINE
  8
0
 10
53.1455
 20
4.25548
 11
53.1281
 21
4.25745
  0
LINE
  8
0
 10
53.1281
 20
4.25745
 11
53.1108
 21
4.25972
  0
LINE
  8
0
 10
53.1108
 20
4.25972
 11
53.0936
 21
4.2623
  0
LINE
  8
0
 10
53.0936
 20
4.2623
 11
53.0763
 21
4.26518
  0
LINE
  8
0
 10
53.0763
 20
4.26518
 11
53.0592
 21
4.26837
  0
LINE
  8
0
 10
53.0592
 20
4.26837
 11
53.0421
 21
4.27185
  0
LINE
  8
0
 10
53.0421
 20
4.27185
 11
53.025
 21
4.27562
  0
LINE
  8
0
 10
53.025
 20
4.27562
 11
53.0081
 21
4.27969
  0
LINE
  8
0
 10
53.0081
 20
4.27969
 11
52.9912
 21
4.28407
  0
LINE
  8
0
 10
52.9912
 20
4.28407
 11
52.9743
 21
4.28873
  0
LINE
  8
0
 10
52.9743
 20
4.28873
 11
52.9576
 21
4.29369
  0
LINE
  8
0
 10
52.9576
 20
4.29369
 11
52.941
 21
4.29893
  0
LINE
  8
0
 10
52.941
 20
4.29893
 11
52.9244
 21
4.30447
  0
LINE
  8
0
 10
52.9244
 20
4.30447
 11
52.908
 21
4.3103
  0
LINE
  8
0
 10
52.908
 20
4.3103
 11
52.8916
 21
4.31641
  0
LINE
  8
0
 10
52.8916
 20
4.31641
 11
52.8754
 21
4.32281
  0
LINE
  8
0
 10
52.8754
 20
4.32281
 11
52.8593
 21
4.32948
  0
LINE
  8
0
 10
52.8593
 20
4.32948
 11
52.8433
 21
4.33644
  0
LINE
  8
0
 10
52.8433
 20
4.33644
 11
52.8274
 21
4.34369
  0
LINE
  8
0
 10
52.8274
 20
4.34369
 11
52.8116
 21
4.3512
  0
LINE
  8
0
 10
52.8116
 20
4.3512
 11
52.796
 21
4.35899
  0
LINE
  8
0
 10
52.796
 20
4.35899
 11
52.7805
 21
4.36705
  0
LINE
  8
0
 10
52.7805
 20
4.36705
 11
52.7652
 21
4.37537
  0
LINE
  8
0
 10
52.7652
 20
4.37537
 11
52.75
 21
4.38397
  0
LINE
  8
0
 10
52.75
 20
4.38397
 11
52.735
 21
4.39282
  0
LINE
  8
0
 10
52.735
 20
4.39282
 11
52.7201
 21
4.40195
  0
LINE
  8
0
 10
52.7201
 20
4.40195
 11
52.7054
 21
4.41132
  0
LINE
  8
0
 10
52.7054
 20
4.41132
 11
52.6908
 21
4.42096
  0
LINE
  8
0
 10
52.6908
 20
4.42096
 11
52.6764
 21
4.43085
  0
LINE
  8
0
 10
52.6764
 20
4.43085
 11
52.6622
 21
4.44098
  0
LINE
  8
0
 10
52.6622
 20
4.44098
 11
52.6482
 21
4.45135
  0
LINE
  8
0
 10
52.6482
 20
4.45135
 11
52.6343
 21
4.46198
  0
LINE
  8
0
 10
52.6343
 20
4.46198
 11
52.6207
 21
4.47285
  0
LINE
  8
0
 10
52.6207
 20
4.47285
 11
52.6072
 21
4.48395
  0
LINE
  8
0
 10
52.6072
 20
4.48395
 11
52.5939
 21
4.49529
  0
LINE
  8
0
 10
52.5939
 20
4.49529
 11
52.5809
 21
4.50685
  0
LINE
  8
0
 10
52.5809
 20
4.50685
 11
52.568
 21
4.51865
  0
LINE
  8
0
 10
52.568
 20
4.51865
 11
52.5553
 21
4.53065
  0
LINE
  8
0
 10
52.5553
 20
4.53065
 11
52.5429
 21
4.54289
  0
LINE
  8
0
 10
52.5429
 20
4.54289
 11
52.5307
 21
4.55533
  0
LINE
  8
0
 10
52.5307
 20
4.55533
 11
52.5186
 21
4.56799
  0
LINE
  8
0
 10
52.5186
 20
4.56799
 11
52.5069
 21
4.58086
  0
LINE
  8
0
 10
52.5069
 20
4.58086
 11
52.4953
 21
4.59393
  0
LINE
  8
0
 10
52.4953
 20
4.59393
 11
52.4839
 21
4.60721
  0
LINE
  8
0
 10
52.4839
 20
4.60721
 11
52.4729
 21
4.62067
  0
LINE
  8
0
 10
52.4729
 20
4.62067
 11
52.462
 21
4.63434
  0
LINE
  8
0
 10
52.462
 20
4.63434
 11
52.4514
 21
4.64818
  0
LINE
  8
0
 10
52.4514
 20
4.64818
 11
52.441
 21
4.6622
  0
LINE
  8
0
 10
52.441
 20
4.6622
 11
52.4308
 21
4.67642
  0
LINE
  8
0
 10
52.4308
 20
4.67642
 11
52.421
 21
4.6908
  0
LINE
  8
0
 10
52.421
 20
4.6908
 11
52.4113
 21
4.70535
  0
LINE
  8
0
 10
52.4113
 20
4.70535
 11
52.4019
 21
4.72008
  0
LINE
  8
0
 10
52.4019
 20
4.72008
 11
52.3928
 21
4.73495
  0
LINE
  8
0
 10
52.3928
 20
4.73495
 11
52.384
 21
4.75
  0
LINE
  8
0
 10
52.384
 20
4.75
 11
52.3754
 21
4.76518
  0
LINE
  8
0
 10
52.3754
 20
4.76518
 11
52.3671
 21
4.78052
  0
LINE
  8
0
 10
52.3671
 20
4.78052
 11
52.359
 21
4.79601
  0
LINE
  8
0
 10
52.359
 20
4.79601
 11
52.3512
 21
4.81161
  0
LINE
  8
0
 10
52.3512
 20
4.81161
 11
52.3437
 21
4.82738
  0
LINE
  8
0
 10
52.3437
 20
4.82738
 11
52.3365
 21
4.84326
  0
LINE
  8
0
 10
52.3365
 20
4.84326
 11
52.3295
 21
4.85927
  0
LINE
  8
0
 10
52.3295
 20
4.85927
 11
52.3228
 21
4.87538
  0
LINE
  8
0
 10
52.3228
 20
4.87538
 11
52.3164
 21
4.89163
  0
LINE
  8
0
 10
52.3164
 20
4.89163
 11
52.3103
 21
4.90797
  0
LINE
  8
0
 10
52.3103
 20
4.90797
 11
52.3045
 21
4.92442
  0
LINE
  8
0
 10
52.3045
 20
4.92442
 11
52.2989
 21
4.94098
  0
LINE
  8
0
 10
52.2989
 20
4.94098
 11
52.2937
 21
4.95763
  0
LINE
  8
0
 10
52.2937
 20
4.95763
 11
52.2887
 21
4.97435
  0
LINE
  8
0
 10
52.2887
 20
4.97435
 11
52.2841
 21
4.99118
  0
LINE
  8
0
 10
52.2841
 20
4.99118
 11
52.2797
 21
5.00807
  0
LINE
  8
0
 10
52.2797
 20
5.00807
 11
52.2756
 21
5.02504
  0
LINE
  8
0
 10
52.2756
 20
5.02504
 11
52.2719
 21
5.04208
  0
LINE
  8
0
 10
52.2719
 20
5.04208
 11
52.2684
 21
5.05919
  0
LINE
  8
0
 10
52.2684
 20
5.05919
 11
52.2652
 21
5.07634
  0
LINE
  8
0
 10
52.2652
 20
5.07634
 11
52.2623
 21
5.09355
  0
LINE
  8
0
 10
52.2623
 20
5.09355
 11
52.2597
 21
5.11082
  0
LINE
  8
0
 10
52.2597
 20
5.11082
 11
52.2574
 21
5.12813
  0
LINE
  8
0
 10
52.2574
 20
5.12813
 11
52.2555
 21
5.14546
  0
LINE
  8
0
 10
52.2555
 20
5.14546
 11
52.2538
 21
5.16284
  0
LINE
  8
0
 10
52.2538
 20
5.16284
 11
52.2524
 21
5.18024
  0
LINE
  8
0
 10
52.2524
 20
5.18024
 11
52.2514
 21
5.19766
  0
LINE
  8
0
 10
52.2514
 20
5.19766
 11
52.2506
 21
5.21509
  0
LINE
  8
0
 10
52.2506
 20
5.21509
 11
52.2502
 21
5.23254
  0
LINE
  8
0
 10
52.2502
 20
5.23254
 11
52.25
 21
5.25
  0
LINE
  8
0
 10
52.25
 20
5.25
 11
52.2502
 21
5.26744
  0
LINE
  8
0
 10
52.2502
 20
5.26744
 11
52.2506
 21
5.2849
  0
LINE
  8
0
 10
52.2506
 20
5.2849
 11
52.2514
 21
5.30232
  0
LINE
  8
0
 10
52.2514
 20
5.30232
 11
52.2524
 21
5.31975
  0
LINE
  8
0
 10
52.2524
 20
5.31975
 11
52.2538
 21
5.33714
  0
LINE
  8
0
 10
52.2538
 20
5.33714
 11
52.2555
 21
5.35452
  0
LINE
  8
0
 10
52.2555
 20
5.35452
 11
52.2574
 21
5.37186
  0
LINE
  8
0
 10
52.2574
 20
5.37186
 11
52.2597
 21
5.38916
  0
LINE
  8
0
 10
52.2597
 20
5.38916
 11
52.2623
 21
5.40643
  0
LINE
  8
0
 10
52.2623
 20
5.40643
 11
52.2652
 21
5.42365
  0
LINE
  8
0
 10
52.2652
 20
5.42365
 11
52.2684
 21
5.4408
  0
LINE
  8
0
 10
52.2684
 20
5.4408
 11
52.2719
 21
5.4579
  0
LINE
  8
0
 10
52.2719
 20
5.4579
 11
52.2756
 21
5.47495
  0
LINE
  8
0
 10
52.2756
 20
5.47495
 11
52.2797
 21
5.49191
  0
LINE
  8
0
 10
52.2797
 20
5.49191
 11
52.2841
 21
5.50882
  0
LINE
  8
0
 10
52.2841
 20
5.50882
 11
52.2887
 21
5.52563
  0
LINE
  8
0
 10
52.2887
 20
5.52563
 11
52.2937
 21
5.54236
  0
LINE
  8
0
 10
52.2937
 20
5.54236
 11
52.2989
 21
5.55901
  0
LINE
  8
0
 10
52.2989
 20
5.55901
 11
52.3045
 21
5.57556
  0
LINE
  8
0
 10
52.3045
 20
5.57556
 11
52.3103
 21
5.59201
  0
LINE
  8
0
 10
52.3103
 20
5.59201
 11
52.3164
 21
5.60837
  0
LINE
  8
0
 10
52.3164
 20
5.60837
 11
52.3228
 21
5.6246
  0
LINE
  8
0
 10
52.3228
 20
5.6246
 11
52.3295
 21
5.64073
  0
LINE
  8
0
 10
52.3295
 20
5.64073
 11
52.3365
 21
5.65672
  0
LINE
  8
0
 10
52.3365
 20
5.65672
 11
52.3437
 21
5.67261
  0
LINE
  8
0
 10
52.3437
 20
5.67261
 11
52.3512
 21
5.68837
  0
LINE
  8
0
 10
52.3512
 20
5.68837
 11
52.359
 21
5.70398
  0
LINE
  8
0
 10
52.359
 20
5.70398
 11
52.3671
 21
5.71947
  0
LINE
  8
0
 10
52.3671
 20
5.71947
 11
52.3754
 21
5.7348
  0
LINE
  8
0
 10
52.3754
 20
5.7348
 11
52.384
 21
5.75
  0
LINE
  8
0
 10
52.384
 20
5.75
 11
52.3928
 21
5.76503
  0
LINE
  8
0
 10
52.3928
 20
5.76503
 11
52.4019
 21
5.77991
  0
LINE
  8
0
 10
52.4019
 20
5.77991
 11
52.4113
 21
5.79463
  0
LINE
  8
0
 10
52.4113
 20
5.79463
 11
52.421
 21
5.80919
  0
LINE
  8
0
 10
52.421
 20
5.80919
 11
52.4308
 21
5.82356
  0
LINE
  8
0
 10
52.4308
 20
5.82356
 11
52.441
 21
5.83778
  0
LINE
  8
0
 10
52.441
 20
5.83778
 11
52.4514
 21
5.85181
  0
LINE
  8
0
 10
52.4514
 20
5.85181
 11
52.462
 21
5.86566
  0
LINE
  8
0
 10
52.462
 20
5.86566
 11
52.4729
 21
5.87932
  0
LINE
  8
0
 10
52.4729
 20
5.87932
 11
52.4839
 21
5.89278
  0
LINE
  8
0
 10
52.4839
 20
5.89278
 11
52.4953
 21
5.90605
  0
LINE
  8
0
 10
52.4953
 20
5.90605
 11
52.5069
 21
5.91913
  0
LINE
  8
0
 10
52.5069
 20
5.91913
 11
52.5186
 21
5.93199
  0
LINE
  8
0
 10
52.5186
 20
5.93199
 11
52.5307
 21
5.94466
  0
LINE
  8
0
 10
52.5307
 20
5.94466
 11
52.5429
 21
5.95711
  0
LINE
  8
0
 10
52.5429
 20
5.95711
 11
52.5553
 21
5.96933
  0
LINE
  8
0
 10
52.5553
 20
5.96933
 11
52.568
 21
5.98135
  0
LINE
  8
0
 10
52.568
 20
5.98135
 11
52.5809
 21
5.99313
  0
LINE
  8
0
 10
52.5809
 20
5.99313
 11
52.5939
 21
6.0047
  0
LINE
  8
0
 10
52.5939
 20
6.0047
 11
52.6072
 21
6.01604
  0
LINE
  8
0
 10
52.6072
 20
6.01604
 11
52.6207
 21
6.02715
  0
LINE
  8
0
 10
52.6207
 20
6.02715
 11
52.6343
 21
6.03801
  0
LINE
  8
0
 10
52.6343
 20
6.03801
 11
52.6482
 21
6.04863
  0
LINE
  8
0
 10
52.6482
 20
6.04863
 11
52.6622
 21
6.05901
  0
LINE
  8
0
 10
52.6622
 20
6.05901
 11
52.6764
 21
6.06915
  0
LINE
  8
0
 10
52.6764
 20
6.06915
 11
52.6908
 21
6.07903
  0
LINE
  8
0
 10
52.6908
 20
6.07903
 11
52.7054
 21
6.08867
  0
LINE
  8
0
 10
52.7054
 20
6.08867
 11
52.7201
 21
6.09804
  0
LINE
  8
0
 10
52.7201
 20
6.09804
 11
52.735
 21
6.10716
  0
LINE
  8
0
 10
52.735
 20
6.10716
 11
52.75
 21
6.11601
  0
LINE
  8
0
 10
52.75
 20
6.11601
 11
52.7652
 21
6.12462
  0
LINE
  8
0
 10
52.7652
 20
6.12462
 11
52.7805
 21
6.13293
  0
LINE
  8
0
 10
52.7805
 20
6.13293
 11
52.796
 21
6.14101
  0
LINE
  8
0
 10
52.796
 20
6.14101
 11
52.8116
 21
6.14879
  0
LINE
  8
0
 10
52.8116
 20
6.14879
 11
52.8274
 21
6.1563
  0
LINE
  8
0
 10
52.8274
 20
6.1563
 11
52.8433
 21
6.16354
  0
LINE
  8
0
 10
52.8433
 20
6.16354
 11
52.8593
 21
6.1705
  0
LINE
  8
0
 10
52.8593
 20
6.1705
 11
52.8754
 21
6.17717
  0
LINE
  8
0
 10
52.8754
 20
6.17717
 11
52.8916
 21
6.18358
  0
LINE
  8
0
 10
52.8916
 20
6.18358
 11
52.908
 21
6.18968
  0
LINE
  8
0
 10
52.908
 20
6.18968
 11
52.9244
 21
6.19551
  0
LINE
  8
0
 10
52.9244
 20
6.19551
 11
52.941
 21
6.20105
  0
LINE
  8
0
 10
52.941
 20
6.20105
 11
52.9576
 21
6.2063
  0
LINE
  8
0
 10
52.9576
 20
6.2063
 11
52.9743
 21
6.21126
  0
LINE
  8
0
 10
52.9743
 20
6.21126
 11
52.9912
 21
6.21591
  0
LINE
  8
0
 10
52.9912
 20
6.21591
 11
53.0081
 21
6.22029
  0
LINE
  8
0
 10
53.0081
 20
6.22029
 11
53.025
 21
6.22437
  0
LINE
  8
0
 10
53.025
 20
6.22437
 11
53.0421
 21
6.22813
  0
LINE
  8
0
 10
53.0421
 20
6.22813
 11
53.0592
 21
6.23161
  0
LINE
  8
0
 10
53.0592
 20
6.23161
 11
53.0763
 21
6.2348
  0
LINE
  8
0
 10
53.0763
 20
6.2348
 11
53.0936
 21
6.23769
  0
LINE
  8
0
 10
53.0936
 20
6.23769
 11
53.1108
 21
6.24026
  0
LINE
  8
0
 10
53.1108
 20
6.24026
 11
53.1281
 21
6.24254
  0
LINE
  8
0
 10
53.1281
 20
6.24254
 11
53.1455
 21
6.24452
  0
LINE
  8
0
 10
53.1455
 20
6.24452
 11
53.1628
 21
6.24619
  0
LINE
  8
0
 10
53.1628
 20
6.24619
 11
53.1802
 21
6.24756
  0
LINE
  8
0
 10
53.1802
 20
6.24756
 11
53.1977
 21
6.24863
  0
LINE
  8
0
 10
53.1977
 20
6.24863
 11
53.2151
 21
6.24939
  0
LINE
  8
0
 10
53.2151
 20
6.24939
 11
53.2325
 21
6.24985
  0
LINE
  8
0
 10
53.2325
 20
6.24985
 11
53.25
 21
6.25
  0
LINE
  8
0
 10
53.25
 20
6.25
 11
53.2674
 21
6.24985
  0
LINE
  8
0
 10
53.2674
 20
6.24985
 11
53.2849
 21
6.24939
  0
LINE
  8
0
 10
53.2849
 20
6.24939
 11
53.3023
 21
6.24863
  0
LINE
  8
0
 10
53.3023
 20
6.24863
 11
53.3197
 21
6.24756
  0
LINE
  8
0
 10
53.3197
 20
6.24756
 11
53.3371
 21
6.24619
  0
LINE
  8
0
 10
53.3371
 20
6.24619
 11
53.3545
 21
6.24452
  0
LINE
  8
0
 10
53.3545
 20
6.24452
 11
53.3719
 21
6.24254
  0
LINE
  8
0
 10
53.3719
 20
6.24254
 11
53.3892
 21
6.24026
  0
LINE
  8
0
 10
53.3892
 20
6.24026
 11
53.4064
 21
6.23769
  0
LINE
  8
0
 10
53.4064
 20
6.23769
 11
53.4236
 21
6.2348
  0
LINE
  8
0
 10
53.4236
 20
6.2348
 11
53.4408
 21
6.23161
  0
LINE
  8
0
 10
53.4408
 20
6.23161
 11
53.4579
 21
6.22813
  0
LINE
  8
0
 10
53.4579
 20
6.22813
 11
53.4749
 21
6.22437
  0
LINE
  8
0
 10
53.4749
 20
6.22437
 11
53.4919
 21
6.22029
  0
LINE
  8
0
 10
53.4919
 20
6.22029
 11
53.5088
 21
6.21591
  0
LINE
  8
0
 10
53.5088
 20
6.21591
 11
53.5256
 21
6.21126
  0
LINE
  8
0
 10
53.5256
 20
6.21126
 11
53.5424
 21
6.2063
  0
LINE
  8
0
 10
53.5424
 20
6.2063
 11
53.559
 21
6.20105
  0
LINE
  8
0
 10
53.559
 20
6.20105
 11
53.5756
 21
6.19551
  0
LINE
  8
0
 10
53.5756
 20
6.19551
 11
53.592
 21
6.18968
  0
LINE
  8
0
 10
53.592
 20
6.18968
 11
53.6084
 21
6.18358
  0
LINE
  8
0
 10
53.6084
 20
6.18358
 11
53.6246
 21
6.17717
  0
LINE
  8
0
 10
53.6246
 20
6.17717
 11
53.6407
 21
6.1705
  0
LINE
  8
0
 10
53.6407
 20
6.1705
 11
53.6567
 21
6.16354
  0
LINE
  8
0
 10
53.6567
 20
6.16354
 11
53.6726
 21
6.1563
  0
LINE
  8
0
 10
53.6726
 20
6.1563
 11
53.6884
 21
6.14879
  0
LINE
  8
0
 10
53.6884
 20
6.14879
 11
53.704
 21
6.14101
  0
LINE
  8
0
 10
53.704
 20
6.14101
 11
53.7195
 21
6.13293
  0
LINE
  8
0
 10
53.7195
 20
6.13293
 11
53.7348
 21
6.12462
  0
LINE
  8
0
 10
53.7348
 20
6.12462
 11
53.75
 21
6.11601
  0
LINE
  8
0
 10
53.75
 20
6.11601
 11
53.765
 21
6.10716
  0
LINE
  8
0
 10
53.765
 20
6.10716
 11
53.7799
 21
6.09804
  0
LINE
  8
0
 10
53.7799
 20
6.09804
 11
53.7946
 21
6.08867
  0
LINE
  8
0
 10
53.7946
 20
6.08867
 11
53.8092
 21
6.07903
  0
LINE
  8
0
 10
53.8092
 20
6.07903
 11
53.8236
 21
6.06915
  0
LINE
  8
0
 10
53.8236
 20
6.06915
 11
53.8378
 21
6.05901
  0
LINE
  8
0
 10
53.8378
 20
6.05901
 11
53.8518
 21
6.04863
  0
LINE
  8
0
 10
53.8518
 20
6.04863
 11
53.8657
 21
6.03801
  0
LINE
  8
0
 10
53.8657
 20
6.03801
 11
53.8793
 21
6.02715
  0
LINE
  8
0
 10
53.8793
 20
6.02715
 11
53.8928
 21
6.01604
  0
LINE
  8
0
 10
53.8928
 20
6.01604
 11
53.9061
 21
6.0047
  0
LINE
  8
0
 10
53.9061
 20
6.0047
 11
53.9191
 21
5.99313
  0
LINE
  8
0
 10
53.9191
 20
5.99313
 11
53.932
 21
5.98135
  0
LINE
  8
0
 10
53.932
 20
5.98135
 11
53.9447
 21
5.96933
  0
LINE
  8
0
 10
53.9447
 20
5.96933
 11
53.9571
 21
5.95711
  0
LINE
  8
0
 10
53.9571
 20
5.95711
 11
53.9693
 21
5.94466
  0
LINE
  8
0
 10
53.9693
 20
5.94466
 11
53.9814
 21
5.93199
  0
LINE
  8
0
 10
53.9814
 20
5.93199
 11
53.9931
 21
5.91913
  0
LINE
  8
0
 10
53.9931
 20
5.91913
 11
54.0047
 21
5.90605
  0
LINE
  8
0
 10
54.0047
 20
5.90605
 11
54.016
 21
5.89278
  0
LINE
  8
0
 10
54.016
 20
5.89278
 11
54.0271
 21
5.87932
  0
LINE
  8
0
 10
54.0271
 20
5.87932
 11
54.038
 21
5.86566
  0
LINE
  8
0
 10
54.038
 20
5.86566
 11
54.0486
 21
5.85181
  0
LINE
  8
0
 10
54.0486
 20
5.85181
 11
54.059
 21
5.83778
  0
LINE
  8
0
 10
54.059
 20
5.83778
 11
54.0692
 21
5.82356
  0
LINE
  8
0
 10
54.0692
 20
5.82356
 11
54.079
 21
5.80919
  0
LINE
  8
0
 10
54.079
 20
5.80919
 11
54.0887
 21
5.79463
  0
LINE
  8
0
 10
54.0887
 20
5.79463
 11
54.098
 21
5.77991
  0
LINE
  8
0
 10
54.098
 20
5.77991
 11
54.1072
 21
5.76503
  0
LINE
  8
0
 10
54.1072
 20
5.76503
 11
54.116
 21
5.75
  0
LINE
  8
0
 10
54.116
 20
5.75
 11
54.1246
 21
5.7348
  0
LINE
  8
0
 10
54.1246
 20
5.7348
 11
54.1329
 21
5.71947
  0
LINE
  8
0
 10
54.1329
 20
5.71947
 11
54.141
 21
5.70398
  0
LINE
  8
0
 10
54.141
 20
5.70398
 11
54.1488
 21
5.68837
  0
LINE
  8
0
 10
54.1488
 20
5.68837
 11
54.1563
 21
5.67261
  0
LINE
  8
0
 10
54.1563
 20
5.67261
 11
54.1635
 21
5.65672
  0
LINE
  8
0
 10
54.1635
 20
5.65672
 11
54.1705
 21
5.64073
  0
LINE
  8
0
 10
54.1705
 20
5.64073
 11
54.1772
 21
5.6246
  0
LINE
  8
0
 10
54.1772
 20
5.6246
 11
54.1836
 21
5.60837
  0
LINE
  8
0
 10
54.1836
 20
5.60837
 11
54.1897
 21
5.59201
  0
LINE
  8
0
 10
54.1897
 20
5.59201
 11
54.1955
 21
5.57556
  0
LINE
  8
0
 10
54.1955
 20
5.57556
 11
54.201
 21
5.55901
  0
LINE
  8
0
 10
54.201
 20
5.55901
 11
54.2063
 21
5.54236
  0
LINE
  8
0
 10
54.2063
 20
5.54236
 11
54.2113
 21
5.52563
  0
LINE
  8
0
 10
54.2113
 20
5.52563
 11
54.2159
 21
5.50882
  0
LINE
  8
0
 10
54.2159
 20
5.50882
 11
54.2203
 21
5.49191
  0
LINE
  8
0
 10
54.2203
 20
5.49191
 11
54.2244
 21
5.47495
  0
LINE
  8
0
 10
54.2244
 20
5.47495
 11
54.2281
 21
5.4579
  0
LINE
  8
0
 10
54.2281
 20
5.4579
 11
54.2316
 21
5.4408
  0
LINE
  8
0
 10
54.2316
 20
5.4408
 11
54.2348
 21
5.42365
  0
LINE
  8
0
 10
54.2348
 20
5.42365
 11
54.2377
 21
5.40643
  0
LINE
  8
0
 10
54.2377
 20
5.40643
 11
54.2403
 21
5.38916
  0
LINE
  8
0
 10
54.2403
 20
5.38916
 11
54.2425
 21
5.37186
  0
LINE
  8
0
 10
54.2425
 20
5.37186
 11
54.2445
 21
5.35452
  0
LINE
  8
0
 10
54.2445
 20
5.35452
 11
54.2462
 21
5.33714
  0
LINE
  8
0
 10
54.2462
 20
5.33714
 11
54.2476
 21
5.31975
  0
LINE
  8
0
 10
54.2476
 20
5.31975
 11
54.2486
 21
5.30232
  0
LINE
  8
0
 10
54.2486
 20
5.30232
 11
54.2494
 21
5.2849
  0
LINE
  8
0
 10
54.2494
 20
5.2849
 11
54.2498
 21
5.26744
  0
LINE
  8
0
 10
54.2498
 20
5.26744
 11
54.25
 21
5.25
  0
LINE
  8
0
 10
54.25
 20
5.25
 11
54.2498
 21
5.23254
  0
LINE
  8
0
 10
54.2498
 20
5.23254
 11
54.2494
 21
5.21509
  0
LINE
  8
0
 10
54.2494
 20
5.21509
 11
54.2486
 21
5.19766
  0
LINE
  8
0
 10
54.2486
 20
5.19766
 11
54.2476
 21
5.18024
  0
LINE
  8
0
 10
54.2476
 20
5.18024
 11
54.2462
 21
5.16284
  0
LINE
  8
0
 10
54.2462
 20
5.16284
 11
54.2445
 21
5.14546
  0
LINE
  8
0
 10
54.2445
 20
5.14546
 11
54.2425
 21
5.12813
  0
LINE
  8
0
 10
54.2425
 20
5.12813
 11
54.2403
 21
5.11082
  0
LINE
  8
0
 10
54.2403
 20
5.11082
 11
54.2377
 21
5.09355
  0
LINE
  8
0
 10
54.2377
 20
5.09355
 11
54.2348
 21
5.07634
  0
LINE
  8
0
 10
54.2348
 20
5.07634
 11
54.2316
 21
5.05919
  0
LINE
  8
0
 10
54.2316
 20
5.05919
 11
54.2281
 21
5.04208
  0
LINE
  8
0
 10
54.2281
 20
5.04208
 11
54.2244
 21
5.02504
  0
LINE
  8
0
 10
54.2244
 20
5.02504
 11
54.2203
 21
5.00807
  0
LINE
  8
0
 10
54.2203
 20
5.00807
 11
54.2159
 21
4.99118
  0
LINE
  8
0
 10
54.2159
 20
4.99118
 11
54.2113
 21
4.97435
  0
LINE
  8
0
 10
54.2113
 20
4.97435
 11
54.2063
 21
4.95763
  0
LINE
  8
0
 10
54.2063
 20
4.95763
 11
54.201
 21
4.94098
  0
LINE
  8
0
 10
54.201
 20
4.94098
 11
54.1955
 21
4.92442
  0
LINE
  8
0
 10
54.1955
 20
4.92442
 11
54.1897
 21
4.90797
  0
LINE
  8
0
 10
54.1897
 20
4.90797
 11
54.1836
 21
4.89163
  0
LINE
  8
0
 10
54.1836
 20
4.89163
 11
54.1772
 21
4.87538
  0
LINE
  8
0
 10
54.1772
 20
4.87538
 11
54.1705
 21
4.85927
  0
LINE
  8
0
 10
54.1705
 20
4.85927
 11
54.1635
 21
4.84326
  0
LINE
  8
0
 10
54.1635
 20
4.84326
 11
54.1563
 21
4.82738
  0
LINE
  8
0
 10
54.1563
 20
4.82738
 11
54.1488
 21
4.81161
  0
LINE
  8
0
 10
54.1488
 20
4.81161
 11
54.141
 21
4.79601
  0
LINE
  8
0
 10
54.141
 20
4.79601
 11
54.1329
 21
4.78052
  0
LINE
  8
0
 10
54.1329
 20
4.78052
 11
54.1246
 21
4.76518
  0
LINE
  8
0
 10
54.1246
 20
4.76518
 11
54.116
 21
4.75
  0
LINE
  8
0
 10
54.116
 20
4.75
 11
54.1072
 21
4.73495
  0
LINE
  8
0
 10
54.1072
 20
4.73495
 11
54.098
 21
4.72008
  0
LINE
  8
0
 10
54.098
 20
4.72008
 11
54.0887
 21
4.70535
  0
LINE
  8
0
 10
54.0887
 20
4.70535
 11
54.079
 21
4.6908
  0
LINE
  8
0
 10
54.079
 20
4.6908
 11
54.0692
 21
4.67642
  0
LINE
  8
0
 10
54.0692
 20
4.67642
 11
54.059
 21
4.6622
  0
LINE
  8
0
 10
54.059
 20
4.6622
 11
54.0486
 21
4.64818
  0
LINE
  8
0
 10
54.0486
 20
4.64818
 11
54.038
 21
4.63434
  0
LINE
  8
0
 10
54.038
 20
4.63434
 11
54.0271
 21
4.62067
  0
LINE
  8
0
 10
54.0271
 20
4.62067
 11
54.016
 21
4.60721
  0
LINE
  8
0
 10
54.016
 20
4.60721
 11
54.0047
 21
4.59393
  0
LINE
  8
0
 10
54.0047
 20
4.59393
 11
53.9931
 21
4.58086
  0
LINE
  8
0
 10
53.9931
 20
4.58086
 11
53.9814
 21
4.56799
  0
LINE
  8
0
 10
53.9814
 20
4.56799
 11
53.9693
 21
4.55533
  0
LINE
  8
0
 10
53.9693
 20
4.55533
 11
53.9571
 21
4.54289
  0
LINE
  8
0
 10
53.9571
 20
4.54289
 11
53.9447
 21
4.53065
  0
LINE
  8
0
 10
53.9447
 20
4.53065
 11
53.932
 21
4.51865
  0
LINE
  8
0
 10
53.932
 20
4.51865
 11
53.9191
 21
4.50685
  0
LINE
  8
0
 10
53.9191
 20
4.50685
 11
53.9061
 21
4.49529
  0
LINE
  8
0
 10
53.9061
 20
4.49529
 11
53.8928
 21
4.48395
  0
LINE
  8
0
 10
53.8928
 20
4.48395
 11
53.8793
 21
4.47285
  0
LINE
  8
0
 10
53.8793
 20
4.47285
 11
53.8657
 21
4.46198
  0
LINE
  8
0
 10
53.8657
 20
4.46198
 11
53.8518
 21
4.45135
  0
LINE
  8
0
 10
53.8518
 20
4.45135
 11
53.8378
 21
4.44098
  0
LINE
  8
0
 10
53.8378
 20
4.44098
 11
53.8236
 21
4.43085
  0
LINE
  8
0
 10
53.8236
 20
4.43085
 11
53.8092
 21
4.42096
  0
LINE
  8
0
 10
53.8092
 20
4.42096
 11
53.7946
 21
4.41132
  0
LINE
  8
0
 10
53.7946
 20
4.41132
 11
53.7799
 21
4.40195
  0
LINE
  8
0
 10
53.7799
 20
4.40195
 11
53.765
 21
4.39282
  0
LINE
  8
0
 10
53.765
 20
4.39282
 11
53.75
 21
4.38397
  0
LINE
  8
0
 10
53.75
 20
4.38397
 11
53.7348
 21
4.37537
  0
LINE
  8
0
 10
53.7348
 20
4.37537
 11
53.7195
 21
4.36705
  0
LINE
  8
0
 10
53.7195
 20
4.36705
 11
53.704
 21
4.35899
  0
LINE
  8
0
 10
53.704
 20
4.35899
 11
53.6884
 21
4.3512
  0
LINE
  8
0
 10
53.6884
 20
4.3512
 11
53.6726
 21
4.34369
  0
LINE
  8
0
 10
53.6726
 20
4.34369
 11
53.6567
 21
4.33644
  0
LINE
  8
0
 10
53.6567
 20
4.33644
 11
53.6407
 21
4.32948
  0
LINE
  8
0
 10
53.6407
 20
4.32948
 11
53.6246
 21
4.32281
  0
LINE
  8
0
 10
53.6246
 20
4.32281
 11
53.6084
 21
4.31641
  0
LINE
  8
0
 10
53.6084
 20
4.31641
 11
53.592
 21
4.3103
  0
LINE
  8
0
 10
53.592
 20
4.3103
 11
53.5756
 21
4.30447
  0
LINE
  8
0
 10
53.5756
 20
4.30447
 11
53.559
 21
4.29893
  0
LINE
  8
0
 10
53.559
 20
4.29893
 11
53.5424
 21
4.29369
  0
LINE
  8
0
 10
53.5424
 20
4.29369
 11
53.5256
 21
4.28873
  0
LINE
  8
0
 10
53.5256
 20
4.28873
 11
53.5088
 21
4.28407
  0
LINE
  8
0
 10
53.5088
 20
4.28407
 11
53.4919
 21
4.27969
  0
LINE
  8
0
 10
53.4919
 20
4.27969
 11
53.4749
 21
4.27562
  0
LINE
  8
0
 10
53.4749
 20
4.27562
 11
53.4579
 21
4.27185
  0
LINE
  8
0
 10
53.4579
 20
4.27185
 11
53.4408
 21
4.26837
  0
LINE
  8
0
 10
53.4408
 20
4.26837
 11
53.4236
 21
4.26518
  0
LINE
  8
0
 10
53.4236
 20
4.26518
 11
53.4064
 21
4.2623
  0
LINE
  8
0
 10
53.4064
 20
4.2623
 11
53.3892
 21
4.25972
  0
LINE
  8
0
 10
53.3892
 20
4.25972
 11
53.3719
 21
4.25745
  0
LINE
  8
0
 10
53.3719
 20
4.25745
 11
53.3545
 21
4.25548
  0
LINE
  8
0
 10
53.3545
 20
4.25548
 11
53.3371
 21
4.2538
  0
LINE
  8
0
 10
53.3371
 20
4.2538
 11
53.3197
 21
4.25243
  0
LINE
  8
0
 10
53.3197
 20
4.25243
 11
53.3023
 21
4.25136
  0
LINE
  8
0
 10
53.3023
 20
4.25136
 11
53.2849
 21
4.2506
  0
LINE
  8
0
 10
53.2849
 20
4.2506
 11
53.2674
 21
4.25015
  0
LINE
  8
0
 10
53.2674
 20
4.25015
 11
53.25
 21
4.25
  0
LINE
  8
0
 10
53.25
 20
4.25
 11
53.2325
 21
4.25015
  0
LINE
  8
0
 10
64.4909
 20
-3.59999
 11
64.4909
 21
-0.399994
  0
LINE
  8
0
 10
64.4909
 20
-0.399994
 11
75.3909
 21
-0.399994
  0
LINE
  8
0
 10
75.3909
 20
-0.399994
 11
75.3909
 21
-3.59999
  0
LINE
  8
0
 10
75.3909
 20
-3.59999
 11
64.4909
 21
-3.59999
  0
LINE
  8
0
 10
45.0364
 20
-3.59999
 11
45.0364
 21
-0.399994
  0
LINE
  8
0
 10
45.0364
 20
-0.399994
 11
55.9364
 21
-0.399994
  0
LINE
  8
0
 10
55.9364
 20
-0.399994
 11
55.9364
 21
-3.59999
  0
LINE
  8
0
 10
55.9364
 20
-3.59999
 11
45.0364
 21
-3.59999
  0
LINE
  8
0
 10
83.9454
 20
-3.59999
 11
83.9454
 21
-0.399994
  0
LINE
  8
0
 10
83.9454
 20
-0.399994
 11
94.8454
 21
-0.399994
  0
LINE
  8
0
 10
94.8454
 20
-0.399994
 11
94.8454
 21
-3.59999
  0
LINE
  8
0
 10
94.8454
 20
-3.59999
 11
83.9454
 21
-3.59999
  0
LINE
  8
0
 10
6.12726
 20
-3.59999
 11
6.12726
 21
-0.399994
  0
LINE
  8
0
 10
6.12726
 20
-0.399994
 11
17.0273
 21
-0.399994
  0
LINE
  8
0
 10
17.0273
 20
-0.399994
 11
17.0273
 21
-3.59999
  0
LINE
  8
0
 10
17.0273
 20
-3.59999
 11
6.12726
 21
-3.59999
  0
LINE
  8
0
 10
36.4818
 20
-3.59999
 11
25.5818
 21
-3.59999
  0
LINE
  8
0
 10
25.5818
 20
-3.59999
 11
25.5818
 21
-0.399994
  0
LINE
  8
0
 10
25.5818
 20
-0.399994
 11
36.4818
 21
-0.399994
  0
LINE
  8
0
 10
36.4818
 20
-0.399994
 11
36.4818
 21
-3.59999
  0
ENDSEC
  0
SECTION
  2
OBJECTS
  0
DICTIONARY
  0
ENDSEC
  0
EOF
