M48
; DRILL file {KiCad (6.0.4)} date Tue Feb 20 18:27:14 2024
; FORMAT={-:-/ absolute / inch / decimal}
; #@! TF.CreationDate,2024-02-20T18:27:14+01:00
; #@! TF.GenerationSoftware,Kicad,Pcbnew,(6.0.4)
; #@! TF.FileFunction,Plated,1,2,PTH
FMAT,2
INCH
; #@! TA.AperFunction,Plated,PTH,ViaDrill
T1C0.0157
; #@! TA.AperFunction,Plated,PTH,ComponentDrill
T2C0.0217
; #@! TA.AperFunction,Plated,PTH,ComponentDrill
T3C0.0295
; #@! TA.AperFunction,Plated,PTH,ComponentDrill
T4C0.0315
; #@! TA.AperFunction,Plated,PTH,ComponentDrill
T5C0.0354
; #@! TA.AperFunction,Plated,PTH,ComponentDrill
T6C0.0374
; #@! TA.AperFunction,Plated,PTH,ComponentDrill
T7C0.0394
; #@! TA.AperFunction,Plated,PTH,ComponentDrill
T8C0.0394
; #@! TA.AperFunction,Plated,PTH,ComponentDrill
T9C0.0409
; #@! TA.AperFunction,Plated,PTH,ComponentDrill
T10C0.0433
; #@! TA.AperFunction,Plated,PTH,ComponentDrill
T11C0.0630
; #@! TA.AperFunction,Plated,PTH,ComponentDrill
T12C0.0728
; #@! TA.AperFunction,Plated,PTH,ComponentDrill
T13C0.0866
%
G90
G05
T1
X2.2224Y-2.9843
X2.878Y-3.6398
X3.2677Y-2.0295
X3.2677Y-2.1772
X3.2697Y-2.0768
X3.2697Y-2.1319
X3.2697Y-2.2323
X3.2707Y-2.2854
X3.8425Y-2.0295
X3.8917Y-1.9518
X3.9429Y-2.1319
X4.0866Y-2.1772
X4.1693Y-2.2323
X4.2244Y-2.0768
X5.0325Y-1.6339
X5.8573Y-1.5285
T3
X3.4461Y-2.5703
X3.4961Y-2.5703
X3.5461Y-2.5703
T4
X1.8681Y-1.9728
X1.8681Y-2.5728
X2.122Y-1.4281
X2.122Y-1.5758
X2.122Y-1.7224
X2.5709Y-2.6173
X2.5709Y-3.2173
X2.722Y-1.4281
X2.722Y-1.5758
X2.722Y-1.7224
X3.1417Y-2.6183
X3.1417Y-3.2183
X3.6555Y-2.4065
X3.6555Y-2.5541
X3.6555Y-2.7008
X4.2555Y-2.4065
X4.2555Y-2.5541
X4.2555Y-2.7008
X4.4082Y-1.0276
X4.5066Y-1.0276
X4.8792Y-0.5118
X4.9075Y-2.0797
X4.9077Y-2.2274
X4.9777Y-0.5118
X5.5075Y-2.0797
X5.5077Y-2.2274
T5
X2.5217Y-3.5236
X2.6217Y-3.5236
X3.0906Y-3.5236
X3.1906Y-3.5236
T6
X0.7874Y-2.8346
X0.8858Y-2.8346
X0.9843Y-2.8346
X1.0827Y-2.8346
X1.1811Y-2.8346
X1.2795Y-2.8346
X1.378Y-2.8346
X1.4764Y-2.8346
X3.128Y-1.4616
X3.2264Y-1.4616
X3.3248Y-1.4616
X4.8799Y-0.1594
X4.9783Y-0.1594
X5.0768Y-0.1594
T7
X1.7697Y-2.8346
X1.8681Y-2.8346
X1.9622Y-3.6339
X2.0622Y-3.6339
X2.1622Y-3.6339
X2.2622Y-3.6339
X2.3622Y-3.6339
X4.0Y-1.0276
X4.1575Y-1.0276
T8
X6.5944Y-0.2166
X6.5944Y-0.315
X6.5944Y-2.1457
X6.5944Y-2.2441
T9
X5.1079Y-0.7795
X5.1079Y-1.7795
X5.2079Y-0.7795
X5.2079Y-1.7795
X5.3079Y-0.7795
X5.3079Y-1.7795
X5.4079Y-0.7795
X5.4079Y-1.7795
X5.5079Y-0.7795
X5.5079Y-1.7795
X5.6079Y-0.7795
X5.6079Y-1.7795
X5.7079Y-0.7795
X5.7079Y-1.7795
X5.8079Y-0.7795
X5.8079Y-1.7795
X5.9079Y-0.7795
X5.9079Y-1.7795
X6.0079Y-0.7795
X6.0079Y-1.7795
X6.1079Y-0.7795
X6.1079Y-1.7795
X6.2079Y-0.7795
X6.2079Y-1.7795
X6.3079Y-0.7795
X6.3079Y-1.7795
X6.4079Y-0.7795
X6.4079Y-1.7795
X6.5079Y-0.7795
X6.5079Y-1.7795
X6.6079Y-0.7795
X6.6079Y-1.7795
X6.7079Y-0.7795
X6.7079Y-1.7795
X6.8079Y-0.7795
X6.8079Y-1.7795
X6.9079Y-0.7795
X6.9079Y-1.7795
T10
X5.4429Y-0.3878
X5.5098Y-0.2421
X5.5768Y-0.3878
X5.6437Y-0.2421
X5.7106Y-0.3878
T11
X3.8287Y-0.4283
X3.8287Y-1.0283
T12
X2.748Y-3.5256
X2.9606Y-3.5256
T13
X6.7623Y-0.1143
X6.7623Y-0.5158
X6.7623Y-2.0434
X6.7623Y-2.4449
T2
G00X2.7543Y-3.2059
M15
G01X2.7543Y-3.2453
M16
G05
G00X2.7543Y-3.3059
M15
G01X2.7543Y-3.3453
M16
G05
G00X2.8543Y-3.2059
M15
G01X2.8543Y-3.2453
M16
G05
G00X2.8543Y-3.3059
M15
G01X2.8543Y-3.3453
M16
G05
G00X2.9543Y-3.2059
M15
G01X2.9543Y-3.2453
M16
G05
G00X2.9543Y-3.3059
M15
G01X2.9543Y-3.3453
M16
G05
T7
G00X4.1457Y-0.3898
M15
G01X4.1457Y-0.4685
M16
G05
G00X4.3701Y-0.311
M15
G01X4.2913Y-0.311
M16
G05
G00X4.3701Y-0.5472
M15
G01X4.2913Y-0.5472
M16
G05
T0
M30
