%TF.GenerationSoftware,KiCad,Pcbnew,(6.0.4)*%
%TF.CreationDate,2024-02-20T18:27:15+01:00*%
%TF.ProjectId,OpenSpritzer2,4f70656e-5370-4726-9974-7a6572322e6b,rev?*%
%TF.SameCoordinates,Original*%
%TF.FileFunction,Copper,L1,Top*%
%TF.FilePolarity,Positive*%
%FSLAX46Y46*%
G04 Gerber Fmt 4.6, Leading zero omitted, Abs format (unit mm)*
G04 Created by KiCad (PCBNEW (6.0.4)) date 2024-02-20 18:27:15*
%MOMM*%
%LPD*%
G01*
G04 APERTURE LIST*
G04 Aperture macros list*
%AMRoundRect*
0 Rectangle with rounded corners*
0 $1 Rounding radius*
0 $2 $3 $4 $5 $6 $7 $8 $9 X,Y pos of 4 corners*
0 Add a 4 corners polygon primitive as box body*
4,1,4,$2,$3,$4,$5,$6,$7,$8,$9,$2,$3,0*
0 Add four circle primitives for the rounded corners*
1,1,$1+$1,$2,$3*
1,1,$1+$1,$4,$5*
1,1,$1+$1,$6,$7*
1,1,$1+$1,$8,$9*
0 Add four rect primitives between the rounded corners*
20,1,$1+$1,$2,$3,$4,$5,0*
20,1,$1+$1,$4,$5,$6,$7,0*
20,1,$1+$1,$6,$7,$8,$9,0*
20,1,$1+$1,$8,$9,$2,$3,0*%
G04 Aperture macros list end*
%TA.AperFunction,ComponentPad*%
%ADD10C,1.600000*%
%TD*%
%TA.AperFunction,ComponentPad*%
%ADD11O,1.600000X1.600000*%
%TD*%
%TA.AperFunction,ComponentPad*%
%ADD12O,1.050000X1.500000*%
%TD*%
%TA.AperFunction,ComponentPad*%
%ADD13R,1.050000X1.500000*%
%TD*%
%TA.AperFunction,ComponentPad*%
%ADD14RoundRect,0.250000X-0.600000X-0.725000X0.600000X-0.725000X0.600000X0.725000X-0.600000X0.725000X0*%
%TD*%
%TA.AperFunction,ComponentPad*%
%ADD15O,1.700000X1.950000*%
%TD*%
%TA.AperFunction,ComponentPad*%
%ADD16RoundRect,0.250000X-0.600000X-0.750000X0.600000X-0.750000X0.600000X0.750000X-0.600000X0.750000X0*%
%TD*%
%TA.AperFunction,ComponentPad*%
%ADD17O,1.700000X2.000000*%
%TD*%
%TA.AperFunction,ComponentPad*%
%ADD18R,1.700000X1.700000*%
%TD*%
%TA.AperFunction,ComponentPad*%
%ADD19O,1.700000X1.700000*%
%TD*%
%TA.AperFunction,ComponentPad*%
%ADD20R,1.800000X1.800000*%
%TD*%
%TA.AperFunction,ComponentPad*%
%ADD21C,1.800000*%
%TD*%
%TA.AperFunction,ComponentPad*%
%ADD22O,2.499360X1.600200*%
%TD*%
%TA.AperFunction,ComponentPad*%
%ADD23O,7.000240X3.500120*%
%TD*%
%TA.AperFunction,ComponentPad*%
%ADD24R,1.560000X1.560000*%
%TD*%
%TA.AperFunction,ComponentPad*%
%ADD25C,1.560000*%
%TD*%
%TA.AperFunction,ComponentPad*%
%ADD26O,1.800000X1.800000*%
%TD*%
%TA.AperFunction,ComponentPad*%
%ADD27C,2.000000*%
%TD*%
%TA.AperFunction,ComponentPad*%
%ADD28C,1.850000*%
%TD*%
%TA.AperFunction,ComponentPad*%
%ADD29R,0.750000X1.750000*%
%TD*%
%TA.AperFunction,ComponentPad*%
%ADD30R,3.200000X3.200000*%
%TD*%
%TA.AperFunction,ComponentPad*%
%ADD31O,3.200000X3.200000*%
%TD*%
%TA.AperFunction,ComponentPad*%
%ADD32R,1.600000X1.600000*%
%TD*%
%TA.AperFunction,ComponentPad*%
%ADD33R,3.500000X3.500000*%
%TD*%
%TA.AperFunction,ComponentPad*%
%ADD34RoundRect,0.750000X-1.000000X0.750000X-1.000000X-0.750000X1.000000X-0.750000X1.000000X0.750000X0*%
%TD*%
%TA.AperFunction,ComponentPad*%
%ADD35RoundRect,0.875000X-0.875000X0.875000X-0.875000X-0.875000X0.875000X-0.875000X0.875000X0.875000X0*%
%TD*%
%TA.AperFunction,ViaPad*%
%ADD36C,0.800000*%
%TD*%
%TA.AperFunction,Conductor*%
%ADD37C,0.250000*%
%TD*%
%TA.AperFunction,Conductor*%
%ADD38C,1.000000*%
%TD*%
%TA.AperFunction,Conductor*%
%ADD39C,0.500000*%
%TD*%
G04 APERTURE END LIST*
D10*
%TO.P,R11,1*%
%TO.N,Net-(J3-Pad1)*%
X53900000Y-36275000D03*
D11*
%TO.P,R11,2*%
%TO.N,TTL*%
X69140000Y-36275000D03*
%TD*%
D10*
%TO.P,R10,1*%
%TO.N,GNDREF*%
X53900000Y-40025000D03*
D11*
%TO.P,R10,2*%
%TO.N,TTL*%
X69140000Y-40025000D03*
%TD*%
D10*
%TO.P,R9,1*%
%TO.N,GNDREF*%
X53900000Y-43750000D03*
D11*
%TO.P,R9,2*%
%TO.N,Net-(J3-Pad1)*%
X69140000Y-43750000D03*
%TD*%
D10*
%TO.P,R8,1*%
%TO.N,GNDREF*%
X92850000Y-64875000D03*
D11*
%TO.P,R8,2*%
%TO.N,Net-(R6-Pad1)*%
X108090000Y-64875000D03*
%TD*%
D10*
%TO.P,R7,1*%
%TO.N,GNDREF*%
X92850000Y-68600000D03*
D11*
%TO.P,R7,2*%
%TO.N,TTL_Screen*%
X108090000Y-68600000D03*
%TD*%
D10*
%TO.P,R6,1*%
%TO.N,Net-(R6-Pad1)*%
X92850000Y-61125000D03*
D11*
%TO.P,R6,2*%
%TO.N,TTL_Screen*%
X108090000Y-61125000D03*
%TD*%
D10*
%TO.P,R5,1*%
%TO.N,Net-(D4-Pad2)*%
X47450000Y-65350000D03*
D11*
%TO.P,R5,2*%
%TO.N,SpritzLED*%
X47450000Y-50110000D03*
%TD*%
D10*
%TO.P,R4,1*%
%TO.N,GNDREF*%
X124650000Y-52825000D03*
D11*
%TO.P,R4,2*%
%TO.N,Pedal*%
X139890000Y-52825000D03*
%TD*%
D10*
%TO.P,R3,1*%
%TO.N,Net-(R3-Pad1)*%
X124655000Y-56575000D03*
D11*
%TO.P,R3,2*%
%TO.N,Pedal*%
X139895000Y-56575000D03*
%TD*%
D10*
%TO.P,R2,1*%
%TO.N,Net-(D3-Pad2)*%
X65300000Y-81720000D03*
D11*
%TO.P,R2,2*%
%TO.N,Net-(R2-Pad2)*%
X65300000Y-66480000D03*
%TD*%
D10*
%TO.P,R1,1*%
%TO.N,Net-(D2-Pad2)*%
X79800000Y-81745000D03*
D11*
%TO.P,R1,2*%
%TO.N,Net-(R1-Pad2)*%
X79800000Y-66505000D03*
%TD*%
D12*
%TO.P,Q1,3,C*%
%TO.N,VCC 5V*%
X90070000Y-65285000D03*
%TO.P,Q1,2,B*%
%TO.N,Net-(R2-Pad2)*%
X88800000Y-65285000D03*
D13*
%TO.P,Q1,1,E*%
%TO.N,Net-(R6-Pad1)*%
X87530000Y-65285000D03*
%TD*%
D14*
%TO.P,U3,1,VCC*%
%TO.N,3.3V*%
X20000000Y-72000000D03*
D15*
%TO.P,U3,2,GND*%
%TO.N,GNDREF*%
X22500000Y-72000000D03*
%TO.P,U3,3,DIN*%
%TO.N,Screen_DIN*%
X25000000Y-72000000D03*
%TO.P,U3,4,CLK*%
%TO.N,Screen_CLK*%
X27500000Y-72000000D03*
%TO.P,U3,5,CS*%
%TO.N,Screen_CS*%
X30000000Y-72000000D03*
%TO.P,U3,6,DC*%
%TO.N,Screen_DC*%
X32500000Y-72000000D03*
%TO.P,U3,7,RST*%
%TO.N,Screen_RST*%
X35000000Y-72000000D03*
%TO.P,U3,8,BL*%
%TO.N,Screen_BL*%
X37500000Y-72000000D03*
%TD*%
D16*
%TO.P,D4,1,K*%
%TO.N,GNDREF*%
X44950000Y-72000000D03*
D17*
%TO.P,D4,2,A*%
%TO.N,Net-(D4-Pad2)*%
X47450000Y-72000000D03*
%TD*%
D14*
%TO.P,J4,1,Pin_1*%
%TO.N,GNDREF*%
X79450000Y-37125000D03*
D15*
%TO.P,J4,2,Pin_2*%
%TO.N,Vin 24V*%
X81950000Y-37125000D03*
%TO.P,J4,3,Pin_3*%
%TO.N,Solenoid*%
X84450000Y-37125000D03*
%TD*%
D18*
%TO.P,SW3,1,A*%
%TO.N,Rotary_CLK*%
X60000000Y-92300000D03*
D19*
%TO.P,SW3,2,C*%
%TO.N,Rotary_DT*%
X57460000Y-92300000D03*
%TO.P,SW3,3,B*%
%TO.N,Rotary_SW*%
X54920000Y-92300000D03*
%TO.P,SW3,4,S1*%
%TO.N,3.3V*%
X52380000Y-92300000D03*
%TO.P,SW3,5,S2*%
%TO.N,GNDREF*%
X49840000Y-92300000D03*
%TD*%
D20*
%TO.P,D2,1,K*%
%TO.N,GNDREF*%
X78500000Y-89500000D03*
D21*
%TO.P,D2,2,A*%
%TO.N,Net-(D2-Pad2)*%
X81040000Y-89500000D03*
%TD*%
D22*
%TO.P,J2,1,In*%
%TO.N,Net-(J2-Pad1)*%
X167498740Y-57000000D03*
D23*
%TO.P,J2,2,Ext*%
%TO.N,GNDREF*%
X171763400Y-51902220D03*
X171763400Y-62100320D03*
D22*
X167498740Y-54500640D03*
%TD*%
D24*
%TO.P,U1,1,3V3*%
%TO.N,3.3V*%
X129740000Y-45200000D03*
D25*
%TO.P,U1,2,EN*%
%TO.N,unconnected-(U1-Pad2)*%
X132280000Y-45200000D03*
%TO.P,U1,3,SENSOR_VP*%
%TO.N,unconnected-(U1-Pad3)*%
X134820000Y-45200000D03*
%TO.P,U1,4,SENSOR_VN*%
%TO.N,unconnected-(U1-Pad4)*%
X137360000Y-45200000D03*
%TO.P,U1,5,IO34*%
%TO.N,Pedal*%
X139900000Y-45200000D03*
%TO.P,U1,6,IO35*%
%TO.N,unconnected-(U1-Pad6)*%
X142440000Y-45200000D03*
%TO.P,U1,7,IO32*%
%TO.N,Solenoid*%
X144980000Y-45200000D03*
%TO.P,U1,8,IO33*%
%TO.N,SpritzLED*%
X147520000Y-45200000D03*
%TO.P,U1,9,IO25*%
%TO.N,Rotary_CLK*%
X150060000Y-45200000D03*
%TO.P,U1,10,IO26*%
%TO.N,Rotary_DT*%
X152600000Y-45200000D03*
%TO.P,U1,11,IO27*%
%TO.N,TTL_Screen*%
X155140000Y-45200000D03*
%TO.P,U1,12,IO14*%
%TO.N,unconnected-(U1-Pad12)*%
X157680000Y-45200000D03*
%TO.P,U1,13,IO12*%
%TO.N,unconnected-(U1-Pad13)*%
X160220000Y-45200000D03*
%TO.P,U1,14,GND1*%
%TO.N,GNDREF*%
X162760000Y-45200000D03*
%TO.P,U1,15,IO13*%
%TO.N,unconnected-(U1-Pad15)*%
X165300000Y-45200000D03*
%TO.P,U1,16,SD2*%
%TO.N,unconnected-(U1-Pad16)*%
X167840000Y-45200000D03*
%TO.P,U1,17,SD3*%
%TO.N,unconnected-(U1-Pad17)*%
X170380000Y-45200000D03*
%TO.P,U1,18,CMD*%
%TO.N,unconnected-(U1-Pad18)*%
X172920000Y-45200000D03*
%TO.P,U1,19,EXT_5V*%
%TO.N,VCC 5V*%
X175460000Y-45200000D03*
%TO.P,U1,20,GND3*%
%TO.N,GNDREF*%
X129740000Y-19800000D03*
%TO.P,U1,21,IO23*%
%TO.N,Screen_DIN*%
X132280000Y-19800000D03*
%TO.P,U1,22,IO22*%
%TO.N,unconnected-(U1-Pad22)*%
X134820000Y-19800000D03*
%TO.P,U1,23,TXD0*%
%TO.N,unconnected-(U1-Pad23)*%
X137360000Y-19800000D03*
%TO.P,U1,24,RXD0*%
%TO.N,unconnected-(U1-Pad24)*%
X139900000Y-19800000D03*
%TO.P,U1,25,IO21*%
%TO.N,Rotary_SW*%
X142440000Y-19800000D03*
%TO.P,U1,26,GND2*%
%TO.N,GNDREF*%
X144980000Y-19800000D03*
%TO.P,U1,27,IO19*%
%TO.N,unconnected-(U1-Pad27)*%
X147520000Y-19800000D03*
%TO.P,U1,28,IO18*%
%TO.N,Screen_CLK*%
X150060000Y-19800000D03*
%TO.P,U1,29,IO5*%
%TO.N,TTL*%
X152600000Y-19800000D03*
%TO.P,U1,30,IO17*%
%TO.N,unconnected-(U1-Pad30)*%
X155140000Y-19800000D03*
%TO.P,U1,31,IO16*%
%TO.N,unconnected-(U1-Pad31)*%
X157680000Y-19800000D03*
%TO.P,U1,32,IO4*%
%TO.N,Screen_DC*%
X160220000Y-19800000D03*
%TO.P,U1,33,IO0*%
%TO.N,Screen_RST*%
X162760000Y-19800000D03*
%TO.P,U1,34,IO2*%
%TO.N,Screen_BL*%
X165300000Y-19800000D03*
%TO.P,U1,35,IO15*%
%TO.N,Screen_CS*%
X167840000Y-19800000D03*
%TO.P,U1,36,SD1*%
%TO.N,unconnected-(U1-Pad36)*%
X170380000Y-19800000D03*
%TO.P,U1,37,SD0*%
%TO.N,unconnected-(U1-Pad37)*%
X172920000Y-19800000D03*
%TO.P,U1,38,CLK*%
%TO.N,unconnected-(U1-Pad38)*%
X175460000Y-19800000D03*
%TD*%
D20*
%TO.P,U2,1,VIN*%
%TO.N,Vin 24V*%
X138250000Y-9850000D03*
D26*
%TO.P,U2,2,OUT*%
%TO.N,Net-(D1-Pad1)*%
X139950000Y-6150000D03*
%TO.P,U2,3,GND*%
%TO.N,GNDREF*%
X141650000Y-9850000D03*
%TO.P,U2,4,FB*%
%TO.N,VCC 5V*%
X143350000Y-6150000D03*
%TO.P,U2,5,~{ON}/OFF*%
%TO.N,GNDREF*%
X145050000Y-9850000D03*
%TD*%
D22*
%TO.P,J3,1,In*%
%TO.N,Net-(J3-Pad1)*%
X167498740Y-8000000D03*
D23*
%TO.P,J3,2,Ext*%
%TO.N,GNDREF*%
X171763400Y-2902220D03*
D22*
X167498740Y-5500640D03*
D23*
X171763400Y-13100320D03*
%TD*%
D14*
%TO.P,SW1,1,1*%
%TO.N,Net-(J1-Pad1)*%
X123950000Y-4050000D03*
D15*
%TO.P,SW1,2,2*%
%TO.N,Vin 24V*%
X126450000Y-4050000D03*
%TO.P,SW1,3,K*%
%TO.N,GNDREF*%
X128950000Y-4050000D03*
%TD*%
D27*
%TO.P,L1,1,1*%
%TO.N,Net-(D1-Pad1)*%
X101600000Y-26100000D03*
%TO.P,L1,2,2*%
%TO.N,VCC 5V*%
X105600000Y-26100000D03*
%TD*%
D20*
%TO.P,D3,1,K*%
%TO.N,GNDREF*%
X64050000Y-89500000D03*
D21*
%TO.P,D3,2,A*%
%TO.N,Net-(D3-Pad2)*%
X66590000Y-89500000D03*
%TD*%
D28*
%TO.P,SW2,*%
%TO.N,*%
X69800000Y-89550000D03*
X75200000Y-89550000D03*
D29*
%TO.P,SW2,1,A*%
%TO.N,Net-(R1-Pad2)*%
X69960000Y-81930000D03*
%TO.P,SW2,2,B*%
%TO.N,VCC 5V*%
X72500000Y-81930000D03*
%TO.P,SW2,3,C*%
%TO.N,Net-(R2-Pad2)*%
X75040000Y-81930000D03*
%TO.P,SW2,4,A*%
%TO.N,Net-(J2-Pad1)*%
X69960000Y-84470000D03*
%TO.P,SW2,5,B*%
%TO.N,Net-(R3-Pad1)*%
X72500000Y-84470000D03*
%TO.P,SW2,6,C*%
%TO.N,unconnected-(SW2-Pad6)*%
X75040000Y-84470000D03*
%TD*%
D30*
%TO.P,D1,1,K*%
%TO.N,Net-(D1-Pad1)*%
X97250000Y-26120000D03*
D31*
%TO.P,D1,2,A*%
%TO.N,GNDREF*%
X97250000Y-10880000D03*
%TD*%
D32*
%TO.P,C1,1*%
%TO.N,Vin 24V*%
X126432380Y-13000000D03*
D10*
%TO.P,C1,2*%
%TO.N,GNDREF*%
X123932380Y-13000000D03*
%TD*%
D32*
%TO.P,C2,1*%
%TO.N,VCC 5V*%
X111967621Y-26100000D03*
D10*
%TO.P,C2,2*%
%TO.N,GNDREF*%
X114467621Y-26100000D03*
%TD*%
D33*
%TO.P,J1,1*%
%TO.N,Net-(J1-Pad1)*%
X110000000Y-13900000D03*
D34*
%TO.P,J1,2*%
%TO.N,GNDREF*%
X110000000Y-7900000D03*
D35*
%TO.P,J1,3*%
X105300000Y-10900000D03*
%TD*%
D36*
%TO.N,SpritzLED*%
X127825000Y-41500000D03*
%TO.N,TTL*%
X98850000Y-49575000D03*
%TO.N,Screen_DIN*%
X56450000Y-75800000D03*
%TO.N,3.3V*%
X83075000Y-58050000D03*
%TO.N,TTL_Screen*%
X148775000Y-38825000D03*
%TO.N,Net-(J2-Pad1)*%
X73100000Y-92450000D03*
%TO.N,Screen_CLK*%
X83000000Y-51550000D03*
X97600000Y-51550000D03*
%TO.N,Screen_DC*%
X83050000Y-54150000D03*
X100150000Y-54150000D03*
%TO.N,Screen_RST*%
X83000000Y-55300000D03*
X103800000Y-55300000D03*
%TO.N,Screen_BL*%
X83050000Y-56700000D03*
X105900000Y-56700000D03*
%TO.N,Screen_CS*%
X83050000Y-52750000D03*
X107300000Y-52750000D03*
%TD*%
D37*
%TO.N,SpritzLED*%
X143820000Y-41500000D02*
X147520000Y-45200000D01*
X127825000Y-41500000D02*
X143820000Y-41500000D01*
D38*
%TO.N,Vin 24V*%
X90150000Y-18500000D02*
X124158952Y-18500000D01*
X81950000Y-26700000D02*
X90150000Y-18500000D01*
X124158952Y-18500000D02*
X126432380Y-16226572D01*
X126432380Y-16226572D02*
X126432380Y-13000000D01*
X81950000Y-37125000D02*
X81950000Y-26700000D01*
D37*
%TO.N,Net-(D1-Pad1)*%
X139950000Y-15525000D02*
X139950000Y-6150000D01*
X138923560Y-16551440D02*
X139950000Y-15525000D01*
X127273560Y-16551440D02*
X138923560Y-16551440D01*
X124125000Y-19700000D02*
X127273560Y-16551440D01*
X105100000Y-19700000D02*
X124125000Y-19700000D01*
X101600000Y-23200000D02*
X105100000Y-19700000D01*
X101600000Y-26100000D02*
X101600000Y-23200000D01*
D39*
%TO.N,VCC 5V*%
X143350000Y-14850000D02*
X143350000Y-6150000D01*
X141074040Y-17125960D02*
X143350000Y-14850000D01*
X127554779Y-17125960D02*
X141074040Y-17125960D01*
X124230738Y-20450000D02*
X127554779Y-17125960D01*
X114600000Y-20450000D02*
X124230738Y-20450000D01*
X111967621Y-23082379D02*
X114600000Y-20450000D01*
X111967621Y-26100000D02*
X111967621Y-23082379D01*
D37*
%TO.N,Rotary_SW*%
X54920000Y-69294282D02*
X54920000Y-92300000D01*
X61664282Y-62550000D02*
X54920000Y-69294282D01*
X141700000Y-18150000D02*
X127978950Y-18150000D01*
X127978950Y-18150000D02*
X83578951Y-62550000D01*
X83578951Y-62550000D02*
X61664282Y-62550000D01*
X142440000Y-19800000D02*
X142440000Y-18890000D01*
X142440000Y-18890000D02*
X141700000Y-18150000D01*
%TO.N,Net-(J3-Pad1)*%
X101743232Y-43750000D02*
X69140000Y-43750000D01*
X127792752Y-17700480D02*
X101743232Y-43750000D01*
X157798260Y-17700480D02*
X127792752Y-17700480D01*
X159211870Y-16286870D02*
X157798260Y-17700480D01*
X159211870Y-16286870D02*
X158923740Y-16575000D01*
X162536870Y-12961870D02*
X159211870Y-16286870D01*
X158923740Y-16575000D02*
X157798260Y-17700480D01*
X162536870Y-12961870D02*
X167498740Y-8000000D01*
X160248740Y-15250000D02*
X162536870Y-12961870D01*
%TO.N,Screen_DIN*%
X124484189Y-22280480D02*
X83765149Y-62999520D01*
X83765149Y-62999520D02*
X61850480Y-62999520D01*
X59225000Y-73025000D02*
X56450000Y-75800000D01*
X129799520Y-22280480D02*
X124484189Y-22280480D01*
X61850480Y-62999520D02*
X59225000Y-65625000D01*
X59225000Y-65625000D02*
X59225000Y-73025000D01*
X132280000Y-19800000D02*
X129799520Y-22280480D01*
%TO.N,Screen_CLK*%
X147130000Y-22730000D02*
X150060000Y-19800000D01*
X124670386Y-22730000D02*
X147130000Y-22730000D01*
X97600000Y-51550000D02*
X97600000Y-49800386D01*
X97600000Y-49800386D02*
X124670386Y-22730000D01*
%TO.N,TTL*%
X99107128Y-49575000D02*
X98850000Y-49575000D01*
X125502608Y-23179520D02*
X99107128Y-49575000D01*
X149220480Y-23179520D02*
X125502608Y-23179520D01*
X152600000Y-19800000D02*
X149220480Y-23179520D01*
%TO.N,Screen_DC*%
X100150000Y-49167846D02*
X100150000Y-49525000D01*
X126654040Y-23629040D02*
X125688806Y-23629040D01*
X100150000Y-54150000D02*
X100150000Y-49525000D01*
X125688806Y-23629040D02*
X100150000Y-49167846D01*
X126654040Y-23629040D02*
X156390960Y-23629040D01*
%TO.N,Screen_RST*%
X125875004Y-24078560D02*
X103800000Y-46153564D01*
X158481440Y-24078560D02*
X125875004Y-24078560D01*
X162760000Y-19800000D02*
X158481440Y-24078560D01*
X103800000Y-46153564D02*
X103800000Y-55300000D01*
%TO.N,Screen_BL*%
X105900000Y-44689282D02*
X105900000Y-56700000D01*
X160571920Y-24528080D02*
X126061202Y-24528080D01*
X126061202Y-24528080D02*
X105900000Y-44689282D01*
X165300000Y-19800000D02*
X160571920Y-24528080D01*
%TO.N,Screen_CS*%
X126247400Y-24977600D02*
X107300000Y-43925000D01*
X107300000Y-43925000D02*
X107300000Y-52750000D01*
X167840000Y-19800000D02*
X162662400Y-24977600D01*
X162662400Y-24977600D02*
X126247400Y-24977600D01*
%TO.N,Net-(J2-Pad1)*%
X167498740Y-78201260D02*
X167498740Y-57000000D01*
%TO.N,Screen_DC*%
X156390960Y-23629040D02*
X160220000Y-19800000D01*
%TO.N,3.3V*%
X52380000Y-92300000D02*
X52380000Y-63920000D01*
X52380000Y-63920000D02*
X58250000Y-58050000D01*
X58250000Y-58050000D02*
X83075000Y-58050000D01*
%TO.N,Net-(J3-Pad1)*%
X53900000Y-36275000D02*
X61665000Y-36275000D01*
X61665000Y-36275000D02*
X69140000Y-43750000D01*
%TO.N,TTL*%
X69140000Y-36275000D02*
X69140000Y-40025000D01*
%TO.N,TTL_Screen*%
X125425000Y-38825000D02*
X148775000Y-38825000D01*
X122150000Y-42100000D02*
X125425000Y-38825000D01*
X122150000Y-54540000D02*
X122150000Y-42100000D01*
X108090000Y-68600000D02*
X122150000Y-54540000D01*
%TO.N,Net-(R3-Pad1)*%
X124655000Y-56575000D02*
X124655000Y-85395000D01*
X123700000Y-86350000D02*
X124630000Y-85420000D01*
X118800000Y-91250000D02*
X123700000Y-86350000D01*
X124655000Y-85395000D02*
X123700000Y-86350000D01*
%TO.N,Pedal*%
X139890000Y-52825000D02*
X139890000Y-56570000D01*
X139890000Y-56570000D02*
X139895000Y-56575000D01*
X139900000Y-45200000D02*
X139900000Y-52815000D01*
X139900000Y-52815000D02*
X139890000Y-52825000D01*
%TO.N,Net-(R2-Pad2)*%
X88800000Y-68170000D02*
X81122500Y-75847500D01*
X81122500Y-75847500D02*
X75040000Y-81930000D01*
X88800000Y-65285000D02*
X88800000Y-68170000D01*
X81775000Y-75195000D02*
X81122500Y-75847500D01*
%TO.N,Net-(R6-Pad1)*%
X109525000Y-63440000D02*
X108090000Y-64875000D01*
X109000000Y-59325000D02*
X109525000Y-59850000D01*
X109525000Y-59850000D02*
X109525000Y-63440000D01*
X100575000Y-59325000D02*
X109000000Y-59325000D01*
X98775000Y-61125000D02*
X100575000Y-59325000D01*
X92850000Y-61125000D02*
X98775000Y-61125000D01*
%TO.N,TTL_Screen*%
X105100000Y-64115000D02*
X108090000Y-61125000D01*
X105100000Y-65610000D02*
X105100000Y-64115000D01*
X108090000Y-68600000D02*
X105100000Y-65610000D01*
%TO.N,Net-(R2-Pad2)*%
X80550000Y-64500000D02*
X81775000Y-65725000D01*
X81775000Y-65725000D02*
X81775000Y-75195000D01*
X67280000Y-64500000D02*
X80550000Y-64500000D01*
X65300000Y-66480000D02*
X67280000Y-64500000D01*
%TO.N,Net-(R1-Pad2)*%
X69960000Y-76345000D02*
X79800000Y-66505000D01*
X69960000Y-81930000D02*
X69960000Y-76345000D01*
%TO.N,Net-(D3-Pad2)*%
X66590000Y-83010000D02*
X65300000Y-81720000D01*
X66590000Y-89500000D02*
X66590000Y-83010000D01*
%TO.N,Net-(D2-Pad2)*%
X81040000Y-89500000D02*
X81040000Y-82985000D01*
X81040000Y-82985000D02*
X79800000Y-81745000D01*
%TO.N,Net-(D4-Pad2)*%
X47450000Y-65350000D02*
X47450000Y-72000000D01*
D38*
%TO.N,Vin 24V*%
X126450000Y-4050000D02*
X126450000Y-12982380D01*
X135100000Y-13000000D02*
X138250000Y-9850000D01*
D37*
X126450000Y-12982380D02*
X126432380Y-13000000D01*
D38*
X126432380Y-13000000D02*
X135100000Y-13000000D01*
D39*
%TO.N,VCC 5V*%
X105600000Y-26100000D02*
X111967621Y-26100000D01*
D38*
%TO.N,Net-(J1-Pad1)*%
X110000000Y-13900000D02*
X114100000Y-13900000D01*
X114100000Y-13900000D02*
X123950000Y-4050000D01*
D37*
%TO.N,Net-(D1-Pad1)*%
X101580000Y-26120000D02*
X101600000Y-26100000D01*
X97250000Y-26120000D02*
X101580000Y-26120000D01*
%TO.N,Net-(R3-Pad1)*%
X72500000Y-84470000D02*
X72500000Y-90614282D01*
X124630000Y-85420000D02*
X124630000Y-58900000D01*
X73135718Y-91250000D02*
X118800000Y-91250000D01*
X72500000Y-90614282D02*
X73135718Y-91250000D01*
%TO.N,Pedal*%
X139870000Y-45230000D02*
X139900000Y-45200000D01*
%TO.N,3.3V*%
X32900000Y-84900000D02*
X44980000Y-84900000D01*
X44980000Y-84900000D02*
X52380000Y-92300000D01*
X20000000Y-72000000D02*
X32900000Y-84900000D01*
%TO.N,Net-(J2-Pad1)*%
X153250000Y-92450000D02*
X153800000Y-91900000D01*
X73100000Y-92450000D02*
X153250000Y-92450000D01*
X153800000Y-91900000D02*
X167498740Y-78201260D01*
%TO.N,Rotary_DT*%
X152600000Y-45200000D02*
X152600000Y-65700000D01*
X59010000Y-90750000D02*
X57460000Y-92300000D01*
X126600480Y-91699520D02*
X62199520Y-91699520D01*
X152600000Y-65700000D02*
X126600480Y-91699520D01*
X61250000Y-90750000D02*
X59010000Y-90750000D01*
X62199520Y-91699520D02*
X61250000Y-90750000D01*
%TO.N,Rotary_CLK*%
X60000000Y-92300000D02*
X60949520Y-93249520D01*
X178850000Y-46300000D02*
X178850000Y-52000000D01*
X178850000Y-67500000D02*
X178850000Y-52000000D01*
X152560000Y-42700000D02*
X175250000Y-42700000D01*
X175250000Y-42700000D02*
X178850000Y-46300000D01*
X60949520Y-93249520D02*
X153100480Y-93249520D01*
X153100480Y-93249520D02*
X178850000Y-67500000D01*
X150060000Y-45200000D02*
X152560000Y-42700000D01*
%TO.N,Screen_CLK*%
X27500000Y-72000000D02*
X27500000Y-69850000D01*
X45800000Y-51550000D02*
X83000000Y-51550000D01*
X27500000Y-69850000D02*
X45800000Y-51550000D01*
%TO.N,Screen_DC*%
X46450000Y-54150000D02*
X83050000Y-54150000D01*
X32500000Y-68100000D02*
X46450000Y-54150000D01*
X32500000Y-72000000D02*
X32500000Y-68100000D01*
%TO.N,Screen_RST*%
X35000000Y-72000000D02*
X35000000Y-67750000D01*
X47450000Y-55300000D02*
X83000000Y-55300000D01*
X35000000Y-67750000D02*
X47450000Y-55300000D01*
%TO.N,Screen_BL*%
X37500000Y-67650000D02*
X48450000Y-56700000D01*
X37500000Y-72000000D02*
X37500000Y-67650000D01*
X48450000Y-56700000D02*
X83050000Y-56700000D01*
%TO.N,Screen_CS*%
X46200000Y-52750000D02*
X83050000Y-52750000D01*
X30000000Y-68950000D02*
X46200000Y-52750000D01*
X30000000Y-72000000D02*
X30000000Y-68950000D01*
%TD*%
M02*
