M48
; DRILL file {KiCad 9.0.0} date 2025-07-16T00:17:07+0200
; FORMAT={-:-/ absolute / metric / decimal}
; #@! TF.CreationDate,2025-07-16T00:17:07+02:00
; #@! TF.GenerationSoftware,Kicad,Pcbnew,9.0.0
; #@! TF.FileFunction,Plated,1,2,PTH
FMAT,2
METRIC
; #@! TA.AperFunction,Plated,PTH,ComponentDrill
T1C0.550
; #@! TA.AperFunction,Plated,PTH,ComponentDrill
T2C0.800
; #@! TA.AperFunction,Plated,PTH,ComponentDrill
T3C0.900
; #@! TA.AperFunction,Plated,PTH,ComponentDrill
T4C0.950
; #@! TA.AperFunction,Plated,PTH,ComponentDrill
T5C1.000
; #@! TA.AperFunction,Plated,PTH,ComponentDrill
T6C1.001
; #@! TA.AperFunction,Plated,PTH,ComponentDrill
T7C1.040
; #@! TA.AperFunction,Plated,PTH,ComponentDrill
T8C1.100
; #@! TA.AperFunction,Plated,PTH,ComponentDrill
T9C1.600
; #@! TA.AperFunction,Plated,PTH,ComponentDrill
T10C1.850
; #@! TA.AperFunction,Plated,PTH,ComponentDrill
T11C2.200
%
G90
G05
T2
X67.85Y-67.22
X67.85Y-69.76
X67.85Y-72.3
X73.65Y-67.22
X73.65Y-69.76
X73.65Y-72.3
X82.15Y-69.13
X82.15Y-84.37
X91.1Y-78.78
X91.1Y-94.02
X91.17Y-73.95
X91.8Y-49.8
X91.8Y-54.3
X93.71Y-73.95
X94.34Y-49.8
X94.34Y-54.3
X96.25Y-73.95
X96.88Y-49.8
X96.88Y-54.3
X100.57Y-73.95
X103.11Y-73.95
X105.6Y-78.78
X105.6Y-94.02
X105.65Y-73.95
X115.39Y-65.05
X115.39Y-68.95
X115.41Y-72.85
X130.63Y-65.05
X130.63Y-68.95
X130.65Y-72.85
X132.91Y-65.05
X132.91Y-68.95
X132.91Y-72.85
X137.768Y-38.4
X140.268Y-38.4
X148.15Y-65.05
X148.15Y-68.95
X148.15Y-72.85
X149.732Y-25.3
X150.43Y-65.05
X150.43Y-68.95
X152.232Y-25.3
X165.67Y-65.05
X165.67Y-68.95
T3
X89.85Y-101.8
X92.39Y-101.8
X104.3Y-101.8
X106.84Y-101.8
T4
X43.25Y-84.3
X45.75Y-84.3
X48.25Y-84.3
X50.75Y-84.3
X53.25Y-84.3
X55.75Y-84.3
X58.25Y-84.3
X60.75Y-84.3
X105.25Y-49.425
X107.75Y-49.425
X110.25Y-49.425
X149.75Y-16.35
X152.25Y-16.35
X154.75Y-16.35
T5
X70.75Y-84.3
X73.25Y-84.3
X75.64Y-104.6
X78.18Y-104.6
X80.72Y-104.6
X83.26Y-104.6
X85.8Y-104.6
X127.4Y-38.4
X131.4Y-38.4
T6
X193.299Y-17.801
X193.299Y-20.3
X193.299Y-66.801
X193.299Y-69.3
T7
X155.54Y-32.1
X155.54Y-57.5
X158.08Y-32.1
X158.08Y-57.5
X160.62Y-32.1
X160.62Y-57.5
X163.16Y-32.1
X163.16Y-57.5
X165.7Y-32.1
X165.7Y-57.5
X168.24Y-32.1
X168.24Y-57.5
X170.78Y-32.1
X170.78Y-57.5
X173.32Y-32.1
X173.32Y-57.5
X175.86Y-32.1
X175.86Y-57.5
X178.4Y-32.1
X178.4Y-57.5
X180.94Y-32.1
X180.94Y-57.5
X183.48Y-32.1
X183.48Y-57.5
X186.02Y-32.1
X186.02Y-57.5
X188.56Y-32.1
X188.56Y-57.5
X191.1Y-32.1
X191.1Y-57.5
X193.64Y-32.1
X193.64Y-57.5
X196.18Y-32.1
X196.18Y-57.5
X198.72Y-32.1
X198.72Y-57.5
X201.26Y-32.1
X201.26Y-57.5
T8
X164.05Y-22.15
X165.75Y-18.45
X167.45Y-22.15
X169.15Y-18.45
X170.85Y-22.15
T9
X123.05Y-23.18
X123.05Y-38.42
T10
X95.6Y-100.85
X101.0Y-100.85
T11
X197.563Y-15.202
X197.563Y-25.4
X197.563Y-64.202
X197.563Y-74.4
T1
G00X95.76Y-92.73
M15
G01X95.76Y-93.73
M16
G05
G00X95.76Y-95.27
M15
G01X95.76Y-96.27
M16
G05
G00X98.3Y-92.73
M15
G01X98.3Y-93.73
M16
G05
G00X98.3Y-95.27
M15
G01X98.3Y-96.27
M16
G05
G00X100.84Y-92.73
M15
G01X100.84Y-93.73
M16
G05
G00X100.84Y-95.27
M15
G01X100.84Y-96.27
M16
G05
T5
G00X131.1Y-22.2
M15
G01X131.1Y-24.2
M16
G05
G00X136.8Y-20.2
M15
G01X134.8Y-20.2
M16
G05
G00X136.8Y-26.2
M15
G01X134.8Y-26.2
M16
G05
M30
