%TF.GenerationSoftware,KiCad,Pcbnew,9.0.0*%
%TF.CreationDate,2025-07-16T00:17:05+02:00*%
%TF.ProjectId,OpenSpritzer2,4f70656e-5370-4726-9974-7a6572322e6b,rev?*%
%TF.SameCoordinates,Original*%
%TF.FileFunction,Soldermask,Top*%
%TF.FilePolarity,Negative*%
%FSLAX46Y46*%
G04 Gerber Fmt 4.6, Leading zero omitted, Abs format (unit mm)*
G04 Created by KiCad (PCBNEW 9.0.0) date 2025-07-16 00:17:05*
%MOMM*%
%LPD*%
G01*
G04 APERTURE LIST*
G04 Aperture macros list*
%AMRoundRect*
0 Rectangle with rounded corners*
0 $1 Rounding radius*
0 $2 $3 $4 $5 $6 $7 $8 $9 X,Y pos of 4 corners*
0 Add a 4 corners polygon primitive as box body*
4,1,4,$2,$3,$4,$5,$6,$7,$8,$9,$2,$3,0*
0 Add four circle primitives for the rounded corners*
1,1,$1+$1,$2,$3*
1,1,$1+$1,$4,$5*
1,1,$1+$1,$6,$7*
1,1,$1+$1,$8,$9*
0 Add four rect primitives between the rounded corners*
20,1,$1+$1,$2,$3,$4,$5,0*
20,1,$1+$1,$4,$5,$6,$7,0*
20,1,$1+$1,$6,$7,$8,$9,0*
20,1,$1+$1,$8,$9,$2,$3,0*%
G04 Aperture macros list end*
%ADD10C,1.600000*%
%ADD11O,1.600000X1.600000*%
%ADD12RoundRect,0.250000X-0.600000X-0.725000X0.600000X-0.725000X0.600000X0.725000X-0.600000X0.725000X0*%
%ADD13O,1.700000X1.950000*%
%ADD14RoundRect,0.250000X-0.600000X-0.750000X0.600000X-0.750000X0.600000X0.750000X-0.600000X0.750000X0*%
%ADD15O,1.700000X2.000000*%
%ADD16C,1.500000*%
%ADD17R,1.500000X1.500000*%
%ADD18R,1.700000X1.700000*%
%ADD19O,1.700000X1.700000*%
%ADD20C,2.500000*%
%ADD21C,3.000000*%
%ADD22R,1.800000X1.800000*%
%ADD23C,1.800000*%
%ADD24O,2.499360X1.600200*%
%ADD25O,7.000240X3.500120*%
%ADD26O,1.800000X1.800000*%
%ADD27C,2.000000*%
%ADD28C,1.850000*%
%ADD29R,0.750000X1.750000*%
%ADD30R,3.200000X3.200000*%
%ADD31O,3.200000X3.200000*%
%ADD32R,1.600000X1.600000*%
%ADD33R,3.500000X3.500000*%
%ADD34RoundRect,0.750000X-1.000000X0.750000X-1.000000X-0.750000X1.000000X-0.750000X1.000000X0.750000X0*%
%ADD35RoundRect,0.875000X-0.875000X0.875000X-0.875000X-0.875000X0.875000X-0.875000X0.875000X0.875000X0*%
%ADD36R,1.560000X1.560000*%
%ADD37C,1.560000*%
G04 APERTURE END LIST*
D10*
%TO.C,R5*%
X82150000Y-84370000D03*
D11*
X82150000Y-69130000D03*
%TD*%
D10*
%TO.C,R3*%
X150430000Y-68950000D03*
D11*
X165670000Y-68950000D03*
%TD*%
D12*
%TO.C,U3*%
X43250000Y-84300000D03*
D13*
X45750000Y-84300000D03*
X48250000Y-84300000D03*
X50750000Y-84300000D03*
X53250000Y-84300000D03*
X55750000Y-84300000D03*
X58250000Y-84300000D03*
X60750000Y-84300000D03*
%TD*%
D10*
%TO.C,1k\u03A9*%
X115390000Y-68950000D03*
D11*
X130630000Y-68950000D03*
%TD*%
D14*
%TO.C,D4*%
X70750000Y-84300000D03*
D15*
X73250000Y-84300000D03*
%TD*%
D16*
%TO.C,NPN*%
X94340000Y-54300000D03*
D17*
X91800000Y-54300000D03*
D16*
X96880000Y-54300000D03*
%TD*%
D12*
%TO.C,J4*%
X105250000Y-49425000D03*
D13*
X107750000Y-49425000D03*
X110250000Y-49425000D03*
%TD*%
D18*
%TO.C,SW3*%
X85800000Y-104600000D03*
D19*
X83260000Y-104600000D03*
X80720000Y-104600000D03*
X78180000Y-104600000D03*
X75640000Y-104600000D03*
%TD*%
D20*
%TO.C,REF\u002A\u002A*%
X57800000Y-19400000D03*
%TD*%
D21*
%TO.C,H4*%
X31550000Y-84300000D03*
%TD*%
D16*
%TO.C,NPN*%
X67850000Y-69760000D03*
D17*
X67850000Y-72300000D03*
D16*
X67850000Y-67220000D03*
%TD*%
D22*
%TO.C,D2*%
X104300000Y-101800000D03*
D23*
X106840000Y-101800000D03*
%TD*%
D10*
%TO.C,R1*%
X105600000Y-94020000D03*
D11*
X105600000Y-78780000D03*
%TD*%
D21*
%TO.C,H2*%
X186800000Y-84300000D03*
%TD*%
D20*
%TO.C,REF\u002A\u002A*%
X57800000Y-37400000D03*
%TD*%
D24*
%TO.C,J2*%
X193298740Y-69300000D03*
X193298740Y-66800640D03*
D25*
X197563400Y-64202220D03*
X197563400Y-74400320D03*
%TD*%
D16*
%TO.C,NPN*%
X93710000Y-73950000D03*
D17*
X91170000Y-73950000D03*
D16*
X96250000Y-73950000D03*
%TD*%
%TO.C,NPN*%
X103110000Y-73950000D03*
D17*
X100570000Y-73950000D03*
D16*
X105650000Y-73950000D03*
%TD*%
D21*
%TO.C,H1*%
X186800000Y-19800000D03*
%TD*%
D10*
%TO.C,2k\u03A9*%
X115410000Y-72850000D03*
D11*
X130650000Y-72850000D03*
%TD*%
D16*
%TO.C,NPN*%
X73650000Y-69760000D03*
D17*
X73650000Y-72300000D03*
D16*
X73650000Y-67220000D03*
%TD*%
D22*
%TO.C,U2*%
X164050000Y-22150000D03*
D26*
X165750000Y-18450000D03*
X167450000Y-22150000D03*
X169150000Y-18450000D03*
X170850000Y-22150000D03*
%TD*%
D16*
%TO.C,NPN*%
X94340000Y-49800000D03*
D17*
X91800000Y-49800000D03*
D16*
X96880000Y-49800000D03*
%TD*%
D24*
%TO.C,J3*%
X193298740Y-20300000D03*
D25*
X197563400Y-15202220D03*
D24*
X193298740Y-17800640D03*
D25*
X197563400Y-25400320D03*
%TD*%
D12*
%TO.C,SW1*%
X149750000Y-16350000D03*
D13*
X152250000Y-16350000D03*
X154750000Y-16350000D03*
%TD*%
D10*
%TO.C,10k\u03A9*%
X115390000Y-65050000D03*
D11*
X130630000Y-65050000D03*
%TD*%
D27*
%TO.C,L1*%
X127400000Y-38400000D03*
X131400000Y-38400000D03*
%TD*%
D10*
%TO.C,R4*%
X150430000Y-65050000D03*
D11*
X165670000Y-65050000D03*
%TD*%
D22*
%TO.C,D3*%
X89850000Y-101800000D03*
D23*
X92390000Y-101800000D03*
%TD*%
D10*
%TO.C,R2*%
X91100000Y-94020000D03*
D11*
X91100000Y-78780000D03*
%TD*%
D10*
%TO.C,10k\u03A9*%
X132910000Y-65050000D03*
D11*
X148150000Y-65050000D03*
%TD*%
D21*
%TO.C,H3*%
X31550000Y-19800000D03*
%TD*%
D28*
%TO.C,SW2*%
X95600000Y-100850000D03*
X101000000Y-100850000D03*
D29*
X95760000Y-93230000D03*
X98300000Y-93230000D03*
X100840000Y-93230000D03*
X95760000Y-95770000D03*
X98300000Y-95770000D03*
X100840000Y-95770000D03*
%TD*%
D30*
%TO.C,D1*%
X123050000Y-38420000D03*
D31*
X123050000Y-23180000D03*
%TD*%
D32*
%TO.C,C1*%
X152232380Y-25300000D03*
D10*
X149732380Y-25300000D03*
%TD*%
D32*
%TO.C,C2*%
X137767621Y-38400000D03*
D10*
X140267621Y-38400000D03*
%TD*%
D33*
%TO.C,J1*%
X135800000Y-26200000D03*
D34*
X135800000Y-20200000D03*
D35*
X131100000Y-23200000D03*
%TD*%
D10*
%TO.C,1k\u03A9*%
X132910000Y-68950000D03*
D11*
X148150000Y-68950000D03*
%TD*%
D10*
%TO.C,2k\u03A9*%
X132910000Y-72850000D03*
D11*
X148150000Y-72850000D03*
%TD*%
D36*
%TO.C,U1*%
X155540000Y-57500000D03*
D37*
X158080000Y-57500000D03*
X160620000Y-57500000D03*
X163160000Y-57500000D03*
X165700000Y-57500000D03*
X168240000Y-57500000D03*
X170780000Y-57500000D03*
X173320000Y-57500000D03*
X175860000Y-57500000D03*
X178400000Y-57500000D03*
X180940000Y-57500000D03*
X183480000Y-57500000D03*
X186020000Y-57500000D03*
X188560000Y-57500000D03*
X191100000Y-57500000D03*
X193640000Y-57500000D03*
X196180000Y-57500000D03*
X198720000Y-57500000D03*
X201260000Y-57500000D03*
X155540000Y-32100000D03*
X158080000Y-32100000D03*
X160620000Y-32100000D03*
X163160000Y-32100000D03*
X165700000Y-32100000D03*
X168240000Y-32100000D03*
X170780000Y-32100000D03*
X173320000Y-32100000D03*
X175860000Y-32100000D03*
X178400000Y-32100000D03*
X180940000Y-32100000D03*
X183480000Y-32100000D03*
X186020000Y-32100000D03*
X188560000Y-32100000D03*
X191100000Y-32100000D03*
X193640000Y-32100000D03*
X196180000Y-32100000D03*
X198720000Y-32100000D03*
X201260000Y-32100000D03*
%TD*%
M02*
