%TF.GenerationSoftware,KiCad,Pcbnew,9.0.0*%
%TF.CreationDate,2025-07-16T00:17:05+02:00*%
%TF.ProjectId,OpenSpritzer2,4f70656e-5370-4726-9974-7a6572322e6b,rev?*%
%TF.SameCoordinates,Original*%
%TF.FileFunction,Copper,L1,Top*%
%TF.FilePolarity,Positive*%
%FSLAX46Y46*%
G04 Gerber Fmt 4.6, Leading zero omitted, Abs format (unit mm)*
G04 Created by KiCad (PCBNEW 9.0.0) date 2025-07-16 00:17:05*
%MOMM*%
%LPD*%
G01*
G04 APERTURE LIST*
G04 Aperture macros list*
%AMRoundRect*
0 Rectangle with rounded corners*
0 $1 Rounding radius*
0 $2 $3 $4 $5 $6 $7 $8 $9 X,Y pos of 4 corners*
0 Add a 4 corners polygon primitive as box body*
4,1,4,$2,$3,$4,$5,$6,$7,$8,$9,$2,$3,0*
0 Add four circle primitives for the rounded corners*
1,1,$1+$1,$2,$3*
1,1,$1+$1,$4,$5*
1,1,$1+$1,$6,$7*
1,1,$1+$1,$8,$9*
0 Add four rect primitives between the rounded corners*
20,1,$1+$1,$2,$3,$4,$5,0*
20,1,$1+$1,$4,$5,$6,$7,0*
20,1,$1+$1,$6,$7,$8,$9,0*
20,1,$1+$1,$8,$9,$2,$3,0*%
G04 Aperture macros list end*
%TA.AperFunction,ComponentPad*%
%ADD10C,1.600000*%
%TD*%
%TA.AperFunction,ComponentPad*%
%ADD11O,1.600000X1.600000*%
%TD*%
%TA.AperFunction,ComponentPad*%
%ADD12RoundRect,0.250000X-0.600000X-0.725000X0.600000X-0.725000X0.600000X0.725000X-0.600000X0.725000X0*%
%TD*%
%TA.AperFunction,ComponentPad*%
%ADD13O,1.700000X1.950000*%
%TD*%
%TA.AperFunction,ComponentPad*%
%ADD14RoundRect,0.250000X-0.600000X-0.750000X0.600000X-0.750000X0.600000X0.750000X-0.600000X0.750000X0*%
%TD*%
%TA.AperFunction,ComponentPad*%
%ADD15O,1.700000X2.000000*%
%TD*%
%TA.AperFunction,ComponentPad*%
%ADD16C,1.500000*%
%TD*%
%TA.AperFunction,ComponentPad*%
%ADD17R,1.500000X1.500000*%
%TD*%
%TA.AperFunction,ComponentPad*%
%ADD18R,1.700000X1.700000*%
%TD*%
%TA.AperFunction,ComponentPad*%
%ADD19O,1.700000X1.700000*%
%TD*%
%TA.AperFunction,ComponentPad*%
%ADD20R,1.800000X1.800000*%
%TD*%
%TA.AperFunction,ComponentPad*%
%ADD21C,1.800000*%
%TD*%
%TA.AperFunction,ComponentPad*%
%ADD22O,2.499360X1.600200*%
%TD*%
%TA.AperFunction,ComponentPad*%
%ADD23O,7.000240X3.500120*%
%TD*%
%TA.AperFunction,ComponentPad*%
%ADD24O,1.800000X1.800000*%
%TD*%
%TA.AperFunction,ComponentPad*%
%ADD25C,2.000000*%
%TD*%
%TA.AperFunction,ComponentPad*%
%ADD26C,1.850000*%
%TD*%
%TA.AperFunction,ComponentPad*%
%ADD27R,0.750000X1.750000*%
%TD*%
%TA.AperFunction,ComponentPad*%
%ADD28R,3.200000X3.200000*%
%TD*%
%TA.AperFunction,ComponentPad*%
%ADD29O,3.200000X3.200000*%
%TD*%
%TA.AperFunction,ComponentPad*%
%ADD30R,1.600000X1.600000*%
%TD*%
%TA.AperFunction,ComponentPad*%
%ADD31R,3.500000X3.500000*%
%TD*%
%TA.AperFunction,ComponentPad*%
%ADD32RoundRect,0.750000X-1.000000X0.750000X-1.000000X-0.750000X1.000000X-0.750000X1.000000X0.750000X0*%
%TD*%
%TA.AperFunction,ComponentPad*%
%ADD33RoundRect,0.875000X-0.875000X0.875000X-0.875000X-0.875000X0.875000X-0.875000X0.875000X0.875000X0*%
%TD*%
%TA.AperFunction,ComponentPad*%
%ADD34R,1.560000X1.560000*%
%TD*%
%TA.AperFunction,ComponentPad*%
%ADD35C,1.560000*%
%TD*%
%TA.AperFunction,Conductor*%
%ADD36C,0.250000*%
%TD*%
%TA.AperFunction,Conductor*%
%ADD37C,1.000000*%
%TD*%
G04 APERTURE END LIST*
D10*
%TO.P,R5,1*%
%TO.N,Net-(D4-A)*%
X82150000Y-84370000D03*
D11*
%TO.P,R5,2*%
%TO.N,VCC 5V*%
X82150000Y-69130000D03*
%TD*%
D10*
%TO.P,R3,1*%
%TO.N,Net-(R3-Pad1)*%
X150430000Y-68950000D03*
D11*
%TO.P,R3,2*%
%TO.N,GPIO34*%
X165670000Y-68950000D03*
%TD*%
D12*
%TO.P,U3,1,VCC*%
%TO.N,3.3V*%
X43250000Y-84300000D03*
D13*
%TO.P,U3,2,GND*%
%TO.N,GNDREF*%
X45750000Y-84300000D03*
%TO.P,U3,3,DIN*%
%TO.N,GPIO23*%
X48250000Y-84300000D03*
%TO.P,U3,4,CLK*%
%TO.N,GPIO18*%
X50750000Y-84300000D03*
%TO.P,U3,5,CS*%
%TO.N,GPIO15*%
X53250000Y-84300000D03*
%TO.P,U3,6,DC*%
%TO.N,GPIO4*%
X55750000Y-84300000D03*
%TO.P,U3,7,RST*%
%TO.N,GPIO0*%
X58250000Y-84300000D03*
%TO.P,U3,8,BL*%
%TO.N,GPIO2*%
X60750000Y-84300000D03*
%TD*%
D10*
%TO.P,1k\u03A9,1*%
%TO.N,Net-(Q1-B)*%
X115390000Y-68950000D03*
D11*
%TO.P,1k\u03A9,2*%
%TO.N,GPIO35*%
X130630000Y-68950000D03*
%TD*%
D14*
%TO.P,D4,1,K*%
%TO.N,Net-(D4-K)*%
X70750000Y-84300000D03*
D15*
%TO.P,D4,2,A*%
%TO.N,Net-(D4-A)*%
X73250000Y-84300000D03*
%TD*%
D16*
%TO.P,NPN,1,B*%
%TO.N,TTL Input*%
X94340000Y-54300000D03*
D17*
%TO.P,NPN,2,C*%
%TO.N,VCC 5V*%
X91800000Y-54300000D03*
D16*
%TO.P,NPN,3,E*%
%TO.N,Net-(J4-Pin_3)*%
X96880000Y-54300000D03*
%TD*%
D12*
%TO.P,J4,1,Pin_1*%
%TO.N,GNDREF*%
X105250000Y-49425000D03*
D13*
%TO.P,J4,2,Pin_2*%
%TO.N,Vin 24V*%
X107750000Y-49425000D03*
%TO.P,J4,3,Pin_3*%
%TO.N,Net-(J4-Pin_3)*%
X110250000Y-49425000D03*
%TD*%
D18*
%TO.P,SW3,1,A*%
%TO.N,GPIO25*%
X85800000Y-104600000D03*
D19*
%TO.P,SW3,2,C*%
%TO.N,GPIO26*%
X83260000Y-104600000D03*
%TO.P,SW3,3,B*%
%TO.N,GPIO21*%
X80720000Y-104600000D03*
%TO.P,SW3,4,S1*%
%TO.N,3.3V*%
X78180000Y-104600000D03*
%TO.P,SW3,5,S2*%
%TO.N,GNDREF*%
X75640000Y-104600000D03*
%TD*%
D16*
%TO.P,NPN,1,B*%
%TO.N,GPIO33*%
X67850000Y-69760000D03*
D17*
%TO.P,NPN,2,C*%
%TO.N,Net-(D4-K)*%
X67850000Y-72300000D03*
D16*
%TO.P,NPN,3,E*%
%TO.N,GNDREF*%
X67850000Y-67220000D03*
%TD*%
D20*
%TO.P,D2,1,K*%
%TO.N,GNDREF*%
X104300000Y-101800000D03*
D21*
%TO.P,D2,2,A*%
%TO.N,Net-(D2-A)*%
X106840000Y-101800000D03*
%TD*%
D10*
%TO.P,R1,1*%
%TO.N,Net-(D2-A)*%
X105600000Y-94020000D03*
D11*
%TO.P,R1,2*%
%TO.N,Net-(R1-Pad2)*%
X105600000Y-78780000D03*
%TD*%
D22*
%TO.P,J2,1,In*%
%TO.N,Net-(J2-In)*%
X193298740Y-69300000D03*
%TO.P,J2,2,Ext*%
%TO.N,VCC 5V*%
X193298740Y-66800640D03*
D23*
%TO.P,J2,GNDREF,Ext*%
%TO.N,N/C*%
X197563400Y-64202220D03*
X197563400Y-74400320D03*
%TD*%
D16*
%TO.P,NPN,1,B*%
%TO.N,Net-(Q1-B)*%
X93710000Y-73950000D03*
D17*
%TO.P,NPN,2,C*%
%TO.N,VCC 5V*%
X91170000Y-73950000D03*
D16*
%TO.P,NPN,3,E*%
%TO.N,Net-(Q1-E)*%
X96250000Y-73950000D03*
%TD*%
%TO.P,NPN,1,B*%
%TO.N,Net-(J3-In)*%
X103110000Y-73950000D03*
D17*
%TO.P,NPN,2,C*%
%TO.N,Net-(Q1-E)*%
X100570000Y-73950000D03*
D16*
%TO.P,NPN,3,E*%
%TO.N,TTL Input*%
X105650000Y-73950000D03*
%TD*%
D10*
%TO.P,2k\u03A9,1*%
%TO.N,GNDREF*%
X115410000Y-72850000D03*
D11*
%TO.P,2k\u03A9,2*%
%TO.N,GPIO35*%
X130650000Y-72850000D03*
%TD*%
D16*
%TO.P,NPN,1,B*%
%TO.N,TTL Input*%
X73650000Y-69760000D03*
D17*
%TO.P,NPN,2,C*%
%TO.N,Net-(D4-K)*%
X73650000Y-72300000D03*
D16*
%TO.P,NPN,3,E*%
%TO.N,GNDREF*%
X73650000Y-67220000D03*
%TD*%
D20*
%TO.P,U2,1,VIN*%
%TO.N,Vin 24V*%
X164050000Y-22150000D03*
D24*
%TO.P,U2,2,OUT*%
%TO.N,Net-(D1-K)*%
X165750000Y-18450000D03*
%TO.P,U2,3,GND*%
%TO.N,GNDREF*%
X167450000Y-22150000D03*
%TO.P,U2,4,FB*%
%TO.N,VCC 5V*%
X169150000Y-18450000D03*
%TO.P,U2,5,~{ON}/OFF*%
%TO.N,GNDREF*%
X170850000Y-22150000D03*
%TD*%
D16*
%TO.P,NPN,1,B*%
%TO.N,GPIO32*%
X94340000Y-49800000D03*
D17*
%TO.P,NPN,2,C*%
%TO.N,VCC 5V*%
X91800000Y-49800000D03*
D16*
%TO.P,NPN,3,E*%
%TO.N,Net-(J4-Pin_3)*%
X96880000Y-49800000D03*
%TD*%
D22*
%TO.P,J3,1,In*%
%TO.N,Net-(J3-In)*%
X193298740Y-20300000D03*
D23*
%TO.P,J3,2,Ext*%
%TO.N,GNDREF*%
X197563400Y-15202220D03*
D22*
X193298740Y-17800640D03*
D23*
X197563400Y-25400320D03*
%TD*%
D12*
%TO.P,SW1,1,1*%
%TO.N,Net-(J1-Pad1)*%
X149750000Y-16350000D03*
D13*
%TO.P,SW1,2,2*%
%TO.N,Vin 24V*%
X152250000Y-16350000D03*
%TO.P,SW1,3,K*%
%TO.N,GNDREF*%
X154750000Y-16350000D03*
%TD*%
D10*
%TO.P,10k\u03A9,1*%
%TO.N,GNDREF*%
X115390000Y-65050000D03*
D11*
%TO.P,10k\u03A9,2*%
%TO.N,Net-(Q1-B)*%
X130630000Y-65050000D03*
%TD*%
D25*
%TO.P,L1,1,1*%
%TO.N,Net-(D1-K)*%
X127400000Y-38400000D03*
%TO.P,L1,2,2*%
%TO.N,VCC 5V*%
X131400000Y-38400000D03*
%TD*%
D10*
%TO.P,R4,1*%
%TO.N,GNDREF*%
X150430000Y-65050000D03*
D11*
%TO.P,R4,2*%
%TO.N,GPIO34*%
X165670000Y-65050000D03*
%TD*%
D20*
%TO.P,D3,1,K*%
%TO.N,GNDREF*%
X89850000Y-101800000D03*
D21*
%TO.P,D3,2,A*%
%TO.N,Net-(D3-A)*%
X92390000Y-101800000D03*
%TD*%
D10*
%TO.P,R2,1*%
%TO.N,Net-(D3-A)*%
X91100000Y-94020000D03*
D11*
%TO.P,R2,2*%
%TO.N,Net-(Q1-B)*%
X91100000Y-78780000D03*
%TD*%
D10*
%TO.P,10k\u03A9,1*%
%TO.N,GNDREF*%
X132910000Y-65050000D03*
D11*
%TO.P,10k\u03A9,2*%
%TO.N,Net-(R1-Pad2)*%
X148150000Y-65050000D03*
%TD*%
D26*
%TO.P,SW2,*%
%TO.N,*%
X95600000Y-100850000D03*
X101000000Y-100850000D03*
D27*
%TO.P,SW2,1,A*%
%TO.N,Net-(R1-Pad2)*%
X95760000Y-93230000D03*
%TO.P,SW2,2,B*%
%TO.N,VCC 5V*%
X98300000Y-93230000D03*
%TO.P,SW2,3,C*%
%TO.N,Net-(Q1-B)*%
X100840000Y-93230000D03*
%TO.P,SW2,4,A*%
%TO.N,Net-(J2-In)*%
X95760000Y-95770000D03*
%TO.P,SW2,5,B*%
%TO.N,Net-(R3-Pad1)*%
X98300000Y-95770000D03*
%TO.P,SW2,6,C*%
%TO.N,GNDREF*%
X100840000Y-95770000D03*
%TD*%
D28*
%TO.P,D1,1,K*%
%TO.N,Net-(D1-K)*%
X123050000Y-38420000D03*
D29*
%TO.P,D1,2,A*%
%TO.N,GNDREF*%
X123050000Y-23180000D03*
%TD*%
D30*
%TO.P,C1,1*%
%TO.N,Vin 24V*%
X152232380Y-25300000D03*
D10*
%TO.P,C1,2*%
%TO.N,GNDREF*%
X149732380Y-25300000D03*
%TD*%
D30*
%TO.P,C2,1*%
%TO.N,VCC 5V*%
X137767621Y-38400000D03*
D10*
%TO.P,C2,2*%
%TO.N,GNDREF*%
X140267621Y-38400000D03*
%TD*%
D31*
%TO.P,J1,1*%
%TO.N,Net-(J1-Pad1)*%
X135800000Y-26200000D03*
D32*
%TO.P,J1,2*%
%TO.N,GNDREF*%
X135800000Y-20200000D03*
D33*
%TO.P,J1,3*%
X131100000Y-23200000D03*
%TD*%
D10*
%TO.P,1k\u03A9,1*%
%TO.N,Net-(R1-Pad2)*%
X132910000Y-68950000D03*
D11*
%TO.P,1k\u03A9,2*%
%TO.N,GPIO27*%
X148150000Y-68950000D03*
%TD*%
D10*
%TO.P,2k\u03A9,1*%
%TO.N,GNDREF*%
X132910000Y-72850000D03*
D11*
%TO.P,2k\u03A9,2*%
%TO.N,GPIO27*%
X148150000Y-72850000D03*
%TD*%
D34*
%TO.P,U1,1,3V3*%
%TO.N,3.3V*%
X155540000Y-57500000D03*
D35*
%TO.P,U1,2,EN*%
%TO.N,unconnected-(U1-EN-Pad2)*%
X158080000Y-57500000D03*
%TO.P,U1,3,SENSOR_VP*%
%TO.N,unconnected-(U1-SENSOR_VP-Pad3)*%
X160620000Y-57500000D03*
%TO.P,U1,4,SENSOR_VN*%
%TO.N,unconnected-(U1-SENSOR_VN-Pad4)*%
X163160000Y-57500000D03*
%TO.P,U1,5,IO34*%
%TO.N,GPIO34*%
X165700000Y-57500000D03*
%TO.P,U1,6,IO35*%
%TO.N,GPIO35*%
X168240000Y-57500000D03*
%TO.P,U1,7,IO32*%
%TO.N,GPIO32*%
X170780000Y-57500000D03*
%TO.P,U1,8,IO33*%
%TO.N,GPIO33*%
X173320000Y-57500000D03*
%TO.P,U1,9,IO25*%
%TO.N,GPIO25*%
X175860000Y-57500000D03*
%TO.P,U1,10,IO26*%
%TO.N,GPIO26*%
X178400000Y-57500000D03*
%TO.P,U1,11,IO27*%
%TO.N,GPIO27*%
X180940000Y-57500000D03*
%TO.P,U1,12,IO14*%
%TO.N,unconnected-(U1-IO14-Pad12)*%
X183480000Y-57500000D03*
%TO.P,U1,13,IO12*%
%TO.N,unconnected-(U1-IO12-Pad13)*%
X186020000Y-57500000D03*
%TO.P,U1,14,GND1*%
%TO.N,GNDREF*%
X188560000Y-57500000D03*
%TO.P,U1,15,IO13*%
%TO.N,unconnected-(U1-IO13-Pad15)*%
X191100000Y-57500000D03*
%TO.P,U1,16,SD2*%
%TO.N,unconnected-(U1-SD2-Pad16)*%
X193640000Y-57500000D03*
%TO.P,U1,17,SD3*%
%TO.N,unconnected-(U1-SD3-Pad17)*%
X196180000Y-57500000D03*
%TO.P,U1,18,CMD*%
%TO.N,unconnected-(U1-CMD-Pad18)*%
X198720000Y-57500000D03*
%TO.P,U1,19,EXT_5V*%
%TO.N,VCC 5V*%
X201260000Y-57500000D03*
%TO.P,U1,20,GND3*%
%TO.N,GNDREF*%
X155540000Y-32100000D03*
%TO.P,U1,21,IO23*%
%TO.N,GPIO23*%
X158080000Y-32100000D03*
%TO.P,U1,22,IO22*%
%TO.N,unconnected-(U1-IO22-Pad22)*%
X160620000Y-32100000D03*
%TO.P,U1,23,TXD0*%
%TO.N,unconnected-(U1-TXD0-Pad23)*%
X163160000Y-32100000D03*
%TO.P,U1,24,RXD0*%
%TO.N,unconnected-(U1-RXD0-Pad24)*%
X165700000Y-32100000D03*
%TO.P,U1,25,IO21*%
%TO.N,GPIO21*%
X168240000Y-32100000D03*
%TO.P,U1,26,GND2*%
%TO.N,GNDREF*%
X170780000Y-32100000D03*
%TO.P,U1,27,IO19*%
%TO.N,unconnected-(U1-IO19-Pad27)*%
X173320000Y-32100000D03*
%TO.P,U1,28,IO18*%
%TO.N,GPIO18*%
X175860000Y-32100000D03*
%TO.P,U1,29,IO5*%
%TO.N,unconnected-(U1-IO5-Pad29)*%
X178400000Y-32100000D03*
%TO.P,U1,30,IO17*%
%TO.N,unconnected-(U1-IO17-Pad30)*%
X180940000Y-32100000D03*
%TO.P,U1,31,IO16*%
%TO.N,unconnected-(U1-IO16-Pad31)*%
X183480000Y-32100000D03*
%TO.P,U1,32,IO4*%
%TO.N,GPIO4*%
X186020000Y-32100000D03*
%TO.P,U1,33,IO0*%
%TO.N,GPIO0*%
X188560000Y-32100000D03*
%TO.P,U1,34,IO2*%
%TO.N,GPIO2*%
X191100000Y-32100000D03*
%TO.P,U1,35,IO15*%
%TO.N,GPIO15*%
X193640000Y-32100000D03*
%TO.P,U1,36,SD1*%
%TO.N,unconnected-(U1-SD1-Pad36)*%
X196180000Y-32100000D03*
%TO.P,U1,37,SD0*%
%TO.N,unconnected-(U1-SD0-Pad37)*%
X198720000Y-32100000D03*
%TO.P,U1,38,CLK*%
%TO.N,unconnected-(U1-CLK-Pad38)*%
X201260000Y-32100000D03*
%TD*%
D36*
%TO.N,VCC 5V*%
X98300000Y-84450000D02*
X98300000Y-93230000D01*
X107650000Y-75100000D02*
X98300000Y-84450000D01*
X107650000Y-63950000D02*
X107650000Y-75100000D01*
X106158000Y-62458000D02*
X107650000Y-63950000D01*
X98544480Y-62458000D02*
X106158000Y-62458000D01*
X91170000Y-69832480D02*
X98544480Y-62458000D01*
X91170000Y-73950000D02*
X91170000Y-69832480D01*
%TO.N,3.3V*%
X151033000Y-62007000D02*
X155540000Y-57500000D01*
X98357670Y-62007000D02*
X151033000Y-62007000D01*
X79728670Y-80636000D02*
X98357670Y-62007000D01*
X69964000Y-80636000D02*
X79728670Y-80636000D01*
X68100000Y-82500000D02*
X69964000Y-80636000D01*
X68100000Y-82500000D02*
X69250000Y-81350000D01*
%TO.N,Net-(J3-In)*%
X98170860Y-61556000D02*
X102350000Y-61556000D01*
X79541860Y-80185000D02*
X98170860Y-61556000D01*
X69777190Y-80185000D02*
X79541860Y-80185000D01*
X46297000Y-87197000D02*
X62765190Y-87197000D01*
X62765190Y-87197000D02*
X69777190Y-80185000D01*
X44550000Y-85450000D02*
X46297000Y-87197000D01*
X44550000Y-82650000D02*
X44550000Y-85450000D01*
X41350000Y-82050000D02*
X43950000Y-82050000D01*
X40551000Y-82849000D02*
X41350000Y-82050000D01*
X40551000Y-87063190D02*
X40551000Y-82849000D01*
X41586810Y-88099000D02*
X40551000Y-87063190D01*
X93375380Y-88099000D02*
X41586810Y-88099000D01*
X103110000Y-78364380D02*
X93375380Y-88099000D01*
X43950000Y-82050000D02*
X44550000Y-82650000D01*
X103110000Y-73950000D02*
X103110000Y-78364380D01*
X102350000Y-61556000D02*
X147370860Y-61556000D01*
%TO.N,3.3V*%
X62952000Y-87648000D02*
X68100000Y-82500000D01*
X44548000Y-87648000D02*
X62952000Y-87648000D01*
X43250000Y-86350000D02*
X44548000Y-87648000D01*
X43250000Y-84300000D02*
X43250000Y-86350000D01*
%TO.N,GPIO33*%
X173320000Y-66980000D02*
X173320000Y-57500000D01*
X168950000Y-71350000D02*
X173320000Y-66980000D01*
X164050000Y-71350000D02*
X168950000Y-71350000D01*
X159450000Y-66750000D02*
X164050000Y-71350000D01*
X145187810Y-66750000D02*
X159450000Y-66750000D01*
X109069000Y-79231000D02*
X132706810Y-79231000D01*
X99550000Y-88750000D02*
X109069000Y-79231000D01*
X99550000Y-94150000D02*
X99550000Y-88750000D01*
X99250000Y-94450000D02*
X99550000Y-94150000D01*
X97450000Y-94450000D02*
X99250000Y-94450000D01*
X97050000Y-94050000D02*
X97450000Y-94450000D01*
X93550000Y-89050000D02*
X97050000Y-92550000D01*
X41262190Y-89050000D02*
X93550000Y-89050000D01*
X39649000Y-81113190D02*
X39649000Y-87436810D01*
X39649000Y-87436810D02*
X41262190Y-89050000D01*
X132706810Y-79231000D02*
X145187810Y-66750000D01*
X44216190Y-76546000D02*
X39649000Y-81113190D01*
X61064000Y-76546000D02*
X44216190Y-76546000D01*
X97050000Y-92550000D02*
X97050000Y-94050000D01*
X67850000Y-69760000D02*
X61064000Y-76546000D01*
%TO.N,TTL Input*%
X105650000Y-76462190D02*
X105650000Y-73950000D01*
X41400000Y-88550000D02*
X93562190Y-88550000D01*
X44403000Y-76997000D02*
X40100000Y-81300000D01*
X66413000Y-76997000D02*
X44403000Y-76997000D01*
X40100000Y-81300000D02*
X40100000Y-87250000D01*
X73650000Y-69760000D02*
X66413000Y-76997000D01*
X40100000Y-87250000D02*
X41400000Y-88550000D01*
X93562190Y-88550000D02*
X105650000Y-76462190D01*
%TO.N,GPIO35*%
X168240000Y-55340000D02*
X168240000Y-57500000D01*
X166352000Y-53452000D02*
X168240000Y-55340000D01*
X161848000Y-53452000D02*
X166352000Y-53452000D01*
X159350000Y-55950000D02*
X161848000Y-53452000D01*
X159350000Y-61550000D02*
X159350000Y-55950000D01*
X157550000Y-63350000D02*
X159350000Y-61550000D01*
X136230000Y-63350000D02*
X157550000Y-63350000D01*
X130630000Y-68950000D02*
X136230000Y-63350000D01*
%TO.N,GPIO2*%
X188350000Y-52550000D02*
X191100000Y-49800000D01*
X155739050Y-52550000D02*
X188350000Y-52550000D01*
X147184050Y-61105000D02*
X155739050Y-52550000D01*
X97984050Y-61105000D02*
X147184050Y-61105000D01*
X79355050Y-79734000D02*
X97984050Y-61105000D01*
X191100000Y-49800000D02*
X191100000Y-32100000D01*
X65316000Y-79734000D02*
X79355050Y-79734000D01*
X60750000Y-84300000D02*
X65316000Y-79734000D01*
%TO.N,GPIO0*%
X188560000Y-50240000D02*
X188560000Y-32100000D01*
X186701000Y-52099000D02*
X188560000Y-50240000D01*
X155552240Y-52099000D02*
X186701000Y-52099000D01*
X97797240Y-60654000D02*
X146997240Y-60654000D01*
X146997240Y-60654000D02*
X155552240Y-52099000D01*
X63267000Y-79283000D02*
X79168240Y-79283000D01*
X79168240Y-79283000D02*
X97797240Y-60654000D01*
X58250000Y-84300000D02*
X63267000Y-79283000D01*
%TO.N,GPIO4*%
X184222000Y-51648000D02*
X185585000Y-50285000D01*
X155365430Y-51648000D02*
X184222000Y-51648000D01*
X146810430Y-60203000D02*
X155365430Y-51648000D01*
X97610430Y-60203000D02*
X146810430Y-60203000D01*
X79012430Y-78801000D02*
X97610430Y-60203000D01*
X76381000Y-78801000D02*
X79012430Y-78801000D01*
X61218000Y-78832000D02*
X76350000Y-78832000D01*
X76350000Y-78832000D02*
X76381000Y-78801000D01*
X55750000Y-84300000D02*
X61218000Y-78832000D01*
%TO.N,GPIO15*%
X193640000Y-30540000D02*
X193640000Y-32100000D01*
X192950000Y-29850000D02*
X193640000Y-30540000D01*
X185750000Y-29850000D02*
X192950000Y-29850000D01*
X184750000Y-30850000D02*
X185750000Y-29850000D01*
X184750000Y-49797000D02*
X184750000Y-30850000D01*
X183350000Y-51197000D02*
X184750000Y-49797000D01*
X155178620Y-51197000D02*
X183350000Y-51197000D01*
X146623620Y-59752000D02*
X155178620Y-51197000D01*
X97423620Y-59752000D02*
X146623620Y-59752000D01*
X78825620Y-78350000D02*
X97423620Y-59752000D01*
X59200000Y-78350000D02*
X78825620Y-78350000D01*
X53250000Y-84300000D02*
X59200000Y-78350000D01*
%TO.N,GPIO18*%
X175860000Y-49240000D02*
X175860000Y-32100000D01*
X174354000Y-50746000D02*
X175860000Y-49240000D01*
X146436810Y-59301000D02*
X154991810Y-50746000D01*
X97236810Y-59301000D02*
X146436810Y-59301000D01*
X78638810Y-77899000D02*
X97236810Y-59301000D01*
X57151000Y-77899000D02*
X78638810Y-77899000D01*
X50750000Y-84300000D02*
X57151000Y-77899000D01*
X154991810Y-50746000D02*
X174354000Y-50746000D01*
%TO.N,GPIO23*%
X158080000Y-47020000D02*
X158080000Y-32100000D01*
X97050000Y-58850000D02*
X146250000Y-58850000D01*
X146250000Y-58850000D02*
X158080000Y-47020000D01*
X78452000Y-77448000D02*
X97050000Y-58850000D01*
X55102000Y-77448000D02*
X78452000Y-77448000D01*
X48250000Y-84300000D02*
X55102000Y-77448000D01*
%TO.N,Net-(J3-In)*%
X166950000Y-33750000D02*
X166950000Y-31150000D01*
X169603000Y-28497000D02*
X185101740Y-28497000D01*
X167550000Y-34350000D02*
X166950000Y-33750000D01*
X171150000Y-34350000D02*
X167550000Y-34350000D01*
X172050000Y-30850000D02*
X172050000Y-33450000D01*
X166950000Y-31150000D02*
X169603000Y-28497000D01*
X173501000Y-29399000D02*
X172050000Y-30850000D01*
X200861190Y-29399000D02*
X173501000Y-29399000D01*
X203099000Y-31636810D02*
X200861190Y-29399000D01*
X155925860Y-53001000D02*
X201499000Y-53001000D01*
X185101740Y-28497000D02*
X193298740Y-20300000D01*
X147370860Y-61556000D02*
X155925860Y-53001000D01*
X203099000Y-51401000D02*
X203099000Y-31636810D01*
X201499000Y-53001000D02*
X203099000Y-51401000D01*
X100370860Y-61556000D02*
X102350000Y-61556000D01*
X172050000Y-33450000D02*
X171150000Y-34350000D01*
%TO.N,VCC 5V*%
X93650000Y-51650000D02*
X118150000Y-51650000D01*
X91800000Y-49800000D02*
X93650000Y-51650000D01*
X118150000Y-51650000D02*
X131400000Y-38400000D01*
%TO.N,GPIO21*%
X171392000Y-28948000D02*
X168240000Y-32100000D01*
X202501000Y-54299000D02*
X203550000Y-53250000D01*
X203550000Y-53250000D02*
X203550000Y-31450000D01*
X174550000Y-56850000D02*
X177101000Y-54299000D01*
X201048000Y-28948000D02*
X171392000Y-28948000D01*
X175450000Y-59950000D02*
X174550000Y-59050000D01*
X179650000Y-58750000D02*
X178450000Y-59950000D01*
X203550000Y-31450000D02*
X201048000Y-28948000D01*
X179650000Y-56887810D02*
X179650000Y-58750000D01*
X178450000Y-59950000D02*
X175450000Y-59950000D01*
X180885810Y-55652000D02*
X179650000Y-56887810D01*
X203848000Y-96576380D02*
X203848000Y-57323620D01*
X89836810Y-104548000D02*
X195876380Y-104548000D01*
X177101000Y-54299000D02*
X202501000Y-54299000D01*
X202176380Y-55652000D02*
X180885810Y-55652000D01*
X87587810Y-102299000D02*
X89836810Y-104548000D01*
X195876380Y-104548000D02*
X203848000Y-96576380D01*
X174550000Y-59050000D02*
X174550000Y-56850000D01*
X203848000Y-57323620D02*
X202176380Y-55652000D01*
X83021000Y-102299000D02*
X87587810Y-102299000D01*
X80720000Y-104600000D02*
X83021000Y-102299000D01*
%TO.N,GPIO25*%
X178610000Y-54750000D02*
X175860000Y-57500000D01*
X204750000Y-56950000D02*
X202550000Y-54750000D01*
X202550000Y-54750000D02*
X178610000Y-54750000D01*
X196250000Y-105450000D02*
X204750000Y-96950000D01*
X89463190Y-105450000D02*
X196250000Y-105450000D01*
X204750000Y-96950000D02*
X204750000Y-56950000D01*
X88613190Y-104600000D02*
X89463190Y-105450000D01*
X85800000Y-104600000D02*
X88613190Y-104600000D01*
%TO.N,Net-(R3-Pad1)*%
X144502520Y-103646000D02*
X150430000Y-97718520D01*
X101546000Y-103646000D02*
X144502520Y-103646000D01*
X98300000Y-100400000D02*
X101546000Y-103646000D01*
X150430000Y-97718520D02*
X150430000Y-68950000D01*
X98300000Y-95880511D02*
X98300000Y-100400000D01*
%TO.N,Net-(J2-In)*%
X95760000Y-98497810D02*
X95760000Y-95770000D01*
X101359190Y-104097000D02*
X95760000Y-98497810D01*
X188603000Y-104097000D02*
X101359190Y-104097000D01*
X193298740Y-99401260D02*
X188603000Y-104097000D01*
X193298740Y-69300000D02*
X193298740Y-99401260D01*
%TO.N,GPIO27*%
X159263190Y-67201000D02*
X149899000Y-67201000D01*
X171599000Y-71801000D02*
X163863190Y-71801000D01*
X163863190Y-71801000D02*
X159263190Y-67201000D01*
X149899000Y-67201000D02*
X148150000Y-68950000D01*
X180940000Y-57500000D02*
X180940000Y-62460000D01*
X180940000Y-62460000D02*
X171599000Y-71801000D01*
%TO.N,GPIO26*%
X204299000Y-96763190D02*
X202581095Y-98481095D01*
X204299000Y-57136810D02*
X204299000Y-96763190D01*
X202363190Y-55201000D02*
X204299000Y-57136810D01*
X178400000Y-57500000D02*
X180699000Y-55201000D01*
X180699000Y-55201000D02*
X202363190Y-55201000D01*
X202581095Y-98481095D02*
X203350000Y-97712190D01*
X89650000Y-104999000D02*
X196063190Y-104999000D01*
X87401000Y-102750000D02*
X89650000Y-104999000D01*
X83750000Y-102750000D02*
X87401000Y-102750000D01*
X196063190Y-104999000D02*
X202581095Y-98481095D01*
X83260000Y-103240000D02*
X83750000Y-102750000D01*
X83260000Y-104600000D02*
X83260000Y-103240000D01*
X178400000Y-57500000D02*
X180050000Y-55850000D01*
%TO.N,VCC 5V*%
X204950000Y-53810000D02*
X204950000Y-49350000D01*
X204950000Y-49350000D02*
X204950000Y-16350000D01*
%TO.N,GPIO4*%
X185585000Y-50285000D02*
X186020000Y-49850000D01*
X184650000Y-51220000D02*
X185585000Y-50285000D01*
X186020000Y-45150000D02*
X186020000Y-49850000D01*
X186020000Y-32100000D02*
X186020000Y-45150000D01*
%TO.N,Net-(D4-A)*%
X82080000Y-84300000D02*
X82150000Y-84370000D01*
X73250000Y-84300000D02*
X82080000Y-84300000D01*
%TO.N,TTL Input*%
X90660000Y-52750000D02*
X73650000Y-69760000D01*
X92790000Y-52750000D02*
X90660000Y-52750000D01*
X94340000Y-54300000D02*
X92790000Y-52750000D01*
%TO.N,Net-(R1-Pad2)*%
X136810000Y-65050000D02*
X132910000Y-68950000D01*
X148150000Y-65050000D02*
X136810000Y-65050000D01*
%TO.N,Net-(Q1-B)*%
X119290000Y-65050000D02*
X115390000Y-68950000D01*
X130630000Y-65050000D02*
X119290000Y-65050000D01*
%TO.N,Net-(R1-Pad2)*%
X135650000Y-71690000D02*
X132910000Y-68950000D01*
X135650000Y-75650000D02*
X135650000Y-71690000D01*
X132520000Y-78780000D02*
X135650000Y-75650000D01*
X105600000Y-78780000D02*
X132520000Y-78780000D01*
D37*
%TO.N,Vin 24V*%
X152250000Y-16350000D02*
X152250000Y-25282380D01*
X160900000Y-25300000D02*
X164050000Y-22150000D01*
X152232380Y-25300000D02*
X152232380Y-26350000D01*
D36*
X152250000Y-25282380D02*
X152232380Y-25300000D01*
D37*
X115950000Y-30800000D02*
X107750000Y-39000000D01*
X147782380Y-30800000D02*
X115950000Y-30800000D01*
X152232380Y-25300000D02*
X160900000Y-25300000D01*
X107750000Y-39000000D02*
X107750000Y-49425000D01*
X152232380Y-26350000D02*
X147782380Y-30800000D01*
D36*
%TO.N,VCC 5V*%
X169150000Y-18450000D02*
X169150000Y-25150000D01*
X201450000Y-12850000D02*
X174750000Y-12850000D01*
X169150000Y-25150000D02*
X167450000Y-26850000D01*
X131400000Y-38400000D02*
X137767621Y-38400000D01*
X167450000Y-26850000D02*
X154250000Y-26850000D01*
X204950000Y-16350000D02*
X201450000Y-12850000D01*
X82150000Y-69130000D02*
X82150000Y-63950000D01*
X140400000Y-32750000D02*
X137767621Y-35382379D01*
X154250000Y-26850000D02*
X148350000Y-32750000D01*
X82150000Y-63950000D02*
X91800000Y-54300000D01*
X174750000Y-12850000D02*
X169150000Y-18450000D01*
X137767621Y-35382379D02*
X137767621Y-38400000D01*
X148350000Y-32750000D02*
X140400000Y-32750000D01*
%TO.N,Net-(D3-A)*%
X91100000Y-100510000D02*
X92390000Y-101800000D01*
X91100000Y-94020000D02*
X91100000Y-100510000D01*
%TO.N,Net-(Q1-B)*%
X93710000Y-73950000D02*
X93710000Y-76170000D01*
X93710000Y-76170000D02*
X91100000Y-78780000D01*
D37*
%TO.N,Net-(J1-Pad1)*%
X135800000Y-26200000D02*
X139900000Y-26200000D01*
X139900000Y-26200000D02*
X149750000Y-16350000D01*
D36*
%TO.N,Net-(D2-A)*%
X105600000Y-100560000D02*
X106840000Y-101800000D01*
X105600000Y-94020000D02*
X105600000Y-100560000D01*
%TO.N,GPIO34*%
X165700000Y-57500000D02*
X165700000Y-65020000D01*
X165700000Y-65020000D02*
X165670000Y-65050000D01*
X165670000Y-57530000D02*
X165700000Y-57500000D01*
X165670000Y-68950000D02*
X165670000Y-65050000D01*
%TO.N,GPIO27*%
X148150000Y-72850000D02*
X148150000Y-68950000D01*
%TO.N,GPIO35*%
X130650000Y-68970000D02*
X130630000Y-68950000D01*
X130650000Y-72850000D02*
X130650000Y-68970000D01*
%TO.N,Net-(Q1-E)*%
X96250000Y-73950000D02*
X100570000Y-73950000D01*
%TO.N,Net-(D1-K)*%
X165750000Y-24750000D02*
X164250000Y-26250000D01*
X165750000Y-18450000D02*
X165750000Y-24750000D01*
X127380000Y-38420000D02*
X127400000Y-38400000D01*
X164250000Y-26250000D02*
X153900000Y-26250000D01*
X153900000Y-26250000D02*
X148150000Y-32000000D01*
X130900000Y-32000000D02*
X127400000Y-35500000D01*
X123050000Y-38420000D02*
X127380000Y-38420000D01*
X127400000Y-35500000D02*
X127400000Y-38400000D01*
X148150000Y-32000000D02*
X130900000Y-32000000D01*
%TD*%
M02*
