  0
SECTION
  2
BLOCKS
  0
ENDSEC
  0
SECTION
  2
ENTITIES
  0
LINE
  8
0
 10
200.523
 20
-4.9726
 11
201.04
 21
-4.89073
  0
LINE
  8
0
 10
201.04
 20
-4.89073
 11
201.545
 21
-4.75528
  0
LINE
  8
0
 10
201.545
 20
-4.75528
 11
202.034
 21
-4.56772
  0
LINE
  8
0
 10
202.034
 20
-4.56772
 11
202.5
 21
-4.33012
  0
LINE
  8
0
 10
202.5
 20
-4.33012
 11
202.939
 21
-4.04507
  0
LINE
  8
0
 10
202.939
 20
-4.04507
 11
203.346
 21
-3.71571
  0
LINE
  8
0
 10
203.346
 20
-3.71571
 11
203.716
 21
-3.34564
  0
LINE
  8
0
 10
203.716
 20
-3.34564
 11
204.045
 21
-2.93892
  0
LINE
  8
0
 10
204.045
 20
-2.93892
 11
204.33
 21
-2.5
  0
LINE
  8
0
 10
204.33
 20
-2.5
 11
204.568
 21
-2.03368
  0
LINE
  8
0
 10
204.568
 20
-2.03368
 11
204.755
 21
-1.54507
  0
LINE
  8
0
 10
204.755
 20
-1.54507
 11
204.891
 21
-1.03955
  0
LINE
  8
0
 10
204.891
 20
-1.03955
 11
204.973
 21
-0.522629
  0
LINE
  8
0
 10
204.973
 20
-0.522629
 11
205
 21
0
  0
LINE
  8
0
 10
205
 20
0
 11
205
 21
100
  0
LINE
  8
0
 10
205
 20
100
 11
204.973
 21
100.523
  0
LINE
  8
0
 10
204.973
 20
100.523
 11
204.891
 21
101.04
  0
LINE
  8
0
 10
204.891
 20
101.04
 11
204.755
 21
101.545
  0
LINE
  8
0
 10
204.755
 20
101.545
 11
204.568
 21
102.034
  0
LINE
  8
0
 10
204.568
 20
102.034
 11
204.33
 21
102.5
  0
LINE
  8
0
 10
204.33
 20
102.5
 11
204.045
 21
102.939
  0
LINE
  8
0
 10
204.045
 20
102.939
 11
203.716
 21
103.346
  0
LINE
  8
0
 10
203.716
 20
103.346
 11
203.346
 21
103.716
  0
LINE
  8
0
 10
203.346
 20
103.716
 11
202.939
 21
104.045
  0
LINE
  8
0
 10
202.939
 20
104.045
 11
202.5
 21
104.33
  0
LINE
  8
0
 10
202.5
 20
104.33
 11
202.034
 21
104.568
  0
LINE
  8
0
 10
202.034
 20
104.568
 11
201.545
 21
104.755
  0
LINE
  8
0
 10
201.545
 20
104.755
 11
201.04
 21
104.891
  0
LINE
  8
0
 10
201.04
 20
104.891
 11
200.523
 21
104.973
  0
LINE
  8
0
 10
200.523
 20
104.973
 11
200
 21
105
  0
LINE
  8
0
 10
200
 20
105
 11
0
 21
105
  0
LINE
  8
0
 10
0
 20
105
 11
-0.522629
 21
104.973
  0
LINE
  8
0
 10
-0.522629
 20
104.973
 11
-1.03955
 21
104.891
  0
LINE
  8
0
 10
-1.03955
 20
104.891
 11
-1.54507
 21
104.755
  0
LINE
  8
0
 10
-1.54507
 20
104.755
 11
-2.03368
 21
104.568
  0
LINE
  8
0
 10
-2.03368
 20
104.568
 11
-2.5
 21
104.33
  0
LINE
  8
0
 10
-2.5
 20
104.33
 11
-2.93892
 21
104.045
  0
LINE
  8
0
 10
-2.93892
 20
104.045
 11
-3.34564
 21
103.716
  0
LINE
  8
0
 10
-3.34564
 20
103.716
 11
-3.71571
 21
103.346
  0
LINE
  8
0
 10
-3.71571
 20
103.346
 11
-4.04507
 21
102.939
  0
LINE
  8
0
 10
-4.04507
 20
102.939
 11
-4.33012
 21
102.5
  0
LINE
  8
0
 10
-4.33012
 20
102.5
 11
-4.56772
 21
102.034
  0
LINE
  8
0
 10
-4.56772
 20
102.034
 11
-4.75528
 21
101.545
  0
LINE
  8
0
 10
-4.75528
 20
101.545
 11
-4.89073
 21
101.04
  0
LINE
  8
0
 10
-4.89073
 20
101.04
 11
-4.9726
 21
100.523
  0
LINE
  8
0
 10
-4.9726
 20
100.523
 11
-5
 21
100
  0
LINE
  8
0
 10
-5
 20
100
 11
-5
 21
0
  0
LINE
  8
0
 10
-5
 20
0
 11
-4.9726
 21
-0.522629
  0
LINE
  8
0
 10
-4.9726
 20
-0.522629
 11
-4.89073
 21
-1.03955
  0
LINE
  8
0
 10
-4.89073
 20
-1.03955
 11
-4.75528
 21
-1.54507
  0
LINE
  8
0
 10
-4.75528
 20
-1.54507
 11
-4.56772
 21
-2.03368
  0
LINE
  8
0
 10
-4.56772
 20
-2.03368
 11
-4.33012
 21
-2.5
  0
LINE
  8
0
 10
-4.33012
 20
-2.5
 11
-4.04507
 21
-2.93892
  0
LINE
  8
0
 10
-4.04507
 20
-2.93892
 11
-3.71571
 21
-3.34564
  0
LINE
  8
0
 10
-3.71571
 20
-3.34564
 11
-3.34564
 21
-3.71571
  0
LINE
  8
0
 10
-3.34564
 20
-3.71571
 11
-2.93892
 21
-4.04507
  0
LINE
  8
0
 10
-2.93892
 20
-4.04507
 11
-2.5
 21
-4.33012
  0
LINE
  8
0
 10
-2.5
 20
-4.33012
 11
-2.03368
 21
-4.56772
  0
LINE
  8
0
 10
-2.03368
 20
-4.56772
 11
-1.54507
 21
-4.75528
  0
LINE
  8
0
 10
-1.54507
 20
-4.75528
 11
-1.03955
 21
-4.89073
  0
LINE
  8
0
 10
-1.03955
 20
-4.89073
 11
-0.522629
 21
-4.9726
  0
LINE
  8
0
 10
-0.522629
 20
-4.9726
 11
0
 21
-5
  0
LINE
  8
0
 10
0
 20
-5
 11
200
 21
-5
  0
LINE
  8
0
 10
200
 20
-5
 11
200.523
 21
-4.9726
  0
LINE
  8
0
 10
138.66
 20
96.9
 11
138.66
 21
100.1
  0
LINE
  8
0
 10
138.66
 20
100.1
 11
158.24
 21
100.1
  0
LINE
  8
0
 10
158.24
 20
100.1
 11
158.24
 21
96.9
  0
LINE
  8
0
 10
158.24
 20
96.9
 11
138.66
 21
96.9
  0
LINE
  8
0
 10
99.9
 20
96.9
 11
99.9
 21
100.1
  0
LINE
  8
0
 10
99.9
 20
100.1
 11
119.48
 21
100.1
  0
LINE
  8
0
 10
119.48
 20
100.1
 11
119.48
 21
96.9
  0
LINE
  8
0
 10
119.48
 20
96.9
 11
99.9
 21
96.9
  0
LINE
  8
0
 10
177.42
 20
96.9
 11
177.42
 21
100.1
  0
LINE
  8
0
 10
177.42
 20
100.1
 11
197
 21
100.1
  0
LINE
  8
0
 10
197
 20
100.1
 11
197
 21
96.9
  0
LINE
  8
0
 10
197
 20
96.9
 11
177.42
 21
96.9
  0
LINE
  8
0
 10
22.38
 20
96.9
 11
22.38
 21
100.1
  0
LINE
  8
0
 10
22.38
 20
100.1
 11
41.96
 21
100.1
  0
LINE
  8
0
 10
41.96
 20
100.1
 11
41.96
 21
96.9
  0
LINE
  8
0
 10
41.96
 20
96.9
 11
22.38
 21
96.9
  0
LINE
  8
0
 10
61.14
 20
96.9
 11
61.14
 21
100.1
  0
LINE
  8
0
 10
61.14
 20
100.1
 11
80.72
 21
100.1
  0
LINE
  8
0
 10
80.72
 20
100.1
 11
80.72
 21
96.9
  0
LINE
  8
0
 10
80.72
 20
96.9
 11
61.14
 21
96.9
  0
LINE
  8
0
 10
-0.0999908
 20
85.075
 11
-0.0999908
 21
97
  0
LINE
  8
0
 10
-0.0999908
 20
97
 11
3.09999
 21
97
  0
LINE
  8
0
 10
3.09999
 20
97
 11
3.09999
 21
85.075
  0
LINE
  8
0
 10
3.09999
 20
85.075
 11
-0.0999908
 21
85.075
  0
LINE
  8
0
 10
26.8432
 20
87.9082
 11
26.6881
 21
87.9328
  0
LINE
  8
0
 10
26.6881
 20
87.9328
 11
26.5365
 21
87.9734
  0
LINE
  8
0
 10
26.5365
 20
87.9734
 11
26.3899
 21
88.0297
  0
LINE
  8
0
 10
26.3899
 20
88.0297
 11
26.25
 21
88.101
  0
LINE
  8
0
 10
26.25
 20
88.101
 11
26.1183
 21
88.1865
  0
LINE
  8
0
 10
26.1183
 20
88.1865
 11
25.9963
 21
88.2853
  0
LINE
  8
0
 10
25.9963
 20
88.2853
 11
25.8853
 21
88.3963
  0
LINE
  8
0
 10
25.8853
 20
88.3963
 11
25.7865
 21
88.5183
  0
LINE
  8
0
 10
25.7865
 20
88.5183
 11
25.701
 21
88.65
  0
LINE
  8
0
 10
25.701
 20
88.65
 11
25.6297
 21
88.7899
  0
LINE
  8
0
 10
25.6297
 20
88.7899
 11
25.5734
 21
88.9365
  0
LINE
  8
0
 10
25.5734
 20
88.9365
 11
25.5328
 21
89.0881
  0
LINE
  8
0
 10
25.5328
 20
89.0881
 11
25.5082
 21
89.2432
  0
LINE
  8
0
 10
25.5082
 20
89.2432
 11
25.5
 21
89.4
  0
LINE
  8
0
 10
25.5
 20
89.4
 11
25.5082
 21
89.5568
  0
LINE
  8
0
 10
25.5082
 20
89.5568
 11
25.5328
 21
89.7119
  0
LINE
  8
0
 10
25.5328
 20
89.7119
 11
25.5734
 21
89.8635
  0
LINE
  8
0
 10
25.5734
 20
89.8635
 11
25.6297
 21
90.0101
  0
LINE
  8
0
 10
25.6297
 20
90.0101
 11
25.701
 21
90.15
  0
LINE
  8
0
 10
25.701
 20
90.15
 11
25.7865
 21
90.2817
  0
LINE
  8
0
 10
25.7865
 20
90.2817
 11
25.8853
 21
90.4037
  0
LINE
  8
0
 10
25.8853
 20
90.4037
 11
25.9963
 21
90.5147
  0
LINE
  8
0
 10
25.9963
 20
90.5147
 11
26.1183
 21
90.6135
  0
LINE
  8
0
 10
26.1183
 20
90.6135
 11
26.25
 21
90.699
  0
LINE
  8
0
 10
26.25
 20
90.699
 11
26.3899
 21
90.7703
  0
LINE
  8
0
 10
26.3899
 20
90.7703
 11
26.5365
 21
90.8266
  0
LINE
  8
0
 10
26.5365
 20
90.8266
 11
26.6881
 21
90.8672
  0
LINE
  8
0
 10
26.6881
 20
90.8672
 11
26.8432
 21
90.8918
  0
LINE
  8
0
 10
26.8432
 20
90.8918
 11
27
 21
90.9
  0
LINE
  8
0
 10
27
 20
90.9
 11
27.1568
 21
90.8918
  0
LINE
  8
0
 10
27.1568
 20
90.8918
 11
27.3119
 21
90.8672
  0
LINE
  8
0
 10
27.3119
 20
90.8672
 11
27.4635
 21
90.8266
  0
LINE
  8
0
 10
27.4635
 20
90.8266
 11
27.6101
 21
90.7703
  0
LINE
  8
0
 10
27.6101
 20
90.7703
 11
27.75
 21
90.699
  0
LINE
  8
0
 10
27.75
 20
90.699
 11
27.8817
 21
90.6135
  0
LINE
  8
0
 10
27.8817
 20
90.6135
 11
28.0037
 21
90.5147
  0
LINE
  8
0
 10
28.0037
 20
90.5147
 11
28.1147
 21
90.4037
  0
LINE
  8
0
 10
28.1147
 20
90.4037
 11
28.2135
 21
90.2817
  0
LINE
  8
0
 10
28.2135
 20
90.2817
 11
28.299
 21
90.15
  0
LINE
  8
0
 10
28.299
 20
90.15
 11
28.3703
 21
90.0101
  0
LINE
  8
0
 10
28.3703
 20
90.0101
 11
28.4266
 21
89.8635
  0
LINE
  8
0
 10
28.4266
 20
89.8635
 11
28.4672
 21
89.7119
  0
LINE
  8
0
 10
28.4672
 20
89.7119
 11
28.4918
 21
89.5568
  0
LINE
  8
0
 10
28.4918
 20
89.5568
 11
28.5
 21
89.4
  0
LINE
  8
0
 10
28.5
 20
89.4
 11
28.4918
 21
89.2432
  0
LINE
  8
0
 10
28.4918
 20
89.2432
 11
28.4672
 21
89.0881
  0
LINE
  8
0
 10
28.4672
 20
89.0881
 11
28.4266
 21
88.9365
  0
LINE
  8
0
 10
28.4266
 20
88.9365
 11
28.3703
 21
88.7899
  0
LINE
  8
0
 10
28.3703
 20
88.7899
 11
28.299
 21
88.65
  0
LINE
  8
0
 10
28.299
 20
88.65
 11
28.2135
 21
88.5183
  0
LINE
  8
0
 10
28.2135
 20
88.5183
 11
28.1147
 21
88.3963
  0
LINE
  8
0
 10
28.1147
 20
88.3963
 11
28.0037
 21
88.2853
  0
LINE
  8
0
 10
28.0037
 20
88.2853
 11
27.8817
 21
88.1865
  0
LINE
  8
0
 10
27.8817
 20
88.1865
 11
27.75
 21
88.101
  0
LINE
  8
0
 10
27.75
 20
88.101
 11
27.6101
 21
88.0297
  0
LINE
  8
0
 10
27.6101
 20
88.0297
 11
27.4635
 21
87.9734
  0
LINE
  8
0
 10
27.4635
 20
87.9734
 11
27.3119
 21
87.9328
  0
LINE
  8
0
 10
27.3119
 20
87.9328
 11
27.1568
 21
87.9082
  0
LINE
  8
0
 10
27.1568
 20
87.9082
 11
27
 21
87.9
  0
LINE
  8
0
 10
27
 20
87.9
 11
26.8432
 21
87.9082
  0
LINE
  8
0
 10
177.843
 20
87.9082
 11
177.688
 21
87.9328
  0
LINE
  8
0
 10
177.688
 20
87.9328
 11
177.536
 21
87.9734
  0
LINE
  8
0
 10
177.536
 20
87.9734
 11
177.39
 21
88.0297
  0
LINE
  8
0
 10
177.39
 20
88.0297
 11
177.25
 21
88.101
  0
LINE
  8
0
 10
177.25
 20
88.101
 11
177.118
 21
88.1865
  0
LINE
  8
0
 10
177.118
 20
88.1865
 11
176.996
 21
88.2853
  0
LINE
  8
0
 10
176.996
 20
88.2853
 11
176.885
 21
88.3963
  0
LINE
  8
0
 10
176.885
 20
88.3963
 11
176.786
 21
88.5183
  0
LINE
  8
0
 10
176.786
 20
88.5183
 11
176.701
 21
88.65
  0
LINE
  8
0
 10
176.701
 20
88.65
 11
176.63
 21
88.7899
  0
LINE
  8
0
 10
176.63
 20
88.7899
 11
176.573
 21
88.9365
  0
LINE
  8
0
 10
176.573
 20
88.9365
 11
176.533
 21
89.0881
  0
LINE
  8
0
 10
176.533
 20
89.0881
 11
176.508
 21
89.2432
  0
LINE
  8
0
 10
176.508
 20
89.2432
 11
176.5
 21
89.4
  0
LINE
  8
0
 10
176.5
 20
89.4
 11
176.508
 21
89.5568
  0
LINE
  8
0
 10
176.508
 20
89.5568
 11
176.533
 21
89.7119
  0
LINE
  8
0
 10
176.533
 20
89.7119
 11
176.573
 21
89.8635
  0
LINE
  8
0
 10
176.573
 20
89.8635
 11
176.63
 21
90.0101
  0
LINE
  8
0
 10
176.63
 20
90.0101
 11
176.701
 21
90.15
  0
LINE
  8
0
 10
176.701
 20
90.15
 11
176.786
 21
90.2817
  0
LINE
  8
0
 10
176.786
 20
90.2817
 11
176.885
 21
90.4037
  0
LINE
  8
0
 10
176.885
 20
90.4037
 11
176.996
 21
90.5147
  0
LINE
  8
0
 10
176.996
 20
90.5147
 11
177.118
 21
90.6135
  0
LINE
  8
0
 10
177.118
 20
90.6135
 11
177.25
 21
90.699
  0
LINE
  8
0
 10
177.25
 20
90.699
 11
177.39
 21
90.7703
  0
LINE
  8
0
 10
177.39
 20
90.7703
 11
177.536
 21
90.8266
  0
LINE
  8
0
 10
177.536
 20
90.8266
 11
177.688
 21
90.8672
  0
LINE
  8
0
 10
177.688
 20
90.8672
 11
177.843
 21
90.8918
  0
LINE
  8
0
 10
177.843
 20
90.8918
 11
178
 21
90.9
  0
LINE
  8
0
 10
178
 20
90.9
 11
178.157
 21
90.8918
  0
LINE
  8
0
 10
178.157
 20
90.8918
 11
178.312
 21
90.8672
  0
LINE
  8
0
 10
178.312
 20
90.8672
 11
178.464
 21
90.8266
  0
LINE
  8
0
 10
178.464
 20
90.8266
 11
178.61
 21
90.7703
  0
LINE
  8
0
 10
178.61
 20
90.7703
 11
178.75
 21
90.699
  0
LINE
  8
0
 10
178.75
 20
90.699
 11
178.882
 21
90.6135
  0
LINE
  8
0
 10
178.882
 20
90.6135
 11
179.004
 21
90.5147
  0
LINE
  8
0
 10
179.004
 20
90.5147
 11
179.115
 21
90.4037
  0
LINE
  8
0
 10
179.115
 20
90.4037
 11
179.214
 21
90.2817
  0
LINE
  8
0
 10
179.214
 20
90.2817
 11
179.299
 21
90.15
  0
LINE
  8
0
 10
179.299
 20
90.15
 11
179.37
 21
90.0101
  0
LINE
  8
0
 10
179.37
 20
90.0101
 11
179.427
 21
89.8635
  0
LINE
  8
0
 10
179.427
 20
89.8635
 11
179.467
 21
89.7119
  0
LINE
  8
0
 10
179.467
 20
89.7119
 11
179.492
 21
89.5568
  0
LINE
  8
0
 10
179.492
 20
89.5568
 11
179.5
 21
89.4
  0
LINE
  8
0
 10
179.5
 20
89.4
 11
179.492
 21
89.2432
  0
LINE
  8
0
 10
179.492
 20
89.2432
 11
179.467
 21
89.0881
  0
LINE
  8
0
 10
179.467
 20
89.0881
 11
179.427
 21
88.9365
  0
LINE
  8
0
 10
179.427
 20
88.9365
 11
179.37
 21
88.7899
  0
LINE
  8
0
 10
179.37
 20
88.7899
 11
179.299
 21
88.65
  0
LINE
  8
0
 10
179.299
 20
88.65
 11
179.214
 21
88.5183
  0
LINE
  8
0
 10
179.214
 20
88.5183
 11
179.115
 21
88.3963
  0
LINE
  8
0
 10
179.115
 20
88.3963
 11
179.004
 21
88.2853
  0
LINE
  8
0
 10
179.004
 20
88.2853
 11
178.882
 21
88.1865
  0
LINE
  8
0
 10
178.882
 20
88.1865
 11
178.75
 21
88.101
  0
LINE
  8
0
 10
178.75
 20
88.101
 11
178.61
 21
88.0297
  0
LINE
  8
0
 10
178.61
 20
88.0297
 11
178.464
 21
87.9734
  0
LINE
  8
0
 10
178.464
 20
87.9734
 11
178.312
 21
87.9328
  0
LINE
  8
0
 10
178.312
 20
87.9328
 11
178.157
 21
87.9082
  0
LINE
  8
0
 10
178.157
 20
87.9082
 11
178
 21
87.9
  0
LINE
  8
0
 10
178
 20
87.9
 11
177.843
 21
87.9082
  0
LINE
  8
0
 10
196.9
 20
73.35
 11
196.9
 21
85.275
  0
LINE
  8
0
 10
196.9
 20
85.275
 11
200.1
 21
85.275
  0
LINE
  8
0
 10
200.1
 20
85.275
 11
200.1
 21
73.35
  0
LINE
  8
0
 10
200.1
 20
73.35
 11
196.9
 21
73.35
  0
LINE
  8
0
 10
-0.0999908
 20
61.625
 11
-0.0999908
 21
73.55
  0
LINE
  8
0
 10
-0.0999908
 20
73.55
 11
3.09999
 21
73.55
  0
LINE
  8
0
 10
3.09999
 20
73.55
 11
3.09999
 21
61.625
  0
LINE
  8
0
 10
3.09999
 20
61.625
 11
-0.0999908
 21
61.625
  0
LINE
  8
0
 10
196.9
 20
49.9
 11
196.9
 21
61.825
  0
LINE
  8
0
 10
196.9
 20
61.825
 11
200.1
 21
61.825
  0
LINE
  8
0
 10
200.1
 20
61.825
 11
200.1
 21
49.9
  0
LINE
  8
0
 10
200.1
 20
49.9
 11
196.9
 21
49.9
  0
LINE
  8
0
 10
-0.0999908
 20
38.175
 11
-0.0999908
 21
50.1
  0
LINE
  8
0
 10
-0.0999908
 20
50.1
 11
3.09999
 21
50.1
  0
LINE
  8
0
 10
3.09999
 20
50.1
 11
3.09999
 21
38.175
  0
LINE
  8
0
 10
3.09999
 20
38.175
 11
-0.0999908
 21
38.175
  0
LINE
  8
0
 10
196.9
 20
26.45
 11
196.9
 21
38.375
  0
LINE
  8
0
 10
196.9
 20
38.375
 11
200.1
 21
38.375
  0
LINE
  8
0
 10
200.1
 20
38.375
 11
200.1
 21
26.45
  0
LINE
  8
0
 10
200.1
 20
26.45
 11
196.9
 21
26.45
  0
LINE
  8
0
 10
-0.0999908
 20
14.725
 11
-0.0999908
 21
26.65
  0
LINE
  8
0
 10
-0.0999908
 20
26.65
 11
3.09999
 21
26.65
  0
LINE
  8
0
 10
3.09999
 20
26.65
 11
3.09999
 21
14.725
  0
LINE
  8
0
 10
3.09999
 20
14.725
 11
-0.0999908
 21
14.725
  0
LINE
  8
0
 10
26.8432
 20
23.4082
 11
26.6881
 21
23.4328
  0
LINE
  8
0
 10
26.6881
 20
23.4328
 11
26.5365
 21
23.4734
  0
LINE
  8
0
 10
26.5365
 20
23.4734
 11
26.3899
 21
23.5297
  0
LINE
  8
0
 10
26.3899
 20
23.5297
 11
26.25
 21
23.601
  0
LINE
  8
0
 10
26.25
 20
23.601
 11
26.1183
 21
23.6865
  0
LINE
  8
0
 10
26.1183
 20
23.6865
 11
25.9963
 21
23.7853
  0
LINE
  8
0
 10
25.9963
 20
23.7853
 11
25.8853
 21
23.8963
  0
LINE
  8
0
 10
25.8853
 20
23.8963
 11
25.7865
 21
24.0183
  0
LINE
  8
0
 10
25.7865
 20
24.0183
 11
25.701
 21
24.15
  0
LINE
  8
0
 10
25.701
 20
24.15
 11
25.6297
 21
24.2899
  0
LINE
  8
0
 10
25.6297
 20
24.2899
 11
25.5734
 21
24.4365
  0
LINE
  8
0
 10
25.5734
 20
24.4365
 11
25.5328
 21
24.5881
  0
LINE
  8
0
 10
25.5328
 20
24.5881
 11
25.5082
 21
24.7432
  0
LINE
  8
0
 10
25.5082
 20
24.7432
 11
25.5
 21
24.9
  0
LINE
  8
0
 10
25.5
 20
24.9
 11
25.5082
 21
25.0568
  0
LINE
  8
0
 10
25.5082
 20
25.0568
 11
25.5328
 21
25.2119
  0
LINE
  8
0
 10
25.5328
 20
25.2119
 11
25.5734
 21
25.3635
  0
LINE
  8
0
 10
25.5734
 20
25.3635
 11
25.6297
 21
25.5101
  0
LINE
  8
0
 10
25.6297
 20
25.5101
 11
25.701
 21
25.65
  0
LINE
  8
0
 10
25.701
 20
25.65
 11
25.7865
 21
25.7817
  0
LINE
  8
0
 10
25.7865
 20
25.7817
 11
25.8853
 21
25.9037
  0
LINE
  8
0
 10
25.8853
 20
25.9037
 11
25.9963
 21
26.0147
  0
LINE
  8
0
 10
25.9963
 20
26.0147
 11
26.1183
 21
26.1135
  0
LINE
  8
0
 10
26.1183
 20
26.1135
 11
26.25
 21
26.199
  0
LINE
  8
0
 10
26.25
 20
26.199
 11
26.3899
 21
26.2703
  0
LINE
  8
0
 10
26.3899
 20
26.2703
 11
26.5365
 21
26.3266
  0
LINE
  8
0
 10
26.5365
 20
26.3266
 11
26.6881
 21
26.3672
  0
LINE
  8
0
 10
26.6881
 20
26.3672
 11
26.8432
 21
26.3918
  0
LINE
  8
0
 10
26.8432
 20
26.3918
 11
27
 21
26.4
  0
LINE
  8
0
 10
27
 20
26.4
 11
27.1568
 21
26.3918
  0
LINE
  8
0
 10
27.1568
 20
26.3918
 11
27.3119
 21
26.3672
  0
LINE
  8
0
 10
27.3119
 20
26.3672
 11
27.4635
 21
26.3266
  0
LINE
  8
0
 10
27.4635
 20
26.3266
 11
27.6101
 21
26.2703
  0
LINE
  8
0
 10
27.6101
 20
26.2703
 11
27.75
 21
26.199
  0
LINE
  8
0
 10
27.75
 20
26.199
 11
27.8817
 21
26.1135
  0
LINE
  8
0
 10
27.8817
 20
26.1135
 11
28.0037
 21
26.0147
  0
LINE
  8
0
 10
28.0037
 20
26.0147
 11
28.1147
 21
25.9037
  0
LINE
  8
0
 10
28.1147
 20
25.9037
 11
28.2135
 21
25.7817
  0
LINE
  8
0
 10
28.2135
 20
25.7817
 11
28.299
 21
25.65
  0
LINE
  8
0
 10
28.299
 20
25.65
 11
28.3703
 21
25.5101
  0
LINE
  8
0
 10
28.3703
 20
25.5101
 11
28.4266
 21
25.3635
  0
LINE
  8
0
 10
28.4266
 20
25.3635
 11
28.4672
 21
25.2119
  0
LINE
  8
0
 10
28.4672
 20
25.2119
 11
28.4918
 21
25.0568
  0
LINE
  8
0
 10
28.4918
 20
25.0568
 11
28.5
 21
24.9
  0
LINE
  8
0
 10
28.5
 20
24.9
 11
28.4918
 21
24.7432
  0
LINE
  8
0
 10
28.4918
 20
24.7432
 11
28.4672
 21
24.5881
  0
LINE
  8
0
 10
28.4672
 20
24.5881
 11
28.4266
 21
24.4365
  0
LINE
  8
0
 10
28.4266
 20
24.4365
 11
28.3703
 21
24.2899
  0
LINE
  8
0
 10
28.3703
 20
24.2899
 11
28.299
 21
24.15
  0
LINE
  8
0
 10
28.299
 20
24.15
 11
28.2135
 21
24.0183
  0
LINE
  8
0
 10
28.2135
 20
24.0183
 11
28.1147
 21
23.8963
  0
LINE
  8
0
 10
28.1147
 20
23.8963
 11
28.0037
 21
23.7853
  0
LINE
  8
0
 10
28.0037
 20
23.7853
 11
27.8817
 21
23.6865
  0
LINE
  8
0
 10
27.8817
 20
23.6865
 11
27.75
 21
23.601
  0
LINE
  8
0
 10
27.75
 20
23.601
 11
27.6101
 21
23.5297
  0
LINE
  8
0
 10
27.6101
 20
23.5297
 11
27.4635
 21
23.4734
  0
LINE
  8
0
 10
27.4635
 20
23.4734
 11
27.3119
 21
23.4328
  0
LINE
  8
0
 10
27.3119
 20
23.4328
 11
27.1568
 21
23.4082
  0
LINE
  8
0
 10
27.1568
 20
23.4082
 11
27
 21
23.4
  0
LINE
  8
0
 10
27
 20
23.4
 11
26.8432
 21
23.4082
  0
LINE
  8
0
 10
177.843
 20
23.4082
 11
177.688
 21
23.4328
  0
LINE
  8
0
 10
177.688
 20
23.4328
 11
177.536
 21
23.4734
  0
LINE
  8
0
 10
177.536
 20
23.4734
 11
177.39
 21
23.5297
  0
LINE
  8
0
 10
177.39
 20
23.5297
 11
177.25
 21
23.601
  0
LINE
  8
0
 10
177.25
 20
23.601
 11
177.118
 21
23.6865
  0
LINE
  8
0
 10
177.118
 20
23.6865
 11
176.996
 21
23.7853
  0
LINE
  8
0
 10
176.996
 20
23.7853
 11
176.885
 21
23.8963
  0
LINE
  8
0
 10
176.885
 20
23.8963
 11
176.786
 21
24.0183
  0
LINE
  8
0
 10
176.786
 20
24.0183
 11
176.701
 21
24.15
  0
LINE
  8
0
 10
176.701
 20
24.15
 11
176.63
 21
24.2899
  0
LINE
  8
0
 10
176.63
 20
24.2899
 11
176.573
 21
24.4365
  0
LINE
  8
0
 10
176.573
 20
24.4365
 11
176.533
 21
24.5881
  0
LINE
  8
0
 10
176.533
 20
24.5881
 11
176.508
 21
24.7432
  0
LINE
  8
0
 10
176.508
 20
24.7432
 11
176.5
 21
24.9
  0
LINE
  8
0
 10
176.5
 20
24.9
 11
176.508
 21
25.0568
  0
LINE
  8
0
 10
176.508
 20
25.0568
 11
176.533
 21
25.2119
  0
LINE
  8
0
 10
176.533
 20
25.2119
 11
176.573
 21
25.3635
  0
LINE
  8
0
 10
176.573
 20
25.3635
 11
176.63
 21
25.5101
  0
LINE
  8
0
 10
176.63
 20
25.5101
 11
176.701
 21
25.65
  0
LINE
  8
0
 10
176.701
 20
25.65
 11
176.786
 21
25.7817
  0
LINE
  8
0
 10
176.786
 20
25.7817
 11
176.885
 21
25.9037
  0
LINE
  8
0
 10
176.885
 20
25.9037
 11
176.996
 21
26.0147
  0
LINE
  8
0
 10
176.996
 20
26.0147
 11
177.118
 21
26.1135
  0
LINE
  8
0
 10
177.118
 20
26.1135
 11
177.25
 21
26.199
  0
LINE
  8
0
 10
177.25
 20
26.199
 11
177.39
 21
26.2703
  0
LINE
  8
0
 10
177.39
 20
26.2703
 11
177.536
 21
26.3266
  0
LINE
  8
0
 10
177.536
 20
26.3266
 11
177.688
 21
26.3672
  0
LINE
  8
0
 10
177.688
 20
26.3672
 11
177.843
 21
26.3918
  0
LINE
  8
0
 10
177.843
 20
26.3918
 11
178
 21
26.4
  0
LINE
  8
0
 10
178
 20
26.4
 11
178.157
 21
26.3918
  0
LINE
  8
0
 10
178.157
 20
26.3918
 11
178.312
 21
26.3672
  0
LINE
  8
0
 10
178.312
 20
26.3672
 11
178.464
 21
26.3266
  0
LINE
  8
0
 10
178.464
 20
26.3266
 11
178.61
 21
26.2703
  0
LINE
  8
0
 10
178.61
 20
26.2703
 11
178.75
 21
26.199
  0
LINE
  8
0
 10
178.75
 20
26.199
 11
178.882
 21
26.1135
  0
LINE
  8
0
 10
178.882
 20
26.1135
 11
179.004
 21
26.0147
  0
LINE
  8
0
 10
179.004
 20
26.0147
 11
179.115
 21
25.9037
  0
LINE
  8
0
 10
179.115
 20
25.9037
 11
179.214
 21
25.7817
  0
LINE
  8
0
 10
179.214
 20
25.7817
 11
179.299
 21
25.65
  0
LINE
  8
0
 10
179.299
 20
25.65
 11
179.37
 21
25.5101
  0
LINE
  8
0
 10
179.37
 20
25.5101
 11
179.427
 21
25.3635
  0
LINE
  8
0
 10
179.427
 20
25.3635
 11
179.467
 21
25.2119
  0
LINE
  8
0
 10
179.467
 20
25.2119
 11
179.492
 21
25.0568
  0
LINE
  8
0
 10
179.492
 20
25.0568
 11
179.5
 21
24.9
  0
LINE
  8
0
 10
179.5
 20
24.9
 11
179.492
 21
24.7432
  0
LINE
  8
0
 10
179.492
 20
24.7432
 11
179.467
 21
24.5881
  0
LINE
  8
0
 10
179.467
 20
24.5881
 11
179.427
 21
24.4365
  0
LINE
  8
0
 10
179.427
 20
24.4365
 11
179.37
 21
24.2899
  0
LINE
  8
0
 10
179.37
 20
24.2899
 11
179.299
 21
24.15
  0
LINE
  8
0
 10
179.299
 20
24.15
 11
179.214
 21
24.0183
  0
LINE
  8
0
 10
179.214
 20
24.0183
 11
179.115
 21
23.8963
  0
LINE
  8
0
 10
179.115
 20
23.8963
 11
179.004
 21
23.7853
  0
LINE
  8
0
 10
179.004
 20
23.7853
 11
178.882
 21
23.6865
  0
LINE
  8
0
 10
178.882
 20
23.6865
 11
178.75
 21
23.601
  0
LINE
  8
0
 10
178.75
 20
23.601
 11
178.61
 21
23.5297
  0
LINE
  8
0
 10
178.61
 20
23.5297
 11
178.464
 21
23.4734
  0
LINE
  8
0
 10
178.464
 20
23.4734
 11
178.312
 21
23.4328
  0
LINE
  8
0
 10
178.312
 20
23.4328
 11
178.157
 21
23.4082
  0
LINE
  8
0
 10
178.157
 20
23.4082
 11
178
 21
23.4
  0
LINE
  8
0
 10
178
 20
23.4
 11
177.843
 21
23.4082
  0
LINE
  8
0
 10
196.9
 20
3
 11
196.9
 21
14.925
  0
LINE
  8
0
 10
196.9
 20
14.925
 11
200.1
 21
14.925
  0
LINE
  8
0
 10
200.1
 20
14.925
 11
200.1
 21
3
  0
LINE
  8
0
 10
200.1
 20
3
 11
196.9
 21
3
  0
LINE
  8
0
 10
158.04
 20
-0.0999908
 11
158.04
 21
3.09999
  0
LINE
  8
0
 10
158.04
 20
3.09999
 11
177.62
 21
3.09999
  0
LINE
  8
0
 10
177.62
 20
3.09999
 11
177.62
 21
-0.0999908
  0
LINE
  8
0
 10
177.62
 20
-0.0999908
 11
158.04
 21
-0.0999908
  0
LINE
  8
0
 10
3
 20
-0.0999908
 11
3
 21
3.09999
  0
LINE
  8
0
 10
3
 20
3.09999
 11
22.58
 21
3.09999
  0
LINE
  8
0
 10
22.58
 20
3.09999
 11
22.58
 21
-0.0999908
  0
LINE
  8
0
 10
22.58
 20
-0.0999908
 11
3
 21
-0.0999908
  0
LINE
  8
0
 10
119.28
 20
-0.0999908
 11
119.28
 21
3.09999
  0
LINE
  8
0
 10
119.28
 20
3.09999
 11
138.86
 21
3.09999
  0
LINE
  8
0
 10
138.86
 20
3.09999
 11
138.86
 21
-0.0999908
  0
LINE
  8
0
 10
138.86
 20
-0.0999908
 11
119.28
 21
-0.0999908
  0
LINE
  8
0
 10
80.52
 20
-0.0999908
 11
80.52
 21
3.09999
  0
LINE
  8
0
 10
80.52
 20
3.09999
 11
100.1
 21
3.09999
  0
LINE
  8
0
 10
100.1
 20
3.09999
 11
100.1
 21
-0.0999908
  0
LINE
  8
0
 10
100.1
 20
-0.0999908
 11
80.52
 21
-0.0999908
  0
LINE
  8
0
 10
41.76
 20
-0.0999908
 11
41.76
 21
3.09999
  0
LINE
  8
0
 10
41.76
 20
3.09999
 11
61.34
 21
3.09999
  0
LINE
  8
0
 10
61.34
 20
3.09999
 11
61.34
 21
-0.0999908
  0
LINE
  8
0
 10
61.34
 20
-0.0999908
 11
41.76
 21
-0.0999908
  0
ENDSEC
  0
SECTION
  2
OBJECTS
  0
DICTIONARY
  0
ENDSEC
  0
EOF
