  0
SECTION
  2
BLOCKS
  0
ENDSEC
  0
SECTION
  2
ENTITIES
  0
LINE
  8
0
 10
22.5
 20
3
 11
41.9
 21
3
  0
LINE
  8
0
 10
41.9
 20
3
 11
41.9
 21
0
  0
LINE
  8
0
 10
41.9
 20
0
 11
61.3
 21
0
  0
LINE
  8
0
 10
61.3
 20
0
 11
61.3
 21
3
  0
LINE
  8
0
 10
61.3
 20
3
 11
80.7
 21
3
  0
LINE
  8
0
 10
80.7
 20
3
 11
80.7
 21
0
  0
LINE
  8
0
 10
80.7
 20
0
 11
100.1
 21
0
  0
LINE
  8
0
 10
100.1
 20
0
 11
100.1
 21
3
  0
LINE
  8
0
 10
100.1
 20
3
 11
119.5
 21
3
  0
LINE
  8
0
 10
119.5
 20
3
 11
119.5
 21
0
  0
LINE
  8
0
 10
119.5
 20
0
 11
138.9
 21
0
  0
LINE
  8
0
 10
138.9
 20
0
 11
138.9
 21
3
  0
LINE
  8
0
 10
138.9
 20
3
 11
158.3
 21
3
  0
LINE
  8
0
 10
158.3
 20
3
 11
158.3
 21
0
  0
LINE
  8
0
 10
158.3
 20
0
 11
177.7
 21
0
  0
LINE
  8
0
 10
177.7
 20
0
 11
177.7
 21
3
  0
LINE
  8
0
 10
177.7
 20
3
 11
197
 21
3
  0
LINE
  8
0
 10
197
 20
3
 11
197
 21
13.9333
  0
LINE
  8
0
 10
197
 20
13.9333
 11
200
 21
13.9333
  0
LINE
  8
0
 10
200
 20
13.9333
 11
200
 21
24.5667
  0
LINE
  8
0
 10
200
 20
24.5667
 11
197
 21
24.5667
  0
LINE
  8
0
 10
197
 20
24.5667
 11
197
 21
35.6
  0
LINE
  8
0
 10
197
 20
35.6
 11
200
 21
35.6
  0
LINE
  8
0
 10
200
 20
35.6
 11
200
 21
46.2333
  0
LINE
  8
0
 10
200
 20
46.2333
 11
197
 21
46.2333
  0
LINE
  8
0
 10
197
 20
46.2333
 11
197
 21
57.2667
  0
LINE
  8
0
 10
197
 20
57.2667
 11
200
 21
57.2667
  0
LINE
  8
0
 10
200
 20
57.2667
 11
200
 21
68
  0
LINE
  8
0
 10
200
 20
68
 11
197.1
 21
68
  0
LINE
  8
0
 10
197.1
 20
68
 11
197.1
 21
71
  0
LINE
  8
0
 10
197.1
 20
71
 11
177.7
 21
71
  0
LINE
  8
0
 10
177.7
 20
71
 11
177.7
 21
68
  0
LINE
  8
0
 10
177.7
 20
68
 11
158.3
 21
68
  0
LINE
  8
0
 10
158.3
 20
68
 11
158.3
 21
71
  0
LINE
  8
0
 10
158.3
 20
71
 11
138.9
 21
71
  0
LINE
  8
0
 10
138.9
 20
71
 11
138.9
 21
68
  0
LINE
  8
0
 10
138.9
 20
68
 11
119.5
 21
68
  0
LINE
  8
0
 10
119.5
 20
68
 11
119.5
 21
71
  0
LINE
  8
0
 10
119.5
 20
71
 11
100.1
 21
71
  0
LINE
  8
0
 10
100.1
 20
71
 11
100.1
 21
68
  0
LINE
  8
0
 10
100.1
 20
68
 11
80.7
 21
68
  0
LINE
  8
0
 10
80.7
 20
68
 11
80.7
 21
71
  0
LINE
  8
0
 10
80.7
 20
71
 11
61.3
 21
71
  0
LINE
  8
0
 10
61.3
 20
71
 11
61.3
 21
68
  0
LINE
  8
0
 10
61.3
 20
68
 11
41.9
 21
68
  0
LINE
  8
0
 10
41.9
 20
68
 11
41.9
 21
71
  0
LINE
  8
0
 10
41.9
 20
71
 11
22.5
 21
71
  0
LINE
  8
0
 10
22.5
 20
71
 11
22.5
 21
68
  0
LINE
  8
0
 10
22.5
 20
68
 11
3
 21
68
  0
LINE
  8
0
 10
3
 20
68
 11
3
 21
57.0667
  0
LINE
  8
0
 10
3
 20
57.0667
 11
-0.0999908
 21
57.0667
  0
LINE
  8
0
 10
-0.0999908
 20
57.0667
 11
-0.0999908
 21
68
  0
LINE
  8
0
 10
-0.0999908
 20
68
 11
-25.5
 21
68
  0
LINE
  8
0
 10
-25.5
 20
68
 11
-25.5524
 21
67.9995
  0
LINE
  8
0
 10
-25.5524
 20
67.9995
 11
-25.6047
 21
67.9982
  0
LINE
  8
0
 10
-25.6047
 20
67.9982
 11
-25.657
 21
67.9959
  0
LINE
  8
0
 10
-25.657
 20
67.9959
 11
-25.7093
 21
67.9927
  0
LINE
  8
0
 10
-25.7093
 20
67.9927
 11
-25.7615
 21
67.9886
  0
LINE
  8
0
 10
-25.7615
 20
67.9886
 11
-25.8136
 21
67.9836
  0
LINE
  8
0
 10
-25.8136
 20
67.9836
 11
-25.8656
 21
67.9776
  0
LINE
  8
0
 10
-25.8656
 20
67.9776
 11
-25.9175
 21
67.9708
  0
LINE
  8
0
 10
-25.9175
 20
67.9708
 11
-25.9693
 21
67.9631
  0
LINE
  8
0
 10
-25.9693
 20
67.9631
 11
-26.0209
 21
67.9544
  0
LINE
  8
0
 10
-26.0209
 20
67.9544
 11
-26.0724
 21
67.9449
  0
LINE
  8
0
 10
-26.0724
 20
67.9449
 11
-26.1237
 21
67.9344
  0
LINE
  8
0
 10
-26.1237
 20
67.9344
 11
-26.1749
 21
67.9231
  0
LINE
  8
0
 10
-26.1749
 20
67.9231
 11
-26.2258
 21
67.9109
  0
LINE
  8
0
 10
-26.2258
 20
67.9109
 11
-26.2764
 21
67.8978
  0
LINE
  8
0
 10
-26.2764
 20
67.8978
 11
-26.3269
 21
67.8838
  0
LINE
  8
0
 10
-26.3269
 20
67.8838
 11
-26.3771
 21
67.8689
  0
LINE
  8
0
 10
-26.3771
 20
67.8689
 11
-26.427
 21
67.8532
  0
LINE
  8
0
 10
-26.427
 20
67.8532
 11
-26.4767
 21
67.8365
  0
LINE
  8
0
 10
-26.4767
 20
67.8365
 11
-26.526
 21
67.8191
  0
LINE
  8
0
 10
-26.526
 20
67.8191
 11
-26.5751
 21
67.8007
  0
LINE
  8
0
 10
-26.5751
 20
67.8007
 11
-26.6238
 21
67.7816
  0
LINE
  8
0
 10
-26.6238
 20
67.7816
 11
-26.6722
 21
67.7615
  0
LINE
  8
0
 10
-26.6722
 20
67.7615
 11
-26.7202
 21
67.7406
  0
LINE
  8
0
 10
-26.7202
 20
67.7406
 11
-26.7679
 21
67.7189
  0
LINE
  8
0
 10
-26.7679
 20
67.7189
 11
-26.8151
 21
67.6964
  0
LINE
  8
0
 10
-26.8151
 20
67.6964
 11
-26.862
 21
67.673
  0
LINE
  8
0
 10
-26.862
 20
67.673
 11
-26.9084
 21
67.6488
  0
LINE
  8
0
 10
-26.9084
 20
67.6488
 11
-26.9544
 21
67.6239
  0
LINE
  8
0
 10
-26.9544
 20
67.6239
 11
-27
 21
67.5981
  0
LINE
  8
0
 10
-27
 20
67.5981
 11
-27.0451
 21
67.5715
  0
LINE
  8
0
 10
-27.0451
 20
67.5715
 11
-27.0898
 21
67.5441
  0
LINE
  8
0
 10
-27.0898
 20
67.5441
 11
-27.1339
 21
67.516
  0
LINE
  8
0
 10
-27.1339
 20
67.516
 11
-27.1776
 21
67.4871
  0
LINE
  8
0
 10
-27.1776
 20
67.4871
 11
-27.2207
 21
67.4575
  0
LINE
  8
0
 10
-27.2207
 20
67.4575
 11
-27.2634
 21
67.427
  0
LINE
  8
0
 10
-27.2634
 20
67.427
 11
-27.3054
 21
67.3959
  0
LINE
  8
0
 10
-27.3054
 20
67.3959
 11
-27.347
 21
67.364
  0
LINE
  8
0
 10
-27.347
 20
67.364
 11
-27.388
 21
67.3314
  0
LINE
  8
0
 10
-27.388
 20
67.3314
 11
-27.4284
 21
67.2981
  0
LINE
  8
0
 10
-27.4284
 20
67.2981
 11
-27.4682
 21
67.2641
  0
LINE
  8
0
 10
-27.4682
 20
67.2641
 11
-27.5074
 21
67.2294
  0
LINE
  8
0
 10
-27.5074
 20
67.2294
 11
-27.546
 21
67.1941
  0
LINE
  8
0
 10
-27.546
 20
67.1941
 11
-27.584
 21
67.158
  0
LINE
  8
0
 10
-27.584
 20
67.158
 11
-27.6213
 21
67.1213
  0
LINE
  8
0
 10
-27.6213
 20
67.1213
 11
-27.658
 21
67.084
  0
LINE
  8
0
 10
-27.658
 20
67.084
 11
-27.6941
 21
67.046
  0
LINE
  8
0
 10
-27.6941
 20
67.046
 11
-27.7294
 21
67.0074
  0
LINE
  8
0
 10
-27.7294
 20
67.0074
 11
-27.7641
 21
66.9682
  0
LINE
  8
0
 10
-27.7641
 20
66.9682
 11
-27.7981
 21
66.9284
  0
LINE
  8
0
 10
-27.7981
 20
66.9284
 11
-27.8314
 21
66.888
  0
LINE
  8
0
 10
-27.8314
 20
66.888
 11
-27.864
 21
66.847
  0
LINE
  8
0
 10
-27.864
 20
66.847
 11
-27.8959
 21
66.8054
  0
LINE
  8
0
 10
-27.8959
 20
66.8054
 11
-27.927
 21
66.7634
  0
LINE
  8
0
 10
-27.927
 20
66.7634
 11
-27.9574
 21
66.7207
  0
LINE
  8
0
 10
-27.9574
 20
66.7207
 11
-27.9871
 21
66.6776
  0
LINE
  8
0
 10
-27.9871
 20
66.6776
 11
-28.016
 21
66.6339
  0
LINE
  8
0
 10
-28.016
 20
66.6339
 11
-28.0441
 21
66.5898
  0
LINE
  8
0
 10
-28.0441
 20
66.5898
 11
-28.0715
 21
66.5451
  0
LINE
  8
0
 10
-28.0715
 20
66.5451
 11
-28.0981
 21
66.5
  0
LINE
  8
0
 10
-28.0981
 20
66.5
 11
-28.1239
 21
66.4544
  0
LINE
  8
0
 10
-28.1239
 20
66.4544
 11
-28.1488
 21
66.4084
  0
LINE
  8
0
 10
-28.1488
 20
66.4084
 11
-28.173
 21
66.362
  0
LINE
  8
0
 10
-28.173
 20
66.362
 11
-28.1964
 21
66.3151
  0
LINE
  8
0
 10
-28.1964
 20
66.3151
 11
-28.2189
 21
66.2679
  0
LINE
  8
0
 10
-28.2189
 20
66.2679
 11
-28.2406
 21
66.2202
  0
LINE
  8
0
 10
-28.2406
 20
66.2202
 11
-28.2615
 21
66.1722
  0
LINE
  8
0
 10
-28.2615
 20
66.1722
 11
-28.2815
 21
66.1238
  0
LINE
  8
0
 10
-28.2815
 20
66.1238
 11
-28.3007
 21
66.0751
  0
LINE
  8
0
 10
-28.3007
 20
66.0751
 11
-28.3191
 21
66.0261
  0
LINE
  8
0
 10
-28.3191
 20
66.0261
 11
-28.3365
 21
65.9767
  0
LINE
  8
0
 10
-28.3365
 20
65.9767
 11
-28.3532
 21
65.927
  0
LINE
  8
0
 10
-28.3532
 20
65.927
 11
-28.3689
 21
65.8771
  0
LINE
  8
0
 10
-28.3689
 20
65.8771
 11
-28.3838
 21
65.8269
  0
LINE
  8
0
 10
-28.3838
 20
65.8269
 11
-28.3978
 21
65.7765
  0
LINE
  8
0
 10
-28.3978
 20
65.7765
 11
-28.4109
 21
65.7258
  0
LINE
  8
0
 10
-28.4109
 20
65.7258
 11
-28.4231
 21
65.6749
  0
LINE
  8
0
 10
-28.4231
 20
65.6749
 11
-28.4344
 21
65.6237
  0
LINE
  8
0
 10
-28.4344
 20
65.6237
 11
-28.4449
 21
65.5724
  0
LINE
  8
0
 10
-28.4449
 20
65.5724
 11
-28.4544
 21
65.5209
  0
LINE
  8
0
 10
-28.4544
 20
65.5209
 11
-28.4631
 21
65.4693
  0
LINE
  8
0
 10
-28.4631
 20
65.4693
 11
-28.4708
 21
65.4175
  0
LINE
  8
0
 10
-28.4708
 20
65.4175
 11
-28.4776
 21
65.3656
  0
LINE
  8
0
 10
-28.4776
 20
65.3656
 11
-28.4836
 21
65.3136
  0
LINE
  8
0
 10
-28.4836
 20
65.3136
 11
-28.4886
 21
65.2615
  0
LINE
  8
0
 10
-28.4886
 20
65.2615
 11
-28.4927
 21
65.2093
  0
LINE
  8
0
 10
-28.4927
 20
65.2093
 11
-28.4959
 21
65.157
  0
LINE
  8
0
 10
-28.4959
 20
65.157
 11
-28.4982
 21
65.1047
  0
LINE
  8
0
 10
-28.4982
 20
65.1047
 11
-28.4995
 21
65.0524
  0
LINE
  8
0
 10
-28.4995
 20
65.0524
 11
-28.5
 21
65
  0
LINE
  8
0
 10
-28.5
 20
65
 11
-28.5
 21
6
  0
LINE
  8
0
 10
-28.5
 20
6
 11
-28.4995
 21
5.94763
  0
LINE
  8
0
 10
-28.4995
 20
5.94763
 11
-28.4982
 21
5.89529
  0
LINE
  8
0
 10
-28.4982
 20
5.89529
 11
-28.4959
 21
5.84299
  0
LINE
  8
0
 10
-28.4959
 20
5.84299
 11
-28.4927
 21
5.79073
  0
LINE
  8
0
 10
-28.4927
 20
5.79073
 11
-28.4886
 21
5.73853
  0
LINE
  8
0
 10
-28.4886
 20
5.73853
 11
-28.4836
 21
5.6864
  0
LINE
  8
0
 10
-28.4836
 20
5.6864
 11
-28.4776
 21
5.63438
  0
LINE
  8
0
 10
-28.4776
 20
5.63438
 11
-28.4708
 21
5.58247
  0
LINE
  8
0
 10
-28.4708
 20
5.58247
 11
-28.4631
 21
5.53069
  0
LINE
  8
0
 10
-28.4631
 20
5.53069
 11
-28.4544
 21
5.47905
  0
LINE
  8
0
 10
-28.4544
 20
5.47905
 11
-28.4449
 21
5.42757
  0
LINE
  8
0
 10
-28.4449
 20
5.42757
 11
-28.4344
 21
5.37625
  0
LINE
  8
0
 10
-28.4344
 20
5.37625
 11
-28.4231
 21
5.32513
  0
LINE
  8
0
 10
-28.4231
 20
5.32513
 11
-28.4109
 21
5.27423
  0
LINE
  8
0
 10
-28.4109
 20
5.27423
 11
-28.3978
 21
5.22354
  0
LINE
  8
0
 10
-28.3978
 20
5.22354
 11
-28.3838
 21
5.17308
  0
LINE
  8
0
 10
-28.3838
 20
5.17308
 11
-28.3689
 21
5.12288
  0
LINE
  8
0
 10
-28.3689
 20
5.12288
 11
-28.3532
 21
5.07294
  0
LINE
  8
0
 10
-28.3532
 20
5.07294
 11
-28.3365
 21
5.02328
  0
LINE
  8
0
 10
-28.3365
 20
5.02328
 11
-28.3191
 21
4.97394
  0
LINE
  8
0
 10
-28.3191
 20
4.97394
 11
-28.3007
 21
4.9249
  0
LINE
  8
0
 10
-28.3007
 20
4.9249
 11
-28.2815
 21
4.87617
  0
LINE
  8
0
 10
-28.2815
 20
4.87617
 11
-28.2615
 21
4.8278
  0
LINE
  8
0
 10
-28.2615
 20
4.8278
 11
-28.2406
 21
4.77979
  0
LINE
  8
0
 10
-28.2406
 20
4.77979
 11
-28.2189
 21
4.73213
  0
LINE
  8
0
 10
-28.2189
 20
4.73213
 11
-28.1964
 21
4.68488
  0
LINE
  8
0
 10
-28.1964
 20
4.68488
 11
-28.173
 21
4.63802
  0
LINE
  8
0
 10
-28.173
 20
4.63802
 11
-28.1488
 21
4.59158
  0
LINE
  8
0
 10
-28.1488
 20
4.59158
 11
-28.1239
 21
4.54556
  0
LINE
  8
0
 10
-28.1239
 20
4.54556
 11
-28.0981
 21
4.5
  0
LINE
  8
0
 10
-28.0981
 20
4.5
 11
-28.0715
 21
4.45488
  0
LINE
  8
0
 10
-28.0715
 20
4.45488
 11
-28.0441
 21
4.41023
  0
LINE
  8
0
 10
-28.0441
 20
4.41023
 11
-28.016
 21
4.36607
  0
LINE
  8
0
 10
-28.016
 20
4.36607
 11
-27.9871
 21
4.32242
  0
LINE
  8
0
 10
-27.9871
 20
4.32242
 11
-27.9574
 21
4.27927
  0
LINE
  8
0
 10
-27.9574
 20
4.27927
 11
-27.927
 21
4.23663
  0
LINE
  8
0
 10
-27.927
 20
4.23663
 11
-27.8959
 21
4.19455
  0
LINE
  8
0
 10
-27.8959
 20
4.19455
 11
-27.864
 21
4.15302
  0
LINE
  8
0
 10
-27.864
 20
4.15302
 11
-27.8314
 21
4.11203
  0
LINE
  8
0
 10
-27.8314
 20
4.11203
 11
-27.7981
 21
4.07162
  0
LINE
  8
0
 10
-27.7981
 20
4.07162
 11
-27.7641
 21
4.03181
  0
LINE
  8
0
 10
-27.7641
 20
4.03181
 11
-27.7294
 21
3.9926
  0
LINE
  8
0
 10
-27.7294
 20
3.9926
 11
-27.6941
 21
3.95399
  0
LINE
  8
0
 10
-27.6941
 20
3.95399
 11
-27.658
 21
3.91602
  0
LINE
  8
0
 10
-27.658
 20
3.91602
 11
-27.6213
 21
3.87868
  0
LINE
  8
0
 10
-27.6213
 20
3.87868
 11
-27.584
 21
3.84198
  0
LINE
  8
0
 10
-27.584
 20
3.84198
 11
-27.546
 21
3.80594
  0
LINE
  8
0
 10
-27.546
 20
3.80594
 11
-27.5074
 21
3.77055
  0
LINE
  8
0
 10
-27.5074
 20
3.77055
 11
-27.4682
 21
3.73587
  0
LINE
  8
0
 10
-27.4682
 20
3.73587
 11
-27.4284
 21
3.70186
  0
LINE
  8
0
 10
-27.4284
 20
3.70186
 11
-27.388
 21
3.66855
  0
LINE
  8
0
 10
-27.388
 20
3.66855
 11
-27.347
 21
3.63596
  0
LINE
  8
0
 10
-27.347
 20
3.63596
 11
-27.3054
 21
3.60408
  0
LINE
  8
0
 10
-27.3054
 20
3.60408
 11
-27.2634
 21
3.57294
  0
LINE
  8
0
 10
-27.2634
 20
3.57294
 11
-27.2207
 21
3.54254
  0
LINE
  8
0
 10
-27.2207
 20
3.54254
 11
-27.1776
 21
3.51288
  0
LINE
  8
0
 10
-27.1776
 20
3.51288
 11
-27.1339
 21
3.48398
  0
LINE
  8
0
 10
-27.1339
 20
3.48398
 11
-27.0898
 21
3.45586
  0
LINE
  8
0
 10
-27.0898
 20
3.45586
 11
-27.0451
 21
3.4285
  0
LINE
  8
0
 10
-27.0451
 20
3.4285
 11
-27
 21
3.40192
  0
LINE
  8
0
 10
-27
 20
3.40192
 11
-26.9544
 21
3.37613
  0
LINE
  8
0
 10
-26.9544
 20
3.37613
 11
-26.9084
 21
3.35115
  0
LINE
  8
0
 10
-26.9084
 20
3.35115
 11
-26.862
 21
3.32698
  0
LINE
  8
0
 10
-26.862
 20
3.32698
 11
-26.8151
 21
3.3036
  0
LINE
  8
0
 10
-26.8151
 20
3.3036
 11
-26.7679
 21
3.28107
  0
LINE
  8
0
 10
-26.7679
 20
3.28107
 11
-26.7202
 21
3.25935
  0
LINE
  8
0
 10
-26.7202
 20
3.25935
 11
-26.6722
 21
3.23848
  0
LINE
  8
0
 10
-26.6722
 20
3.23848
 11
-26.6238
 21
3.21844
  0
LINE
  8
0
 10
-26.6238
 20
3.21844
 11
-26.5751
 21
3.19925
  0
LINE
  8
0
 10
-26.5751
 20
3.19925
 11
-26.526
 21
3.18091
  0
LINE
  8
0
 10
-26.526
 20
3.18091
 11
-26.4767
 21
3.16344
  0
LINE
  8
0
 10
-26.4767
 20
3.16344
 11
-26.427
 21
3.14682
  0
LINE
  8
0
 10
-26.427
 20
3.14682
 11
-26.3771
 21
3.13107
  0
LINE
  8
0
 10
-26.3771
 20
3.13107
 11
-26.3269
 21
3.11621
  0
LINE
  8
0
 10
-26.3269
 20
3.11621
 11
-26.2764
 21
3.10222
  0
LINE
  8
0
 10
-26.2764
 20
3.10222
 11
-26.2258
 21
3.08911
  0
LINE
  8
0
 10
-26.2258
 20
3.08911
 11
-26.1749
 21
3.07689
  0
LINE
  8
0
 10
-26.1749
 20
3.07689
 11
-26.1237
 21
3.06555
  0
LINE
  8
0
 10
-26.1237
 20
3.06555
 11
-26.0724
 21
3.05511
  0
LINE
  8
0
 10
-26.0724
 20
3.05511
 11
-26.0209
 21
3.04556
  0
LINE
  8
0
 10
-26.0209
 20
3.04556
 11
-25.9693
 21
3.03693
  0
LINE
  8
0
 10
-25.9693
 20
3.03693
 11
-25.9175
 21
3.02919
  0
LINE
  8
0
 10
-25.9175
 20
3.02919
 11
-25.8656
 21
3.02235
  0
LINE
  8
0
 10
-25.8656
 20
3.02235
 11
-25.8136
 21
3.01643
  0
LINE
  8
0
 10
-25.8136
 20
3.01643
 11
-25.7615
 21
3.01141
  0
LINE
  8
0
 10
-25.7615
 20
3.01141
 11
-25.7093
 21
3.00729
  0
LINE
  8
0
 10
-25.7093
 20
3.00729
 11
-25.657
 21
3.0041
  0
LINE
  8
0
 10
-25.657
 20
3.0041
 11
-25.6047
 21
3.00182
  0
LINE
  8
0
 10
-25.6047
 20
3.00182
 11
-25.5524
 21
3.00046
  0
LINE
  8
0
 10
-25.5524
 20
3.00046
 11
-25.5
 21
3
  0
LINE
  8
0
 10
-25.5
 20
3
 11
3.09999
 21
3
  0
LINE
  8
0
 10
3.09999
 20
3
 11
3.09999
 21
0
  0
LINE
  8
0
 10
3.09999
 20
0
 11
22.5
 21
0
  0
LINE
  8
0
 10
22.5
 20
0
 11
22.5
 21
3
  0
LINE
  8
0
 10
114.651
 20
25.003
 11
114.302
 21
25.0122
  0
LINE
  8
0
 10
114.302
 20
25.0122
 11
113.953
 21
25.0274
  0
LINE
  8
0
 10
113.953
 20
25.0274
 11
113.605
 21
25.0487
  0
LINE
  8
0
 10
113.605
 20
25.0487
 11
113.257
 21
25.0761
  0
LINE
  8
0
 10
113.257
 20
25.0761
 11
112.909
 21
25.1096
  0
LINE
  8
0
 10
112.909
 20
25.1096
 11
112.563
 21
25.1491
  0
LINE
  8
0
 10
112.563
 20
25.1491
 11
112.217
 21
25.1946
  0
LINE
  8
0
 10
112.217
 20
25.1946
 11
111.871
 21
25.2462
  0
LINE
  8
0
 10
111.871
 20
25.2462
 11
111.527
 21
25.3038
  0
LINE
  8
0
 10
111.527
 20
25.3038
 11
111.184
 21
25.3674
  0
LINE
  8
0
 10
111.184
 20
25.3674
 11
110.842
 21
25.437
  0
LINE
  8
0
 10
110.842
 20
25.437
 11
110.501
 21
25.5126
  0
LINE
  8
0
 10
110.501
 20
25.5126
 11
110.162
 21
25.5941
  0
LINE
  8
0
 10
110.162
 20
25.5941
 11
109.824
 21
25.6815
  0
LINE
  8
0
 10
109.824
 20
25.6815
 11
109.487
 21
25.7748
  0
LINE
  8
0
 10
109.487
 20
25.7748
 11
109.153
 21
25.8739
  0
LINE
  8
0
 10
109.153
 20
25.8739
 11
108.82
 21
25.9789
  0
LINE
  8
0
 10
108.82
 20
25.9789
 11
108.489
 21
26.0896
  0
LINE
  8
0
 10
108.489
 20
26.0896
 11
108.16
 21
26.2061
  0
LINE
  8
0
 10
108.16
 20
26.2061
 11
107.833
 21
26.3284
  0
LINE
  8
0
 10
107.833
 20
26.3284
 11
107.508
 21
26.4563
  0
LINE
  8
0
 10
107.508
 20
26.4563
 11
107.185
 21
26.5899
  0
LINE
  8
0
 10
107.185
 20
26.5899
 11
106.865
 21
26.7291
  0
LINE
  8
0
 10
106.865
 20
26.7291
 11
106.548
 21
26.8738
  0
LINE
  8
0
 10
106.548
 20
26.8738
 11
106.233
 21
27.0241
  0
LINE
  8
0
 10
106.233
 20
27.0241
 11
105.92
 21
27.1799
  0
LINE
  8
0
 10
105.92
 20
27.1799
 11
105.611
 21
27.341
  0
LINE
  8
0
 10
105.611
 20
27.341
 11
105.304
 21
27.5076
  0
LINE
  8
0
 10
105.304
 20
27.5076
 11
105
 21
27.6795
  0
LINE
  8
0
 10
105
 20
27.6795
 11
104.699
 21
27.8566
  0
LINE
  8
0
 10
104.699
 20
27.8566
 11
104.402
 21
28.039
  0
LINE
  8
0
 10
104.402
 20
28.039
 11
104.107
 21
28.2266
  0
LINE
  8
0
 10
104.107
 20
28.2266
 11
103.816
 21
28.4192
  0
LINE
  8
0
 10
103.816
 20
28.4192
 11
103.528
 21
28.617
  0
LINE
  8
0
 10
103.528
 20
28.617
 11
103.244
 21
28.8197
  0
LINE
  8
0
 10
103.244
 20
28.8197
 11
102.964
 21
29.0273
  0
LINE
  8
0
 10
102.964
 20
29.0273
 11
102.687
 21
29.2398
  0
LINE
  8
0
 10
102.687
 20
29.2398
 11
102.414
 21
29.4571
  0
LINE
  8
0
 10
102.414
 20
29.4571
 11
102.144
 21
29.6791
  0
LINE
  8
0
 10
102.144
 20
29.6791
 11
101.879
 21
29.9058
  0
LINE
  8
0
 10
101.879
 20
29.9058
 11
101.617
 21
30.1371
  0
LINE
  8
0
 10
101.617
 20
30.1371
 11
101.36
 21
30.3729
  0
LINE
  8
0
 10
101.36
 20
30.3729
 11
101.107
 21
30.6132
  0
LINE
  8
0
 10
101.107
 20
30.6132
 11
100.858
 21
30.8579
  0
LINE
  8
0
 10
100.858
 20
30.8579
 11
100.613
 21
31.1068
  0
LINE
  8
0
 10
100.613
 20
31.1068
 11
100.373
 21
31.36
  0
LINE
  8
0
 10
100.373
 20
31.36
 11
100.137
 21
31.6174
  0
LINE
  8
0
 10
100.137
 20
31.6174
 11
99.9058
 21
31.8788
  0
LINE
  8
0
 10
99.9058
 20
31.8788
 11
99.6791
 21
32.1442
  0
LINE
  8
0
 10
99.6791
 20
32.1442
 11
99.4571
 21
32.4136
  0
LINE
  8
0
 10
99.4571
 20
32.4136
 11
99.2398
 21
32.6868
  0
LINE
  8
0
 10
99.2398
 20
32.6868
 11
99.0273
 21
32.9637
  0
LINE
  8
0
 10
99.0273
 20
32.9637
 11
98.8197
 21
33.2443
  0
LINE
  8
0
 10
98.8197
 20
33.2443
 11
98.617
 21
33.5285
  0
LINE
  8
0
 10
98.617
 20
33.5285
 11
98.4193
 21
33.8161
  0
LINE
  8
0
 10
98.4193
 20
33.8161
 11
98.2266
 21
34.1072
  0
LINE
  8
0
 10
98.2266
 20
34.1072
 11
98.039
 21
34.4016
  0
LINE
  8
0
 10
98.039
 20
34.4016
 11
97.8566
 21
34.6992
  0
LINE
  8
0
 10
97.8566
 20
34.6992
 11
97.6795
 21
35
  0
LINE
  8
0
 10
97.6795
 20
35
 11
97.5076
 21
35.3038
  0
LINE
  8
0
 10
97.5076
 20
35.3038
 11
97.341
 21
35.6106
  0
LINE
  8
0
 10
97.341
 20
35.6106
 11
97.1799
 21
35.9202
  0
LINE
  8
0
 10
97.1799
 20
35.9202
 11
97.0241
 21
36.2326
  0
LINE
  8
0
 10
97.0241
 20
36.2326
 11
96.8738
 21
36.5476
  0
LINE
  8
0
 10
96.8738
 20
36.5476
 11
96.7291
 21
36.8653
  0
LINE
  8
0
 10
96.7291
 20
36.8653
 11
96.5899
 21
37.1854
  0
LINE
  8
0
 10
96.5899
 20
37.1854
 11
96.4563
 21
37.5079
  0
LINE
  8
0
 10
96.4563
 20
37.5079
 11
96.3284
 21
37.8326
  0
LINE
  8
0
 10
96.3284
 20
37.8326
 11
96.2061
 21
38.1596
  0
LINE
  8
0
 10
96.2061
 20
38.1596
 11
96.0896
 21
38.4886
  0
LINE
  8
0
 10
96.0896
 20
38.4886
 11
95.9789
 21
38.8197
  0
LINE
  8
0
 10
95.9789
 20
38.8197
 11
95.8739
 21
39.1526
  0
LINE
  8
0
 10
95.8739
 20
39.1526
 11
95.7748
 21
39.4872
  0
LINE
  8
0
 10
95.7748
 20
39.4872
 11
95.6815
 21
39.8236
  0
LINE
  8
0
 10
95.6815
 20
39.8236
 11
95.5941
 21
40.1616
  0
LINE
  8
0
 10
95.5941
 20
40.1616
 11
95.5126
 21
40.501
  0
LINE
  8
0
 10
95.5126
 20
40.501
 11
95.437
 21
40.8418
  0
LINE
  8
0
 10
95.437
 20
40.8418
 11
95.3674
 21
41.1838
  0
LINE
  8
0
 10
95.3674
 20
41.1838
 11
95.3038
 21
41.527
  0
LINE
  8
0
 10
95.3038
 20
41.527
 11
95.2462
 21
41.8713
  0
LINE
  8
0
 10
95.2462
 20
41.8713
 11
95.1946
 21
42.2165
  0
LINE
  8
0
 10
95.1946
 20
42.2165
 11
95.1491
 21
42.5626
  0
LINE
  8
0
 10
95.1491
 20
42.5626
 11
95.1096
 21
42.9094
  0
LINE
  8
0
 10
95.1096
 20
42.9094
 11
95.0761
 21
43.2569
  0
LINE
  8
0
 10
95.0761
 20
43.2569
 11
95.0487
 21
43.6049
  0
LINE
  8
0
 10
95.0487
 20
43.6049
 11
95.0274
 21
43.9533
  0
LINE
  8
0
 10
95.0274
 20
43.9533
 11
95.0122
 21
44.302
  0
LINE
  8
0
 10
95.0122
 20
44.302
 11
95.003
 21
44.6509
  0
LINE
  8
0
 10
95.003
 20
44.6509
 11
95
 21
45
  0
LINE
  8
0
 10
95
 20
45
 11
95.003
 21
45.349
  0
LINE
  8
0
 10
95.003
 20
45.349
 11
95.0122
 21
45.698
  0
LINE
  8
0
 10
95.0122
 20
45.698
 11
95.0274
 21
46.0467
  0
LINE
  8
0
 10
95.0274
 20
46.0467
 11
95.0487
 21
46.3951
  0
LINE
  8
0
 10
95.0487
 20
46.3951
 11
95.0761
 21
46.7431
  0
LINE
  8
0
 10
95.0761
 20
46.7431
 11
95.1096
 21
47.0906
  0
LINE
  8
0
 10
95.1096
 20
47.0906
 11
95.1491
 21
47.4374
  0
LINE
  8
0
 10
95.1491
 20
47.4374
 11
95.1946
 21
47.7835
  0
LINE
  8
0
 10
95.1946
 20
47.7835
 11
95.2462
 21
48.1287
  0
LINE
  8
0
 10
95.2462
 20
48.1287
 11
95.3038
 21
48.473
  0
LINE
  8
0
 10
95.3038
 20
48.473
 11
95.3674
 21
48.8162
  0
LINE
  8
0
 10
95.3674
 20
48.8162
 11
95.437
 21
49.1582
  0
LINE
  8
0
 10
95.437
 20
49.1582
 11
95.5126
 21
49.499
  0
LINE
  8
0
 10
95.5126
 20
49.499
 11
95.5941
 21
49.8384
  0
LINE
  8
0
 10
95.5941
 20
49.8384
 11
95.6815
 21
50.1764
  0
LINE
  8
0
 10
95.6815
 20
50.1764
 11
95.7748
 21
50.5127
  0
LINE
  8
0
 10
95.7748
 20
50.5127
 11
95.8739
 21
50.8474
  0
LINE
  8
0
 10
95.8739
 20
50.8474
 11
95.9789
 21
51.1803
  0
LINE
  8
0
 10
95.9789
 20
51.1803
 11
96.0896
 21
51.5114
  0
LINE
  8
0
 10
96.0896
 20
51.5114
 11
96.2061
 21
51.8404
  0
LINE
  8
0
 10
96.2061
 20
51.8404
 11
96.3284
 21
52.1674
  0
LINE
  8
0
 10
96.3284
 20
52.1674
 11
96.4563
 21
52.4921
  0
LINE
  8
0
 10
96.4563
 20
52.4921
 11
96.5899
 21
52.8146
  0
LINE
  8
0
 10
96.5899
 20
52.8146
 11
96.7291
 21
53.1347
  0
LINE
  8
0
 10
96.7291
 20
53.1347
 11
96.8738
 21
53.4524
  0
LINE
  8
0
 10
96.8738
 20
53.4524
 11
97.0241
 21
53.7674
  0
LINE
  8
0
 10
97.0241
 20
53.7674
 11
97.1799
 21
54.0798
  0
LINE
  8
0
 10
97.1799
 20
54.0798
 11
97.341
 21
54.3894
  0
LINE
  8
0
 10
97.341
 20
54.3894
 11
97.5076
 21
54.6962
  0
LINE
  8
0
 10
97.5076
 20
54.6962
 11
97.6795
 21
55
  0
LINE
  8
0
 10
97.6795
 20
55
 11
97.8566
 21
55.3008
  0
LINE
  8
0
 10
97.8566
 20
55.3008
 11
98.039
 21
55.5984
  0
LINE
  8
0
 10
98.039
 20
55.5984
 11
98.2266
 21
55.8928
  0
LINE
  8
0
 10
98.2266
 20
55.8928
 11
98.4193
 21
56.1839
  0
LINE
  8
0
 10
98.4193
 20
56.1839
 11
98.617
 21
56.4715
  0
LINE
  8
0
 10
98.617
 20
56.4715
 11
98.8197
 21
56.7557
  0
LINE
  8
0
 10
98.8197
 20
56.7557
 11
99.0273
 21
57.0363
  0
LINE
  8
0
 10
99.0273
 20
57.0363
 11
99.2398
 21
57.3132
  0
LINE
  8
0
 10
99.2398
 20
57.3132
 11
99.4571
 21
57.5864
  0
LINE
  8
0
 10
99.4571
 20
57.5864
 11
99.6791
 21
57.8557
  0
LINE
  8
0
 10
99.6791
 20
57.8557
 11
99.9058
 21
58.1212
  0
LINE
  8
0
 10
99.9058
 20
58.1212
 11
100.137
 21
58.3826
  0
LINE
  8
0
 10
100.137
 20
58.3826
 11
100.373
 21
58.64
  0
LINE
  8
0
 10
100.373
 20
58.64
 11
100.613
 21
58.8932
  0
LINE
  8
0
 10
100.613
 20
58.8932
 11
100.858
 21
59.1421
  0
LINE
  8
0
 10
100.858
 20
59.1421
 11
101.107
 21
59.3868
  0
LINE
  8
0
 10
101.107
 20
59.3868
 11
101.36
 21
59.6271
  0
LINE
  8
0
 10
101.36
 20
59.6271
 11
101.617
 21
59.8629
  0
LINE
  8
0
 10
101.617
 20
59.8629
 11
101.879
 21
60.0942
  0
LINE
  8
0
 10
101.879
 20
60.0942
 11
102.144
 21
60.3209
  0
LINE
  8
0
 10
102.144
 20
60.3209
 11
102.414
 21
60.5429
  0
LINE
  8
0
 10
102.414
 20
60.5429
 11
102.687
 21
60.7602
  0
LINE
  8
0
 10
102.687
 20
60.7602
 11
102.964
 21
60.9727
  0
LINE
  8
0
 10
102.964
 20
60.9727
 11
103.244
 21
61.1803
  0
LINE
  8
0
 10
103.244
 20
61.1803
 11
103.528
 21
61.383
  0
LINE
  8
0
 10
103.528
 20
61.383
 11
103.816
 21
61.5807
  0
LINE
  8
0
 10
103.816
 20
61.5807
 11
104.107
 21
61.7734
  0
LINE
  8
0
 10
104.107
 20
61.7734
 11
104.402
 21
61.961
  0
LINE
  8
0
 10
104.402
 20
61.961
 11
104.699
 21
62.1433
  0
LINE
  8
0
 10
104.699
 20
62.1433
 11
105
 21
62.3205
  0
LINE
  8
0
 10
105
 20
62.3205
 11
105.304
 21
62.4924
  0
LINE
  8
0
 10
105.304
 20
62.4924
 11
105.611
 21
62.659
  0
LINE
  8
0
 10
105.611
 20
62.659
 11
105.92
 21
62.8201
  0
LINE
  8
0
 10
105.92
 20
62.8201
 11
106.233
 21
62.9759
  0
LINE
  8
0
 10
106.233
 20
62.9759
 11
106.548
 21
63.1261
  0
LINE
  8
0
 10
106.548
 20
63.1261
 11
106.865
 21
63.2709
  0
LINE
  8
0
 10
106.865
 20
63.2709
 11
107.185
 21
63.4101
  0
LINE
  8
0
 10
107.185
 20
63.4101
 11
107.508
 21
63.5437
  0
LINE
  8
0
 10
107.508
 20
63.5437
 11
107.833
 21
63.6716
  0
LINE
  8
0
 10
107.833
 20
63.6716
 11
108.16
 21
63.7939
  0
LINE
  8
0
 10
108.16
 20
63.7939
 11
108.489
 21
63.9104
  0
LINE
  8
0
 10
108.489
 20
63.9104
 11
108.82
 21
64.0211
  0
LINE
  8
0
 10
108.82
 20
64.0211
 11
109.153
 21
64.1261
  0
LINE
  8
0
 10
109.153
 20
64.1261
 11
109.487
 21
64.2252
  0
LINE
  8
0
 10
109.487
 20
64.2252
 11
109.824
 21
64.3185
  0
LINE
  8
0
 10
109.824
 20
64.3185
 11
110.162
 21
64.4059
  0
LINE
  8
0
 10
110.162
 20
64.4059
 11
110.501
 21
64.4874
  0
LINE
  8
0
 10
110.501
 20
64.4874
 11
110.842
 21
64.5629
  0
LINE
  8
0
 10
110.842
 20
64.5629
 11
111.184
 21
64.6325
  0
LINE
  8
0
 10
111.184
 20
64.6325
 11
111.527
 21
64.6962
  0
LINE
  8
0
 10
111.527
 20
64.6962
 11
111.871
 21
64.7538
  0
LINE
  8
0
 10
111.871
 20
64.7538
 11
112.217
 21
64.8054
  0
LINE
  8
0
 10
112.217
 20
64.8054
 11
112.563
 21
64.8509
  0
LINE
  8
0
 10
112.563
 20
64.8509
 11
112.909
 21
64.8904
  0
LINE
  8
0
 10
112.909
 20
64.8904
 11
113.257
 21
64.9239
  0
LINE
  8
0
 10
113.257
 20
64.9239
 11
113.605
 21
64.9513
  0
LINE
  8
0
 10
113.605
 20
64.9513
 11
113.953
 21
64.9726
  0
LINE
  8
0
 10
113.953
 20
64.9726
 11
114.302
 21
64.9878
  0
LINE
  8
0
 10
114.302
 20
64.9878
 11
114.651
 21
64.9969
  0
LINE
  8
0
 10
114.651
 20
64.9969
 11
115
 21
65
  0
LINE
  8
0
 10
115
 20
65
 11
115.349
 21
64.9969
  0
LINE
  8
0
 10
115.349
 20
64.9969
 11
115.698
 21
64.9878
  0
LINE
  8
0
 10
115.698
 20
64.9878
 11
116.047
 21
64.9726
  0
LINE
  8
0
 10
116.047
 20
64.9726
 11
116.395
 21
64.9513
  0
LINE
  8
0
 10
116.395
 20
64.9513
 11
116.743
 21
64.9239
  0
LINE
  8
0
 10
116.743
 20
64.9239
 11
117.091
 21
64.8904
  0
LINE
  8
0
 10
117.091
 20
64.8904
 11
117.437
 21
64.8509
  0
LINE
  8
0
 10
117.437
 20
64.8509
 11
117.783
 21
64.8054
  0
LINE
  8
0
 10
117.783
 20
64.8054
 11
118.129
 21
64.7538
  0
LINE
  8
0
 10
118.129
 20
64.7538
 11
118.473
 21
64.6962
  0
LINE
  8
0
 10
118.473
 20
64.6962
 11
118.816
 21
64.6325
  0
LINE
  8
0
 10
118.816
 20
64.6325
 11
119.158
 21
64.5629
  0
LINE
  8
0
 10
119.158
 20
64.5629
 11
119.499
 21
64.4874
  0
LINE
  8
0
 10
119.499
 20
64.4874
 11
119.838
 21
64.4059
  0
LINE
  8
0
 10
119.838
 20
64.4059
 11
120.176
 21
64.3185
  0
LINE
  8
0
 10
120.176
 20
64.3185
 11
120.513
 21
64.2252
  0
LINE
  8
0
 10
120.513
 20
64.2252
 11
120.847
 21
64.1261
  0
LINE
  8
0
 10
120.847
 20
64.1261
 11
121.18
 21
64.0211
  0
LINE
  8
0
 10
121.18
 20
64.0211
 11
121.511
 21
63.9104
  0
LINE
  8
0
 10
121.511
 20
63.9104
 11
121.84
 21
63.7939
  0
LINE
  8
0
 10
121.84
 20
63.7939
 11
122.167
 21
63.6716
  0
LINE
  8
0
 10
122.167
 20
63.6716
 11
122.492
 21
63.5437
  0
LINE
  8
0
 10
122.492
 20
63.5437
 11
122.815
 21
63.4101
  0
LINE
  8
0
 10
122.815
 20
63.4101
 11
123.135
 21
63.2709
  0
LINE
  8
0
 10
123.135
 20
63.2709
 11
123.452
 21
63.1261
  0
LINE
  8
0
 10
123.452
 20
63.1261
 11
123.767
 21
62.9759
  0
LINE
  8
0
 10
123.767
 20
62.9759
 11
124.08
 21
62.8201
  0
LINE
  8
0
 10
124.08
 20
62.8201
 11
124.389
 21
62.659
  0
LINE
  8
0
 10
124.389
 20
62.659
 11
124.696
 21
62.4924
  0
LINE
  8
0
 10
124.696
 20
62.4924
 11
125
 21
62.3205
  0
LINE
  8
0
 10
125
 20
62.3205
 11
125.301
 21
62.1433
  0
LINE
  8
0
 10
125.301
 20
62.1433
 11
125.598
 21
61.961
  0
LINE
  8
0
 10
125.598
 20
61.961
 11
125.893
 21
61.7734
  0
LINE
  8
0
 10
125.893
 20
61.7734
 11
126.184
 21
61.5807
  0
LINE
  8
0
 10
126.184
 20
61.5807
 11
126.472
 21
61.383
  0
LINE
  8
0
 10
126.472
 20
61.383
 11
126.756
 21
61.1803
  0
LINE
  8
0
 10
126.756
 20
61.1803
 11
127.036
 21
60.9727
  0
LINE
  8
0
 10
127.036
 20
60.9727
 11
127.313
 21
60.7602
  0
LINE
  8
0
 10
127.313
 20
60.7602
 11
127.586
 21
60.5429
  0
LINE
  8
0
 10
127.586
 20
60.5429
 11
127.856
 21
60.3209
  0
LINE
  8
0
 10
127.856
 20
60.3209
 11
128.121
 21
60.0942
  0
LINE
  8
0
 10
128.121
 20
60.0942
 11
128.383
 21
59.8629
  0
LINE
  8
0
 10
128.383
 20
59.8629
 11
128.64
 21
59.6271
  0
LINE
  8
0
 10
128.64
 20
59.6271
 11
128.893
 21
59.3868
  0
LINE
  8
0
 10
128.893
 20
59.3868
 11
129.142
 21
59.1421
  0
LINE
  8
0
 10
129.142
 20
59.1421
 11
129.387
 21
58.8932
  0
LINE
  8
0
 10
129.387
 20
58.8932
 11
129.627
 21
58.64
  0
LINE
  8
0
 10
129.627
 20
58.64
 11
129.863
 21
58.3826
  0
LINE
  8
0
 10
129.863
 20
58.3826
 11
130.094
 21
58.1212
  0
LINE
  8
0
 10
130.094
 20
58.1212
 11
130.321
 21
57.8557
  0
LINE
  8
0
 10
130.321
 20
57.8557
 11
130.543
 21
57.5864
  0
LINE
  8
0
 10
130.543
 20
57.5864
 11
130.76
 21
57.3132
  0
LINE
  8
0
 10
130.76
 20
57.3132
 11
130.973
 21
57.0363
  0
LINE
  8
0
 10
130.973
 20
57.0363
 11
131.18
 21
56.7557
  0
LINE
  8
0
 10
131.18
 20
56.7557
 11
131.383
 21
56.4715
  0
LINE
  8
0
 10
131.383
 20
56.4715
 11
131.581
 21
56.1839
  0
LINE
  8
0
 10
131.581
 20
56.1839
 11
131.773
 21
55.8928
  0
LINE
  8
0
 10
131.773
 20
55.8928
 11
131.961
 21
55.5984
  0
LINE
  8
0
 10
131.961
 20
55.5984
 11
132.143
 21
55.3008
  0
LINE
  8
0
 10
132.143
 20
55.3008
 11
132.321
 21
55
  0
LINE
  8
0
 10
132.321
 20
55
 11
132.492
 21
54.6962
  0
LINE
  8
0
 10
132.492
 20
54.6962
 11
132.659
 21
54.3894
  0
LINE
  8
0
 10
132.659
 20
54.3894
 11
132.82
 21
54.0798
  0
LINE
  8
0
 10
132.82
 20
54.0798
 11
132.976
 21
53.7674
  0
LINE
  8
0
 10
132.976
 20
53.7674
 11
133.126
 21
53.4524
  0
LINE
  8
0
 10
133.126
 20
53.4524
 11
133.271
 21
53.1347
  0
LINE
  8
0
 10
133.271
 20
53.1347
 11
133.41
 21
52.8146
  0
LINE
  8
0
 10
133.41
 20
52.8146
 11
133.544
 21
52.4921
  0
LINE
  8
0
 10
133.544
 20
52.4921
 11
133.672
 21
52.1674
  0
LINE
  8
0
 10
133.672
 20
52.1674
 11
133.794
 21
51.8404
  0
LINE
  8
0
 10
133.794
 20
51.8404
 11
133.91
 21
51.5114
  0
LINE
  8
0
 10
133.91
 20
51.5114
 11
134.021
 21
51.1803
  0
LINE
  8
0
 10
134.021
 20
51.1803
 11
134.126
 21
50.8474
  0
LINE
  8
0
 10
134.126
 20
50.8474
 11
134.225
 21
50.5127
  0
LINE
  8
0
 10
134.225
 20
50.5127
 11
134.319
 21
50.1764
  0
LINE
  8
0
 10
134.319
 20
50.1764
 11
134.406
 21
49.8384
  0
LINE
  8
0
 10
134.406
 20
49.8384
 11
134.487
 21
49.499
  0
LINE
  8
0
 10
134.487
 20
49.499
 11
134.563
 21
49.1582
  0
LINE
  8
0
 10
134.563
 20
49.1582
 11
134.633
 21
48.8162
  0
LINE
  8
0
 10
134.633
 20
48.8162
 11
134.696
 21
48.473
  0
LINE
  8
0
 10
134.696
 20
48.473
 11
134.754
 21
48.1287
  0
LINE
  8
0
 10
134.754
 20
48.1287
 11
134.805
 21
47.7835
  0
LINE
  8
0
 10
134.805
 20
47.7835
 11
134.851
 21
47.4374
  0
LINE
  8
0
 10
134.851
 20
47.4374
 11
134.89
 21
47.0906
  0
LINE
  8
0
 10
134.89
 20
47.0906
 11
134.924
 21
46.7431
  0
LINE
  8
0
 10
134.924
 20
46.7431
 11
134.951
 21
46.3951
  0
LINE
  8
0
 10
134.951
 20
46.3951
 11
134.973
 21
46.0467
  0
LINE
  8
0
 10
134.973
 20
46.0467
 11
134.988
 21
45.698
  0
LINE
  8
0
 10
134.988
 20
45.698
 11
134.997
 21
45.349
  0
LINE
  8
0
 10
134.997
 20
45.349
 11
135
 21
45
  0
LINE
  8
0
 10
135
 20
45
 11
134.997
 21
44.6509
  0
LINE
  8
0
 10
134.997
 20
44.6509
 11
134.988
 21
44.302
  0
LINE
  8
0
 10
134.988
 20
44.302
 11
134.973
 21
43.9533
  0
LINE
  8
0
 10
134.973
 20
43.9533
 11
134.951
 21
43.6049
  0
LINE
  8
0
 10
134.951
 20
43.6049
 11
134.924
 21
43.2569
  0
LINE
  8
0
 10
134.924
 20
43.2569
 11
134.89
 21
42.9094
  0
LINE
  8
0
 10
134.89
 20
42.9094
 11
134.851
 21
42.5626
  0
LINE
  8
0
 10
134.851
 20
42.5626
 11
134.805
 21
42.2165
  0
LINE
  8
0
 10
134.805
 20
42.2165
 11
134.754
 21
41.8713
  0
LINE
  8
0
 10
134.754
 20
41.8713
 11
134.696
 21
41.527
  0
LINE
  8
0
 10
134.696
 20
41.527
 11
134.633
 21
41.1838
  0
LINE
  8
0
 10
134.633
 20
41.1838
 11
134.563
 21
40.8418
  0
LINE
  8
0
 10
134.563
 20
40.8418
 11
134.487
 21
40.501
  0
LINE
  8
0
 10
134.487
 20
40.501
 11
134.406
 21
40.1616
  0
LINE
  8
0
 10
134.406
 20
40.1616
 11
134.319
 21
39.8236
  0
LINE
  8
0
 10
134.319
 20
39.8236
 11
134.225
 21
39.4872
  0
LINE
  8
0
 10
134.225
 20
39.4872
 11
134.126
 21
39.1526
  0
LINE
  8
0
 10
134.126
 20
39.1526
 11
134.021
 21
38.8197
  0
LINE
  8
0
 10
134.021
 20
38.8197
 11
133.91
 21
38.4886
  0
LINE
  8
0
 10
133.91
 20
38.4886
 11
133.794
 21
38.1596
  0
LINE
  8
0
 10
133.794
 20
38.1596
 11
133.672
 21
37.8326
  0
LINE
  8
0
 10
133.672
 20
37.8326
 11
133.544
 21
37.5079
  0
LINE
  8
0
 10
133.544
 20
37.5079
 11
133.41
 21
37.1854
  0
LINE
  8
0
 10
133.41
 20
37.1854
 11
133.271
 21
36.8653
  0
LINE
  8
0
 10
133.271
 20
36.8653
 11
133.126
 21
36.5476
  0
LINE
  8
0
 10
133.126
 20
36.5476
 11
132.976
 21
36.2326
  0
LINE
  8
0
 10
132.976
 20
36.2326
 11
132.82
 21
35.9202
  0
LINE
  8
0
 10
132.82
 20
35.9202
 11
132.659
 21
35.6106
  0
LINE
  8
0
 10
132.659
 20
35.6106
 11
132.492
 21
35.3038
  0
LINE
  8
0
 10
132.492
 20
35.3038
 11
132.321
 21
35
  0
LINE
  8
0
 10
132.321
 20
35
 11
132.143
 21
34.6992
  0
LINE
  8
0
 10
132.143
 20
34.6992
 11
131.961
 21
34.4016
  0
LINE
  8
0
 10
131.961
 20
34.4016
 11
131.773
 21
34.1072
  0
LINE
  8
0
 10
131.773
 20
34.1072
 11
131.581
 21
33.8161
  0
LINE
  8
0
 10
131.581
 20
33.8161
 11
131.383
 21
33.5285
  0
LINE
  8
0
 10
131.383
 20
33.5285
 11
131.18
 21
33.2443
  0
LINE
  8
0
 10
131.18
 20
33.2443
 11
130.973
 21
32.9637
  0
LINE
  8
0
 10
130.973
 20
32.9637
 11
130.76
 21
32.6868
  0
LINE
  8
0
 10
130.76
 20
32.6868
 11
130.543
 21
32.4136
  0
LINE
  8
0
 10
130.543
 20
32.4136
 11
130.321
 21
32.1442
  0
LINE
  8
0
 10
130.321
 20
32.1442
 11
130.094
 21
31.8788
  0
LINE
  8
0
 10
130.094
 20
31.8788
 11
129.863
 21
31.6174
  0
LINE
  8
0
 10
129.863
 20
31.6174
 11
129.627
 21
31.36
  0
LINE
  8
0
 10
129.627
 20
31.36
 11
129.387
 21
31.1068
  0
LINE
  8
0
 10
129.387
 20
31.1068
 11
129.142
 21
30.8579
  0
LINE
  8
0
 10
129.142
 20
30.8579
 11
128.893
 21
30.6132
  0
LINE
  8
0
 10
128.893
 20
30.6132
 11
128.64
 21
30.3729
  0
LINE
  8
0
 10
128.64
 20
30.3729
 11
128.383
 21
30.1371
  0
LINE
  8
0
 10
128.383
 20
30.1371
 11
128.121
 21
29.9058
  0
LINE
  8
0
 10
128.121
 20
29.9058
 11
127.856
 21
29.6791
  0
LINE
  8
0
 10
127.856
 20
29.6791
 11
127.586
 21
29.4571
  0
LINE
  8
0
 10
127.586
 20
29.4571
 11
127.313
 21
29.2398
  0
LINE
  8
0
 10
127.313
 20
29.2398
 11
127.036
 21
29.0273
  0
LINE
  8
0
 10
127.036
 20
29.0273
 11
126.756
 21
28.8197
  0
LINE
  8
0
 10
126.756
 20
28.8197
 11
126.472
 21
28.617
  0
LINE
  8
0
 10
126.472
 20
28.617
 11
126.184
 21
28.4192
  0
LINE
  8
0
 10
126.184
 20
28.4192
 11
125.893
 21
28.2266
  0
LINE
  8
0
 10
125.893
 20
28.2266
 11
125.598
 21
28.039
  0
LINE
  8
0
 10
125.598
 20
28.039
 11
125.301
 21
27.8566
  0
LINE
  8
0
 10
125.301
 20
27.8566
 11
125
 21
27.6795
  0
LINE
  8
0
 10
125
 20
27.6795
 11
124.696
 21
27.5076
  0
LINE
  8
0
 10
124.696
 20
27.5076
 11
124.389
 21
27.341
  0
LINE
  8
0
 10
124.389
 20
27.341
 11
124.08
 21
27.1799
  0
LINE
  8
0
 10
124.08
 20
27.1799
 11
123.767
 21
27.0241
  0
LINE
  8
0
 10
123.767
 20
27.0241
 11
123.452
 21
26.8738
  0
LINE
  8
0
 10
123.452
 20
26.8738
 11
123.135
 21
26.7291
  0
LINE
  8
0
 10
123.135
 20
26.7291
 11
122.815
 21
26.5899
  0
LINE
  8
0
 10
122.815
 20
26.5899
 11
122.492
 21
26.4563
  0
LINE
  8
0
 10
122.492
 20
26.4563
 11
122.167
 21
26.3284
  0
LINE
  8
0
 10
122.167
 20
26.3284
 11
121.84
 21
26.2061
  0
LINE
  8
0
 10
121.84
 20
26.2061
 11
121.511
 21
26.0896
  0
LINE
  8
0
 10
121.511
 20
26.0896
 11
121.18
 21
25.9789
  0
LINE
  8
0
 10
121.18
 20
25.9789
 11
120.847
 21
25.8739
  0
LINE
  8
0
 10
120.847
 20
25.8739
 11
120.513
 21
25.7748
  0
LINE
  8
0
 10
120.513
 20
25.7748
 11
120.176
 21
25.6815
  0
LINE
  8
0
 10
120.176
 20
25.6815
 11
119.838
 21
25.5941
  0
LINE
  8
0
 10
119.838
 20
25.5941
 11
119.499
 21
25.5126
  0
LINE
  8
0
 10
119.499
 20
25.5126
 11
119.158
 21
25.437
  0
LINE
  8
0
 10
119.158
 20
25.437
 11
118.816
 21
25.3674
  0
LINE
  8
0
 10
118.816
 20
25.3674
 11
118.473
 21
25.3038
  0
LINE
  8
0
 10
118.473
 20
25.3038
 11
118.129
 21
25.2462
  0
LINE
  8
0
 10
118.129
 20
25.2462
 11
117.783
 21
25.1946
  0
LINE
  8
0
 10
117.783
 20
25.1946
 11
117.437
 21
25.1491
  0
LINE
  8
0
 10
117.437
 20
25.1491
 11
117.091
 21
25.1096
  0
LINE
  8
0
 10
117.091
 20
25.1096
 11
116.743
 21
25.0761
  0
LINE
  8
0
 10
116.743
 20
25.0761
 11
116.395
 21
25.0487
  0
LINE
  8
0
 10
116.395
 20
25.0487
 11
116.047
 21
25.0274
  0
LINE
  8
0
 10
116.047
 20
25.0274
 11
115.698
 21
25.0122
  0
LINE
  8
0
 10
115.698
 20
25.0122
 11
115.349
 21
25.003
  0
LINE
  8
0
 10
115.349
 20
25.003
 11
115
 21
25
  0
LINE
  8
0
 10
115
 20
25
 11
114.651
 21
25.003
  0
LINE
  8
0
 10
-21.5
 20
48.3
 11
-21.824
 21
48.317
  0
LINE
  8
0
 10
-21.824
 20
48.317
 11
-22.1445
 21
48.3677
  0
LINE
  8
0
 10
-22.1445
 20
48.3677
 11
-22.4579
 21
48.4517
  0
LINE
  8
0
 10
-22.4579
 20
48.4517
 11
-22.7609
 21
48.568
  0
LINE
  8
0
 10
-22.7609
 20
48.568
 11
-23.05
 21
48.7153
  0
LINE
  8
0
 10
-23.05
 20
48.7153
 11
-23.3221
 21
48.892
  0
LINE
  8
0
 10
-23.3221
 20
48.892
 11
-23.5743
 21
49.0963
  0
LINE
  8
0
 10
-23.5743
 20
49.0963
 11
-23.8037
 21
49.3257
  0
LINE
  8
0
 10
-23.8037
 20
49.3257
 11
-24.0079
 21
49.5779
  0
LINE
  8
0
 10
-24.0079
 20
49.5779
 11
-24.1847
 21
49.85
  0
LINE
  8
0
 10
-24.1847
 20
49.85
 11
-24.332
 21
50.1391
  0
LINE
  8
0
 10
-24.332
 20
50.1391
 11
-24.4483
 21
50.442
  0
LINE
  8
0
 10
-24.4483
 20
50.442
 11
-24.5323
 21
50.7555
  0
LINE
  8
0
 10
-24.5323
 20
50.7555
 11
-24.583
 21
51.076
  0
LINE
  8
0
 10
-24.583
 20
51.076
 11
-24.6
 21
51.4
  0
LINE
  8
0
 10
-24.6
 20
51.4
 11
-24.583
 21
51.724
  0
LINE
  8
0
 10
-24.583
 20
51.724
 11
-24.5323
 21
52.0445
  0
LINE
  8
0
 10
-24.5323
 20
52.0445
 11
-24.4483
 21
52.3579
  0
LINE
  8
0
 10
-24.4483
 20
52.3579
 11
-24.332
 21
52.6609
  0
LINE
  8
0
 10
-24.332
 20
52.6609
 11
-24.1847
 21
52.95
  0
LINE
  8
0
 10
-24.1847
 20
52.95
 11
-24.0079
 21
53.2221
  0
LINE
  8
0
 10
-24.0079
 20
53.2221
 11
-23.8037
 21
53.4743
  0
LINE
  8
0
 10
-23.8037
 20
53.4743
 11
-23.5743
 21
53.7038
  0
LINE
  8
0
 10
-23.5743
 20
53.7038
 11
-23.3221
 21
53.9079
  0
LINE
  8
0
 10
-23.3221
 20
53.9079
 11
-23.05
 21
54.0847
  0
LINE
  8
0
 10
-23.05
 20
54.0847
 11
-22.7609
 21
54.232
  0
LINE
  8
0
 10
-22.7609
 20
54.232
 11
-22.4579
 21
54.3483
  0
LINE
  8
0
 10
-22.4579
 20
54.3483
 11
-22.1445
 21
54.4323
  0
LINE
  8
0
 10
-22.1445
 20
54.4323
 11
-21.824
 21
54.483
  0
LINE
  8
0
 10
-21.824
 20
54.483
 11
-21.5
 21
54.5
  0
LINE
  8
0
 10
-21.5
 20
54.5
 11
-14.5
 21
54.5
  0
LINE
  8
0
 10
-14.5
 20
54.5
 11
-14.1759
 21
54.483
  0
LINE
  8
0
 10
-14.1759
 20
54.483
 11
-13.8555
 21
54.4323
  0
LINE
  8
0
 10
-13.8555
 20
54.4323
 11
-13.542
 21
54.3483
  0
LINE
  8
0
 10
-13.542
 20
54.3483
 11
-13.2391
 21
54.232
  0
LINE
  8
0
 10
-13.2391
 20
54.232
 11
-12.95
 21
54.0847
  0
LINE
  8
0
 10
-12.95
 20
54.0847
 11
-12.6779
 21
53.9079
  0
LINE
  8
0
 10
-12.6779
 20
53.9079
 11
-12.4257
 21
53.7038
  0
LINE
  8
0
 10
-12.4257
 20
53.7038
 11
-12.1962
 21
53.4743
  0
LINE
  8
0
 10
-12.1962
 20
53.4743
 11
-11.992
 21
53.2221
  0
LINE
  8
0
 10
-11.992
 20
53.2221
 11
-11.8153
 21
52.95
  0
LINE
  8
0
 10
-11.8153
 20
52.95
 11
-11.668
 21
52.6609
  0
LINE
  8
0
 10
-11.668
 20
52.6609
 11
-11.5517
 21
52.3579
  0
LINE
  8
0
 10
-11.5517
 20
52.3579
 11
-11.4677
 21
52.0445
  0
LINE
  8
0
 10
-11.4677
 20
52.0445
 11
-11.417
 21
51.724
  0
LINE
  8
0
 10
-11.417
 20
51.724
 11
-11.4
 21
51.4
  0
LINE
  8
0
 10
-11.4
 20
51.4
 11
-11.417
 21
51.076
  0
LINE
  8
0
 10
-11.417
 20
51.076
 11
-11.4677
 21
50.7555
  0
LINE
  8
0
 10
-11.4677
 20
50.7555
 11
-11.5517
 21
50.442
  0
LINE
  8
0
 10
-11.5517
 20
50.442
 11
-11.668
 21
50.1391
  0
LINE
  8
0
 10
-11.668
 20
50.1391
 11
-11.8153
 21
49.85
  0
LINE
  8
0
 10
-11.8153
 20
49.85
 11
-11.992
 21
49.5779
  0
LINE
  8
0
 10
-11.992
 20
49.5779
 11
-12.1962
 21
49.3257
  0
LINE
  8
0
 10
-12.1962
 20
49.3257
 11
-12.4257
 21
49.0963
  0
LINE
  8
0
 10
-12.4257
 20
49.0963
 11
-12.6779
 21
48.892
  0
LINE
  8
0
 10
-12.6779
 20
48.892
 11
-12.95
 21
48.7153
  0
LINE
  8
0
 10
-12.95
 20
48.7153
 11
-13.2391
 21
48.568
  0
LINE
  8
0
 10
-13.2391
 20
48.568
 11
-13.542
 21
48.4517
  0
LINE
  8
0
 10
-13.542
 20
48.4517
 11
-13.8555
 21
48.3677
  0
LINE
  8
0
 10
-13.8555
 20
48.3677
 11
-14.1759
 21
48.317
  0
LINE
  8
0
 10
-14.1759
 20
48.317
 11
-14.5
 21
48.3
  0
LINE
  8
0
 10
-14.5
 20
48.3
 11
-21.5
 21
48.3
  0
LINE
  8
0
 10
9
 20
18
 11
9
 21
53
  0
LINE
  8
0
 10
9
 20
53
 11
57.75
 21
53
  0
LINE
  8
0
 10
57.75
 20
53
 11
57.75
 21
18
  0
LINE
  8
0
 10
57.75
 20
18
 11
9
 21
18
  0
LINE
  8
0
 10
60.51
 20
49.406
 11
60.3963
 21
49.424
  0
LINE
  8
0
 10
60.3963
 20
49.424
 11
60.2851
 21
49.4538
  0
LINE
  8
0
 10
60.2851
 20
49.4538
 11
60.1776
 21
49.4951
  0
LINE
  8
0
 10
60.1776
 20
49.4951
 11
60.075
 21
49.5474
  0
LINE
  8
0
 10
60.075
 20
49.5474
 11
59.9784
 21
49.6101
  0
LINE
  8
0
 10
59.9784
 20
49.6101
 11
59.8889
 21
49.6825
  0
LINE
  8
0
 10
59.8889
 20
49.6825
 11
59.8075
 21
49.7639
  0
LINE
  8
0
 10
59.8075
 20
49.7639
 11
59.7351
 21
49.8534
  0
LINE
  8
0
 10
59.7351
 20
49.8534
 11
59.6724
 21
49.95
  0
LINE
  8
0
 10
59.6724
 20
49.95
 11
59.6201
 21
50.0526
  0
LINE
  8
0
 10
59.6201
 20
50.0526
 11
59.5788
 21
50.1601
  0
LINE
  8
0
 10
59.5788
 20
50.1601
 11
59.549
 21
50.2713
  0
LINE
  8
0
 10
59.549
 20
50.2713
 11
59.531
 21
50.385
  0
LINE
  8
0
 10
59.531
 20
50.385
 11
59.525
 21
50.5
  0
LINE
  8
0
 10
59.525
 20
50.5
 11
59.531
 21
50.615
  0
LINE
  8
0
 10
59.531
 20
50.615
 11
59.549
 21
50.7287
  0
LINE
  8
0
 10
59.549
 20
50.7287
 11
59.5788
 21
50.8399
  0
LINE
  8
0
 10
59.5788
 20
50.8399
 11
59.6201
 21
50.9474
  0
LINE
  8
0
 10
59.6201
 20
50.9474
 11
59.6724
 21
51.05
  0
LINE
  8
0
 10
59.6724
 20
51.05
 11
59.7351
 21
51.1466
  0
LINE
  8
0
 10
59.7351
 20
51.1466
 11
59.8075
 21
51.236
  0
LINE
  8
0
 10
59.8075
 20
51.236
 11
59.8889
 21
51.3175
  0
LINE
  8
0
 10
59.8889
 20
51.3175
 11
59.9784
 21
51.3899
  0
LINE
  8
0
 10
59.9784
 20
51.3899
 11
60.075
 21
51.4526
  0
LINE
  8
0
 10
60.075
 20
51.4526
 11
60.1776
 21
51.5049
  0
LINE
  8
0
 10
60.1776
 20
51.5049
 11
60.2851
 21
51.5462
  0
LINE
  8
0
 10
60.2851
 20
51.5462
 11
60.3963
 21
51.576
  0
LINE
  8
0
 10
60.3963
 20
51.576
 11
60.51
 21
51.594
  0
LINE
  8
0
 10
60.51
 20
51.594
 11
60.625
 21
51.6
  0
LINE
  8
0
 10
60.625
 20
51.6
 11
60.74
 21
51.594
  0
LINE
  8
0
 10
60.74
 20
51.594
 11
60.8537
 21
51.576
  0
LINE
  8
0
 10
60.8537
 20
51.576
 11
60.9649
 21
51.5462
  0
LINE
  8
0
 10
60.9649
 20
51.5462
 11
61.0724
 21
51.5049
  0
LINE
  8
0
 10
61.0724
 20
51.5049
 11
61.175
 21
51.4526
  0
LINE
  8
0
 10
61.175
 20
51.4526
 11
61.2716
 21
51.3899
  0
LINE
  8
0
 10
61.2716
 20
51.3899
 11
61.361
 21
51.3175
  0
LINE
  8
0
 10
61.361
 20
51.3175
 11
61.4425
 21
51.236
  0
LINE
  8
0
 10
61.4425
 20
51.236
 11
61.5149
 21
51.1466
  0
LINE
  8
0
 10
61.5149
 20
51.1466
 11
61.5776
 21
51.05
  0
LINE
  8
0
 10
61.5776
 20
51.05
 11
61.6299
 21
50.9474
  0
LINE
  8
0
 10
61.6299
 20
50.9474
 11
61.6712
 21
50.8399
  0
LINE
  8
0
 10
61.6712
 20
50.8399
 11
61.701
 21
50.7287
  0
LINE
  8
0
 10
61.701
 20
50.7287
 11
61.719
 21
50.615
  0
LINE
  8
0
 10
61.719
 20
50.615
 11
61.725
 21
50.5
  0
LINE
  8
0
 10
61.725
 20
50.5
 11
61.719
 21
50.385
  0
LINE
  8
0
 10
61.719
 20
50.385
 11
61.701
 21
50.2713
  0
LINE
  8
0
 10
61.701
 20
50.2713
 11
61.6712
 21
50.1601
  0
LINE
  8
0
 10
61.6712
 20
50.1601
 11
61.6299
 21
50.0526
  0
LINE
  8
0
 10
61.6299
 20
50.0526
 11
61.5776
 21
49.95
  0
LINE
  8
0
 10
61.5776
 20
49.95
 11
61.5149
 21
49.8534
  0
LINE
  8
0
 10
61.5149
 20
49.8534
 11
61.4425
 21
49.7639
  0
LINE
  8
0
 10
61.4425
 20
49.7639
 11
61.361
 21
49.6825
  0
LINE
  8
0
 10
61.361
 20
49.6825
 11
61.2716
 21
49.6101
  0
LINE
  8
0
 10
61.2716
 20
49.6101
 11
61.175
 21
49.5474
  0
LINE
  8
0
 10
61.175
 20
49.5474
 11
61.0724
 21
49.4951
  0
LINE
  8
0
 10
61.0724
 20
49.4951
 11
60.9649
 21
49.4538
  0
LINE
  8
0
 10
60.9649
 20
49.4538
 11
60.8537
 21
49.424
  0
LINE
  8
0
 10
60.8537
 20
49.424
 11
60.74
 21
49.406
  0
LINE
  8
0
 10
60.74
 20
49.406
 11
60.625
 21
49.4
  0
LINE
  8
0
 10
60.625
 20
49.4
 11
60.51
 21
49.406
  0
LINE
  8
0
 10
7.51001
 20
49.406
 11
7.39629
 21
49.424
  0
LINE
  8
0
 10
7.39629
 20
49.424
 11
7.28508
 21
49.4538
  0
LINE
  8
0
 10
7.28508
 20
49.4538
 11
7.17758
 21
49.4951
  0
LINE
  8
0
 10
7.17758
 20
49.4951
 11
7.075
 21
49.5474
  0
LINE
  8
0
 10
7.075
 20
49.5474
 11
6.97842
 21
49.6101
  0
LINE
  8
0
 10
6.97842
 20
49.6101
 11
6.88895
 21
49.6825
  0
LINE
  8
0
 10
6.88895
 20
49.6825
 11
6.80753
 21
49.7639
  0
LINE
  8
0
 10
6.80753
 20
49.7639
 11
6.73508
 21
49.8534
  0
LINE
  8
0
 10
6.73508
 20
49.8534
 11
6.67236
 21
49.95
  0
LINE
  8
0
 10
6.67236
 20
49.95
 11
6.62009
 21
50.0526
  0
LINE
  8
0
 10
6.62009
 20
50.0526
 11
6.57883
 21
50.1601
  0
LINE
  8
0
 10
6.57883
 20
50.1601
 11
6.54903
 21
50.2713
  0
LINE
  8
0
 10
6.54903
 20
50.2713
 11
6.53102
 21
50.385
  0
LINE
  8
0
 10
6.53102
 20
50.385
 11
6.52499
 21
50.5
  0
LINE
  8
0
 10
6.52499
 20
50.5
 11
6.53102
 21
50.615
  0
LINE
  8
0
 10
6.53102
 20
50.615
 11
6.54903
 21
50.7287
  0
LINE
  8
0
 10
6.54903
 20
50.7287
 11
6.57883
 21
50.8399
  0
LINE
  8
0
 10
6.57883
 20
50.8399
 11
6.62009
 21
50.9474
  0
LINE
  8
0
 10
6.62009
 20
50.9474
 11
6.67236
 21
51.05
  0
LINE
  8
0
 10
6.67236
 20
51.05
 11
6.73508
 21
51.1466
  0
LINE
  8
0
 10
6.73508
 20
51.1466
 11
6.80753
 21
51.236
  0
LINE
  8
0
 10
6.80753
 20
51.236
 11
6.88895
 21
51.3175
  0
LINE
  8
0
 10
6.88895
 20
51.3175
 11
6.97842
 21
51.3899
  0
LINE
  8
0
 10
6.97842
 20
51.3899
 11
7.075
 21
51.4526
  0
LINE
  8
0
 10
7.075
 20
51.4526
 11
7.17758
 21
51.5049
  0
LINE
  8
0
 10
7.17758
 20
51.5049
 11
7.28508
 21
51.5462
  0
LINE
  8
0
 10
7.28508
 20
51.5462
 11
7.39629
 21
51.576
  0
LINE
  8
0
 10
7.39629
 20
51.576
 11
7.51001
 21
51.594
  0
LINE
  8
0
 10
7.51001
 20
51.594
 11
7.625
 21
51.6
  0
LINE
  8
0
 10
7.625
 20
51.6
 11
7.73997
 21
51.594
  0
LINE
  8
0
 10
7.73997
 20
51.594
 11
7.8537
 21
51.576
  0
LINE
  8
0
 10
7.8537
 20
51.576
 11
7.9649
 21
51.5462
  0
LINE
  8
0
 10
7.9649
 20
51.5462
 11
8.0724
 21
51.5049
  0
LINE
  8
0
 10
8.0724
 20
51.5049
 11
8.17499
 21
51.4526
  0
LINE
  8
0
 10
8.17499
 20
51.4526
 11
8.27156
 21
51.3899
  0
LINE
  8
0
 10
8.27156
 20
51.3899
 11
8.36104
 21
51.3175
  0
LINE
  8
0
 10
8.36104
 20
51.3175
 11
8.44246
 21
51.236
  0
LINE
  8
0
 10
8.44246
 20
51.236
 11
8.51491
 21
51.1466
  0
LINE
  8
0
 10
8.51491
 20
51.1466
 11
8.57762
 21
51.05
  0
LINE
  8
0
 10
8.57762
 20
51.05
 11
8.6299
 21
50.9474
  0
LINE
  8
0
 10
8.6299
 20
50.9474
 11
8.67116
 21
50.8399
  0
LINE
  8
0
 10
8.67116
 20
50.8399
 11
8.70096
 21
50.7287
  0
LINE
  8
0
 10
8.70096
 20
50.7287
 11
8.71896
 21
50.615
  0
LINE
  8
0
 10
8.71896
 20
50.615
 11
8.72499
 21
50.5
  0
LINE
  8
0
 10
8.72499
 20
50.5
 11
8.71896
 21
50.385
  0
LINE
  8
0
 10
8.71896
 20
50.385
 11
8.70096
 21
50.2713
  0
LINE
  8
0
 10
8.70096
 20
50.2713
 11
8.67116
 21
50.1601
  0
LINE
  8
0
 10
8.67116
 20
50.1601
 11
8.6299
 21
50.0526
  0
LINE
  8
0
 10
8.6299
 20
50.0526
 11
8.57762
 21
49.95
  0
LINE
  8
0
 10
8.57762
 20
49.95
 11
8.51491
 21
49.8534
  0
LINE
  8
0
 10
8.51491
 20
49.8534
 11
8.44246
 21
49.7639
  0
LINE
  8
0
 10
8.44246
 20
49.7639
 11
8.36104
 21
49.6825
  0
LINE
  8
0
 10
8.36104
 20
49.6825
 11
8.27156
 21
49.6101
  0
LINE
  8
0
 10
8.27156
 20
49.6101
 11
8.17499
 21
49.5474
  0
LINE
  8
0
 10
8.17499
 20
49.5474
 11
8.0724
 21
49.4951
  0
LINE
  8
0
 10
8.0724
 20
49.4951
 11
7.9649
 21
49.4538
  0
LINE
  8
0
 10
7.9649
 20
49.4538
 11
7.8537
 21
49.424
  0
LINE
  8
0
 10
7.8537
 20
49.424
 11
7.73997
 21
49.406
  0
LINE
  8
0
 10
7.73997
 20
49.406
 11
7.625
 21
49.4
  0
LINE
  8
0
 10
7.625
 20
49.4
 11
7.51001
 21
49.406
  0
LINE
  8
0
 10
-0.0999908
 20
35.4
 11
-0.0999908
 21
46.4333
  0
LINE
  8
0
 10
-0.0999908
 20
46.4333
 11
3
 21
46.4333
  0
LINE
  8
0
 10
3
 20
46.4333
 11
3
 21
35.4
  0
LINE
  8
0
 10
3
 20
35.4
 11
-0.0999908
 21
35.4
  0
LINE
  8
0
 10
161.301
 20
17.1267
 11
161.103
 21
17.1319
  0
LINE
  8
0
 10
161.103
 20
17.1319
 11
160.905
 21
17.1406
  0
LINE
  8
0
 10
160.905
 20
17.1406
 11
160.707
 21
17.1527
  0
LINE
  8
0
 10
160.707
 20
17.1527
 11
160.509
 21
17.1683
  0
LINE
  8
0
 10
160.509
 20
17.1683
 11
160.311
 21
17.1873
  0
LINE
  8
0
 10
160.311
 20
17.1873
 11
160.114
 21
17.2098
  0
LINE
  8
0
 10
160.114
 20
17.2098
 11
159.917
 21
17.2357
  0
LINE
  8
0
 10
159.917
 20
17.2357
 11
159.721
 21
17.265
  0
LINE
  8
0
 10
159.721
 20
17.265
 11
159.525
 21
17.2978
  0
LINE
  8
0
 10
159.525
 20
17.2978
 11
159.33
 21
17.334
  0
LINE
  8
0
 10
159.33
 20
17.334
 11
159.135
 21
17.3736
  0
LINE
  8
0
 10
159.135
 20
17.3736
 11
158.941
 21
17.4165
  0
LINE
  8
0
 10
158.941
 20
17.4165
 11
158.748
 21
17.4629
  0
LINE
  8
0
 10
158.748
 20
17.4629
 11
158.556
 21
17.5126
  0
LINE
  8
0
 10
158.556
 20
17.5126
 11
158.365
 21
17.5656
  0
LINE
  8
0
 10
158.365
 20
17.5656
 11
158.174
 21
17.622
  0
LINE
  8
0
 10
158.174
 20
17.622
 11
157.985
 21
17.6817
  0
LINE
  8
0
 10
157.985
 20
17.6817
 11
157.797
 21
17.7447
  0
LINE
  8
0
 10
157.797
 20
17.7447
 11
157.61
 21
17.811
  0
LINE
  8
0
 10
157.61
 20
17.811
 11
157.424
 21
17.8805
  0
LINE
  8
0
 10
157.424
 20
17.8805
 11
157.239
 21
17.9533
  0
LINE
  8
0
 10
157.239
 20
17.9533
 11
157.055
 21
18.0293
  0
LINE
  8
0
 10
157.055
 20
18.0293
 11
156.873
 21
18.1084
  0
LINE
  8
0
 10
156.873
 20
18.1084
 11
156.693
 21
18.1908
  0
LINE
  8
0
 10
156.693
 20
18.1908
 11
156.514
 21
18.2762
  0
LINE
  8
0
 10
156.514
 20
18.2762
 11
156.336
 21
18.3648
  0
LINE
  8
0
 10
156.336
 20
18.3648
 11
156.16
 21
18.4565
  0
LINE
  8
0
 10
156.16
 20
18.4565
 11
155.985
 21
18.5512
  0
LINE
  8
0
 10
155.985
 20
18.5512
 11
155.812
 21
18.649
  0
LINE
  8
0
 10
155.812
 20
18.649
 11
155.641
 21
18.7497
  0
LINE
  8
0
 10
155.641
 20
18.7497
 11
155.472
 21
18.8535
  0
LINE
  8
0
 10
155.472
 20
18.8535
 11
155.305
 21
18.9601
  0
LINE
  8
0
 10
155.305
 20
18.9601
 11
155.139
 21
19.0697
  0
LINE
  8
0
 10
155.139
 20
19.0697
 11
154.976
 21
19.1821
  0
LINE
  8
0
 10
154.976
 20
19.1821
 11
154.814
 21
19.2974
  0
LINE
  8
0
 10
154.814
 20
19.2974
 11
154.654
 21
19.4155
  0
LINE
  8
0
 10
154.654
 20
19.4155
 11
154.497
 21
19.5364
  0
LINE
  8
0
 10
154.497
 20
19.5364
 11
154.341
 21
19.66
  0
LINE
  8
0
 10
154.341
 20
19.66
 11
154.188
 21
19.7862
  0
LINE
  8
0
 10
154.188
 20
19.7862
 11
154.037
 21
19.9152
  0
LINE
  8
0
 10
154.037
 20
19.9152
 11
153.889
 21
20.0467
  0
LINE
  8
0
 10
153.889
 20
20.0467
 11
153.742
 21
20.1808
  0
LINE
  8
0
 10
153.742
 20
20.1808
 11
153.598
 21
20.3175
  0
LINE
  8
0
 10
153.598
 20
20.3175
 11
153.457
 21
20.4566
  0
LINE
  8
0
 10
153.457
 20
20.4566
 11
153.318
 21
20.5983
  0
LINE
  8
0
 10
153.318
 20
20.5983
 11
153.181
 21
20.7423
  0
LINE
  8
0
 10
153.181
 20
20.7423
 11
153.047
 21
20.8886
  0
LINE
  8
0
 10
153.047
 20
20.8886
 11
152.915
 21
21.0373
  0
LINE
  8
0
 10
152.915
 20
21.0373
 11
152.786
 21
21.1883
  0
LINE
  8
0
 10
152.786
 20
21.1883
 11
152.66
 21
21.3415
  0
LINE
  8
0
 10
152.66
 20
21.3415
 11
152.536
 21
21.4968
  0
LINE
  8
0
 10
152.536
 20
21.4968
 11
152.416
 21
21.6543
  0
LINE
  8
0
 10
152.416
 20
21.6543
 11
152.297
 21
21.8139
  0
LINE
  8
0
 10
152.297
 20
21.8139
 11
152.182
 21
21.9756
  0
LINE
  8
0
 10
152.182
 20
21.9756
 11
152.07
 21
22.1392
  0
LINE
  8
0
 10
152.07
 20
22.1392
 11
151.96
 21
22.3047
  0
LINE
  8
0
 10
151.96
 20
22.3047
 11
151.853
 21
22.4722
  0
LINE
  8
0
 10
151.853
 20
22.4722
 11
151.75
 21
22.6414
  0
LINE
  8
0
 10
151.75
 20
22.6414
 11
151.649
 21
22.8125
  0
LINE
  8
0
 10
151.649
 20
22.8125
 11
151.551
 21
22.9853
  0
LINE
  8
0
 10
151.551
 20
22.9853
 11
151.456
 21
23.1598
  0
LINE
  8
0
 10
151.456
 20
23.1598
 11
151.365
 21
23.3358
  0
LINE
  8
0
 10
151.365
 20
23.3358
 11
151.276
 21
23.5135
  0
LINE
  8
0
 10
151.276
 20
23.5135
 11
151.191
 21
23.6927
  0
LINE
  8
0
 10
151.191
 20
23.6927
 11
151.108
 21
23.8734
  0
LINE
  8
0
 10
151.108
 20
23.8734
 11
151.029
 21
24.0554
  0
LINE
  8
0
 10
151.029
 20
24.0554
 11
150.953
 21
24.2388
  0
LINE
  8
0
 10
150.953
 20
24.2388
 11
150.881
 21
24.4236
  0
LINE
  8
0
 10
150.881
 20
24.4236
 11
150.811
 21
24.6095
  0
LINE
  8
0
 10
150.811
 20
24.6095
 11
150.745
 21
24.7967
  0
LINE
  8
0
 10
150.745
 20
24.7967
 11
150.682
 21
24.9849
  0
LINE
  8
0
 10
150.682
 20
24.9849
 11
150.622
 21
25.1743
  0
LINE
  8
0
 10
150.622
 20
25.1743
 11
150.566
 21
25.3646
  0
LINE
  8
0
 10
150.566
 20
25.3646
 11
150.513
 21
25.5559
  0
LINE
  8
0
 10
150.513
 20
25.5559
 11
150.463
 21
25.7481
  0
LINE
  8
0
 10
150.463
 20
25.7481
 11
150.417
 21
25.9412
  0
LINE
  8
0
 10
150.417
 20
25.9412
 11
150.374
 21
26.135
  0
LINE
  8
0
 10
150.374
 20
26.135
 11
150.334
 21
26.3295
  0
LINE
  8
0
 10
150.334
 20
26.3295
 11
150.298
 21
26.5247
  0
LINE
  8
0
 10
150.298
 20
26.5247
 11
150.265
 21
26.7206
  0
LINE
  8
0
 10
150.265
 20
26.7206
 11
150.236
 21
26.9169
  0
LINE
  8
0
 10
150.236
 20
26.9169
 11
150.21
 21
27.1137
  0
LINE
  8
0
 10
150.21
 20
27.1137
 11
150.187
 21
27.311
  0
LINE
  8
0
 10
150.187
 20
27.311
 11
150.168
 21
27.5086
  0
LINE
  8
0
 10
150.168
 20
27.5086
 11
150.153
 21
27.7065
  0
LINE
  8
0
 10
150.153
 20
27.7065
 11
150.141
 21
27.9047
  0
LINE
  8
0
 10
150.141
 20
27.9047
 11
150.132
 21
28.103
  0
LINE
  8
0
 10
150.132
 20
28.103
 11
150.127
 21
28.3015
  0
LINE
  8
0
 10
150.127
 20
28.3015
 11
150.125
 21
28.5
  0
LINE
  8
0
 10
150.125
 20
28.5
 11
150.127
 21
28.6985
  0
LINE
  8
0
 10
150.127
 20
28.6985
 11
150.132
 21
28.897
  0
LINE
  8
0
 10
150.132
 20
28.897
 11
150.141
 21
29.0953
  0
LINE
  8
0
 10
150.141
 20
29.0953
 11
150.153
 21
29.2935
  0
LINE
  8
0
 10
150.153
 20
29.2935
 11
150.168
 21
29.4914
  0
LINE
  8
0
 10
150.168
 20
29.4914
 11
150.187
 21
29.689
  0
LINE
  8
0
 10
150.187
 20
29.689
 11
150.21
 21
29.8863
  0
LINE
  8
0
 10
150.21
 20
29.8863
 11
150.236
 21
30.0831
  0
LINE
  8
0
 10
150.236
 20
30.0831
 11
150.265
 21
30.2794
  0
LINE
  8
0
 10
150.265
 20
30.2794
 11
150.298
 21
30.4752
  0
LINE
  8
0
 10
150.298
 20
30.4752
 11
150.334
 21
30.6704
  0
LINE
  8
0
 10
150.334
 20
30.6704
 11
150.374
 21
30.865
  0
LINE
  8
0
 10
150.374
 20
30.865
 11
150.417
 21
31.0588
  0
LINE
  8
0
 10
150.417
 20
31.0588
 11
150.463
 21
31.2519
  0
LINE
  8
0
 10
150.463
 20
31.2519
 11
150.513
 21
31.4441
  0
LINE
  8
0
 10
150.513
 20
31.4441
 11
150.566
 21
31.6354
  0
LINE
  8
0
 10
150.566
 20
31.6354
 11
150.622
 21
31.8257
  0
LINE
  8
0
 10
150.622
 20
31.8257
 11
150.682
 21
32.0151
  0
LINE
  8
0
 10
150.682
 20
32.0151
 11
150.745
 21
32.2033
  0
LINE
  8
0
 10
150.745
 20
32.2033
 11
150.811
 21
32.3905
  0
LINE
  8
0
 10
150.811
 20
32.3905
 11
150.881
 21
32.5764
  0
LINE
  8
0
 10
150.881
 20
32.5764
 11
150.953
 21
32.7611
  0
LINE
  8
0
 10
150.953
 20
32.7611
 11
151.029
 21
32.9446
  0
LINE
  8
0
 10
151.029
 20
32.9446
 11
151.108
 21
33.1266
  0
LINE
  8
0
 10
151.108
 20
33.1266
 11
151.191
 21
33.3073
  0
LINE
  8
0
 10
151.191
 20
33.3073
 11
151.276
 21
33.4865
  0
LINE
  8
0
 10
151.276
 20
33.4865
 11
151.365
 21
33.6641
  0
LINE
  8
0
 10
151.365
 20
33.6641
 11
151.456
 21
33.8402
  0
LINE
  8
0
 10
151.456
 20
33.8402
 11
151.551
 21
34.0147
  0
LINE
  8
0
 10
151.551
 20
34.0147
 11
151.649
 21
34.1875
  0
LINE
  8
0
 10
151.649
 20
34.1875
 11
151.75
 21
34.3586
  0
LINE
  8
0
 10
151.75
 20
34.3586
 11
151.853
 21
34.5278
  0
LINE
  8
0
 10
151.853
 20
34.5278
 11
151.96
 21
34.6953
  0
LINE
  8
0
 10
151.96
 20
34.6953
 11
152.07
 21
34.8608
  0
LINE
  8
0
 10
152.07
 20
34.8608
 11
152.182
 21
35.0244
  0
LINE
  8
0
 10
152.182
 20
35.0244
 11
152.297
 21
35.1861
  0
LINE
  8
0
 10
152.297
 20
35.1861
 11
152.416
 21
35.3456
  0
LINE
  8
0
 10
152.416
 20
35.3456
 11
152.536
 21
35.5031
  0
LINE
  8
0
 10
152.536
 20
35.5031
 11
152.66
 21
35.6585
  0
LINE
  8
0
 10
152.66
 20
35.6585
 11
152.786
 21
35.8117
  0
LINE
  8
0
 10
152.786
 20
35.8117
 11
152.915
 21
35.9627
  0
LINE
  8
0
 10
152.915
 20
35.9627
 11
153.047
 21
36.1114
  0
LINE
  8
0
 10
153.047
 20
36.1114
 11
153.181
 21
36.2577
  0
LINE
  8
0
 10
153.181
 20
36.2577
 11
153.318
 21
36.4017
  0
LINE
  8
0
 10
153.318
 20
36.4017
 11
153.457
 21
36.5433
  0
LINE
  8
0
 10
153.457
 20
36.5433
 11
153.598
 21
36.6825
  0
LINE
  8
0
 10
153.598
 20
36.6825
 11
153.742
 21
36.8191
  0
LINE
  8
0
 10
153.742
 20
36.8191
 11
153.889
 21
36.9533
  0
LINE
  8
0
 10
153.889
 20
36.9533
 11
154.037
 21
37.0848
  0
LINE
  8
0
 10
154.037
 20
37.0848
 11
154.188
 21
37.2137
  0
LINE
  8
0
 10
154.188
 20
37.2137
 11
154.341
 21
37.34
  0
LINE
  8
0
 10
154.341
 20
37.34
 11
154.497
 21
37.4636
  0
LINE
  8
0
 10
154.497
 20
37.4636
 11
154.654
 21
37.5845
  0
LINE
  8
0
 10
154.654
 20
37.5845
 11
154.814
 21
37.7026
  0
LINE
  8
0
 10
154.814
 20
37.7026
 11
154.976
 21
37.8179
  0
LINE
  8
0
 10
154.976
 20
37.8179
 11
155.139
 21
37.9303
  0
LINE
  8
0
 10
155.139
 20
37.9303
 11
155.305
 21
38.0399
  0
LINE
  8
0
 10
155.305
 20
38.0399
 11
155.472
 21
38.1465
  0
LINE
  8
0
 10
155.472
 20
38.1465
 11
155.641
 21
38.2503
  0
LINE
  8
0
 10
155.641
 20
38.2503
 11
155.812
 21
38.351
  0
LINE
  8
0
 10
155.812
 20
38.351
 11
155.985
 21
38.4488
  0
LINE
  8
0
 10
155.985
 20
38.4488
 11
156.16
 21
38.5435
  0
LINE
  8
0
 10
156.16
 20
38.5435
 11
156.336
 21
38.6352
  0
LINE
  8
0
 10
156.336
 20
38.6352
 11
156.514
 21
38.7238
  0
LINE
  8
0
 10
156.514
 20
38.7238
 11
156.693
 21
38.8092
  0
LINE
  8
0
 10
156.693
 20
38.8092
 11
156.873
 21
38.8916
  0
LINE
  8
0
 10
156.873
 20
38.8916
 11
157.055
 21
38.9707
  0
LINE
  8
0
 10
157.055
 20
38.9707
 11
157.239
 21
39.0467
  0
LINE
  8
0
 10
157.239
 20
39.0467
 11
157.424
 21
39.1195
  0
LINE
  8
0
 10
157.424
 20
39.1195
 11
157.61
 21
39.189
  0
LINE
  8
0
 10
157.61
 20
39.189
 11
157.797
 21
39.2553
  0
LINE
  8
0
 10
157.797
 20
39.2553
 11
157.985
 21
39.3183
  0
LINE
  8
0
 10
157.985
 20
39.3183
 11
158.174
 21
39.378
  0
LINE
  8
0
 10
158.174
 20
39.378
 11
158.365
 21
39.4343
  0
LINE
  8
0
 10
158.365
 20
39.4343
 11
158.556
 21
39.4874
  0
LINE
  8
0
 10
158.556
 20
39.4874
 11
158.748
 21
39.5371
  0
LINE
  8
0
 10
158.748
 20
39.5371
 11
158.941
 21
39.5835
  0
LINE
  8
0
 10
158.941
 20
39.5835
 11
159.135
 21
39.6264
  0
LINE
  8
0
 10
159.135
 20
39.6264
 11
159.33
 21
39.666
  0
LINE
  8
0
 10
159.33
 20
39.666
 11
159.525
 21
39.7022
  0
LINE
  8
0
 10
159.525
 20
39.7022
 11
159.721
 21
39.735
  0
LINE
  8
0
 10
159.721
 20
39.735
 11
159.917
 21
39.7643
  0
LINE
  8
0
 10
159.917
 20
39.7643
 11
160.114
 21
39.7902
  0
LINE
  8
0
 10
160.114
 20
39.7902
 11
160.311
 21
39.8127
  0
LINE
  8
0
 10
160.311
 20
39.8127
 11
160.509
 21
39.8317
  0
LINE
  8
0
 10
160.509
 20
39.8317
 11
160.707
 21
39.8473
  0
LINE
  8
0
 10
160.707
 20
39.8473
 11
160.905
 21
39.8594
  0
LINE
  8
0
 10
160.905
 20
39.8594
 11
161.103
 21
39.8681
  0
LINE
  8
0
 10
161.103
 20
39.8681
 11
161.301
 21
39.8733
  0
LINE
  8
0
 10
161.301
 20
39.8733
 11
161.5
 21
39.875
  0
LINE
  8
0
 10
161.5
 20
39.875
 11
161.699
 21
39.8733
  0
LINE
  8
0
 10
161.699
 20
39.8733
 11
161.897
 21
39.8681
  0
LINE
  8
0
 10
161.897
 20
39.8681
 11
162.095
 21
39.8594
  0
LINE
  8
0
 10
162.095
 20
39.8594
 11
162.293
 21
39.8473
  0
LINE
  8
0
 10
162.293
 20
39.8473
 11
162.491
 21
39.8317
  0
LINE
  8
0
 10
162.491
 20
39.8317
 11
162.689
 21
39.8127
  0
LINE
  8
0
 10
162.689
 20
39.8127
 11
162.886
 21
39.7902
  0
LINE
  8
0
 10
162.886
 20
39.7902
 11
163.083
 21
39.7643
  0
LINE
  8
0
 10
163.083
 20
39.7643
 11
163.279
 21
39.735
  0
LINE
  8
0
 10
163.279
 20
39.735
 11
163.475
 21
39.7022
  0
LINE
  8
0
 10
163.475
 20
39.7022
 11
163.67
 21
39.666
  0
LINE
  8
0
 10
163.67
 20
39.666
 11
163.865
 21
39.6264
  0
LINE
  8
0
 10
163.865
 20
39.6264
 11
164.059
 21
39.5835
  0
LINE
  8
0
 10
164.059
 20
39.5835
 11
164.252
 21
39.5371
  0
LINE
  8
0
 10
164.252
 20
39.5371
 11
164.444
 21
39.4874
  0
LINE
  8
0
 10
164.444
 20
39.4874
 11
164.635
 21
39.4343
  0
LINE
  8
0
 10
164.635
 20
39.4343
 11
164.826
 21
39.378
  0
LINE
  8
0
 10
164.826
 20
39.378
 11
165.015
 21
39.3183
  0
LINE
  8
0
 10
165.015
 20
39.3183
 11
165.203
 21
39.2553
  0
LINE
  8
0
 10
165.203
 20
39.2553
 11
165.39
 21
39.189
  0
LINE
  8
0
 10
165.39
 20
39.189
 11
165.576
 21
39.1195
  0
LINE
  8
0
 10
165.576
 20
39.1195
 11
165.761
 21
39.0467
  0
LINE
  8
0
 10
165.761
 20
39.0467
 11
165.945
 21
38.9707
  0
LINE
  8
0
 10
165.945
 20
38.9707
 11
166.127
 21
38.8916
  0
LINE
  8
0
 10
166.127
 20
38.8916
 11
166.307
 21
38.8092
  0
LINE
  8
0
 10
166.307
 20
38.8092
 11
166.486
 21
38.7238
  0
LINE
  8
0
 10
166.486
 20
38.7238
 11
166.664
 21
38.6352
  0
LINE
  8
0
 10
166.664
 20
38.6352
 11
166.84
 21
38.5435
  0
LINE
  8
0
 10
166.84
 20
38.5435
 11
167.015
 21
38.4488
  0
LINE
  8
0
 10
167.015
 20
38.4488
 11
167.188
 21
38.351
  0
LINE
  8
0
 10
167.188
 20
38.351
 11
167.359
 21
38.2503
  0
LINE
  8
0
 10
167.359
 20
38.2503
 11
167.528
 21
38.1465
  0
LINE
  8
0
 10
167.528
 20
38.1465
 11
167.695
 21
38.0399
  0
LINE
  8
0
 10
167.695
 20
38.0399
 11
167.861
 21
37.9303
  0
LINE
  8
0
 10
167.861
 20
37.9303
 11
168.024
 21
37.8179
  0
LINE
  8
0
 10
168.024
 20
37.8179
 11
168.186
 21
37.7026
  0
LINE
  8
0
 10
168.186
 20
37.7026
 11
168.346
 21
37.5845
  0
LINE
  8
0
 10
168.346
 20
37.5845
 11
168.503
 21
37.4636
  0
LINE
  8
0
 10
168.503
 20
37.4636
 11
168.659
 21
37.34
  0
LINE
  8
0
 10
168.659
 20
37.34
 11
168.812
 21
37.2137
  0
LINE
  8
0
 10
168.812
 20
37.2137
 11
168.963
 21
37.0848
  0
LINE
  8
0
 10
168.963
 20
37.0848
 11
169.111
 21
36.9533
  0
LINE
  8
0
 10
169.111
 20
36.9533
 11
169.258
 21
36.8191
  0
LINE
  8
0
 10
169.258
 20
36.8191
 11
169.402
 21
36.6825
  0
LINE
  8
0
 10
169.402
 20
36.6825
 11
169.543
 21
36.5433
  0
LINE
  8
0
 10
169.543
 20
36.5433
 11
169.682
 21
36.4017
  0
LINE
  8
0
 10
169.682
 20
36.4017
 11
169.819
 21
36.2577
  0
LINE
  8
0
 10
169.819
 20
36.2577
 11
169.953
 21
36.1114
  0
LINE
  8
0
 10
169.953
 20
36.1114
 11
170.085
 21
35.9627
  0
LINE
  8
0
 10
170.085
 20
35.9627
 11
170.214
 21
35.8117
  0
LINE
  8
0
 10
170.214
 20
35.8117
 11
170.34
 21
35.6585
  0
LINE
  8
0
 10
170.34
 20
35.6585
 11
170.464
 21
35.5031
  0
LINE
  8
0
 10
170.464
 20
35.5031
 11
170.584
 21
35.3456
  0
LINE
  8
0
 10
170.584
 20
35.3456
 11
170.703
 21
35.1861
  0
LINE
  8
0
 10
170.703
 20
35.1861
 11
170.818
 21
35.0244
  0
LINE
  8
0
 10
170.818
 20
35.0244
 11
170.93
 21
34.8608
  0
LINE
  8
0
 10
170.93
 20
34.8608
 11
171.04
 21
34.6953
  0
LINE
  8
0
 10
171.04
 20
34.6953
 11
171.147
 21
34.5278
  0
LINE
  8
0
 10
171.147
 20
34.5278
 11
171.25
 21
34.3586
  0
LINE
  8
0
 10
171.25
 20
34.3586
 11
171.351
 21
34.1875
  0
LINE
  8
0
 10
171.351
 20
34.1875
 11
171.449
 21
34.0147
  0
LINE
  8
0
 10
171.449
 20
34.0147
 11
171.544
 21
33.8402
  0
LINE
  8
0
 10
171.544
 20
33.8402
 11
171.635
 21
33.6641
  0
LINE
  8
0
 10
171.635
 20
33.6641
 11
171.724
 21
33.4865
  0
LINE
  8
0
 10
171.724
 20
33.4865
 11
171.809
 21
33.3073
  0
LINE
  8
0
 10
171.809
 20
33.3073
 11
171.892
 21
33.1266
  0
LINE
  8
0
 10
171.892
 20
33.1266
 11
171.971
 21
32.9446
  0
LINE
  8
0
 10
171.971
 20
32.9446
 11
172.047
 21
32.7611
  0
LINE
  8
0
 10
172.047
 20
32.7611
 11
172.119
 21
32.5764
  0
LINE
  8
0
 10
172.119
 20
32.5764
 11
172.189
 21
32.3905
  0
LINE
  8
0
 10
172.189
 20
32.3905
 11
172.255
 21
32.2033
  0
LINE
  8
0
 10
172.255
 20
32.2033
 11
172.318
 21
32.0151
  0
LINE
  8
0
 10
172.318
 20
32.0151
 11
172.378
 21
31.8257
  0
LINE
  8
0
 10
172.378
 20
31.8257
 11
172.434
 21
31.6354
  0
LINE
  8
0
 10
172.434
 20
31.6354
 11
172.487
 21
31.4441
  0
LINE
  8
0
 10
172.487
 20
31.4441
 11
172.537
 21
31.2519
  0
LINE
  8
0
 10
172.537
 20
31.2519
 11
172.583
 21
31.0588
  0
LINE
  8
0
 10
172.583
 20
31.0588
 11
172.626
 21
30.865
  0
LINE
  8
0
 10
172.626
 20
30.865
 11
172.666
 21
30.6704
  0
LINE
  8
0
 10
172.666
 20
30.6704
 11
172.702
 21
30.4752
  0
LINE
  8
0
 10
172.702
 20
30.4752
 11
172.735
 21
30.2794
  0
LINE
  8
0
 10
172.735
 20
30.2794
 11
172.764
 21
30.0831
  0
LINE
  8
0
 10
172.764
 20
30.0831
 11
172.79
 21
29.8863
  0
LINE
  8
0
 10
172.79
 20
29.8863
 11
172.813
 21
29.689
  0
LINE
  8
0
 10
172.813
 20
29.689
 11
172.832
 21
29.4914
  0
LINE
  8
0
 10
172.832
 20
29.4914
 11
172.847
 21
29.2935
  0
LINE
  8
0
 10
172.847
 20
29.2935
 11
172.859
 21
29.0953
  0
LINE
  8
0
 10
172.859
 20
29.0953
 11
172.868
 21
28.897
  0
LINE
  8
0
 10
172.868
 20
28.897
 11
172.873
 21
28.6985
  0
LINE
  8
0
 10
172.873
 20
28.6985
 11
172.875
 21
28.5
  0
LINE
  8
0
 10
172.875
 20
28.5
 11
172.873
 21
28.3015
  0
LINE
  8
0
 10
172.873
 20
28.3015
 11
172.868
 21
28.103
  0
LINE
  8
0
 10
172.868
 20
28.103
 11
172.859
 21
27.9047
  0
LINE
  8
0
 10
172.859
 20
27.9047
 11
172.847
 21
27.7065
  0
LINE
  8
0
 10
172.847
 20
27.7065
 11
172.832
 21
27.5086
  0
LINE
  8
0
 10
172.832
 20
27.5086
 11
172.813
 21
27.311
  0
LINE
  8
0
 10
172.813
 20
27.311
 11
172.79
 21
27.1137
  0
LINE
  8
0
 10
172.79
 20
27.1137
 11
172.764
 21
26.9169
  0
LINE
  8
0
 10
172.764
 20
26.9169
 11
172.735
 21
26.7206
  0
LINE
  8
0
 10
172.735
 20
26.7206
 11
172.702
 21
26.5247
  0
LINE
  8
0
 10
172.702
 20
26.5247
 11
172.666
 21
26.3295
  0
LINE
  8
0
 10
172.666
 20
26.3295
 11
172.626
 21
26.135
  0
LINE
  8
0
 10
172.626
 20
26.135
 11
172.583
 21
25.9412
  0
LINE
  8
0
 10
172.583
 20
25.9412
 11
172.537
 21
25.7481
  0
LINE
  8
0
 10
172.537
 20
25.7481
 11
172.487
 21
25.5559
  0
LINE
  8
0
 10
172.487
 20
25.5559
 11
172.434
 21
25.3646
  0
LINE
  8
0
 10
172.434
 20
25.3646
 11
172.378
 21
25.1743
  0
LINE
  8
0
 10
172.378
 20
25.1743
 11
172.318
 21
24.9849
  0
LINE
  8
0
 10
172.318
 20
24.9849
 11
172.255
 21
24.7967
  0
LINE
  8
0
 10
172.255
 20
24.7967
 11
172.189
 21
24.6095
  0
LINE
  8
0
 10
172.189
 20
24.6095
 11
172.119
 21
24.4236
  0
LINE
  8
0
 10
172.119
 20
24.4236
 11
172.047
 21
24.2388
  0
LINE
  8
0
 10
172.047
 20
24.2388
 11
171.971
 21
24.0554
  0
LINE
  8
0
 10
171.971
 20
24.0554
 11
171.892
 21
23.8734
  0
LINE
  8
0
 10
171.892
 20
23.8734
 11
171.809
 21
23.6927
  0
LINE
  8
0
 10
171.809
 20
23.6927
 11
171.724
 21
23.5135
  0
LINE
  8
0
 10
171.724
 20
23.5135
 11
171.635
 21
23.3358
  0
LINE
  8
0
 10
171.635
 20
23.3358
 11
171.544
 21
23.1598
  0
LINE
  8
0
 10
171.544
 20
23.1598
 11
171.449
 21
22.9853
  0
LINE
  8
0
 10
171.449
 20
22.9853
 11
171.351
 21
22.8125
  0
LINE
  8
0
 10
171.351
 20
22.8125
 11
171.25
 21
22.6414
  0
LINE
  8
0
 10
171.25
 20
22.6414
 11
171.147
 21
22.4722
  0
LINE
  8
0
 10
171.147
 20
22.4722
 11
171.04
 21
22.3047
  0
LINE
  8
0
 10
171.04
 20
22.3047
 11
170.93
 21
22.1392
  0
LINE
  8
0
 10
170.93
 20
22.1392
 11
170.818
 21
21.9756
  0
LINE
  8
0
 10
170.818
 20
21.9756
 11
170.703
 21
21.8139
  0
LINE
  8
0
 10
170.703
 20
21.8139
 11
170.584
 21
21.6543
  0
LINE
  8
0
 10
170.584
 20
21.6543
 11
170.464
 21
21.4968
  0
LINE
  8
0
 10
170.464
 20
21.4968
 11
170.34
 21
21.3415
  0
LINE
  8
0
 10
170.34
 20
21.3415
 11
170.214
 21
21.1883
  0
LINE
  8
0
 10
170.214
 20
21.1883
 11
170.085
 21
21.0373
  0
LINE
  8
0
 10
170.085
 20
21.0373
 11
169.953
 21
20.8886
  0
LINE
  8
0
 10
169.953
 20
20.8886
 11
169.819
 21
20.7423
  0
LINE
  8
0
 10
169.819
 20
20.7423
 11
169.682
 21
20.5983
  0
LINE
  8
0
 10
169.682
 20
20.5983
 11
169.543
 21
20.4566
  0
LINE
  8
0
 10
169.543
 20
20.4566
 11
169.402
 21
20.3175
  0
LINE
  8
0
 10
169.402
 20
20.3175
 11
169.258
 21
20.1808
  0
LINE
  8
0
 10
169.258
 20
20.1808
 11
169.111
 21
20.0467
  0
LINE
  8
0
 10
169.111
 20
20.0467
 11
168.963
 21
19.9152
  0
LINE
  8
0
 10
168.963
 20
19.9152
 11
168.812
 21
19.7862
  0
LINE
  8
0
 10
168.812
 20
19.7862
 11
168.659
 21
19.66
  0
LINE
  8
0
 10
168.659
 20
19.66
 11
168.503
 21
19.5364
  0
LINE
  8
0
 10
168.503
 20
19.5364
 11
168.346
 21
19.4155
  0
LINE
  8
0
 10
168.346
 20
19.4155
 11
168.186
 21
19.2974
  0
LINE
  8
0
 10
168.186
 20
19.2974
 11
168.024
 21
19.1821
  0
LINE
  8
0
 10
168.024
 20
19.1821
 11
167.861
 21
19.0697
  0
LINE
  8
0
 10
167.861
 20
19.0697
 11
167.695
 21
18.9601
  0
LINE
  8
0
 10
167.695
 20
18.9601
 11
167.528
 21
18.8535
  0
LINE
  8
0
 10
167.528
 20
18.8535
 11
167.359
 21
18.7497
  0
LINE
  8
0
 10
167.359
 20
18.7497
 11
167.188
 21
18.649
  0
LINE
  8
0
 10
167.188
 20
18.649
 11
167.015
 21
18.5512
  0
LINE
  8
0
 10
167.015
 20
18.5512
 11
166.84
 21
18.4565
  0
LINE
  8
0
 10
166.84
 20
18.4565
 11
166.664
 21
18.3648
  0
LINE
  8
0
 10
166.664
 20
18.3648
 11
166.486
 21
18.2762
  0
LINE
  8
0
 10
166.486
 20
18.2762
 11
166.307
 21
18.1908
  0
LINE
  8
0
 10
166.307
 20
18.1908
 11
166.127
 21
18.1084
  0
LINE
  8
0
 10
166.127
 20
18.1084
 11
165.945
 21
18.0293
  0
LINE
  8
0
 10
165.945
 20
18.0293
 11
165.761
 21
17.9533
  0
LINE
  8
0
 10
165.761
 20
17.9533
 11
165.576
 21
17.8805
  0
LINE
  8
0
 10
165.576
 20
17.8805
 11
165.39
 21
17.811
  0
LINE
  8
0
 10
165.39
 20
17.811
 11
165.203
 21
17.7447
  0
LINE
  8
0
 10
165.203
 20
17.7447
 11
165.015
 21
17.6817
  0
LINE
  8
0
 10
165.015
 20
17.6817
 11
164.826
 21
17.622
  0
LINE
  8
0
 10
164.826
 20
17.622
 11
164.635
 21
17.5656
  0
LINE
  8
0
 10
164.635
 20
17.5656
 11
164.444
 21
17.5126
  0
LINE
  8
0
 10
164.444
 20
17.5126
 11
164.252
 21
17.4629
  0
LINE
  8
0
 10
164.252
 20
17.4629
 11
164.059
 21
17.4165
  0
LINE
  8
0
 10
164.059
 20
17.4165
 11
163.865
 21
17.3736
  0
LINE
  8
0
 10
163.865
 20
17.3736
 11
163.67
 21
17.334
  0
LINE
  8
0
 10
163.67
 20
17.334
 11
163.475
 21
17.2978
  0
LINE
  8
0
 10
163.475
 20
17.2978
 11
163.279
 21
17.265
  0
LINE
  8
0
 10
163.279
 20
17.265
 11
163.083
 21
17.2357
  0
LINE
  8
0
 10
163.083
 20
17.2357
 11
162.886
 21
17.2098
  0
LINE
  8
0
 10
162.886
 20
17.2098
 11
162.689
 21
17.1873
  0
LINE
  8
0
 10
162.689
 20
17.1873
 11
162.491
 21
17.1683
  0
LINE
  8
0
 10
162.491
 20
17.1683
 11
162.293
 21
17.1527
  0
LINE
  8
0
 10
162.293
 20
17.1527
 11
162.095
 21
17.1406
  0
LINE
  8
0
 10
162.095
 20
17.1406
 11
161.897
 21
17.1319
  0
LINE
  8
0
 10
161.897
 20
17.1319
 11
161.699
 21
17.1267
  0
LINE
  8
0
 10
161.699
 20
17.1267
 11
161.5
 21
17.125
  0
LINE
  8
0
 10
161.5
 20
17.125
 11
161.301
 21
17.1267
  0
LINE
  8
0
 10
71.608
 20
28.7705
 11
71.2203
 21
28.8319
  0
LINE
  8
0
 10
71.2203
 20
28.8319
 11
70.8412
 21
28.9335
  0
LINE
  8
0
 10
70.8412
 20
28.9335
 11
70.4747
 21
29.0742
  0
LINE
  8
0
 10
70.4747
 20
29.0742
 11
70.125
 21
29.2524
  0
LINE
  8
0
 10
70.125
 20
29.2524
 11
69.7958
 21
29.4662
  0
LINE
  8
0
 10
69.7958
 20
29.4662
 11
69.4908
 21
29.7132
  0
LINE
  8
0
 10
69.4908
 20
29.7132
 11
69.2132
 21
29.9908
  0
LINE
  8
0
 10
69.2132
 20
29.9908
 11
68.9662
 21
30.2958
  0
LINE
  8
0
 10
68.9662
 20
30.2958
 11
68.7524
 21
30.625
  0
LINE
  8
0
 10
68.7524
 20
30.625
 11
68.5742
 21
30.9747
  0
LINE
  8
0
 10
68.5742
 20
30.9747
 11
68.4335
 21
31.3412
  0
LINE
  8
0
 10
68.4335
 20
31.3412
 11
68.3319
 21
31.7203
  0
LINE
  8
0
 10
68.3319
 20
31.7203
 11
68.2705
 21
32.108
  0
LINE
  8
0
 10
68.2705
 20
32.108
 11
68.25
 21
32.5
  0
LINE
  8
0
 10
68.25
 20
32.5
 11
68.2705
 21
32.892
  0
LINE
  8
0
 10
68.2705
 20
32.892
 11
68.3319
 21
33.2797
  0
LINE
  8
0
 10
68.3319
 20
33.2797
 11
68.4335
 21
33.6588
  0
LINE
  8
0
 10
68.4335
 20
33.6588
 11
68.5742
 21
34.0253
  0
LINE
  8
0
 10
68.5742
 20
34.0253
 11
68.7524
 21
34.375
  0
LINE
  8
0
 10
68.7524
 20
34.375
 11
68.9662
 21
34.7042
  0
LINE
  8
0
 10
68.9662
 20
34.7042
 11
69.2132
 21
35.0092
  0
LINE
  8
0
 10
69.2132
 20
35.0092
 11
69.4908
 21
35.2868
  0
LINE
  8
0
 10
69.4908
 20
35.2868
 11
69.7958
 21
35.5338
  0
LINE
  8
0
 10
69.7958
 20
35.5338
 11
70.125
 21
35.7476
  0
LINE
  8
0
 10
70.125
 20
35.7476
 11
70.4747
 21
35.9258
  0
LINE
  8
0
 10
70.4747
 20
35.9258
 11
70.8412
 21
36.0665
  0
LINE
  8
0
 10
70.8412
 20
36.0665
 11
71.2203
 21
36.168
  0
LINE
  8
0
 10
71.2203
 20
36.168
 11
71.608
 21
36.2294
  0
LINE
  8
0
 10
71.608
 20
36.2294
 11
72
 21
36.25
  0
LINE
  8
0
 10
72
 20
36.25
 11
72.392
 21
36.2294
  0
LINE
  8
0
 10
72.392
 20
36.2294
 11
72.7797
 21
36.168
  0
LINE
  8
0
 10
72.7797
 20
36.168
 11
73.1588
 21
36.0665
  0
LINE
  8
0
 10
73.1588
 20
36.0665
 11
73.5253
 21
35.9258
  0
LINE
  8
0
 10
73.5253
 20
35.9258
 11
73.875
 21
35.7476
  0
LINE
  8
0
 10
73.875
 20
35.7476
 11
74.2042
 21
35.5338
  0
LINE
  8
0
 10
74.2042
 20
35.5338
 11
74.5092
 21
35.2868
  0
LINE
  8
0
 10
74.5092
 20
35.2868
 11
74.7868
 21
35.0092
  0
LINE
  8
0
 10
74.7868
 20
35.0092
 11
75.0338
 21
34.7042
  0
LINE
  8
0
 10
75.0338
 20
34.7042
 11
75.2476
 21
34.375
  0
LINE
  8
0
 10
75.2476
 20
34.375
 11
75.4258
 21
34.0253
  0
LINE
  8
0
 10
75.4258
 20
34.0253
 11
75.5665
 21
33.6588
  0
LINE
  8
0
 10
75.5665
 20
33.6588
 11
75.668
 21
33.2797
  0
LINE
  8
0
 10
75.668
 20
33.2797
 11
75.7294
 21
32.892
  0
LINE
  8
0
 10
75.7294
 20
32.892
 11
75.75
 21
32.5
  0
LINE
  8
0
 10
75.75
 20
32.5
 11
75.7294
 21
32.108
  0
LINE
  8
0
 10
75.7294
 20
32.108
 11
75.668
 21
31.7203
  0
LINE
  8
0
 10
75.668
 20
31.7203
 11
75.5665
 21
31.3412
  0
LINE
  8
0
 10
75.5665
 20
31.3412
 11
75.4258
 21
30.9747
  0
LINE
  8
0
 10
75.4258
 20
30.9747
 11
75.2476
 21
30.625
  0
LINE
  8
0
 10
75.2476
 20
30.625
 11
75.0338
 21
30.2958
  0
LINE
  8
0
 10
75.0338
 20
30.2958
 11
74.7868
 21
29.9908
  0
LINE
  8
0
 10
74.7868
 20
29.9908
 11
74.5092
 21
29.7132
  0
LINE
  8
0
 10
74.5092
 20
29.7132
 11
74.2042
 21
29.4662
  0
LINE
  8
0
 10
74.2042
 20
29.4662
 11
73.875
 21
29.2524
  0
LINE
  8
0
 10
73.875
 20
29.2524
 11
73.5253
 21
29.0742
  0
LINE
  8
0
 10
73.5253
 20
29.0742
 11
73.1588
 21
28.9335
  0
LINE
  8
0
 10
73.1588
 20
28.9335
 11
72.7797
 21
28.8319
  0
LINE
  8
0
 10
72.7797
 20
28.8319
 11
72.392
 21
28.7705
  0
LINE
  8
0
 10
72.392
 20
28.7705
 11
72
 21
28.75
  0
LINE
  8
0
 10
72
 20
28.75
 11
71.608
 21
28.7705
  0
LINE
  8
0
 10
182.186
 20
25.5164
 11
181.876
 21
25.5656
  0
LINE
  8
0
 10
181.876
 20
25.5656
 11
181.573
 21
25.6468
  0
LINE
  8
0
 10
181.573
 20
25.6468
 11
181.28
 21
25.7594
  0
LINE
  8
0
 10
181.28
 20
25.7594
 11
181
 21
25.9019
  0
LINE
  8
0
 10
181
 20
25.9019
 11
180.737
 21
26.0729
  0
LINE
  8
0
 10
180.737
 20
26.0729
 11
180.493
 21
26.2706
  0
LINE
  8
0
 10
180.493
 20
26.2706
 11
180.271
 21
26.4926
  0
LINE
  8
0
 10
180.271
 20
26.4926
 11
180.073
 21
26.7366
  0
LINE
  8
0
 10
180.073
 20
26.7366
 11
179.902
 21
27
  0
LINE
  8
0
 10
179.902
 20
27
 11
179.759
 21
27.2798
  0
LINE
  8
0
 10
179.759
 20
27.2798
 11
179.647
 21
27.5729
  0
LINE
  8
0
 10
179.647
 20
27.5729
 11
179.566
 21
27.8763
  0
LINE
  8
0
 10
179.566
 20
27.8763
 11
179.516
 21
28.1864
  0
LINE
  8
0
 10
179.516
 20
28.1864
 11
179.5
 21
28.5
  0
LINE
  8
0
 10
179.5
 20
28.5
 11
179.516
 21
28.8136
  0
LINE
  8
0
 10
179.516
 20
28.8136
 11
179.566
 21
29.1237
  0
LINE
  8
0
 10
179.566
 20
29.1237
 11
179.647
 21
29.427
  0
LINE
  8
0
 10
179.647
 20
29.427
 11
179.759
 21
29.7202
  0
LINE
  8
0
 10
179.759
 20
29.7202
 11
179.902
 21
30
  0
LINE
  8
0
 10
179.902
 20
30
 11
180.073
 21
30.2634
  0
LINE
  8
0
 10
180.073
 20
30.2634
 11
180.271
 21
30.5074
  0
LINE
  8
0
 10
180.271
 20
30.5074
 11
180.493
 21
30.7294
  0
LINE
  8
0
 10
180.493
 20
30.7294
 11
180.737
 21
30.927
  0
LINE
  8
0
 10
180.737
 20
30.927
 11
181
 21
31.0981
  0
LINE
  8
0
 10
181
 20
31.0981
 11
181.28
 21
31.2406
  0
LINE
  8
0
 10
181.28
 20
31.2406
 11
181.573
 21
31.3532
  0
LINE
  8
0
 10
181.573
 20
31.3532
 11
181.876
 21
31.4344
  0
LINE
  8
0
 10
181.876
 20
31.4344
 11
182.186
 21
31.4836
  0
LINE
  8
0
 10
182.186
 20
31.4836
 11
182.5
 21
31.5
  0
LINE
  8
0
 10
182.5
 20
31.5
 11
182.814
 21
31.4836
  0
LINE
  8
0
 10
182.814
 20
31.4836
 11
183.124
 21
31.4344
  0
LINE
  8
0
 10
183.124
 20
31.4344
 11
183.427
 21
31.3532
  0
LINE
  8
0
 10
183.427
 20
31.3532
 11
183.72
 21
31.2406
  0
LINE
  8
0
 10
183.72
 20
31.2406
 11
184
 21
31.0981
  0
LINE
  8
0
 10
184
 20
31.0981
 11
184.263
 21
30.927
  0
LINE
  8
0
 10
184.263
 20
30.927
 11
184.507
 21
30.7294
  0
LINE
  8
0
 10
184.507
 20
30.7294
 11
184.729
 21
30.5074
  0
LINE
  8
0
 10
184.729
 20
30.5074
 11
184.927
 21
30.2634
  0
LINE
  8
0
 10
184.927
 20
30.2634
 11
185.098
 21
30
  0
LINE
  8
0
 10
185.098
 20
30
 11
185.241
 21
29.7202
  0
LINE
  8
0
 10
185.241
 20
29.7202
 11
185.353
 21
29.427
  0
LINE
  8
0
 10
185.353
 20
29.427
 11
185.434
 21
29.1237
  0
LINE
  8
0
 10
185.434
 20
29.1237
 11
185.484
 21
28.8136
  0
LINE
  8
0
 10
185.484
 20
28.8136
 11
185.5
 21
28.5
  0
LINE
  8
0
 10
185.5
 20
28.5
 11
185.484
 21
28.1864
  0
LINE
  8
0
 10
185.484
 20
28.1864
 11
185.434
 21
27.8763
  0
LINE
  8
0
 10
185.434
 20
27.8763
 11
185.353
 21
27.5729
  0
LINE
  8
0
 10
185.353
 20
27.5729
 11
185.241
 21
27.2798
  0
LINE
  8
0
 10
185.241
 20
27.2798
 11
185.098
 21
27
  0
LINE
  8
0
 10
185.098
 20
27
 11
184.927
 21
26.7366
  0
LINE
  8
0
 10
184.927
 20
26.7366
 11
184.729
 21
26.4926
  0
LINE
  8
0
 10
184.729
 20
26.4926
 11
184.507
 21
26.2706
  0
LINE
  8
0
 10
184.507
 20
26.2706
 11
184.263
 21
26.0729
  0
LINE
  8
0
 10
184.263
 20
26.0729
 11
184
 21
25.9019
  0
LINE
  8
0
 10
184
 20
25.9019
 11
183.72
 21
25.7594
  0
LINE
  8
0
 10
183.72
 20
25.7594
 11
183.427
 21
25.6468
  0
LINE
  8
0
 10
183.427
 20
25.6468
 11
183.124
 21
25.5656
  0
LINE
  8
0
 10
183.124
 20
25.5656
 11
182.814
 21
25.5164
  0
LINE
  8
0
 10
182.814
 20
25.5164
 11
182.5
 21
25.5
  0
LINE
  8
0
 10
182.5
 20
25.5
 11
182.186
 21
25.5164
  0
LINE
  8
0
 10
-0.0999908
 20
13.7333
 11
-0.0999908
 21
24.7667
  0
LINE
  8
0
 10
-0.0999908
 20
24.7667
 11
3
 21
24.7667
  0
LINE
  8
0
 10
3
 20
24.7667
 11
3
 21
13.7333
  0
LINE
  8
0
 10
3
 20
13.7333
 11
-0.0999908
 21
13.7333
  0
LINE
  8
0
 10
-21.5
 20
16.5
 11
-21.824
 21
16.517
  0
LINE
  8
0
 10
-21.824
 20
16.517
 11
-22.1445
 21
16.5677
  0
LINE
  8
0
 10
-22.1445
 20
16.5677
 11
-22.4579
 21
16.6517
  0
LINE
  8
0
 10
-22.4579
 20
16.6517
 11
-22.7609
 21
16.768
  0
LINE
  8
0
 10
-22.7609
 20
16.768
 11
-23.05
 21
16.9153
  0
LINE
  8
0
 10
-23.05
 20
16.9153
 11
-23.3221
 21
17.092
  0
LINE
  8
0
 10
-23.3221
 20
17.092
 11
-23.5743
 21
17.2962
  0
LINE
  8
0
 10
-23.5743
 20
17.2962
 11
-23.8037
 21
17.5257
  0
LINE
  8
0
 10
-23.8037
 20
17.5257
 11
-24.0079
 21
17.7779
  0
LINE
  8
0
 10
-24.0079
 20
17.7779
 11
-24.1847
 21
18.05
  0
LINE
  8
0
 10
-24.1847
 20
18.05
 11
-24.332
 21
18.3391
  0
LINE
  8
0
 10
-24.332
 20
18.3391
 11
-24.4483
 21
18.642
  0
LINE
  8
0
 10
-24.4483
 20
18.642
 11
-24.5323
 21
18.9555
  0
LINE
  8
0
 10
-24.5323
 20
18.9555
 11
-24.583
 21
19.276
  0
LINE
  8
0
 10
-24.583
 20
19.276
 11
-24.6
 21
19.6
  0
LINE
  8
0
 10
-24.6
 20
19.6
 11
-24.583
 21
19.924
  0
LINE
  8
0
 10
-24.583
 20
19.924
 11
-24.5323
 21
20.2445
  0
LINE
  8
0
 10
-24.5323
 20
20.2445
 11
-24.4483
 21
20.558
  0
LINE
  8
0
 10
-24.4483
 20
20.558
 11
-24.332
 21
20.8609
  0
LINE
  8
0
 10
-24.332
 20
20.8609
 11
-24.1847
 21
21.15
  0
LINE
  8
0
 10
-24.1847
 20
21.15
 11
-24.0079
 21
21.4221
  0
LINE
  8
0
 10
-24.0079
 20
21.4221
 11
-23.8037
 21
21.6743
  0
LINE
  8
0
 10
-23.8037
 20
21.6743
 11
-23.5743
 21
21.9037
  0
LINE
  8
0
 10
-23.5743
 20
21.9037
 11
-23.3221
 21
22.1079
  0
LINE
  8
0
 10
-23.3221
 20
22.1079
 11
-23.05
 21
22.2847
  0
LINE
  8
0
 10
-23.05
 20
22.2847
 11
-22.7609
 21
22.432
  0
LINE
  8
0
 10
-22.7609
 20
22.432
 11
-22.4579
 21
22.5483
  0
LINE
  8
0
 10
-22.4579
 20
22.5483
 11
-22.1445
 21
22.6322
  0
LINE
  8
0
 10
-22.1445
 20
22.6322
 11
-21.824
 21
22.683
  0
LINE
  8
0
 10
-21.824
 20
22.683
 11
-21.5
 21
22.7
  0
LINE
  8
0
 10
-21.5
 20
22.7
 11
-14.5
 21
22.7
  0
LINE
  8
0
 10
-14.5
 20
22.7
 11
-14.1759
 21
22.683
  0
LINE
  8
0
 10
-14.1759
 20
22.683
 11
-13.8555
 21
22.6322
  0
LINE
  8
0
 10
-13.8555
 20
22.6322
 11
-13.542
 21
22.5483
  0
LINE
  8
0
 10
-13.542
 20
22.5483
 11
-13.2391
 21
22.432
  0
LINE
  8
0
 10
-13.2391
 20
22.432
 11
-12.95
 21
22.2847
  0
LINE
  8
0
 10
-12.95
 20
22.2847
 11
-12.6779
 21
22.1079
  0
LINE
  8
0
 10
-12.6779
 20
22.1079
 11
-12.4257
 21
21.9037
  0
LINE
  8
0
 10
-12.4257
 20
21.9037
 11
-12.1962
 21
21.6743
  0
LINE
  8
0
 10
-12.1962
 20
21.6743
 11
-11.992
 21
21.4221
  0
LINE
  8
0
 10
-11.992
 20
21.4221
 11
-11.8153
 21
21.15
  0
LINE
  8
0
 10
-11.8153
 20
21.15
 11
-11.668
 21
20.8609
  0
LINE
  8
0
 10
-11.668
 20
20.8609
 11
-11.5517
 21
20.558
  0
LINE
  8
0
 10
-11.5517
 20
20.558
 11
-11.4677
 21
20.2445
  0
LINE
  8
0
 10
-11.4677
 20
20.2445
 11
-11.417
 21
19.924
  0
LINE
  8
0
 10
-11.417
 20
19.924
 11
-11.4
 21
19.6
  0
LINE
  8
0
 10
-11.4
 20
19.6
 11
-11.417
 21
19.276
  0
LINE
  8
0
 10
-11.417
 20
19.276
 11
-11.4677
 21
18.9555
  0
LINE
  8
0
 10
-11.4677
 20
18.9555
 11
-11.5517
 21
18.642
  0
LINE
  8
0
 10
-11.5517
 20
18.642
 11
-11.668
 21
18.3391
  0
LINE
  8
0
 10
-11.668
 20
18.3391
 11
-11.8153
 21
18.05
  0
LINE
  8
0
 10
-11.8153
 20
18.05
 11
-11.992
 21
17.7779
  0
LINE
  8
0
 10
-11.992
 20
17.7779
 11
-12.1962
 21
17.5257
  0
LINE
  8
0
 10
-12.1962
 20
17.5257
 11
-12.4257
 21
17.2962
  0
LINE
  8
0
 10
-12.4257
 20
17.2962
 11
-12.6779
 21
17.092
  0
LINE
  8
0
 10
-12.6779
 20
17.092
 11
-12.95
 21
16.9153
  0
LINE
  8
0
 10
-12.95
 20
16.9153
 11
-13.2391
 21
16.768
  0
LINE
  8
0
 10
-13.2391
 20
16.768
 11
-13.542
 21
16.6517
  0
LINE
  8
0
 10
-13.542
 20
16.6517
 11
-13.8555
 21
16.5677
  0
LINE
  8
0
 10
-13.8555
 20
16.5677
 11
-14.1759
 21
16.517
  0
LINE
  8
0
 10
-14.1759
 20
16.517
 11
-14.5
 21
16.5
  0
LINE
  8
0
 10
-14.5
 20
16.5
 11
-21.5
 21
16.5
  0
LINE
  8
0
 10
60.51
 20
19.406
 11
60.3963
 21
19.424
  0
LINE
  8
0
 10
60.3963
 20
19.424
 11
60.2851
 21
19.4538
  0
LINE
  8
0
 10
60.2851
 20
19.4538
 11
60.1776
 21
19.4951
  0
LINE
  8
0
 10
60.1776
 20
19.4951
 11
60.075
 21
19.5474
  0
LINE
  8
0
 10
60.075
 20
19.5474
 11
59.9784
 21
19.6101
  0
LINE
  8
0
 10
59.9784
 20
19.6101
 11
59.8889
 21
19.6825
  0
LINE
  8
0
 10
59.8889
 20
19.6825
 11
59.8075
 21
19.7639
  0
LINE
  8
0
 10
59.8075
 20
19.7639
 11
59.7351
 21
19.8534
  0
LINE
  8
0
 10
59.7351
 20
19.8534
 11
59.6724
 21
19.95
  0
LINE
  8
0
 10
59.6724
 20
19.95
 11
59.6201
 21
20.0526
  0
LINE
  8
0
 10
59.6201
 20
20.0526
 11
59.5788
 21
20.1601
  0
LINE
  8
0
 10
59.5788
 20
20.1601
 11
59.549
 21
20.2713
  0
LINE
  8
0
 10
59.549
 20
20.2713
 11
59.531
 21
20.385
  0
LINE
  8
0
 10
59.531
 20
20.385
 11
59.525
 21
20.5
  0
LINE
  8
0
 10
59.525
 20
20.5
 11
59.531
 21
20.615
  0
LINE
  8
0
 10
59.531
 20
20.615
 11
59.549
 21
20.7287
  0
LINE
  8
0
 10
59.549
 20
20.7287
 11
59.5788
 21
20.8399
  0
LINE
  8
0
 10
59.5788
 20
20.8399
 11
59.6201
 21
20.9474
  0
LINE
  8
0
 10
59.6201
 20
20.9474
 11
59.6724
 21
21.05
  0
LINE
  8
0
 10
59.6724
 20
21.05
 11
59.7351
 21
21.1466
  0
LINE
  8
0
 10
59.7351
 20
21.1466
 11
59.8075
 21
21.236
  0
LINE
  8
0
 10
59.8075
 20
21.236
 11
59.8889
 21
21.3175
  0
LINE
  8
0
 10
59.8889
 20
21.3175
 11
59.9784
 21
21.3899
  0
LINE
  8
0
 10
59.9784
 20
21.3899
 11
60.075
 21
21.4526
  0
LINE
  8
0
 10
60.075
 20
21.4526
 11
60.1776
 21
21.5049
  0
LINE
  8
0
 10
60.1776
 20
21.5049
 11
60.2851
 21
21.5462
  0
LINE
  8
0
 10
60.2851
 20
21.5462
 11
60.3963
 21
21.576
  0
LINE
  8
0
 10
60.3963
 20
21.576
 11
60.51
 21
21.594
  0
LINE
  8
0
 10
60.51
 20
21.594
 11
60.625
 21
21.6
  0
LINE
  8
0
 10
60.625
 20
21.6
 11
60.74
 21
21.594
  0
LINE
  8
0
 10
60.74
 20
21.594
 11
60.8537
 21
21.576
  0
LINE
  8
0
 10
60.8537
 20
21.576
 11
60.9649
 21
21.5462
  0
LINE
  8
0
 10
60.9649
 20
21.5462
 11
61.0724
 21
21.5049
  0
LINE
  8
0
 10
61.0724
 20
21.5049
 11
61.175
 21
21.4526
  0
LINE
  8
0
 10
61.175
 20
21.4526
 11
61.2716
 21
21.3899
  0
LINE
  8
0
 10
61.2716
 20
21.3899
 11
61.361
 21
21.3175
  0
LINE
  8
0
 10
61.361
 20
21.3175
 11
61.4425
 21
21.236
  0
LINE
  8
0
 10
61.4425
 20
21.236
 11
61.5149
 21
21.1466
  0
LINE
  8
0
 10
61.5149
 20
21.1466
 11
61.5776
 21
21.05
  0
LINE
  8
0
 10
61.5776
 20
21.05
 11
61.6299
 21
20.9474
  0
LINE
  8
0
 10
61.6299
 20
20.9474
 11
61.6712
 21
20.8399
  0
LINE
  8
0
 10
61.6712
 20
20.8399
 11
61.701
 21
20.7287
  0
LINE
  8
0
 10
61.701
 20
20.7287
 11
61.719
 21
20.615
  0
LINE
  8
0
 10
61.719
 20
20.615
 11
61.725
 21
20.5
  0
LINE
  8
0
 10
61.725
 20
20.5
 11
61.719
 21
20.385
  0
LINE
  8
0
 10
61.719
 20
20.385
 11
61.701
 21
20.2713
  0
LINE
  8
0
 10
61.701
 20
20.2713
 11
61.6712
 21
20.1601
  0
LINE
  8
0
 10
61.6712
 20
20.1601
 11
61.6299
 21
20.0526
  0
LINE
  8
0
 10
61.6299
 20
20.0526
 11
61.5776
 21
19.95
  0
LINE
  8
0
 10
61.5776
 20
19.95
 11
61.5149
 21
19.8534
  0
LINE
  8
0
 10
61.5149
 20
19.8534
 11
61.4425
 21
19.7639
  0
LINE
  8
0
 10
61.4425
 20
19.7639
 11
61.361
 21
19.6825
  0
LINE
  8
0
 10
61.361
 20
19.6825
 11
61.2716
 21
19.6101
  0
LINE
  8
0
 10
61.2716
 20
19.6101
 11
61.175
 21
19.5474
  0
LINE
  8
0
 10
61.175
 20
19.5474
 11
61.0724
 21
19.4951
  0
LINE
  8
0
 10
61.0724
 20
19.4951
 11
60.9649
 21
19.4538
  0
LINE
  8
0
 10
60.9649
 20
19.4538
 11
60.8537
 21
19.424
  0
LINE
  8
0
 10
60.8537
 20
19.424
 11
60.74
 21
19.406
  0
LINE
  8
0
 10
60.74
 20
19.406
 11
60.625
 21
19.4
  0
LINE
  8
0
 10
60.625
 20
19.4
 11
60.51
 21
19.406
  0
LINE
  8
0
 10
7.51001
 20
19.406
 11
7.39629
 21
19.424
  0
LINE
  8
0
 10
7.39629
 20
19.424
 11
7.28508
 21
19.4538
  0
LINE
  8
0
 10
7.28508
 20
19.4538
 11
7.17758
 21
19.4951
  0
LINE
  8
0
 10
7.17758
 20
19.4951
 11
7.075
 21
19.5474
  0
LINE
  8
0
 10
7.075
 20
19.5474
 11
6.97842
 21
19.6101
  0
LINE
  8
0
 10
6.97842
 20
19.6101
 11
6.88895
 21
19.6825
  0
LINE
  8
0
 10
6.88895
 20
19.6825
 11
6.80753
 21
19.7639
  0
LINE
  8
0
 10
6.80753
 20
19.7639
 11
6.73508
 21
19.8534
  0
LINE
  8
0
 10
6.73508
 20
19.8534
 11
6.67236
 21
19.95
  0
LINE
  8
0
 10
6.67236
 20
19.95
 11
6.62009
 21
20.0526
  0
LINE
  8
0
 10
6.62009
 20
20.0526
 11
6.57883
 21
20.1601
  0
LINE
  8
0
 10
6.57883
 20
20.1601
 11
6.54903
 21
20.2713
  0
LINE
  8
0
 10
6.54903
 20
20.2713
 11
6.53102
 21
20.385
  0
LINE
  8
0
 10
6.53102
 20
20.385
 11
6.52499
 21
20.5
  0
LINE
  8
0
 10
6.52499
 20
20.5
 11
6.53102
 21
20.615
  0
LINE
  8
0
 10
6.53102
 20
20.615
 11
6.54903
 21
20.7287
  0
LINE
  8
0
 10
6.54903
 20
20.7287
 11
6.57883
 21
20.8399
  0
LINE
  8
0
 10
6.57883
 20
20.8399
 11
6.62009
 21
20.9474
  0
LINE
  8
0
 10
6.62009
 20
20.9474
 11
6.67236
 21
21.05
  0
LINE
  8
0
 10
6.67236
 20
21.05
 11
6.73508
 21
21.1466
  0
LINE
  8
0
 10
6.73508
 20
21.1466
 11
6.80753
 21
21.236
  0
LINE
  8
0
 10
6.80753
 20
21.236
 11
6.88895
 21
21.3175
  0
LINE
  8
0
 10
6.88895
 20
21.3175
 11
6.97842
 21
21.3899
  0
LINE
  8
0
 10
6.97842
 20
21.3899
 11
7.075
 21
21.4526
  0
LINE
  8
0
 10
7.075
 20
21.4526
 11
7.17758
 21
21.5049
  0
LINE
  8
0
 10
7.17758
 20
21.5049
 11
7.28508
 21
21.5462
  0
LINE
  8
0
 10
7.28508
 20
21.5462
 11
7.39629
 21
21.576
  0
LINE
  8
0
 10
7.39629
 20
21.576
 11
7.51001
 21
21.594
  0
LINE
  8
0
 10
7.51001
 20
21.594
 11
7.625
 21
21.6
  0
LINE
  8
0
 10
7.625
 20
21.6
 11
7.73997
 21
21.594
  0
LINE
  8
0
 10
7.73997
 20
21.594
 11
7.8537
 21
21.576
  0
LINE
  8
0
 10
7.8537
 20
21.576
 11
7.9649
 21
21.5462
  0
LINE
  8
0
 10
7.9649
 20
21.5462
 11
8.0724
 21
21.5049
  0
LINE
  8
0
 10
8.0724
 20
21.5049
 11
8.17499
 21
21.4526
  0
LINE
  8
0
 10
8.17499
 20
21.4526
 11
8.27156
 21
21.3899
  0
LINE
  8
0
 10
8.27156
 20
21.3899
 11
8.36104
 21
21.3175
  0
LINE
  8
0
 10
8.36104
 20
21.3175
 11
8.44246
 21
21.236
  0
LINE
  8
0
 10
8.44246
 20
21.236
 11
8.51491
 21
21.1466
  0
LINE
  8
0
 10
8.51491
 20
21.1466
 11
8.57762
 21
21.05
  0
LINE
  8
0
 10
8.57762
 20
21.05
 11
8.6299
 21
20.9474
  0
LINE
  8
0
 10
8.6299
 20
20.9474
 11
8.67116
 21
20.8399
  0
LINE
  8
0
 10
8.67116
 20
20.8399
 11
8.70096
 21
20.7287
  0
LINE
  8
0
 10
8.70096
 20
20.7287
 11
8.71896
 21
20.615
  0
LINE
  8
0
 10
8.71896
 20
20.615
 11
8.72499
 21
20.5
  0
LINE
  8
0
 10
8.72499
 20
20.5
 11
8.71896
 21
20.385
  0
LINE
  8
0
 10
8.71896
 20
20.385
 11
8.70096
 21
20.2713
  0
LINE
  8
0
 10
8.70096
 20
20.2713
 11
8.67116
 21
20.1601
  0
LINE
  8
0
 10
8.67116
 20
20.1601
 11
8.6299
 21
20.0526
  0
LINE
  8
0
 10
8.6299
 20
20.0526
 11
8.57762
 21
19.95
  0
LINE
  8
0
 10
8.57762
 20
19.95
 11
8.51491
 21
19.8534
  0
LINE
  8
0
 10
8.51491
 20
19.8534
 11
8.44246
 21
19.7639
  0
LINE
  8
0
 10
8.44246
 20
19.7639
 11
8.36104
 21
19.6825
  0
LINE
  8
0
 10
8.36104
 20
19.6825
 11
8.27156
 21
19.6101
  0
LINE
  8
0
 10
8.27156
 20
19.6101
 11
8.17499
 21
19.5474
  0
LINE
  8
0
 10
8.17499
 20
19.5474
 11
8.0724
 21
19.4951
  0
LINE
  8
0
 10
8.0724
 20
19.4951
 11
7.9649
 21
19.4538
  0
LINE
  8
0
 10
7.9649
 20
19.4538
 11
7.8537
 21
19.424
  0
LINE
  8
0
 10
7.8537
 20
19.424
 11
7.73997
 21
19.406
  0
LINE
  8
0
 10
7.73997
 20
19.406
 11
7.625
 21
19.4
  0
LINE
  8
0
 10
7.625
 20
19.4
 11
7.51001
 21
19.406
  0
LINE
  8
0
 10
89.176
 20
11.317
 11
88.8555
 21
11.3677
  0
LINE
  8
0
 10
88.8555
 20
11.3677
 11
88.542
 21
11.4517
  0
LINE
  8
0
 10
88.542
 20
11.4517
 11
88.2391
 21
11.568
  0
LINE
  8
0
 10
88.2391
 20
11.568
 11
87.95
 21
11.7153
  0
LINE
  8
0
 10
87.95
 20
11.7153
 11
87.6779
 21
11.892
  0
LINE
  8
0
 10
87.6779
 20
11.892
 11
87.4257
 21
12.0962
  0
LINE
  8
0
 10
87.4257
 20
12.0962
 11
87.1962
 21
12.3257
  0
LINE
  8
0
 10
87.1962
 20
12.3257
 11
86.9921
 21
12.5779
  0
LINE
  8
0
 10
86.9921
 20
12.5779
 11
86.8153
 21
12.85
  0
LINE
  8
0
 10
86.8153
 20
12.85
 11
86.668
 21
13.1391
  0
LINE
  8
0
 10
86.668
 20
13.1391
 11
86.5517
 21
13.442
  0
LINE
  8
0
 10
86.5517
 20
13.442
 11
86.5
 21
13.6351
  0
LINE
  8
0
 10
86.5
 20
13.6351
 11
86.5
 21
11.9
  0
LINE
  8
0
 10
86.5
 20
11.9
 11
76.5
 21
11.9
  0
LINE
  8
0
 10
76.5
 20
11.9
 11
76.5
 21
16.9
  0
LINE
  8
0
 10
76.5
 20
16.9
 11
86.5
 21
16.9
  0
LINE
  8
0
 10
86.5
 20
16.9
 11
86.5
 21
15.1649
  0
LINE
  8
0
 10
86.5
 20
15.1649
 11
86.5517
 21
15.3579
  0
LINE
  8
0
 10
86.5517
 20
15.3579
 11
86.668
 21
15.6609
  0
LINE
  8
0
 10
86.668
 20
15.6609
 11
86.8153
 21
15.95
  0
LINE
  8
0
 10
86.8153
 20
15.95
 11
86.9921
 21
16.2221
  0
LINE
  8
0
 10
86.9921
 20
16.2221
 11
87.1962
 21
16.4743
  0
LINE
  8
0
 10
87.1962
 20
16.4743
 11
87.4257
 21
16.7037
  0
LINE
  8
0
 10
87.4257
 20
16.7037
 11
87.6779
 21
16.9079
  0
LINE
  8
0
 10
87.6779
 20
16.9079
 11
87.95
 21
17.0847
  0
LINE
  8
0
 10
87.95
 20
17.0847
 11
88.2391
 21
17.232
  0
LINE
  8
0
 10
88.2391
 20
17.232
 11
88.542
 21
17.3483
  0
LINE
  8
0
 10
88.542
 20
17.3483
 11
88.8555
 21
17.4323
  0
LINE
  8
0
 10
88.8555
 20
17.4323
 11
89.176
 21
17.483
  0
LINE
  8
0
 10
89.176
 20
17.483
 11
89.5
 21
17.5
  0
LINE
  8
0
 10
89.5
 20
17.5
 11
89.824
 21
17.483
  0
LINE
  8
0
 10
89.824
 20
17.483
 11
90.1445
 21
17.4323
  0
LINE
  8
0
 10
90.1445
 20
17.4323
 11
90.4579
 21
17.3483
  0
LINE
  8
0
 10
90.4579
 20
17.3483
 11
90.7609
 21
17.232
  0
LINE
  8
0
 10
90.7609
 20
17.232
 11
91.05
 21
17.0847
  0
LINE
  8
0
 10
91.05
 20
17.0847
 11
91.3221
 21
16.9079
  0
LINE
  8
0
 10
91.3221
 20
16.9079
 11
91.5743
 21
16.7037
  0
LINE
  8
0
 10
91.5743
 20
16.7037
 11
91.8037
 21
16.4743
  0
LINE
  8
0
 10
91.8037
 20
16.4743
 11
92.0079
 21
16.2221
  0
LINE
  8
0
 10
92.0079
 20
16.2221
 11
92.1847
 21
15.95
  0
LINE
  8
0
 10
92.1847
 20
15.95
 11
92.332
 21
15.6609
  0
LINE
  8
0
 10
92.332
 20
15.6609
 11
92.4483
 21
15.3579
  0
LINE
  8
0
 10
92.4483
 20
15.3579
 11
92.5
 21
15.1649
  0
LINE
  8
0
 10
92.5
 20
15.1649
 11
92.5
 21
16.9
  0
LINE
  8
0
 10
92.5
 20
16.9
 11
102.5
 21
16.9
  0
LINE
  8
0
 10
102.5
 20
16.9
 11
102.5
 21
11.9
  0
LINE
  8
0
 10
102.5
 20
11.9
 11
92.5
 21
11.9
  0
LINE
  8
0
 10
92.5
 20
11.9
 11
92.5
 21
13.6351
  0
LINE
  8
0
 10
92.5
 20
13.6351
 11
92.4483
 21
13.442
  0
LINE
  8
0
 10
92.4483
 20
13.442
 11
92.332
 21
13.1391
  0
LINE
  8
0
 10
92.332
 20
13.1391
 11
92.1847
 21
12.85
  0
LINE
  8
0
 10
92.1847
 20
12.85
 11
92.0079
 21
12.5779
  0
LINE
  8
0
 10
92.0079
 20
12.5779
 11
91.8037
 21
12.3257
  0
LINE
  8
0
 10
91.8037
 20
12.3257
 11
91.5743
 21
12.0962
  0
LINE
  8
0
 10
91.5743
 20
12.0962
 11
91.3221
 21
11.892
  0
LINE
  8
0
 10
91.3221
 20
11.892
 11
91.05
 21
11.7153
  0
LINE
  8
0
 10
91.05
 20
11.7153
 11
90.7609
 21
11.568
  0
LINE
  8
0
 10
90.7609
 20
11.568
 11
90.4579
 21
11.4517
  0
LINE
  8
0
 10
90.4579
 20
11.4517
 11
90.1445
 21
11.3677
  0
LINE
  8
0
 10
90.1445
 20
11.3677
 11
89.824
 21
11.317
  0
LINE
  8
0
 10
89.824
 20
11.317
 11
89.5
 21
11.3
  0
LINE
  8
0
 10
89.5
 20
11.3
 11
89.176
 21
11.317
  0
ENDSEC
  0
SECTION
  2
OBJECTS
  0
DICTIONARY
  0
ENDSEC
  0
EOF
