  0
SECTION
  2
BLOCKS
  0
ENDSEC
  0
SECTION
  2
ENTITIES
  0
LINE
  8
0
 10
24.6667
 20
3
 11
35.5
 21
3
  0
LINE
  8
0
 10
35.5
 20
3
 11
35.5
 21
0
  0
LINE
  8
0
 10
35.5
 20
0
 11
46.3333
 21
0
  0
LINE
  8
0
 10
46.3333
 20
0
 11
46.3333
 21
3
  0
LINE
  8
0
 10
46.3333
 20
3
 11
57.1667
 21
3
  0
LINE
  8
0
 10
57.1667
 20
3
 11
57.1667
 21
0
  0
LINE
  8
0
 10
57.1667
 20
0
 11
68
 21
0
  0
LINE
  8
0
 10
68
 20
0
 11
68
 21
3.09999
  0
LINE
  8
0
 10
68
 20
3.09999
 11
71
 21
3.09999
  0
LINE
  8
0
 10
71
 20
3.09999
 11
71
 21
14.825
  0
LINE
  8
0
 10
71
 20
14.825
 11
68
 21
14.825
  0
LINE
  8
0
 10
68
 20
14.825
 11
68
 21
26.55
  0
LINE
  8
0
 10
68
 20
26.55
 11
71
 21
26.55
  0
LINE
  8
0
 10
71
 20
26.55
 11
71
 21
38.275
  0
LINE
  8
0
 10
71
 20
38.275
 11
68
 21
38.275
  0
LINE
  8
0
 10
68
 20
38.275
 11
68
 21
50
  0
LINE
  8
0
 10
68
 20
50
 11
71
 21
50
  0
LINE
  8
0
 10
71
 20
50
 11
71
 21
61.725
  0
LINE
  8
0
 10
71
 20
61.725
 11
68
 21
61.725
  0
LINE
  8
0
 10
68
 20
61.725
 11
68
 21
73.45
  0
LINE
  8
0
 10
68
 20
73.45
 11
71
 21
73.45
  0
LINE
  8
0
 10
71
 20
73.45
 11
71
 21
85.175
  0
LINE
  8
0
 10
71
 20
85.175
 11
68
 21
85.175
  0
LINE
  8
0
 10
68
 20
85.175
 11
68
 21
97
  0
LINE
  8
0
 10
68
 20
97
 11
57.1667
 21
97
  0
LINE
  8
0
 10
57.1667
 20
97
 11
57.1667
 21
100
  0
LINE
  8
0
 10
57.1667
 20
100
 11
46.3333
 21
100
  0
LINE
  8
0
 10
46.3333
 20
100
 11
46.3333
 21
97
  0
LINE
  8
0
 10
46.3333
 20
97
 11
35.5
 21
97
  0
LINE
  8
0
 10
35.5
 20
97
 11
35.5
 21
100
  0
LINE
  8
0
 10
35.5
 20
100
 11
24.6667
 21
100
  0
LINE
  8
0
 10
24.6667
 20
100
 11
24.6667
 21
97
  0
LINE
  8
0
 10
24.6667
 20
97
 11
13.8333
 21
97
  0
LINE
  8
0
 10
13.8333
 20
97
 11
13.8333
 21
100
  0
LINE
  8
0
 10
13.8333
 20
100
 11
3
 21
100
  0
LINE
  8
0
 10
3
 20
100
 11
3
 21
96.9
  0
LINE
  8
0
 10
3
 20
96.9
 11
-0.0999908
 21
96.9
  0
LINE
  8
0
 10
-0.0999908
 20
96.9
 11
-0.0999908
 21
85.175
  0
LINE
  8
0
 10
-0.0999908
 20
85.175
 11
3
 21
85.175
  0
LINE
  8
0
 10
3
 20
85.175
 11
3
 21
73.45
  0
LINE
  8
0
 10
3
 20
73.45
 11
-0.0999908
 21
73.45
  0
LINE
  8
0
 10
-0.0999908
 20
73.45
 11
-0.0999908
 21
61.725
  0
LINE
  8
0
 10
-0.0999908
 20
61.725
 11
3
 21
61.725
  0
LINE
  8
0
 10
3
 20
61.725
 11
3
 21
50
  0
LINE
  8
0
 10
3
 20
50
 11
-0.0999908
 21
50
  0
LINE
  8
0
 10
-0.0999908
 20
50
 11
-0.0999908
 21
38.275
  0
LINE
  8
0
 10
-0.0999908
 20
38.275
 11
3
 21
38.275
  0
LINE
  8
0
 10
3
 20
38.275
 11
3
 21
26.55
  0
LINE
  8
0
 10
3
 20
26.55
 11
-0.0999908
 21
26.55
  0
LINE
  8
0
 10
-0.0999908
 20
26.55
 11
-0.0999908
 21
14.825
  0
LINE
  8
0
 10
-0.0999908
 20
14.825
 11
3
 21
14.825
  0
LINE
  8
0
 10
3
 20
14.825
 11
3
 21
3
  0
LINE
  8
0
 10
3
 20
3
 11
13.8333
 21
3
  0
LINE
  8
0
 10
13.8333
 20
3
 11
13.8333
 21
0
  0
LINE
  8
0
 10
13.8333
 20
0
 11
24.6667
 21
0
  0
LINE
  8
0
 10
24.6667
 20
0
 11
24.6667
 21
3
  0
LINE
  8
0
 10
50.77
 20
38.312
 11
50.5426
 21
38.3481
  0
LINE
  8
0
 10
50.5426
 20
38.3481
 11
50.3202
 21
38.4077
  0
LINE
  8
0
 10
50.3202
 20
38.4077
 11
50.1052
 21
38.4902
  0
LINE
  8
0
 10
50.1052
 20
38.4902
 11
49.9
 21
38.5947
  0
LINE
  8
0
 10
49.9
 20
38.5947
 11
49.7069
 21
38.7202
  0
LINE
  8
0
 10
49.7069
 20
38.7202
 11
49.5279
 21
38.8651
  0
LINE
  8
0
 10
49.5279
 20
38.8651
 11
49.3651
 21
39.0279
  0
LINE
  8
0
 10
49.3651
 20
39.0279
 11
49.2202
 21
39.2069
  0
LINE
  8
0
 10
49.2202
 20
39.2069
 11
49.0947
 21
39.4
  0
LINE
  8
0
 10
49.0947
 20
39.4
 11
48.9902
 21
39.6052
  0
LINE
  8
0
 10
48.9902
 20
39.6052
 11
48.9077
 21
39.8202
  0
LINE
  8
0
 10
48.9077
 20
39.8202
 11
48.8481
 21
40.0426
  0
LINE
  8
0
 10
48.8481
 20
40.0426
 11
48.812
 21
40.27
  0
LINE
  8
0
 10
48.812
 20
40.27
 11
48.8
 21
40.5
  0
LINE
  8
0
 10
48.8
 20
40.5
 11
48.8
 21
46.5
  0
LINE
  8
0
 10
48.8
 20
46.5
 11
48.812
 21
46.7299
  0
LINE
  8
0
 10
48.812
 20
46.7299
 11
48.8481
 21
46.9574
  0
LINE
  8
0
 10
48.8481
 20
46.9574
 11
48.9077
 21
47.1798
  0
LINE
  8
0
 10
48.9077
 20
47.1798
 11
48.9902
 21
47.3948
  0
LINE
  8
0
 10
48.9902
 20
47.3948
 11
49.0947
 21
47.6
  0
LINE
  8
0
 10
49.0947
 20
47.6
 11
49.2202
 21
47.7931
  0
LINE
  8
0
 10
49.2202
 20
47.7931
 11
49.3651
 21
47.9721
  0
LINE
  8
0
 10
49.3651
 20
47.9721
 11
49.5279
 21
48.1349
  0
LINE
  8
0
 10
49.5279
 20
48.1349
 11
49.7069
 21
48.2798
  0
LINE
  8
0
 10
49.7069
 20
48.2798
 11
49.9
 21
48.4052
  0
LINE
  8
0
 10
49.9
 20
48.4052
 11
50.1052
 21
48.5098
  0
LINE
  8
0
 10
50.1052
 20
48.5098
 11
50.3202
 21
48.5923
  0
LINE
  8
0
 10
50.3202
 20
48.5923
 11
50.5426
 21
48.6519
  0
LINE
  8
0
 10
50.5426
 20
48.6519
 11
50.77
 21
48.6879
  0
LINE
  8
0
 10
50.77
 20
48.6879
 11
51
 21
48.7
  0
LINE
  8
0
 10
51
 20
48.7
 11
51.2299
 21
48.6879
  0
LINE
  8
0
 10
51.2299
 20
48.6879
 11
51.4574
 21
48.6519
  0
LINE
  8
0
 10
51.4574
 20
48.6519
 11
51.6798
 21
48.5923
  0
LINE
  8
0
 10
51.6798
 20
48.5923
 11
51.8948
 21
48.5098
  0
LINE
  8
0
 10
51.8948
 20
48.5098
 11
52.1
 21
48.4052
  0
LINE
  8
0
 10
52.1
 20
48.4052
 11
52.2931
 21
48.2798
  0
LINE
  8
0
 10
52.2931
 20
48.2798
 11
52.4721
 21
48.1349
  0
LINE
  8
0
 10
52.4721
 20
48.1349
 11
52.6349
 21
47.9721
  0
LINE
  8
0
 10
52.6349
 20
47.9721
 11
52.7798
 21
47.7931
  0
LINE
  8
0
 10
52.7798
 20
47.7931
 11
52.9052
 21
47.6
  0
LINE
  8
0
 10
52.9052
 20
47.6
 11
53.0098
 21
47.3948
  0
LINE
  8
0
 10
53.0098
 20
47.3948
 11
53.0923
 21
47.1798
  0
LINE
  8
0
 10
53.0923
 20
47.1798
 11
53.1519
 21
46.9574
  0
LINE
  8
0
 10
53.1519
 20
46.9574
 11
53.1879
 21
46.7299
  0
LINE
  8
0
 10
53.1879
 20
46.7299
 11
53.2
 21
46.5
  0
LINE
  8
0
 10
53.2
 20
46.5
 11
53.2
 21
40.5
  0
LINE
  8
0
 10
53.2
 20
40.5
 11
53.1879
 21
40.27
  0
LINE
  8
0
 10
53.1879
 20
40.27
 11
53.1519
 21
40.0426
  0
LINE
  8
0
 10
53.1519
 20
40.0426
 11
53.0923
 21
39.8202
  0
LINE
  8
0
 10
53.0923
 20
39.8202
 11
53.0098
 21
39.6052
  0
LINE
  8
0
 10
53.0098
 20
39.6052
 11
52.9052
 21
39.4
  0
LINE
  8
0
 10
52.9052
 20
39.4
 11
52.7798
 21
39.2069
  0
LINE
  8
0
 10
52.7798
 20
39.2069
 11
52.6349
 21
39.0279
  0
LINE
  8
0
 10
52.6349
 20
39.0279
 11
52.4721
 21
38.8651
  0
LINE
  8
0
 10
52.4721
 20
38.8651
 11
52.2931
 21
38.7202
  0
LINE
  8
0
 10
52.2931
 20
38.7202
 11
52.1
 21
38.5947
  0
LINE
  8
0
 10
52.1
 20
38.5947
 11
51.8948
 21
38.4902
  0
LINE
  8
0
 10
51.8948
 20
38.4902
 11
51.6798
 21
38.4077
  0
LINE
  8
0
 10
51.6798
 20
38.4077
 11
51.4574
 21
38.3481
  0
LINE
  8
0
 10
51.4574
 20
38.3481
 11
51.2299
 21
38.312
  0
LINE
  8
0
 10
51.2299
 20
38.312
 11
51
 21
38.3
  0
LINE
  8
0
 10
51
 20
38.3
 11
50.77
 21
38.312
  0
LINE
  8
0
 10
19.77
 20
38.312
 11
19.5426
 21
38.3481
  0
LINE
  8
0
 10
19.5426
 20
38.3481
 11
19.3202
 21
38.4077
  0
LINE
  8
0
 10
19.3202
 20
38.4077
 11
19.1052
 21
38.4902
  0
LINE
  8
0
 10
19.1052
 20
38.4902
 11
18.9
 21
38.5947
  0
LINE
  8
0
 10
18.9
 20
38.5947
 11
18.7069
 21
38.7202
  0
LINE
  8
0
 10
18.7069
 20
38.7202
 11
18.5279
 21
38.8651
  0
LINE
  8
0
 10
18.5279
 20
38.8651
 11
18.3651
 21
39.0279
  0
LINE
  8
0
 10
18.3651
 20
39.0279
 11
18.2202
 21
39.2069
  0
LINE
  8
0
 10
18.2202
 20
39.2069
 11
18.0947
 21
39.4
  0
LINE
  8
0
 10
18.0947
 20
39.4
 11
17.9902
 21
39.6052
  0
LINE
  8
0
 10
17.9902
 20
39.6052
 11
17.9077
 21
39.8202
  0
LINE
  8
0
 10
17.9077
 20
39.8202
 11
17.8481
 21
40.0426
  0
LINE
  8
0
 10
17.8481
 20
40.0426
 11
17.812
 21
40.27
  0
LINE
  8
0
 10
17.812
 20
40.27
 11
17.8
 21
40.5
  0
LINE
  8
0
 10
17.8
 20
40.5
 11
17.8
 21
46.5
  0
LINE
  8
0
 10
17.8
 20
46.5
 11
17.812
 21
46.7299
  0
LINE
  8
0
 10
17.812
 20
46.7299
 11
17.8481
 21
46.9574
  0
LINE
  8
0
 10
17.8481
 20
46.9574
 11
17.9077
 21
47.1798
  0
LINE
  8
0
 10
17.9077
 20
47.1798
 11
17.9902
 21
47.3948
  0
LINE
  8
0
 10
17.9902
 20
47.3948
 11
18.0947
 21
47.6
  0
LINE
  8
0
 10
18.0947
 20
47.6
 11
18.2202
 21
47.7931
  0
LINE
  8
0
 10
18.2202
 20
47.7931
 11
18.3651
 21
47.9721
  0
LINE
  8
0
 10
18.3651
 20
47.9721
 11
18.5279
 21
48.1349
  0
LINE
  8
0
 10
18.5279
 20
48.1349
 11
18.7069
 21
48.2798
  0
LINE
  8
0
 10
18.7069
 20
48.2798
 11
18.9
 21
48.4052
  0
LINE
  8
0
 10
18.9
 20
48.4052
 11
19.1052
 21
48.5098
  0
LINE
  8
0
 10
19.1052
 20
48.5098
 11
19.3202
 21
48.5923
  0
LINE
  8
0
 10
19.3202
 20
48.5923
 11
19.5426
 21
48.6519
  0
LINE
  8
0
 10
19.5426
 20
48.6519
 11
19.77
 21
48.6879
  0
LINE
  8
0
 10
19.77
 20
48.6879
 11
20
 21
48.7
  0
LINE
  8
0
 10
20
 20
48.7
 11
20.2299
 21
48.6879
  0
LINE
  8
0
 10
20.2299
 20
48.6879
 11
20.4574
 21
48.6519
  0
LINE
  8
0
 10
20.4574
 20
48.6519
 11
20.6798
 21
48.5923
  0
LINE
  8
0
 10
20.6798
 20
48.5923
 11
20.8948
 21
48.5098
  0
LINE
  8
0
 10
20.8948
 20
48.5098
 11
21.1
 21
48.4052
  0
LINE
  8
0
 10
21.1
 20
48.4052
 11
21.2931
 21
48.2798
  0
LINE
  8
0
 10
21.2931
 20
48.2798
 11
21.4721
 21
48.1349
  0
LINE
  8
0
 10
21.4721
 20
48.1349
 11
21.6349
 21
47.9721
  0
LINE
  8
0
 10
21.6349
 20
47.9721
 11
21.7798
 21
47.7931
  0
LINE
  8
0
 10
21.7798
 20
47.7931
 11
21.9052
 21
47.6
  0
LINE
  8
0
 10
21.9052
 20
47.6
 11
22.0098
 21
47.3948
  0
LINE
  8
0
 10
22.0098
 20
47.3948
 11
22.0923
 21
47.1798
  0
LINE
  8
0
 10
22.0923
 20
47.1798
 11
22.1519
 21
46.9574
  0
LINE
  8
0
 10
22.1519
 20
46.9574
 11
22.1879
 21
46.7299
  0
LINE
  8
0
 10
22.1879
 20
46.7299
 11
22.2
 21
46.5
  0
LINE
  8
0
 10
22.2
 20
46.5
 11
22.2
 21
40.5
  0
LINE
  8
0
 10
22.2
 20
40.5
 11
22.1879
 21
40.27
  0
LINE
  8
0
 10
22.1879
 20
40.27
 11
22.1519
 21
40.0426
  0
LINE
  8
0
 10
22.1519
 20
40.0426
 11
22.0923
 21
39.8202
  0
LINE
  8
0
 10
22.0923
 20
39.8202
 11
22.0098
 21
39.6052
  0
LINE
  8
0
 10
22.0098
 20
39.6052
 11
21.9052
 21
39.4
  0
LINE
  8
0
 10
21.9052
 20
39.4
 11
21.7798
 21
39.2069
  0
LINE
  8
0
 10
21.7798
 20
39.2069
 11
21.6349
 21
39.0279
  0
LINE
  8
0
 10
21.6349
 20
39.0279
 11
21.4721
 21
38.8651
  0
LINE
  8
0
 10
21.4721
 20
38.8651
 11
21.2931
 21
38.7202
  0
LINE
  8
0
 10
21.2931
 20
38.7202
 11
21.1
 21
38.5947
  0
LINE
  8
0
 10
21.1
 20
38.5947
 11
20.8948
 21
38.4902
  0
LINE
  8
0
 10
20.8948
 20
38.4902
 11
20.6798
 21
38.4077
  0
LINE
  8
0
 10
20.6798
 20
38.4077
 11
20.4574
 21
38.3481
  0
LINE
  8
0
 10
20.4574
 20
38.3481
 11
20.2299
 21
38.312
  0
LINE
  8
0
 10
20.2299
 20
38.312
 11
20
 21
38.3
  0
LINE
  8
0
 10
20
 20
38.3
 11
19.77
 21
38.312
  0
LINE
  8
0
 10
19.77
 20
7.31204
 11
19.5426
 21
7.34807
  0
LINE
  8
0
 10
19.5426
 20
7.34807
 11
19.3202
 21
7.40767
  0
LINE
  8
0
 10
19.3202
 20
7.40767
 11
19.1052
 21
7.49019
  0
LINE
  8
0
 10
19.1052
 20
7.49019
 11
18.9
 21
7.59474
  0
LINE
  8
0
 10
18.9
 20
7.59474
 11
18.7069
 21
7.72015
  0
LINE
  8
0
 10
18.7069
 20
7.72015
 11
18.5279
 21
7.86507
  0
LINE
  8
0
 10
18.5279
 20
7.86507
 11
18.3651
 21
8.02791
  0
LINE
  8
0
 10
18.3651
 20
8.02791
 11
18.2202
 21
8.20686
  0
LINE
  8
0
 10
18.2202
 20
8.20686
 11
18.0947
 21
8.39999
  0
LINE
  8
0
 10
18.0947
 20
8.39999
 11
17.9902
 21
8.60518
  0
LINE
  8
0
 10
17.9902
 20
8.60518
 11
17.9077
 21
8.82016
  0
LINE
  8
0
 10
17.9077
 20
8.82016
 11
17.8481
 21
9.04259
  0
LINE
  8
0
 10
17.8481
 20
9.04259
 11
17.812
 21
9.27003
  0
LINE
  8
0
 10
17.812
 20
9.27003
 11
17.8
 21
9.5
  0
LINE
  8
0
 10
17.8
 20
9.5
 11
17.8
 21
15.5
  0
LINE
  8
0
 10
17.8
 20
15.5
 11
17.812
 21
15.7299
  0
LINE
  8
0
 10
17.812
 20
15.7299
 11
17.8481
 21
15.9574
  0
LINE
  8
0
 10
17.8481
 20
15.9574
 11
17.9077
 21
16.1798
  0
LINE
  8
0
 10
17.9077
 20
16.1798
 11
17.9902
 21
16.3948
  0
LINE
  8
0
 10
17.9902
 20
16.3948
 11
18.0947
 21
16.6
  0
LINE
  8
0
 10
18.0947
 20
16.6
 11
18.2202
 21
16.7931
  0
LINE
  8
0
 10
18.2202
 20
16.7931
 11
18.3651
 21
16.9721
  0
LINE
  8
0
 10
18.3651
 20
16.9721
 11
18.5279
 21
17.1349
  0
LINE
  8
0
 10
18.5279
 20
17.1349
 11
18.7069
 21
17.2798
  0
LINE
  8
0
 10
18.7069
 20
17.2798
 11
18.9
 21
17.4052
  0
LINE
  8
0
 10
18.9
 20
17.4052
 11
19.1052
 21
17.5098
  0
LINE
  8
0
 10
19.1052
 20
17.5098
 11
19.3202
 21
17.5923
  0
LINE
  8
0
 10
19.3202
 20
17.5923
 11
19.5426
 21
17.6519
  0
LINE
  8
0
 10
19.5426
 20
17.6519
 11
19.77
 21
17.6879
  0
LINE
  8
0
 10
19.77
 20
17.6879
 11
20
 21
17.7
  0
LINE
  8
0
 10
20
 20
17.7
 11
20.2299
 21
17.6879
  0
LINE
  8
0
 10
20.2299
 20
17.6879
 11
20.4574
 21
17.6519
  0
LINE
  8
0
 10
20.4574
 20
17.6519
 11
20.6798
 21
17.5923
  0
LINE
  8
0
 10
20.6798
 20
17.5923
 11
20.8948
 21
17.5098
  0
LINE
  8
0
 10
20.8948
 20
17.5098
 11
21.1
 21
17.4052
  0
LINE
  8
0
 10
21.1
 20
17.4052
 11
21.2931
 21
17.2798
  0
LINE
  8
0
 10
21.2931
 20
17.2798
 11
21.4721
 21
17.1349
  0
LINE
  8
0
 10
21.4721
 20
17.1349
 11
21.6349
 21
16.9721
  0
LINE
  8
0
 10
21.6349
 20
16.9721
 11
21.7798
 21
16.7931
  0
LINE
  8
0
 10
21.7798
 20
16.7931
 11
21.9052
 21
16.6
  0
LINE
  8
0
 10
21.9052
 20
16.6
 11
22.0098
 21
16.3948
  0
LINE
  8
0
 10
22.0098
 20
16.3948
 11
22.0923
 21
16.1798
  0
LINE
  8
0
 10
22.0923
 20
16.1798
 11
22.1519
 21
15.9574
  0
LINE
  8
0
 10
22.1519
 20
15.9574
 11
22.1879
 21
15.7299
  0
LINE
  8
0
 10
22.1879
 20
15.7299
 11
22.2
 21
15.5
  0
LINE
  8
0
 10
22.2
 20
15.5
 11
22.2
 21
9.5
  0
LINE
  8
0
 10
22.2
 20
9.5
 11
22.1879
 21
9.27003
  0
LINE
  8
0
 10
22.1879
 20
9.27003
 11
22.1519
 21
9.04259
  0
LINE
  8
0
 10
22.1519
 20
9.04259
 11
22.0923
 21
8.82016
  0
LINE
  8
0
 10
22.0923
 20
8.82016
 11
22.0098
 21
8.60518
  0
LINE
  8
0
 10
22.0098
 20
8.60518
 11
21.9052
 21
8.39999
  0
LINE
  8
0
 10
21.9052
 20
8.39999
 11
21.7798
 21
8.20686
  0
LINE
  8
0
 10
21.7798
 20
8.20686
 11
21.6349
 21
8.02791
  0
LINE
  8
0
 10
21.6349
 20
8.02791
 11
21.4721
 21
7.86507
  0
LINE
  8
0
 10
21.4721
 20
7.86507
 11
21.2931
 21
7.72015
  0
LINE
  8
0
 10
21.2931
 20
7.72015
 11
21.1
 21
7.59474
  0
LINE
  8
0
 10
21.1
 20
7.59474
 11
20.8948
 21
7.49019
  0
LINE
  8
0
 10
20.8948
 20
7.49019
 11
20.6798
 21
7.40767
  0
LINE
  8
0
 10
20.6798
 20
7.40767
 11
20.4574
 21
7.34807
  0
LINE
  8
0
 10
20.4574
 20
7.34807
 11
20.2299
 21
7.31204
  0
LINE
  8
0
 10
20.2299
 20
7.31204
 11
20
 21
7.29999
  0
LINE
  8
0
 10
20
 20
7.29999
 11
19.77
 21
7.31204
  0
LINE
  8
0
 10
50.77
 20
7.31204
 11
50.5426
 21
7.34807
  0
LINE
  8
0
 10
50.5426
 20
7.34807
 11
50.3202
 21
7.40767
  0
LINE
  8
0
 10
50.3202
 20
7.40767
 11
50.1052
 21
7.49019
  0
LINE
  8
0
 10
50.1052
 20
7.49019
 11
49.9
 21
7.59474
  0
LINE
  8
0
 10
49.9
 20
7.59474
 11
49.7069
 21
7.72015
  0
LINE
  8
0
 10
49.7069
 20
7.72015
 11
49.5279
 21
7.86507
  0
LINE
  8
0
 10
49.5279
 20
7.86507
 11
49.3651
 21
8.02791
  0
LINE
  8
0
 10
49.3651
 20
8.02791
 11
49.2202
 21
8.20686
  0
LINE
  8
0
 10
49.2202
 20
8.20686
 11
49.0947
 21
8.39999
  0
LINE
  8
0
 10
49.0947
 20
8.39999
 11
48.9902
 21
8.60518
  0
LINE
  8
0
 10
48.9902
 20
8.60518
 11
48.9077
 21
8.82016
  0
LINE
  8
0
 10
48.9077
 20
8.82016
 11
48.8481
 21
9.04259
  0
LINE
  8
0
 10
48.8481
 20
9.04259
 11
48.812
 21
9.27003
  0
LINE
  8
0
 10
48.812
 20
9.27003
 11
48.8
 21
9.5
  0
LINE
  8
0
 10
48.8
 20
9.5
 11
48.8
 21
15.5
  0
LINE
  8
0
 10
48.8
 20
15.5
 11
48.812
 21
15.7299
  0
LINE
  8
0
 10
48.812
 20
15.7299
 11
48.8481
 21
15.9574
  0
LINE
  8
0
 10
48.8481
 20
15.9574
 11
48.9077
 21
16.1798
  0
LINE
  8
0
 10
48.9077
 20
16.1798
 11
48.9902
 21
16.3948
  0
LINE
  8
0
 10
48.9902
 20
16.3948
 11
49.0947
 21
16.6
  0
LINE
  8
0
 10
49.0947
 20
16.6
 11
49.2202
 21
16.7931
  0
LINE
  8
0
 10
49.2202
 20
16.7931
 11
49.3651
 21
16.9721
  0
LINE
  8
0
 10
49.3651
 20
16.9721
 11
49.5279
 21
17.1349
  0
LINE
  8
0
 10
49.5279
 20
17.1349
 11
49.7069
 21
17.2798
  0
LINE
  8
0
 10
49.7069
 20
17.2798
 11
49.9
 21
17.4052
  0
LINE
  8
0
 10
49.9
 20
17.4052
 11
50.1052
 21
17.5098
  0
LINE
  8
0
 10
50.1052
 20
17.5098
 11
50.3202
 21
17.5923
  0
LINE
  8
0
 10
50.3202
 20
17.5923
 11
50.5426
 21
17.6519
  0
LINE
  8
0
 10
50.5426
 20
17.6519
 11
50.77
 21
17.6879
  0
LINE
  8
0
 10
50.77
 20
17.6879
 11
51
 21
17.7
  0
LINE
  8
0
 10
51
 20
17.7
 11
51.2299
 21
17.6879
  0
LINE
  8
0
 10
51.2299
 20
17.6879
 11
51.4574
 21
17.6519
  0
LINE
  8
0
 10
51.4574
 20
17.6519
 11
51.6798
 21
17.5923
  0
LINE
  8
0
 10
51.6798
 20
17.5923
 11
51.8948
 21
17.5098
  0
LINE
  8
0
 10
51.8948
 20
17.5098
 11
52.1
 21
17.4052
  0
LINE
  8
0
 10
52.1
 20
17.4052
 11
52.2931
 21
17.2798
  0
LINE
  8
0
 10
52.2931
 20
17.2798
 11
52.4721
 21
17.1349
  0
LINE
  8
0
 10
52.4721
 20
17.1349
 11
52.6349
 21
16.9721
  0
LINE
  8
0
 10
52.6349
 20
16.9721
 11
52.7798
 21
16.7931
  0
LINE
  8
0
 10
52.7798
 20
16.7931
 11
52.9052
 21
16.6
  0
LINE
  8
0
 10
52.9052
 20
16.6
 11
53.0098
 21
16.3948
  0
LINE
  8
0
 10
53.0098
 20
16.3948
 11
53.0923
 21
16.1798
  0
LINE
  8
0
 10
53.0923
 20
16.1798
 11
53.1519
 21
15.9574
  0
LINE
  8
0
 10
53.1519
 20
15.9574
 11
53.1879
 21
15.7299
  0
LINE
  8
0
 10
53.1879
 20
15.7299
 11
53.2
 21
15.5
  0
LINE
  8
0
 10
53.2
 20
15.5
 11
53.2
 21
9.5
  0
LINE
  8
0
 10
53.2
 20
9.5
 11
53.1879
 21
9.27003
  0
LINE
  8
0
 10
53.1879
 20
9.27003
 11
53.1519
 21
9.04259
  0
LINE
  8
0
 10
53.1519
 20
9.04259
 11
53.0923
 21
8.82016
  0
LINE
  8
0
 10
53.0923
 20
8.82016
 11
53.0098
 21
8.60518
  0
LINE
  8
0
 10
53.0098
 20
8.60518
 11
52.9052
 21
8.39999
  0
LINE
  8
0
 10
52.9052
 20
8.39999
 11
52.7798
 21
8.20686
  0
LINE
  8
0
 10
52.7798
 20
8.20686
 11
52.6349
 21
8.02791
  0
LINE
  8
0
 10
52.6349
 20
8.02791
 11
52.4721
 21
7.86507
  0
LINE
  8
0
 10
52.4721
 20
7.86507
 11
52.2931
 21
7.72015
  0
LINE
  8
0
 10
52.2931
 20
7.72015
 11
52.1
 21
7.59474
  0
LINE
  8
0
 10
52.1
 20
7.59474
 11
51.8948
 21
7.49019
  0
LINE
  8
0
 10
51.8948
 20
7.49019
 11
51.6798
 21
7.40767
  0
LINE
  8
0
 10
51.6798
 20
7.40767
 11
51.4574
 21
7.34807
  0
LINE
  8
0
 10
51.4574
 20
7.34807
 11
51.2299
 21
7.31204
  0
LINE
  8
0
 10
51.2299
 20
7.31204
 11
51
 21
7.29999
  0
LINE
  8
0
 10
51
 20
7.29999
 11
50.77
 21
7.31204
  0
ENDSEC
  0
SECTION
  2
OBJECTS
  0
DICTIONARY
  0
ENDSEC
  0
EOF
