  0
SECTION
  2
BLOCKS
  0
ENDSEC
  0
SECTION
  2
ENTITIES
  0
LINE
  8
0
 10
-46.3333
 20
3
 11
-35.5
 21
3
  0
LINE
  8
0
 10
-35.5
 20
3
 11
-35.5
 21
0
  0
LINE
  8
0
 10
-35.5
 20
0
 11
-24.6667
 21
0
  0
LINE
  8
0
 10
-24.6667
 20
0
 11
-24.6667
 21
3
  0
LINE
  8
0
 10
-24.6667
 20
3
 11
-13.8333
 21
3
  0
LINE
  8
0
 10
-13.8333
 20
3
 11
-13.8333
 21
0
  0
LINE
  8
0
 10
-13.8333
 20
0
 11
-3
 21
0
  0
LINE
  8
0
 10
-3
 20
0
 11
-3
 21
3.09999
  0
LINE
  8
0
 10
-3
 20
3.09999
 11
0.0999908
 21
3.09999
  0
LINE
  8
0
 10
0.0999908
 20
3.09999
 11
0.0999908
 21
14.825
  0
LINE
  8
0
 10
0.0999908
 20
14.825
 11
-3
 21
14.825
  0
LINE
  8
0
 10
-3
 20
14.825
 11
-3
 21
26.55
  0
LINE
  8
0
 10
-3
 20
26.55
 11
0.0999908
 21
26.55
  0
LINE
  8
0
 10
0.0999908
 20
26.55
 11
0.0999908
 21
38.275
  0
LINE
  8
0
 10
0.0999908
 20
38.275
 11
-3
 21
38.275
  0
LINE
  8
0
 10
-3
 20
38.275
 11
-3
 21
50
  0
LINE
  8
0
 10
-3
 20
50
 11
0.0999908
 21
50
  0
LINE
  8
0
 10
0.0999908
 20
50
 11
0.0999908
 21
61.725
  0
LINE
  8
0
 10
0.0999908
 20
61.725
 11
-3
 21
61.725
  0
LINE
  8
0
 10
-3
 20
61.725
 11
-3
 21
73.45
  0
LINE
  8
0
 10
-3
 20
73.45
 11
0.0999908
 21
73.45
  0
LINE
  8
0
 10
0.0999908
 20
73.45
 11
0.0999908
 21
85.175
  0
LINE
  8
0
 10
0.0999908
 20
85.175
 11
-3
 21
85.175
  0
LINE
  8
0
 10
-3
 20
85.175
 11
-3
 21
97
  0
LINE
  8
0
 10
-3
 20
97
 11
-13.8333
 21
97
  0
LINE
  8
0
 10
-13.8333
 20
97
 11
-13.8333
 21
100
  0
LINE
  8
0
 10
-13.8333
 20
100
 11
-24.6667
 21
100
  0
LINE
  8
0
 10
-24.6667
 20
100
 11
-24.6667
 21
97
  0
LINE
  8
0
 10
-24.6667
 20
97
 11
-35.5
 21
97
  0
LINE
  8
0
 10
-35.5
 20
97
 11
-35.5
 21
100
  0
LINE
  8
0
 10
-35.5
 20
100
 11
-46.3333
 21
100
  0
LINE
  8
0
 10
-46.3333
 20
100
 11
-46.3333
 21
97
  0
LINE
  8
0
 10
-46.3333
 20
97
 11
-57.1667
 21
97
  0
LINE
  8
0
 10
-57.1667
 20
97
 11
-57.1667
 21
100
  0
LINE
  8
0
 10
-57.1667
 20
100
 11
-68
 21
100
  0
LINE
  8
0
 10
-68
 20
100
 11
-68
 21
96.9
  0
LINE
  8
0
 10
-68
 20
96.9
 11
-71
 21
96.9
  0
LINE
  8
0
 10
-71
 20
96.9
 11
-71
 21
85.175
  0
LINE
  8
0
 10
-71
 20
85.175
 11
-68
 21
85.175
  0
LINE
  8
0
 10
-68
 20
85.175
 11
-68
 21
73.45
  0
LINE
  8
0
 10
-68
 20
73.45
 11
-71
 21
73.45
  0
LINE
  8
0
 10
-71
 20
73.45
 11
-71
 21
61.725
  0
LINE
  8
0
 10
-71
 20
61.725
 11
-68
 21
61.725
  0
LINE
  8
0
 10
-68
 20
61.725
 11
-68
 21
50
  0
LINE
  8
0
 10
-68
 20
50
 11
-71
 21
50
  0
LINE
  8
0
 10
-71
 20
50
 11
-71
 21
38.275
  0
LINE
  8
0
 10
-71
 20
38.275
 11
-68
 21
38.275
  0
LINE
  8
0
 10
-68
 20
38.275
 11
-68
 21
26.55
  0
LINE
  8
0
 10
-68
 20
26.55
 11
-71
 21
26.55
  0
LINE
  8
0
 10
-71
 20
26.55
 11
-71
 21
14.825
  0
LINE
  8
0
 10
-71
 20
14.825
 11
-68
 21
14.825
  0
LINE
  8
0
 10
-68
 20
14.825
 11
-68
 21
3
  0
LINE
  8
0
 10
-68
 20
3
 11
-57.1667
 21
3
  0
LINE
  8
0
 10
-57.1667
 20
3
 11
-57.1667
 21
0
  0
LINE
  8
0
 10
-57.1667
 20
0
 11
-46.3333
 21
0
  0
LINE
  8
0
 10
-46.3333
 20
0
 11
-46.3333
 21
3
  0
LINE
  8
0
 10
-17.2294
 20
82.4356
 11
-17.9014
 21
82.542
  0
LINE
  8
0
 10
-17.9014
 20
82.542
 11
-18.5586
 21
82.7181
  0
LINE
  8
0
 10
-18.5586
 20
82.7181
 11
-19.1938
 21
82.9619
  0
LINE
  8
0
 10
-19.1938
 20
82.9619
 11
-19.8
 21
83.2708
  0
LINE
  8
0
 10
-19.8
 20
83.2708
 11
-20.3706
 21
83.6414
  0
LINE
  8
0
 10
-20.3706
 20
83.6414
 11
-20.8993
 21
84.0695
  0
LINE
  8
0
 10
-20.8993
 20
84.0695
 11
-21.3804
 21
84.5506
  0
LINE
  8
0
 10
-21.3804
 20
84.5506
 11
-21.8086
 21
85.0794
  0
LINE
  8
0
 10
-21.8086
 20
85.0794
 11
-22.1792
 21
85.65
  0
LINE
  8
0
 10
-22.1792
 20
85.65
 11
-22.488
 21
86.2562
  0
LINE
  8
0
 10
-22.488
 20
86.2562
 11
-22.7319
 21
86.8914
  0
LINE
  8
0
 10
-22.7319
 20
86.8914
 11
-22.908
 21
87.5486
  0
LINE
  8
0
 10
-22.908
 20
87.5486
 11
-23.0144
 21
88.2206
  0
LINE
  8
0
 10
-23.0144
 20
88.2206
 11
-23.05
 21
88.9
  0
LINE
  8
0
 10
-23.05
 20
88.9
 11
-23.0144
 21
89.5794
  0
LINE
  8
0
 10
-23.0144
 20
89.5794
 11
-22.908
 21
90.2514
  0
LINE
  8
0
 10
-22.908
 20
90.2514
 11
-22.7319
 21
90.9086
  0
LINE
  8
0
 10
-22.7319
 20
90.9086
 11
-22.488
 21
91.5438
  0
LINE
  8
0
 10
-22.488
 20
91.5438
 11
-22.1792
 21
92.15
  0
LINE
  8
0
 10
-22.1792
 20
92.15
 11
-21.8086
 21
92.7206
  0
LINE
  8
0
 10
-21.8086
 20
92.7206
 11
-21.3804
 21
93.2493
  0
LINE
  8
0
 10
-21.3804
 20
93.2493
 11
-20.8993
 21
93.7304
  0
LINE
  8
0
 10
-20.8993
 20
93.7304
 11
-20.3706
 21
94.1586
  0
LINE
  8
0
 10
-20.3706
 20
94.1586
 11
-19.8
 21
94.5292
  0
LINE
  8
0
 10
-19.8
 20
94.5292
 11
-19.1938
 21
94.838
  0
LINE
  8
0
 10
-19.1938
 20
94.838
 11
-18.5586
 21
95.0819
  0
LINE
  8
0
 10
-18.5586
 20
95.0819
 11
-17.9014
 21
95.2579
  0
LINE
  8
0
 10
-17.9014
 20
95.2579
 11
-17.2294
 21
95.3644
  0
LINE
  8
0
 10
-17.2294
 20
95.3644
 11
-16.55
 21
95.4
  0
LINE
  8
0
 10
-16.55
 20
95.4
 11
-15.8706
 21
95.3644
  0
LINE
  8
0
 10
-15.8706
 20
95.3644
 11
-15.1986
 21
95.2579
  0
LINE
  8
0
 10
-15.1986
 20
95.2579
 11
-14.5414
 21
95.0819
  0
LINE
  8
0
 10
-14.5414
 20
95.0819
 11
-13.9062
 21
94.838
  0
LINE
  8
0
 10
-13.9062
 20
94.838
 11
-13.3
 21
94.5292
  0
LINE
  8
0
 10
-13.3
 20
94.5292
 11
-12.7294
 21
94.1586
  0
LINE
  8
0
 10
-12.7294
 20
94.1586
 11
-12.2006
 21
93.7304
  0
LINE
  8
0
 10
-12.2006
 20
93.7304
 11
-11.7195
 21
93.2493
  0
LINE
  8
0
 10
-11.7195
 20
93.2493
 11
-11.2914
 21
92.7206
  0
LINE
  8
0
 10
-11.2914
 20
92.7206
 11
-10.9208
 21
92.15
  0
LINE
  8
0
 10
-10.9208
 20
92.15
 11
-10.612
 21
91.5438
  0
LINE
  8
0
 10
-10.612
 20
91.5438
 11
-10.3681
 21
90.9086
  0
LINE
  8
0
 10
-10.3681
 20
90.9086
 11
-10.192
 21
90.2514
  0
LINE
  8
0
 10
-10.192
 20
90.2514
 11
-10.0856
 21
89.5794
  0
LINE
  8
0
 10
-10.0856
 20
89.5794
 11
-10.05
 21
88.9
  0
LINE
  8
0
 10
-10.05
 20
88.9
 11
-10.0856
 21
88.2206
  0
LINE
  8
0
 10
-10.0856
 20
88.2206
 11
-10.192
 21
87.5486
  0
LINE
  8
0
 10
-10.192
 20
87.5486
 11
-10.3681
 21
86.8914
  0
LINE
  8
0
 10
-10.3681
 20
86.8914
 11
-10.612
 21
86.2562
  0
LINE
  8
0
 10
-10.612
 20
86.2562
 11
-10.9208
 21
85.65
  0
LINE
  8
0
 10
-10.9208
 20
85.65
 11
-11.2914
 21
85.0794
  0
LINE
  8
0
 10
-11.2914
 20
85.0794
 11
-11.7195
 21
84.5506
  0
LINE
  8
0
 10
-11.7195
 20
84.5506
 11
-12.2006
 21
84.0695
  0
LINE
  8
0
 10
-12.2006
 20
84.0695
 11
-12.7294
 21
83.6414
  0
LINE
  8
0
 10
-12.7294
 20
83.6414
 11
-13.3
 21
83.2708
  0
LINE
  8
0
 10
-13.3
 20
83.2708
 11
-13.9062
 21
82.9619
  0
LINE
  8
0
 10
-13.9062
 20
82.9619
 11
-14.5414
 21
82.7181
  0
LINE
  8
0
 10
-14.5414
 20
82.7181
 11
-15.1986
 21
82.542
  0
LINE
  8
0
 10
-15.1986
 20
82.542
 11
-15.8706
 21
82.4356
  0
LINE
  8
0
 10
-15.8706
 20
82.4356
 11
-16.55
 21
82.4
  0
LINE
  8
0
 10
-16.55
 20
82.4
 11
-17.2294
 21
82.4356
  0
LINE
  8
0
 10
-27.75
 20
59.9
 11
-27.75
 21
68.9
  0
LINE
  8
0
 10
-27.75
 20
68.9
 11
-21.75
 21
68.9
  0
LINE
  8
0
 10
-21.75
 20
68.9
 11
-21.75
 21
59.9
  0
LINE
  8
0
 10
-21.75
 20
59.9
 11
-27.75
 21
59.9
  0
LINE
  8
0
 10
-17.2294
 20
33.4356
 11
-17.9014
 21
33.542
  0
LINE
  8
0
 10
-17.9014
 20
33.542
 11
-18.5586
 21
33.7181
  0
LINE
  8
0
 10
-18.5586
 20
33.7181
 11
-19.1938
 21
33.9619
  0
LINE
  8
0
 10
-19.1938
 20
33.9619
 11
-19.8
 21
34.2708
  0
LINE
  8
0
 10
-19.8
 20
34.2708
 11
-20.3706
 21
34.6414
  0
LINE
  8
0
 10
-20.3706
 20
34.6414
 11
-20.8993
 21
35.0695
  0
LINE
  8
0
 10
-20.8993
 20
35.0695
 11
-21.3804
 21
35.5506
  0
LINE
  8
0
 10
-21.3804
 20
35.5506
 11
-21.8086
 21
36.0794
  0
LINE
  8
0
 10
-21.8086
 20
36.0794
 11
-22.1792
 21
36.65
  0
LINE
  8
0
 10
-22.1792
 20
36.65
 11
-22.488
 21
37.2562
  0
LINE
  8
0
 10
-22.488
 20
37.2562
 11
-22.7319
 21
37.8914
  0
LINE
  8
0
 10
-22.7319
 20
37.8914
 11
-22.908
 21
38.5486
  0
LINE
  8
0
 10
-22.908
 20
38.5486
 11
-23.0144
 21
39.2206
  0
LINE
  8
0
 10
-23.0144
 20
39.2206
 11
-23.05
 21
39.9
  0
LINE
  8
0
 10
-23.05
 20
39.9
 11
-23.0144
 21
40.5794
  0
LINE
  8
0
 10
-23.0144
 20
40.5794
 11
-22.908
 21
41.2514
  0
LINE
  8
0
 10
-22.908
 20
41.2514
 11
-22.7319
 21
41.9086
  0
LINE
  8
0
 10
-22.7319
 20
41.9086
 11
-22.488
 21
42.5438
  0
LINE
  8
0
 10
-22.488
 20
42.5438
 11
-22.1792
 21
43.15
  0
LINE
  8
0
 10
-22.1792
 20
43.15
 11
-21.8086
 21
43.7206
  0
LINE
  8
0
 10
-21.8086
 20
43.7206
 11
-21.3804
 21
44.2493
  0
LINE
  8
0
 10
-21.3804
 20
44.2493
 11
-20.8993
 21
44.7304
  0
LINE
  8
0
 10
-20.8993
 20
44.7304
 11
-20.3706
 21
45.1586
  0
LINE
  8
0
 10
-20.3706
 20
45.1586
 11
-19.8
 21
45.5292
  0
LINE
  8
0
 10
-19.8
 20
45.5292
 11
-19.1938
 21
45.838
  0
LINE
  8
0
 10
-19.1938
 20
45.838
 11
-18.5586
 21
46.0819
  0
LINE
  8
0
 10
-18.5586
 20
46.0819
 11
-17.9014
 21
46.2579
  0
LINE
  8
0
 10
-17.9014
 20
46.2579
 11
-17.2294
 21
46.3644
  0
LINE
  8
0
 10
-17.2294
 20
46.3644
 11
-16.55
 21
46.4
  0
LINE
  8
0
 10
-16.55
 20
46.4
 11
-15.8706
 21
46.3644
  0
LINE
  8
0
 10
-15.8706
 20
46.3644
 11
-15.1986
 21
46.2579
  0
LINE
  8
0
 10
-15.1986
 20
46.2579
 11
-14.5414
 21
46.0819
  0
LINE
  8
0
 10
-14.5414
 20
46.0819
 11
-13.9062
 21
45.838
  0
LINE
  8
0
 10
-13.9062
 20
45.838
 11
-13.3
 21
45.5292
  0
LINE
  8
0
 10
-13.3
 20
45.5292
 11
-12.7294
 21
45.1586
  0
LINE
  8
0
 10
-12.7294
 20
45.1586
 11
-12.2006
 21
44.7304
  0
LINE
  8
0
 10
-12.2006
 20
44.7304
 11
-11.7195
 21
44.2493
  0
LINE
  8
0
 10
-11.7195
 20
44.2493
 11
-11.2914
 21
43.7206
  0
LINE
  8
0
 10
-11.2914
 20
43.7206
 11
-10.9208
 21
43.15
  0
LINE
  8
0
 10
-10.9208
 20
43.15
 11
-10.612
 21
42.5438
  0
LINE
  8
0
 10
-10.612
 20
42.5438
 11
-10.3681
 21
41.9086
  0
LINE
  8
0
 10
-10.3681
 20
41.9086
 11
-10.192
 21
41.2514
  0
LINE
  8
0
 10
-10.192
 20
41.2514
 11
-10.0856
 21
40.5794
  0
LINE
  8
0
 10
-10.0856
 20
40.5794
 11
-10.05
 21
39.9
  0
LINE
  8
0
 10
-10.05
 20
39.9
 11
-10.0856
 21
39.2206
  0
LINE
  8
0
 10
-10.0856
 20
39.2206
 11
-10.192
 21
38.5486
  0
LINE
  8
0
 10
-10.192
 20
38.5486
 11
-10.3681
 21
37.8914
  0
LINE
  8
0
 10
-10.3681
 20
37.8914
 11
-10.612
 21
37.2562
  0
LINE
  8
0
 10
-10.612
 20
37.2562
 11
-10.9208
 21
36.65
  0
LINE
  8
0
 10
-10.9208
 20
36.65
 11
-11.2914
 21
36.0794
  0
LINE
  8
0
 10
-11.2914
 20
36.0794
 11
-11.7195
 21
35.5506
  0
LINE
  8
0
 10
-11.7195
 20
35.5506
 11
-12.2006
 21
35.0695
  0
LINE
  8
0
 10
-12.2006
 20
35.0695
 11
-12.7294
 21
34.6414
  0
LINE
  8
0
 10
-12.7294
 20
34.6414
 11
-13.3
 21
34.2708
  0
LINE
  8
0
 10
-13.3
 20
34.2708
 11
-13.9062
 21
33.9619
  0
LINE
  8
0
 10
-13.9062
 20
33.9619
 11
-14.5414
 21
33.7181
  0
LINE
  8
0
 10
-14.5414
 20
33.7181
 11
-15.1986
 21
33.542
  0
LINE
  8
0
 10
-15.1986
 20
33.542
 11
-15.8706
 21
33.4356
  0
LINE
  8
0
 10
-15.8706
 20
33.4356
 11
-16.55
 21
33.4
  0
LINE
  8
0
 10
-16.55
 20
33.4
 11
-17.2294
 21
33.4356
  0
LINE
  8
0
 10
-29.1272
 20
11.0329
 11
-29.7475
 21
11.1311
  0
LINE
  8
0
 10
-29.7475
 20
11.1311
 11
-30.3541
 21
11.2937
  0
LINE
  8
0
 10
-30.3541
 20
11.2937
 11
-30.9404
 21
11.5187
  0
LINE
  8
0
 10
-30.9404
 20
11.5187
 11
-31.5
 21
11.8038
  0
LINE
  8
0
 10
-31.5
 20
11.8038
 11
-32.0267
 21
12.1459
  0
LINE
  8
0
 10
-32.0267
 20
12.1459
 11
-32.5148
 21
12.5411
  0
LINE
  8
0
 10
-32.5148
 20
12.5411
 11
-32.9589
 21
12.9852
  0
LINE
  8
0
 10
-32.9589
 20
12.9852
 11
-33.3541
 21
13.4733
  0
LINE
  8
0
 10
-33.3541
 20
13.4733
 11
-33.6962
 21
14
  0
LINE
  8
0
 10
-33.6962
 20
14
 11
-33.9813
 21
14.5596
  0
LINE
  8
0
 10
-33.9813
 20
14.5596
 11
-34.2063
 21
15.1459
  0
LINE
  8
0
 10
-34.2063
 20
15.1459
 11
-34.3689
 21
15.7525
  0
LINE
  8
0
 10
-34.3689
 20
15.7525
 11
-34.4671
 21
16.3728
  0
LINE
  8
0
 10
-34.4671
 20
16.3728
 11
-34.5
 21
17
  0
LINE
  8
0
 10
-34.5
 20
17
 11
-34.4671
 21
17.6272
  0
LINE
  8
0
 10
-34.4671
 20
17.6272
 11
-34.3689
 21
18.2475
  0
LINE
  8
0
 10
-34.3689
 20
18.2475
 11
-34.2063
 21
18.8541
  0
LINE
  8
0
 10
-34.2063
 20
18.8541
 11
-33.9813
 21
19.4404
  0
LINE
  8
0
 10
-33.9813
 20
19.4404
 11
-33.6962
 21
20
  0
LINE
  8
0
 10
-33.6962
 20
20
 11
-33.3541
 21
20.5267
  0
LINE
  8
0
 10
-33.3541
 20
20.5267
 11
-32.9589
 21
21.0148
  0
LINE
  8
0
 10
-32.9589
 20
21.0148
 11
-32.5148
 21
21.4589
  0
LINE
  8
0
 10
-32.5148
 20
21.4589
 11
-32.0267
 21
21.8541
  0
LINE
  8
0
 10
-32.0267
 20
21.8541
 11
-31.5
 21
22.1962
  0
LINE
  8
0
 10
-31.5
 20
22.1962
 11
-30.9404
 21
22.4813
  0
LINE
  8
0
 10
-30.9404
 20
22.4813
 11
-30.3541
 21
22.7063
  0
LINE
  8
0
 10
-30.3541
 20
22.7063
 11
-29.7475
 21
22.8689
  0
LINE
  8
0
 10
-29.7475
 20
22.8689
 11
-29.1272
 21
22.9671
  0
LINE
  8
0
 10
-29.1272
 20
22.9671
 11
-28.5
 21
23
  0
LINE
  8
0
 10
-28.5
 20
23
 11
-27.8728
 21
22.9671
  0
LINE
  8
0
 10
-27.8728
 20
22.9671
 11
-27.2525
 21
22.8689
  0
LINE
  8
0
 10
-27.2525
 20
22.8689
 11
-26.6459
 21
22.7063
  0
LINE
  8
0
 10
-26.6459
 20
22.7063
 11
-26.0596
 21
22.4813
  0
LINE
  8
0
 10
-26.0596
 20
22.4813
 11
-25.5
 21
22.1962
  0
LINE
  8
0
 10
-25.5
 20
22.1962
 11
-24.9733
 21
21.8541
  0
LINE
  8
0
 10
-24.9733
 20
21.8541
 11
-24.4852
 21
21.4589
  0
LINE
  8
0
 10
-24.4852
 20
21.4589
 11
-24.0411
 21
21.0148
  0
LINE
  8
0
 10
-24.0411
 20
21.0148
 11
-23.6459
 21
20.5267
  0
LINE
  8
0
 10
-23.6459
 20
20.5267
 11
-23.3038
 21
20
  0
LINE
  8
0
 10
-23.3038
 20
20
 11
-23.0187
 21
19.4404
  0
LINE
  8
0
 10
-23.0187
 20
19.4404
 11
-22.7937
 21
18.8541
  0
LINE
  8
0
 10
-22.7937
 20
18.8541
 11
-22.6311
 21
18.2475
  0
LINE
  8
0
 10
-22.6311
 20
18.2475
 11
-22.5329
 21
17.6272
  0
LINE
  8
0
 10
-22.5329
 20
17.6272
 11
-22.5
 21
17
  0
LINE
  8
0
 10
-22.5
 20
17
 11
-22.5329
 21
16.3728
  0
LINE
  8
0
 10
-22.5329
 20
16.3728
 11
-22.6311
 21
15.7525
  0
LINE
  8
0
 10
-22.6311
 20
15.7525
 11
-22.7937
 21
15.1459
  0
LINE
  8
0
 10
-22.7937
 20
15.1459
 11
-23.0187
 21
14.5596
  0
LINE
  8
0
 10
-23.0187
 20
14.5596
 11
-23.3038
 21
14
  0
LINE
  8
0
 10
-23.3038
 20
14
 11
-23.6459
 21
13.4733
  0
LINE
  8
0
 10
-23.6459
 20
13.4733
 11
-24.0411
 21
12.9852
  0
LINE
  8
0
 10
-24.0411
 20
12.9852
 11
-24.4852
 21
12.5411
  0
LINE
  8
0
 10
-24.4852
 20
12.5411
 11
-24.9733
 21
12.1459
  0
LINE
  8
0
 10
-24.9733
 20
12.1459
 11
-25.5
 21
11.8038
  0
LINE
  8
0
 10
-25.5
 20
11.8038
 11
-26.0596
 21
11.5187
  0
LINE
  8
0
 10
-26.0596
 20
11.5187
 11
-26.6459
 21
11.2937
  0
LINE
  8
0
 10
-26.6459
 20
11.2937
 11
-27.2525
 21
11.1311
  0
LINE
  8
0
 10
-27.2525
 20
11.1311
 11
-27.8728
 21
11.0329
  0
LINE
  8
0
 10
-27.8728
 20
11.0329
 11
-28.5
 21
11
  0
LINE
  8
0
 10
-28.5
 20
11
 11
-29.1272
 21
11.0329
  0
ENDSEC
  0
SECTION
  2
OBJECTS
  0
DICTIONARY
  0
ENDSEC
  0
EOF
