  0
SECTION
  2
BLOCKS
  0
ENDSEC
  0
SECTION
  2
ENTITIES
  0
LINE
  8
0
 10
22.4
 20
-68
 11
41.8
 21
-68
  0
LINE
  8
0
 10
41.8
 20
-68
 11
41.8
 21
-71
  0
LINE
  8
0
 10
41.8
 20
-71
 11
61.2
 21
-71
  0
LINE
  8
0
 10
61.2
 20
-71
 11
61.2
 21
-68
  0
LINE
  8
0
 10
61.2
 20
-68
 11
80.6
 21
-68
  0
LINE
  8
0
 10
80.6
 20
-68
 11
80.6
 21
-71
  0
LINE
  8
0
 10
80.6
 20
-71
 11
100
 21
-71
  0
LINE
  8
0
 10
100
 20
-71
 11
100
 21
-68
  0
LINE
  8
0
 10
100
 20
-68
 11
119.4
 21
-68
  0
LINE
  8
0
 10
119.4
 20
-68
 11
119.4
 21
-71
  0
LINE
  8
0
 10
119.4
 20
-71
 11
138.8
 21
-71
  0
LINE
  8
0
 10
138.8
 20
-71
 11
138.8
 21
-68
  0
LINE
  8
0
 10
138.8
 20
-68
 11
158.2
 21
-68
  0
LINE
  8
0
 10
158.2
 20
-68
 11
158.2
 21
-71
  0
LINE
  8
0
 10
158.2
 20
-71
 11
177.6
 21
-71
  0
LINE
  8
0
 10
177.6
 20
-71
 11
177.6
 21
-68
  0
LINE
  8
0
 10
177.6
 20
-68
 11
197
 21
-68
  0
LINE
  8
0
 10
197
 20
-68
 11
197
 21
-57.0667
  0
LINE
  8
0
 10
197
 20
-57.0667
 11
200
 21
-57.0667
  0
LINE
  8
0
 10
200
 20
-57.0667
 11
200
 21
-46.4333
  0
LINE
  8
0
 10
200
 20
-46.4333
 11
197
 21
-46.4333
  0
LINE
  8
0
 10
197
 20
-46.4333
 11
197
 21
-35.4
  0
LINE
  8
0
 10
197
 20
-35.4
 11
200
 21
-35.4
  0
LINE
  8
0
 10
200
 20
-35.4
 11
200
 21
-24.7667
  0
LINE
  8
0
 10
200
 20
-24.7667
 11
197
 21
-24.7667
  0
LINE
  8
0
 10
197
 20
-24.7667
 11
197
 21
-13.7333
  0
LINE
  8
0
 10
197
 20
-13.7333
 11
200
 21
-13.7333
  0
LINE
  8
0
 10
200
 20
-13.7333
 11
200
 21
-3
  0
LINE
  8
0
 10
200
 20
-3
 11
197
 21
-3
  0
LINE
  8
0
 10
197
 20
-3
 11
197
 21
0
  0
LINE
  8
0
 10
197
 20
0
 11
177.6
 21
0
  0
LINE
  8
0
 10
177.6
 20
0
 11
177.6
 21
-3
  0
LINE
  8
0
 10
177.6
 20
-3
 11
158.2
 21
-3
  0
LINE
  8
0
 10
158.2
 20
-3
 11
158.2
 21
0
  0
LINE
  8
0
 10
158.2
 20
0
 11
138.8
 21
0
  0
LINE
  8
0
 10
138.8
 20
0
 11
138.8
 21
-3
  0
LINE
  8
0
 10
138.8
 20
-3
 11
119.4
 21
-3
  0
LINE
  8
0
 10
119.4
 20
-3
 11
119.4
 21
0
  0
LINE
  8
0
 10
119.4
 20
0
 11
100
 21
0
  0
LINE
  8
0
 10
100
 20
0
 11
100
 21
-3
  0
LINE
  8
0
 10
100
 20
-3
 11
80.6
 21
-3
  0
LINE
  8
0
 10
80.6
 20
-3
 11
80.6
 21
0
  0
LINE
  8
0
 10
80.6
 20
0
 11
61.2
 21
0
  0
LINE
  8
0
 10
61.2
 20
0
 11
61.2
 21
-3
  0
LINE
  8
0
 10
61.2
 20
-3
 11
41.8
 21
-3
  0
LINE
  8
0
 10
41.8
 20
-3
 11
41.8
 21
0
  0
LINE
  8
0
 10
41.8
 20
0
 11
22.4
 21
0
  0
LINE
  8
0
 10
22.4
 20
0
 11
22.4
 21
-3
  0
LINE
  8
0
 10
22.4
 20
-3
 11
3
 21
-3
  0
LINE
  8
0
 10
3
 20
-3
 11
3
 21
-13.9333
  0
LINE
  8
0
 10
3
 20
-13.9333
 11
0
 21
-13.9333
  0
LINE
  8
0
 10
0
 20
-13.9333
 11
0
 21
-24.5667
  0
LINE
  8
0
 10
0
 20
-24.5667
 11
3
 21
-24.5667
  0
LINE
  8
0
 10
3
 20
-24.5667
 11
3
 21
-35.6
  0
LINE
  8
0
 10
3
 20
-35.6
 11
0
 21
-35.6
  0
LINE
  8
0
 10
0
 20
-35.6
 11
0
 21
-46.2333
  0
LINE
  8
0
 10
0
 20
-46.2333
 11
3
 21
-46.2333
  0
LINE
  8
0
 10
3
 20
-46.2333
 11
3
 21
-57.2667
  0
LINE
  8
0
 10
3
 20
-57.2667
 11
0
 21
-57.2667
  0
LINE
  8
0
 10
0
 20
-57.2667
 11
0
 21
-68
  0
LINE
  8
0
 10
0
 20
-68
 11
3
 21
-68
  0
LINE
  8
0
 10
3
 20
-68
 11
3
 21
-71
  0
LINE
  8
0
 10
3
 20
-71
 11
22.4
 21
-71
  0
LINE
  8
0
 10
22.4
 20
-71
 11
22.4
 21
-68
  0
LINE
  8
0
 10
122.5
 20
-21
 11
122.5
 21
-10
  0
LINE
  8
0
 10
122.5
 20
-10
 11
131.5
 21
-10
  0
LINE
  8
0
 10
131.5
 20
-10
 11
131.5
 21
-21
  0
LINE
  8
0
 10
131.5
 20
-21
 11
122.5
 21
-21
  0
LINE
  8
0
 10
42.3773
 20
-20.0726
 11
41.8604
 21
-19.9907
  0
LINE
  8
0
 10
41.8604
 20
-19.9907
 11
41.3549
 21
-19.8553
  0
LINE
  8
0
 10
41.3549
 20
-19.8553
 11
40.8663
 21
-19.6677
  0
LINE
  8
0
 10
40.8663
 20
-19.6677
 11
40.4
 21
-19.4301
  0
LINE
  8
0
 10
40.4
 20
-19.4301
 11
39.9611
 21
-19.1451
  0
LINE
  8
0
 10
39.9611
 20
-19.1451
 11
39.5543
 21
-18.8157
  0
LINE
  8
0
 10
39.5543
 20
-18.8157
 11
39.1843
 21
-18.4456
  0
LINE
  8
0
 10
39.1843
 20
-18.4456
 11
38.8549
 21
-18.0389
  0
LINE
  8
0
 10
38.8549
 20
-18.0389
 11
38.5699
 21
-17.6
  0
LINE
  8
0
 10
38.5699
 20
-17.6
 11
38.3323
 21
-17.1337
  0
LINE
  8
0
 10
38.3323
 20
-17.1337
 11
38.1447
 21
-16.6451
  0
LINE
  8
0
 10
38.1447
 20
-16.6451
 11
38.0093
 21
-16.1396
  0
LINE
  8
0
 10
38.0093
 20
-16.1396
 11
37.9274
 21
-15.6226
  0
LINE
  8
0
 10
37.9274
 20
-15.6226
 11
37.9
 21
-15.1
  0
LINE
  8
0
 10
37.9
 20
-15.1
 11
37.9274
 21
-14.5773
  0
LINE
  8
0
 10
37.9274
 20
-14.5773
 11
38.0093
 21
-14.0604
  0
LINE
  8
0
 10
38.0093
 20
-14.0604
 11
38.1447
 21
-13.5549
  0
LINE
  8
0
 10
38.1447
 20
-13.5549
 11
38.3323
 21
-13.0663
  0
LINE
  8
0
 10
38.3323
 20
-13.0663
 11
38.5699
 21
-12.6
  0
LINE
  8
0
 10
38.5699
 20
-12.6
 11
38.8549
 21
-12.1611
  0
LINE
  8
0
 10
38.8549
 20
-12.1611
 11
39.1843
 21
-11.7543
  0
LINE
  8
0
 10
39.1843
 20
-11.7543
 11
39.5543
 21
-11.3843
  0
LINE
  8
0
 10
39.5543
 20
-11.3843
 11
39.9611
 21
-11.0549
  0
LINE
  8
0
 10
39.9611
 20
-11.0549
 11
40.4
 21
-10.7699
  0
LINE
  8
0
 10
40.4
 20
-10.7699
 11
40.8663
 21
-10.5323
  0
LINE
  8
0
 10
40.8663
 20
-10.5323
 11
41.3549
 21
-10.3447
  0
LINE
  8
0
 10
41.3549
 20
-10.3447
 11
41.8604
 21
-10.2093
  0
LINE
  8
0
 10
41.8604
 20
-10.2093
 11
42.3773
 21
-10.1274
  0
LINE
  8
0
 10
42.3773
 20
-10.1274
 11
42.9
 21
-10.1
  0
LINE
  8
0
 10
42.9
 20
-10.1
 11
43.4226
 21
-10.1274
  0
LINE
  8
0
 10
43.4226
 20
-10.1274
 11
43.9396
 21
-10.2093
  0
LINE
  8
0
 10
43.9396
 20
-10.2093
 11
44.4451
 21
-10.3447
  0
LINE
  8
0
 10
44.4451
 20
-10.3447
 11
44.9337
 21
-10.5323
  0
LINE
  8
0
 10
44.9337
 20
-10.5323
 11
45.4
 21
-10.7699
  0
LINE
  8
0
 10
45.4
 20
-10.7699
 11
45.8389
 21
-11.0549
  0
LINE
  8
0
 10
45.8389
 20
-11.0549
 11
46.2457
 21
-11.3843
  0
LINE
  8
0
 10
46.2457
 20
-11.3843
 11
46.6157
 21
-11.7543
  0
LINE
  8
0
 10
46.6157
 20
-11.7543
 11
46.9451
 21
-12.1611
  0
LINE
  8
0
 10
46.9451
 20
-12.1611
 11
47.2301
 21
-12.6
  0
LINE
  8
0
 10
47.2301
 20
-12.6
 11
47.4677
 21
-13.0663
  0
LINE
  8
0
 10
47.4677
 20
-13.0663
 11
47.6553
 21
-13.5549
  0
LINE
  8
0
 10
47.6553
 20
-13.5549
 11
47.7907
 21
-14.0604
  0
LINE
  8
0
 10
47.7907
 20
-14.0604
 11
47.8726
 21
-14.5773
  0
LINE
  8
0
 10
47.8726
 20
-14.5773
 11
47.9
 21
-15.1
  0
LINE
  8
0
 10
47.9
 20
-15.1
 11
47.8726
 21
-15.6226
  0
LINE
  8
0
 10
47.8726
 20
-15.6226
 11
47.7907
 21
-16.1396
  0
LINE
  8
0
 10
47.7907
 20
-16.1396
 11
47.6553
 21
-16.6451
  0
LINE
  8
0
 10
47.6553
 20
-16.6451
 11
47.4677
 21
-17.1337
  0
LINE
  8
0
 10
47.4677
 20
-17.1337
 11
47.2301
 21
-17.6
  0
LINE
  8
0
 10
47.2301
 20
-17.6
 11
46.9451
 21
-18.0389
  0
LINE
  8
0
 10
46.9451
 20
-18.0389
 11
46.6157
 21
-18.4456
  0
LINE
  8
0
 10
46.6157
 20
-18.4456
 11
46.2457
 21
-18.8157
  0
LINE
  8
0
 10
46.2457
 20
-18.8157
 11
45.8389
 21
-19.1451
  0
LINE
  8
0
 10
45.8389
 20
-19.1451
 11
45.4
 21
-19.4301
  0
LINE
  8
0
 10
45.4
 20
-19.4301
 11
44.9337
 21
-19.6677
  0
LINE
  8
0
 10
44.9337
 20
-19.6677
 11
44.4451
 21
-19.8553
  0
LINE
  8
0
 10
44.4451
 20
-19.8553
 11
43.9396
 21
-19.9907
  0
LINE
  8
0
 10
43.9396
 20
-19.9907
 11
43.4226
 21
-20.0726
  0
LINE
  8
0
 10
43.4226
 20
-20.0726
 11
42.9
 21
-20.1
  0
LINE
  8
0
 10
42.9
 20
-20.1
 11
42.3773
 21
-20.0726
  0
LINE
  8
0
 10
125.902
 20
-50.4425
 11
124.817
 21
-50.2705
  0
LINE
  8
0
 10
124.817
 20
-50.2705
 11
123.755
 21
-49.9861
  0
LINE
  8
0
 10
123.755
 20
-49.9861
 11
122.729
 21
-49.5922
  0
LINE
  8
0
 10
122.729
 20
-49.5922
 11
121.75
 21
-49.0933
  0
LINE
  8
0
 10
121.75
 20
-49.0933
 11
120.828
 21
-48.4947
  0
LINE
  8
0
 10
120.828
 20
-48.4947
 11
119.974
 21
-47.803
  0
LINE
  8
0
 10
119.974
 20
-47.803
 11
119.197
 21
-47.0259
  0
LINE
  8
0
 10
119.197
 20
-47.0259
 11
118.505
 21
-46.1717
  0
LINE
  8
0
 10
118.505
 20
-46.1717
 11
117.907
 21
-45.25
  0
LINE
  8
0
 10
117.907
 20
-45.25
 11
117.408
 21
-44.2707
  0
LINE
  8
0
 10
117.408
 20
-44.2707
 11
117.014
 21
-43.2447
  0
LINE
  8
0
 10
117.014
 20
-43.2447
 11
116.729
 21
-42.1831
  0
LINE
  8
0
 10
116.729
 20
-42.1831
 11
116.558
 21
-41.0975
  0
LINE
  8
0
 10
116.558
 20
-41.0975
 11
116.5
 21
-40
  0
LINE
  8
0
 10
116.5
 20
-40
 11
116.558
 21
-38.9025
  0
LINE
  8
0
 10
116.558
 20
-38.9025
 11
116.729
 21
-37.8169
  0
LINE
  8
0
 10
116.729
 20
-37.8169
 11
117.014
 21
-36.7553
  0
LINE
  8
0
 10
117.014
 20
-36.7553
 11
117.408
 21
-35.7293
  0
LINE
  8
0
 10
117.408
 20
-35.7293
 11
117.907
 21
-34.75
  0
LINE
  8
0
 10
117.907
 20
-34.75
 11
118.505
 21
-33.8282
  0
LINE
  8
0
 10
118.505
 20
-33.8282
 11
119.197
 21
-32.9741
  0
LINE
  8
0
 10
119.197
 20
-32.9741
 11
119.974
 21
-32.197
  0
LINE
  8
0
 10
119.974
 20
-32.197
 11
120.828
 21
-31.5053
  0
LINE
  8
0
 10
120.828
 20
-31.5053
 11
121.75
 21
-30.9067
  0
LINE
  8
0
 10
121.75
 20
-30.9067
 11
122.729
 21
-30.4078
  0
LINE
  8
0
 10
122.729
 20
-30.4078
 11
123.755
 21
-30.0139
  0
LINE
  8
0
 10
123.755
 20
-30.0139
 11
124.817
 21
-29.7294
  0
LINE
  8
0
 10
124.817
 20
-29.7294
 11
125.902
 21
-29.5575
  0
LINE
  8
0
 10
125.902
 20
-29.5575
 11
127
 21
-29.5
  0
LINE
  8
0
 10
127
 20
-29.5
 11
128.098
 21
-29.5575
  0
LINE
  8
0
 10
128.098
 20
-29.5575
 11
129.183
 21
-29.7294
  0
LINE
  8
0
 10
129.183
 20
-29.7294
 11
130.245
 21
-30.0139
  0
LINE
  8
0
 10
130.245
 20
-30.0139
 11
131.271
 21
-30.4078
  0
LINE
  8
0
 10
131.271
 20
-30.4078
 11
132.25
 21
-30.9067
  0
LINE
  8
0
 10
132.25
 20
-30.9067
 11
133.172
 21
-31.5053
  0
LINE
  8
0
 10
133.172
 20
-31.5053
 11
134.026
 21
-32.197
  0
LINE
  8
0
 10
134.026
 20
-32.197
 11
134.803
 21
-32.9741
  0
LINE
  8
0
 10
134.803
 20
-32.9741
 11
135.495
 21
-33.8282
  0
LINE
  8
0
 10
135.495
 20
-33.8282
 11
136.093
 21
-34.75
  0
LINE
  8
0
 10
136.093
 20
-34.75
 11
136.592
 21
-35.7293
  0
LINE
  8
0
 10
136.592
 20
-35.7293
 11
136.986
 21
-36.7553
  0
LINE
  8
0
 10
136.986
 20
-36.7553
 11
137.271
 21
-37.8169
  0
LINE
  8
0
 10
137.271
 20
-37.8169
 11
137.442
 21
-38.9025
  0
LINE
  8
0
 10
137.442
 20
-38.9025
 11
137.5
 21
-40
  0
LINE
  8
0
 10
137.5
 20
-40
 11
137.442
 21
-41.0975
  0
LINE
  8
0
 10
137.442
 20
-41.0975
 11
137.271
 21
-42.1831
  0
LINE
  8
0
 10
137.271
 20
-42.1831
 11
136.986
 21
-43.2447
  0
LINE
  8
0
 10
136.986
 20
-43.2447
 11
136.592
 21
-44.2707
  0
LINE
  8
0
 10
136.592
 20
-44.2707
 11
136.093
 21
-45.25
  0
LINE
  8
0
 10
136.093
 20
-45.25
 11
135.495
 21
-46.1717
  0
LINE
  8
0
 10
135.495
 20
-46.1717
 11
134.803
 21
-47.0259
  0
LINE
  8
0
 10
134.803
 20
-47.0259
 11
134.026
 21
-47.803
  0
LINE
  8
0
 10
134.026
 20
-47.803
 11
133.172
 21
-48.4947
  0
LINE
  8
0
 10
133.172
 20
-48.4947
 11
132.25
 21
-49.0933
  0
LINE
  8
0
 10
132.25
 20
-49.0933
 11
131.271
 21
-49.5922
  0
LINE
  8
0
 10
131.271
 20
-49.5922
 11
130.245
 21
-49.9861
  0
LINE
  8
0
 10
130.245
 20
-49.9861
 11
129.183
 21
-50.2705
  0
LINE
  8
0
 10
129.183
 20
-50.2705
 11
128.098
 21
-50.4425
  0
LINE
  8
0
 10
128.098
 20
-50.4425
 11
127
 21
-50.5
  0
LINE
  8
0
 10
127
 20
-50.5
 11
125.902
 21
-50.4425
  0
ENDSEC
  0
SECTION
  2
OBJECTS
  0
DICTIONARY
  0
ENDSEC
  0
EOF
