  0
SECTION
  2
BLOCKS
  0
ENDSEC
  0
SECTION
  2
ENTITIES
  0
LINE
  8
0
 10
22.5
 20
3
 11
41.9
 21
3
  0
LINE
  8
0
 10
41.9
 20
3
 11
41.9
 21
0
  0
LINE
  8
0
 10
41.9
 20
0
 11
61.3
 21
0
  0
LINE
  8
0
 10
61.3
 20
0
 11
61.3
 21
3
  0
LINE
  8
0
 10
61.3
 20
3
 11
80.7
 21
3
  0
LINE
  8
0
 10
80.7
 20
3
 11
80.7
 21
0
  0
LINE
  8
0
 10
80.7
 20
0
 11
100.1
 21
0
  0
LINE
  8
0
 10
100.1
 20
0
 11
100.1
 21
3
  0
LINE
  8
0
 10
100.1
 20
3
 11
119.5
 21
3
  0
LINE
  8
0
 10
119.5
 20
3
 11
119.5
 21
0
  0
LINE
  8
0
 10
119.5
 20
0
 11
138.9
 21
0
  0
LINE
  8
0
 10
138.9
 20
0
 11
138.9
 21
3
  0
LINE
  8
0
 10
138.9
 20
3
 11
158.3
 21
3
  0
LINE
  8
0
 10
158.3
 20
3
 11
158.3
 21
0
  0
LINE
  8
0
 10
158.3
 20
0
 11
177.7
 21
0
  0
LINE
  8
0
 10
177.7
 20
0
 11
177.7
 21
3
  0
LINE
  8
0
 10
177.7
 20
3
 11
197
 21
3
  0
LINE
  8
0
 10
197
 20
3
 11
197
 21
13.9333
  0
LINE
  8
0
 10
197
 20
13.9333
 11
200
 21
13.9333
  0
LINE
  8
0
 10
200
 20
13.9333
 11
200
 21
24.5667
  0
LINE
  8
0
 10
200
 20
24.5667
 11
197
 21
24.5667
  0
LINE
  8
0
 10
197
 20
24.5667
 11
197
 21
35.6
  0
LINE
  8
0
 10
197
 20
35.6
 11
200
 21
35.6
  0
LINE
  8
0
 10
200
 20
35.6
 11
200
 21
46.2333
  0
LINE
  8
0
 10
200
 20
46.2333
 11
197
 21
46.2333
  0
LINE
  8
0
 10
197
 20
46.2333
 11
197
 21
57.2667
  0
LINE
  8
0
 10
197
 20
57.2667
 11
200
 21
57.2667
  0
LINE
  8
0
 10
200
 20
57.2667
 11
200
 21
68
  0
LINE
  8
0
 10
200
 20
68
 11
197.1
 21
68
  0
LINE
  8
0
 10
197.1
 20
68
 11
197.1
 21
71
  0
LINE
  8
0
 10
197.1
 20
71
 11
177.7
 21
71
  0
LINE
  8
0
 10
177.7
 20
71
 11
177.7
 21
68
  0
LINE
  8
0
 10
177.7
 20
68
 11
158.3
 21
68
  0
LINE
  8
0
 10
158.3
 20
68
 11
158.3
 21
71
  0
LINE
  8
0
 10
158.3
 20
71
 11
138.9
 21
71
  0
LINE
  8
0
 10
138.9
 20
71
 11
138.9
 21
68
  0
LINE
  8
0
 10
138.9
 20
68
 11
119.5
 21
68
  0
LINE
  8
0
 10
119.5
 20
68
 11
119.5
 21
71
  0
LINE
  8
0
 10
119.5
 20
71
 11
100.1
 21
71
  0
LINE
  8
0
 10
100.1
 20
71
 11
100.1
 21
68
  0
LINE
  8
0
 10
100.1
 20
68
 11
80.7
 21
68
  0
LINE
  8
0
 10
80.7
 20
68
 11
80.7
 21
71
  0
LINE
  8
0
 10
80.7
 20
71
 11
61.3
 21
71
  0
LINE
  8
0
 10
61.3
 20
71
 11
61.3
 21
68
  0
LINE
  8
0
 10
61.3
 20
68
 11
41.9
 21
68
  0
LINE
  8
0
 10
41.9
 20
68
 11
41.9
 21
71
  0
LINE
  8
0
 10
41.9
 20
71
 11
22.5
 21
71
  0
LINE
  8
0
 10
22.5
 20
71
 11
22.5
 21
68
  0
LINE
  8
0
 10
22.5
 20
68
 11
3
 21
68
  0
LINE
  8
0
 10
3
 20
68
 11
3
 21
57.0667
  0
LINE
  8
0
 10
3
 20
57.0667
 11
0
 21
57.0667
  0
LINE
  8
0
 10
0
 20
57.0667
 11
0
 21
46.4333
  0
LINE
  8
0
 10
0
 20
46.4333
 11
3
 21
46.4333
  0
LINE
  8
0
 10
3
 20
46.4333
 11
3
 21
35.4
  0
LINE
  8
0
 10
3
 20
35.4
 11
0
 21
35.4
  0
LINE
  8
0
 10
0
 20
35.4
 11
0
 21
24.7667
  0
LINE
  8
0
 10
0
 20
24.7667
 11
3
 21
24.7667
  0
LINE
  8
0
 10
3
 20
24.7667
 11
3
 21
13.7333
  0
LINE
  8
0
 10
3
 20
13.7333
 11
0
 21
13.7333
  0
LINE
  8
0
 10
0
 20
13.7333
 11
0
 21
3
  0
LINE
  8
0
 10
0
 20
3
 11
3.09999
 21
3
  0
LINE
  8
0
 10
3.09999
 20
3
 11
3.09999
 21
0
  0
LINE
  8
0
 10
3.09999
 20
0
 11
22.5
 21
0
  0
LINE
  8
0
 10
22.5
 20
0
 11
22.5
 21
3
  0
LINE
  8
0
 10
114.649
 20
24.8781
 11
114.298
 21
24.8873
  0
LINE
  8
0
 10
114.298
 20
24.8873
 11
113.947
 21
24.9026
  0
LINE
  8
0
 10
113.947
 20
24.9026
 11
113.596
 21
24.924
  0
LINE
  8
0
 10
113.596
 20
24.924
 11
113.246
 21
24.9516
  0
LINE
  8
0
 10
113.246
 20
24.9516
 11
112.896
 21
24.9852
  0
LINE
  8
0
 10
112.896
 20
24.9852
 11
112.547
 21
25.025
  0
LINE
  8
0
 10
112.547
 20
25.025
 11
112.199
 21
25.0708
  0
LINE
  8
0
 10
112.199
 20
25.0708
 11
111.852
 21
25.1228
  0
LINE
  8
0
 10
111.852
 20
25.1228
 11
111.505
 21
25.1807
  0
LINE
  8
0
 10
111.505
 20
25.1807
 11
111.16
 21
25.2448
  0
LINE
  8
0
 10
111.16
 20
25.2448
 11
110.816
 21
25.3148
  0
LINE
  8
0
 10
110.816
 20
25.3148
 11
110.473
 21
25.3908
  0
LINE
  8
0
 10
110.473
 20
25.3908
 11
110.131
 21
25.4728
  0
LINE
  8
0
 10
110.131
 20
25.4728
 11
109.791
 21
25.5607
  0
LINE
  8
0
 10
109.791
 20
25.5607
 11
109.453
 21
25.6546
  0
LINE
  8
0
 10
109.453
 20
25.6546
 11
109.116
 21
25.7544
  0
LINE
  8
0
 10
109.116
 20
25.7544
 11
108.781
 21
25.86
  0
LINE
  8
0
 10
108.781
 20
25.86
 11
108.448
 21
25.9714
  0
LINE
  8
0
 10
108.448
 20
25.9714
 11
108.117
 21
26.0887
  0
LINE
  8
0
 10
108.117
 20
26.0887
 11
107.788
 21
26.2117
  0
LINE
  8
0
 10
107.788
 20
26.2117
 11
107.461
 21
26.3404
  0
LINE
  8
0
 10
107.461
 20
26.3404
 11
107.137
 21
26.4748
  0
LINE
  8
0
 10
107.137
 20
26.4748
 11
106.814
 21
26.6149
  0
LINE
  8
0
 10
106.814
 20
26.6149
 11
106.495
 21
26.7605
  0
LINE
  8
0
 10
106.495
 20
26.7605
 11
106.178
 21
26.9118
  0
LINE
  8
0
 10
106.178
 20
26.9118
 11
105.863
 21
27.0685
  0
LINE
  8
0
 10
105.863
 20
27.0685
 11
105.552
 21
27.2307
  0
LINE
  8
0
 10
105.552
 20
27.2307
 11
105.243
 21
27.3983
  0
LINE
  8
0
 10
105.243
 20
27.3983
 11
104.938
 21
27.5712
  0
LINE
  8
0
 10
104.938
 20
27.5712
 11
104.635
 21
27.7495
  0
LINE
  8
0
 10
104.635
 20
27.7495
 11
104.335
 21
27.933
  0
LINE
  8
0
 10
104.335
 20
27.933
 11
104.039
 21
28.1217
  0
LINE
  8
0
 10
104.039
 20
28.1217
 11
103.746
 21
28.3156
  0
LINE
  8
0
 10
103.746
 20
28.3156
 11
103.457
 21
28.5146
  0
LINE
  8
0
 10
103.457
 20
28.5146
 11
103.171
 21
28.7185
  0
LINE
  8
0
 10
103.171
 20
28.7185
 11
102.888
 21
28.9275
  0
LINE
  8
0
 10
102.888
 20
28.9275
 11
102.61
 21
29.1413
  0
LINE
  8
0
 10
102.61
 20
29.1413
 11
102.335
 21
29.3599
  0
LINE
  8
0
 10
102.335
 20
29.3599
 11
102.064
 21
29.5833
  0
LINE
  8
0
 10
102.064
 20
29.5833
 11
101.797
 21
29.8115
  0
LINE
  8
0
 10
101.797
 20
29.8115
 11
101.534
 21
30.0442
  0
LINE
  8
0
 10
101.534
 20
30.0442
 11
101.275
 21
30.2815
  0
LINE
  8
0
 10
101.275
 20
30.2815
 11
101.02
 21
30.5233
  0
LINE
  8
0
 10
101.02
 20
30.5233
 11
100.769
 21
30.7695
  0
LINE
  8
0
 10
100.769
 20
30.7695
 11
100.523
 21
31.02
  0
LINE
  8
0
 10
100.523
 20
31.02
 11
100.282
 21
31.2748
  0
LINE
  8
0
 10
100.282
 20
31.2748
 11
100.044
 21
31.5337
  0
LINE
  8
0
 10
100.044
 20
31.5337
 11
99.8115
 21
31.7968
  0
LINE
  8
0
 10
99.8115
 20
31.7968
 11
99.5834
 21
32.0639
  0
LINE
  8
0
 10
99.5834
 20
32.0639
 11
99.3599
 21
32.3349
  0
LINE
  8
0
 10
99.3599
 20
32.3349
 11
99.1413
 21
32.6098
  0
LINE
  8
0
 10
99.1413
 20
32.6098
 11
98.9275
 21
32.8885
  0
LINE
  8
0
 10
98.9275
 20
32.8885
 11
98.7185
 21
33.1708
  0
LINE
  8
0
 10
98.7185
 20
33.1708
 11
98.5146
 21
33.4568
  0
LINE
  8
0
 10
98.5146
 20
33.4568
 11
98.3156
 21
33.7462
  0
LINE
  8
0
 10
98.3156
 20
33.7462
 11
98.1217
 21
34.0391
  0
LINE
  8
0
 10
98.1217
 20
34.0391
 11
97.933
 21
34.3354
  0
LINE
  8
0
 10
97.933
 20
34.3354
 11
97.7495
 21
34.6349
  0
LINE
  8
0
 10
97.7495
 20
34.6349
 11
97.5712
 21
34.9375
  0
LINE
  8
0
 10
97.5712
 20
34.9375
 11
97.3983
 21
35.2432
  0
LINE
  8
0
 10
97.3983
 20
35.2432
 11
97.2307
 21
35.5519
  0
LINE
  8
0
 10
97.2307
 20
35.5519
 11
97.0685
 21
35.8634
  0
LINE
  8
0
 10
97.0685
 20
35.8634
 11
96.9118
 21
36.1778
  0
LINE
  8
0
 10
96.9118
 20
36.1778
 11
96.7606
 21
36.4948
  0
LINE
  8
0
 10
96.7606
 20
36.4948
 11
96.6149
 21
36.8144
  0
LINE
  8
0
 10
96.6149
 20
36.8144
 11
96.4748
 21
37.1365
  0
LINE
  8
0
 10
96.4748
 20
37.1365
 11
96.3404
 21
37.461
  0
LINE
  8
0
 10
96.3404
 20
37.461
 11
96.2117
 21
37.7878
  0
LINE
  8
0
 10
96.2117
 20
37.7878
 11
96.0887
 21
38.1168
  0
LINE
  8
0
 10
96.0887
 20
38.1168
 11
95.9714
 21
38.4479
  0
LINE
  8
0
 10
95.9714
 20
38.4479
 11
95.86
 21
38.781
  0
LINE
  8
0
 10
95.86
 20
38.781
 11
95.7544
 21
39.116
  0
LINE
  8
0
 10
95.7544
 20
39.116
 11
95.6546
 21
39.4528
  0
LINE
  8
0
 10
95.6546
 20
39.4528
 11
95.5607
 21
39.7913
  0
LINE
  8
0
 10
95.5607
 20
39.7913
 11
95.4728
 21
40.1313
  0
LINE
  8
0
 10
95.4728
 20
40.1313
 11
95.3908
 21
40.4729
  0
LINE
  8
0
 10
95.3908
 20
40.4729
 11
95.3148
 21
40.8158
  0
LINE
  8
0
 10
95.3148
 20
40.8158
 11
95.2448
 21
41.16
  0
LINE
  8
0
 10
95.2448
 20
41.16
 11
95.1807
 21
41.5053
  0
LINE
  8
0
 10
95.1807
 20
41.5053
 11
95.1228
 21
41.8517
  0
LINE
  8
0
 10
95.1228
 20
41.8517
 11
95.0708
 21
42.1991
  0
LINE
  8
0
 10
95.0708
 20
42.1991
 11
95.025
 21
42.5474
  0
LINE
  8
0
 10
95.025
 20
42.5474
 11
94.9852
 21
42.8964
  0
LINE
  8
0
 10
94.9852
 20
42.8964
 11
94.9516
 21
43.246
  0
LINE
  8
0
 10
94.9516
 20
43.246
 11
94.924
 21
43.5961
  0
LINE
  8
0
 10
94.924
 20
43.5961
 11
94.9026
 21
43.9467
  0
LINE
  8
0
 10
94.9026
 20
43.9467
 11
94.8873
 21
44.2976
  0
LINE
  8
0
 10
94.8873
 20
44.2976
 11
94.8781
 21
44.6488
  0
LINE
  8
0
 10
94.8781
 20
44.6488
 11
94.875
 21
45
  0
LINE
  8
0
 10
94.875
 20
45
 11
94.8781
 21
45.3512
  0
LINE
  8
0
 10
94.8781
 20
45.3512
 11
94.8873
 21
45.7023
  0
LINE
  8
0
 10
94.8873
 20
45.7023
 11
94.9026
 21
46.0533
  0
LINE
  8
0
 10
94.9026
 20
46.0533
 11
94.924
 21
46.4038
  0
LINE
  8
0
 10
94.924
 20
46.4038
 11
94.9516
 21
46.754
  0
LINE
  8
0
 10
94.9516
 20
46.754
 11
94.9852
 21
47.1036
  0
LINE
  8
0
 10
94.9852
 20
47.1036
 11
95.025
 21
47.4526
  0
LINE
  8
0
 10
95.025
 20
47.4526
 11
95.0708
 21
47.8009
  0
LINE
  8
0
 10
95.0708
 20
47.8009
 11
95.1228
 21
48.1482
  0
LINE
  8
0
 10
95.1228
 20
48.1482
 11
95.1807
 21
48.4947
  0
LINE
  8
0
 10
95.1807
 20
48.4947
 11
95.2448
 21
48.84
  0
LINE
  8
0
 10
95.2448
 20
48.84
 11
95.3148
 21
49.1842
  0
LINE
  8
0
 10
95.3148
 20
49.1842
 11
95.3908
 21
49.5271
  0
LINE
  8
0
 10
95.3908
 20
49.5271
 11
95.4728
 21
49.8687
  0
LINE
  8
0
 10
95.4728
 20
49.8687
 11
95.5607
 21
50.2087
  0
LINE
  8
0
 10
95.5607
 20
50.2087
 11
95.6546
 21
50.5472
  0
LINE
  8
0
 10
95.6546
 20
50.5472
 11
95.7544
 21
50.884
  0
LINE
  8
0
 10
95.7544
 20
50.884
 11
95.86
 21
51.219
  0
LINE
  8
0
 10
95.86
 20
51.219
 11
95.9714
 21
51.552
  0
LINE
  8
0
 10
95.9714
 20
51.552
 11
96.0887
 21
51.8831
  0
LINE
  8
0
 10
96.0887
 20
51.8831
 11
96.2117
 21
52.2121
  0
LINE
  8
0
 10
96.2117
 20
52.2121
 11
96.3404
 21
52.539
  0
LINE
  8
0
 10
96.3404
 20
52.539
 11
96.4748
 21
52.8635
  0
LINE
  8
0
 10
96.4748
 20
52.8635
 11
96.6149
 21
53.1856
  0
LINE
  8
0
 10
96.6149
 20
53.1856
 11
96.7606
 21
53.5052
  0
LINE
  8
0
 10
96.7606
 20
53.5052
 11
96.9118
 21
53.8222
  0
LINE
  8
0
 10
96.9118
 20
53.8222
 11
97.0685
 21
54.1366
  0
LINE
  8
0
 10
97.0685
 20
54.1366
 11
97.2307
 21
54.4481
  0
LINE
  8
0
 10
97.2307
 20
54.4481
 11
97.3983
 21
54.7568
  0
LINE
  8
0
 10
97.3983
 20
54.7568
 11
97.5712
 21
55.0625
  0
LINE
  8
0
 10
97.5712
 20
55.0625
 11
97.7495
 21
55.3651
  0
LINE
  8
0
 10
97.7495
 20
55.3651
 11
97.933
 21
55.6646
  0
LINE
  8
0
 10
97.933
 20
55.6646
 11
98.1217
 21
55.9609
  0
LINE
  8
0
 10
98.1217
 20
55.9609
 11
98.3156
 21
56.2538
  0
LINE
  8
0
 10
98.3156
 20
56.2538
 11
98.5146
 21
56.5432
  0
LINE
  8
0
 10
98.5146
 20
56.5432
 11
98.7185
 21
56.8292
  0
LINE
  8
0
 10
98.7185
 20
56.8292
 11
98.9275
 21
57.1115
  0
LINE
  8
0
 10
98.9275
 20
57.1115
 11
99.1413
 21
57.3902
  0
LINE
  8
0
 10
99.1413
 20
57.3902
 11
99.3599
 21
57.6651
  0
LINE
  8
0
 10
99.3599
 20
57.6651
 11
99.5834
 21
57.9361
  0
LINE
  8
0
 10
99.5834
 20
57.9361
 11
99.8115
 21
58.2032
  0
LINE
  8
0
 10
99.8115
 20
58.2032
 11
100.044
 21
58.4662
  0
LINE
  8
0
 10
100.044
 20
58.4662
 11
100.282
 21
58.7252
  0
LINE
  8
0
 10
100.282
 20
58.7252
 11
100.523
 21
58.98
  0
LINE
  8
0
 10
100.523
 20
58.98
 11
100.769
 21
59.2305
  0
LINE
  8
0
 10
100.769
 20
59.2305
 11
101.02
 21
59.4767
  0
LINE
  8
0
 10
101.02
 20
59.4767
 11
101.275
 21
59.7185
  0
LINE
  8
0
 10
101.275
 20
59.7185
 11
101.534
 21
59.9558
  0
LINE
  8
0
 10
101.534
 20
59.9558
 11
101.797
 21
60.1885
  0
LINE
  8
0
 10
101.797
 20
60.1885
 11
102.064
 21
60.4166
  0
LINE
  8
0
 10
102.064
 20
60.4166
 11
102.335
 21
60.6401
  0
LINE
  8
0
 10
102.335
 20
60.6401
 11
102.61
 21
60.8587
  0
LINE
  8
0
 10
102.61
 20
60.8587
 11
102.888
 21
61.0725
  0
LINE
  8
0
 10
102.888
 20
61.0725
 11
103.171
 21
61.2815
  0
LINE
  8
0
 10
103.171
 20
61.2815
 11
103.457
 21
61.4854
  0
LINE
  8
0
 10
103.457
 20
61.4854
 11
103.746
 21
61.6844
  0
LINE
  8
0
 10
103.746
 20
61.6844
 11
104.039
 21
61.8782
  0
LINE
  8
0
 10
104.039
 20
61.8782
 11
104.335
 21
62.067
  0
LINE
  8
0
 10
104.335
 20
62.067
 11
104.635
 21
62.2505
  0
LINE
  8
0
 10
104.635
 20
62.2505
 11
104.938
 21
62.4288
  0
LINE
  8
0
 10
104.938
 20
62.4288
 11
105.243
 21
62.6017
  0
LINE
  8
0
 10
105.243
 20
62.6017
 11
105.552
 21
62.7693
  0
LINE
  8
0
 10
105.552
 20
62.7693
 11
105.863
 21
62.9315
  0
LINE
  8
0
 10
105.863
 20
62.9315
 11
106.178
 21
63.0882
  0
LINE
  8
0
 10
106.178
 20
63.0882
 11
106.495
 21
63.2394
  0
LINE
  8
0
 10
106.495
 20
63.2394
 11
106.814
 21
63.3851
  0
LINE
  8
0
 10
106.814
 20
63.3851
 11
107.137
 21
63.5252
  0
LINE
  8
0
 10
107.137
 20
63.5252
 11
107.461
 21
63.6596
  0
LINE
  8
0
 10
107.461
 20
63.6596
 11
107.788
 21
63.7883
  0
LINE
  8
0
 10
107.788
 20
63.7883
 11
108.117
 21
63.9113
  0
LINE
  8
0
 10
108.117
 20
63.9113
 11
108.448
 21
64.0286
  0
LINE
  8
0
 10
108.448
 20
64.0286
 11
108.781
 21
64.14
  0
LINE
  8
0
 10
108.781
 20
64.14
 11
109.116
 21
64.2456
  0
LINE
  8
0
 10
109.116
 20
64.2456
 11
109.453
 21
64.3454
  0
LINE
  8
0
 10
109.453
 20
64.3454
 11
109.791
 21
64.4393
  0
LINE
  8
0
 10
109.791
 20
64.4393
 11
110.131
 21
64.5272
  0
LINE
  8
0
 10
110.131
 20
64.5272
 11
110.473
 21
64.6092
  0
LINE
  8
0
 10
110.473
 20
64.6092
 11
110.816
 21
64.6852
  0
LINE
  8
0
 10
110.816
 20
64.6852
 11
111.16
 21
64.7552
  0
LINE
  8
0
 10
111.16
 20
64.7552
 11
111.505
 21
64.8193
  0
LINE
  8
0
 10
111.505
 20
64.8193
 11
111.852
 21
64.8772
  0
LINE
  8
0
 10
111.852
 20
64.8772
 11
112.199
 21
64.9291
  0
LINE
  8
0
 10
112.199
 20
64.9291
 11
112.547
 21
64.975
  0
LINE
  8
0
 10
112.547
 20
64.975
 11
112.896
 21
65.0148
  0
LINE
  8
0
 10
112.896
 20
65.0148
 11
113.246
 21
65.0484
  0
LINE
  8
0
 10
113.246
 20
65.0484
 11
113.596
 21
65.076
  0
LINE
  8
0
 10
113.596
 20
65.076
 11
113.947
 21
65.0974
  0
LINE
  8
0
 10
113.947
 20
65.0974
 11
114.298
 21
65.1127
  0
LINE
  8
0
 10
114.298
 20
65.1127
 11
114.649
 21
65.1219
  0
LINE
  8
0
 10
114.649
 20
65.1219
 11
115
 21
65.125
  0
LINE
  8
0
 10
115
 20
65.125
 11
115.351
 21
65.1219
  0
LINE
  8
0
 10
115.351
 20
65.1219
 11
115.702
 21
65.1127
  0
LINE
  8
0
 10
115.702
 20
65.1127
 11
116.053
 21
65.0974
  0
LINE
  8
0
 10
116.053
 20
65.0974
 11
116.404
 21
65.076
  0
LINE
  8
0
 10
116.404
 20
65.076
 11
116.754
 21
65.0484
  0
LINE
  8
0
 10
116.754
 20
65.0484
 11
117.104
 21
65.0148
  0
LINE
  8
0
 10
117.104
 20
65.0148
 11
117.453
 21
64.975
  0
LINE
  8
0
 10
117.453
 20
64.975
 11
117.801
 21
64.9291
  0
LINE
  8
0
 10
117.801
 20
64.9291
 11
118.148
 21
64.8772
  0
LINE
  8
0
 10
118.148
 20
64.8772
 11
118.495
 21
64.8193
  0
LINE
  8
0
 10
118.495
 20
64.8193
 11
118.84
 21
64.7552
  0
LINE
  8
0
 10
118.84
 20
64.7552
 11
119.184
 21
64.6852
  0
LINE
  8
0
 10
119.184
 20
64.6852
 11
119.527
 21
64.6092
  0
LINE
  8
0
 10
119.527
 20
64.6092
 11
119.869
 21
64.5272
  0
LINE
  8
0
 10
119.869
 20
64.5272
 11
120.209
 21
64.4393
  0
LINE
  8
0
 10
120.209
 20
64.4393
 11
120.547
 21
64.3454
  0
LINE
  8
0
 10
120.547
 20
64.3454
 11
120.884
 21
64.2456
  0
LINE
  8
0
 10
120.884
 20
64.2456
 11
121.219
 21
64.14
  0
LINE
  8
0
 10
121.219
 20
64.14
 11
121.552
 21
64.0286
  0
LINE
  8
0
 10
121.552
 20
64.0286
 11
121.883
 21
63.9113
  0
LINE
  8
0
 10
121.883
 20
63.9113
 11
122.212
 21
63.7883
  0
LINE
  8
0
 10
122.212
 20
63.7883
 11
122.539
 21
63.6596
  0
LINE
  8
0
 10
122.539
 20
63.6596
 11
122.863
 21
63.5252
  0
LINE
  8
0
 10
122.863
 20
63.5252
 11
123.186
 21
63.3851
  0
LINE
  8
0
 10
123.186
 20
63.3851
 11
123.505
 21
63.2394
  0
LINE
  8
0
 10
123.505
 20
63.2394
 11
123.822
 21
63.0882
  0
LINE
  8
0
 10
123.822
 20
63.0882
 11
124.137
 21
62.9315
  0
LINE
  8
0
 10
124.137
 20
62.9315
 11
124.448
 21
62.7693
  0
LINE
  8
0
 10
124.448
 20
62.7693
 11
124.757
 21
62.6017
  0
LINE
  8
0
 10
124.757
 20
62.6017
 11
125.062
 21
62.4288
  0
LINE
  8
0
 10
125.062
 20
62.4288
 11
125.365
 21
62.2505
  0
LINE
  8
0
 10
125.365
 20
62.2505
 11
125.665
 21
62.067
  0
LINE
  8
0
 10
125.665
 20
62.067
 11
125.961
 21
61.8782
  0
LINE
  8
0
 10
125.961
 20
61.8782
 11
126.254
 21
61.6844
  0
LINE
  8
0
 10
126.254
 20
61.6844
 11
126.543
 21
61.4854
  0
LINE
  8
0
 10
126.543
 20
61.4854
 11
126.829
 21
61.2815
  0
LINE
  8
0
 10
126.829
 20
61.2815
 11
127.112
 21
61.0725
  0
LINE
  8
0
 10
127.112
 20
61.0725
 11
127.39
 21
60.8587
  0
LINE
  8
0
 10
127.39
 20
60.8587
 11
127.665
 21
60.6401
  0
LINE
  8
0
 10
127.665
 20
60.6401
 11
127.936
 21
60.4166
  0
LINE
  8
0
 10
127.936
 20
60.4166
 11
128.203
 21
60.1885
  0
LINE
  8
0
 10
128.203
 20
60.1885
 11
128.466
 21
59.9558
  0
LINE
  8
0
 10
128.466
 20
59.9558
 11
128.725
 21
59.7185
  0
LINE
  8
0
 10
128.725
 20
59.7185
 11
128.98
 21
59.4767
  0
LINE
  8
0
 10
128.98
 20
59.4767
 11
129.231
 21
59.2305
  0
LINE
  8
0
 10
129.231
 20
59.2305
 11
129.477
 21
58.98
  0
LINE
  8
0
 10
129.477
 20
58.98
 11
129.718
 21
58.7252
  0
LINE
  8
0
 10
129.718
 20
58.7252
 11
129.956
 21
58.4662
  0
LINE
  8
0
 10
129.956
 20
58.4662
 11
130.189
 21
58.2032
  0
LINE
  8
0
 10
130.189
 20
58.2032
 11
130.417
 21
57.9361
  0
LINE
  8
0
 10
130.417
 20
57.9361
 11
130.64
 21
57.6651
  0
LINE
  8
0
 10
130.64
 20
57.6651
 11
130.859
 21
57.3902
  0
LINE
  8
0
 10
130.859
 20
57.3902
 11
131.073
 21
57.1115
  0
LINE
  8
0
 10
131.073
 20
57.1115
 11
131.281
 21
56.8292
  0
LINE
  8
0
 10
131.281
 20
56.8292
 11
131.485
 21
56.5432
  0
LINE
  8
0
 10
131.485
 20
56.5432
 11
131.684
 21
56.2538
  0
LINE
  8
0
 10
131.684
 20
56.2538
 11
131.878
 21
55.9609
  0
LINE
  8
0
 10
131.878
 20
55.9609
 11
132.067
 21
55.6646
  0
LINE
  8
0
 10
132.067
 20
55.6646
 11
132.25
 21
55.3651
  0
LINE
  8
0
 10
132.25
 20
55.3651
 11
132.429
 21
55.0625
  0
LINE
  8
0
 10
132.429
 20
55.0625
 11
132.602
 21
54.7568
  0
LINE
  8
0
 10
132.602
 20
54.7568
 11
132.769
 21
54.4481
  0
LINE
  8
0
 10
132.769
 20
54.4481
 11
132.932
 21
54.1366
  0
LINE
  8
0
 10
132.932
 20
54.1366
 11
133.088
 21
53.8222
  0
LINE
  8
0
 10
133.088
 20
53.8222
 11
133.239
 21
53.5052
  0
LINE
  8
0
 10
133.239
 20
53.5052
 11
133.385
 21
53.1856
  0
LINE
  8
0
 10
133.385
 20
53.1856
 11
133.525
 21
52.8635
  0
LINE
  8
0
 10
133.525
 20
52.8635
 11
133.66
 21
52.539
  0
LINE
  8
0
 10
133.66
 20
52.539
 11
133.788
 21
52.2121
  0
LINE
  8
0
 10
133.788
 20
52.2121
 11
133.911
 21
51.8831
  0
LINE
  8
0
 10
133.911
 20
51.8831
 11
134.029
 21
51.552
  0
LINE
  8
0
 10
134.029
 20
51.552
 11
134.14
 21
51.219
  0
LINE
  8
0
 10
134.14
 20
51.219
 11
134.246
 21
50.884
  0
LINE
  8
0
 10
134.246
 20
50.884
 11
134.345
 21
50.5472
  0
LINE
  8
0
 10
134.345
 20
50.5472
 11
134.439
 21
50.2087
  0
LINE
  8
0
 10
134.439
 20
50.2087
 11
134.527
 21
49.8687
  0
LINE
  8
0
 10
134.527
 20
49.8687
 11
134.609
 21
49.5271
  0
LINE
  8
0
 10
134.609
 20
49.5271
 11
134.685
 21
49.1842
  0
LINE
  8
0
 10
134.685
 20
49.1842
 11
134.755
 21
48.84
  0
LINE
  8
0
 10
134.755
 20
48.84
 11
134.819
 21
48.4947
  0
LINE
  8
0
 10
134.819
 20
48.4947
 11
134.877
 21
48.1482
  0
LINE
  8
0
 10
134.877
 20
48.1482
 11
134.929
 21
47.8009
  0
LINE
  8
0
 10
134.929
 20
47.8009
 11
134.975
 21
47.4526
  0
LINE
  8
0
 10
134.975
 20
47.4526
 11
135.015
 21
47.1036
  0
LINE
  8
0
 10
135.015
 20
47.1036
 11
135.048
 21
46.754
  0
LINE
  8
0
 10
135.048
 20
46.754
 11
135.076
 21
46.4038
  0
LINE
  8
0
 10
135.076
 20
46.4038
 11
135.097
 21
46.0533
  0
LINE
  8
0
 10
135.097
 20
46.0533
 11
135.113
 21
45.7023
  0
LINE
  8
0
 10
135.113
 20
45.7023
 11
135.122
 21
45.3512
  0
LINE
  8
0
 10
135.122
 20
45.3512
 11
135.125
 21
45
  0
LINE
  8
0
 10
135.125
 20
45
 11
135.122
 21
44.6488
  0
LINE
  8
0
 10
135.122
 20
44.6488
 11
135.113
 21
44.2976
  0
LINE
  8
0
 10
135.113
 20
44.2976
 11
135.097
 21
43.9467
  0
LINE
  8
0
 10
135.097
 20
43.9467
 11
135.076
 21
43.5961
  0
LINE
  8
0
 10
135.076
 20
43.5961
 11
135.048
 21
43.246
  0
LINE
  8
0
 10
135.048
 20
43.246
 11
135.015
 21
42.8964
  0
LINE
  8
0
 10
135.015
 20
42.8964
 11
134.975
 21
42.5474
  0
LINE
  8
0
 10
134.975
 20
42.5474
 11
134.929
 21
42.1991
  0
LINE
  8
0
 10
134.929
 20
42.1991
 11
134.877
 21
41.8517
  0
LINE
  8
0
 10
134.877
 20
41.8517
 11
134.819
 21
41.5053
  0
LINE
  8
0
 10
134.819
 20
41.5053
 11
134.755
 21
41.16
  0
LINE
  8
0
 10
134.755
 20
41.16
 11
134.685
 21
40.8158
  0
LINE
  8
0
 10
134.685
 20
40.8158
 11
134.609
 21
40.4729
  0
LINE
  8
0
 10
134.609
 20
40.4729
 11
134.527
 21
40.1313
  0
LINE
  8
0
 10
134.527
 20
40.1313
 11
134.439
 21
39.7913
  0
LINE
  8
0
 10
134.439
 20
39.7913
 11
134.345
 21
39.4528
  0
LINE
  8
0
 10
134.345
 20
39.4528
 11
134.246
 21
39.116
  0
LINE
  8
0
 10
134.246
 20
39.116
 11
134.14
 21
38.781
  0
LINE
  8
0
 10
134.14
 20
38.781
 11
134.029
 21
38.4479
  0
LINE
  8
0
 10
134.029
 20
38.4479
 11
133.911
 21
38.1168
  0
LINE
  8
0
 10
133.911
 20
38.1168
 11
133.788
 21
37.7878
  0
LINE
  8
0
 10
133.788
 20
37.7878
 11
133.66
 21
37.461
  0
LINE
  8
0
 10
133.66
 20
37.461
 11
133.525
 21
37.1365
  0
LINE
  8
0
 10
133.525
 20
37.1365
 11
133.385
 21
36.8144
  0
LINE
  8
0
 10
133.385
 20
36.8144
 11
133.239
 21
36.4948
  0
LINE
  8
0
 10
133.239
 20
36.4948
 11
133.088
 21
36.1778
  0
LINE
  8
0
 10
133.088
 20
36.1778
 11
132.932
 21
35.8634
  0
LINE
  8
0
 10
132.932
 20
35.8634
 11
132.769
 21
35.5519
  0
LINE
  8
0
 10
132.769
 20
35.5519
 11
132.602
 21
35.2432
  0
LINE
  8
0
 10
132.602
 20
35.2432
 11
132.429
 21
34.9375
  0
LINE
  8
0
 10
132.429
 20
34.9375
 11
132.25
 21
34.6349
  0
LINE
  8
0
 10
132.25
 20
34.6349
 11
132.067
 21
34.3354
  0
LINE
  8
0
 10
132.067
 20
34.3354
 11
131.878
 21
34.0391
  0
LINE
  8
0
 10
131.878
 20
34.0391
 11
131.684
 21
33.7462
  0
LINE
  8
0
 10
131.684
 20
33.7462
 11
131.485
 21
33.4568
  0
LINE
  8
0
 10
131.485
 20
33.4568
 11
131.281
 21
33.1708
  0
LINE
  8
0
 10
131.281
 20
33.1708
 11
131.073
 21
32.8885
  0
LINE
  8
0
 10
131.073
 20
32.8885
 11
130.859
 21
32.6098
  0
LINE
  8
0
 10
130.859
 20
32.6098
 11
130.64
 21
32.3349
  0
LINE
  8
0
 10
130.64
 20
32.3349
 11
130.417
 21
32.0639
  0
LINE
  8
0
 10
130.417
 20
32.0639
 11
130.189
 21
31.7968
  0
LINE
  8
0
 10
130.189
 20
31.7968
 11
129.956
 21
31.5337
  0
LINE
  8
0
 10
129.956
 20
31.5337
 11
129.718
 21
31.2748
  0
LINE
  8
0
 10
129.718
 20
31.2748
 11
129.477
 21
31.02
  0
LINE
  8
0
 10
129.477
 20
31.02
 11
129.231
 21
30.7695
  0
LINE
  8
0
 10
129.231
 20
30.7695
 11
128.98
 21
30.5233
  0
LINE
  8
0
 10
128.98
 20
30.5233
 11
128.725
 21
30.2815
  0
LINE
  8
0
 10
128.725
 20
30.2815
 11
128.466
 21
30.0442
  0
LINE
  8
0
 10
128.466
 20
30.0442
 11
128.203
 21
29.8115
  0
LINE
  8
0
 10
128.203
 20
29.8115
 11
127.936
 21
29.5833
  0
LINE
  8
0
 10
127.936
 20
29.5833
 11
127.665
 21
29.3599
  0
LINE
  8
0
 10
127.665
 20
29.3599
 11
127.39
 21
29.1413
  0
LINE
  8
0
 10
127.39
 20
29.1413
 11
127.112
 21
28.9275
  0
LINE
  8
0
 10
127.112
 20
28.9275
 11
126.829
 21
28.7185
  0
LINE
  8
0
 10
126.829
 20
28.7185
 11
126.543
 21
28.5146
  0
LINE
  8
0
 10
126.543
 20
28.5146
 11
126.254
 21
28.3156
  0
LINE
  8
0
 10
126.254
 20
28.3156
 11
125.961
 21
28.1217
  0
LINE
  8
0
 10
125.961
 20
28.1217
 11
125.665
 21
27.933
  0
LINE
  8
0
 10
125.665
 20
27.933
 11
125.365
 21
27.7495
  0
LINE
  8
0
 10
125.365
 20
27.7495
 11
125.062
 21
27.5712
  0
LINE
  8
0
 10
125.062
 20
27.5712
 11
124.757
 21
27.3983
  0
LINE
  8
0
 10
124.757
 20
27.3983
 11
124.448
 21
27.2307
  0
LINE
  8
0
 10
124.448
 20
27.2307
 11
124.137
 21
27.0685
  0
LINE
  8
0
 10
124.137
 20
27.0685
 11
123.822
 21
26.9118
  0
LINE
  8
0
 10
123.822
 20
26.9118
 11
123.505
 21
26.7605
  0
LINE
  8
0
 10
123.505
 20
26.7605
 11
123.186
 21
26.6149
  0
LINE
  8
0
 10
123.186
 20
26.6149
 11
122.863
 21
26.4748
  0
LINE
  8
0
 10
122.863
 20
26.4748
 11
122.539
 21
26.3404
  0
LINE
  8
0
 10
122.539
 20
26.3404
 11
122.212
 21
26.2117
  0
LINE
  8
0
 10
122.212
 20
26.2117
 11
121.883
 21
26.0887
  0
LINE
  8
0
 10
121.883
 20
26.0887
 11
121.552
 21
25.9714
  0
LINE
  8
0
 10
121.552
 20
25.9714
 11
121.219
 21
25.86
  0
LINE
  8
0
 10
121.219
 20
25.86
 11
120.884
 21
25.7544
  0
LINE
  8
0
 10
120.884
 20
25.7544
 11
120.547
 21
25.6546
  0
LINE
  8
0
 10
120.547
 20
25.6546
 11
120.209
 21
25.5607
  0
LINE
  8
0
 10
120.209
 20
25.5607
 11
119.869
 21
25.4728
  0
LINE
  8
0
 10
119.869
 20
25.4728
 11
119.527
 21
25.3908
  0
LINE
  8
0
 10
119.527
 20
25.3908
 11
119.184
 21
25.3148
  0
LINE
  8
0
 10
119.184
 20
25.3148
 11
118.84
 21
25.2448
  0
LINE
  8
0
 10
118.84
 20
25.2448
 11
118.495
 21
25.1807
  0
LINE
  8
0
 10
118.495
 20
25.1807
 11
118.148
 21
25.1228
  0
LINE
  8
0
 10
118.148
 20
25.1228
 11
117.801
 21
25.0708
  0
LINE
  8
0
 10
117.801
 20
25.0708
 11
117.453
 21
25.025
  0
LINE
  8
0
 10
117.453
 20
25.025
 11
117.104
 21
24.9852
  0
LINE
  8
0
 10
117.104
 20
24.9852
 11
116.754
 21
24.9516
  0
LINE
  8
0
 10
116.754
 20
24.9516
 11
116.404
 21
24.924
  0
LINE
  8
0
 10
116.404
 20
24.924
 11
116.053
 21
24.9026
  0
LINE
  8
0
 10
116.053
 20
24.9026
 11
115.702
 21
24.8873
  0
LINE
  8
0
 10
115.702
 20
24.8873
 11
115.351
 21
24.8781
  0
LINE
  8
0
 10
115.351
 20
24.8781
 11
115
 21
24.875
  0
LINE
  8
0
 10
115
 20
24.875
 11
114.649
 21
24.8781
  0
LINE
  8
0
 10
9
 20
18
 11
9
 21
53
  0
LINE
  8
0
 10
9
 20
53
 11
57.75
 21
53
  0
LINE
  8
0
 10
57.75
 20
53
 11
57.75
 21
18
  0
LINE
  8
0
 10
57.75
 20
18
 11
9
 21
18
  0
LINE
  8
0
 10
184.676
 20
41.917
 11
184.355
 21
41.9677
  0
LINE
  8
0
 10
184.355
 20
41.9677
 11
184.042
 21
42.0517
  0
LINE
  8
0
 10
184.042
 20
42.0517
 11
183.739
 21
42.168
  0
LINE
  8
0
 10
183.739
 20
42.168
 11
183.45
 21
42.3153
  0
LINE
  8
0
 10
183.45
 20
42.3153
 11
183.178
 21
42.492
  0
LINE
  8
0
 10
183.178
 20
42.492
 11
182.926
 21
42.6962
  0
LINE
  8
0
 10
182.926
 20
42.6962
 11
182.696
 21
42.9257
  0
LINE
  8
0
 10
182.696
 20
42.9257
 11
182.492
 21
43.1779
  0
LINE
  8
0
 10
182.492
 20
43.1779
 11
182.315
 21
43.45
  0
LINE
  8
0
 10
182.315
 20
43.45
 11
182.168
 21
43.7391
  0
LINE
  8
0
 10
182.168
 20
43.7391
 11
182.052
 21
44.042
  0
LINE
  8
0
 10
182.052
 20
44.042
 11
181.968
 21
44.3555
  0
LINE
  8
0
 10
181.968
 20
44.3555
 11
181.917
 21
44.6759
  0
LINE
  8
0
 10
181.917
 20
44.6759
 11
181.9
 21
45
  0
LINE
  8
0
 10
181.9
 20
45
 11
181.917
 21
45.324
  0
LINE
  8
0
 10
181.917
 20
45.324
 11
181.968
 21
45.6445
  0
LINE
  8
0
 10
181.968
 20
45.6445
 11
182.052
 21
45.9579
  0
LINE
  8
0
 10
182.052
 20
45.9579
 11
182.168
 21
46.2609
  0
LINE
  8
0
 10
182.168
 20
46.2609
 11
182.315
 21
46.55
  0
LINE
  8
0
 10
182.315
 20
46.55
 11
182.492
 21
46.8221
  0
LINE
  8
0
 10
182.492
 20
46.8221
 11
182.696
 21
47.0743
  0
LINE
  8
0
 10
182.696
 20
47.0743
 11
182.926
 21
47.3037
  0
LINE
  8
0
 10
182.926
 20
47.3037
 11
183.178
 21
47.5079
  0
LINE
  8
0
 10
183.178
 20
47.5079
 11
183.45
 21
47.6847
  0
LINE
  8
0
 10
183.45
 20
47.6847
 11
183.739
 21
47.832
  0
LINE
  8
0
 10
183.739
 20
47.832
 11
184.042
 21
47.9483
  0
LINE
  8
0
 10
184.042
 20
47.9483
 11
184.355
 21
48.0323
  0
LINE
  8
0
 10
184.355
 20
48.0323
 11
184.676
 21
48.083
  0
LINE
  8
0
 10
184.676
 20
48.083
 11
185
 21
48.1
  0
LINE
  8
0
 10
185
 20
48.1
 11
185.324
 21
48.083
  0
LINE
  8
0
 10
185.324
 20
48.083
 11
185.645
 21
48.0323
  0
LINE
  8
0
 10
185.645
 20
48.0323
 11
185.958
 21
47.9483
  0
LINE
  8
0
 10
185.958
 20
47.9483
 11
186.261
 21
47.832
  0
LINE
  8
0
 10
186.261
 20
47.832
 11
186.55
 21
47.6847
  0
LINE
  8
0
 10
186.55
 20
47.6847
 11
186.822
 21
47.5079
  0
LINE
  8
0
 10
186.822
 20
47.5079
 11
187.074
 21
47.3037
  0
LINE
  8
0
 10
187.074
 20
47.3037
 11
187.304
 21
47.0743
  0
LINE
  8
0
 10
187.304
 20
47.0743
 11
187.508
 21
46.8221
  0
LINE
  8
0
 10
187.508
 20
46.8221
 11
187.685
 21
46.55
  0
LINE
  8
0
 10
187.685
 20
46.55
 11
187.832
 21
46.2609
  0
LINE
  8
0
 10
187.832
 20
46.2609
 11
187.948
 21
45.9579
  0
LINE
  8
0
 10
187.948
 20
45.9579
 11
188.032
 21
45.6445
  0
LINE
  8
0
 10
188.032
 20
45.6445
 11
188.083
 21
45.324
  0
LINE
  8
0
 10
188.083
 20
45.324
 11
188.1
 21
45
  0
LINE
  8
0
 10
188.1
 20
45
 11
188.083
 21
44.6759
  0
LINE
  8
0
 10
188.083
 20
44.6759
 11
188.032
 21
44.3555
  0
LINE
  8
0
 10
188.032
 20
44.3555
 11
187.948
 21
44.042
  0
LINE
  8
0
 10
187.948
 20
44.042
 11
187.832
 21
43.7391
  0
LINE
  8
0
 10
187.832
 20
43.7391
 11
187.685
 21
43.45
  0
LINE
  8
0
 10
187.685
 20
43.45
 11
187.508
 21
43.1779
  0
LINE
  8
0
 10
187.508
 20
43.1779
 11
187.304
 21
42.9257
  0
LINE
  8
0
 10
187.304
 20
42.9257
 11
187.074
 21
42.6962
  0
LINE
  8
0
 10
187.074
 20
42.6962
 11
186.822
 21
42.492
  0
LINE
  8
0
 10
186.822
 20
42.492
 11
186.55
 21
42.3153
  0
LINE
  8
0
 10
186.55
 20
42.3153
 11
186.261
 21
42.168
  0
LINE
  8
0
 10
186.261
 20
42.168
 11
185.958
 21
42.0517
  0
LINE
  8
0
 10
185.958
 20
42.0517
 11
185.645
 21
41.9677
  0
LINE
  8
0
 10
185.645
 20
41.9677
 11
185.324
 21
41.917
  0
LINE
  8
0
 10
185.324
 20
41.917
 11
185
 21
41.9
  0
LINE
  8
0
 10
185
 20
41.9
 11
184.676
 21
41.917
  0
LINE
  8
0
 10
161.299
 20
17.0017
 11
161.099
 21
17.007
  0
LINE
  8
0
 10
161.099
 20
17.007
 11
160.898
 21
17.0157
  0
LINE
  8
0
 10
160.898
 20
17.0157
 11
160.698
 21
17.028
  0
LINE
  8
0
 10
160.698
 20
17.028
 11
160.498
 21
17.0438
  0
LINE
  8
0
 10
160.498
 20
17.0438
 11
160.298
 21
17.063
  0
LINE
  8
0
 10
160.298
 20
17.063
 11
160.099
 21
17.0857
  0
LINE
  8
0
 10
160.099
 20
17.0857
 11
159.9
 21
17.1119
  0
LINE
  8
0
 10
159.9
 20
17.1119
 11
159.701
 21
17.1416
  0
LINE
  8
0
 10
159.701
 20
17.1416
 11
159.503
 21
17.1747
  0
LINE
  8
0
 10
159.503
 20
17.1747
 11
159.306
 21
17.2113
  0
LINE
  8
0
 10
159.306
 20
17.2113
 11
159.109
 21
17.2513
  0
LINE
  8
0
 10
159.109
 20
17.2513
 11
158.913
 21
17.2947
  0
LINE
  8
0
 10
158.913
 20
17.2947
 11
158.718
 21
17.3416
  0
LINE
  8
0
 10
158.718
 20
17.3416
 11
158.524
 21
17.3918
  0
LINE
  8
0
 10
158.524
 20
17.3918
 11
158.33
 21
17.4455
  0
LINE
  8
0
 10
158.33
 20
17.4455
 11
158.138
 21
17.5025
  0
LINE
  8
0
 10
158.138
 20
17.5025
 11
157.946
 21
17.5629
  0
LINE
  8
0
 10
157.946
 20
17.5629
 11
157.756
 21
17.6265
  0
LINE
  8
0
 10
157.756
 20
17.6265
 11
157.567
 21
17.6935
  0
LINE
  8
0
 10
157.567
 20
17.6935
 11
157.379
 21
17.7638
  0
LINE
  8
0
 10
157.379
 20
17.7638
 11
157.192
 21
17.8374
  0
LINE
  8
0
 10
157.192
 20
17.8374
 11
157.007
 21
17.9142
  0
LINE
  8
0
 10
157.007
 20
17.9142
 11
156.823
 21
17.9942
  0
LINE
  8
0
 10
156.823
 20
17.9942
 11
156.64
 21
18.0775
  0
LINE
  8
0
 10
156.64
 20
18.0775
 11
156.459
 21
18.1639
  0
LINE
  8
0
 10
156.459
 20
18.1639
 11
156.279
 21
18.2534
  0
LINE
  8
0
 10
156.279
 20
18.2534
 11
156.101
 21
18.3461
  0
LINE
  8
0
 10
156.101
 20
18.3461
 11
155.925
 21
18.4419
  0
LINE
  8
0
 10
155.925
 20
18.4419
 11
155.75
 21
18.5407
  0
LINE
  8
0
 10
155.75
 20
18.5407
 11
155.577
 21
18.6426
  0
LINE
  8
0
 10
155.577
 20
18.6426
 11
155.406
 21
18.7474
  0
LINE
  8
0
 10
155.406
 20
18.7474
 11
155.237
 21
18.8553
  0
LINE
  8
0
 10
155.237
 20
18.8553
 11
155.069
 21
18.9661
  0
LINE
  8
0
 10
155.069
 20
18.9661
 11
154.904
 21
19.0797
  0
LINE
  8
0
 10
154.904
 20
19.0797
 11
154.74
 21
19.1963
  0
LINE
  8
0
 10
154.74
 20
19.1963
 11
154.579
 21
19.3157
  0
LINE
  8
0
 10
154.579
 20
19.3157
 11
154.42
 21
19.4379
  0
LINE
  8
0
 10
154.42
 20
19.4379
 11
154.263
 21
19.5628
  0
LINE
  8
0
 10
154.263
 20
19.5628
 11
154.108
 21
19.6905
  0
LINE
  8
0
 10
154.108
 20
19.6905
 11
153.955
 21
19.8208
  0
LINE
  8
0
 10
153.955
 20
19.8208
 11
153.805
 21
19.9538
  0
LINE
  8
0
 10
153.805
 20
19.9538
 11
153.657
 21
20.0894
  0
LINE
  8
0
 10
153.657
 20
20.0894
 11
153.511
 21
20.2276
  0
LINE
  8
0
 10
153.511
 20
20.2276
 11
153.368
 21
20.3683
  0
LINE
  8
0
 10
153.368
 20
20.3683
 11
153.228
 21
20.5114
  0
LINE
  8
0
 10
153.228
 20
20.5114
 11
153.089
 21
20.657
  0
LINE
  8
0
 10
153.089
 20
20.657
 11
152.954
 21
20.805
  0
LINE
  8
0
 10
152.954
 20
20.805
 11
152.821
 21
20.9553
  0
LINE
  8
0
 10
152.821
 20
20.9553
 11
152.69
 21
21.1079
  0
LINE
  8
0
 10
152.69
 20
21.1079
 11
152.563
 21
21.2628
  0
LINE
  8
0
 10
152.563
 20
21.2628
 11
152.438
 21
21.4199
  0
LINE
  8
0
 10
152.438
 20
21.4199
 11
152.316
 21
21.5791
  0
LINE
  8
0
 10
152.316
 20
21.5791
 11
152.196
 21
21.7405
  0
LINE
  8
0
 10
152.196
 20
21.7405
 11
152.08
 21
21.9039
  0
LINE
  8
0
 10
152.08
 20
21.9039
 11
151.966
 21
22.0693
  0
LINE
  8
0
 10
151.966
 20
22.0693
 11
151.855
 21
22.2366
  0
LINE
  8
0
 10
151.855
 20
22.2366
 11
151.747
 21
22.4059
  0
LINE
  8
0
 10
151.747
 20
22.4059
 11
151.643
 21
22.5771
  0
LINE
  8
0
 10
151.643
 20
22.5771
 11
151.541
 21
22.75
  0
LINE
  8
0
 10
151.541
 20
22.75
 11
151.442
 21
22.9247
  0
LINE
  8
0
 10
151.442
 20
22.9247
 11
151.346
 21
23.1011
  0
LINE
  8
0
 10
151.346
 20
23.1011
 11
151.253
 21
23.2791
  0
LINE
  8
0
 10
151.253
 20
23.2791
 11
151.164
 21
23.4587
  0
LINE
  8
0
 10
151.164
 20
23.4587
 11
151.077
 21
23.6399
  0
LINE
  8
0
 10
151.077
 20
23.6399
 11
150.994
 21
23.8225
  0
LINE
  8
0
 10
150.994
 20
23.8225
 11
150.914
 21
24.0066
  0
LINE
  8
0
 10
150.914
 20
24.0066
 11
150.837
 21
24.192
  0
LINE
  8
0
 10
150.837
 20
24.192
 11
150.764
 21
24.3788
  0
LINE
  8
0
 10
150.764
 20
24.3788
 11
150.694
 21
24.5668
  0
LINE
  8
0
 10
150.694
 20
24.5668
 11
150.627
 21
24.756
  0
LINE
  8
0
 10
150.627
 20
24.756
 11
150.563
 21
24.9463
  0
LINE
  8
0
 10
150.563
 20
24.9463
 11
150.503
 21
25.1377
  0
LINE
  8
0
 10
150.503
 20
25.1377
 11
150.445
 21
25.3302
  0
LINE
  8
0
 10
150.445
 20
25.3302
 11
150.392
 21
25.5236
  0
LINE
  8
0
 10
150.392
 20
25.5236
 11
150.342
 21
25.7179
  0
LINE
  8
0
 10
150.342
 20
25.7179
 11
150.295
 21
25.9131
  0
LINE
  8
0
 10
150.295
 20
25.9131
 11
150.251
 21
26.109
  0
LINE
  8
0
 10
150.251
 20
26.109
 11
150.211
 21
26.3057
  0
LINE
  8
0
 10
150.211
 20
26.3057
 11
150.175
 21
26.503
  0
LINE
  8
0
 10
150.175
 20
26.503
 11
150.142
 21
26.701
  0
LINE
  8
0
 10
150.142
 20
26.701
 11
150.112
 21
26.8995
  0
LINE
  8
0
 10
150.112
 20
26.8995
 11
150.086
 21
27.0985
  0
LINE
  8
0
 10
150.086
 20
27.0985
 11
150.063
 21
27.2979
  0
LINE
  8
0
 10
150.063
 20
27.2979
 11
150.044
 21
27.4977
  0
LINE
  8
0
 10
150.044
 20
27.4977
 11
150.028
 21
27.6978
  0
LINE
  8
0
 10
150.028
 20
27.6978
 11
150.016
 21
27.8981
  0
LINE
  8
0
 10
150.016
 20
27.8981
 11
150.007
 21
28.0986
  0
LINE
  8
0
 10
150.007
 20
28.0986
 11
150.002
 21
28.2993
  0
LINE
  8
0
 10
150.002
 20
28.2993
 11
150
 21
28.5
  0
LINE
  8
0
 10
150
 20
28.5
 11
150.002
 21
28.7007
  0
LINE
  8
0
 10
150.002
 20
28.7007
 11
150.007
 21
28.9013
  0
LINE
  8
0
 10
150.007
 20
28.9013
 11
150.016
 21
29.1019
  0
LINE
  8
0
 10
150.016
 20
29.1019
 11
150.028
 21
29.3022
  0
LINE
  8
0
 10
150.028
 20
29.3022
 11
150.044
 21
29.5023
  0
LINE
  8
0
 10
150.044
 20
29.5023
 11
150.063
 21
29.7021
  0
LINE
  8
0
 10
150.063
 20
29.7021
 11
150.086
 21
29.9015
  0
LINE
  8
0
 10
150.086
 20
29.9015
 11
150.112
 21
30.1005
  0
LINE
  8
0
 10
150.112
 20
30.1005
 11
150.142
 21
30.299
  0
LINE
  8
0
 10
150.142
 20
30.299
 11
150.175
 21
30.4969
  0
LINE
  8
0
 10
150.175
 20
30.4969
 11
150.211
 21
30.6943
  0
LINE
  8
0
 10
150.211
 20
30.6943
 11
150.251
 21
30.891
  0
LINE
  8
0
 10
150.251
 20
30.891
 11
150.295
 21
31.0869
  0
LINE
  8
0
 10
150.295
 20
31.0869
 11
150.342
 21
31.2821
  0
LINE
  8
0
 10
150.342
 20
31.2821
 11
150.392
 21
31.4764
  0
LINE
  8
0
 10
150.392
 20
31.4764
 11
150.445
 21
31.6698
  0
LINE
  8
0
 10
150.445
 20
31.6698
 11
150.503
 21
31.8623
  0
LINE
  8
0
 10
150.503
 20
31.8623
 11
150.563
 21
32.0537
  0
LINE
  8
0
 10
150.563
 20
32.0537
 11
150.627
 21
32.244
  0
LINE
  8
0
 10
150.627
 20
32.244
 11
150.694
 21
32.4332
  0
LINE
  8
0
 10
150.694
 20
32.4332
 11
150.764
 21
32.6212
  0
LINE
  8
0
 10
150.764
 20
32.6212
 11
150.837
 21
32.808
  0
LINE
  8
0
 10
150.837
 20
32.808
 11
150.914
 21
32.9934
  0
LINE
  8
0
 10
150.914
 20
32.9934
 11
150.994
 21
33.1775
  0
LINE
  8
0
 10
150.994
 20
33.1775
 11
151.077
 21
33.3601
  0
LINE
  8
0
 10
151.077
 20
33.3601
 11
151.164
 21
33.5413
  0
LINE
  8
0
 10
151.164
 20
33.5413
 11
151.253
 21
33.7209
  0
LINE
  8
0
 10
151.253
 20
33.7209
 11
151.346
 21
33.8989
  0
LINE
  8
0
 10
151.346
 20
33.8989
 11
151.442
 21
34.0753
  0
LINE
  8
0
 10
151.442
 20
34.0753
 11
151.541
 21
34.25
  0
LINE
  8
0
 10
151.541
 20
34.25
 11
151.643
 21
34.4229
  0
LINE
  8
0
 10
151.643
 20
34.4229
 11
151.747
 21
34.5941
  0
LINE
  8
0
 10
151.747
 20
34.5941
 11
151.855
 21
34.7633
  0
LINE
  8
0
 10
151.855
 20
34.7633
 11
151.966
 21
34.9307
  0
LINE
  8
0
 10
151.966
 20
34.9307
 11
152.08
 21
35.0961
  0
LINE
  8
0
 10
152.08
 20
35.0961
 11
152.196
 21
35.2595
  0
LINE
  8
0
 10
152.196
 20
35.2595
 11
152.316
 21
35.4209
  0
LINE
  8
0
 10
152.316
 20
35.4209
 11
152.438
 21
35.5801
  0
LINE
  8
0
 10
152.438
 20
35.5801
 11
152.563
 21
35.7372
  0
LINE
  8
0
 10
152.563
 20
35.7372
 11
152.69
 21
35.8921
  0
LINE
  8
0
 10
152.69
 20
35.8921
 11
152.821
 21
36.0447
  0
LINE
  8
0
 10
152.821
 20
36.0447
 11
152.954
 21
36.195
  0
LINE
  8
0
 10
152.954
 20
36.195
 11
153.089
 21
36.343
  0
LINE
  8
0
 10
153.089
 20
36.343
 11
153.228
 21
36.4886
  0
LINE
  8
0
 10
153.228
 20
36.4886
 11
153.368
 21
36.6317
  0
LINE
  8
0
 10
153.368
 20
36.6317
 11
153.511
 21
36.7724
  0
LINE
  8
0
 10
153.511
 20
36.7724
 11
153.657
 21
36.9106
  0
LINE
  8
0
 10
153.657
 20
36.9106
 11
153.805
 21
37.0462
  0
LINE
  8
0
 10
153.805
 20
37.0462
 11
153.955
 21
37.1792
  0
LINE
  8
0
 10
153.955
 20
37.1792
 11
154.108
 21
37.3095
  0
LINE
  8
0
 10
154.108
 20
37.3095
 11
154.263
 21
37.4372
  0
LINE
  8
0
 10
154.263
 20
37.4372
 11
154.42
 21
37.5621
  0
LINE
  8
0
 10
154.42
 20
37.5621
 11
154.579
 21
37.6843
  0
LINE
  8
0
 10
154.579
 20
37.6843
 11
154.74
 21
37.8037
  0
LINE
  8
0
 10
154.74
 20
37.8037
 11
154.904
 21
37.9202
  0
LINE
  8
0
 10
154.904
 20
37.9202
 11
155.069
 21
38.0339
  0
LINE
  8
0
 10
155.069
 20
38.0339
 11
155.237
 21
38.1447
  0
LINE
  8
0
 10
155.237
 20
38.1447
 11
155.406
 21
38.2525
  0
LINE
  8
0
 10
155.406
 20
38.2525
 11
155.577
 21
38.3574
  0
LINE
  8
0
 10
155.577
 20
38.3574
 11
155.75
 21
38.4593
  0
LINE
  8
0
 10
155.75
 20
38.4593
 11
155.925
 21
38.5581
  0
LINE
  8
0
 10
155.925
 20
38.5581
 11
156.101
 21
38.6539
  0
LINE
  8
0
 10
156.101
 20
38.6539
 11
156.279
 21
38.7466
  0
LINE
  8
0
 10
156.279
 20
38.7466
 11
156.459
 21
38.8361
  0
LINE
  8
0
 10
156.459
 20
38.8361
 11
156.64
 21
38.9225
  0
LINE
  8
0
 10
156.64
 20
38.9225
 11
156.823
 21
39.0058
  0
LINE
  8
0
 10
156.823
 20
39.0058
 11
157.007
 21
39.0858
  0
LINE
  8
0
 10
157.007
 20
39.0858
 11
157.192
 21
39.1626
  0
LINE
  8
0
 10
157.192
 20
39.1626
 11
157.379
 21
39.2362
  0
LINE
  8
0
 10
157.379
 20
39.2362
 11
157.567
 21
39.3065
  0
LINE
  8
0
 10
157.567
 20
39.3065
 11
157.756
 21
39.3735
  0
LINE
  8
0
 10
157.756
 20
39.3735
 11
157.946
 21
39.4371
  0
LINE
  8
0
 10
157.946
 20
39.4371
 11
158.138
 21
39.4975
  0
LINE
  8
0
 10
158.138
 20
39.4975
 11
158.33
 21
39.5545
  0
LINE
  8
0
 10
158.33
 20
39.5545
 11
158.524
 21
39.6081
  0
LINE
  8
0
 10
158.524
 20
39.6081
 11
158.718
 21
39.6584
  0
LINE
  8
0
 10
158.718
 20
39.6584
 11
158.913
 21
39.7052
  0
LINE
  8
0
 10
158.913
 20
39.7052
 11
159.109
 21
39.7487
  0
LINE
  8
0
 10
159.109
 20
39.7487
 11
159.306
 21
39.7887
  0
LINE
  8
0
 10
159.306
 20
39.7887
 11
159.503
 21
39.8253
  0
LINE
  8
0
 10
159.503
 20
39.8253
 11
159.701
 21
39.8584
  0
LINE
  8
0
 10
159.701
 20
39.8584
 11
159.9
 21
39.8881
  0
LINE
  8
0
 10
159.9
 20
39.8881
 11
160.099
 21
39.9143
  0
LINE
  8
0
 10
160.099
 20
39.9143
 11
160.298
 21
39.937
  0
LINE
  8
0
 10
160.298
 20
39.937
 11
160.498
 21
39.9562
  0
LINE
  8
0
 10
160.498
 20
39.9562
 11
160.698
 21
39.972
  0
LINE
  8
0
 10
160.698
 20
39.972
 11
160.898
 21
39.9842
  0
LINE
  8
0
 10
160.898
 20
39.9842
 11
161.099
 21
39.993
  0
LINE
  8
0
 10
161.099
 20
39.993
 11
161.299
 21
39.9982
  0
LINE
  8
0
 10
161.299
 20
39.9982
 11
161.5
 21
40
  0
LINE
  8
0
 10
161.5
 20
40
 11
161.701
 21
39.9982
  0
LINE
  8
0
 10
161.701
 20
39.9982
 11
161.901
 21
39.993
  0
LINE
  8
0
 10
161.901
 20
39.993
 11
162.102
 21
39.9842
  0
LINE
  8
0
 10
162.102
 20
39.9842
 11
162.302
 21
39.972
  0
LINE
  8
0
 10
162.302
 20
39.972
 11
162.502
 21
39.9562
  0
LINE
  8
0
 10
162.502
 20
39.9562
 11
162.702
 21
39.937
  0
LINE
  8
0
 10
162.702
 20
39.937
 11
162.901
 21
39.9143
  0
LINE
  8
0
 10
162.901
 20
39.9143
 11
163.1
 21
39.8881
  0
LINE
  8
0
 10
163.1
 20
39.8881
 11
163.299
 21
39.8584
  0
LINE
  8
0
 10
163.299
 20
39.8584
 11
163.497
 21
39.8253
  0
LINE
  8
0
 10
163.497
 20
39.8253
 11
163.694
 21
39.7887
  0
LINE
  8
0
 10
163.694
 20
39.7887
 11
163.891
 21
39.7487
  0
LINE
  8
0
 10
163.891
 20
39.7487
 11
164.087
 21
39.7052
  0
LINE
  8
0
 10
164.087
 20
39.7052
 11
164.282
 21
39.6584
  0
LINE
  8
0
 10
164.282
 20
39.6584
 11
164.476
 21
39.6081
  0
LINE
  8
0
 10
164.476
 20
39.6081
 11
164.67
 21
39.5545
  0
LINE
  8
0
 10
164.67
 20
39.5545
 11
164.862
 21
39.4975
  0
LINE
  8
0
 10
164.862
 20
39.4975
 11
165.054
 21
39.4371
  0
LINE
  8
0
 10
165.054
 20
39.4371
 11
165.244
 21
39.3735
  0
LINE
  8
0
 10
165.244
 20
39.3735
 11
165.433
 21
39.3065
  0
LINE
  8
0
 10
165.433
 20
39.3065
 11
165.621
 21
39.2362
  0
LINE
  8
0
 10
165.621
 20
39.2362
 11
165.808
 21
39.1626
  0
LINE
  8
0
 10
165.808
 20
39.1626
 11
165.993
 21
39.0858
  0
LINE
  8
0
 10
165.993
 20
39.0858
 11
166.177
 21
39.0058
  0
LINE
  8
0
 10
166.177
 20
39.0058
 11
166.36
 21
38.9225
  0
LINE
  8
0
 10
166.36
 20
38.9225
 11
166.541
 21
38.8361
  0
LINE
  8
0
 10
166.541
 20
38.8361
 11
166.721
 21
38.7466
  0
LINE
  8
0
 10
166.721
 20
38.7466
 11
166.899
 21
38.6539
  0
LINE
  8
0
 10
166.899
 20
38.6539
 11
167.075
 21
38.5581
  0
LINE
  8
0
 10
167.075
 20
38.5581
 11
167.25
 21
38.4593
  0
LINE
  8
0
 10
167.25
 20
38.4593
 11
167.423
 21
38.3574
  0
LINE
  8
0
 10
167.423
 20
38.3574
 11
167.594
 21
38.2525
  0
LINE
  8
0
 10
167.594
 20
38.2525
 11
167.763
 21
38.1447
  0
LINE
  8
0
 10
167.763
 20
38.1447
 11
167.931
 21
38.0339
  0
LINE
  8
0
 10
167.931
 20
38.0339
 11
168.096
 21
37.9202
  0
LINE
  8
0
 10
168.096
 20
37.9202
 11
168.26
 21
37.8037
  0
LINE
  8
0
 10
168.26
 20
37.8037
 11
168.421
 21
37.6843
  0
LINE
  8
0
 10
168.421
 20
37.6843
 11
168.58
 21
37.5621
  0
LINE
  8
0
 10
168.58
 20
37.5621
 11
168.737
 21
37.4372
  0
LINE
  8
0
 10
168.737
 20
37.4372
 11
168.892
 21
37.3095
  0
LINE
  8
0
 10
168.892
 20
37.3095
 11
169.045
 21
37.1792
  0
LINE
  8
0
 10
169.045
 20
37.1792
 11
169.195
 21
37.0462
  0
LINE
  8
0
 10
169.195
 20
37.0462
 11
169.343
 21
36.9106
  0
LINE
  8
0
 10
169.343
 20
36.9106
 11
169.489
 21
36.7724
  0
LINE
  8
0
 10
169.489
 20
36.7724
 11
169.632
 21
36.6317
  0
LINE
  8
0
 10
169.632
 20
36.6317
 11
169.772
 21
36.4886
  0
LINE
  8
0
 10
169.772
 20
36.4886
 11
169.911
 21
36.343
  0
LINE
  8
0
 10
169.911
 20
36.343
 11
170.046
 21
36.195
  0
LINE
  8
0
 10
170.046
 20
36.195
 11
170.179
 21
36.0447
  0
LINE
  8
0
 10
170.179
 20
36.0447
 11
170.31
 21
35.8921
  0
LINE
  8
0
 10
170.31
 20
35.8921
 11
170.437
 21
35.7372
  0
LINE
  8
0
 10
170.437
 20
35.7372
 11
170.562
 21
35.5801
  0
LINE
  8
0
 10
170.562
 20
35.5801
 11
170.684
 21
35.4209
  0
LINE
  8
0
 10
170.684
 20
35.4209
 11
170.804
 21
35.2595
  0
LINE
  8
0
 10
170.804
 20
35.2595
 11
170.92
 21
35.0961
  0
LINE
  8
0
 10
170.92
 20
35.0961
 11
171.034
 21
34.9307
  0
LINE
  8
0
 10
171.034
 20
34.9307
 11
171.145
 21
34.7633
  0
LINE
  8
0
 10
171.145
 20
34.7633
 11
171.253
 21
34.5941
  0
LINE
  8
0
 10
171.253
 20
34.5941
 11
171.357
 21
34.4229
  0
LINE
  8
0
 10
171.357
 20
34.4229
 11
171.459
 21
34.25
  0
LINE
  8
0
 10
171.459
 20
34.25
 11
171.558
 21
34.0753
  0
LINE
  8
0
 10
171.558
 20
34.0753
 11
171.654
 21
33.8989
  0
LINE
  8
0
 10
171.654
 20
33.8989
 11
171.747
 21
33.7209
  0
LINE
  8
0
 10
171.747
 20
33.7209
 11
171.836
 21
33.5413
  0
LINE
  8
0
 10
171.836
 20
33.5413
 11
171.923
 21
33.3601
  0
LINE
  8
0
 10
171.923
 20
33.3601
 11
172.006
 21
33.1775
  0
LINE
  8
0
 10
172.006
 20
33.1775
 11
172.086
 21
32.9934
  0
LINE
  8
0
 10
172.086
 20
32.9934
 11
172.163
 21
32.808
  0
LINE
  8
0
 10
172.163
 20
32.808
 11
172.236
 21
32.6212
  0
LINE
  8
0
 10
172.236
 20
32.6212
 11
172.306
 21
32.4332
  0
LINE
  8
0
 10
172.306
 20
32.4332
 11
172.373
 21
32.244
  0
LINE
  8
0
 10
172.373
 20
32.244
 11
172.437
 21
32.0537
  0
LINE
  8
0
 10
172.437
 20
32.0537
 11
172.497
 21
31.8623
  0
LINE
  8
0
 10
172.497
 20
31.8623
 11
172.555
 21
31.6698
  0
LINE
  8
0
 10
172.555
 20
31.6698
 11
172.608
 21
31.4764
  0
LINE
  8
0
 10
172.608
 20
31.4764
 11
172.658
 21
31.2821
  0
LINE
  8
0
 10
172.658
 20
31.2821
 11
172.705
 21
31.0869
  0
LINE
  8
0
 10
172.705
 20
31.0869
 11
172.749
 21
30.891
  0
LINE
  8
0
 10
172.749
 20
30.891
 11
172.789
 21
30.6943
  0
LINE
  8
0
 10
172.789
 20
30.6943
 11
172.825
 21
30.4969
  0
LINE
  8
0
 10
172.825
 20
30.4969
 11
172.858
 21
30.299
  0
LINE
  8
0
 10
172.858
 20
30.299
 11
172.888
 21
30.1005
  0
LINE
  8
0
 10
172.888
 20
30.1005
 11
172.914
 21
29.9015
  0
LINE
  8
0
 10
172.914
 20
29.9015
 11
172.937
 21
29.7021
  0
LINE
  8
0
 10
172.937
 20
29.7021
 11
172.956
 21
29.5023
  0
LINE
  8
0
 10
172.956
 20
29.5023
 11
172.972
 21
29.3022
  0
LINE
  8
0
 10
172.972
 20
29.3022
 11
172.984
 21
29.1019
  0
LINE
  8
0
 10
172.984
 20
29.1019
 11
172.993
 21
28.9013
  0
LINE
  8
0
 10
172.993
 20
28.9013
 11
172.998
 21
28.7007
  0
LINE
  8
0
 10
172.998
 20
28.7007
 11
173
 21
28.5
  0
LINE
  8
0
 10
173
 20
28.5
 11
172.998
 21
28.2993
  0
LINE
  8
0
 10
172.998
 20
28.2993
 11
172.993
 21
28.0986
  0
LINE
  8
0
 10
172.993
 20
28.0986
 11
172.984
 21
27.8981
  0
LINE
  8
0
 10
172.984
 20
27.8981
 11
172.972
 21
27.6978
  0
LINE
  8
0
 10
172.972
 20
27.6978
 11
172.956
 21
27.4977
  0
LINE
  8
0
 10
172.956
 20
27.4977
 11
172.937
 21
27.2979
  0
LINE
  8
0
 10
172.937
 20
27.2979
 11
172.914
 21
27.0985
  0
LINE
  8
0
 10
172.914
 20
27.0985
 11
172.888
 21
26.8995
  0
LINE
  8
0
 10
172.888
 20
26.8995
 11
172.858
 21
26.701
  0
LINE
  8
0
 10
172.858
 20
26.701
 11
172.825
 21
26.503
  0
LINE
  8
0
 10
172.825
 20
26.503
 11
172.789
 21
26.3057
  0
LINE
  8
0
 10
172.789
 20
26.3057
 11
172.749
 21
26.109
  0
LINE
  8
0
 10
172.749
 20
26.109
 11
172.705
 21
25.9131
  0
LINE
  8
0
 10
172.705
 20
25.9131
 11
172.658
 21
25.7179
  0
LINE
  8
0
 10
172.658
 20
25.7179
 11
172.608
 21
25.5236
  0
LINE
  8
0
 10
172.608
 20
25.5236
 11
172.555
 21
25.3302
  0
LINE
  8
0
 10
172.555
 20
25.3302
 11
172.497
 21
25.1377
  0
LINE
  8
0
 10
172.497
 20
25.1377
 11
172.437
 21
24.9463
  0
LINE
  8
0
 10
172.437
 20
24.9463
 11
172.373
 21
24.756
  0
LINE
  8
0
 10
172.373
 20
24.756
 11
172.306
 21
24.5668
  0
LINE
  8
0
 10
172.306
 20
24.5668
 11
172.236
 21
24.3788
  0
LINE
  8
0
 10
172.236
 20
24.3788
 11
172.163
 21
24.192
  0
LINE
  8
0
 10
172.163
 20
24.192
 11
172.086
 21
24.0066
  0
LINE
  8
0
 10
172.086
 20
24.0066
 11
172.006
 21
23.8225
  0
LINE
  8
0
 10
172.006
 20
23.8225
 11
171.923
 21
23.6399
  0
LINE
  8
0
 10
171.923
 20
23.6399
 11
171.836
 21
23.4587
  0
LINE
  8
0
 10
171.836
 20
23.4587
 11
171.747
 21
23.2791
  0
LINE
  8
0
 10
171.747
 20
23.2791
 11
171.654
 21
23.1011
  0
LINE
  8
0
 10
171.654
 20
23.1011
 11
171.558
 21
22.9247
  0
LINE
  8
0
 10
171.558
 20
22.9247
 11
171.459
 21
22.75
  0
LINE
  8
0
 10
171.459
 20
22.75
 11
171.357
 21
22.5771
  0
LINE
  8
0
 10
171.357
 20
22.5771
 11
171.253
 21
22.4059
  0
LINE
  8
0
 10
171.253
 20
22.4059
 11
171.145
 21
22.2366
  0
LINE
  8
0
 10
171.145
 20
22.2366
 11
171.034
 21
22.0693
  0
LINE
  8
0
 10
171.034
 20
22.0693
 11
170.92
 21
21.9039
  0
LINE
  8
0
 10
170.92
 20
21.9039
 11
170.804
 21
21.7405
  0
LINE
  8
0
 10
170.804
 20
21.7405
 11
170.684
 21
21.5791
  0
LINE
  8
0
 10
170.684
 20
21.5791
 11
170.562
 21
21.4199
  0
LINE
  8
0
 10
170.562
 20
21.4199
 11
170.437
 21
21.2628
  0
LINE
  8
0
 10
170.437
 20
21.2628
 11
170.31
 21
21.1079
  0
LINE
  8
0
 10
170.31
 20
21.1079
 11
170.179
 21
20.9553
  0
LINE
  8
0
 10
170.179
 20
20.9553
 11
170.046
 21
20.805
  0
LINE
  8
0
 10
170.046
 20
20.805
 11
169.911
 21
20.657
  0
LINE
  8
0
 10
169.911
 20
20.657
 11
169.772
 21
20.5114
  0
LINE
  8
0
 10
169.772
 20
20.5114
 11
169.632
 21
20.3683
  0
LINE
  8
0
 10
169.632
 20
20.3683
 11
169.489
 21
20.2276
  0
LINE
  8
0
 10
169.489
 20
20.2276
 11
169.343
 21
20.0894
  0
LINE
  8
0
 10
169.343
 20
20.0894
 11
169.195
 21
19.9538
  0
LINE
  8
0
 10
169.195
 20
19.9538
 11
169.045
 21
19.8208
  0
LINE
  8
0
 10
169.045
 20
19.8208
 11
168.892
 21
19.6905
  0
LINE
  8
0
 10
168.892
 20
19.6905
 11
168.737
 21
19.5628
  0
LINE
  8
0
 10
168.737
 20
19.5628
 11
168.58
 21
19.4379
  0
LINE
  8
0
 10
168.58
 20
19.4379
 11
168.421
 21
19.3157
  0
LINE
  8
0
 10
168.421
 20
19.3157
 11
168.26
 21
19.1963
  0
LINE
  8
0
 10
168.26
 20
19.1963
 11
168.096
 21
19.0797
  0
LINE
  8
0
 10
168.096
 20
19.0797
 11
167.931
 21
18.9661
  0
LINE
  8
0
 10
167.931
 20
18.9661
 11
167.763
 21
18.8553
  0
LINE
  8
0
 10
167.763
 20
18.8553
 11
167.594
 21
18.7474
  0
LINE
  8
0
 10
167.594
 20
18.7474
 11
167.423
 21
18.6426
  0
LINE
  8
0
 10
167.423
 20
18.6426
 11
167.25
 21
18.5407
  0
LINE
  8
0
 10
167.25
 20
18.5407
 11
167.075
 21
18.4419
  0
LINE
  8
0
 10
167.075
 20
18.4419
 11
166.899
 21
18.3461
  0
LINE
  8
0
 10
166.899
 20
18.3461
 11
166.721
 21
18.2534
  0
LINE
  8
0
 10
166.721
 20
18.2534
 11
166.541
 21
18.1639
  0
LINE
  8
0
 10
166.541
 20
18.1639
 11
166.36
 21
18.0775
  0
LINE
  8
0
 10
166.36
 20
18.0775
 11
166.177
 21
17.9942
  0
LINE
  8
0
 10
166.177
 20
17.9942
 11
165.993
 21
17.9142
  0
LINE
  8
0
 10
165.993
 20
17.9142
 11
165.808
 21
17.8374
  0
LINE
  8
0
 10
165.808
 20
17.8374
 11
165.621
 21
17.7638
  0
LINE
  8
0
 10
165.621
 20
17.7638
 11
165.433
 21
17.6935
  0
LINE
  8
0
 10
165.433
 20
17.6935
 11
165.244
 21
17.6265
  0
LINE
  8
0
 10
165.244
 20
17.6265
 11
165.054
 21
17.5629
  0
LINE
  8
0
 10
165.054
 20
17.5629
 11
164.862
 21
17.5025
  0
LINE
  8
0
 10
164.862
 20
17.5025
 11
164.67
 21
17.4455
  0
LINE
  8
0
 10
164.67
 20
17.4455
 11
164.476
 21
17.3918
  0
LINE
  8
0
 10
164.476
 20
17.3918
 11
164.282
 21
17.3416
  0
LINE
  8
0
 10
164.282
 20
17.3416
 11
164.087
 21
17.2947
  0
LINE
  8
0
 10
164.087
 20
17.2947
 11
163.891
 21
17.2513
  0
LINE
  8
0
 10
163.891
 20
17.2513
 11
163.694
 21
17.2113
  0
LINE
  8
0
 10
163.694
 20
17.2113
 11
163.497
 21
17.1747
  0
LINE
  8
0
 10
163.497
 20
17.1747
 11
163.299
 21
17.1416
  0
LINE
  8
0
 10
163.299
 20
17.1416
 11
163.1
 21
17.1119
  0
LINE
  8
0
 10
163.1
 20
17.1119
 11
162.901
 21
17.0857
  0
LINE
  8
0
 10
162.901
 20
17.0857
 11
162.702
 21
17.063
  0
LINE
  8
0
 10
162.702
 20
17.063
 11
162.502
 21
17.0438
  0
LINE
  8
0
 10
162.502
 20
17.0438
 11
162.302
 21
17.028
  0
LINE
  8
0
 10
162.302
 20
17.028
 11
162.102
 21
17.0157
  0
LINE
  8
0
 10
162.102
 20
17.0157
 11
161.901
 21
17.007
  0
LINE
  8
0
 10
161.901
 20
17.007
 11
161.701
 21
17.0017
  0
LINE
  8
0
 10
161.701
 20
17.0017
 11
161.5
 21
17
  0
LINE
  8
0
 10
161.5
 20
17
 11
161.299
 21
17.0017
  0
LINE
  8
0
 10
71.608
 20
28.7705
 11
71.2203
 21
28.8319
  0
LINE
  8
0
 10
71.2203
 20
28.8319
 11
70.8412
 21
28.9335
  0
LINE
  8
0
 10
70.8412
 20
28.9335
 11
70.4747
 21
29.0742
  0
LINE
  8
0
 10
70.4747
 20
29.0742
 11
70.125
 21
29.2524
  0
LINE
  8
0
 10
70.125
 20
29.2524
 11
69.7958
 21
29.4662
  0
LINE
  8
0
 10
69.7958
 20
29.4662
 11
69.4908
 21
29.7132
  0
LINE
  8
0
 10
69.4908
 20
29.7132
 11
69.2132
 21
29.9908
  0
LINE
  8
0
 10
69.2132
 20
29.9908
 11
68.9662
 21
30.2958
  0
LINE
  8
0
 10
68.9662
 20
30.2958
 11
68.7524
 21
30.625
  0
LINE
  8
0
 10
68.7524
 20
30.625
 11
68.5742
 21
30.9747
  0
LINE
  8
0
 10
68.5742
 20
30.9747
 11
68.4335
 21
31.3412
  0
LINE
  8
0
 10
68.4335
 20
31.3412
 11
68.3319
 21
31.7203
  0
LINE
  8
0
 10
68.3319
 20
31.7203
 11
68.2705
 21
32.108
  0
LINE
  8
0
 10
68.2705
 20
32.108
 11
68.25
 21
32.5
  0
LINE
  8
0
 10
68.25
 20
32.5
 11
68.2705
 21
32.892
  0
LINE
  8
0
 10
68.2705
 20
32.892
 11
68.3319
 21
33.2797
  0
LINE
  8
0
 10
68.3319
 20
33.2797
 11
68.4335
 21
33.6588
  0
LINE
  8
0
 10
68.4335
 20
33.6588
 11
68.5742
 21
34.0253
  0
LINE
  8
0
 10
68.5742
 20
34.0253
 11
68.7524
 21
34.375
  0
LINE
  8
0
 10
68.7524
 20
34.375
 11
68.9662
 21
34.7042
  0
LINE
  8
0
 10
68.9662
 20
34.7042
 11
69.2132
 21
35.0092
  0
LINE
  8
0
 10
69.2132
 20
35.0092
 11
69.4908
 21
35.2868
  0
LINE
  8
0
 10
69.4908
 20
35.2868
 11
69.7958
 21
35.5338
  0
LINE
  8
0
 10
69.7958
 20
35.5338
 11
70.125
 21
35.7476
  0
LINE
  8
0
 10
70.125
 20
35.7476
 11
70.4747
 21
35.9258
  0
LINE
  8
0
 10
70.4747
 20
35.9258
 11
70.8412
 21
36.0665
  0
LINE
  8
0
 10
70.8412
 20
36.0665
 11
71.2203
 21
36.168
  0
LINE
  8
0
 10
71.2203
 20
36.168
 11
71.608
 21
36.2294
  0
LINE
  8
0
 10
71.608
 20
36.2294
 11
72
 21
36.25
  0
LINE
  8
0
 10
72
 20
36.25
 11
72.392
 21
36.2294
  0
LINE
  8
0
 10
72.392
 20
36.2294
 11
72.7797
 21
36.168
  0
LINE
  8
0
 10
72.7797
 20
36.168
 11
73.1588
 21
36.0665
  0
LINE
  8
0
 10
73.1588
 20
36.0665
 11
73.5253
 21
35.9258
  0
LINE
  8
0
 10
73.5253
 20
35.9258
 11
73.875
 21
35.7476
  0
LINE
  8
0
 10
73.875
 20
35.7476
 11
74.2042
 21
35.5338
  0
LINE
  8
0
 10
74.2042
 20
35.5338
 11
74.5092
 21
35.2868
  0
LINE
  8
0
 10
74.5092
 20
35.2868
 11
74.7868
 21
35.0092
  0
LINE
  8
0
 10
74.7868
 20
35.0092
 11
75.0338
 21
34.7042
  0
LINE
  8
0
 10
75.0338
 20
34.7042
 11
75.2476
 21
34.375
  0
LINE
  8
0
 10
75.2476
 20
34.375
 11
75.4258
 21
34.0253
  0
LINE
  8
0
 10
75.4258
 20
34.0253
 11
75.5665
 21
33.6588
  0
LINE
  8
0
 10
75.5665
 20
33.6588
 11
75.668
 21
33.2797
  0
LINE
  8
0
 10
75.668
 20
33.2797
 11
75.7294
 21
32.892
  0
LINE
  8
0
 10
75.7294
 20
32.892
 11
75.75
 21
32.5
  0
LINE
  8
0
 10
75.75
 20
32.5
 11
75.7294
 21
32.108
  0
LINE
  8
0
 10
75.7294
 20
32.108
 11
75.668
 21
31.7203
  0
LINE
  8
0
 10
75.668
 20
31.7203
 11
75.5665
 21
31.3412
  0
LINE
  8
0
 10
75.5665
 20
31.3412
 11
75.4258
 21
30.9747
  0
LINE
  8
0
 10
75.4258
 20
30.9747
 11
75.2476
 21
30.625
  0
LINE
  8
0
 10
75.2476
 20
30.625
 11
75.0338
 21
30.2958
  0
LINE
  8
0
 10
75.0338
 20
30.2958
 11
74.7868
 21
29.9908
  0
LINE
  8
0
 10
74.7868
 20
29.9908
 11
74.5092
 21
29.7132
  0
LINE
  8
0
 10
74.5092
 20
29.7132
 11
74.2042
 21
29.4662
  0
LINE
  8
0
 10
74.2042
 20
29.4662
 11
73.875
 21
29.2524
  0
LINE
  8
0
 10
73.875
 20
29.2524
 11
73.5253
 21
29.0742
  0
LINE
  8
0
 10
73.5253
 20
29.0742
 11
73.1588
 21
28.9335
  0
LINE
  8
0
 10
73.1588
 20
28.9335
 11
72.7797
 21
28.8319
  0
LINE
  8
0
 10
72.7797
 20
28.8319
 11
72.392
 21
28.7705
  0
LINE
  8
0
 10
72.392
 20
28.7705
 11
72
 21
28.75
  0
LINE
  8
0
 10
72
 20
28.75
 11
71.608
 21
28.7705
  0
LINE
  8
0
 10
89.176
 20
11.317
 11
88.8555
 21
11.3677
  0
LINE
  8
0
 10
88.8555
 20
11.3677
 11
88.542
 21
11.4517
  0
LINE
  8
0
 10
88.542
 20
11.4517
 11
88.2391
 21
11.568
  0
LINE
  8
0
 10
88.2391
 20
11.568
 11
87.95
 21
11.7153
  0
LINE
  8
0
 10
87.95
 20
11.7153
 11
87.6779
 21
11.892
  0
LINE
  8
0
 10
87.6779
 20
11.892
 11
87.4257
 21
12.0962
  0
LINE
  8
0
 10
87.4257
 20
12.0962
 11
87.1962
 21
12.3257
  0
LINE
  8
0
 10
87.1962
 20
12.3257
 11
86.9921
 21
12.5779
  0
LINE
  8
0
 10
86.9921
 20
12.5779
 11
86.8153
 21
12.85
  0
LINE
  8
0
 10
86.8153
 20
12.85
 11
86.668
 21
13.1391
  0
LINE
  8
0
 10
86.668
 20
13.1391
 11
86.5517
 21
13.442
  0
LINE
  8
0
 10
86.5517
 20
13.442
 11
86.5
 21
13.6351
  0
LINE
  8
0
 10
86.5
 20
13.6351
 11
86.5
 21
11.9
  0
LINE
  8
0
 10
86.5
 20
11.9
 11
76.5
 21
11.9
  0
LINE
  8
0
 10
76.5
 20
11.9
 11
76.5
 21
16.9
  0
LINE
  8
0
 10
76.5
 20
16.9
 11
86.5
 21
16.9
  0
LINE
  8
0
 10
86.5
 20
16.9
 11
86.5
 21
15.1649
  0
LINE
  8
0
 10
86.5
 20
15.1649
 11
86.5517
 21
15.3579
  0
LINE
  8
0
 10
86.5517
 20
15.3579
 11
86.668
 21
15.6609
  0
LINE
  8
0
 10
86.668
 20
15.6609
 11
86.8153
 21
15.95
  0
LINE
  8
0
 10
86.8153
 20
15.95
 11
86.9921
 21
16.2221
  0
LINE
  8
0
 10
86.9921
 20
16.2221
 11
87.1962
 21
16.4743
  0
LINE
  8
0
 10
87.1962
 20
16.4743
 11
87.4257
 21
16.7037
  0
LINE
  8
0
 10
87.4257
 20
16.7037
 11
87.6779
 21
16.9079
  0
LINE
  8
0
 10
87.6779
 20
16.9079
 11
87.95
 21
17.0847
  0
LINE
  8
0
 10
87.95
 20
17.0847
 11
88.2391
 21
17.232
  0
LINE
  8
0
 10
88.2391
 20
17.232
 11
88.542
 21
17.3483
  0
LINE
  8
0
 10
88.542
 20
17.3483
 11
88.8555
 21
17.4323
  0
LINE
  8
0
 10
88.8555
 20
17.4323
 11
89.176
 21
17.483
  0
LINE
  8
0
 10
89.176
 20
17.483
 11
89.5
 21
17.5
  0
LINE
  8
0
 10
89.5
 20
17.5
 11
89.824
 21
17.483
  0
LINE
  8
0
 10
89.824
 20
17.483
 11
90.1445
 21
17.4323
  0
LINE
  8
0
 10
90.1445
 20
17.4323
 11
90.4579
 21
17.3483
  0
LINE
  8
0
 10
90.4579
 20
17.3483
 11
90.7609
 21
17.232
  0
LINE
  8
0
 10
90.7609
 20
17.232
 11
91.05
 21
17.0847
  0
LINE
  8
0
 10
91.05
 20
17.0847
 11
91.3221
 21
16.9079
  0
LINE
  8
0
 10
91.3221
 20
16.9079
 11
91.5743
 21
16.7037
  0
LINE
  8
0
 10
91.5743
 20
16.7037
 11
91.8037
 21
16.4743
  0
LINE
  8
0
 10
91.8037
 20
16.4743
 11
92.0079
 21
16.2221
  0
LINE
  8
0
 10
92.0079
 20
16.2221
 11
92.1847
 21
15.95
  0
LINE
  8
0
 10
92.1847
 20
15.95
 11
92.332
 21
15.6609
  0
LINE
  8
0
 10
92.332
 20
15.6609
 11
92.4483
 21
15.3579
  0
LINE
  8
0
 10
92.4483
 20
15.3579
 11
92.5
 21
15.1649
  0
LINE
  8
0
 10
92.5
 20
15.1649
 11
92.5
 21
16.9
  0
LINE
  8
0
 10
92.5
 20
16.9
 11
102.5
 21
16.9
  0
LINE
  8
0
 10
102.5
 20
16.9
 11
102.5
 21
11.9
  0
LINE
  8
0
 10
102.5
 20
11.9
 11
92.5
 21
11.9
  0
LINE
  8
0
 10
92.5
 20
11.9
 11
92.5
 21
13.6351
  0
LINE
  8
0
 10
92.5
 20
13.6351
 11
92.4483
 21
13.442
  0
LINE
  8
0
 10
92.4483
 20
13.442
 11
92.332
 21
13.1391
  0
LINE
  8
0
 10
92.332
 20
13.1391
 11
92.1847
 21
12.85
  0
LINE
  8
0
 10
92.1847
 20
12.85
 11
92.0079
 21
12.5779
  0
LINE
  8
0
 10
92.0079
 20
12.5779
 11
91.8037
 21
12.3257
  0
LINE
  8
0
 10
91.8037
 20
12.3257
 11
91.5743
 21
12.0962
  0
LINE
  8
0
 10
91.5743
 20
12.0962
 11
91.3221
 21
11.892
  0
LINE
  8
0
 10
91.3221
 20
11.892
 11
91.05
 21
11.7153
  0
LINE
  8
0
 10
91.05
 20
11.7153
 11
90.7609
 21
11.568
  0
LINE
  8
0
 10
90.7609
 20
11.568
 11
90.4579
 21
11.4517
  0
LINE
  8
0
 10
90.4579
 20
11.4517
 11
90.1445
 21
11.3677
  0
LINE
  8
0
 10
90.1445
 20
11.3677
 11
89.824
 21
11.317
  0
LINE
  8
0
 10
89.824
 20
11.317
 11
89.5
 21
11.3
  0
LINE
  8
0
 10
89.5
 20
11.3
 11
89.176
 21
11.317
  0
ENDSEC
  0
SECTION
  2
OBJECTS
  0
DICTIONARY
  0
ENDSEC
  0
EOF
