  0
SECTION
  2
BLOCKS
  0
ENDSEC
  0
SECTION
  2
ENTITIES
  0
LINE
  8
0
 10
-57.1667
 20
3
 11
-46.3333
 21
3
  0
LINE
  8
0
 10
-46.3333
 20
3
 11
-46.3333
 21
0
  0
LINE
  8
0
 10
-46.3333
 20
0
 11
-35.5
 21
0
  0
LINE
  8
0
 10
-35.5
 20
0
 11
-35.5
 21
3
  0
LINE
  8
0
 10
-35.5
 20
3
 11
-24.6667
 21
3
  0
LINE
  8
0
 10
-24.6667
 20
3
 11
-24.6667
 21
0
  0
LINE
  8
0
 10
-24.6667
 20
0
 11
-13.8333
 21
0
  0
LINE
  8
0
 10
-13.8333
 20
0
 11
-13.8333
 21
3
  0
LINE
  8
0
 10
-13.8333
 20
3
 11
-3
 21
3
  0
LINE
  8
0
 10
-3
 20
3
 11
-3
 21
14.825
  0
LINE
  8
0
 10
-3
 20
14.825
 11
0.0999908
 21
14.825
  0
LINE
  8
0
 10
0.0999908
 20
14.825
 11
0.0999908
 21
26.55
  0
LINE
  8
0
 10
0.0999908
 20
26.55
 11
-3
 21
26.55
  0
LINE
  8
0
 10
-3
 20
26.55
 11
-3
 21
38.275
  0
LINE
  8
0
 10
-3
 20
38.275
 11
0.0999908
 21
38.275
  0
LINE
  8
0
 10
0.0999908
 20
38.275
 11
0.0999908
 21
50
  0
LINE
  8
0
 10
0.0999908
 20
50
 11
-3
 21
50
  0
LINE
  8
0
 10
-3
 20
50
 11
-3
 21
61.725
  0
LINE
  8
0
 10
-3
 20
61.725
 11
0.0999908
 21
61.725
  0
LINE
  8
0
 10
0.0999908
 20
61.725
 11
0.0999908
 21
73.45
  0
LINE
  8
0
 10
0.0999908
 20
73.45
 11
-3
 21
73.45
  0
LINE
  8
0
 10
-3
 20
73.45
 11
-3
 21
85.175
  0
LINE
  8
0
 10
-3
 20
85.175
 11
0.0999908
 21
85.175
  0
LINE
  8
0
 10
0.0999908
 20
85.175
 11
0.0999908
 21
96.9
  0
LINE
  8
0
 10
0.0999908
 20
96.9
 11
-3
 21
96.9
  0
LINE
  8
0
 10
-3
 20
96.9
 11
-3
 21
100
  0
LINE
  8
0
 10
-3
 20
100
 11
-13.8333
 21
100
  0
LINE
  8
0
 10
-13.8333
 20
100
 11
-13.8333
 21
97
  0
LINE
  8
0
 10
-13.8333
 20
97
 11
-24.6667
 21
97
  0
LINE
  8
0
 10
-24.6667
 20
97
 11
-24.6667
 21
100
  0
LINE
  8
0
 10
-24.6667
 20
100
 11
-35.5
 21
100
  0
LINE
  8
0
 10
-35.5
 20
100
 11
-35.5
 21
97
  0
LINE
  8
0
 10
-35.5
 20
97
 11
-46.3333
 21
97
  0
LINE
  8
0
 10
-46.3333
 20
97
 11
-46.3333
 21
100
  0
LINE
  8
0
 10
-46.3333
 20
100
 11
-57.1667
 21
100
  0
LINE
  8
0
 10
-57.1667
 20
100
 11
-57.1667
 21
97
  0
LINE
  8
0
 10
-57.1667
 20
97
 11
-68
 21
97
  0
LINE
  8
0
 10
-68
 20
97
 11
-68
 21
85.175
  0
LINE
  8
0
 10
-68
 20
85.175
 11
-71
 21
85.175
  0
LINE
  8
0
 10
-71
 20
85.175
 11
-71
 21
73.45
  0
LINE
  8
0
 10
-71
 20
73.45
 11
-68
 21
73.45
  0
LINE
  8
0
 10
-68
 20
73.45
 11
-68
 21
61.725
  0
LINE
  8
0
 10
-68
 20
61.725
 11
-71
 21
61.725
  0
LINE
  8
0
 10
-71
 20
61.725
 11
-71
 21
50
  0
LINE
  8
0
 10
-71
 20
50
 11
-68
 21
50
  0
LINE
  8
0
 10
-68
 20
50
 11
-68
 21
38.275
  0
LINE
  8
0
 10
-68
 20
38.275
 11
-71
 21
38.275
  0
LINE
  8
0
 10
-71
 20
38.275
 11
-71
 21
26.55
  0
LINE
  8
0
 10
-71
 20
26.55
 11
-68
 21
26.55
  0
LINE
  8
0
 10
-68
 20
26.55
 11
-68
 21
14.825
  0
LINE
  8
0
 10
-68
 20
14.825
 11
-71
 21
14.825
  0
LINE
  8
0
 10
-71
 20
14.825
 11
-71
 21
3.09999
  0
LINE
  8
0
 10
-71
 20
3.09999
 11
-68
 21
3.09999
  0
LINE
  8
0
 10
-68
 20
3.09999
 11
-68
 21
0
  0
LINE
  8
0
 10
-68
 20
0
 11
-57.1667
 21
0
  0
LINE
  8
0
 10
-57.1667
 20
0
 11
-57.1667
 21
3
  0
ENDSEC
  0
SECTION
  2
OBJECTS
  0
DICTIONARY
  0
ENDSEC
  0
EOF
