  0
SECTION
  2
BLOCKS
  0
ENDSEC
  0
SECTION
  2
ENTITIES
  0
LINE
  8
0
 10
-46.3333
 20
3
 11
-35.5
 21
3
  0
LINE
  8
0
 10
-35.5
 20
3
 11
-35.5
 21
0
  0
LINE
  8
0
 10
-35.5
 20
0
 11
-24.6667
 21
0
  0
LINE
  8
0
 10
-24.6667
 20
0
 11
-24.6667
 21
3
  0
LINE
  8
0
 10
-24.6667
 20
3
 11
-13.8333
 21
3
  0
LINE
  8
0
 10
-13.8333
 20
3
 11
-13.8333
 21
0
  0
LINE
  8
0
 10
-13.8333
 20
0
 11
-3
 21
0
  0
LINE
  8
0
 10
-3
 20
0
 11
-3
 21
3.09999
  0
LINE
  8
0
 10
-3
 20
3.09999
 11
0.0999908
 21
3.09999
  0
LINE
  8
0
 10
0.0999908
 20
3.09999
 11
0.0999908
 21
14.825
  0
LINE
  8
0
 10
0.0999908
 20
14.825
 11
-3
 21
14.825
  0
LINE
  8
0
 10
-3
 20
14.825
 11
-3
 21
26.55
  0
LINE
  8
0
 10
-3
 20
26.55
 11
0.0999908
 21
26.55
  0
LINE
  8
0
 10
0.0999908
 20
26.55
 11
0.0999908
 21
38.275
  0
LINE
  8
0
 10
0.0999908
 20
38.275
 11
-3
 21
38.275
  0
LINE
  8
0
 10
-3
 20
38.275
 11
-3
 21
50
  0
LINE
  8
0
 10
-3
 20
50
 11
0.0999908
 21
50
  0
LINE
  8
0
 10
0.0999908
 20
50
 11
0.0999908
 21
61.725
  0
LINE
  8
0
 10
0.0999908
 20
61.725
 11
-3
 21
61.725
  0
LINE
  8
0
 10
-3
 20
61.725
 11
-3
 21
73.45
  0
LINE
  8
0
 10
-3
 20
73.45
 11
0.0999908
 21
73.45
  0
LINE
  8
0
 10
0.0999908
 20
73.45
 11
0.0999908
 21
85.175
  0
LINE
  8
0
 10
0.0999908
 20
85.175
 11
-3
 21
85.175
  0
LINE
  8
0
 10
-3
 20
85.175
 11
-3
 21
97
  0
LINE
  8
0
 10
-3
 20
97
 11
-13.8333
 21
97
  0
LINE
  8
0
 10
-13.8333
 20
97
 11
-13.8333
 21
100
  0
LINE
  8
0
 10
-13.8333
 20
100
 11
-24.6667
 21
100
  0
LINE
  8
0
 10
-24.6667
 20
100
 11
-24.6667
 21
97
  0
LINE
  8
0
 10
-24.6667
 20
97
 11
-35.5
 21
97
  0
LINE
  8
0
 10
-35.5
 20
97
 11
-35.5
 21
100
  0
LINE
  8
0
 10
-35.5
 20
100
 11
-46.3333
 21
100
  0
LINE
  8
0
 10
-46.3333
 20
100
 11
-46.3333
 21
97
  0
LINE
  8
0
 10
-46.3333
 20
97
 11
-57.1667
 21
97
  0
LINE
  8
0
 10
-57.1667
 20
97
 11
-57.1667
 21
100
  0
LINE
  8
0
 10
-57.1667
 20
100
 11
-68
 21
100
  0
LINE
  8
0
 10
-68
 20
100
 11
-68
 21
96.9
  0
LINE
  8
0
 10
-68
 20
96.9
 11
-71
 21
96.9
  0
LINE
  8
0
 10
-71
 20
96.9
 11
-71
 21
85.175
  0
LINE
  8
0
 10
-71
 20
85.175
 11
-68
 21
85.175
  0
LINE
  8
0
 10
-68
 20
85.175
 11
-68
 21
73.45
  0
LINE
  8
0
 10
-68
 20
73.45
 11
-71
 21
73.45
  0
LINE
  8
0
 10
-71
 20
73.45
 11
-71
 21
61.725
  0
LINE
  8
0
 10
-71
 20
61.725
 11
-68
 21
61.725
  0
LINE
  8
0
 10
-68
 20
61.725
 11
-68
 21
50
  0
LINE
  8
0
 10
-68
 20
50
 11
-71
 21
50
  0
LINE
  8
0
 10
-71
 20
50
 11
-71
 21
38.275
  0
LINE
  8
0
 10
-71
 20
38.275
 11
-68
 21
38.275
  0
LINE
  8
0
 10
-68
 20
38.275
 11
-68
 21
26.55
  0
LINE
  8
0
 10
-68
 20
26.55
 11
-71
 21
26.55
  0
LINE
  8
0
 10
-71
 20
26.55
 11
-71
 21
14.825
  0
LINE
  8
0
 10
-71
 20
14.825
 11
-68
 21
14.825
  0
LINE
  8
0
 10
-68
 20
14.825
 11
-68
 21
3
  0
LINE
  8
0
 10
-68
 20
3
 11
-57.1667
 21
3
  0
LINE
  8
0
 10
-57.1667
 20
3
 11
-57.1667
 21
0
  0
LINE
  8
0
 10
-57.1667
 20
0
 11
-46.3333
 21
0
  0
LINE
  8
0
 10
-46.3333
 20
0
 11
-46.3333
 21
3
  0
LINE
  8
0
 10
-17.2294
 20
82.4356
 11
-17.9014
 21
82.542
  0
LINE
  8
0
 10
-17.9014
 20
82.542
 11
-18.5586
 21
82.7181
  0
LINE
  8
0
 10
-18.5586
 20
82.7181
 11
-19.1938
 21
82.9619
  0
LINE
  8
0
 10
-19.1938
 20
82.9619
 11
-19.8
 21
83.2708
  0
LINE
  8
0
 10
-19.8
 20
83.2708
 11
-20.3706
 21
83.6414
  0
LINE
  8
0
 10
-20.3706
 20
83.6414
 11
-20.8993
 21
84.0695
  0
LINE
  8
0
 10
-20.8993
 20
84.0695
 11
-21.3804
 21
84.5506
  0
LINE
  8
0
 10
-21.3804
 20
84.5506
 11
-21.8086
 21
85.0794
  0
LINE
  8
0
 10
-21.8086
 20
85.0794
 11
-22.1792
 21
85.65
  0
LINE
  8
0
 10
-22.1792
 20
85.65
 11
-22.488
 21
86.2562
  0
LINE
  8
0
 10
-22.488
 20
86.2562
 11
-22.7319
 21
86.8914
  0
LINE
  8
0
 10
-22.7319
 20
86.8914
 11
-22.908
 21
87.5486
  0
LINE
  8
0
 10
-22.908
 20
87.5486
 11
-23.0144
 21
88.2206
  0
LINE
  8
0
 10
-23.0144
 20
88.2206
 11
-23.05
 21
88.9
  0
LINE
  8
0
 10
-23.05
 20
88.9
 11
-23.0144
 21
89.5794
  0
LINE
  8
0
 10
-23.0144
 20
89.5794
 11
-22.908
 21
90.2514
  0
LINE
  8
0
 10
-22.908
 20
90.2514
 11
-22.7319
 21
90.9086
  0
LINE
  8
0
 10
-22.7319
 20
90.9086
 11
-22.488
 21
91.5438
  0
LINE
  8
0
 10
-22.488
 20
91.5438
 11
-22.1792
 21
92.15
  0
LINE
  8
0
 10
-22.1792
 20
92.15
 11
-21.8086
 21
92.7206
  0
LINE
  8
0
 10
-21.8086
 20
92.7206
 11
-21.3804
 21
93.2493
  0
LINE
  8
0
 10
-21.3804
 20
93.2493
 11
-20.8993
 21
93.7304
  0
LINE
  8
0
 10
-20.8993
 20
93.7304
 11
-20.3706
 21
94.1586
  0
LINE
  8
0
 10
-20.3706
 20
94.1586
 11
-19.8
 21
94.5292
  0
LINE
  8
0
 10
-19.8
 20
94.5292
 11
-19.1938
 21
94.838
  0
LINE
  8
0
 10
-19.1938
 20
94.838
 11
-18.5586
 21
95.0819
  0
LINE
  8
0
 10
-18.5586
 20
95.0819
 11
-17.9014
 21
95.2579
  0
LINE
  8
0
 10
-17.9014
 20
95.2579
 11
-17.2294
 21
95.3644
  0
LINE
  8
0
 10
-17.2294
 20
95.3644
 11
-16.55
 21
95.4
  0
LINE
  8
0
 10
-16.55
 20
95.4
 11
-15.8706
 21
95.3644
  0
LINE
  8
0
 10
-15.8706
 20
95.3644
 11
-15.1986
 21
95.2579
  0
LINE
  8
0
 10
-15.1986
 20
95.2579
 11
-14.5414
 21
95.0819
  0
LINE
  8
0
 10
-14.5414
 20
95.0819
 11
-13.9062
 21
94.838
  0
LINE
  8
0
 10
-13.9062
 20
94.838
 11
-13.3
 21
94.5292
  0
LINE
  8
0
 10
-13.3
 20
94.5292
 11
-12.7294
 21
94.1586
  0
LINE
  8
0
 10
-12.7294
 20
94.1586
 11
-12.2006
 21
93.7304
  0
LINE
  8
0
 10
-12.2006
 20
93.7304
 11
-11.7195
 21
93.2493
  0
LINE
  8
0
 10
-11.7195
 20
93.2493
 11
-11.2914
 21
92.7206
  0
LINE
  8
0
 10
-11.2914
 20
92.7206
 11
-10.9208
 21
92.15
  0
LINE
  8
0
 10
-10.9208
 20
92.15
 11
-10.612
 21
91.5438
  0
LINE
  8
0
 10
-10.612
 20
91.5438
 11
-10.3681
 21
90.9086
  0
LINE
  8
0
 10
-10.3681
 20
90.9086
 11
-10.192
 21
90.2514
  0
LINE
  8
0
 10
-10.192
 20
90.2514
 11
-10.0856
 21
89.5794
  0
LINE
  8
0
 10
-10.0856
 20
89.5794
 11
-10.05
 21
88.9
  0
LINE
  8
0
 10
-10.05
 20
88.9
 11
-10.0856
 21
88.2206
  0
LINE
  8
0
 10
-10.0856
 20
88.2206
 11
-10.192
 21
87.5486
  0
LINE
  8
0
 10
-10.192
 20
87.5486
 11
-10.3681
 21
86.8914
  0
LINE
  8
0
 10
-10.3681
 20
86.8914
 11
-10.612
 21
86.2562
  0
LINE
  8
0
 10
-10.612
 20
86.2562
 11
-10.9208
 21
85.65
  0
LINE
  8
0
 10
-10.9208
 20
85.65
 11
-11.2914
 21
85.0794
  0
LINE
  8
0
 10
-11.2914
 20
85.0794
 11
-11.7195
 21
84.5506
  0
LINE
  8
0
 10
-11.7195
 20
84.5506
 11
-12.2006
 21
84.0695
  0
LINE
  8
0
 10
-12.2006
 20
84.0695
 11
-12.7294
 21
83.6414
  0
LINE
  8
0
 10
-12.7294
 20
83.6414
 11
-13.3
 21
83.2708
  0
LINE
  8
0
 10
-13.3
 20
83.2708
 11
-13.9062
 21
82.9619
  0
LINE
  8
0
 10
-13.9062
 20
82.9619
 11
-14.5414
 21
82.7181
  0
LINE
  8
0
 10
-14.5414
 20
82.7181
 11
-15.1986
 21
82.542
  0
LINE
  8
0
 10
-15.1986
 20
82.542
 11
-15.8706
 21
82.4356
  0
LINE
  8
0
 10
-15.8706
 20
82.4356
 11
-16.55
 21
82.4
  0
LINE
  8
0
 10
-16.55
 20
82.4
 11
-17.2294
 21
82.4356
  0
LINE
  8
0
 10
-27.75
 20
59.9
 11
-27.75
 21
68.9
  0
LINE
  8
0
 10
-27.75
 20
68.9
 11
-21.75
 21
68.9
  0
LINE
  8
0
 10
-21.75
 20
68.9
 11
-21.75
 21
59.9
  0
LINE
  8
0
 10
-21.75
 20
59.9
 11
-27.75
 21
59.9
  0
LINE
  8
0
 10
-17.2294
 20
33.4356
 11
-17.9014
 21
33.542
  0
LINE
  8
0
 10
-17.9014
 20
33.542
 11
-18.5586
 21
33.7181
  0
LINE
  8
0
 10
-18.5586
 20
33.7181
 11
-19.1938
 21
33.9619
  0
LINE
  8
0
 10
-19.1938
 20
33.9619
 11
-19.8
 21
34.2708
  0
LINE
  8
0
 10
-19.8
 20
34.2708
 11
-20.3706
 21
34.6414
  0
LINE
  8
0
 10
-20.3706
 20
34.6414
 11
-20.8993
 21
35.0695
  0
LINE
  8
0
 10
-20.8993
 20
35.0695
 11
-21.3804
 21
35.5506
  0
LINE
  8
0
 10
-21.3804
 20
35.5506
 11
-21.8086
 21
36.0794
  0
LINE
  8
0
 10
-21.8086
 20
36.0794
 11
-22.1792
 21
36.65
  0
LINE
  8
0
 10
-22.1792
 20
36.65
 11
-22.488
 21
37.2562
  0
LINE
  8
0
 10
-22.488
 20
37.2562
 11
-22.7319
 21
37.8914
  0
LINE
  8
0
 10
-22.7319
 20
37.8914
 11
-22.908
 21
38.5486
  0
LINE
  8
0
 10
-22.908
 20
38.5486
 11
-23.0144
 21
39.2206
  0
LINE
  8
0
 10
-23.0144
 20
39.2206
 11
-23.05
 21
39.9
  0
LINE
  8
0
 10
-23.05
 20
39.9
 11
-23.0144
 21
40.5794
  0
LINE
  8
0
 10
-23.0144
 20
40.5794
 11
-22.908
 21
41.2514
  0
LINE
  8
0
 10
-22.908
 20
41.2514
 11
-22.7319
 21
41.9086
  0
LINE
  8
0
 10
-22.7319
 20
41.9086
 11
-22.488
 21
42.5438
  0
LINE
  8
0
 10
-22.488
 20
42.5438
 11
-22.1792
 21
43.15
  0
LINE
  8
0
 10
-22.1792
 20
43.15
 11
-21.8086
 21
43.7206
  0
LINE
  8
0
 10
-21.8086
 20
43.7206
 11
-21.3804
 21
44.2493
  0
LINE
  8
0
 10
-21.3804
 20
44.2493
 11
-20.8993
 21
44.7304
  0
LINE
  8
0
 10
-20.8993
 20
44.7304
 11
-20.3706
 21
45.1586
  0
LINE
  8
0
 10
-20.3706
 20
45.1586
 11
-19.8
 21
45.5292
  0
LINE
  8
0
 10
-19.8
 20
45.5292
 11
-19.1938
 21
45.838
  0
LINE
  8
0
 10
-19.1938
 20
45.838
 11
-18.5586
 21
46.0819
  0
LINE
  8
0
 10
-18.5586
 20
46.0819
 11
-17.9014
 21
46.2579
  0
LINE
  8
0
 10
-17.9014
 20
46.2579
 11
-17.2294
 21
46.3644
  0
LINE
  8
0
 10
-17.2294
 20
46.3644
 11
-16.55
 21
46.4
  0
LINE
  8
0
 10
-16.55
 20
46.4
 11
-15.8706
 21
46.3644
  0
LINE
  8
0
 10
-15.8706
 20
46.3644
 11
-15.1986
 21
46.2579
  0
LINE
  8
0
 10
-15.1986
 20
46.2579
 11
-14.5414
 21
46.0819
  0
LINE
  8
0
 10
-14.5414
 20
46.0819
 11
-13.9062
 21
45.838
  0
LINE
  8
0
 10
-13.9062
 20
45.838
 11
-13.3
 21
45.5292
  0
LINE
  8
0
 10
-13.3
 20
45.5292
 11
-12.7294
 21
45.1586
  0
LINE
  8
0
 10
-12.7294
 20
45.1586
 11
-12.2006
 21
44.7304
  0
LINE
  8
0
 10
-12.2006
 20
44.7304
 11
-11.7195
 21
44.2493
  0
LINE
  8
0
 10
-11.7195
 20
44.2493
 11
-11.2914
 21
43.7206
  0
LINE
  8
0
 10
-11.2914
 20
43.7206
 11
-10.9208
 21
43.15
  0
LINE
  8
0
 10
-10.9208
 20
43.15
 11
-10.612
 21
42.5438
  0
LINE
  8
0
 10
-10.612
 20
42.5438
 11
-10.3681
 21
41.9086
  0
LINE
  8
0
 10
-10.3681
 20
41.9086
 11
-10.192
 21
41.2514
  0
LINE
  8
0
 10
-10.192
 20
41.2514
 11
-10.0856
 21
40.5794
  0
LINE
  8
0
 10
-10.0856
 20
40.5794
 11
-10.05
 21
39.9
  0
LINE
  8
0
 10
-10.05
 20
39.9
 11
-10.0856
 21
39.2206
  0
LINE
  8
0
 10
-10.0856
 20
39.2206
 11
-10.192
 21
38.5486
  0
LINE
  8
0
 10
-10.192
 20
38.5486
 11
-10.3681
 21
37.8914
  0
LINE
  8
0
 10
-10.3681
 20
37.8914
 11
-10.612
 21
37.2562
  0
LINE
  8
0
 10
-10.612
 20
37.2562
 11
-10.9208
 21
36.65
  0
LINE
  8
0
 10
-10.9208
 20
36.65
 11
-11.2914
 21
36.0794
  0
LINE
  8
0
 10
-11.2914
 20
36.0794
 11
-11.7195
 21
35.5506
  0
LINE
  8
0
 10
-11.7195
 20
35.5506
 11
-12.2006
 21
35.0695
  0
LINE
  8
0
 10
-12.2006
 20
35.0695
 11
-12.7294
 21
34.6414
  0
LINE
  8
0
 10
-12.7294
 20
34.6414
 11
-13.3
 21
34.2708
  0
LINE
  8
0
 10
-13.3
 20
34.2708
 11
-13.9062
 21
33.9619
  0
LINE
  8
0
 10
-13.9062
 20
33.9619
 11
-14.5414
 21
33.7181
  0
LINE
  8
0
 10
-14.5414
 20
33.7181
 11
-15.1986
 21
33.542
  0
LINE
  8
0
 10
-15.1986
 20
33.542
 11
-15.8706
 21
33.4356
  0
LINE
  8
0
 10
-15.8706
 20
33.4356
 11
-16.55
 21
33.4
  0
LINE
  8
0
 10
-16.55
 20
33.4
 11
-17.2294
 21
33.4356
  0
LINE
  8
0
 10
-26.1047
 20
11.0009
 11
-26.2094
 21
11.0036
  0
LINE
  8
0
 10
-26.2094
 20
11.0036
 11
-26.314
 21
11.0082
  0
LINE
  8
0
 10
-26.314
 20
11.0082
 11
-26.4185
 21
11.0146
  0
LINE
  8
0
 10
-26.4185
 20
11.0146
 11
-26.5229
 21
11.0228
  0
LINE
  8
0
 10
-26.5229
 20
11.0228
 11
-26.6272
 21
11.0329
  0
LINE
  8
0
 10
-26.6272
 20
11.0329
 11
-26.7312
 21
11.0447
  0
LINE
  8
0
 10
-26.7312
 20
11.0447
 11
-26.835
 21
11.0584
  0
LINE
  8
0
 10
-26.835
 20
11.0584
 11
-26.9386
 21
11.0739
  0
LINE
  8
0
 10
-26.9386
 20
11.0739
 11
-27.0419
 21
11.0911
  0
LINE
  8
0
 10
-27.0419
 20
11.0911
 11
-27.1449
 21
11.1102
  0
LINE
  8
0
 10
-27.1449
 20
11.1102
 11
-27.2475
 21
11.1311
  0
LINE
  8
0
 10
-27.2475
 20
11.1311
 11
-27.3497
 21
11.1538
  0
LINE
  8
0
 10
-27.3497
 20
11.1538
 11
-27.4515
 21
11.1782
  0
LINE
  8
0
 10
-27.4515
 20
11.1782
 11
-27.5529
 21
11.2044
  0
LINE
  8
0
 10
-27.5529
 20
11.2044
 11
-27.6538
 21
11.2324
  0
LINE
  8
0
 10
-27.6538
 20
11.2324
 11
-27.7542
 21
11.2622
  0
LINE
  8
0
 10
-27.7542
 20
11.2622
 11
-27.8541
 21
11.2937
  0
LINE
  8
0
 10
-27.8541
 20
11.2937
 11
-27.9534
 21
11.3269
  0
LINE
  8
0
 10
-27.9534
 20
11.3269
 11
-28.0521
 21
11.3618
  0
LINE
  8
0
 10
-28.0521
 20
11.3618
 11
-28.1502
 21
11.3985
  0
LINE
  8
0
 10
-28.1502
 20
11.3985
 11
-28.2476
 21
11.4369
  0
LINE
  8
0
 10
-28.2476
 20
11.4369
 11
-28.3444
 21
11.477
  0
LINE
  8
0
 10
-28.3444
 20
11.477
 11
-28.4404
 21
11.5187
  0
LINE
  8
0
 10
-28.4404
 20
11.5187
 11
-28.5357
 21
11.5621
  0
LINE
  8
0
 10
-28.5357
 20
11.5621
 11
-28.6302
 21
11.6072
  0
LINE
  8
0
 10
-28.6302
 20
11.6072
 11
-28.7239
 21
11.6539
  0
LINE
  8
0
 10
-28.7239
 20
11.6539
 11
-28.8168
 21
11.7023
  0
LINE
  8
0
 10
-28.8168
 20
11.7023
 11
-28.9088
 21
11.7523
  0
LINE
  8
0
 10
-28.9088
 20
11.7523
 11
-29
 21
11.8038
  0
LINE
  8
0
 10
-29
 20
11.8038
 11
-29.0902
 21
11.857
  0
LINE
  8
0
 10
-29.0902
 20
11.857
 11
-29.1795
 21
11.9117
  0
LINE
  8
0
 10
-29.1795
 20
11.9117
 11
-29.2678
 21
11.968
  0
LINE
  8
0
 10
-29.2678
 20
11.968
 11
-29.3551
 21
12.0258
  0
LINE
  8
0
 10
-29.3551
 20
12.0258
 11
-29.4415
 21
12.0851
  0
LINE
  8
0
 10
-29.4415
 20
12.0851
 11
-29.5267
 21
12.1459
  0
LINE
  8
0
 10
-29.5267
 20
12.1459
 11
-29.6109
 21
12.2082
  0
LINE
  8
0
 10
-29.6109
 20
12.2082
 11
-29.694
 21
12.2719
  0
LINE
  8
0
 10
-29.694
 20
12.2719
 11
-29.7759
 21
12.3371
  0
LINE
  8
0
 10
-29.7759
 20
12.3371
 11
-29.8567
 21
12.4037
  0
LINE
  8
0
 10
-29.8567
 20
12.4037
 11
-29.9363
 21
12.4717
  0
LINE
  8
0
 10
-29.9363
 20
12.4717
 11
-30.0148
 21
12.5411
  0
LINE
  8
0
 10
-30.0148
 20
12.5411
 11
-30.092
 21
12.6119
  0
LINE
  8
0
 10
-30.092
 20
12.6119
 11
-30.1679
 21
12.684
  0
LINE
  8
0
 10
-30.1679
 20
12.684
 11
-30.2426
 21
12.7574
  0
LINE
  8
0
 10
-30.2426
 20
12.7574
 11
-30.316
 21
12.832
  0
LINE
  8
0
 10
-30.316
 20
12.832
 11
-30.3881
 21
12.908
  0
LINE
  8
0
 10
-30.3881
 20
12.908
 11
-30.4589
 21
12.9852
  0
LINE
  8
0
 10
-30.4589
 20
12.9852
 11
-30.5282
 21
13.0636
  0
LINE
  8
0
 10
-30.5282
 20
13.0636
 11
-30.5963
 21
13.1433
  0
LINE
  8
0
 10
-30.5963
 20
13.1433
 11
-30.6629
 21
13.2241
  0
LINE
  8
0
 10
-30.6629
 20
13.2241
 11
-30.7281
 21
13.306
  0
LINE
  8
0
 10
-30.7281
 20
13.306
 11
-30.7918
 21
13.3891
  0
LINE
  8
0
 10
-30.7918
 20
13.3891
 11
-30.8541
 21
13.4733
  0
LINE
  8
0
 10
-30.8541
 20
13.4733
 11
-30.9149
 21
13.5585
  0
LINE
  8
0
 10
-30.9149
 20
13.5585
 11
-30.9742
 21
13.6448
  0
LINE
  8
0
 10
-30.9742
 20
13.6448
 11
-31.032
 21
13.7322
  0
LINE
  8
0
 10
-31.032
 20
13.7322
 11
-31.0883
 21
13.8205
  0
LINE
  8
0
 10
-31.0883
 20
13.8205
 11
-31.143
 21
13.9098
  0
LINE
  8
0
 10
-31.143
 20
13.9098
 11
-31.1962
 21
14
  0
LINE
  8
0
 10
-31.1962
 20
14
 11
-31.2477
 21
14.0911
  0
LINE
  8
0
 10
-31.2477
 20
14.0911
 11
-31.2977
 21
14.1832
  0
LINE
  8
0
 10
-31.2977
 20
14.1832
 11
-31.346
 21
14.276
  0
LINE
  8
0
 10
-31.346
 20
14.276
 11
-31.3928
 21
14.3698
  0
LINE
  8
0
 10
-31.3928
 20
14.3698
 11
-31.4378
 21
14.4643
  0
LINE
  8
0
 10
-31.4378
 20
14.4643
 11
-31.4813
 21
14.5596
  0
LINE
  8
0
 10
-31.4813
 20
14.5596
 11
-31.523
 21
14.6556
  0
LINE
  8
0
 10
-31.523
 20
14.6556
 11
-31.5631
 21
14.7523
  0
LINE
  8
0
 10
-31.5631
 20
14.7523
 11
-31.6015
 21
14.8498
  0
LINE
  8
0
 10
-31.6015
 20
14.8498
 11
-31.6382
 21
14.9479
  0
LINE
  8
0
 10
-31.6382
 20
14.9479
 11
-31.6731
 21
15.0466
  0
LINE
  8
0
 10
-31.6731
 20
15.0466
 11
-31.7063
 21
15.1459
  0
LINE
  8
0
 10
-31.7063
 20
15.1459
 11
-31.7378
 21
15.2458
  0
LINE
  8
0
 10
-31.7378
 20
15.2458
 11
-31.7676
 21
15.3462
  0
LINE
  8
0
 10
-31.7676
 20
15.3462
 11
-31.7955
 21
15.4471
  0
LINE
  8
0
 10
-31.7955
 20
15.4471
 11
-31.8218
 21
15.5485
  0
LINE
  8
0
 10
-31.8218
 20
15.5485
 11
-31.8462
 21
15.6503
  0
LINE
  8
0
 10
-31.8462
 20
15.6503
 11
-31.8689
 21
15.7525
  0
LINE
  8
0
 10
-31.8689
 20
15.7525
 11
-31.8898
 21
15.8551
  0
LINE
  8
0
 10
-31.8898
 20
15.8551
 11
-31.9088
 21
15.9581
  0
LINE
  8
0
 10
-31.9088
 20
15.9581
 11
-31.9261
 21
16.0614
  0
LINE
  8
0
 10
-31.9261
 20
16.0614
 11
-31.9416
 21
16.1649
  0
LINE
  8
0
 10
-31.9416
 20
16.1649
 11
-31.9553
 21
16.2688
  0
LINE
  8
0
 10
-31.9553
 20
16.2688
 11
-31.9671
 21
16.3728
  0
LINE
  8
0
 10
-31.9671
 20
16.3728
 11
-31.9772
 21
16.4771
  0
LINE
  8
0
 10
-31.9772
 20
16.4771
 11
-31.9854
 21
16.5815
  0
LINE
  8
0
 10
-31.9854
 20
16.5815
 11
-31.9918
 21
16.686
  0
LINE
  8
0
 10
-31.9918
 20
16.686
 11
-31.9963
 21
16.7906
  0
LINE
  8
0
 10
-31.9963
 20
16.7906
 11
-31.9991
 21
16.8953
  0
LINE
  8
0
 10
-31.9991
 20
16.8953
 11
-32
 21
17
  0
LINE
  8
0
 10
-32
 20
17
 11
-31.9991
 21
17.1047
  0
LINE
  8
0
 10
-31.9991
 20
17.1047
 11
-31.9963
 21
17.2094
  0
LINE
  8
0
 10
-31.9963
 20
17.2094
 11
-31.9918
 21
17.314
  0
LINE
  8
0
 10
-31.9918
 20
17.314
 11
-31.9854
 21
17.4185
  0
LINE
  8
0
 10
-31.9854
 20
17.4185
 11
-31.9772
 21
17.5229
  0
LINE
  8
0
 10
-31.9772
 20
17.5229
 11
-31.9671
 21
17.6272
  0
LINE
  8
0
 10
-31.9671
 20
17.6272
 11
-31.9553
 21
17.7312
  0
LINE
  8
0
 10
-31.9553
 20
17.7312
 11
-31.9416
 21
17.835
  0
LINE
  8
0
 10
-31.9416
 20
17.835
 11
-31.9261
 21
17.9386
  0
LINE
  8
0
 10
-31.9261
 20
17.9386
 11
-31.9088
 21
18.0419
  0
LINE
  8
0
 10
-31.9088
 20
18.0419
 11
-31.8898
 21
18.1449
  0
LINE
  8
0
 10
-31.8898
 20
18.1449
 11
-31.8689
 21
18.2475
  0
LINE
  8
0
 10
-31.8689
 20
18.2475
 11
-31.8462
 21
18.3497
  0
LINE
  8
0
 10
-31.8462
 20
18.3497
 11
-31.8218
 21
18.4515
  0
LINE
  8
0
 10
-31.8218
 20
18.4515
 11
-31.7955
 21
18.5529
  0
LINE
  8
0
 10
-31.7955
 20
18.5529
 11
-31.7676
 21
18.6538
  0
LINE
  8
0
 10
-31.7676
 20
18.6538
 11
-31.7378
 21
18.7542
  0
LINE
  8
0
 10
-31.7378
 20
18.7542
 11
-31.7063
 21
18.8541
  0
LINE
  8
0
 10
-31.7063
 20
18.8541
 11
-31.6731
 21
18.9534
  0
LINE
  8
0
 10
-31.6731
 20
18.9534
 11
-31.6382
 21
19.0521
  0
LINE
  8
0
 10
-31.6382
 20
19.0521
 11
-31.6015
 21
19.1502
  0
LINE
  8
0
 10
-31.6015
 20
19.1502
 11
-31.5631
 21
19.2476
  0
LINE
  8
0
 10
-31.5631
 20
19.2476
 11
-31.523
 21
19.3444
  0
LINE
  8
0
 10
-31.523
 20
19.3444
 11
-31.4813
 21
19.4404
  0
LINE
  8
0
 10
-31.4813
 20
19.4404
 11
-31.4378
 21
19.5357
  0
LINE
  8
0
 10
-31.4378
 20
19.5357
 11
-31.3928
 21
19.6302
  0
LINE
  8
0
 10
-31.3928
 20
19.6302
 11
-31.346
 21
19.7239
  0
LINE
  8
0
 10
-31.346
 20
19.7239
 11
-31.2977
 21
19.8168
  0
LINE
  8
0
 10
-31.2977
 20
19.8168
 11
-31.2477
 21
19.9088
  0
LINE
  8
0
 10
-31.2477
 20
19.9088
 11
-31.1962
 21
20
  0
LINE
  8
0
 10
-31.1962
 20
20
 11
-31.143
 21
20.0902
  0
LINE
  8
0
 10
-31.143
 20
20.0902
 11
-31.0883
 21
20.1795
  0
LINE
  8
0
 10
-31.0883
 20
20.1795
 11
-31.032
 21
20.2678
  0
LINE
  8
0
 10
-31.032
 20
20.2678
 11
-30.9742
 21
20.3551
  0
LINE
  8
0
 10
-30.9742
 20
20.3551
 11
-30.9149
 21
20.4415
  0
LINE
  8
0
 10
-30.9149
 20
20.4415
 11
-30.8541
 21
20.5267
  0
LINE
  8
0
 10
-30.8541
 20
20.5267
 11
-30.7918
 21
20.6109
  0
LINE
  8
0
 10
-30.7918
 20
20.6109
 11
-30.7281
 21
20.694
  0
LINE
  8
0
 10
-30.7281
 20
20.694
 11
-30.6629
 21
20.7759
  0
LINE
  8
0
 10
-30.6629
 20
20.7759
 11
-30.5963
 21
20.8567
  0
LINE
  8
0
 10
-30.5963
 20
20.8567
 11
-30.5282
 21
20.9363
  0
LINE
  8
0
 10
-30.5282
 20
20.9363
 11
-30.4589
 21
21.0148
  0
LINE
  8
0
 10
-30.4589
 20
21.0148
 11
-30.3881
 21
21.092
  0
LINE
  8
0
 10
-30.3881
 20
21.092
 11
-30.316
 21
21.1679
  0
LINE
  8
0
 10
-30.316
 20
21.1679
 11
-30.2426
 21
21.2426
  0
LINE
  8
0
 10
-30.2426
 20
21.2426
 11
-30.1679
 21
21.316
  0
LINE
  8
0
 10
-30.1679
 20
21.316
 11
-30.092
 21
21.3881
  0
LINE
  8
0
 10
-30.092
 20
21.3881
 11
-30.0148
 21
21.4589
  0
LINE
  8
0
 10
-30.0148
 20
21.4589
 11
-29.9363
 21
21.5282
  0
LINE
  8
0
 10
-29.9363
 20
21.5282
 11
-29.8567
 21
21.5963
  0
LINE
  8
0
 10
-29.8567
 20
21.5963
 11
-29.7759
 21
21.6629
  0
LINE
  8
0
 10
-29.7759
 20
21.6629
 11
-29.694
 21
21.7281
  0
LINE
  8
0
 10
-29.694
 20
21.7281
 11
-29.6109
 21
21.7918
  0
LINE
  8
0
 10
-29.6109
 20
21.7918
 11
-29.5267
 21
21.8541
  0
LINE
  8
0
 10
-29.5267
 20
21.8541
 11
-29.4415
 21
21.9149
  0
LINE
  8
0
 10
-29.4415
 20
21.9149
 11
-29.3551
 21
21.9742
  0
LINE
  8
0
 10
-29.3551
 20
21.9742
 11
-29.2678
 21
22.032
  0
LINE
  8
0
 10
-29.2678
 20
22.032
 11
-29.1795
 21
22.0883
  0
LINE
  8
0
 10
-29.1795
 20
22.0883
 11
-29.0902
 21
22.143
  0
LINE
  8
0
 10
-29.0902
 20
22.143
 11
-29
 21
22.1962
  0
LINE
  8
0
 10
-29
 20
22.1962
 11
-28.9088
 21
22.2477
  0
LINE
  8
0
 10
-28.9088
 20
22.2477
 11
-28.8168
 21
22.2977
  0
LINE
  8
0
 10
-28.8168
 20
22.2977
 11
-28.7239
 21
22.346
  0
LINE
  8
0
 10
-28.7239
 20
22.346
 11
-28.6302
 21
22.3928
  0
LINE
  8
0
 10
-28.6302
 20
22.3928
 11
-28.5357
 21
22.4378
  0
LINE
  8
0
 10
-28.5357
 20
22.4378
 11
-28.4404
 21
22.4813
  0
LINE
  8
0
 10
-28.4404
 20
22.4813
 11
-28.3444
 21
22.523
  0
LINE
  8
0
 10
-28.3444
 20
22.523
 11
-28.2476
 21
22.5631
  0
LINE
  8
0
 10
-28.2476
 20
22.5631
 11
-28.1502
 21
22.6015
  0
LINE
  8
0
 10
-28.1502
 20
22.6015
 11
-28.0521
 21
22.6382
  0
LINE
  8
0
 10
-28.0521
 20
22.6382
 11
-27.9534
 21
22.6731
  0
LINE
  8
0
 10
-27.9534
 20
22.6731
 11
-27.8541
 21
22.7063
  0
LINE
  8
0
 10
-27.8541
 20
22.7063
 11
-27.7542
 21
22.7378
  0
LINE
  8
0
 10
-27.7542
 20
22.7378
 11
-27.6538
 21
22.7676
  0
LINE
  8
0
 10
-27.6538
 20
22.7676
 11
-27.5529
 21
22.7955
  0
LINE
  8
0
 10
-27.5529
 20
22.7955
 11
-27.4515
 21
22.8218
  0
LINE
  8
0
 10
-27.4515
 20
22.8218
 11
-27.3497
 21
22.8462
  0
LINE
  8
0
 10
-27.3497
 20
22.8462
 11
-27.2475
 21
22.8689
  0
LINE
  8
0
 10
-27.2475
 20
22.8689
 11
-27.1449
 21
22.8898
  0
LINE
  8
0
 10
-27.1449
 20
22.8898
 11
-27.0419
 21
22.9088
  0
LINE
  8
0
 10
-27.0419
 20
22.9088
 11
-26.9386
 21
22.9261
  0
LINE
  8
0
 10
-26.9386
 20
22.9261
 11
-26.835
 21
22.9416
  0
LINE
  8
0
 10
-26.835
 20
22.9416
 11
-26.7312
 21
22.9553
  0
LINE
  8
0
 10
-26.7312
 20
22.9553
 11
-26.6272
 21
22.9671
  0
LINE
  8
0
 10
-26.6272
 20
22.9671
 11
-26.5229
 21
22.9772
  0
LINE
  8
0
 10
-26.5229
 20
22.9772
 11
-26.4185
 21
22.9854
  0
LINE
  8
0
 10
-26.4185
 20
22.9854
 11
-26.314
 21
22.9918
  0
LINE
  8
0
 10
-26.314
 20
22.9918
 11
-26.2094
 21
22.9963
  0
LINE
  8
0
 10
-26.2094
 20
22.9963
 11
-26.1047
 21
22.9991
  0
LINE
  8
0
 10
-26.1047
 20
22.9991
 11
-26
 21
23
  0
LINE
  8
0
 10
-26
 20
23
 11
-25.8953
 21
22.9991
  0
LINE
  8
0
 10
-25.8953
 20
22.9991
 11
-25.7906
 21
22.9963
  0
LINE
  8
0
 10
-25.7906
 20
22.9963
 11
-25.686
 21
22.9918
  0
LINE
  8
0
 10
-25.686
 20
22.9918
 11
-25.5815
 21
22.9854
  0
LINE
  8
0
 10
-25.5815
 20
22.9854
 11
-25.4771
 21
22.9772
  0
LINE
  8
0
 10
-25.4771
 20
22.9772
 11
-25.3728
 21
22.9671
  0
LINE
  8
0
 10
-25.3728
 20
22.9671
 11
-25.2688
 21
22.9553
  0
LINE
  8
0
 10
-25.2688
 20
22.9553
 11
-25.1649
 21
22.9416
  0
LINE
  8
0
 10
-25.1649
 20
22.9416
 11
-25.0614
 21
22.9261
  0
LINE
  8
0
 10
-25.0614
 20
22.9261
 11
-24.9581
 21
22.9088
  0
LINE
  8
0
 10
-24.9581
 20
22.9088
 11
-24.8551
 21
22.8898
  0
LINE
  8
0
 10
-24.8551
 20
22.8898
 11
-24.7525
 21
22.8689
  0
LINE
  8
0
 10
-24.7525
 20
22.8689
 11
-24.6503
 21
22.8462
  0
LINE
  8
0
 10
-24.6503
 20
22.8462
 11
-24.5485
 21
22.8218
  0
LINE
  8
0
 10
-24.5485
 20
22.8218
 11
-24.4471
 21
22.7955
  0
LINE
  8
0
 10
-24.4471
 20
22.7955
 11
-24.3462
 21
22.7676
  0
LINE
  8
0
 10
-24.3462
 20
22.7676
 11
-24.2458
 21
22.7378
  0
LINE
  8
0
 10
-24.2458
 20
22.7378
 11
-24.1459
 21
22.7063
  0
LINE
  8
0
 10
-24.1459
 20
22.7063
 11
-24.0466
 21
22.6731
  0
LINE
  8
0
 10
-24.0466
 20
22.6731
 11
-23.9479
 21
22.6382
  0
LINE
  8
0
 10
-23.9479
 20
22.6382
 11
-23.8498
 21
22.6015
  0
LINE
  8
0
 10
-23.8498
 20
22.6015
 11
-23.7523
 21
22.5631
  0
LINE
  8
0
 10
-23.7523
 20
22.5631
 11
-23.6556
 21
22.523
  0
LINE
  8
0
 10
-23.6556
 20
22.523
 11
-23.5596
 21
22.4813
  0
LINE
  8
0
 10
-23.5596
 20
22.4813
 11
-23.4643
 21
22.4378
  0
LINE
  8
0
 10
-23.4643
 20
22.4378
 11
-23.3698
 21
22.3928
  0
LINE
  8
0
 10
-23.3698
 20
22.3928
 11
-23.276
 21
22.346
  0
LINE
  8
0
 10
-23.276
 20
22.346
 11
-23.1832
 21
22.2977
  0
LINE
  8
0
 10
-23.1832
 20
22.2977
 11
-23.0911
 21
22.2477
  0
LINE
  8
0
 10
-23.0911
 20
22.2477
 11
-23
 21
22.1962
  0
LINE
  8
0
 10
-23
 20
22.1962
 11
-22.9098
 21
22.143
  0
LINE
  8
0
 10
-22.9098
 20
22.143
 11
-22.8205
 21
22.0883
  0
LINE
  8
0
 10
-22.8205
 20
22.0883
 11
-22.7322
 21
22.032
  0
LINE
  8
0
 10
-22.7322
 20
22.032
 11
-22.6448
 21
21.9742
  0
LINE
  8
0
 10
-22.6448
 20
21.9742
 11
-22.5585
 21
21.9149
  0
LINE
  8
0
 10
-22.5585
 20
21.9149
 11
-22.4733
 21
21.8541
  0
LINE
  8
0
 10
-22.4733
 20
21.8541
 11
-22.3891
 21
21.7918
  0
LINE
  8
0
 10
-22.3891
 20
21.7918
 11
-22.306
 21
21.7281
  0
LINE
  8
0
 10
-22.306
 20
21.7281
 11
-22.2241
 21
21.6629
  0
LINE
  8
0
 10
-22.2241
 20
21.6629
 11
-22.1433
 21
21.5963
  0
LINE
  8
0
 10
-22.1433
 20
21.5963
 11
-22.0636
 21
21.5282
  0
LINE
  8
0
 10
-22.0636
 20
21.5282
 11
-21.9852
 21
21.4589
  0
LINE
  8
0
 10
-21.9852
 20
21.4589
 11
-21.908
 21
21.3881
  0
LINE
  8
0
 10
-21.908
 20
21.3881
 11
-21.832
 21
21.316
  0
LINE
  8
0
 10
-21.832
 20
21.316
 11
-21.7574
 21
21.2426
  0
LINE
  8
0
 10
-21.7574
 20
21.2426
 11
-21.684
 21
21.1679
  0
LINE
  8
0
 10
-21.684
 20
21.1679
 11
-21.6119
 21
21.092
  0
LINE
  8
0
 10
-21.6119
 20
21.092
 11
-21.5411
 21
21.0148
  0
LINE
  8
0
 10
-21.5411
 20
21.0148
 11
-21.4717
 21
20.9363
  0
LINE
  8
0
 10
-21.4717
 20
20.9363
 11
-21.4037
 21
20.8567
  0
LINE
  8
0
 10
-21.4037
 20
20.8567
 11
-21.3371
 21
20.7759
  0
LINE
  8
0
 10
-21.3371
 20
20.7759
 11
-21.2719
 21
20.694
  0
LINE
  8
0
 10
-21.2719
 20
20.694
 11
-21.2082
 21
20.6109
  0
LINE
  8
0
 10
-21.2082
 20
20.6109
 11
-21.1459
 21
20.5267
  0
LINE
  8
0
 10
-21.1459
 20
20.5267
 11
-21.0851
 21
20.4415
  0
LINE
  8
0
 10
-21.0851
 20
20.4415
 11
-21.0258
 21
20.3551
  0
LINE
  8
0
 10
-21.0258
 20
20.3551
 11
-20.968
 21
20.2678
  0
LINE
  8
0
 10
-20.968
 20
20.2678
 11
-20.9117
 21
20.1795
  0
LINE
  8
0
 10
-20.9117
 20
20.1795
 11
-20.857
 21
20.0902
  0
LINE
  8
0
 10
-20.857
 20
20.0902
 11
-20.8038
 21
20
  0
LINE
  8
0
 10
-20.8038
 20
20
 11
-20.7523
 21
19.9088
  0
LINE
  8
0
 10
-20.7523
 20
19.9088
 11
-20.7023
 21
19.8168
  0
LINE
  8
0
 10
-20.7023
 20
19.8168
 11
-20.654
 21
19.7239
  0
LINE
  8
0
 10
-20.654
 20
19.7239
 11
-20.6072
 21
19.6302
  0
LINE
  8
0
 10
-20.6072
 20
19.6302
 11
-20.5621
 21
19.5357
  0
LINE
  8
0
 10
-20.5621
 20
19.5357
 11
-20.5187
 21
19.4404
  0
LINE
  8
0
 10
-20.5187
 20
19.4404
 11
-20.477
 21
19.3444
  0
LINE
  8
0
 10
-20.477
 20
19.3444
 11
-20.4369
 21
19.2476
  0
LINE
  8
0
 10
-20.4369
 20
19.2476
 11
-20.3985
 21
19.1502
  0
LINE
  8
0
 10
-20.3985
 20
19.1502
 11
-20.3618
 21
19.0521
  0
LINE
  8
0
 10
-20.3618
 20
19.0521
 11
-20.3269
 21
18.9534
  0
LINE
  8
0
 10
-20.3269
 20
18.9534
 11
-20.2937
 21
18.8541
  0
LINE
  8
0
 10
-20.2937
 20
18.8541
 11
-20.2622
 21
18.7542
  0
LINE
  8
0
 10
-20.2622
 20
18.7542
 11
-20.2324
 21
18.6538
  0
LINE
  8
0
 10
-20.2324
 20
18.6538
 11
-20.2044
 21
18.5529
  0
LINE
  8
0
 10
-20.2044
 20
18.5529
 11
-20.1782
 21
18.4515
  0
LINE
  8
0
 10
-20.1782
 20
18.4515
 11
-20.1538
 21
18.3497
  0
LINE
  8
0
 10
-20.1538
 20
18.3497
 11
-20.1311
 21
18.2475
  0
LINE
  8
0
 10
-20.1311
 20
18.2475
 11
-20.1102
 21
18.1449
  0
LINE
  8
0
 10
-20.1102
 20
18.1449
 11
-20.0911
 21
18.0419
  0
LINE
  8
0
 10
-20.0911
 20
18.0419
 11
-20.0739
 21
17.9386
  0
LINE
  8
0
 10
-20.0739
 20
17.9386
 11
-20.0584
 21
17.835
  0
LINE
  8
0
 10
-20.0584
 20
17.835
 11
-20.0447
 21
17.7312
  0
LINE
  8
0
 10
-20.0447
 20
17.7312
 11
-20.0329
 21
17.6272
  0
LINE
  8
0
 10
-20.0329
 20
17.6272
 11
-20.0228
 21
17.5229
  0
LINE
  8
0
 10
-20.0228
 20
17.5229
 11
-20.0146
 21
17.4185
  0
LINE
  8
0
 10
-20.0146
 20
17.4185
 11
-20.0082
 21
17.314
  0
LINE
  8
0
 10
-20.0082
 20
17.314
 11
-20.0036
 21
17.2094
  0
LINE
  8
0
 10
-20.0036
 20
17.2094
 11
-20.0009
 21
17.1047
  0
LINE
  8
0
 10
-20.0009
 20
17.1047
 11
-20
 21
17
  0
LINE
  8
0
 10
-20
 20
17
 11
-20.0009
 21
16.8953
  0
LINE
  8
0
 10
-20.0009
 20
16.8953
 11
-20.0036
 21
16.7906
  0
LINE
  8
0
 10
-20.0036
 20
16.7906
 11
-20.0082
 21
16.686
  0
LINE
  8
0
 10
-20.0082
 20
16.686
 11
-20.0146
 21
16.5815
  0
LINE
  8
0
 10
-20.0146
 20
16.5815
 11
-20.0228
 21
16.4771
  0
LINE
  8
0
 10
-20.0228
 20
16.4771
 11
-20.0329
 21
16.3728
  0
LINE
  8
0
 10
-20.0329
 20
16.3728
 11
-20.0447
 21
16.2688
  0
LINE
  8
0
 10
-20.0447
 20
16.2688
 11
-20.0584
 21
16.1649
  0
LINE
  8
0
 10
-20.0584
 20
16.1649
 11
-20.0739
 21
16.0614
  0
LINE
  8
0
 10
-20.0739
 20
16.0614
 11
-20.0911
 21
15.9581
  0
LINE
  8
0
 10
-20.0911
 20
15.9581
 11
-20.1102
 21
15.8551
  0
LINE
  8
0
 10
-20.1102
 20
15.8551
 11
-20.1311
 21
15.7525
  0
LINE
  8
0
 10
-20.1311
 20
15.7525
 11
-20.1538
 21
15.6503
  0
LINE
  8
0
 10
-20.1538
 20
15.6503
 11
-20.1782
 21
15.5485
  0
LINE
  8
0
 10
-20.1782
 20
15.5485
 11
-20.2044
 21
15.4471
  0
LINE
  8
0
 10
-20.2044
 20
15.4471
 11
-20.2324
 21
15.3462
  0
LINE
  8
0
 10
-20.2324
 20
15.3462
 11
-20.2622
 21
15.2458
  0
LINE
  8
0
 10
-20.2622
 20
15.2458
 11
-20.2937
 21
15.1459
  0
LINE
  8
0
 10
-20.2937
 20
15.1459
 11
-20.3269
 21
15.0466
  0
LINE
  8
0
 10
-20.3269
 20
15.0466
 11
-20.3618
 21
14.9479
  0
LINE
  8
0
 10
-20.3618
 20
14.9479
 11
-20.3985
 21
14.8498
  0
LINE
  8
0
 10
-20.3985
 20
14.8498
 11
-20.4369
 21
14.7523
  0
LINE
  8
0
 10
-20.4369
 20
14.7523
 11
-20.477
 21
14.6556
  0
LINE
  8
0
 10
-20.477
 20
14.6556
 11
-20.5187
 21
14.5596
  0
LINE
  8
0
 10
-20.5187
 20
14.5596
 11
-20.5621
 21
14.4643
  0
LINE
  8
0
 10
-20.5621
 20
14.4643
 11
-20.6072
 21
14.3698
  0
LINE
  8
0
 10
-20.6072
 20
14.3698
 11
-20.654
 21
14.276
  0
LINE
  8
0
 10
-20.654
 20
14.276
 11
-20.7023
 21
14.1832
  0
LINE
  8
0
 10
-20.7023
 20
14.1832
 11
-20.7523
 21
14.0911
  0
LINE
  8
0
 10
-20.7523
 20
14.0911
 11
-20.8038
 21
14
  0
LINE
  8
0
 10
-20.8038
 20
14
 11
-20.857
 21
13.9098
  0
LINE
  8
0
 10
-20.857
 20
13.9098
 11
-20.9117
 21
13.8205
  0
LINE
  8
0
 10
-20.9117
 20
13.8205
 11
-20.968
 21
13.7322
  0
LINE
  8
0
 10
-20.968
 20
13.7322
 11
-21.0258
 21
13.6448
  0
LINE
  8
0
 10
-21.0258
 20
13.6448
 11
-21.0851
 21
13.5585
  0
LINE
  8
0
 10
-21.0851
 20
13.5585
 11
-21.1459
 21
13.4733
  0
LINE
  8
0
 10
-21.1459
 20
13.4733
 11
-21.2082
 21
13.3891
  0
LINE
  8
0
 10
-21.2082
 20
13.3891
 11
-21.2719
 21
13.306
  0
LINE
  8
0
 10
-21.2719
 20
13.306
 11
-21.3371
 21
13.2241
  0
LINE
  8
0
 10
-21.3371
 20
13.2241
 11
-21.4037
 21
13.1433
  0
LINE
  8
0
 10
-21.4037
 20
13.1433
 11
-21.4717
 21
13.0636
  0
LINE
  8
0
 10
-21.4717
 20
13.0636
 11
-21.5411
 21
12.9852
  0
LINE
  8
0
 10
-21.5411
 20
12.9852
 11
-21.6119
 21
12.908
  0
LINE
  8
0
 10
-21.6119
 20
12.908
 11
-21.684
 21
12.832
  0
LINE
  8
0
 10
-21.684
 20
12.832
 11
-21.7574
 21
12.7574
  0
LINE
  8
0
 10
-21.7574
 20
12.7574
 11
-21.832
 21
12.684
  0
LINE
  8
0
 10
-21.832
 20
12.684
 11
-21.908
 21
12.6119
  0
LINE
  8
0
 10
-21.908
 20
12.6119
 11
-21.9852
 21
12.5411
  0
LINE
  8
0
 10
-21.9852
 20
12.5411
 11
-22.0636
 21
12.4717
  0
LINE
  8
0
 10
-22.0636
 20
12.4717
 11
-22.1433
 21
12.4037
  0
LINE
  8
0
 10
-22.1433
 20
12.4037
 11
-22.2241
 21
12.3371
  0
LINE
  8
0
 10
-22.2241
 20
12.3371
 11
-22.306
 21
12.2719
  0
LINE
  8
0
 10
-22.306
 20
12.2719
 11
-22.3891
 21
12.2082
  0
LINE
  8
0
 10
-22.3891
 20
12.2082
 11
-22.4733
 21
12.1459
  0
LINE
  8
0
 10
-22.4733
 20
12.1459
 11
-22.5585
 21
12.0851
  0
LINE
  8
0
 10
-22.5585
 20
12.0851
 11
-22.6448
 21
12.0258
  0
LINE
  8
0
 10
-22.6448
 20
12.0258
 11
-22.7322
 21
11.968
  0
LINE
  8
0
 10
-22.7322
 20
11.968
 11
-22.8205
 21
11.9117
  0
LINE
  8
0
 10
-22.8205
 20
11.9117
 11
-22.9098
 21
11.857
  0
LINE
  8
0
 10
-22.9098
 20
11.857
 11
-23
 21
11.8038
  0
LINE
  8
0
 10
-23
 20
11.8038
 11
-23.0911
 21
11.7523
  0
LINE
  8
0
 10
-23.0911
 20
11.7523
 11
-23.1832
 21
11.7023
  0
LINE
  8
0
 10
-23.1832
 20
11.7023
 11
-23.276
 21
11.6539
  0
LINE
  8
0
 10
-23.276
 20
11.6539
 11
-23.3698
 21
11.6072
  0
LINE
  8
0
 10
-23.3698
 20
11.6072
 11
-23.4643
 21
11.5621
  0
LINE
  8
0
 10
-23.4643
 20
11.5621
 11
-23.5596
 21
11.5187
  0
LINE
  8
0
 10
-23.5596
 20
11.5187
 11
-23.6556
 21
11.477
  0
LINE
  8
0
 10
-23.6556
 20
11.477
 11
-23.7523
 21
11.4369
  0
LINE
  8
0
 10
-23.7523
 20
11.4369
 11
-23.8498
 21
11.3985
  0
LINE
  8
0
 10
-23.8498
 20
11.3985
 11
-23.9479
 21
11.3618
  0
LINE
  8
0
 10
-23.9479
 20
11.3618
 11
-24.0466
 21
11.3269
  0
LINE
  8
0
 10
-24.0466
 20
11.3269
 11
-24.1459
 21
11.2937
  0
LINE
  8
0
 10
-24.1459
 20
11.2937
 11
-24.2458
 21
11.2622
  0
LINE
  8
0
 10
-24.2458
 20
11.2622
 11
-24.3462
 21
11.2324
  0
LINE
  8
0
 10
-24.3462
 20
11.2324
 11
-24.4471
 21
11.2044
  0
LINE
  8
0
 10
-24.4471
 20
11.2044
 11
-24.5485
 21
11.1782
  0
LINE
  8
0
 10
-24.5485
 20
11.1782
 11
-24.6503
 21
11.1538
  0
LINE
  8
0
 10
-24.6503
 20
11.1538
 11
-24.7525
 21
11.1311
  0
LINE
  8
0
 10
-24.7525
 20
11.1311
 11
-24.8551
 21
11.1102
  0
LINE
  8
0
 10
-24.8551
 20
11.1102
 11
-24.9581
 21
11.0911
  0
LINE
  8
0
 10
-24.9581
 20
11.0911
 11
-25.0614
 21
11.0739
  0
LINE
  8
0
 10
-25.0614
 20
11.0739
 11
-25.1649
 21
11.0584
  0
LINE
  8
0
 10
-25.1649
 20
11.0584
 11
-25.2688
 21
11.0447
  0
LINE
  8
0
 10
-25.2688
 20
11.0447
 11
-25.3728
 21
11.0329
  0
LINE
  8
0
 10
-25.3728
 20
11.0329
 11
-25.4771
 21
11.0228
  0
LINE
  8
0
 10
-25.4771
 20
11.0228
 11
-25.5815
 21
11.0146
  0
LINE
  8
0
 10
-25.5815
 20
11.0146
 11
-25.686
 21
11.0082
  0
LINE
  8
0
 10
-25.686
 20
11.0082
 11
-25.7906
 21
11.0036
  0
LINE
  8
0
 10
-25.7906
 20
11.0036
 11
-25.8953
 21
11.0009
  0
LINE
  8
0
 10
-25.8953
 20
11.0009
 11
-26
 21
11
  0
LINE
  8
0
 10
-26
 20
11
 11
-26.1047
 21
11.0009
  0
ENDSEC
  0
SECTION
  2
OBJECTS
  0
DICTIONARY
  0
ENDSEC
  0
EOF
