  0
SECTION
  2
BLOCKS
  0
ENDSEC
  0
SECTION
  2
ENTITIES
  0
LINE
  8
0
 10
200.087
 20
-4.99924
 11
200.174
 21
-4.99695
  0
LINE
  8
0
 10
200.174
 20
-4.99695
 11
200.262
 21
-4.99313
  0
LINE
  8
0
 10
200.262
 20
-4.99313
 11
200.349
 21
-4.98781
  0
LINE
  8
0
 10
200.349
 20
-4.98781
 11
200.436
 21
-4.98097
  0
LINE
  8
0
 10
200.436
 20
-4.98097
 11
200.523
 21
-4.9726
  0
LINE
  8
0
 10
200.523
 20
-4.9726
 11
200.609
 21
-4.96272
  0
LINE
  8
0
 10
200.609
 20
-4.96272
 11
200.696
 21
-4.95134
  0
LINE
  8
0
 10
200.696
 20
-4.95134
 11
200.782
 21
-4.93843
  0
LINE
  8
0
 10
200.782
 20
-4.93843
 11
200.868
 21
-4.92403
  0
LINE
  8
0
 10
200.868
 20
-4.92403
 11
200.954
 21
-4.90813
  0
LINE
  8
0
 10
200.954
 20
-4.90813
 11
201.04
 21
-4.89073
  0
LINE
  8
0
 10
201.04
 20
-4.89073
 11
201.125
 21
-4.87184
  0
LINE
  8
0
 10
201.125
 20
-4.87184
 11
201.21
 21
-4.85147
  0
LINE
  8
0
 10
201.21
 20
-4.85147
 11
201.294
 21
-4.82962
  0
LINE
  8
0
 10
201.294
 20
-4.82962
 11
201.378
 21
-4.8063
  0
LINE
  8
0
 10
201.378
 20
-4.8063
 11
201.462
 21
-4.78151
  0
LINE
  8
0
 10
201.462
 20
-4.78151
 11
201.545
 21
-4.75528
  0
LINE
  8
0
 10
201.545
 20
-4.75528
 11
201.628
 21
-4.72758
  0
LINE
  8
0
 10
201.628
 20
-4.72758
 11
201.71
 21
-4.69846
  0
LINE
  8
0
 10
201.71
 20
-4.69846
 11
201.792
 21
-4.66789
  0
LINE
  8
0
 10
201.792
 20
-4.66789
 11
201.873
 21
-4.63591
  0
LINE
  8
0
 10
201.873
 20
-4.63591
 11
201.954
 21
-4.60252
  0
LINE
  8
0
 10
201.954
 20
-4.60252
 11
202.034
 21
-4.56772
  0
LINE
  8
0
 10
202.034
 20
-4.56772
 11
202.113
 21
-4.53152
  0
LINE
  8
0
 10
202.113
 20
-4.53152
 11
202.192
 21
-4.49396
  0
LINE
  8
0
 10
202.192
 20
-4.49396
 11
202.27
 21
-4.45503
  0
LINE
  8
0
 10
202.27
 20
-4.45503
 11
202.347
 21
-4.41473
  0
LINE
  8
0
 10
202.347
 20
-4.41473
 11
202.424
 21
-4.37309
  0
LINE
  8
0
 10
202.424
 20
-4.37309
 11
202.5
 21
-4.33012
  0
LINE
  8
0
 10
202.5
 20
-4.33012
 11
202.575
 21
-4.28583
  0
LINE
  8
0
 10
202.575
 20
-4.28583
 11
202.65
 21
-4.24023
  0
LINE
  8
0
 10
202.65
 20
-4.24023
 11
202.723
 21
-4.19334
  0
LINE
  8
0
 10
202.723
 20
-4.19334
 11
202.796
 21
-4.14519
  0
LINE
  8
0
 10
202.796
 20
-4.14519
 11
202.868
 21
-4.09575
  0
LINE
  8
0
 10
202.868
 20
-4.09575
 11
202.939
 21
-4.04507
  0
LINE
  8
0
 10
202.939
 20
-4.04507
 11
203.009
 21
-3.99316
  0
LINE
  8
0
 10
203.009
 20
-3.99316
 11
203.078
 21
-3.94005
  0
LINE
  8
0
 10
203.078
 20
-3.94005
 11
203.147
 21
-3.88573
  0
LINE
  8
0
 10
203.147
 20
-3.88573
 11
203.214
 21
-3.83022
  0
LINE
  8
0
 10
203.214
 20
-3.83022
 11
203.28
 21
-3.77354
  0
LINE
  8
0
 10
203.28
 20
-3.77354
 11
203.346
 21
-3.71571
  0
LINE
  8
0
 10
203.346
 20
-3.71571
 11
203.41
 21
-3.65675
  0
LINE
  8
0
 10
203.41
 20
-3.65675
 11
203.473
 21
-3.59669
  0
LINE
  8
0
 10
203.473
 20
-3.59669
 11
203.536
 21
-3.53552
  0
LINE
  8
0
 10
203.536
 20
-3.53552
 11
203.597
 21
-3.47328
  0
LINE
  8
0
 10
203.597
 20
-3.47328
 11
203.657
 21
-3.40999
  0
LINE
  8
0
 10
203.657
 20
-3.40999
 11
203.716
 21
-3.34564
  0
LINE
  8
0
 10
203.716
 20
-3.34564
 11
203.774
 21
-3.28029
  0
LINE
  8
0
 10
203.774
 20
-3.28029
 11
203.83
 21
-3.21393
  0
LINE
  8
0
 10
203.83
 20
-3.21393
 11
203.886
 21
-3.14659
  0
LINE
  8
0
 10
203.886
 20
-3.14659
 11
203.94
 21
-3.07829
  0
LINE
  8
0
 10
203.94
 20
-3.07829
 11
203.993
 21
-3.00906
  0
LINE
  8
0
 10
203.993
 20
-3.00906
 11
204.045
 21
-2.93892
  0
LINE
  8
0
 10
204.045
 20
-2.93892
 11
204.096
 21
-2.86787
  0
LINE
  8
0
 10
204.096
 20
-2.86787
 11
204.145
 21
-2.79596
  0
LINE
  8
0
 10
204.145
 20
-2.79596
 11
204.193
 21
-2.72319
  0
LINE
  8
0
 10
204.193
 20
-2.72319
 11
204.24
 21
-2.64958
  0
LINE
  8
0
 10
204.24
 20
-2.64958
 11
204.286
 21
-2.57518
  0
LINE
  8
0
 10
204.286
 20
-2.57518
 11
204.33
 21
-2.5
  0
LINE
  8
0
 10
204.33
 20
-2.5
 11
204.373
 21
-2.42404
  0
LINE
  8
0
 10
204.373
 20
-2.42404
 11
204.415
 21
-2.34735
  0
LINE
  8
0
 10
204.415
 20
-2.34735
 11
204.455
 21
-2.26994
  0
LINE
  8
0
 10
204.455
 20
-2.26994
 11
204.494
 21
-2.19185
  0
LINE
  8
0
 10
204.494
 20
-2.19185
 11
204.532
 21
-2.11308
  0
LINE
  8
0
 10
204.532
 20
-2.11308
 11
204.568
 21
-2.03368
  0
LINE
  8
0
 10
204.568
 20
-2.03368
 11
204.603
 21
-1.95364
  0
LINE
  8
0
 10
204.603
 20
-1.95364
 11
204.636
 21
-1.87303
  0
LINE
  8
0
 10
204.636
 20
-1.87303
 11
204.668
 21
-1.79184
  0
LINE
  8
0
 10
204.668
 20
-1.79184
 11
204.698
 21
-1.7101
  0
LINE
  8
0
 10
204.698
 20
-1.7101
 11
204.728
 21
-1.62784
  0
LINE
  8
0
 10
204.728
 20
-1.62784
 11
204.755
 21
-1.54507
  0
LINE
  8
0
 10
204.755
 20
-1.54507
 11
204.782
 21
-1.46185
  0
LINE
  8
0
 10
204.782
 20
-1.46185
 11
204.806
 21
-1.37817
  0
LINE
  8
0
 10
204.806
 20
-1.37817
 11
204.83
 21
-1.29408
  0
LINE
  8
0
 10
204.83
 20
-1.29408
 11
204.851
 21
-1.20959
  0
LINE
  8
0
 10
204.851
 20
-1.20959
 11
204.872
 21
-1.12474
  0
LINE
  8
0
 10
204.872
 20
-1.12474
 11
204.891
 21
-1.03955
  0
LINE
  8
0
 10
204.891
 20
-1.03955
 11
204.908
 21
-0.954041
  0
LINE
  8
0
 10
204.908
 20
-0.954041
 11
204.924
 21
-0.86824
  0
LINE
  8
0
 10
204.924
 20
-0.86824
 11
204.938
 21
-0.782166
  0
LINE
  8
0
 10
204.938
 20
-0.782166
 11
204.951
 21
-0.695862
  0
LINE
  8
0
 10
204.951
 20
-0.695862
 11
204.963
 21
-0.609344
  0
LINE
  8
0
 10
204.963
 20
-0.609344
 11
204.973
 21
-0.522629
  0
LINE
  8
0
 10
204.973
 20
-0.522629
 11
204.981
 21
-0.435776
  0
LINE
  8
0
 10
204.981
 20
-0.435776
 11
204.988
 21
-0.34877
  0
LINE
  8
0
 10
204.988
 20
-0.34877
 11
204.993
 21
-0.261673
  0
LINE
  8
0
 10
204.993
 20
-0.261673
 11
204.997
 21
-0.174484
  0
LINE
  8
0
 10
204.997
 20
-0.174484
 11
204.999
 21
-0.0872498
  0
LINE
  8
0
 10
204.999
 20
-0.0872498
 11
205
 21
0
  0
LINE
  8
0
 10
205
 20
0
 11
205
 21
100
  0
LINE
  8
0
 10
205
 20
100
 11
204.999
 21
100.087
  0
LINE
  8
0
 10
204.999
 20
100.087
 11
204.997
 21
100.174
  0
LINE
  8
0
 10
204.997
 20
100.174
 11
204.993
 21
100.262
  0
LINE
  8
0
 10
204.993
 20
100.262
 11
204.988
 21
100.349
  0
LINE
  8
0
 10
204.988
 20
100.349
 11
204.981
 21
100.436
  0
LINE
  8
0
 10
204.981
 20
100.436
 11
204.973
 21
100.523
  0
LINE
  8
0
 10
204.973
 20
100.523
 11
204.963
 21
100.609
  0
LINE
  8
0
 10
204.963
 20
100.609
 11
204.951
 21
100.696
  0
LINE
  8
0
 10
204.951
 20
100.696
 11
204.938
 21
100.782
  0
LINE
  8
0
 10
204.938
 20
100.782
 11
204.924
 21
100.868
  0
LINE
  8
0
 10
204.924
 20
100.868
 11
204.908
 21
100.954
  0
LINE
  8
0
 10
204.908
 20
100.954
 11
204.891
 21
101.04
  0
LINE
  8
0
 10
204.891
 20
101.04
 11
204.872
 21
101.125
  0
LINE
  8
0
 10
204.872
 20
101.125
 11
204.851
 21
101.21
  0
LINE
  8
0
 10
204.851
 20
101.21
 11
204.83
 21
101.294
  0
LINE
  8
0
 10
204.83
 20
101.294
 11
204.806
 21
101.378
  0
LINE
  8
0
 10
204.806
 20
101.378
 11
204.782
 21
101.462
  0
LINE
  8
0
 10
204.782
 20
101.462
 11
204.755
 21
101.545
  0
LINE
  8
0
 10
204.755
 20
101.545
 11
204.728
 21
101.628
  0
LINE
  8
0
 10
204.728
 20
101.628
 11
204.698
 21
101.71
  0
LINE
  8
0
 10
204.698
 20
101.71
 11
204.668
 21
101.792
  0
LINE
  8
0
 10
204.668
 20
101.792
 11
204.636
 21
101.873
  0
LINE
  8
0
 10
204.636
 20
101.873
 11
204.603
 21
101.954
  0
LINE
  8
0
 10
204.603
 20
101.954
 11
204.568
 21
102.034
  0
LINE
  8
0
 10
204.568
 20
102.034
 11
204.532
 21
102.113
  0
LINE
  8
0
 10
204.532
 20
102.113
 11
204.494
 21
102.192
  0
LINE
  8
0
 10
204.494
 20
102.192
 11
204.455
 21
102.27
  0
LINE
  8
0
 10
204.455
 20
102.27
 11
204.415
 21
102.347
  0
LINE
  8
0
 10
204.415
 20
102.347
 11
204.373
 21
102.424
  0
LINE
  8
0
 10
204.373
 20
102.424
 11
204.33
 21
102.5
  0
LINE
  8
0
 10
204.33
 20
102.5
 11
204.286
 21
102.575
  0
LINE
  8
0
 10
204.286
 20
102.575
 11
204.24
 21
102.65
  0
LINE
  8
0
 10
204.24
 20
102.65
 11
204.193
 21
102.723
  0
LINE
  8
0
 10
204.193
 20
102.723
 11
204.145
 21
102.796
  0
LINE
  8
0
 10
204.145
 20
102.796
 11
204.096
 21
102.868
  0
LINE
  8
0
 10
204.096
 20
102.868
 11
204.045
 21
102.939
  0
LINE
  8
0
 10
204.045
 20
102.939
 11
203.993
 21
103.009
  0
LINE
  8
0
 10
203.993
 20
103.009
 11
203.94
 21
103.078
  0
LINE
  8
0
 10
203.94
 20
103.078
 11
203.886
 21
103.147
  0
LINE
  8
0
 10
203.886
 20
103.147
 11
203.83
 21
103.214
  0
LINE
  8
0
 10
203.83
 20
103.214
 11
203.774
 21
103.28
  0
LINE
  8
0
 10
203.774
 20
103.28
 11
203.716
 21
103.346
  0
LINE
  8
0
 10
203.716
 20
103.346
 11
203.657
 21
103.41
  0
LINE
  8
0
 10
203.657
 20
103.41
 11
203.597
 21
103.473
  0
LINE
  8
0
 10
203.597
 20
103.473
 11
203.536
 21
103.536
  0
LINE
  8
0
 10
203.536
 20
103.536
 11
203.473
 21
103.597
  0
LINE
  8
0
 10
203.473
 20
103.597
 11
203.41
 21
103.657
  0
LINE
  8
0
 10
203.41
 20
103.657
 11
203.346
 21
103.716
  0
LINE
  8
0
 10
203.346
 20
103.716
 11
203.28
 21
103.774
  0
LINE
  8
0
 10
203.28
 20
103.774
 11
203.214
 21
103.83
  0
LINE
  8
0
 10
203.214
 20
103.83
 11
203.147
 21
103.886
  0
LINE
  8
0
 10
203.147
 20
103.886
 11
203.078
 21
103.94
  0
LINE
  8
0
 10
203.078
 20
103.94
 11
203.009
 21
103.993
  0
LINE
  8
0
 10
203.009
 20
103.993
 11
202.939
 21
104.045
  0
LINE
  8
0
 10
202.939
 20
104.045
 11
202.868
 21
104.096
  0
LINE
  8
0
 10
202.868
 20
104.096
 11
202.796
 21
104.145
  0
LINE
  8
0
 10
202.796
 20
104.145
 11
202.723
 21
104.193
  0
LINE
  8
0
 10
202.723
 20
104.193
 11
202.65
 21
104.24
  0
LINE
  8
0
 10
202.65
 20
104.24
 11
202.575
 21
104.286
  0
LINE
  8
0
 10
202.575
 20
104.286
 11
202.5
 21
104.33
  0
LINE
  8
0
 10
202.5
 20
104.33
 11
202.424
 21
104.373
  0
LINE
  8
0
 10
202.424
 20
104.373
 11
202.347
 21
104.415
  0
LINE
  8
0
 10
202.347
 20
104.415
 11
202.27
 21
104.455
  0
LINE
  8
0
 10
202.27
 20
104.455
 11
202.192
 21
104.494
  0
LINE
  8
0
 10
202.192
 20
104.494
 11
202.113
 21
104.532
  0
LINE
  8
0
 10
202.113
 20
104.532
 11
202.034
 21
104.568
  0
LINE
  8
0
 10
202.034
 20
104.568
 11
201.954
 21
104.603
  0
LINE
  8
0
 10
201.954
 20
104.603
 11
201.873
 21
104.636
  0
LINE
  8
0
 10
201.873
 20
104.636
 11
201.792
 21
104.668
  0
LINE
  8
0
 10
201.792
 20
104.668
 11
201.71
 21
104.698
  0
LINE
  8
0
 10
201.71
 20
104.698
 11
201.628
 21
104.728
  0
LINE
  8
0
 10
201.628
 20
104.728
 11
201.545
 21
104.755
  0
LINE
  8
0
 10
201.545
 20
104.755
 11
201.462
 21
104.782
  0
LINE
  8
0
 10
201.462
 20
104.782
 11
201.378
 21
104.806
  0
LINE
  8
0
 10
201.378
 20
104.806
 11
201.294
 21
104.83
  0
LINE
  8
0
 10
201.294
 20
104.83
 11
201.21
 21
104.851
  0
LINE
  8
0
 10
201.21
 20
104.851
 11
201.125
 21
104.872
  0
LINE
  8
0
 10
201.125
 20
104.872
 11
201.04
 21
104.891
  0
LINE
  8
0
 10
201.04
 20
104.891
 11
200.954
 21
104.908
  0
LINE
  8
0
 10
200.954
 20
104.908
 11
200.868
 21
104.924
  0
LINE
  8
0
 10
200.868
 20
104.924
 11
200.782
 21
104.938
  0
LINE
  8
0
 10
200.782
 20
104.938
 11
200.696
 21
104.951
  0
LINE
  8
0
 10
200.696
 20
104.951
 11
200.609
 21
104.963
  0
LINE
  8
0
 10
200.609
 20
104.963
 11
200.523
 21
104.973
  0
LINE
  8
0
 10
200.523
 20
104.973
 11
200.436
 21
104.981
  0
LINE
  8
0
 10
200.436
 20
104.981
 11
200.349
 21
104.988
  0
LINE
  8
0
 10
200.349
 20
104.988
 11
200.262
 21
104.993
  0
LINE
  8
0
 10
200.262
 20
104.993
 11
200.174
 21
104.997
  0
LINE
  8
0
 10
200.174
 20
104.997
 11
200.087
 21
104.999
  0
LINE
  8
0
 10
200.087
 20
104.999
 11
200
 21
105
  0
LINE
  8
0
 10
200
 20
105
 11
0
 21
105
  0
LINE
  8
0
 10
0
 20
105
 11
-0.0872498
 21
104.999
  0
LINE
  8
0
 10
-0.0872498
 20
104.999
 11
-0.174484
 21
104.997
  0
LINE
  8
0
 10
-0.174484
 20
104.997
 11
-0.261673
 21
104.993
  0
LINE
  8
0
 10
-0.261673
 20
104.993
 11
-0.34877
 21
104.988
  0
LINE
  8
0
 10
-0.34877
 20
104.988
 11
-0.435776
 21
104.981
  0
LINE
  8
0
 10
-0.435776
 20
104.981
 11
-0.522629
 21
104.973
  0
LINE
  8
0
 10
-0.522629
 20
104.973
 11
-0.609344
 21
104.963
  0
LINE
  8
0
 10
-0.609344
 20
104.963
 11
-0.695862
 21
104.951
  0
LINE
  8
0
 10
-0.695862
 20
104.951
 11
-0.782166
 21
104.938
  0
LINE
  8
0
 10
-0.782166
 20
104.938
 11
-0.86824
 21
104.924
  0
LINE
  8
0
 10
-0.86824
 20
104.924
 11
-0.954041
 21
104.908
  0
LINE
  8
0
 10
-0.954041
 20
104.908
 11
-1.03955
 21
104.891
  0
LINE
  8
0
 10
-1.03955
 20
104.891
 11
-1.12474
 21
104.872
  0
LINE
  8
0
 10
-1.12474
 20
104.872
 11
-1.20959
 21
104.851
  0
LINE
  8
0
 10
-1.20959
 20
104.851
 11
-1.29408
 21
104.83
  0
LINE
  8
0
 10
-1.29408
 20
104.83
 11
-1.37817
 21
104.806
  0
LINE
  8
0
 10
-1.37817
 20
104.806
 11
-1.46185
 21
104.782
  0
LINE
  8
0
 10
-1.46185
 20
104.782
 11
-1.54507
 21
104.755
  0
LINE
  8
0
 10
-1.54507
 20
104.755
 11
-1.62784
 21
104.728
  0
LINE
  8
0
 10
-1.62784
 20
104.728
 11
-1.7101
 21
104.698
  0
LINE
  8
0
 10
-1.7101
 20
104.698
 11
-1.79184
 21
104.668
  0
LINE
  8
0
 10
-1.79184
 20
104.668
 11
-1.87303
 21
104.636
  0
LINE
  8
0
 10
-1.87303
 20
104.636
 11
-1.95364
 21
104.603
  0
LINE
  8
0
 10
-1.95364
 20
104.603
 11
-2.03368
 21
104.568
  0
LINE
  8
0
 10
-2.03368
 20
104.568
 11
-2.11308
 21
104.532
  0
LINE
  8
0
 10
-2.11308
 20
104.532
 11
-2.19185
 21
104.494
  0
LINE
  8
0
 10
-2.19185
 20
104.494
 11
-2.26994
 21
104.455
  0
LINE
  8
0
 10
-2.26994
 20
104.455
 11
-2.34735
 21
104.415
  0
LINE
  8
0
 10
-2.34735
 20
104.415
 11
-2.42404
 21
104.373
  0
LINE
  8
0
 10
-2.42404
 20
104.373
 11
-2.5
 21
104.33
  0
LINE
  8
0
 10
-2.5
 20
104.33
 11
-2.57518
 21
104.286
  0
LINE
  8
0
 10
-2.57518
 20
104.286
 11
-2.64958
 21
104.24
  0
LINE
  8
0
 10
-2.64958
 20
104.24
 11
-2.72319
 21
104.193
  0
LINE
  8
0
 10
-2.72319
 20
104.193
 11
-2.79596
 21
104.145
  0
LINE
  8
0
 10
-2.79596
 20
104.145
 11
-2.86787
 21
104.096
  0
LINE
  8
0
 10
-2.86787
 20
104.096
 11
-2.93892
 21
104.045
  0
LINE
  8
0
 10
-2.93892
 20
104.045
 11
-3.00906
 21
103.993
  0
LINE
  8
0
 10
-3.00906
 20
103.993
 11
-3.07829
 21
103.94
  0
LINE
  8
0
 10
-3.07829
 20
103.94
 11
-3.14659
 21
103.886
  0
LINE
  8
0
 10
-3.14659
 20
103.886
 11
-3.21393
 21
103.83
  0
LINE
  8
0
 10
-3.21393
 20
103.83
 11
-3.28029
 21
103.774
  0
LINE
  8
0
 10
-3.28029
 20
103.774
 11
-3.34564
 21
103.716
  0
LINE
  8
0
 10
-3.34564
 20
103.716
 11
-3.40999
 21
103.657
  0
LINE
  8
0
 10
-3.40999
 20
103.657
 11
-3.47328
 21
103.597
  0
LINE
  8
0
 10
-3.47328
 20
103.597
 11
-3.53552
 21
103.536
  0
LINE
  8
0
 10
-3.53552
 20
103.536
 11
-3.59669
 21
103.473
  0
LINE
  8
0
 10
-3.59669
 20
103.473
 11
-3.65675
 21
103.41
  0
LINE
  8
0
 10
-3.65675
 20
103.41
 11
-3.71571
 21
103.346
  0
LINE
  8
0
 10
-3.71571
 20
103.346
 11
-3.77354
 21
103.28
  0
LINE
  8
0
 10
-3.77354
 20
103.28
 11
-3.83022
 21
103.214
  0
LINE
  8
0
 10
-3.83022
 20
103.214
 11
-3.88573
 21
103.147
  0
LINE
  8
0
 10
-3.88573
 20
103.147
 11
-3.94005
 21
103.078
  0
LINE
  8
0
 10
-3.94005
 20
103.078
 11
-3.99316
 21
103.009
  0
LINE
  8
0
 10
-3.99316
 20
103.009
 11
-4.04507
 21
102.939
  0
LINE
  8
0
 10
-4.04507
 20
102.939
 11
-4.09575
 21
102.868
  0
LINE
  8
0
 10
-4.09575
 20
102.868
 11
-4.14519
 21
102.796
  0
LINE
  8
0
 10
-4.14519
 20
102.796
 11
-4.19334
 21
102.723
  0
LINE
  8
0
 10
-4.19334
 20
102.723
 11
-4.24023
 21
102.65
  0
LINE
  8
0
 10
-4.24023
 20
102.65
 11
-4.28583
 21
102.575
  0
LINE
  8
0
 10
-4.28583
 20
102.575
 11
-4.33012
 21
102.5
  0
LINE
  8
0
 10
-4.33012
 20
102.5
 11
-4.37309
 21
102.424
  0
LINE
  8
0
 10
-4.37309
 20
102.424
 11
-4.41473
 21
102.347
  0
LINE
  8
0
 10
-4.41473
 20
102.347
 11
-4.45503
 21
102.27
  0
LINE
  8
0
 10
-4.45503
 20
102.27
 11
-4.49396
 21
102.192
  0
LINE
  8
0
 10
-4.49396
 20
102.192
 11
-4.53152
 21
102.113
  0
LINE
  8
0
 10
-4.53152
 20
102.113
 11
-4.56772
 21
102.034
  0
LINE
  8
0
 10
-4.56772
 20
102.034
 11
-4.60252
 21
101.954
  0
LINE
  8
0
 10
-4.60252
 20
101.954
 11
-4.63591
 21
101.873
  0
LINE
  8
0
 10
-4.63591
 20
101.873
 11
-4.66789
 21
101.792
  0
LINE
  8
0
 10
-4.66789
 20
101.792
 11
-4.69846
 21
101.71
  0
LINE
  8
0
 10
-4.69846
 20
101.71
 11
-4.72758
 21
101.628
  0
LINE
  8
0
 10
-4.72758
 20
101.628
 11
-4.75528
 21
101.545
  0
LINE
  8
0
 10
-4.75528
 20
101.545
 11
-4.78151
 21
101.462
  0
LINE
  8
0
 10
-4.78151
 20
101.462
 11
-4.8063
 21
101.378
  0
LINE
  8
0
 10
-4.8063
 20
101.378
 11
-4.82962
 21
101.294
  0
LINE
  8
0
 10
-4.82962
 20
101.294
 11
-4.85147
 21
101.21
  0
LINE
  8
0
 10
-4.85147
 20
101.21
 11
-4.87184
 21
101.125
  0
LINE
  8
0
 10
-4.87184
 20
101.125
 11
-4.89073
 21
101.04
  0
LINE
  8
0
 10
-4.89073
 20
101.04
 11
-4.90813
 21
100.954
  0
LINE
  8
0
 10
-4.90813
 20
100.954
 11
-4.92403
 21
100.868
  0
LINE
  8
0
 10
-4.92403
 20
100.868
 11
-4.93843
 21
100.782
  0
LINE
  8
0
 10
-4.93843
 20
100.782
 11
-4.95134
 21
100.696
  0
LINE
  8
0
 10
-4.95134
 20
100.696
 11
-4.96272
 21
100.609
  0
LINE
  8
0
 10
-4.96272
 20
100.609
 11
-4.9726
 21
100.523
  0
LINE
  8
0
 10
-4.9726
 20
100.523
 11
-4.98097
 21
100.436
  0
LINE
  8
0
 10
-4.98097
 20
100.436
 11
-4.98781
 21
100.349
  0
LINE
  8
0
 10
-4.98781
 20
100.349
 11
-4.99313
 21
100.262
  0
LINE
  8
0
 10
-4.99313
 20
100.262
 11
-4.99695
 21
100.174
  0
LINE
  8
0
 10
-4.99695
 20
100.174
 11
-4.99924
 21
100.087
  0
LINE
  8
0
 10
-4.99924
 20
100.087
 11
-5
 21
100
  0
LINE
  8
0
 10
-5
 20
100
 11
-5
 21
0
  0
LINE
  8
0
 10
-5
 20
0
 11
-4.99924
 21
-0.0872498
  0
LINE
  8
0
 10
-4.99924
 20
-0.0872498
 11
-4.99695
 21
-0.174484
  0
LINE
  8
0
 10
-4.99695
 20
-0.174484
 11
-4.99313
 21
-0.261673
  0
LINE
  8
0
 10
-4.99313
 20
-0.261673
 11
-4.98781
 21
-0.34877
  0
LINE
  8
0
 10
-4.98781
 20
-0.34877
 11
-4.98097
 21
-0.435776
  0
LINE
  8
0
 10
-4.98097
 20
-0.435776
 11
-4.9726
 21
-0.522629
  0
LINE
  8
0
 10
-4.9726
 20
-0.522629
 11
-4.96272
 21
-0.609344
  0
LINE
  8
0
 10
-4.96272
 20
-0.609344
 11
-4.95134
 21
-0.695862
  0
LINE
  8
0
 10
-4.95134
 20
-0.695862
 11
-4.93843
 21
-0.782166
  0
LINE
  8
0
 10
-4.93843
 20
-0.782166
 11
-4.92403
 21
-0.86824
  0
LINE
  8
0
 10
-4.92403
 20
-0.86824
 11
-4.90813
 21
-0.954041
  0
LINE
  8
0
 10
-4.90813
 20
-0.954041
 11
-4.89073
 21
-1.03955
  0
LINE
  8
0
 10
-4.89073
 20
-1.03955
 11
-4.87184
 21
-1.12474
  0
LINE
  8
0
 10
-4.87184
 20
-1.12474
 11
-4.85147
 21
-1.20959
  0
LINE
  8
0
 10
-4.85147
 20
-1.20959
 11
-4.82962
 21
-1.29408
  0
LINE
  8
0
 10
-4.82962
 20
-1.29408
 11
-4.8063
 21
-1.37817
  0
LINE
  8
0
 10
-4.8063
 20
-1.37817
 11
-4.78151
 21
-1.46185
  0
LINE
  8
0
 10
-4.78151
 20
-1.46185
 11
-4.75528
 21
-1.54507
  0
LINE
  8
0
 10
-4.75528
 20
-1.54507
 11
-4.72758
 21
-1.62784
  0
LINE
  8
0
 10
-4.72758
 20
-1.62784
 11
-4.69846
 21
-1.7101
  0
LINE
  8
0
 10
-4.69846
 20
-1.7101
 11
-4.66789
 21
-1.79184
  0
LINE
  8
0
 10
-4.66789
 20
-1.79184
 11
-4.63591
 21
-1.87303
  0
LINE
  8
0
 10
-4.63591
 20
-1.87303
 11
-4.60252
 21
-1.95364
  0
LINE
  8
0
 10
-4.60252
 20
-1.95364
 11
-4.56772
 21
-2.03368
  0
LINE
  8
0
 10
-4.56772
 20
-2.03368
 11
-4.53152
 21
-2.11308
  0
LINE
  8
0
 10
-4.53152
 20
-2.11308
 11
-4.49396
 21
-2.19185
  0
LINE
  8
0
 10
-4.49396
 20
-2.19185
 11
-4.45503
 21
-2.26994
  0
LINE
  8
0
 10
-4.45503
 20
-2.26994
 11
-4.41473
 21
-2.34735
  0
LINE
  8
0
 10
-4.41473
 20
-2.34735
 11
-4.37309
 21
-2.42404
  0
LINE
  8
0
 10
-4.37309
 20
-2.42404
 11
-4.33012
 21
-2.5
  0
LINE
  8
0
 10
-4.33012
 20
-2.5
 11
-4.28583
 21
-2.57518
  0
LINE
  8
0
 10
-4.28583
 20
-2.57518
 11
-4.24023
 21
-2.64958
  0
LINE
  8
0
 10
-4.24023
 20
-2.64958
 11
-4.19334
 21
-2.72319
  0
LINE
  8
0
 10
-4.19334
 20
-2.72319
 11
-4.14519
 21
-2.79596
  0
LINE
  8
0
 10
-4.14519
 20
-2.79596
 11
-4.09575
 21
-2.86787
  0
LINE
  8
0
 10
-4.09575
 20
-2.86787
 11
-4.04507
 21
-2.93892
  0
LINE
  8
0
 10
-4.04507
 20
-2.93892
 11
-3.99316
 21
-3.00906
  0
LINE
  8
0
 10
-3.99316
 20
-3.00906
 11
-3.94005
 21
-3.07829
  0
LINE
  8
0
 10
-3.94005
 20
-3.07829
 11
-3.88573
 21
-3.14659
  0
LINE
  8
0
 10
-3.88573
 20
-3.14659
 11
-3.83022
 21
-3.21393
  0
LINE
  8
0
 10
-3.83022
 20
-3.21393
 11
-3.77354
 21
-3.28029
  0
LINE
  8
0
 10
-3.77354
 20
-3.28029
 11
-3.71571
 21
-3.34564
  0
LINE
  8
0
 10
-3.71571
 20
-3.34564
 11
-3.65675
 21
-3.40999
  0
LINE
  8
0
 10
-3.65675
 20
-3.40999
 11
-3.59669
 21
-3.47328
  0
LINE
  8
0
 10
-3.59669
 20
-3.47328
 11
-3.53552
 21
-3.53552
  0
LINE
  8
0
 10
-3.53552
 20
-3.53552
 11
-3.47328
 21
-3.59669
  0
LINE
  8
0
 10
-3.47328
 20
-3.59669
 11
-3.40999
 21
-3.65675
  0
LINE
  8
0
 10
-3.40999
 20
-3.65675
 11
-3.34564
 21
-3.71571
  0
LINE
  8
0
 10
-3.34564
 20
-3.71571
 11
-3.28029
 21
-3.77354
  0
LINE
  8
0
 10
-3.28029
 20
-3.77354
 11
-3.21393
 21
-3.83022
  0
LINE
  8
0
 10
-3.21393
 20
-3.83022
 11
-3.14659
 21
-3.88573
  0
LINE
  8
0
 10
-3.14659
 20
-3.88573
 11
-3.07829
 21
-3.94005
  0
LINE
  8
0
 10
-3.07829
 20
-3.94005
 11
-3.00906
 21
-3.99316
  0
LINE
  8
0
 10
-3.00906
 20
-3.99316
 11
-2.93892
 21
-4.04507
  0
LINE
  8
0
 10
-2.93892
 20
-4.04507
 11
-2.86787
 21
-4.09575
  0
LINE
  8
0
 10
-2.86787
 20
-4.09575
 11
-2.79596
 21
-4.14519
  0
LINE
  8
0
 10
-2.79596
 20
-4.14519
 11
-2.72319
 21
-4.19334
  0
LINE
  8
0
 10
-2.72319
 20
-4.19334
 11
-2.64958
 21
-4.24023
  0
LINE
  8
0
 10
-2.64958
 20
-4.24023
 11
-2.57518
 21
-4.28583
  0
LINE
  8
0
 10
-2.57518
 20
-4.28583
 11
-2.5
 21
-4.33012
  0
LINE
  8
0
 10
-2.5
 20
-4.33012
 11
-2.42404
 21
-4.37309
  0
LINE
  8
0
 10
-2.42404
 20
-4.37309
 11
-2.34735
 21
-4.41473
  0
LINE
  8
0
 10
-2.34735
 20
-4.41473
 11
-2.26994
 21
-4.45503
  0
LINE
  8
0
 10
-2.26994
 20
-4.45503
 11
-2.19185
 21
-4.49396
  0
LINE
  8
0
 10
-2.19185
 20
-4.49396
 11
-2.11308
 21
-4.53152
  0
LINE
  8
0
 10
-2.11308
 20
-4.53152
 11
-2.03368
 21
-4.56772
  0
LINE
  8
0
 10
-2.03368
 20
-4.56772
 11
-1.95364
 21
-4.60252
  0
LINE
  8
0
 10
-1.95364
 20
-4.60252
 11
-1.87303
 21
-4.63591
  0
LINE
  8
0
 10
-1.87303
 20
-4.63591
 11
-1.79184
 21
-4.66789
  0
LINE
  8
0
 10
-1.79184
 20
-4.66789
 11
-1.7101
 21
-4.69846
  0
LINE
  8
0
 10
-1.7101
 20
-4.69846
 11
-1.62784
 21
-4.72758
  0
LINE
  8
0
 10
-1.62784
 20
-4.72758
 11
-1.54507
 21
-4.75528
  0
LINE
  8
0
 10
-1.54507
 20
-4.75528
 11
-1.46185
 21
-4.78151
  0
LINE
  8
0
 10
-1.46185
 20
-4.78151
 11
-1.37817
 21
-4.8063
  0
LINE
  8
0
 10
-1.37817
 20
-4.8063
 11
-1.29408
 21
-4.82962
  0
LINE
  8
0
 10
-1.29408
 20
-4.82962
 11
-1.20959
 21
-4.85147
  0
LINE
  8
0
 10
-1.20959
 20
-4.85147
 11
-1.12474
 21
-4.87184
  0
LINE
  8
0
 10
-1.12474
 20
-4.87184
 11
-1.03955
 21
-4.89073
  0
LINE
  8
0
 10
-1.03955
 20
-4.89073
 11
-0.954041
 21
-4.90813
  0
LINE
  8
0
 10
-0.954041
 20
-4.90813
 11
-0.86824
 21
-4.92403
  0
LINE
  8
0
 10
-0.86824
 20
-4.92403
 11
-0.782166
 21
-4.93843
  0
LINE
  8
0
 10
-0.782166
 20
-4.93843
 11
-0.695862
 21
-4.95134
  0
LINE
  8
0
 10
-0.695862
 20
-4.95134
 11
-0.609344
 21
-4.96272
  0
LINE
  8
0
 10
-0.609344
 20
-4.96272
 11
-0.522629
 21
-4.9726
  0
LINE
  8
0
 10
-0.522629
 20
-4.9726
 11
-0.435776
 21
-4.98097
  0
LINE
  8
0
 10
-0.435776
 20
-4.98097
 11
-0.34877
 21
-4.98781
  0
LINE
  8
0
 10
-0.34877
 20
-4.98781
 11
-0.261673
 21
-4.99313
  0
LINE
  8
0
 10
-0.261673
 20
-4.99313
 11
-0.174484
 21
-4.99695
  0
LINE
  8
0
 10
-0.174484
 20
-4.99695
 11
-0.0872498
 21
-4.99924
  0
LINE
  8
0
 10
-0.0872498
 20
-4.99924
 11
0
 21
-5
  0
LINE
  8
0
 10
0
 20
-5
 11
200
 21
-5
  0
LINE
  8
0
 10
200
 20
-5
 11
200.087
 21
-4.99924
  0
LINE
  8
0
 10
80.52
 20
96.9
 11
80.52
 21
100.1
  0
LINE
  8
0
 10
80.52
 20
100.1
 11
100.1
 21
100.1
  0
LINE
  8
0
 10
100.1
 20
100.1
 11
100.1
 21
96.9
  0
LINE
  8
0
 10
100.1
 20
96.9
 11
80.52
 21
96.9
  0
LINE
  8
0
 10
158.04
 20
96.9
 11
158.04
 21
100.1
  0
LINE
  8
0
 10
158.04
 20
100.1
 11
177.62
 21
100.1
  0
LINE
  8
0
 10
177.62
 20
100.1
 11
177.62
 21
96.9
  0
LINE
  8
0
 10
177.62
 20
96.9
 11
158.04
 21
96.9
  0
LINE
  8
0
 10
41.76
 20
96.9
 11
41.76
 21
100.1
  0
LINE
  8
0
 10
41.76
 20
100.1
 11
61.34
 21
100.1
  0
LINE
  8
0
 10
61.34
 20
100.1
 11
61.34
 21
96.9
  0
LINE
  8
0
 10
61.34
 20
96.9
 11
41.76
 21
96.9
  0
LINE
  8
0
 10
3
 20
96.9
 11
3
 21
100.1
  0
LINE
  8
0
 10
3
 20
100.1
 11
22.58
 21
100.1
  0
LINE
  8
0
 10
22.58
 20
100.1
 11
22.58
 21
96.9
  0
LINE
  8
0
 10
22.58
 20
96.9
 11
3
 21
96.9
  0
LINE
  8
0
 10
119.28
 20
96.9
 11
119.28
 21
100.1
  0
LINE
  8
0
 10
119.28
 20
100.1
 11
138.86
 21
100.1
  0
LINE
  8
0
 10
138.86
 20
100.1
 11
138.86
 21
96.9
  0
LINE
  8
0
 10
138.86
 20
96.9
 11
119.28
 21
96.9
  0
LINE
  8
0
 10
196.9
 20
85.075
 11
196.9
 21
97
  0
LINE
  8
0
 10
196.9
 20
97
 11
200.1
 21
97
  0
LINE
  8
0
 10
200.1
 20
97
 11
200.1
 21
85.075
  0
LINE
  8
0
 10
200.1
 20
85.075
 11
196.9
 21
85.075
  0
LINE
  8
0
 10
26.8432
 20
87.9082
 11
26.6881
 21
87.9328
  0
LINE
  8
0
 10
26.6881
 20
87.9328
 11
26.5365
 21
87.9734
  0
LINE
  8
0
 10
26.5365
 20
87.9734
 11
26.3899
 21
88.0297
  0
LINE
  8
0
 10
26.3899
 20
88.0297
 11
26.25
 21
88.101
  0
LINE
  8
0
 10
26.25
 20
88.101
 11
26.1183
 21
88.1865
  0
LINE
  8
0
 10
26.1183
 20
88.1865
 11
25.9963
 21
88.2853
  0
LINE
  8
0
 10
25.9963
 20
88.2853
 11
25.8853
 21
88.3963
  0
LINE
  8
0
 10
25.8853
 20
88.3963
 11
25.7865
 21
88.5183
  0
LINE
  8
0
 10
25.7865
 20
88.5183
 11
25.701
 21
88.65
  0
LINE
  8
0
 10
25.701
 20
88.65
 11
25.6297
 21
88.7899
  0
LINE
  8
0
 10
25.6297
 20
88.7899
 11
25.5734
 21
88.9365
  0
LINE
  8
0
 10
25.5734
 20
88.9365
 11
25.5328
 21
89.0881
  0
LINE
  8
0
 10
25.5328
 20
89.0881
 11
25.5082
 21
89.2432
  0
LINE
  8
0
 10
25.5082
 20
89.2432
 11
25.5
 21
89.4
  0
LINE
  8
0
 10
25.5
 20
89.4
 11
25.5082
 21
89.5568
  0
LINE
  8
0
 10
25.5082
 20
89.5568
 11
25.5328
 21
89.7119
  0
LINE
  8
0
 10
25.5328
 20
89.7119
 11
25.5734
 21
89.8635
  0
LINE
  8
0
 10
25.5734
 20
89.8635
 11
25.6297
 21
90.0101
  0
LINE
  8
0
 10
25.6297
 20
90.0101
 11
25.701
 21
90.15
  0
LINE
  8
0
 10
25.701
 20
90.15
 11
25.7865
 21
90.2817
  0
LINE
  8
0
 10
25.7865
 20
90.2817
 11
25.8853
 21
90.4037
  0
LINE
  8
0
 10
25.8853
 20
90.4037
 11
25.9963
 21
90.5147
  0
LINE
  8
0
 10
25.9963
 20
90.5147
 11
26.1183
 21
90.6135
  0
LINE
  8
0
 10
26.1183
 20
90.6135
 11
26.25
 21
90.699
  0
LINE
  8
0
 10
26.25
 20
90.699
 11
26.3899
 21
90.7703
  0
LINE
  8
0
 10
26.3899
 20
90.7703
 11
26.5365
 21
90.8266
  0
LINE
  8
0
 10
26.5365
 20
90.8266
 11
26.6881
 21
90.8672
  0
LINE
  8
0
 10
26.6881
 20
90.8672
 11
26.8432
 21
90.8918
  0
LINE
  8
0
 10
26.8432
 20
90.8918
 11
27
 21
90.9
  0
LINE
  8
0
 10
27
 20
90.9
 11
27.1568
 21
90.8918
  0
LINE
  8
0
 10
27.1568
 20
90.8918
 11
27.3119
 21
90.8672
  0
LINE
  8
0
 10
27.3119
 20
90.8672
 11
27.4635
 21
90.8266
  0
LINE
  8
0
 10
27.4635
 20
90.8266
 11
27.6101
 21
90.7703
  0
LINE
  8
0
 10
27.6101
 20
90.7703
 11
27.75
 21
90.699
  0
LINE
  8
0
 10
27.75
 20
90.699
 11
27.8817
 21
90.6135
  0
LINE
  8
0
 10
27.8817
 20
90.6135
 11
28.0037
 21
90.5147
  0
LINE
  8
0
 10
28.0037
 20
90.5147
 11
28.1147
 21
90.4037
  0
LINE
  8
0
 10
28.1147
 20
90.4037
 11
28.2135
 21
90.2817
  0
LINE
  8
0
 10
28.2135
 20
90.2817
 11
28.299
 21
90.15
  0
LINE
  8
0
 10
28.299
 20
90.15
 11
28.3703
 21
90.0101
  0
LINE
  8
0
 10
28.3703
 20
90.0101
 11
28.4266
 21
89.8635
  0
LINE
  8
0
 10
28.4266
 20
89.8635
 11
28.4672
 21
89.7119
  0
LINE
  8
0
 10
28.4672
 20
89.7119
 11
28.4918
 21
89.5568
  0
LINE
  8
0
 10
28.4918
 20
89.5568
 11
28.5
 21
89.4
  0
LINE
  8
0
 10
28.5
 20
89.4
 11
28.4918
 21
89.2432
  0
LINE
  8
0
 10
28.4918
 20
89.2432
 11
28.4672
 21
89.0881
  0
LINE
  8
0
 10
28.4672
 20
89.0881
 11
28.4266
 21
88.9365
  0
LINE
  8
0
 10
28.4266
 20
88.9365
 11
28.3703
 21
88.7899
  0
LINE
  8
0
 10
28.3703
 20
88.7899
 11
28.299
 21
88.65
  0
LINE
  8
0
 10
28.299
 20
88.65
 11
28.2135
 21
88.5183
  0
LINE
  8
0
 10
28.2135
 20
88.5183
 11
28.1147
 21
88.3963
  0
LINE
  8
0
 10
28.1147
 20
88.3963
 11
28.0037
 21
88.2853
  0
LINE
  8
0
 10
28.0037
 20
88.2853
 11
27.8817
 21
88.1865
  0
LINE
  8
0
 10
27.8817
 20
88.1865
 11
27.75
 21
88.101
  0
LINE
  8
0
 10
27.75
 20
88.101
 11
27.6101
 21
88.0297
  0
LINE
  8
0
 10
27.6101
 20
88.0297
 11
27.4635
 21
87.9734
  0
LINE
  8
0
 10
27.4635
 20
87.9734
 11
27.3119
 21
87.9328
  0
LINE
  8
0
 10
27.3119
 20
87.9328
 11
27.1568
 21
87.9082
  0
LINE
  8
0
 10
27.1568
 20
87.9082
 11
27
 21
87.9
  0
LINE
  8
0
 10
27
 20
87.9
 11
26.8432
 21
87.9082
  0
LINE
  8
0
 10
177.843
 20
87.9082
 11
177.688
 21
87.9328
  0
LINE
  8
0
 10
177.688
 20
87.9328
 11
177.536
 21
87.9734
  0
LINE
  8
0
 10
177.536
 20
87.9734
 11
177.39
 21
88.0297
  0
LINE
  8
0
 10
177.39
 20
88.0297
 11
177.25
 21
88.101
  0
LINE
  8
0
 10
177.25
 20
88.101
 11
177.118
 21
88.1865
  0
LINE
  8
0
 10
177.118
 20
88.1865
 11
176.996
 21
88.2853
  0
LINE
  8
0
 10
176.996
 20
88.2853
 11
176.885
 21
88.3963
  0
LINE
  8
0
 10
176.885
 20
88.3963
 11
176.786
 21
88.5183
  0
LINE
  8
0
 10
176.786
 20
88.5183
 11
176.701
 21
88.65
  0
LINE
  8
0
 10
176.701
 20
88.65
 11
176.63
 21
88.7899
  0
LINE
  8
0
 10
176.63
 20
88.7899
 11
176.573
 21
88.9365
  0
LINE
  8
0
 10
176.573
 20
88.9365
 11
176.533
 21
89.0881
  0
LINE
  8
0
 10
176.533
 20
89.0881
 11
176.508
 21
89.2432
  0
LINE
  8
0
 10
176.508
 20
89.2432
 11
176.5
 21
89.4
  0
LINE
  8
0
 10
176.5
 20
89.4
 11
176.508
 21
89.5568
  0
LINE
  8
0
 10
176.508
 20
89.5568
 11
176.533
 21
89.7119
  0
LINE
  8
0
 10
176.533
 20
89.7119
 11
176.573
 21
89.8635
  0
LINE
  8
0
 10
176.573
 20
89.8635
 11
176.63
 21
90.0101
  0
LINE
  8
0
 10
176.63
 20
90.0101
 11
176.701
 21
90.15
  0
LINE
  8
0
 10
176.701
 20
90.15
 11
176.786
 21
90.2817
  0
LINE
  8
0
 10
176.786
 20
90.2817
 11
176.885
 21
90.4037
  0
LINE
  8
0
 10
176.885
 20
90.4037
 11
176.996
 21
90.5147
  0
LINE
  8
0
 10
176.996
 20
90.5147
 11
177.118
 21
90.6135
  0
LINE
  8
0
 10
177.118
 20
90.6135
 11
177.25
 21
90.699
  0
LINE
  8
0
 10
177.25
 20
90.699
 11
177.39
 21
90.7703
  0
LINE
  8
0
 10
177.39
 20
90.7703
 11
177.536
 21
90.8266
  0
LINE
  8
0
 10
177.536
 20
90.8266
 11
177.688
 21
90.8672
  0
LINE
  8
0
 10
177.688
 20
90.8672
 11
177.843
 21
90.8918
  0
LINE
  8
0
 10
177.843
 20
90.8918
 11
178
 21
90.9
  0
LINE
  8
0
 10
178
 20
90.9
 11
178.157
 21
90.8918
  0
LINE
  8
0
 10
178.157
 20
90.8918
 11
178.312
 21
90.8672
  0
LINE
  8
0
 10
178.312
 20
90.8672
 11
178.464
 21
90.8266
  0
LINE
  8
0
 10
178.464
 20
90.8266
 11
178.61
 21
90.7703
  0
LINE
  8
0
 10
178.61
 20
90.7703
 11
178.75
 21
90.699
  0
LINE
  8
0
 10
178.75
 20
90.699
 11
178.882
 21
90.6135
  0
LINE
  8
0
 10
178.882
 20
90.6135
 11
179.004
 21
90.5147
  0
LINE
  8
0
 10
179.004
 20
90.5147
 11
179.115
 21
90.4037
  0
LINE
  8
0
 10
179.115
 20
90.4037
 11
179.214
 21
90.2817
  0
LINE
  8
0
 10
179.214
 20
90.2817
 11
179.299
 21
90.15
  0
LINE
  8
0
 10
179.299
 20
90.15
 11
179.37
 21
90.0101
  0
LINE
  8
0
 10
179.37
 20
90.0101
 11
179.427
 21
89.8635
  0
LINE
  8
0
 10
179.427
 20
89.8635
 11
179.467
 21
89.7119
  0
LINE
  8
0
 10
179.467
 20
89.7119
 11
179.492
 21
89.5568
  0
LINE
  8
0
 10
179.492
 20
89.5568
 11
179.5
 21
89.4
  0
LINE
  8
0
 10
179.5
 20
89.4
 11
179.492
 21
89.2432
  0
LINE
  8
0
 10
179.492
 20
89.2432
 11
179.467
 21
89.0881
  0
LINE
  8
0
 10
179.467
 20
89.0881
 11
179.427
 21
88.9365
  0
LINE
  8
0
 10
179.427
 20
88.9365
 11
179.37
 21
88.7899
  0
LINE
  8
0
 10
179.37
 20
88.7899
 11
179.299
 21
88.65
  0
LINE
  8
0
 10
179.299
 20
88.65
 11
179.214
 21
88.5183
  0
LINE
  8
0
 10
179.214
 20
88.5183
 11
179.115
 21
88.3963
  0
LINE
  8
0
 10
179.115
 20
88.3963
 11
179.004
 21
88.2853
  0
LINE
  8
0
 10
179.004
 20
88.2853
 11
178.882
 21
88.1865
  0
LINE
  8
0
 10
178.882
 20
88.1865
 11
178.75
 21
88.101
  0
LINE
  8
0
 10
178.75
 20
88.101
 11
178.61
 21
88.0297
  0
LINE
  8
0
 10
178.61
 20
88.0297
 11
178.464
 21
87.9734
  0
LINE
  8
0
 10
178.464
 20
87.9734
 11
178.312
 21
87.9328
  0
LINE
  8
0
 10
178.312
 20
87.9328
 11
178.157
 21
87.9082
  0
LINE
  8
0
 10
178.157
 20
87.9082
 11
178
 21
87.9
  0
LINE
  8
0
 10
178
 20
87.9
 11
177.843
 21
87.9082
  0
LINE
  8
0
 10
-0.0999908
 20
73.35
 11
-0.0999908
 21
85.275
  0
LINE
  8
0
 10
-0.0999908
 20
85.275
 11
3.09999
 21
85.275
  0
LINE
  8
0
 10
3.09999
 20
85.275
 11
3.09999
 21
73.35
  0
LINE
  8
0
 10
3.09999
 20
73.35
 11
-0.0999908
 21
73.35
  0
LINE
  8
0
 10
196.9
 20
61.625
 11
196.9
 21
73.55
  0
LINE
  8
0
 10
196.9
 20
73.55
 11
200.1
 21
73.55
  0
LINE
  8
0
 10
200.1
 20
73.55
 11
200.1
 21
61.625
  0
LINE
  8
0
 10
200.1
 20
61.625
 11
196.9
 21
61.625
  0
LINE
  8
0
 10
-0.0999908
 20
49.9
 11
-0.0999908
 21
61.825
  0
LINE
  8
0
 10
-0.0999908
 20
61.825
 11
3.09999
 21
61.825
  0
LINE
  8
0
 10
3.09999
 20
61.825
 11
3.09999
 21
49.9
  0
LINE
  8
0
 10
3.09999
 20
49.9
 11
-0.0999908
 21
49.9
  0
LINE
  8
0
 10
196.9
 20
38.175
 11
196.9
 21
50.1
  0
LINE
  8
0
 10
196.9
 20
50.1
 11
200.1
 21
50.1
  0
LINE
  8
0
 10
200.1
 20
50.1
 11
200.1
 21
38.175
  0
LINE
  8
0
 10
200.1
 20
38.175
 11
196.9
 21
38.175
  0
LINE
  8
0
 10
-0.0999908
 20
26.45
 11
-0.0999908
 21
38.375
  0
LINE
  8
0
 10
-0.0999908
 20
38.375
 11
3.09999
 21
38.375
  0
LINE
  8
0
 10
3.09999
 20
38.375
 11
3.09999
 21
26.45
  0
LINE
  8
0
 10
3.09999
 20
26.45
 11
-0.0999908
 21
26.45
  0
LINE
  8
0
 10
196.9
 20
14.725
 11
196.9
 21
26.65
  0
LINE
  8
0
 10
196.9
 20
26.65
 11
200.1
 21
26.65
  0
LINE
  8
0
 10
200.1
 20
26.65
 11
200.1
 21
14.725
  0
LINE
  8
0
 10
200.1
 20
14.725
 11
196.9
 21
14.725
  0
LINE
  8
0
 10
26.8432
 20
23.4082
 11
26.6881
 21
23.4328
  0
LINE
  8
0
 10
26.6881
 20
23.4328
 11
26.5365
 21
23.4734
  0
LINE
  8
0
 10
26.5365
 20
23.4734
 11
26.3899
 21
23.5297
  0
LINE
  8
0
 10
26.3899
 20
23.5297
 11
26.25
 21
23.601
  0
LINE
  8
0
 10
26.25
 20
23.601
 11
26.1183
 21
23.6865
  0
LINE
  8
0
 10
26.1183
 20
23.6865
 11
25.9963
 21
23.7853
  0
LINE
  8
0
 10
25.9963
 20
23.7853
 11
25.8853
 21
23.8963
  0
LINE
  8
0
 10
25.8853
 20
23.8963
 11
25.7865
 21
24.0183
  0
LINE
  8
0
 10
25.7865
 20
24.0183
 11
25.701
 21
24.15
  0
LINE
  8
0
 10
25.701
 20
24.15
 11
25.6297
 21
24.2899
  0
LINE
  8
0
 10
25.6297
 20
24.2899
 11
25.5734
 21
24.4365
  0
LINE
  8
0
 10
25.5734
 20
24.4365
 11
25.5328
 21
24.5881
  0
LINE
  8
0
 10
25.5328
 20
24.5881
 11
25.5082
 21
24.7432
  0
LINE
  8
0
 10
25.5082
 20
24.7432
 11
25.5
 21
24.9
  0
LINE
  8
0
 10
25.5
 20
24.9
 11
25.5082
 21
25.0568
  0
LINE
  8
0
 10
25.5082
 20
25.0568
 11
25.5328
 21
25.2119
  0
LINE
  8
0
 10
25.5328
 20
25.2119
 11
25.5734
 21
25.3635
  0
LINE
  8
0
 10
25.5734
 20
25.3635
 11
25.6297
 21
25.5101
  0
LINE
  8
0
 10
25.6297
 20
25.5101
 11
25.701
 21
25.65
  0
LINE
  8
0
 10
25.701
 20
25.65
 11
25.7865
 21
25.7817
  0
LINE
  8
0
 10
25.7865
 20
25.7817
 11
25.8853
 21
25.9037
  0
LINE
  8
0
 10
25.8853
 20
25.9037
 11
25.9963
 21
26.0147
  0
LINE
  8
0
 10
25.9963
 20
26.0147
 11
26.1183
 21
26.1135
  0
LINE
  8
0
 10
26.1183
 20
26.1135
 11
26.25
 21
26.199
  0
LINE
  8
0
 10
26.25
 20
26.199
 11
26.3899
 21
26.2703
  0
LINE
  8
0
 10
26.3899
 20
26.2703
 11
26.5365
 21
26.3266
  0
LINE
  8
0
 10
26.5365
 20
26.3266
 11
26.6881
 21
26.3672
  0
LINE
  8
0
 10
26.6881
 20
26.3672
 11
26.8432
 21
26.3918
  0
LINE
  8
0
 10
26.8432
 20
26.3918
 11
27
 21
26.4
  0
LINE
  8
0
 10
27
 20
26.4
 11
27.1568
 21
26.3918
  0
LINE
  8
0
 10
27.1568
 20
26.3918
 11
27.3119
 21
26.3672
  0
LINE
  8
0
 10
27.3119
 20
26.3672
 11
27.4635
 21
26.3266
  0
LINE
  8
0
 10
27.4635
 20
26.3266
 11
27.6101
 21
26.2703
  0
LINE
  8
0
 10
27.6101
 20
26.2703
 11
27.75
 21
26.199
  0
LINE
  8
0
 10
27.75
 20
26.199
 11
27.8817
 21
26.1135
  0
LINE
  8
0
 10
27.8817
 20
26.1135
 11
28.0037
 21
26.0147
  0
LINE
  8
0
 10
28.0037
 20
26.0147
 11
28.1147
 21
25.9037
  0
LINE
  8
0
 10
28.1147
 20
25.9037
 11
28.2135
 21
25.7817
  0
LINE
  8
0
 10
28.2135
 20
25.7817
 11
28.299
 21
25.65
  0
LINE
  8
0
 10
28.299
 20
25.65
 11
28.3703
 21
25.5101
  0
LINE
  8
0
 10
28.3703
 20
25.5101
 11
28.4266
 21
25.3635
  0
LINE
  8
0
 10
28.4266
 20
25.3635
 11
28.4672
 21
25.2119
  0
LINE
  8
0
 10
28.4672
 20
25.2119
 11
28.4918
 21
25.0568
  0
LINE
  8
0
 10
28.4918
 20
25.0568
 11
28.5
 21
24.9
  0
LINE
  8
0
 10
28.5
 20
24.9
 11
28.4918
 21
24.7432
  0
LINE
  8
0
 10
28.4918
 20
24.7432
 11
28.4672
 21
24.5881
  0
LINE
  8
0
 10
28.4672
 20
24.5881
 11
28.4266
 21
24.4365
  0
LINE
  8
0
 10
28.4266
 20
24.4365
 11
28.3703
 21
24.2899
  0
LINE
  8
0
 10
28.3703
 20
24.2899
 11
28.299
 21
24.15
  0
LINE
  8
0
 10
28.299
 20
24.15
 11
28.2135
 21
24.0183
  0
LINE
  8
0
 10
28.2135
 20
24.0183
 11
28.1147
 21
23.8963
  0
LINE
  8
0
 10
28.1147
 20
23.8963
 11
28.0037
 21
23.7853
  0
LINE
  8
0
 10
28.0037
 20
23.7853
 11
27.8817
 21
23.6865
  0
LINE
  8
0
 10
27.8817
 20
23.6865
 11
27.75
 21
23.601
  0
LINE
  8
0
 10
27.75
 20
23.601
 11
27.6101
 21
23.5297
  0
LINE
  8
0
 10
27.6101
 20
23.5297
 11
27.4635
 21
23.4734
  0
LINE
  8
0
 10
27.4635
 20
23.4734
 11
27.3119
 21
23.4328
  0
LINE
  8
0
 10
27.3119
 20
23.4328
 11
27.1568
 21
23.4082
  0
LINE
  8
0
 10
27.1568
 20
23.4082
 11
27
 21
23.4
  0
LINE
  8
0
 10
27
 20
23.4
 11
26.8432
 21
23.4082
  0
LINE
  8
0
 10
177.843
 20
23.4082
 11
177.688
 21
23.4328
  0
LINE
  8
0
 10
177.688
 20
23.4328
 11
177.536
 21
23.4734
  0
LINE
  8
0
 10
177.536
 20
23.4734
 11
177.39
 21
23.5297
  0
LINE
  8
0
 10
177.39
 20
23.5297
 11
177.25
 21
23.601
  0
LINE
  8
0
 10
177.25
 20
23.601
 11
177.118
 21
23.6865
  0
LINE
  8
0
 10
177.118
 20
23.6865
 11
176.996
 21
23.7853
  0
LINE
  8
0
 10
176.996
 20
23.7853
 11
176.885
 21
23.8963
  0
LINE
  8
0
 10
176.885
 20
23.8963
 11
176.786
 21
24.0183
  0
LINE
  8
0
 10
176.786
 20
24.0183
 11
176.701
 21
24.15
  0
LINE
  8
0
 10
176.701
 20
24.15
 11
176.63
 21
24.2899
  0
LINE
  8
0
 10
176.63
 20
24.2899
 11
176.573
 21
24.4365
  0
LINE
  8
0
 10
176.573
 20
24.4365
 11
176.533
 21
24.5881
  0
LINE
  8
0
 10
176.533
 20
24.5881
 11
176.508
 21
24.7432
  0
LINE
  8
0
 10
176.508
 20
24.7432
 11
176.5
 21
24.9
  0
LINE
  8
0
 10
176.5
 20
24.9
 11
176.508
 21
25.0568
  0
LINE
  8
0
 10
176.508
 20
25.0568
 11
176.533
 21
25.2119
  0
LINE
  8
0
 10
176.533
 20
25.2119
 11
176.573
 21
25.3635
  0
LINE
  8
0
 10
176.573
 20
25.3635
 11
176.63
 21
25.5101
  0
LINE
  8
0
 10
176.63
 20
25.5101
 11
176.701
 21
25.65
  0
LINE
  8
0
 10
176.701
 20
25.65
 11
176.786
 21
25.7817
  0
LINE
  8
0
 10
176.786
 20
25.7817
 11
176.885
 21
25.9037
  0
LINE
  8
0
 10
176.885
 20
25.9037
 11
176.996
 21
26.0147
  0
LINE
  8
0
 10
176.996
 20
26.0147
 11
177.118
 21
26.1135
  0
LINE
  8
0
 10
177.118
 20
26.1135
 11
177.25
 21
26.199
  0
LINE
  8
0
 10
177.25
 20
26.199
 11
177.39
 21
26.2703
  0
LINE
  8
0
 10
177.39
 20
26.2703
 11
177.536
 21
26.3266
  0
LINE
  8
0
 10
177.536
 20
26.3266
 11
177.688
 21
26.3672
  0
LINE
  8
0
 10
177.688
 20
26.3672
 11
177.843
 21
26.3918
  0
LINE
  8
0
 10
177.843
 20
26.3918
 11
178
 21
26.4
  0
LINE
  8
0
 10
178
 20
26.4
 11
178.157
 21
26.3918
  0
LINE
  8
0
 10
178.157
 20
26.3918
 11
178.312
 21
26.3672
  0
LINE
  8
0
 10
178.312
 20
26.3672
 11
178.464
 21
26.3266
  0
LINE
  8
0
 10
178.464
 20
26.3266
 11
178.61
 21
26.2703
  0
LINE
  8
0
 10
178.61
 20
26.2703
 11
178.75
 21
26.199
  0
LINE
  8
0
 10
178.75
 20
26.199
 11
178.882
 21
26.1135
  0
LINE
  8
0
 10
178.882
 20
26.1135
 11
179.004
 21
26.0147
  0
LINE
  8
0
 10
179.004
 20
26.0147
 11
179.115
 21
25.9037
  0
LINE
  8
0
 10
179.115
 20
25.9037
 11
179.214
 21
25.7817
  0
LINE
  8
0
 10
179.214
 20
25.7817
 11
179.299
 21
25.65
  0
LINE
  8
0
 10
179.299
 20
25.65
 11
179.37
 21
25.5101
  0
LINE
  8
0
 10
179.37
 20
25.5101
 11
179.427
 21
25.3635
  0
LINE
  8
0
 10
179.427
 20
25.3635
 11
179.467
 21
25.2119
  0
LINE
  8
0
 10
179.467
 20
25.2119
 11
179.492
 21
25.0568
  0
LINE
  8
0
 10
179.492
 20
25.0568
 11
179.5
 21
24.9
  0
LINE
  8
0
 10
179.5
 20
24.9
 11
179.492
 21
24.7432
  0
LINE
  8
0
 10
179.492
 20
24.7432
 11
179.467
 21
24.5881
  0
LINE
  8
0
 10
179.467
 20
24.5881
 11
179.427
 21
24.4365
  0
LINE
  8
0
 10
179.427
 20
24.4365
 11
179.37
 21
24.2899
  0
LINE
  8
0
 10
179.37
 20
24.2899
 11
179.299
 21
24.15
  0
LINE
  8
0
 10
179.299
 20
24.15
 11
179.214
 21
24.0183
  0
LINE
  8
0
 10
179.214
 20
24.0183
 11
179.115
 21
23.8963
  0
LINE
  8
0
 10
179.115
 20
23.8963
 11
179.004
 21
23.7853
  0
LINE
  8
0
 10
179.004
 20
23.7853
 11
178.882
 21
23.6865
  0
LINE
  8
0
 10
178.882
 20
23.6865
 11
178.75
 21
23.601
  0
LINE
  8
0
 10
178.75
 20
23.601
 11
178.61
 21
23.5297
  0
LINE
  8
0
 10
178.61
 20
23.5297
 11
178.464
 21
23.4734
  0
LINE
  8
0
 10
178.464
 20
23.4734
 11
178.312
 21
23.4328
  0
LINE
  8
0
 10
178.312
 20
23.4328
 11
178.157
 21
23.4082
  0
LINE
  8
0
 10
178.157
 20
23.4082
 11
178
 21
23.4
  0
LINE
  8
0
 10
178
 20
23.4
 11
177.843
 21
23.4082
  0
LINE
  8
0
 10
-0.0999908
 20
3
 11
-0.0999908
 21
14.925
  0
LINE
  8
0
 10
-0.0999908
 20
14.925
 11
3.09999
 21
14.925
  0
LINE
  8
0
 10
3.09999
 20
14.925
 11
3.09999
 21
3
  0
LINE
  8
0
 10
3.09999
 20
3
 11
-0.0999908
 21
3
  0
LINE
  8
0
 10
138.66
 20
-0.0999908
 11
138.66
 21
3.09999
  0
LINE
  8
0
 10
138.66
 20
3.09999
 11
158.24
 21
3.09999
  0
LINE
  8
0
 10
158.24
 20
3.09999
 11
158.24
 21
-0.0999908
  0
LINE
  8
0
 10
158.24
 20
-0.0999908
 11
138.66
 21
-0.0999908
  0
LINE
  8
0
 10
22.38
 20
-0.0999908
 11
22.38
 21
3.09999
  0
LINE
  8
0
 10
22.38
 20
3.09999
 11
41.96
 21
3.09999
  0
LINE
  8
0
 10
41.96
 20
3.09999
 11
41.96
 21
-0.0999908
  0
LINE
  8
0
 10
41.96
 20
-0.0999908
 11
22.38
 21
-0.0999908
  0
LINE
  8
0
 10
177.42
 20
-0.0999908
 11
177.42
 21
3.09999
  0
LINE
  8
0
 10
177.42
 20
3.09999
 11
197
 21
3.09999
  0
LINE
  8
0
 10
197
 20
3.09999
 11
197
 21
-0.0999908
  0
LINE
  8
0
 10
197
 20
-0.0999908
 11
177.42
 21
-0.0999908
  0
LINE
  8
0
 10
61.14
 20
-0.0999908
 11
61.14
 21
3.09999
  0
LINE
  8
0
 10
61.14
 20
3.09999
 11
80.72
 21
3.09999
  0
LINE
  8
0
 10
80.72
 20
3.09999
 11
80.72
 21
-0.0999908
  0
LINE
  8
0
 10
80.72
 20
-0.0999908
 11
61.14
 21
-0.0999908
  0
LINE
  8
0
 10
119.48
 20
-0.0999908
 11
99.9
 21
-0.0999908
  0
LINE
  8
0
 10
99.9
 20
-0.0999908
 11
99.9
 21
3.09999
  0
LINE
  8
0
 10
99.9
 20
3.09999
 11
119.48
 21
3.09999
  0
LINE
  8
0
 10
119.48
 20
3.09999
 11
119.48
 21
-0.0999908
  0
ENDSEC
  0
SECTION
  2
OBJECTS
  0
DICTIONARY
  0
ENDSEC
  0
EOF
